<svg width="128" height="128" viewBox="0 0 128 128" fill="none" xmlns="http://www.w3.org/2000/svg">
<rect width="128" height="128" rx="64" fill="#EAF6EF"/>
<path d="M53.2105 83.8968L90.4835 78.0935C90.9022 80.8507 91.1684 82.9139 91.1491 84.5801C91.1262 86.5638 90.693 87.6799 89.898 88.5506C89.1027 89.4213 87.9009 90.0955 85.532 90.7306C83.0934 91.3844 79.8067 91.9004 75.0935 92.6342L61.9594 94.6792C57.2461 95.413 53.9583 95.9207 51.4364 96.0392C48.9865 96.1543 47.6366 95.8775 46.6143 95.2898C45.592 94.7021 44.8401 93.7705 44.2151 91.8876C44.1682 91.7461 44.1224 91.6008 44.0777 91.4517C43.8245 90.607 43.6979 90.1844 43.9145 89.108C44.1312 88.032 44.2689 87.8469 44.5445 87.4767C45.3616 86.3791 46.5753 85.4718 48.0462 84.9076C48.878 84.5886 49.9984 84.3969 53.2105 83.8968Z" fill="#1E6B41"/>
<path opacity="0.5" d="M38.1644 39.8876C38.9276 38.8337 40.1059 38.0406 42.4554 37.3415C44.8739 36.6218 48.1477 36.1067 52.8428 35.3757L65.9266 33.3386C70.6217 32.6076 73.8972 32.103 76.4201 32.0533C78.8709 32.005 80.2344 32.4023 81.2818 33.1743C82.3292 33.9463 83.119 35.1361 83.8186 37.5062C84.5386 39.9461 85.0581 43.2475 85.7953 47.9823L90.4835 78.0935L53.2105 83.8968C49.9983 84.3969 48.878 84.5886 48.0462 84.9076C46.5753 85.4718 45.3616 86.3791 44.5445 87.4767C44.2689 87.8469 44.1312 88.032 43.9145 89.1081C43.7902 89.7255 43.7789 90.1281 43.8397 90.5181L38.3667 55.3668C37.6295 50.632 37.1206 47.329 37.0648 44.7857C37.0106 42.315 37.4013 40.9414 38.1644 39.8876Z" fill="#53B57F"/>
<path d="M47.612 51.3709C47.4208 50.143 48.2612 48.9927 49.4891 48.8015L73.2033 45.1092C74.4311 44.9181 75.5815 45.7585 75.7727 46.9863C75.9639 48.2141 75.1234 49.3645 73.8956 49.5557L50.1814 53.2479C48.9535 53.4391 47.8032 52.5987 47.612 51.3709Z" fill="#195936"/>
<path d="M51.1044 59.1765C49.8766 59.3677 49.0362 60.5181 49.2274 61.7459C49.4185 62.9737 50.5689 63.8141 51.7967 63.6229L66.6182 61.3153C67.846 61.1241 68.6864 59.9737 68.4952 58.7459C68.3041 57.5181 67.1537 56.6777 65.9259 56.8688L51.1044 59.1765Z" fill="#195936"/>
</svg>
