<?xml version="1.0" encoding="UTF-8" standalone="no"?>
<svg
   width="48.90979"
   height="40.374191"
   viewBox="0 0 48.90979 40.374191"
   fill="none"
   version="1.1"
   id="svg22"
   xmlns="http://www.w3.org/2000/svg"
   xmlns:svg="http://www.w3.org/2000/svg">
  <defs
     id="defs26" />
  <g
     id="g149"
     transform="translate(-3.398556,-2.6849543)">
    <g
       id="g161"
       transform="rotate(-9,26.105974,22.564866)">
      <path
         d="M 50.661819,31.663859 44.58109,9.0227732 C 43.854203,6.3583096 41.421985,4.5029459 38.668249,4.5029459 c -0.531171,0 -1.062343,0.069733 -1.579531,0.2092437 L 32.545753,5.9258393 C 32.252202,6.009555 31.986616,6.1211456 31.721031,6.2327817 30.686655,5.4236363 29.386647,4.9214333 27.960885,4.9214333 h -4.976301 c -1.271996,0 -2.460185,0.3906124 -3.438629,1.0602468 -0.97849,-0.6696344 -2.166679,-1.0602468 -3.438674,-1.0602468 h -4.976302 c -3.3687592,0 -6.1085122,2.7342418 -6.1085122,6.0822777 L 4.8686996,34.732872 c 0,3.37591 2.739753,6.110334 6.1224954,6.110334 h 0.09783 l 5.144052,-0.279204 c 1.230092,-0.02778 2.376287,-0.418578 3.32681,-1.060338 0.97849,0.669544 2.166679,1.060338 3.438675,1.060338 h 4.696732 c 3.145123,0 5.703143,-2.385441 6.05258,-5.398659 l 0.419353,1.64612 c 0.657018,2.427117 2.865555,4.129214 5.381671,4.129214 h 0.419353 c 0.531171,0 1.062342,-0.06969 1.565547,-0.209061 l 0.111864,-0.02824 4.808505,-1.590052 c 1.523553,-0.446362 2.795685,-1.436967 3.592305,-2.818048 0.810739,-1.408956 1.034376,-3.055076 0.615342,-4.631417 z"
         fill="#9597c9"
         id="path2"
         style="stroke-width:0.455472" />
      <path
         d="m 10.991195,37.355478 c -1.4537289,0 -2.6279348,-1.171792 -2.6279348,-2.622606 L 8.5170275,11.017648 c 0,-1.4508139 1.1742058,-2.6226058 2.6279345,-2.6226058 h 4.976302 c 1.453728,0 2.627889,1.1717919 2.627889,2.6226058 V 34.45385 c 0,1.450814 -1.174161,2.622652 -2.627889,2.622652 z m 0.153767,-26.826096 c -0.279568,0 -0.503205,0.223227 -0.503205,0.502203 L 10.48799,34.74681 c 0,0.279022 0.223637,0.502203 0.503205,0.502203 l 5.130069,-0.278977 c 0.279568,0 0.503205,-0.223226 0.503205,-0.502248 V 11.031585 c 0,-0.278976 -0.223637,-0.502203 -0.503205,-0.502203 z"
         fill="#000000"
         id="path4"
         style="stroke-width:0.455472" />
      <path
         d="m 12.207304,15.495572 c -0.587057,0 -1.062342,-0.474283 -1.062342,-1.060201 0,-0.585919 0.475285,-1.060202 1.062342,-1.060202 l 2.949453,-0.209244 c 0.587057,0 1.062342,0.474283 1.062342,1.060202 0,0.585919 -0.475285,1.060201 -1.062342,1.060201 z"
         fill="#000000"
         id="path6"
         style="stroke-width:0.455472" />
      <path
         d="m 12.207304,32.403089 c -0.587057,0 -1.062342,-0.474282 -1.062342,-1.060201 0,-0.585919 0.475285,-1.060201 1.062342,-1.060201 h 3.13114 c 0.587103,0 1.062388,0.474282 1.062388,1.060201 0,0.585919 -0.475285,1.060201 -1.062388,1.060201 z"
         fill="#000000"
         id="path8"
         style="stroke-width:0.455472" />
      <path
         d="m 22.998567,37.090393 c -1.453729,0 -2.627935,-1.171837 -2.627935,-2.622651 V 11.03154 c 0,-1.450814 1.174206,-2.6226059 2.627935,-2.6226059 h 4.976301 c 1.453728,0 2.627889,1.1717919 2.627889,2.6226059 l -0.279569,23.436202 c 0,1.450814 -1.17416,2.622651 -2.627889,2.622651 z m 0.461301,-26.561056 c -0.531171,0 -0.97849,0.43247 -0.97849,0.976531 v 22.961874 c 0,0.279022 0.223637,0.502249 0.503206,0.502249 h 4.696732 c 0.279569,0 0.503205,-0.223227 0.503205,-0.502249 L 28.46409,11.03154 c 0,-0.278977 -0.223637,-0.502203 -0.503205,-0.502203 z"
         fill="#000000"
         id="path10"
         style="stroke-width:0.455472" />
      <path
         d="m 23.78134,15.077039 c -0.587057,0 -1.062342,-0.474283 -1.062342,-1.060201 0,-0.585874 0.475285,-1.060202 1.062342,-1.060202 l 3.131185,0.139511 c 0.587058,0 1.062343,0.474283 1.062343,1.060202 0,0.585918 -0.475285,1.060201 -1.062343,1.060201 z"
         fill="#000000"
         id="path12"
         style="stroke-width:0.455472" />
      <path
         d="m 23.78134,32.403089 c -0.587057,0 -1.062342,-0.474282 -1.062342,-1.060201 0,-0.585919 0.475285,-1.060201 1.062342,-1.060201 h 3.131185 c 0.587058,0 1.062343,0.474282 1.062343,1.060201 0,0.585919 -0.475285,1.060201 -1.062343,1.060201 z"
         fill="#000000"
         id="path14"
         style="stroke-width:0.455472" />
      <path
         d="m 39.548903,37.453085 c -0.936541,0 -1.761263,-0.627731 -2.012866,-1.534483 L 31.595229,12.510274 c -0.377403,-1.395018 0.461302,-2.8318949 1.859145,-3.2085244 l 4.542919,-1.2136498 c 0.223682,-0.055795 0.447319,-0.083716 0.670956,-0.083716 1.188188,0 2.236547,0.7951623 2.544082,1.9390794 l 6.080364,22.6410408 c 0.181733,0.683571 0.08426,1.381081 -0.26554,1.994874 -0.349347,0.613794 -0.92233,1.046264 -1.593376,1.227587 l -4.780585,1.590325 c -0.223637,0.0558 -0.447319,0.08372 -0.670955,0.08372 H 39.562886 Z M 38.668249,10.110849 c 0,0 -0.08385,0 -0.125802,0.01394 l -4.542919,1.213696 c -0.125802,0.02787 -0.237666,0.125528 -0.307535,0.237118 -0.06991,0.111636 -0.0839,0.251102 -0.05593,0.376675 l 5.82899,23.017716 c 0.05589,0.223181 0.265585,0.376629 0.489222,0.376629 l 4.920369,-1.604262 c 0.125801,-0.02788 0.237619,-0.111591 0.307534,-0.237164 0.06987,-0.111591 0.08385,-0.251102 0.05589,-0.37663 L 39.157516,10.487525 c -0.05593,-0.223227 -0.265585,-0.376676 -0.489267,-0.376676 z"
         fill="#000000"
         id="path16"
         style="stroke-width:0.455472" />
      <path
         d="m 35.690876,15.704816 c -0.279569,0 -0.545154,-0.111637 -0.754808,-0.306943 -0.209699,-0.19526 -0.307534,-0.460345 -0.307534,-0.753304 0,-0.474283 0.321517,-0.89277 0.782773,-1.018344 l 3.019322,-0.8091 c 0.0839,-0.02792 0.181733,-0.04186 0.279568,-0.04186 0.475285,0 0.894638,0.32088 1.020439,0.781225 0.153722,0.557999 -0.181733,1.143918 -0.74087,1.297366 l -3.033305,0.8091 c -0.08385,0.02787 -0.181687,0.04186 -0.279568,0.04186 z"
         fill="#000000"
         id="path18"
         style="stroke-width:0.455472" />
      <path
         d="m 39.982239,32.528708 c -0.587103,-0.06973 -0.992473,-0.599856 -0.922604,-1.185775 0.05593,-0.474282 0.433336,-0.850957 0.908621,-0.92069 l 3.103174,-0.864895 c 0.09783,0 0.181733,0 0.279568,0 0.475285,0.05579 0.852689,0.432425 0.922558,0.906753 0.0839,0.585919 -0.321472,1.115996 -0.908575,1.199712 l -3.103174,0.864895 c -0.09788,0 -0.181733,0 -0.279568,0 z"
         fill="#000000"
         id="path20"
         style="stroke-width:0.455472" />
    </g>
  </g>
</svg>
