<svg width="56" height="56" viewBox="0 0 56 56" fill="none" xmlns="http://www.w3.org/2000/svg">
<rect x="4" y="4" width="48" height="48" rx="24" fill="#BBDBB8"/>
<rect x="4" y="4" width="48" height="48" rx="24" stroke="#EBF6EA" stroke-width="8"/>
<mask id="mask0_1294_25813" style="mask-type:alpha" maskUnits="userSpaceOnUse" x="16" y="16" width="24" height="24">
<rect x="16" y="16" width="24" height="24" fill="#D9D9D9"/>
</mask>
<g mask="url(#mask0_1294_25813)">
<path d="M33.5 34.5V36.5C33.5 36.6333 33.55 36.75 33.65 36.85C33.75 36.95 33.8667 37 34 37C34.1333 37 34.25 36.95 34.35 36.85C34.45 36.75 34.5 36.6333 34.5 36.5V34.5H36.5C36.6333 34.5 36.75 34.45 36.85 34.35C36.95 34.25 37 34.1333 37 34C37 33.8667 36.95 33.75 36.85 33.65C36.75 33.55 36.6333 33.5 36.5 33.5H34.5V31.5C34.5 31.3667 34.45 31.25 34.35 31.15C34.25 31.05 34.1333 31 34 31C33.8667 31 33.75 31.05 33.65 31.15C33.55 31.25 33.5 31.3667 33.5 31.5V33.5H31.5C31.3667 33.5 31.25 33.55 31.15 33.65C31.05 33.75 31 33.8667 31 34C31 34.1333 31.05 34.25 31.15 34.35C31.25 34.45 31.3667 34.5 31.5 34.5H33.5ZM34 39C32.6167 39 31.4375 38.5125 30.4625 37.5375C29.4875 36.5625 29 35.3833 29 34C29 32.6167 29.4875 31.4375 30.4625 30.4625C31.4375 29.4875 32.6167 29 34 29C35.3833 29 36.5625 29.4875 37.5375 30.4625C38.5125 31.4375 39 32.6167 39 34C39 35.3833 38.5125 36.5625 37.5375 37.5375C36.5625 38.5125 35.3833 39 34 39ZM24 25H32C32.2833 25 32.5208 24.9042 32.7125 24.7125C32.9042 24.5208 33 24.2833 33 24C33 23.7167 32.9042 23.4792 32.7125 23.2875C32.5208 23.0958 32.2833 23 32 23H24C23.7167 23 23.4792 23.0958 23.2875 23.2875C23.0958 23.4792 23 23.7167 23 24C23 24.2833 23.0958 24.5208 23.2875 24.7125C23.4792 24.9042 23.7167 25 24 25ZM27.675 37H21C20.45 37 19.9792 36.8042 19.5875 36.4125C19.1958 36.0208 19 35.55 19 35V21C19 20.45 19.1958 19.9792 19.5875 19.5875C19.9792 19.1958 20.45 19 21 19H35C35.55 19 36.0208 19.1958 36.4125 19.5875C36.8042 19.9792 37 20.45 37 21V27.7C36.5167 27.4667 36.0292 27.2917 35.5375 27.175C35.0458 27.0583 34.5333 27 34 27C33.8167 27 33.6458 27.0042 33.4875 27.0125C33.3292 27.0208 33.1667 27.0417 33 27.075C32.85 27.0417 32.6833 27.0208 32.5 27.0125C32.3167 27.0042 32.15 27 32 27H24C23.7167 27 23.4792 27.0958 23.2875 27.2875C23.0958 27.4792 23 27.7167 23 28C23 28.2833 23.0958 28.5208 23.2875 28.7125C23.4792 28.9042 23.7167 29 24 29H29.125C28.825 29.2833 28.5542 29.5917 28.3125 29.925C28.0708 30.2583 27.8583 30.6167 27.675 31H24C23.7167 31 23.4792 31.0958 23.2875 31.2875C23.0958 31.4792 23 31.7167 23 32C23 32.2833 23.0958 32.5208 23.2875 32.7125C23.4792 32.9042 23.7167 33 24 33H27.075C27.0417 33.1667 27.0208 33.3292 27.0125 33.4875C27.0042 33.6458 27 33.8167 27 34C27 34.55 27.05 35.0625 27.15 35.5375C27.25 36.0125 27.425 36.5 27.675 37Z" fill="#138A07"/>
</g>
</svg>
