<svg width="56" height="57" viewBox="0 0 56 57" fill="none" xmlns="http://www.w3.org/2000/svg">
<rect x="4" y="4.8418" width="48" height="48" rx="24" fill="#80CB9C"/>
<rect x="4" y="4.8418" width="48" height="48" rx="24" stroke="#D8EFE1" stroke-width="8"/>
<mask id="mask0_3314_17532" style="mask-type:alpha" maskUnits="userSpaceOnUse" x="16" y="16" width="24" height="25">
<rect x="16" y="16.8418" width="24" height="24" fill="#D9D9D9"/>
</mask>
<g mask="url(#mask0_3314_17532)">
<path d="M33.2203 35.3418V37.3418C33.2203 37.4751 33.2698 37.5918 33.3689 37.6918C33.4679 37.7918 33.5835 37.8418 33.7155 37.8418C33.8476 37.8418 33.9632 37.7918 34.0622 37.6918C34.1613 37.5918 34.2108 37.4751 34.2108 37.3418V35.3418H36.1919C36.324 35.3418 36.4395 35.2918 36.5386 35.1918C36.6376 35.0918 36.6872 34.9751 36.6872 34.8418C36.6872 34.7085 36.6376 34.5918 36.5386 34.4918C36.4395 34.3918 36.324 34.3418 36.1919 34.3418H34.2108V32.3418C34.2108 32.2085 34.1613 32.0918 34.0622 31.9918C33.9632 31.8918 33.8476 31.8418 33.7155 31.8418C33.5835 31.8418 33.4679 31.8918 33.3689 31.9918C33.2698 32.0918 33.2203 32.2085 33.2203 32.3418V34.3418H31.2392C31.1071 34.3418 30.9916 34.3918 30.8925 34.4918C30.7934 34.5918 30.7439 34.7085 30.7439 34.8418C30.7439 34.9751 30.7934 35.0918 30.8925 35.1918C30.9916 35.2918 31.1071 35.3418 31.2392 35.3418H33.2203ZM33.7155 39.8418C32.3453 39.8418 31.1773 39.3543 30.2115 38.3793C29.2457 37.4043 28.7628 36.2251 28.7628 34.8418C28.7628 33.4585 29.2457 32.2793 30.2115 31.3043C31.1773 30.3293 32.3453 29.8418 33.7155 29.8418C35.0858 29.8418 36.2538 30.3293 37.2196 31.3043C38.1854 32.2793 38.6683 33.4585 38.6683 34.8418C38.6683 36.2251 38.1854 37.4043 37.2196 38.3793C36.2538 39.3543 35.0858 39.8418 33.7155 39.8418ZM23.8101 25.8418H31.7345C32.0151 25.8418 32.2504 25.746 32.4402 25.5543C32.6301 25.3626 32.725 25.1251 32.725 24.8418C32.725 24.5585 32.6301 24.321 32.4402 24.1293C32.2504 23.9376 32.0151 23.8418 31.7345 23.8418H23.8101C23.5295 23.8418 23.2942 23.9376 23.1044 24.1293C22.9145 24.321 22.8196 24.5585 22.8196 24.8418C22.8196 25.1251 22.9145 25.3626 23.1044 25.5543C23.2942 25.746 23.5295 25.8418 23.8101 25.8418ZM27.4504 37.8418H20.8385C20.2937 37.8418 19.8273 37.646 19.4394 37.2543C19.0514 36.8626 18.8574 36.3918 18.8574 35.8418V21.8418C18.8574 21.2918 19.0514 20.821 19.4394 20.4293C19.8273 20.0376 20.2937 19.8418 20.8385 19.8418H34.7061C35.2509 19.8418 35.7173 20.0376 36.1052 20.4293C36.4932 20.821 36.6872 21.2918 36.6872 21.8418V28.5418C36.2084 28.3085 35.7255 28.1335 35.2385 28.0168C34.7515 27.9001 34.2438 27.8418 33.7155 27.8418C33.5339 27.8418 33.3647 27.846 33.2079 27.8543C33.0511 27.8626 32.8901 27.8835 32.725 27.9168C32.5764 27.8835 32.4113 27.8626 32.2297 27.8543C32.0481 27.846 31.883 27.8418 31.7345 27.8418H23.8101C23.5295 27.8418 23.2942 27.9376 23.1044 28.1293C22.9145 28.321 22.8196 28.5585 22.8196 28.8418C22.8196 29.1251 22.9145 29.3626 23.1044 29.5543C23.2942 29.746 23.5295 29.8418 23.8101 29.8418H28.8867C28.5895 30.1251 28.3212 30.4335 28.0818 30.7668C27.8425 31.1001 27.632 31.4585 27.4504 31.8418H23.8101C23.5295 31.8418 23.2942 31.9376 23.1044 32.1293C22.9145 32.321 22.8196 32.5585 22.8196 32.8418C22.8196 33.1251 22.9145 33.3626 23.1044 33.5543C23.2942 33.746 23.5295 33.8418 23.8101 33.8418H26.856C26.823 34.0085 26.8024 34.171 26.7941 34.3293C26.7859 34.4876 26.7818 34.6585 26.7818 34.8418C26.7818 35.3918 26.8313 35.9043 26.9303 36.3793C27.0294 36.8543 27.2027 37.3418 27.4504 37.8418Z" fill="#0F2715"/>
</g>
</svg>
