<svg width="56" height="57" viewBox="0 0 56 57" fill="none" xmlns="http://www.w3.org/2000/svg">
<rect x="4" y="4.31592" width="48" height="48" rx="24" fill="#BBDBB8"/>
<rect x="4" y="4.31592" width="48" height="48" rx="24" stroke="#EBF6EA" stroke-width="8"/>
<mask id="mask0_1231_33758" style="mask-type:alpha" maskUnits="userSpaceOnUse" x="16" y="16" width="25" height="25">
<rect x="16.1758" y="16.3193" width="24" height="24" fill="#D9D9D9"/>
</mask>
<g mask="url(#mask0_1231_33758)">
<path d="M24.1758 28.3193C23.8924 28.3193 23.6549 28.4152 23.4633 28.6068C23.2716 28.7985 23.1758 29.036 23.1758 29.3193V32.3193C23.1758 32.6027 23.2716 32.8402 23.4633 33.0318C23.6549 33.2235 23.8924 33.3193 24.1758 33.3193C24.4591 33.3193 24.6966 33.2235 24.8883 33.0318C25.0799 32.8402 25.1758 32.6027 25.1758 32.3193V29.3193C25.1758 29.036 25.0799 28.7985 24.8883 28.6068C24.6966 28.4152 24.4591 28.3193 24.1758 28.3193ZM32.1758 23.3193C31.8924 23.3193 31.6549 23.4152 31.4633 23.6068C31.2716 23.7985 31.1758 24.036 31.1758 24.3193V32.3193C31.1758 32.6027 31.2716 32.8402 31.4633 33.0318C31.6549 33.2235 31.8924 33.3193 32.1758 33.3193C32.4591 33.3193 32.6966 33.2235 32.8883 33.0318C33.0799 32.8402 33.1758 32.6027 33.1758 32.3193V24.3193C33.1758 24.036 33.0799 23.7985 32.8883 23.6068C32.6966 23.4152 32.4591 23.3193 32.1758 23.3193ZM28.1758 30.3193C27.8924 30.3193 27.6549 30.4152 27.4633 30.6068C27.2716 30.7985 27.1758 31.036 27.1758 31.3193V32.3193C27.1758 32.6027 27.2716 32.8402 27.4633 33.0318C27.6549 33.2235 27.8924 33.3193 28.1758 33.3193C28.4591 33.3193 28.6966 33.2235 28.8883 33.0318C29.0799 32.8402 29.1758 32.6027 29.1758 32.3193V31.3193C29.1758 31.036 29.0799 30.7985 28.8883 30.6068C28.6966 30.4152 28.4591 30.3193 28.1758 30.3193ZM21.1758 37.3193C20.6258 37.3193 20.1549 37.1235 19.7633 36.7318C19.3716 36.3402 19.1758 35.8693 19.1758 35.3193V21.3193C19.1758 20.7693 19.3716 20.2985 19.7633 19.9068C20.1549 19.5152 20.6258 19.3193 21.1758 19.3193H35.1758C35.7258 19.3193 36.1966 19.5152 36.5883 19.9068C36.9799 20.2985 37.1758 20.7693 37.1758 21.3193V35.3193C37.1758 35.8693 36.9799 36.3402 36.5883 36.7318C36.1966 37.1235 35.7258 37.3193 35.1758 37.3193H21.1758ZM28.1758 28.3193C28.4591 28.3193 28.6966 28.2235 28.8883 28.0318C29.0799 27.8402 29.1758 27.6027 29.1758 27.3193C29.1758 27.036 29.0799 26.7985 28.8883 26.6068C28.6966 26.4152 28.4591 26.3193 28.1758 26.3193C27.8924 26.3193 27.6549 26.4152 27.4633 26.6068C27.2716 26.7985 27.1758 27.036 27.1758 27.3193C27.1758 27.6027 27.2716 27.8402 27.4633 28.0318C27.6549 28.2235 27.8924 28.3193 28.1758 28.3193Z" fill="#138A07"/>
</g>
</svg>
