<svg width="186" height="189" viewBox="0 0 186 189" fill="none" xmlns="http://www.w3.org/2000/svg">
<g clip-path="url(#clip0_3314_12590)">
<mask id="mask0_3314_12590" style="mask-type:luminance" maskUnits="userSpaceOnUse" x="29" y="27" width="128" height="136">
<path d="M131.703 162.014L156.552 49.5977L54.749 27.0954L29.9007 139.512L131.703 162.014Z" fill="white"/>
</mask>
<g mask="url(#mask0_3314_12590)">
<path d="M75.8669 149.676C74.6041 149.393 73.361 148.973 72.201 148.405L48.2304 136.914C45.3884 135.542 38.7041 132.354 36.0058 124.681C34.3956 120.103 33.2297 111.144 43.5909 102.594L63.9667 85.8257C67.6622 82.7823 72.5811 81.6489 77.451 82.7338C81.8783 83.7086 85.7657 86.3866 88.1108 90.0811C88.4696 90.6484 88.7963 91.2321 89.0821 91.8273C103.51 83.832 115.291 71.0001 121.576 55.541C124.581 48.1588 132.052 44.2022 139.75 45.9059C144.673 46.9978 149.015 50.319 151.364 54.7838C153.66 59.161 153.9 64.325 152.016 68.9431C141.505 94.7676 120.216 115.402 94.4541 126.087C94.7854 126.765 95.0797 127.468 95.3147 128.195C96.7479 132.537 96.3665 137.296 94.271 141.269C90.792 147.859 83.2315 151.319 75.8659 149.698L75.8669 149.676Z" fill="#DADBEB"/>
<path d="M141.01 64.4486C143.298 58.8196 134.901 54.3302 132.593 59.9942C121.354 87.6116 95.2991 107.918 65.8122 111.926C69.4191 108.959 73.0173 105.987 76.6329 103.025C78.6198 101.398 79.5769 98.805 78.0828 96.4571C76.8305 94.4965 73.5118 93.3625 71.5064 95.0023C66.8754 98.8172 62.2356 102.627 57.6045 106.442C55.4453 108.214 53.2996 109.981 51.154 111.749C48.4213 114.013 45.854 116.863 47.2108 120.726C48.2072 123.575 50.8113 124.962 53.3604 126.182C55.9619 127.43 58.5547 128.674 61.1563 129.922C66.5436 132.5 71.9348 135.091 77.3173 137.677C79.6385 138.791 82.5166 138.029 83.7528 135.696C84.9206 133.484 84.0968 130.388 81.7718 129.26C77.2565 127.09 72.7275 124.924 68.1986 122.758C67.3314 122.342 66.4643 121.926 65.5971 121.51C98.5087 117.504 128.444 95.2997 140.996 64.4525L141.01 64.4486Z" fill="#13120D"/>
</g>
</g>
<defs>
<clipPath id="clip0_3314_12590">
<rect width="140.29" height="133.01" fill="white" transform="translate(185.516 65.793) rotate(119.214)"/>
</clipPath>
</defs>
</svg>
