<svg width="151" height="146" viewBox="0 0 151 146" fill="none" xmlns="http://www.w3.org/2000/svg">
<mask id="mask0_3314_7287" style="mask-type:luminance" maskUnits="userSpaceOnUse" x="6" y="8" width="138" height="130">
<path d="M30.3406 8.2646L143.958 34.2871L120.495 137.448L6.87688 111.426L30.3406 8.2646Z" fill="white"/>
</mask>
<g mask="url(#mask0_3314_7287)">
<path d="M17.4669 64.8433C17.1787 66.1244 17.0252 67.4471 17.0434 68.7582L17.1851 95.7378C17.2103 98.9406 17.2349 106.457 23.0882 112.264C26.5807 115.729 34.2735 120.689 46.5813 114.897L70.742 103.487C75.126 101.419 78.2917 97.3984 79.4064 92.4598C80.4303 87.975 79.662 83.246 77.2962 79.4903C76.9324 78.9149 76.5397 78.3617 76.1187 77.841C89.6781 68.0779 106.518 62.8423 123.383 63.7903C131.439 64.2391 138.292 59.1032 140.064 51.302C141.196 46.3114 140.035 40.8867 136.967 36.7923C133.955 32.7856 129.334 30.3228 124.293 30.0453C96.1137 28.4736 68.0203 39.0426 47.0946 58.0356C46.6176 57.4373 46.1016 56.862 45.5379 56.3307C42.1853 53.1305 37.6654 51.4137 33.1235 51.6108C25.5877 51.9405 19.15 57.3736 17.446 64.8345L17.4669 64.8433Z" fill="#80CB9C"/>
<path d="M123.642 42.0933C129.783 42.4384 130.257 52.0909 124.076 51.7485C93.9411 50.0657 64.0853 65.1495 47.6577 90.459C51.9334 88.4386 56.2098 86.4284 60.4848 84.3978C62.8336 83.2817 65.6202 83.5295 67.122 85.9198C68.3741 87.92 67.9756 91.4569 65.6073 92.5845C60.1125 95.1761 54.6183 97.7779 49.1235 100.37C46.5681 101.581 44.0222 102.782 41.4763 103.983C38.2219 105.506 34.5036 106.624 31.5553 103.701C29.3799 101.55 29.2372 98.559 29.2246 95.6911C29.208 92.7624 29.192 89.8438 29.1753 86.9151C29.1483 80.8537 29.1106 74.783 29.0735 68.7223C29.058 66.1089 31.0009 63.7996 33.6711 63.679C36.1998 63.5679 38.6762 65.668 38.7025 68.2909C38.734 73.3753 38.7561 78.4705 38.7781 83.5657C38.7837 84.5419 38.7893 85.5182 38.7948 86.4944C56.7028 58.0424 89.9741 40.2236 123.632 42.1041L123.642 42.0933Z" fill="#13120D"/>
</g>
</svg>
