<svg width="34" height="44" viewBox="0 0 34 44" fill="none" xmlns="http://www.w3.org/2000/svg">
<path d="M3.00033 43.9989C2.33921 43.9989 1.78505 43.7753 1.33783 43.3281C0.890603 42.8809 0.666992 42.3267 0.666992 41.6656C0.666992 41.0045 0.890603 40.4503 1.33783 40.0031C1.78505 39.5559 2.33921 39.3323 3.00033 39.3323H12.3337V34.6656C9.10588 34.6656 6.35449 33.5281 4.07949 31.2531C1.80449 28.9781 0.666992 26.2267 0.666992 22.9989C0.666992 20.7823 1.23088 18.7406 2.35866 16.8739C3.48644 15.0073 5.04199 13.5878 7.02533 12.6156C6.86977 13.4712 6.89894 14.3073 7.11283 15.1239C7.32671 15.9406 7.66699 16.7184 8.13366 17.4573C7.23921 18.0795 6.54894 18.8767 6.06283 19.8489C5.57671 20.8212 5.33366 21.8712 5.33366 22.9989C5.33366 24.9434 6.01421 26.5962 7.37533 27.9573C8.73644 29.3184 10.3892 29.9989 12.3337 29.9989H28.667C29.3281 29.9989 29.8823 30.2226 30.3295 30.6698C30.7767 31.117 31.0003 31.6712 31.0003 32.3323C31.0003 32.9934 30.7767 33.5476 30.3295 33.9948C29.8823 34.442 29.3281 34.6656 28.667 34.6656H19.3337V39.3323H31.0003C31.6614 39.3323 32.2156 39.5559 32.6628 40.0031C33.1101 40.4503 33.3337 41.0045 33.3337 41.6656C33.3337 42.3267 33.1101 42.8809 32.6628 43.3281C32.2156 43.7753 31.6614 43.9989 31.0003 43.9989H3.00033ZM20.967 21.0156H20.9087C20.2864 21.2489 19.6934 21.2392 19.1295 20.9864C18.5656 20.7337 18.167 20.2962 17.9337 19.6739L17.5837 18.7406C18.3614 18.1184 18.9642 17.3698 19.392 16.4948C19.8198 15.6198 20.0337 14.6767 20.0337 13.6656C20.0337 11.8378 19.392 10.292 18.1087 9.02811C16.8253 7.76423 15.2503 7.13228 13.3837 7.13228L13.092 6.37395C12.8975 5.75172 12.9267 5.15867 13.1795 4.59478C13.4323 4.03089 13.8698 3.63228 14.492 3.39895H14.5503C14.317 2.81561 14.3364 2.242 14.6087 1.67811C14.8809 1.11422 15.3475 0.715614 16.0087 0.48228C16.592 0.287836 17.1656 0.317003 17.7295 0.56978C18.2934 0.822558 18.6726 1.26006 18.867 1.88228C19.4892 1.64895 20.092 1.66839 20.6753 1.94061C21.2587 2.21284 21.667 2.66006 21.9003 3.28228L26.6837 16.4073C26.917 17.0295 26.9073 17.6226 26.6545 18.1864C26.4017 18.7503 25.9642 19.1489 25.342 19.3823H25.2837C25.517 20.0045 25.4976 20.6073 25.2253 21.1906C24.9531 21.7739 24.4864 22.1823 23.8253 22.4156C23.242 22.6101 22.6684 22.5809 22.1045 22.3281C21.5406 22.0753 21.1614 21.6378 20.967 21.0156ZM13.5003 17.8656C12.3337 17.8656 11.342 17.4573 10.5253 16.6406C9.70866 15.8239 9.30033 14.8323 9.30033 13.6656C9.30033 12.4989 9.70866 11.5073 10.5253 10.6906C11.342 9.87395 12.3337 9.46561 13.5003 9.46561C14.667 9.46561 15.6587 9.87395 16.4753 10.6906C17.292 11.5073 17.7003 12.4989 17.7003 13.6656C17.7003 14.8323 17.292 15.8239 16.4753 16.6406C15.6587 17.4573 14.667 17.8656 13.5003 17.8656Z" fill="#4354A3"/>
</svg>
