<svg width="63" height="52" viewBox="0 0 63 52" fill="none" xmlns="http://www.w3.org/2000/svg">
<path d="M62.1281 37.1961L52.9381 7.48673C51.8417 3.99099 48.525 1.65289 44.8747 1.79027C44.1705 1.81677 43.4699 1.93573 42.7913 2.14646L36.8297 3.98193C36.4448 4.10753 36.0983 4.26871 35.7518 4.4299C34.3403 3.40896 32.592 2.8081 30.7019 2.87924L24.1054 3.12751C22.4192 3.19097 20.8637 3.76803 19.6001 4.70447C18.2696 3.86566 16.6751 3.40716 14.9889 3.47062L8.39241 3.7189C3.9268 3.88697 0.431429 7.64811 0.598466 12.0862L1.57851 43.549C1.74694 48.0241 5.51513 51.5119 9.99928 51.3431L10.129 51.3382L16.9339 50.7118C18.5631 50.6134 20.0631 50.0384 21.2911 49.1404C22.6215 49.9792 24.216 50.4377 25.9022 50.3742L32.1281 50.1399C36.2973 49.983 39.5691 46.6932 39.8821 42.6815L40.5201 44.8426C41.512 48.0275 44.5246 50.1733 47.8599 50.0478L48.4158 50.0269C49.1199 50.0004 49.8206 49.8814 50.4807 49.6714L50.6275 49.6288L56.9223 47.2808C58.9198 46.6131 60.5566 45.2366 61.5438 43.3662C62.5482 41.458 62.7626 39.2648 62.1281 37.1961Z" fill="#F9D38F"/>
<path d="M9.8249 46.7195C7.89783 46.792 6.28288 45.2973 6.2105 43.3741L5.23115 11.9298C5.15877 10.0066 6.65679 8.39469 8.58386 8.32216L15.1804 8.07389C17.1074 8.00136 18.7224 9.49612 18.7948 11.4193L19.964 42.4861C20.0364 44.4093 18.5384 46.0212 16.6113 46.0937L9.8249 46.7195ZM8.69034 11.1515C8.31975 11.1654 8.03442 11.4724 8.04834 11.8423L9.02768 43.2866C9.0416 43.6564 9.34921 43.9411 9.7198 43.9272L16.5062 43.3014C16.8768 43.2875 17.1621 42.9804 17.1482 42.6106L15.979 11.5438C15.965 11.174 15.6574 10.8892 15.2868 10.9032L8.69034 11.1515Z" fill="black"/>
<path d="M10.3526 17.6817C9.57436 17.711 8.92069 17.1059 8.89146 16.3293C8.86223 15.5526 9.46857 14.9002 10.2468 14.8709L14.1461 14.4463C14.9243 14.417 15.578 15.0221 15.6072 15.7987C15.6365 16.5754 15.0301 17.2278 14.2519 17.2571L10.3526 17.6817Z" fill="black"/>
<path d="M11.1957 40.0937C10.4174 40.123 9.76377 39.518 9.73454 38.7413C9.7053 37.9647 10.3116 37.3122 11.0899 37.2829L15.2405 37.1267C16.0187 37.0974 16.6724 37.7025 16.7016 38.4791C16.7309 39.2558 16.1245 39.9082 15.3463 39.9375L11.1957 40.0937Z" fill="black"/>
<path d="M25.7348 45.7715C23.8077 45.8441 22.1928 44.3493 22.1204 42.4261L20.9512 11.3593C20.8788 9.43615 22.3768 7.82423 24.3039 7.7517L30.9004 7.50343C32.8274 7.4309 34.4424 8.92566 34.5148 10.8488L35.3134 41.9296C35.3858 43.8528 33.8878 45.4647 31.9607 45.5372L25.7348 45.7715ZM25.0211 10.5395C24.317 10.566 23.7456 11.1616 23.7728 11.8828L24.9184 42.3208C24.9323 42.6907 25.2399 42.9754 25.6105 42.9614L31.8364 42.7271C32.207 42.7132 32.4923 42.4061 32.4784 42.0363L31.6797 10.9555C31.6658 10.5857 31.3582 10.301 30.9876 10.3149L25.0211 10.5395Z" fill="black"/>
<path d="M25.6722 16.5508C24.894 16.5801 24.2403 15.975 24.2111 15.1984C24.1819 14.4217 24.7882 13.7693 25.5664 13.74L29.724 13.7687C30.5023 13.7394 31.1559 14.3444 31.1852 15.1211C31.2144 15.8977 30.608 16.5502 29.8298 16.5795L25.6722 16.5508Z" fill="black"/>
<path d="M26.5375 39.5176C25.7592 39.5469 25.1056 38.9418 25.0763 38.1652C25.0471 37.3885 25.6534 36.7361 26.4317 36.7068L30.5823 36.5505C31.3605 36.5213 32.0142 37.1263 32.0434 37.903C32.0727 38.6796 31.4663 39.3321 30.6881 39.3614L26.5375 39.5176Z" fill="black"/>
<path d="M47.6871 45.4266C46.4456 45.4733 45.3211 44.6823 44.9423 43.4929L35.8994 12.7595C35.3295 10.9291 36.3696 8.98254 38.2038 8.41352L44.1653 6.57805C44.459 6.49292 44.7541 6.44478 45.0505 6.43362C46.6256 6.37434 48.0549 7.37609 48.5197 8.8771L57.7096 38.5865C57.9846 39.4835 57.8897 40.413 57.457 41.2441C57.0244 42.0752 56.2863 42.677 55.4059 42.9509L49.1482 45.2975C48.8545 45.3826 48.5594 45.4308 48.2629 45.442L47.707 45.4629L47.6871 45.4266ZM45.1556 9.22594C45.1556 9.22594 45.0445 9.23012 44.9896 9.2507L39.028 11.0862C38.8627 11.1294 38.7193 11.2645 38.6322 11.4159C38.5451 11.5673 38.5336 11.7529 38.5769 11.918L47.4521 42.1392C47.5373 42.4323 47.8229 42.6252 48.1194 42.614L54.5617 40.242C54.7271 40.1987 54.8712 40.0822 54.9576 39.9123C55.0446 39.7608 55.0562 39.5752 55.0129 39.4102L45.823 9.70081C45.7377 9.40773 45.4521 9.21478 45.1556 9.22594Z" fill="black"/>
<path d="M41.486 16.7893C41.1154 16.8033 40.7578 16.6686 40.4701 16.4202C40.1824 16.1717 40.0395 15.8253 40.0249 15.4369C40.0012 14.8082 40.4065 14.2374 41.0117 14.048L44.9738 12.8248C45.0835 12.7836 45.2125 12.7602 45.3423 12.7553C45.9723 12.7316 46.5442 13.136 46.7339 13.74C46.9655 14.472 46.5501 15.2654 45.8165 15.4967L41.836 16.7206C41.7262 16.7618 41.5972 16.7851 41.4675 16.79L41.486 16.7893Z" fill="black"/>
<path d="M48.0163 38.8768C47.2346 38.8136 46.6708 38.1311 46.7342 37.351C46.7847 36.7195 47.2662 36.2013 47.8927 36.0852L51.9631 34.7838C52.0928 34.779 52.204 34.7748 52.3337 34.7699C52.9665 34.8201 53.4856 35.3006 53.6019 35.9258C53.7423 36.6983 53.2314 37.4213 52.4573 37.5615L48.3869 38.8628C48.2572 38.8677 48.146 38.8719 48.0163 38.8768Z" fill="black"/>
</svg>
