<svg width="32" height="41" viewBox="0 0 32 41" fill="none" xmlns="http://www.w3.org/2000/svg">
<path d="M5.35704 40.47C3.89603 40.47 2.63794 39.9749 1.58276 38.9846C0.527587 37.9944 0 36.7688 0 35.3078V8.13296C0 6.89922 0.381486 5.79534 1.14446 4.82134C1.90743 3.84733 2.90579 3.23046 4.13953 2.97072L18.7496 0.0974007C19.9509 -0.162335 21.0223 0.0974007 21.9639 0.876607C22.9054 1.65581 23.3762 2.66229 23.3762 3.89603V27.1261C23.3762 28.0676 23.084 28.9037 22.4996 29.6342C21.9152 30.3647 21.1684 30.8111 20.2593 30.9734L4.91874 34.0416C4.62653 34.1065 4.38303 34.2607 4.18823 34.5042C3.99343 34.7477 3.89603 35.0156 3.89603 35.3078C3.89603 35.6649 4.04213 35.9652 4.33433 36.2087C4.62653 36.4522 4.96744 36.574 5.35704 36.574H27.2722V7.35375C27.2722 6.80182 27.4589 6.33916 27.8323 5.96579C28.2056 5.59242 28.6683 5.40574 29.2202 5.40574C29.7722 5.40574 30.2348 5.59242 30.6082 5.96579C30.9815 6.33916 31.1682 6.80182 31.1682 7.35375V36.574C31.1682 37.6454 30.7867 38.5626 30.0238 39.3255C29.2608 40.0885 28.3436 40.47 27.2722 40.47H5.35704ZM8.18166 29.4637C8.6362 29.3663 9.00957 29.1391 9.30177 28.7819C9.59397 28.4248 9.74007 28.0189 9.74007 27.5644V8.23036C9.74007 7.61349 9.50469 7.11025 9.03392 6.72065C8.56315 6.33105 8.01933 6.20118 7.40245 6.33105C6.94792 6.42845 6.57455 6.65572 6.28235 7.01285C5.99014 7.36999 5.84404 7.77582 5.84404 8.23036V27.5644C5.84404 28.1813 6.07943 28.6845 6.5502 29.0741C7.02097 29.4637 7.56479 29.5936 8.18166 29.4637Z" fill="#4354A3"/>
</svg>
