<svg width="56" height="56" viewBox="0 0 56 56" fill="none" xmlns="http://www.w3.org/2000/svg">
<rect x="4" y="4" width="48" height="48" rx="24" fill="#BBDBB8"/>
<rect x="4" y="4" width="48" height="48" rx="24" stroke="#EBF6EA" stroke-width="8"/>
<mask id="mask0_1238_23822" style="mask-type:alpha" maskUnits="userSpaceOnUse" x="16" y="16" width="24" height="24">
<rect x="16" y="16" width="24" height="24" fill="#D9D9D9"/>
</mask>
<g mask="url(#mask0_1238_23822)">
<path d="M24 32C24.2833 32 24.5208 31.9042 24.7125 31.7125C24.9042 31.5208 25 31.2833 25 31V21C25 20.7167 24.9042 20.4792 24.7125 20.2875C24.5208 20.0958 24.2833 20 24 20C23.7167 20 23.4792 20.0958 23.2875 20.2875C23.0958 20.4792 23 20.7167 23 21V31C23 31.2833 23.0958 31.5208 23.2875 31.7125C23.4792 31.9042 23.7167 32 24 32ZM22 38C21.1667 38 20.4583 37.7083 19.875 37.125C19.2917 36.5417 19 35.8333 19 35V21C19 20.1667 19.2917 19.4583 19.875 18.875C20.4583 18.2917 21.1667 18 22 18H31C31.55 18 32.0208 18.1958 32.4125 18.5875C32.8042 18.9792 33 19.45 33 20V32C33 32.55 32.8042 33.0208 32.4125 33.4125C32.0208 33.8042 31.55 34 31 34H22C21.7167 34 21.4792 34.0958 21.2875 34.2875C21.0958 34.4792 21 34.7167 21 35C21 35.2833 21.0958 35.5208 21.2875 35.7125C21.4792 35.9042 21.7167 36 22 36H35V21C35 20.7167 35.0958 20.4792 35.2875 20.2875C35.4792 20.0958 35.7167 20 36 20C36.2833 20 36.5208 20.0958 36.7125 20.2875C36.9042 20.4792 37 20.7167 37 21V36C37 36.55 36.8042 37.0208 36.4125 37.4125C36.0208 37.8042 35.55 38 35 38H22Z" fill="#138A07"/>
</g>
</svg>
