<svg width="63" height="52" viewBox="0 0 63 52" fill="none" xmlns="http://www.w3.org/2000/svg">
<path d="M62.1273 37.2645L52.9374 7.55509C51.8409 4.05935 48.5242 1.72125 44.8739 1.85863C44.1698 1.88513 43.4692 2.00409 42.7905 2.21482L36.829 4.05029C36.4441 4.17588 36.0976 4.33707 35.7511 4.49826C34.3395 3.47732 32.5912 2.87646 30.7012 2.9476L24.1047 3.19587C22.4185 3.25933 20.863 3.83639 19.5993 4.77283C18.2689 3.93402 16.6744 3.47552 14.9882 3.53898L8.39168 3.78726C3.92607 3.95533 0.430697 7.71647 0.597733 12.1546L1.57778 43.6174C1.74621 48.0925 5.5144 51.5802 9.99854 51.4115L10.1282 51.4066L16.9332 50.7801C18.5624 50.6818 20.0623 50.1068 21.2903 49.2087C22.6208 50.0475 24.2153 50.506 25.9015 50.4426L32.1274 50.2083C36.2965 50.0513 39.5684 46.7616 39.8813 42.7498L40.5193 44.911C41.5113 48.0958 44.5239 50.2417 47.8592 50.1162L48.4151 50.0952C49.1192 50.0687 49.8199 49.9498 50.48 49.7397L50.6268 49.6972L56.9216 47.3492C58.9191 46.6814 60.5558 45.305 61.5431 43.4345C62.5475 41.5264 62.7619 39.3331 62.1273 37.2645Z" fill="#F1A4A1"/>
<path d="M9.82563 46.7879C7.89856 46.8604 6.28362 45.3656 6.21123 43.4425L5.23189 11.9981C5.1595 10.075 6.65752 8.46304 8.58459 8.39052L15.1811 8.14225C17.1082 8.06972 18.7231 9.56448 18.7955 11.4877L19.9647 42.5545C20.0371 44.4776 18.5391 46.0896 16.612 46.1621L9.82563 46.7879ZM8.69107 11.2198C8.32048 11.2338 8.03515 11.5408 8.04907 11.9106L9.02842 43.3549C9.04234 43.7248 9.34994 44.0095 9.72053 43.9956L16.5069 43.3698C16.8775 43.3558 17.1629 43.0488 17.149 42.6789L15.9797 11.6122C15.9658 11.2423 15.6582 10.9576 15.2876 10.9715L8.69107 11.2198Z" fill="black"/>
<path d="M10.3526 17.75C9.57436 17.7793 8.92069 17.1743 8.89146 16.3976C8.86223 15.621 9.46857 14.9685 10.2468 14.9392L14.1461 14.5147C14.9243 14.4854 15.578 15.0904 15.6072 15.8671C15.6365 16.6438 15.0301 17.2962 14.2519 17.3255L10.3526 17.75Z" fill="black"/>
<path d="M11.1959 40.1621C10.4177 40.1914 9.76401 39.5864 9.73478 38.8097C9.70555 38.033 10.3119 37.3806 11.0901 37.3513L15.2407 37.1951C16.019 37.1658 16.6726 37.7708 16.7019 38.5475C16.7311 39.3242 16.1248 39.9766 15.3465 40.0059L11.1959 40.1621Z" fill="black"/>
<path d="M25.7348 45.8399C23.8077 45.9124 22.1928 44.4177 22.1204 42.4945L20.9512 11.4277C20.8788 9.50451 22.3768 7.89259 24.3039 7.82006L30.9004 7.57179C32.8274 7.49926 34.4424 8.99402 34.5148 10.9172L35.3134 41.9979C35.3858 43.9211 33.8878 45.533 31.9607 45.6056L25.7348 45.8399ZM25.0211 10.6079C24.317 10.6344 23.7456 11.2299 23.7728 11.9511L24.9184 42.3892C24.9323 42.759 25.2399 43.0437 25.6105 43.0298L31.8364 42.7955C32.207 42.7815 32.4923 42.4745 32.4784 42.1046L31.6797 11.0239C31.6658 10.6541 31.3582 10.3693 30.9876 10.3833L25.0211 10.6079Z" fill="black"/>
<path d="M25.6722 16.6191C24.894 16.6484 24.2403 16.0434 24.2111 15.2667C24.1819 14.4901 24.7882 13.8376 25.5664 13.8083L29.724 13.837C30.5023 13.8077 31.1559 14.4128 31.1852 15.1894C31.2144 15.9661 30.608 16.6185 29.8298 16.6478L25.6722 16.6191Z" fill="black"/>
<path d="M26.5367 39.5859C25.7585 39.6152 25.1048 39.0102 25.0756 38.2335C25.0464 37.4569 25.6527 36.8044 26.4309 36.7751L30.5816 36.6189C31.3598 36.5896 32.0135 37.1946 32.0427 37.9713C32.0719 38.748 31.4656 39.4004 30.6873 39.4297L26.5367 39.5859Z" fill="black"/>
<path d="M47.6879 45.4949C46.4464 45.5417 45.3218 44.7507 44.9431 43.5612L35.9001 12.8278C35.3303 10.9974 36.3703 9.0509 38.2045 8.48188L44.166 6.64641C44.4597 6.56128 44.7548 6.51314 45.0513 6.50198C46.6263 6.4427 48.0557 7.44445 48.5204 8.94546L57.7103 38.6548C57.9853 39.5519 57.8904 40.4814 57.4578 41.3125C57.0252 42.1435 56.287 42.7454 55.4067 43.0193L49.1489 45.3659C48.8552 45.451 48.5601 45.4992 48.2637 45.5103L47.7078 45.5312L47.6879 45.4949ZM45.1564 9.29429C45.1564 9.29429 45.0452 9.29848 44.9903 9.31906L39.0288 11.1545C38.8634 11.1978 38.72 11.3328 38.6329 11.4842C38.5459 11.6357 38.5343 11.8213 38.5776 11.9863L47.4528 42.2075C47.538 42.5006 47.8236 42.6936 48.1201 42.6824L54.5625 40.3103C54.7278 40.2671 54.8719 40.1505 54.9583 39.9806C55.0454 39.8292 55.0569 39.6436 55.0136 39.4785L45.8237 9.76917C45.7384 9.47609 45.4528 9.28314 45.1564 9.29429Z" fill="black"/>
<path d="M41.4855 16.8577C41.115 16.8716 40.7573 16.737 40.4696 16.4885C40.182 16.2401 40.039 15.8936 40.0244 15.5053C40.0008 14.8766 40.406 14.3058 41.0113 14.1163L44.9733 12.8931C45.083 12.852 45.2121 12.8286 45.3418 12.8237C45.9718 12.8 46.5437 13.2044 46.7334 13.8084C46.9651 14.5404 46.5496 15.3338 45.8161 15.5651L41.8355 16.789C41.7257 16.8301 41.5967 16.8535 41.467 16.8584L41.4855 16.8577Z" fill="black"/>
<path d="M48.0168 38.9451C47.2351 38.882 46.6713 38.1995 46.7347 37.4193C46.7852 36.7878 47.2667 36.2697 47.8932 36.1535L51.9636 34.8522C52.0933 34.8473 52.2045 34.8431 52.3342 34.8382C52.967 34.8885 53.4861 35.369 53.6024 35.9942C53.7428 36.7667 53.2319 37.4896 52.4578 37.6299L48.3874 38.9312C48.2577 38.9361 48.1465 38.9403 48.0168 38.9451Z" fill="black"/>
</svg>
