<svg width="56" height="57" viewBox="0 0 56 57" fill="none" xmlns="http://www.w3.org/2000/svg">
<rect x="4" y="4.92578" width="48" height="48" rx="24" fill="#80CB9C"/>
<rect x="4" y="4.92578" width="48" height="48" rx="24" stroke="#D8EFE1" stroke-width="8"/>
<mask id="mask0_3314_12572" style="mask-type:alpha" maskUnits="userSpaceOnUse" x="15" y="16" width="25" height="25">
<rect x="15.832" y="16.6094" width="24" height="24" fill="#D9D9D9"/>
</mask>
<g mask="url(#mask0_3314_12572)">
<path d="M20.832 32.6094V27.6094C20.832 27.326 20.9279 27.0885 21.1195 26.8969C21.3112 26.7052 21.5487 26.6094 21.832 26.6094C22.1154 26.6094 22.3529 26.7052 22.5445 26.8969C22.7362 27.0885 22.832 27.326 22.832 27.6094V32.6094C22.832 32.8927 22.7362 33.1302 22.5445 33.3219C22.3529 33.5135 22.1154 33.6094 21.832 33.6094C21.5487 33.6094 21.3112 33.5135 21.1195 33.3219C20.9279 33.1302 20.832 32.8927 20.832 32.6094ZM26.832 32.6094V27.6094C26.832 27.326 26.9279 27.0885 27.1195 26.8969C27.3112 26.7052 27.5487 26.6094 27.832 26.6094C28.1154 26.6094 28.3529 26.7052 28.5445 26.8969C28.7362 27.0885 28.832 27.326 28.832 27.6094V32.6094C28.832 32.8927 28.7362 33.1302 28.5445 33.3219C28.3529 33.5135 28.1154 33.6094 27.832 33.6094C27.5487 33.6094 27.3112 33.5135 27.1195 33.3219C26.9279 33.1302 26.832 32.8927 26.832 32.6094ZM36.832 24.6094H18.732C18.482 24.6094 18.2695 24.5219 18.0945 24.3469C17.9195 24.1719 17.832 23.9594 17.832 23.7094V23.1594C17.832 22.976 17.8779 22.8177 17.9695 22.6844C18.0612 22.551 18.182 22.4427 18.332 22.3594L26.932 18.0594C27.2154 17.926 27.5154 17.8594 27.832 17.8594C28.1487 17.8594 28.4487 17.926 28.732 18.0594L37.282 22.3344C37.4654 22.4177 37.6029 22.5427 37.6945 22.7094C37.7862 22.876 37.832 23.051 37.832 23.2344V23.6094C37.832 23.8927 37.7362 24.1302 37.5445 24.3219C37.3529 24.5135 37.1154 24.6094 36.832 24.6094ZM30.232 37.6094H18.832C18.5487 37.6094 18.3112 37.5135 18.1195 37.3219C17.9279 37.1302 17.832 36.8927 17.832 36.6094C17.832 36.326 17.9279 36.0885 18.1195 35.8969C18.3112 35.7052 18.5487 35.6094 18.832 35.6094H29.882C29.9154 35.9594 29.957 36.2969 30.007 36.6219C30.057 36.9469 30.132 37.276 30.232 37.6094ZM32.832 29.8594V27.6094C32.832 27.326 32.9279 27.0885 33.1195 26.8969C33.3112 26.7052 33.5487 26.6094 33.832 26.6094C34.1154 26.6094 34.3529 26.7052 34.5445 26.8969C34.7362 27.0885 34.832 27.326 34.832 27.6094V28.8594L32.832 29.8594ZM31.832 35.1594V33.2344C31.832 33.051 31.8779 32.876 31.9695 32.7094C32.0612 32.5427 32.1987 32.4177 32.382 32.3344L35.382 30.8344C35.5154 30.751 35.6654 30.7094 35.832 30.7094C35.9987 30.7094 36.1487 30.751 36.282 30.8344L39.282 32.3344C39.4654 32.4177 39.6029 32.5427 39.6945 32.7094C39.7862 32.876 39.832 33.051 39.832 33.2344V35.1594C39.832 36.4094 39.507 37.4885 38.857 38.3969C38.207 39.3052 37.3237 39.9927 36.207 40.4594C36.1737 40.476 36.0487 40.501 35.832 40.5344C35.7987 40.5344 35.6737 40.5094 35.457 40.4594C34.3404 39.9927 33.457 39.3052 32.807 38.3969C32.157 37.4885 31.832 36.4094 31.832 35.1594ZM35.107 35.4844L34.657 35.0344C34.507 34.8844 34.332 34.8135 34.132 34.8219C33.932 34.8302 33.757 34.9094 33.607 35.0594C33.457 35.2094 33.382 35.3844 33.382 35.5844C33.382 35.7844 33.457 35.9594 33.607 36.1094L34.407 36.9094C34.607 37.1094 34.8404 37.2094 35.107 37.2094C35.3737 37.2094 35.607 37.1094 35.807 36.9094L38.057 34.6844C38.207 34.5344 38.282 34.3594 38.282 34.1594C38.282 33.9594 38.207 33.7844 38.057 33.6344C37.907 33.4844 37.732 33.4135 37.532 33.4219C37.332 33.4302 37.157 33.501 37.007 33.6344L35.107 35.4844Z" fill="#0F2715"/>
</g>
</svg>
