<svg width="56" height="57" viewBox="0 0 56 57" fill="none" xmlns="http://www.w3.org/2000/svg">
<rect x="4" y="4.31592" width="48" height="48" rx="24" fill="#BBDBB8"/>
<rect x="4" y="4.31592" width="48" height="48" rx="24" stroke="#EBF6EA" stroke-width="8"/>
<mask id="mask0_1294_25622" style="mask-type:alpha" maskUnits="userSpaceOnUse" x="15" y="16" width="25" height="24">
<rect x="15.833" y="16" width="24" height="24" fill="#D9D9D9"/>
</mask>
<g mask="url(#mask0_1294_25622)">
<path d="M20.833 32V27C20.833 26.7167 20.9288 26.4792 21.1205 26.2875C21.3122 26.0958 21.5497 26 21.833 26C22.1163 26 22.3538 26.0958 22.5455 26.2875C22.7372 26.4792 22.833 26.7167 22.833 27V32C22.833 32.2833 22.7372 32.5208 22.5455 32.7125C22.3538 32.9042 22.1163 33 21.833 33C21.5497 33 21.3122 32.9042 21.1205 32.7125C20.9288 32.5208 20.833 32.2833 20.833 32ZM26.833 32V27C26.833 26.7167 26.9288 26.4792 27.1205 26.2875C27.3122 26.0958 27.5497 26 27.833 26C28.1163 26 28.3538 26.0958 28.5455 26.2875C28.7372 26.4792 28.833 26.7167 28.833 27V32C28.833 32.2833 28.7372 32.5208 28.5455 32.7125C28.3538 32.9042 28.1163 33 27.833 33C27.5497 33 27.3122 32.9042 27.1205 32.7125C26.9288 32.5208 26.833 32.2833 26.833 32ZM36.833 24H18.733C18.483 24 18.2705 23.9125 18.0955 23.7375C17.9205 23.5625 17.833 23.35 17.833 23.1V22.55C17.833 22.3667 17.8788 22.2083 17.9705 22.075C18.0622 21.9417 18.183 21.8333 18.333 21.75L26.933 17.45C27.2163 17.3167 27.5163 17.25 27.833 17.25C28.1497 17.25 28.4497 17.3167 28.733 17.45L37.283 21.725C37.4663 21.8083 37.6038 21.9333 37.6955 22.1C37.7872 22.2667 37.833 22.4417 37.833 22.625V23C37.833 23.2833 37.7372 23.5208 37.5455 23.7125C37.3538 23.9042 37.1163 24 36.833 24ZM30.233 37H18.833C18.5497 37 18.3122 36.9042 18.1205 36.7125C17.9288 36.5208 17.833 36.2833 17.833 36C17.833 35.7167 17.9288 35.4792 18.1205 35.2875C18.3122 35.0958 18.5497 35 18.833 35H29.883C29.9163 35.35 29.958 35.6875 30.008 36.0125C30.058 36.3375 30.133 36.6667 30.233 37ZM32.833 29.25V27C32.833 26.7167 32.9288 26.4792 33.1205 26.2875C33.3122 26.0958 33.5497 26 33.833 26C34.1163 26 34.3538 26.0958 34.5455 26.2875C34.7372 26.4792 34.833 26.7167 34.833 27V28.25L32.833 29.25ZM31.833 34.55V32.625C31.833 32.4417 31.8788 32.2667 31.9705 32.1C32.0622 31.9333 32.1997 31.8083 32.383 31.725L35.383 30.225C35.5163 30.1417 35.6663 30.1 35.833 30.1C35.9997 30.1 36.1497 30.1417 36.283 30.225L39.283 31.725C39.4663 31.8083 39.6038 31.9333 39.6955 32.1C39.7872 32.2667 39.833 32.4417 39.833 32.625V34.55C39.833 35.8 39.508 36.8792 38.858 37.7875C38.208 38.6958 37.3247 39.3833 36.208 39.85C36.1747 39.8667 36.0497 39.8917 35.833 39.925C35.7997 39.925 35.6747 39.9 35.458 39.85C34.3413 39.3833 33.458 38.6958 32.808 37.7875C32.158 36.8792 31.833 35.8 31.833 34.55ZM35.108 34.875L34.658 34.425C34.508 34.275 34.333 34.2042 34.133 34.2125C33.933 34.2208 33.758 34.3 33.608 34.45C33.458 34.6 33.383 34.775 33.383 34.975C33.383 35.175 33.458 35.35 33.608 35.5L34.408 36.3C34.608 36.5 34.8413 36.6 35.108 36.6C35.3747 36.6 35.608 36.5 35.808 36.3L38.058 34.075C38.208 33.925 38.283 33.75 38.283 33.55C38.283 33.35 38.208 33.175 38.058 33.025C37.908 32.875 37.733 32.8042 37.533 32.8125C37.333 32.8208 37.158 32.8917 37.008 33.025L35.108 34.875Z" fill="#138A07"/>
</g>
</svg>
