<svg width="56" height="57" viewBox="0 0 56 57" fill="none" xmlns="http://www.w3.org/2000/svg">
<rect x="4" y="4.31592" width="48" height="48" rx="24" fill="#BBDBB8"/>
<rect x="4" y="4.31592" width="48" height="48" rx="24" stroke="#EBF6EA" stroke-width="8"/>
<mask id="mask0_1294_25630" style="mask-type:alpha" maskUnits="userSpaceOnUse" x="15" y="16" width="25" height="24">
<rect x="15.833" y="16" width="24" height="24" fill="#D9D9D9"/>
</mask>
<g mask="url(#mask0_1294_25630)">
<path d="M27.833 27.925L26.133 29.225C26.033 29.3083 25.933 29.3125 25.833 29.2375C25.733 29.1625 25.6997 29.0667 25.733 28.95L26.383 26.85L24.633 25.45C24.5497 25.3667 24.5247 25.2708 24.558 25.1625C24.5913 25.0542 24.6663 25 24.783 25H26.933L27.583 22.95C27.6163 22.8333 27.6997 22.775 27.833 22.775C27.9663 22.775 28.0497 22.8333 28.083 22.95L28.733 25H30.858C30.9747 25 31.0538 25.0542 31.0955 25.1625C31.1372 25.2708 31.1163 25.3667 31.033 25.45L29.258 26.85L29.908 28.95C29.9413 29.0667 29.908 29.1625 29.808 29.2375C29.708 29.3125 29.608 29.3083 29.508 29.225L27.833 27.925ZM27.833 37L23.158 38.55C22.8247 38.6667 22.5205 38.625 22.2455 38.425C21.9705 38.225 21.833 37.9583 21.833 37.625V31.275C21.1997 30.575 20.708 29.775 20.358 28.875C20.008 27.975 19.833 27.0167 19.833 26C19.833 23.7667 20.608 21.875 22.158 20.325C23.708 18.775 25.5997 18 27.833 18C30.0663 18 31.958 18.775 33.508 20.325C35.058 21.875 35.833 23.7667 35.833 26C35.833 27.0167 35.658 27.975 35.308 28.875C34.958 29.775 34.4663 30.575 33.833 31.275V37.625C33.833 37.9583 33.6955 38.225 33.4205 38.425C33.1455 38.625 32.8413 38.6667 32.508 38.55L27.833 37ZM27.833 32C29.4997 32 30.9163 31.4167 32.083 30.25C33.2497 29.0833 33.833 27.6667 33.833 26C33.833 24.3333 33.2497 22.9167 32.083 21.75C30.9163 20.5833 29.4997 20 27.833 20C26.1663 20 24.7497 20.5833 23.583 21.75C22.4163 22.9167 21.833 24.3333 21.833 26C21.833 27.6667 22.4163 29.0833 23.583 30.25C24.7497 31.4167 26.1663 32 27.833 32Z" fill="#138A07"/>
</g>
</svg>
