<svg width="56" height="57" viewBox="0 0 56 57" fill="none" xmlns="http://www.w3.org/2000/svg">
<rect x="4" y="4.92578" width="48" height="48" rx="24" fill="#80CB9C"/>
<rect x="4" y="4.92578" width="48" height="48" rx="24" stroke="#D8EFE1" stroke-width="8"/>
<mask id="mask0_3314_12581" style="mask-type:alpha" maskUnits="userSpaceOnUse" x="15" y="16" width="25" height="25">
<rect x="15.832" y="16.6094" width="24" height="24" fill="#D9D9D9"/>
</mask>
<g mask="url(#mask0_3314_12581)">
<path d="M27.832 28.5344L26.132 29.8344C26.032 29.9177 25.932 29.9219 25.832 29.8469C25.732 29.7719 25.6987 29.676 25.732 29.5594L26.382 27.4594L24.632 26.0594C24.5487 25.976 24.5237 25.8802 24.557 25.7719C24.5904 25.6635 24.6654 25.6094 24.782 25.6094H26.932L27.582 23.5594C27.6154 23.4427 27.6987 23.3844 27.832 23.3844C27.9654 23.3844 28.0487 23.4427 28.082 23.5594L28.732 25.6094H30.857C30.9737 25.6094 31.0529 25.6635 31.0945 25.7719C31.1362 25.8802 31.1154 25.976 31.032 26.0594L29.257 27.4594L29.907 29.5594C29.9404 29.676 29.907 29.7719 29.807 29.8469C29.707 29.9219 29.607 29.9177 29.507 29.8344L27.832 28.5344ZM27.832 37.6094L23.157 39.1594C22.8237 39.276 22.5195 39.2344 22.2445 39.0344C21.9695 38.8344 21.832 38.5677 21.832 38.2344V31.8844C21.1987 31.1844 20.707 30.3844 20.357 29.4844C20.007 28.5844 19.832 27.626 19.832 26.6094C19.832 24.376 20.607 22.4844 22.157 20.9344C23.707 19.3844 25.5987 18.6094 27.832 18.6094C30.0654 18.6094 31.957 19.3844 33.507 20.9344C35.057 22.4844 35.832 24.376 35.832 26.6094C35.832 27.626 35.657 28.5844 35.307 29.4844C34.957 30.3844 34.4654 31.1844 33.832 31.8844V38.2344C33.832 38.5677 33.6945 38.8344 33.4195 39.0344C33.1445 39.2344 32.8404 39.276 32.507 39.1594L27.832 37.6094ZM27.832 32.6094C29.4987 32.6094 30.9154 32.026 32.082 30.8594C33.2487 29.6927 33.832 28.276 33.832 26.6094C33.832 24.9427 33.2487 23.526 32.082 22.3594C30.9154 21.1927 29.4987 20.6094 27.832 20.6094C26.1654 20.6094 24.7487 21.1927 23.582 22.3594C22.4154 23.526 21.832 24.9427 21.832 26.6094C21.832 28.276 22.4154 29.6927 23.582 30.8594C24.7487 32.026 26.1654 32.6094 27.832 32.6094Z" fill="#0F2715"/>
</g>
</svg>
