<svg width="24" height="24" viewBox="0 0 24 24" fill="none" xmlns="http://www.w3.org/2000/svg">
    <rect width="24" height="24" rx="12" fill="#86caa5"/>
    <mask id="mask0_3314_14780" style="mask-type:alpha" maskUnits="userSpaceOnUse" x="2" y="2" width="20" height="20">
        <rect x="2" y="2" width="20" height="20" fill="#D9D9D9"/>
    </mask>
    <g mask="url(#mask0_3314_14780)">
        <path d="M9.95842 14.625L17.0209 7.5625C17.1876 7.39583 17.3855 7.3125 17.6147 7.3125C17.8438 7.3125 18.0418 7.39583 18.2084 7.5625C18.3751 7.72917 18.4584 7.92708 18.4584 8.15625C18.4584 8.38542 18.3751 8.58333 18.2084 8.75L10.5418 16.4167C10.3751 16.5833 10.1806 16.6667 9.95842 16.6667C9.7362 16.6667 9.54176 16.5833 9.37509 16.4167L5.79176 12.8333C5.62509 12.6667 5.54523 12.4688 5.55217 12.2396C5.55912 12.0104 5.64592 11.8125 5.81259 11.6458C5.97926 11.4792 6.17717 11.3958 6.40634 11.3958C6.63551 11.3958 6.83342 11.4792 7.00009 11.6458L9.95842 14.625Z" fill="#0F271A"/>
    </g>
</svg>
