<svg width="24" height="25" viewBox="0 0 24 25" fill="none" xmlns="http://www.w3.org/2000/svg">
    <rect y="0.315918" width="24" height="24" rx="12" fill="#F1F4F9"/>
    <mask id="mask0_1753_19400" style="mask-type:alpha" maskUnits="userSpaceOnUse" x="2" y="2" width="20" height="21">
        <rect x="2" y="2.31592" width="20" height="20" fill="#D9D9D9"/>
    </mask>
    <g mask="url(#mask0_1753_19400)">
        <path d="M9.95842 14.9409L17.0209 7.87842C17.1876 7.71175 17.3855 7.62842 17.6147 7.62842C17.8438 7.62842 18.0418 7.71175 18.2084 7.87842C18.3751 8.04508 18.4584 8.243 18.4584 8.47217C18.4584 8.70133 18.3751 8.89925 18.2084 9.06592L10.5418 16.7326C10.3751 16.8993 10.1806 16.9826 9.95842 16.9826C9.7362 16.9826 9.54176 16.8993 9.37509 16.7326L5.79176 13.1493C5.62509 12.9826 5.54523 12.7847 5.55217 12.5555C5.55912 12.3263 5.64592 12.1284 5.81259 11.9618C5.97926 11.7951 6.17717 11.7118 6.40634 11.7118C6.63551 11.7118 6.83342 11.7951 7.00009 11.9618L9.95842 14.9409Z" fill="#6597E0"/>
    </g>
</svg>
