<svg width="62" height="52" viewBox="0 0 62 52" fill="none" xmlns="http://www.w3.org/2000/svg">
<path fill-rule="evenodd" clip-rule="evenodd" d="M53.7394 8.13607C51.8507 7.08726 49.9714 6.62035 48.1494 6.74776C46.3273 6.87517 43.845 7.63133 41.7319 10.5345L41.6038 10.7166L40.9384 11.9441L39.4326 9.6561C38.2088 7.82076 36.1021 6.78719 33.9218 6.93965C33.1431 6.9941 32.3899 7.18848 31.6332 7.5563L31.3605 7.68558L31.1989 6.94111C30.4544 4.12755 27.7992 2.18762 24.837 2.34753L18.0782 2.82015C15.1392 3.08864 12.7853 5.45756 12.4862 8.56454L12.4567 9.03895L12.072 8.9084C11.3359 8.67646 10.5941 8.58662 9.83104 8.63998C7.68192 8.79026 5.724 10.1081 4.7241 12.1461L1.82115 18.3008C0.536948 20.9728 1.32767 24.224 3.82167 26.0965L4.34851 26.469L3.79069 26.9961C1.63618 29.0834 1.29005 32.4141 2.9492 34.8803L6.73376 40.6618C7.95647 42.4815 10.0643 43.5307 12.2289 43.3793C13.0076 43.3249 13.7608 43.1305 14.5176 42.7627L14.7747 42.6345L14.9363 43.379C15.6807 46.1925 18.3349 48.1168 21.2982 47.9725L29.1471 47.4237L29.2318 47.2918C29.6948 48.0939 30.3369 48.7733 31.1662 49.2192C32.0289 49.6942 33.0141 49.9087 33.9953 49.8401C34.4625 49.8074 34.9097 49.7132 35.337 49.5573L41.353 47.8613L41.551 47.7844C42.6304 47.3311 43.5278 46.5126 44.0672 45.4986L57.9368 20.0451C60.295 15.7234 58.545 10.8388 53.6938 8.15501L53.7394 8.13607Z" fill="#DADBEB"/>
<path d="M27.2841 43.9795L21.086 44.4129C19.8223 44.4698 18.7009 43.6507 18.3819 42.4449L17.6083 38.7674C17.0913 38.5359 16.5888 38.2876 16.0986 37.9912L12.9691 39.5641C11.7728 40.1359 10.3996 39.7438 9.66659 38.6614L5.8998 32.9102C5.20017 31.8569 5.33516 30.4304 6.25821 29.5314L8.91701 27.0467C8.88062 26.7501 8.84423 26.4534 8.82341 26.1557C8.8015 25.8424 8.77958 25.529 8.78991 25.2291L5.84452 23.1678C4.78757 22.3757 4.43979 20.983 5.0016 19.8415L7.91793 13.6544C8.5076 12.4638 9.81403 11.9001 11.0305 12.2874L14.3962 13.4218C14.8415 13.0758 15.3034 12.7443 15.7687 12.4599L16.0139 8.80561C16.1399 7.4742 17.1487 6.45895 18.3935 6.35616L25.09 5.8879C26.3525 5.81536 27.4751 6.65008 27.7941 7.85589L28.5677 11.5334C29.0847 11.7649 29.5872 12.0132 30.0774 12.3096L33.2079 10.7523C34.4042 10.1806 35.7775 10.5726 36.5105 11.655L40.1029 17.1508L39.3277 18.1497C38.1091 19.7465 37.0229 21.4442 36.1155 23.2396L28.417 38.2477L29.2224 41.2617L27.2863 44.0108L27.2841 43.9795ZM16.3599 33.8949L17.2157 34.4964C17.9893 35.0406 18.8331 35.4697 19.7159 35.7859L20.6621 36.1133L21.6471 40.7995L25.4002 40.5371L24.9494 38.7894C24.8178 38.0271 24.951 37.2462 25.3099 36.5598L32.994 21.5685C33.8054 19.9687 34.747 18.4386 35.8019 16.9635L34.0495 14.2834L29.8461 16.388L28.9903 15.7865C28.2167 15.2423 27.373 14.8132 26.4746 14.4982L25.5283 14.1707L24.5434 9.48453L19.4821 9.83845L19.1611 14.6474L18.2852 15.1023C17.4394 15.5393 16.6646 16.0973 15.9743 16.7439L15.2094 17.443L10.7541 15.9438L8.50551 20.7144L12.4223 23.4636L12.3523 24.4762C12.3218 24.9349 12.3235 25.4071 12.3585 25.9085C12.3936 26.4099 12.4754 26.9081 12.5705 27.3738L12.7642 28.3522L9.28256 31.6029L12.1732 36.0142L16.3766 33.9095L16.3599 33.8949ZM22.416 32.1016L22.4004 32.1027C20.4538 32.2388 17.7526 31.6562 15.9067 28.0852C14.729 25.79 14.6182 23.31 15.6071 21.1153C16.6094 18.8881 18.6356 17.2034 21.0354 16.6105C22.5741 16.2352 24.0321 16.4954 25.2358 17.3717C26.9018 18.5935 27.9915 20.9736 28.1953 23.8879C28.5306 28.6825 26.3249 31.8283 22.416 32.1016ZM22.2576 19.9889C22.1486 19.9966 22.024 20.0053 21.886 20.0464C20.5631 20.3751 19.3786 21.3396 18.839 22.574C18.4599 23.4193 18.1938 24.7605 19.0473 26.4485C20.0629 28.4401 21.2028 28.6281 22.1684 28.5605L22.184 28.5595C24.4888 28.3983 24.8261 26.0602 24.6913 24.1329C24.5664 22.3467 23.9585 20.8147 23.1672 20.2402C22.9693 20.0966 22.7092 19.9574 22.2732 19.9878L22.2576 19.9889Z" fill="black"/>
<path fill-rule="evenodd" clip-rule="evenodd" d="M52.052 11.2464C49.204 9.68208 46.5464 9.94663 44.5904 12.6341L41.5122 18.2972L30.7364 38.0866C30.5559 38.4141 30.5032 38.78 30.5596 39.1382L32.1084 44.95C32.1891 45.4325 32.4845 45.8527 32.9236 46.0897C33.3471 46.3277 33.8654 46.3545 34.3061 46.1662L40.2609 44.4902C40.5958 44.3565 40.8753 44.1008 41.0558 43.7733L54.9098 18.3208C56.4623 15.4568 54.9167 12.8253 52.0676 11.2453L52.052 11.2464ZM40.2494 38.5078C40.0276 38.917 38.2738 41.8107 37.8487 41.9979L35.888 42.8278C35.2036 43.1119 34.4388 42.693 34.3094 41.962L33.9424 39.8463C33.8639 39.3952 33.9412 38.9332 34.1629 38.5241L43.7329 20.9603L48.2969 23.7902L40.2661 38.5224L40.2494 38.5078ZM51.5824 17.7347L49.7937 21.0246L45.1059 18.4395L46.8534 15.2313C47.5053 14.0363 48.9497 13.4315 50.2217 13.9408C51.7504 14.5425 52.3614 16.3419 51.5991 17.7493L51.5824 17.7347Z" fill="black"/>
</svg>
