<svg width="53" height="54" viewBox="0 0 53 54" fill="none" xmlns="http://www.w3.org/2000/svg">
<path d="M46.4965 39.8378C46.8525 39.0368 47.0744 38.1764 47.1517 37.2924C47.4245 34.1746 45.8678 31.3111 43.3749 29.7623C43.6579 29.3765 43.9158 28.9005 44.1257 28.303C44.3943 27.5384 44.5545 26.6286 44.5579 25.8774C44.56 25.5183 44.5565 25.1808 44.5479 24.8611C44.4624 21.3125 42.7805 17.9944 39.9592 15.8413C38.145 14.4546 35.2047 13.1599 35.0786 11.8768C35.0719 11.8286 35.0691 11.777 35.0623 11.7288C35.0755 11.62 35.0926 11.5078 35.1022 11.3987C35.4147 7.8262 33.5016 4.67853 30.5053 3.3533C29.8376 3.02362 29.0903 2.80794 28.2572 2.73505C28.2172 2.73155 28.1736 2.72773 28.1336 2.72423C28.0935 2.72073 28.0499 2.71691 28.0099 2.71341C27.1768 2.64052 26.4034 2.72316 25.6886 2.9319C22.5074 3.72032 20.0771 6.48433 19.7645 10.0568C19.7546 10.1696 19.7524 10.2794 19.7465 10.3888C19.7314 10.4352 19.716 10.4851 19.7046 10.5318C19.3577 11.7735 16.2369 12.5415 14.2098 13.5886C11.0575 15.219 8.82495 18.1946 8.12459 21.6745C8.06052 21.9878 7.9985 22.3196 7.93821 22.6736C7.80748 23.4137 7.81094 24.3377 7.9426 25.1374C8.04556 25.7623 8.2166 26.2795 8.42865 26.7049C5.70469 27.7973 3.67438 30.347 3.40161 33.4647C3.32427 34.3488 3.39704 35.2349 3.60491 36.0852C1.82347 37.634 0.79459 39.8828 0.541876 42.7713L0.376051 44.6667C0.172671 46.9913 1.89226 49.0407 4.21692 49.244L43.6124 52.6907C45.937 52.8941 47.9864 51.1745 48.1898 48.8498L48.3556 46.9545C48.6083 44.0659 47.9855 41.6727 46.5001 39.8381L46.4965 39.8378Z" fill="#F9D38F"/>
<path d="M20.5921 23.0222L33.2267 24.1276C33.656 24.1651 34.0319 23.8497 34.0694 23.4205L34.2919 20.8775C34.4571 18.9894 33.8658 17.1158 32.6512 15.6642C32.2229 15.1538 31.7265 14.7108 31.183 14.3443C31.938 13.5086 32.4338 12.4083 32.5423 11.1677C32.7941 8.29008 30.8742 5.765 27.9965 5.51324C25.1189 5.26148 22.5754 7.3924 22.3233 10.2737C22.2129 11.536 22.5591 12.7321 23.226 13.6995C22.6605 13.9616 22.129 14.2964 21.6427 14.7011C20.1907 15.9194 19.6251 17.6918 19.4599 19.5799L19.2941 21.4753C19.2254 22.2611 19.8063 22.9534 20.5921 23.0222ZM27.744 8.35781C29.0537 8.47239 29.8084 9.60883 29.6938 10.9185C29.5792 12.2282 28.635 13.216 27.329 13.1017C26.023 12.9874 25.05 11.8319 25.1645 10.5222C25.2791 9.21257 26.4344 8.24322 27.744 8.35781ZM22.3685 19.1012C22.4398 18.2863 22.7829 17.5062 23.3951 16.9622C24.1463 16.2948 25.0256 16.0491 26.0389 15.9471C26.3754 15.9143 26.7163 15.9148 27.0546 15.9444L27.9277 16.0207C29.3301 16.1654 29.733 16.6296 30.4634 17.5C31.1937 18.3703 31.5496 19.4975 31.4506 20.629C31.4277 20.8909 31.1983 21.0834 30.9363 21.0605L22.7436 20.3437C22.4817 20.3208 22.2892 20.0914 22.3121 19.8294L22.3754 19.1055L22.3685 19.1012Z" fill="#1D0F04"/>
<path d="M44.074 41.5099C43.6458 40.9995 43.1493 40.5565 42.6058 40.19C43.3608 39.3543 43.8566 38.254 43.9652 37.0134C44.2169 34.1358 42.297 31.6107 39.4194 31.3589C36.5418 31.1072 33.9982 33.2381 33.7462 36.1194C33.6357 37.3817 33.982 38.5778 34.6488 39.5452C34.0833 39.8073 33.5518 40.1421 33.0655 40.5468C31.6136 41.7651 31.048 43.5375 30.8828 45.4256L30.717 47.321C30.6482 48.1068 31.2291 48.7991 32.0149 48.8679L44.6496 49.9733C45.0789 50.0108 45.4547 49.6954 45.4923 49.2662L45.7147 46.7232C45.8799 44.8351 45.2887 42.9615 44.074 41.5099ZM39.1669 34.2035C40.4765 34.3181 41.2312 35.4545 41.1167 36.7642C41.0021 38.0739 40.0579 39.0617 38.7518 38.9474C37.4458 38.8331 36.4728 37.6776 36.5874 36.3679C36.702 35.0583 37.8572 34.0889 39.1669 34.2035ZM42.3555 46.9059L34.1629 46.1891C33.9009 46.1662 33.7084 45.9368 33.7313 45.6748L33.7946 44.9509C33.8659 44.136 34.2091 43.3558 34.8212 42.8119C35.5725 42.1444 36.4518 41.8988 37.4651 41.7968C37.8016 41.7639 38.1425 41.7644 38.4808 41.794L39.3539 41.8704C40.7562 42.0151 41.1592 42.4792 41.8895 43.3496C42.6199 44.22 42.9758 45.3472 42.8768 46.4786C42.8539 46.7405 42.6244 46.9331 42.3625 46.9102L42.3555 46.9059Z" fill="#1D0F04"/>
<path d="M15.2738 37.7994C16.0288 36.9637 16.5246 35.8633 16.6332 34.6228C16.8849 31.7452 14.965 29.2201 12.0874 28.9683C9.20974 28.7166 6.6662 30.8475 6.41412 33.7287C6.30368 34.9911 6.64993 36.1871 7.31678 37.1546C6.75131 37.4167 6.21981 37.7515 5.73351 38.1561C4.28157 39.3745 3.71593 41.1469 3.55074 43.035L3.38492 44.9304C3.31617 45.7162 3.89712 46.4085 4.68291 46.4772L17.3175 47.5826C17.7468 47.6202 18.1227 47.3048 18.1602 46.8755L18.3827 44.3326C18.5479 42.4445 17.9567 40.5709 16.742 39.1193C16.3137 38.6089 15.8173 38.1659 15.2738 37.7994ZM11.8345 31.8165C13.1442 31.9311 13.8989 33.0675 13.7843 34.3772C13.6697 35.6869 12.7255 36.6747 11.4195 36.5604C10.1135 36.4462 9.14047 35.2906 9.25505 33.981C9.36963 32.6713 10.5249 31.7019 11.8345 31.8165ZM15.0232 44.5189L6.83051 43.8021C6.56857 43.7792 6.37603 43.5498 6.39895 43.2878L6.46229 42.5639C6.53358 41.749 6.87677 40.9689 7.48889 40.4249C8.24012 39.7574 9.11942 39.5118 10.1328 39.4098C10.4692 39.3769 10.8101 39.3774 11.1484 39.407L12.0215 39.4834C13.4239 39.6281 13.8268 40.0923 14.5572 40.9626C15.2875 41.833 15.6434 42.9602 15.5445 44.0916C15.5215 44.3536 15.2921 44.5461 15.0301 44.5232L15.0232 44.5189Z" fill="#1D0F04"/>
<path d="M39.0103 27.0246C38.9345 27.8904 39.6529 28.6461 40.5612 28.5716C41.2702 28.5126 41.8523 27.8927 41.8631 27.1825C41.9562 21.7616 41.2963 20.4208 39.6022 17.7029C39.2841 17.1912 38.6919 16.8791 38.0974 16.97C37.0422 17.1307 36.5437 18.3041 37.5538 19.8734C38.9746 22.1532 39.2624 24.1433 39.0103 27.0246Z" fill="#1D0F04"/>
<path d="M29.5836 38.5681C28.4254 38.859 27.9755 38.9736 27.1964 39.0374C25.321 39.1886 23.4391 38.826 21.7469 38.0144C21.4548 37.8752 21.17 37.7367 20.8879 37.6093C20.1723 37.2828 19.3236 37.5971 18.9968 38.3164C18.6699 39.0356 18.9882 39.8809 19.7038 40.2074C21.3423 41.3406 22.4217 41.6146 24.2516 41.7747C26.0815 41.9348 27.3438 42.0453 30.1375 41.1203C30.8989 40.923 31.3594 40.1421 31.1621 39.3807C30.9648 38.6193 30.3487 38.3711 29.5833 38.5717L29.5836 38.5681Z" fill="#1D0F04"/>
<path d="M11.5535 25.938C12.5506 26.4834 13.338 25.5699 13.4067 24.7841C13.6588 21.9028 14.2713 20.0135 16.0665 18.0151C16.9438 16.9957 17.2208 15.715 16.534 15.3103C15.9457 14.7859 15.0436 14.8316 14.5193 15.4199C12.6149 18.164 11.7573 18.3712 10.9229 23.1737C10.789 23.9502 10.8679 25.5627 11.5572 25.9383L11.5535 25.938Z" fill="#1D0F04"/>
</svg>
