<svg width="56" height="57" viewBox="0 0 56 57" fill="none" xmlns="http://www.w3.org/2000/svg">
<rect x="4" y="4.31592" width="48" height="48" rx="24" fill="#BBDBB8"/>
<rect x="4" y="4.31592" width="48" height="48" rx="24" stroke="#EBF6EA" stroke-width="8"/>
<mask id="mask0_1294_25642" style="mask-type:alpha" maskUnits="userSpaceOnUse" x="16" y="16" width="24" height="24">
<rect x="16" y="16" width="24" height="24" fill="#D9D9D9"/>
</mask>
<g mask="url(#mask0_1294_25642)">
<path d="M26.95 28.6999L25.55 27.2999C25.35 27.0999 25.1167 26.9999 24.85 26.9999C24.5833 26.9999 24.35 27.0999 24.15 27.2999C23.95 27.4999 23.85 27.7374 23.85 28.0124C23.85 28.2874 23.95 28.5249 24.15 28.7249L26.25 30.8499C26.45 31.0499 26.6833 31.1499 26.95 31.1499C27.2167 31.1499 27.45 31.0499 27.65 30.8499L31.9 26.5999C32.1 26.3999 32.2 26.1624 32.2 25.8874C32.2 25.6124 32.1 25.3749 31.9 25.1749C31.7 24.9749 31.4625 24.8749 31.1875 24.8749C30.9125 24.8749 30.675 24.9749 30.475 25.1749L26.95 28.6999ZM28 37.8999C27.8833 37.8999 27.775 37.8916 27.675 37.8749C27.575 37.8582 27.475 37.8332 27.375 37.7999C25.125 37.0499 23.3333 35.6624 22 33.6374C20.6667 31.6124 20 29.4332 20 27.0999V22.3749C20 21.9582 20.1208 21.5832 20.3625 21.2499C20.6042 20.9166 20.9167 20.6749 21.3 20.5249L27.3 18.2749C27.5333 18.1916 27.7667 18.1499 28 18.1499C28.2333 18.1499 28.4667 18.1916 28.7 18.2749L34.7 20.5249C35.0833 20.6749 35.3958 20.9166 35.6375 21.2499C35.8792 21.5832 36 21.9582 36 22.3749V27.0999C36 29.4332 35.3333 31.6124 34 33.6374C32.6667 35.6624 30.875 37.0499 28.625 37.7999C28.525 37.8332 28.425 37.8582 28.325 37.8749C28.225 37.8916 28.1167 37.8999 28 37.8999Z" fill="#138A07"/>
</g>
</svg>
