<svg width="51" height="49" viewBox="0 0 51 49" fill="none" xmlns="http://www.w3.org/2000/svg">
<path d="M4.37008 15.8458C4.53317 15.8458 4.70984 15.8458 4.88652 15.8731C5.49808 15.9414 6.10963 15.9687 6.7212 15.9687C11.3691 15.9687 15.8131 14.071 19.0204 10.9036C18.8573 10.6988 18.6942 10.4804 18.5719 10.2347C17.9467 9.1015 17.838 7.68165 18.2729 6.42562C18.6942 5.23786 19.5776 4.28219 20.7192 3.81801L26.726 1.37422C27.3104 1.14213 28.2074 0.828125 29.2538 0.828125C30.6672 0.828125 31.9719 1.40153 32.9096 2.45277C34.3774 4.09106 34.2822 6.04336 34.2415 6.88981L33.9153 13.443C33.9153 13.7024 33.8609 13.9345 33.8066 14.1802C34.3502 14.1939 34.9074 14.2075 35.4238 14.2621C35.4238 13.2655 35.4238 12.2689 35.4238 11.2586C35.4238 9.57934 36.2936 8.11853 37.707 7.32669C38.4273 6.84885 39.297 6.58945 40.1804 6.58945C42.0423 6.58945 44.04 6.58945 46.0514 6.71233C48.2122 6.8352 49.911 8.36427 50.278 10.4941C50.3459 10.7944 50.3867 11.0948 50.4003 11.4224C50.4546 13.6614 50.5226 15.9141 50.5769 18.1531C50.6721 21.4023 50.7672 24.638 50.8216 27.8873C50.8623 30.9727 50.8759 33.7032 50.8216 36.2289C50.7944 37.6761 50.7536 39.1232 50.6993 40.5158C50.6993 40.6523 50.7128 40.8025 50.7264 40.9799C50.8352 42.2769 50.9982 44.4477 49.5033 46.0723C48.6743 46.9734 47.5191 47.4649 46.2552 47.4785H45.9834H45.9563C43.8362 47.4785 41.7569 47.3556 39.6504 47.2464C39.134 47.2191 38.6447 47.1099 38.1962 46.9188C36.8372 47.6423 35.2335 47.7516 34.0104 47.7516C33.0863 47.7516 32.1893 47.6833 31.537 47.6287C31.2516 47.6014 31.007 47.5877 30.8439 47.5877C29.9877 47.5877 29.1859 47.342 28.4928 46.9188C27.7589 47.3966 26.9027 47.656 26.0058 47.656C25.9378 47.656 25.8699 47.656 25.8155 47.656C25.6116 47.6833 25.3942 47.6969 25.1904 47.6969C24.5244 47.6969 23.8721 47.7242 23.2062 47.7516C22.4587 47.7789 21.7248 47.8062 20.991 47.8062H20.9638C20.1212 47.8062 19.3465 47.5741 18.6806 47.1782C17.8924 47.8608 16.8595 48.2567 15.7451 48.2567H11.8719C9.58874 48.2567 7.74047 46.6047 7.42789 44.3521C7.37353 44.0517 7.34635 43.765 7.34635 43.4647C7.34635 40.939 7.34635 38.2358 7.46866 35.5599C7.5502 33.4028 9.09949 31.6417 11.206 31.2594C11.5457 31.1775 11.8855 31.1365 12.2388 31.1365C13.2445 31.1365 14.3046 31.1365 15.3918 31.2185C15.582 31.1911 15.7859 31.1775 15.9762 31.1775C15.9082 29.5665 15.8538 27.9282 15.7859 26.2353C15.7315 25.0612 16.1257 23.969 16.8731 23.1089C13.7202 24.4195 10.3226 25.1295 6.8571 25.1295C5.94655 25.1295 5.02242 25.0749 4.12546 24.9793C1.63844 24.7062 -0.128288 22.5765 0.00761414 20.0371C0.143517 17.6343 2.01897 15.8185 4.38367 15.8185L4.37008 15.8458Z" fill="#DADBEB"/>
<path d="M39.093 10.2141C39.2771 10.0654 39.5179 9.9707 39.8436 9.9707C41.8261 9.9707 43.7945 9.9707 45.7628 10.0789C46.4567 10.1195 46.8249 10.6063 46.8957 11.1202C46.924 11.2149 46.9524 11.3231 46.9524 11.4312C47.0798 16.8542 47.3064 22.2772 47.3914 27.7136C47.4338 30.4319 47.448 33.1501 47.3914 35.8548C47.363 37.2613 47.3205 38.6542 47.2639 40.0607C47.2214 41.0885 47.9153 43.685 46.1169 43.685C46.0744 43.685 46.0319 43.685 45.9894 43.685C45.9469 43.685 45.9186 43.685 45.8761 43.685C43.7378 43.685 41.6137 43.5768 39.4754 43.4551C38.7956 43.4145 38.4275 42.9547 38.3425 42.4408C38.3142 42.3326 38.2859 42.2244 38.2859 42.0892C38.2859 31.7842 38.3991 21.4928 38.3991 11.1878C38.3991 10.6739 38.6965 10.3494 39.0789 10.1871L39.093 10.2141ZM44.8141 41.413C45.338 31.7031 44.8424 22.0067 44.5875 12.2968C43.313 12.2562 42.0385 12.2427 40.764 12.2427C40.764 21.912 40.6649 31.5949 40.6507 41.2643C42.0385 41.3319 43.4263 41.386 44.7999 41.413H44.8141Z" fill="black"/>
<path d="M29.3299 17.8288C29.4855 17.7192 29.6694 17.6508 29.8958 17.6234C31.8341 17.4043 33.7582 17.3084 35.6965 17.5138C36.1775 17.5686 36.5029 17.8288 36.6727 18.1711C36.7858 18.3355 36.8707 18.5409 36.8707 18.7737C37.1961 26.7572 36.8 34.7681 37.7055 42.7242C37.9601 44.9563 32.3575 44.0935 31.0701 44.0935C30.2919 44.0935 29.91 43.5047 29.9241 42.9159C29.91 42.8474 29.8958 42.7789 29.8817 42.7105C29.1035 34.7817 29.4714 26.7982 28.5801 18.8695C28.5093 18.267 28.863 17.9246 29.3157 17.8151L29.3299 17.8288ZM32.1878 41.793H35.2437C34.508 34.4531 34.791 27.0721 34.5505 19.7048C33.3903 19.6501 32.2161 19.6911 31.0559 19.787C31.7916 27.0995 31.537 34.4668 32.1878 41.793Z" fill="black"/>
<path d="M20.072 24.7616C20.1597 24.7479 20.2328 24.7204 20.3352 24.7204C22.0899 24.5969 23.8446 24.4733 25.5993 24.2674C26.2574 24.185 26.6376 24.5557 26.7253 25.0087C26.8569 25.1735 26.93 25.3794 26.9446 25.6402C27.0616 31.4199 27.1932 37.1995 27.4272 42.9929C27.471 43.8989 26.5644 44.2421 25.8479 44.0499C25.7017 44.1048 25.5409 44.146 25.3508 44.146C23.8446 44.146 22.3385 44.2559 20.8177 44.2559C20.1451 44.2559 19.7649 43.844 19.6625 43.3635C19.5456 43.1988 19.4724 43.0066 19.4724 42.7595C19.3408 37.1308 19.1069 31.5022 18.8583 25.8736C18.829 25.1185 19.4432 24.7479 20.072 24.7616ZM21.8998 41.922C22.9088 41.8946 23.9324 41.8534 24.9413 41.8397C24.7512 36.7876 24.6196 31.7219 24.5173 26.6698C23.4644 26.7797 22.4116 26.862 21.3588 26.9307C21.5781 31.9278 21.7828 36.9249 21.8998 41.922Z" fill="black"/>
<path d="M11.9827 34.5976C12.0899 34.5703 12.1971 34.543 12.3177 34.543C13.4167 34.543 14.5291 34.543 15.6281 34.6522C16.2848 34.4337 17.1426 34.7752 17.1426 35.6904V43.2305C17.1426 43.572 17.022 43.8315 16.8343 44.0091C16.7271 44.4599 16.3786 44.8287 15.7889 44.8287H11.9693C11.2857 44.8287 10.9239 44.3096 10.8971 43.7769C10.8703 43.6813 10.8569 43.572 10.8569 43.4627C10.8569 40.8674 10.8569 38.2857 10.9641 35.6904C10.9909 35.0211 11.4734 34.6659 11.9693 34.5976H11.9827ZM14.891 42.5475V36.8788C14.3147 36.8514 13.7518 36.8378 13.1755 36.8378C13.1219 38.7365 13.1085 40.6488 13.1085 42.5475H14.9044H14.891Z" fill="black"/>
<path d="M4.5383 18.9928C12.1563 19.815 19.9498 16.2742 24.11 9.92208C24.9204 8.68878 26.9059 9.86904 26.0955 11.1156C21.5301 18.0778 12.9262 22.1888 4.5248 21.2738C3.05253 21.1146 3.06604 18.8337 4.55181 18.9928H4.5383Z" fill="black"/>
<path d="M21.7013 6.87088C23.1158 6.3378 24.5163 5.80472 25.9308 5.28465C26.589 5.03761 27.2332 4.79058 27.8914 4.54354C28.7317 4.2315 29.67 4.02347 30.3703 4.73857C30.8884 5.25865 30.8744 5.96075 30.8464 6.62384C30.8184 7.28694 30.7764 7.97604 30.7344 8.65214C30.6644 10.0563 30.5803 11.4605 30.5103 12.8647C30.4823 13.4628 29.9641 13.9829 29.2919 13.9699C28.6617 13.9699 28.0735 13.4498 28.1015 12.8387C28.1715 11.6556 28.2275 10.4854 28.2976 9.30223C28.3256 8.73015 28.3536 8.14506 28.3956 7.57298C28.4096 7.27394 28.4236 6.97489 28.4376 6.67585C28.4376 6.61084 28.4376 5.93474 28.4656 5.93474V6.03876C28.5636 6.28579 28.7737 6.42881 29.1238 6.48082H29.1939C29.0678 6.51983 29.0258 6.53283 29.0958 6.51983C28.8157 6.63684 28.5356 6.72786 28.2695 6.83187L26.533 7.48197C25.3285 7.93703 24.1241 8.3921 22.9197 8.84716C22.3175 9.0682 21.6313 8.99018 21.2812 8.4051C21.0011 7.92403 21.1411 7.11791 21.7573 6.88388L21.7013 6.87088Z" fill="black"/>
</svg>
