<svg width="56" height="56" viewBox="0 0 56 56" fill="none" xmlns="http://www.w3.org/2000/svg">
<rect x="4" y="4" width="48" height="48" rx="24" fill="#BBDBB8"/>
<rect x="4" y="4" width="48" height="48" rx="24" stroke="#EBF6EA" stroke-width="8"/>
<mask id="mask0_1773_217944" style="mask-type:alpha" maskUnits="userSpaceOnUse" x="16" y="16" width="24" height="24">
<rect x="16" y="16" width="24" height="24" fill="#D9D9D9"/>
</mask>
<g mask="url(#mask0_1773_217944)">
<path d="M24.8 26.9501L26.95 24.7751L25.55 23.3501L25.15 23.7501C24.9667 23.9334 24.7375 24.0292 24.4625 24.0376C24.1875 24.0459 23.95 23.9501 23.75 23.7501C23.55 23.5501 23.45 23.3126 23.45 23.0376C23.45 22.7626 23.55 22.5251 23.75 22.3251L24.125 21.9501L23 20.8251L20.825 23.0001L24.8 26.9501ZM33 35.1751L35.175 33.0001L34.05 31.8751L33.65 32.2501C33.45 32.4501 33.2167 32.5501 32.95 32.5501C32.6833 32.5501 32.45 32.4501 32.25 32.2501C32.05 32.0501 31.95 31.8167 31.95 31.5501C31.95 31.2834 32.05 31.0501 32.25 30.8501L32.625 30.4501L31.2 29.0501L29.05 31.2001L33 35.1751ZM32.225 22.4251L33.625 23.8251L35.025 22.4251L33.6 21.0001L32.225 22.4251ZM20 37.0001C19.7167 37.0001 19.4792 36.9042 19.2875 36.7126C19.0958 36.5209 19 36.2834 19 36.0001V33.1751C19 33.0417 19.025 32.9126 19.075 32.7876C19.125 32.6626 19.2 32.5501 19.3 32.4501L23.375 28.3751L19.05 24.0501C18.7667 23.7667 18.625 23.4167 18.625 23.0001C18.625 22.5834 18.7667 22.2334 19.05 21.9501L21.95 19.0501C22.2333 18.7667 22.5833 18.6292 23 18.6376C23.4167 18.6459 23.7667 18.7917 24.05 19.0751L28.4 23.4001L32.175 19.6001C32.375 19.4001 32.6 19.2501 32.85 19.1501C33.1 19.0501 33.3583 19.0001 33.625 19.0001C33.8917 19.0001 34.15 19.0501 34.4 19.1501C34.65 19.2501 34.875 19.4001 35.075 19.6001L36.4 20.9501C36.6 21.1501 36.75 21.3751 36.85 21.6251C36.95 21.8751 37 22.1334 37 22.4001C37 22.6667 36.95 22.9209 36.85 23.1626C36.75 23.4042 36.6 23.6251 36.4 23.8251L32.625 27.6251L36.95 31.9501C37.2333 32.2334 37.375 32.5834 37.375 33.0001C37.375 33.4167 37.2333 33.7667 36.95 34.0501L34.05 36.9501C33.7667 37.2334 33.4167 37.3751 33 37.3751C32.5833 37.3751 32.2333 37.2334 31.95 36.9501L27.625 32.6251L23.55 36.7001C23.45 36.8001 23.3375 36.8751 23.2125 36.9251C23.0875 36.9751 22.9583 37.0001 22.825 37.0001H20Z" fill="#138A07"/>
</g>
</svg>
