<svg width="37" height="35" viewBox="0 0 37 35" fill="none" xmlns="http://www.w3.org/2000/svg">
<path d="M4.10197 34.5584C3.56513 34.5584 3.11513 34.3768 2.75197 34.0136C2.38882 33.6505 2.20724 33.2005 2.20724 32.6637V28.0689C2.20724 27.5637 2.30197 27.0821 2.49145 26.6242C2.68092 26.1663 2.94934 25.7637 3.29671 25.4163L27.1704 1.58997C27.5493 1.21102 27.9757 0.926809 28.4493 0.737336C28.923 0.547862 29.3967 0.453125 29.8704 0.453125C30.3757 0.453125 30.8572 0.547862 31.3151 0.737336C31.773 0.926809 32.1757 1.21102 32.523 1.58997L35.1757 4.2426C35.5546 4.58997 35.8388 4.9926 36.0283 5.45049C36.2178 5.90839 36.3125 6.38997 36.3125 6.89523C36.3125 7.36891 36.2178 7.8426 36.0283 8.31628C35.8388 8.78997 35.5546 9.21628 35.1757 9.59523L11.3493 33.4689C11.002 33.8163 10.5993 34.0847 10.1414 34.2742C9.68355 34.4636 9.20197 34.5584 8.69671 34.5584H4.10197ZM29.9651 9.50049L32.523 6.9426L29.823 4.2426L27.2651 6.80049L29.9651 9.50049ZM21.1546 34.5584C23.4914 34.5584 25.6546 33.9742 27.6441 32.8058C29.6336 31.6373 30.6283 30.011 30.6283 27.9268C30.6283 26.79 30.3283 25.811 29.7283 24.99C29.1283 24.1689 28.323 23.4584 27.3125 22.8584L24.5178 25.6531C25.2441 25.9689 25.8125 26.3163 26.223 26.6952C26.6336 27.0742 26.8388 27.4847 26.8388 27.9268C26.8388 28.6531 26.2625 29.3084 25.1099 29.8926C23.9572 30.4768 22.6388 30.7689 21.1546 30.7689C20.6178 30.7689 20.1678 30.9505 19.8046 31.3137C19.4415 31.6768 19.2599 32.1268 19.2599 32.6637C19.2599 33.2005 19.4415 33.6505 19.8046 34.0136C20.1678 34.3768 20.6178 34.5584 21.1546 34.5584ZM3.29671 20.0637L6.13882 17.2215C5.50724 16.9689 5.00987 16.7084 4.64671 16.44C4.28355 16.1715 4.10197 15.8952 4.10197 15.611C4.10197 15.2321 4.38618 14.8531 4.95461 14.4742C5.52303 14.0952 6.72303 13.511 8.55461 12.7215C11.3336 11.5215 13.1809 10.4321 14.0967 9.45312C15.0125 8.47418 15.4704 7.36891 15.4704 6.13734C15.4704 4.40049 14.7757 3.01891 13.3862 1.9926C11.9967 0.966283 10.1651 0.453125 7.89145 0.453125C6.4704 0.453125 5.19934 0.705757 4.07829 1.21102C2.95724 1.71628 2.09671 2.33207 1.49671 3.05839C1.14934 3.46891 1.00724 3.92681 1.07039 4.43207C1.13355 4.93734 1.37039 5.34786 1.78092 5.66365C2.19145 6.01102 2.64934 6.15313 3.15461 6.08997C3.65987 6.02681 4.08618 5.82155 4.43355 5.47418C4.87566 5.03207 5.36513 4.71628 5.90197 4.52681C6.43882 4.33734 7.10197 4.2426 7.89145 4.2426C9.18618 4.2426 10.1414 4.43207 10.7572 4.81102C11.373 5.18997 11.6809 5.63207 11.6809 6.13734C11.6809 6.57944 11.4046 6.98207 10.852 7.34523C10.2993 7.70839 9.02829 8.34786 7.03882 9.26365C4.5125 10.3689 2.75987 11.3715 1.78092 12.2715C0.801974 13.1715 0.3125 14.2847 0.3125 15.611C0.3125 16.6215 0.580921 17.4821 1.11776 18.1926C1.65461 18.9031 2.38092 19.5268 3.29671 20.0637Z" fill="#4354A3"/>
</svg>
