<svg width="56" height="56" viewBox="0 0 56 56" fill="none" xmlns="http://www.w3.org/2000/svg">
<rect x="4" y="4" width="48" height="48" rx="24" fill="#80CB9C"/>
<rect x="4" y="4" width="48" height="48" rx="24" stroke="#D8EFE1" stroke-width="8"/>
<mask id="mask0_3314_17549" style="mask-type:alpha" maskUnits="userSpaceOnUse" x="16" y="16" width="24" height="24">
<rect x="16" y="16" width="24" height="24" fill="#D9D9D9"/>
</mask>
<g mask="url(#mask0_3314_17549)">
<path d="M22 38C21.45 38 20.9792 37.8042 20.5875 37.4125C20.1958 37.0208 20 36.55 20 36V20C20 19.45 20.1958 18.9792 20.5875 18.5875C20.9792 18.1958 21.45 18 22 18H29.175C29.4417 18 29.6958 18.05 29.9375 18.15C30.1792 18.25 30.3917 18.3917 30.575 18.575L35.425 23.425C35.6083 23.6083 35.75 23.8208 35.85 24.0625C35.95 24.3042 36 24.5583 36 24.825V27C35.6167 27.0833 35.2583 27.2167 34.925 27.4C34.5917 27.5833 34.2833 27.8167 34 28.1L28.6 33.5C28.4167 33.6833 28.2708 33.8958 28.1625 34.1375C28.0542 34.3792 28 34.6333 28 34.9V38H22ZM30 37V35.35C30 35.2167 30.025 35.0875 30.075 34.9625C30.125 34.8375 30.2 34.725 30.3 34.625L35.525 29.425C35.675 29.275 35.8417 29.1667 36.025 29.1C36.2083 29.0333 36.3917 29 36.575 29C36.775 29 36.9667 29.0375 37.15 29.1125C37.3333 29.1875 37.5 29.3 37.65 29.45L38.575 30.375C38.7083 30.525 38.8125 30.6917 38.8875 30.875C38.9625 31.0583 39 31.2417 39 31.425C39 31.6083 38.9667 31.7958 38.9 31.9875C38.8333 32.1792 38.725 32.35 38.575 32.5L33.375 37.7C33.275 37.8 33.1625 37.875 33.0375 37.925C32.9125 37.975 32.7833 38 32.65 38H31C30.7167 38 30.4792 37.9042 30.2875 37.7125C30.0958 37.5208 30 37.2833 30 37ZM36.575 32.4L37.5 31.425L36.575 30.5L35.625 31.45L36.575 32.4ZM30 25H34L29 20V24C29 24.2833 29.0958 24.5208 29.2875 24.7125C29.4792 24.9042 29.7167 25 30 25Z" fill="#0F2715"/>
</g>
</svg>
