<svg width="46" height="41" viewBox="0 0 46 41" fill="none" xmlns="http://www.w3.org/2000/svg">
<path d="M2.55172 25.5172C1.82873 25.5172 1.2227 25.2726 0.733619 24.7836C0.24454 24.2945 0 23.6885 0 22.9655C0 22.2425 0.24454 21.6364 0.733619 21.1474C1.2227 20.6583 1.82873 20.4137 2.55172 20.4137H15.3103C16.0333 20.4137 16.6393 20.6583 17.1284 21.1474C17.6175 21.6364 17.862 22.2425 17.862 22.9655C17.862 23.6885 17.6175 24.2945 17.1284 24.7836C16.6393 25.2726 16.0333 25.5172 15.3103 25.5172H2.55172ZM2.55172 15.3103C1.82873 15.3103 1.2227 15.0658 0.733619 14.5767C0.24454 14.0876 0 13.4816 0 12.7586C0 12.0356 0.24454 11.4296 0.733619 10.9405C1.2227 10.4514 1.82873 10.2069 2.55172 10.2069H25.5172C26.2402 10.2069 26.8462 10.4514 27.3353 10.9405C27.8244 11.4296 28.0689 12.0356 28.0689 12.7586C28.0689 13.4816 27.8244 14.0876 27.3353 14.5767C26.8462 15.0658 26.2402 15.3103 25.5172 15.3103H2.55172ZM2.55172 5.10344C1.82873 5.10344 1.2227 4.8589 0.733619 4.36982C0.24454 3.88074 0 3.27471 0 2.55172C0 1.82873 0.24454 1.2227 0.733619 0.733619C1.2227 0.24454 1.82873 0 2.55172 0H25.5172C26.2402 0 26.8462 0.24454 27.3353 0.733619C27.8244 1.2227 28.0689 1.82873 28.0689 2.55172C28.0689 3.27471 27.8244 3.88074 27.3353 4.36982C26.8462 4.8589 26.2402 5.10344 25.5172 5.10344H2.55172ZM22.9655 38.2758V34.0654C22.9655 33.7252 23.0293 33.3956 23.1568 33.0767C23.2844 32.7577 23.4758 32.4706 23.731 32.2155L37.0637 18.9465C37.4465 18.5638 37.8718 18.2873 38.3396 18.1172C38.8074 17.9471 39.2752 17.862 39.743 17.862C40.2534 17.862 40.7424 17.9577 41.2103 18.1491C41.6781 18.3405 42.1034 18.6275 42.4861 19.0103L44.8465 21.3706C45.1867 21.7534 45.4525 22.1787 45.6439 22.6465C45.8352 23.1143 45.9309 23.5821 45.9309 24.0499C45.9309 24.5178 45.8459 24.9962 45.6758 25.4853C45.5056 25.9744 45.2292 26.4103 44.8465 26.793L31.5775 40.062C31.3223 40.3172 31.0353 40.5085 30.7163 40.6361C30.3973 40.7637 30.0678 40.8275 29.7275 40.8275H25.5172C24.7942 40.8275 24.1882 40.583 23.6991 40.0939C23.21 39.6048 22.9655 38.9988 22.9655 38.2758ZM39.743 26.5379L42.1034 24.0499L39.743 21.6896L37.3189 24.1137L39.743 26.5379ZM26.793 36.9999H29.2172L36.9361 29.2172L35.7879 28.0051L34.5758 26.8568L26.793 34.5758V36.9999ZM26.793 36.9999V34.5758L34.5758 26.8568L36.9361 29.2172L29.2172 36.9999H26.793Z" fill="#4354A3"/>
</svg>
