<svg width="48" height="53" viewBox="0 0 48 53" fill="none" xmlns="http://www.w3.org/2000/svg">
<path fill-rule="evenodd" clip-rule="evenodd" d="M11.0318 49.3047C8.37955 49.0726 5.954 47.8646 4.19279 45.8924C2.38225 43.8966 1.43145 41.1794 1.59312 38.4503L3.21367 11.7765C3.38339 9.02882 4.61832 6.51569 6.69811 4.69965C8.77097 2.88942 11.4263 1.98461 14.1804 2.15488L36.208 3.49743C36.3036 3.50579 36.3929 3.5136 36.4821 3.52141C42.1182 4.0145 46.2617 8.79061 45.9192 14.3949L45.6776 18.3312L45.6457 18.3284L44.2673 41.0596C44.1034 43.8142 42.8615 46.3331 40.7817 48.1492C38.7765 49.9203 36.0483 50.8509 33.3197 50.6828L11.3065 49.3223C11.2173 49.3145 11.1216 49.3061 11.0324 49.2983L11.0318 49.3047Z" fill="#80CB9C"/>
<path fill-rule="evenodd" clip-rule="evenodd" d="M13.9416 5.98877C10.3443 5.76399 7.26159 8.46881 7.0482 12.0093L5.42821 38.6768C5.32391 40.383 5.90961 42.0596 7.05772 43.3293C8.20471 44.6117 9.81409 45.3821 11.5458 45.4887L33.559 46.8492C35.2907 46.9558 36.9853 46.3845 38.2667 45.2502C39.5602 44.1235 40.3353 42.5338 40.4401 40.8212L42.0601 14.1537L42.092 14.1565C42.3065 10.6033 39.5665 7.55609 35.9819 7.33243L13.9543 5.98988L13.9416 5.98877ZM35.7938 10.2905C37.7231 10.4143 39.1993 12.0468 39.0888 13.9709L37.4688 40.6384C37.4018 41.5512 36.9863 42.4078 36.2966 43.0221L36.2838 43.0209C35.5941 43.6352 34.6807 43.9407 33.7407 43.8906L11.7275 42.5301C10.802 42.4619 9.93838 42.0523 9.31085 41.3678C8.6897 40.6839 8.37664 39.7828 8.4262 38.8491L10.0462 12.1816C10.1678 10.2778 11.8177 8.82245 13.7609 8.93464L35.7869 10.2963L35.7938 10.2905Z" fill="black"/>
<path fill-rule="evenodd" clip-rule="evenodd" d="M22.5048 20.0851L12.8341 19.4998C12.0019 19.427 11.2792 20.054 11.224 20.8621C11.1521 21.684 11.7884 22.3992 12.6066 22.4555L22.2772 23.0408C23.1095 23.1136 23.3698 22.4462 23.4404 21.6394C23.5123 20.8175 23.3229 20.1414 22.5048 20.0851Z" fill="black"/>
<path fill-rule="evenodd" clip-rule="evenodd" d="M12.2844 27.566L18.0175 27.7148C18.8525 27.7572 19.5154 26.9256 19.5565 26.1009C19.5975 25.2763 18.9586 24.5915 18.1237 24.5491L12.5098 24.4568C11.6749 24.4144 10.8927 25.1896 10.8516 26.0142C10.8105 26.8389 11.4495 27.5236 12.2844 27.566Z" fill="black"/>
<path fill-rule="evenodd" clip-rule="evenodd" d="M21.8173 30.0871L12.1466 29.5018C11.3144 29.429 10.5917 30.0559 10.5365 30.864C10.4646 31.686 11.1009 32.4012 11.9191 32.4574L21.5897 33.0428C22.422 33.1156 22.6823 32.4481 22.7529 31.6414C22.8248 30.8194 22.6354 30.1433 21.8173 30.0871Z" fill="black"/>
<path fill-rule="evenodd" clip-rule="evenodd" d="M21.4364 34.425L11.7658 33.8397C10.9335 33.7669 10.2109 34.3938 10.1557 35.2019C10.0838 36.0239 10.7201 36.7391 11.5382 36.7953L21.2089 37.3806C22.0411 37.4535 22.3014 36.786 22.372 35.9793C22.4439 35.1573 22.2546 34.4812 21.4364 34.425Z" fill="black"/>
<path fill-rule="evenodd" clip-rule="evenodd" d="M36.0067 21.2668L26.3361 20.6815C25.5038 20.6086 24.7812 21.2356 24.726 22.0437C24.6541 22.8657 25.2904 23.5809 26.1085 23.6371L35.7792 24.2224C36.6115 24.2952 36.8717 23.6278 36.9423 22.8211C37.0142 21.9991 36.8249 21.323 36.0067 21.2668Z" fill="black"/>
<path fill-rule="evenodd" clip-rule="evenodd" d="M22.9266 15.2766L13.256 14.6912C12.4237 14.6184 11.7011 15.2454 11.6459 16.0535C11.574 16.8754 12.2103 17.5906 13.0285 17.6469L22.6991 18.2322C23.5314 18.305 23.7917 17.6376 23.8622 16.8308C23.9342 16.0089 23.7448 15.3328 22.9266 15.2766Z" fill="black"/>
<path fill-rule="evenodd" clip-rule="evenodd" d="M36.4286 16.4562L26.758 15.8709C25.9257 15.7981 25.203 16.4251 25.1479 17.2332C25.076 18.0551 25.7122 18.7703 26.5304 18.8266L36.2011 19.4119C37.0333 19.4847 37.2936 18.8173 37.3642 18.0105C37.4361 17.1886 37.2468 16.5125 36.4286 16.4562Z" fill="black"/>
<path fill-rule="evenodd" clip-rule="evenodd" d="M25.7864 28.7457L31.5195 28.8945C32.3544 28.9369 33.0173 28.1053 33.0584 27.2806C33.0995 26.456 32.4605 25.7712 31.6256 25.7288L26.0118 25.6365C25.1769 25.5941 24.3947 26.3693 24.3536 27.1939C24.3125 28.0186 24.9514 28.7033 25.7864 28.7457Z" fill="black"/>
<path fill-rule="evenodd" clip-rule="evenodd" d="M35.3329 31.2687L25.6622 30.6834C24.83 30.6106 24.1073 31.2376 24.0522 32.0457C23.9803 32.8676 24.6165 33.5828 25.4347 33.6391L35.1054 34.2244C35.9376 34.2972 36.1979 33.6298 36.2685 32.823C36.3404 32.0011 36.1511 31.325 35.3329 31.2687Z" fill="black"/>
<path fill-rule="evenodd" clip-rule="evenodd" d="M34.954 35.6086L25.2833 35.0233C24.4511 34.9504 23.7284 35.5774 23.6733 36.3855C23.6014 37.2075 24.2376 37.9227 25.0558 37.9789L34.7265 38.5642C35.5587 38.637 35.819 37.9696 35.8896 37.1629C35.9615 36.3409 35.7722 35.6648 34.954 35.6086Z" fill="black"/>
</svg>
