<svg width="37" height="37" viewBox="0 0 37 37" fill="none" xmlns="http://www.w3.org/2000/svg">
<path d="M14.2917 30.625V26.5417H17.4563L22.8156 20.4167L17.4563 14.2917H14.0875L10.8208 31.85C10.5486 33.3813 9.9191 34.5807 8.93229 35.4484C7.94549 36.3162 6.68646 36.75 5.15521 36.75C3.62396 36.75 2.38194 36.3417 1.42917 35.525C0.476389 34.7083 0 33.6194 0 32.2583C0 31.1694 0.289236 30.2932 0.867708 29.6297C1.44618 28.9661 2.17778 28.6344 3.0625 28.6344C3.91319 28.6344 4.63628 28.9236 5.23177 29.5021C5.82726 30.0806 6.125 30.7781 6.125 31.5948C6.125 31.7649 6.11649 31.9181 6.09948 32.0542C6.08247 32.1903 6.05694 32.3434 6.02292 32.5135C6.19306 32.4795 6.33767 32.3859 6.45677 32.2328C6.57587 32.0797 6.66944 31.867 6.7375 31.5948L9.90208 14.2917H4.08333V10.2083H10.6677L11.7396 4.38958C11.9778 3.09653 12.6158 2.04167 13.6536 1.225C14.6915 0.408333 15.925 0 17.3542 0C18.8514 0 20.0764 0.442361 21.0292 1.32708C21.9819 2.21181 22.4583 3.31771 22.4583 4.64479C22.4583 5.66563 22.1691 6.50781 21.5906 7.17135C21.0122 7.8349 20.2806 8.16667 19.3958 8.16667C18.5451 8.16667 17.8221 7.87743 17.2266 7.29896C16.6311 6.72049 16.3333 6.0059 16.3333 5.15521C16.3333 4.98507 16.3418 4.83194 16.3589 4.69583C16.3759 4.55972 16.4014 4.4066 16.4354 4.23646C16.2313 4.30451 16.0781 4.4066 15.976 4.54271C15.874 4.67882 15.7889 4.88299 15.7208 5.15521L14.8531 10.2083H24.5V14.2917H22.8667L25.5208 17.3031L28.175 14.2917H26.5417V10.2083H36.75V14.2917H33.5854L28.226 20.4167L33.5854 26.5417H36.75V30.625H26.5417V26.5417H28.175L25.5208 23.4792L22.8667 26.5417H24.5V30.625H14.2917Z" fill="#4354A3"/>
</svg>
