<svg width="56" height="57" viewBox="0 0 56 57" fill="none" xmlns="http://www.w3.org/2000/svg">
<rect x="4" y="4.92578" width="48" height="48" rx="24" fill="#80CB9C"/>
<rect x="4" y="4.92578" width="48" height="48" rx="24" stroke="#D8EFE1" stroke-width="8"/>
<mask id="mask0_3314_12552" style="mask-type:alpha" maskUnits="userSpaceOnUse" x="16" y="16" width="25" height="25">
<rect x="16.668" y="16.6094" width="24" height="24" fill="#D9D9D9"/>
</mask>
<g mask="url(#mask0_3314_12552)">
<path d="M20.668 30.1344L23.193 27.6094L20.668 25.0844L18.143 27.6094L20.668 30.1344ZM34.168 29.6094L36.668 25.6094L39.168 29.6094H34.168ZM28.668 28.6094C27.8346 28.6094 27.1263 28.3177 26.543 27.7344C25.9596 27.151 25.668 26.4427 25.668 25.6094C25.668 24.7594 25.9596 24.0469 26.543 23.4719C27.1263 22.8969 27.8346 22.6094 28.668 22.6094C29.518 22.6094 30.2305 22.8969 30.8055 23.4719C31.3805 24.0469 31.668 24.7594 31.668 25.6094C31.668 26.4427 31.3805 27.151 30.8055 27.7344C30.2305 28.3177 29.518 28.6094 28.668 28.6094ZM16.668 33.6094V33.0344C16.668 32.301 17.0388 31.7135 17.7805 31.2719C18.5221 30.8302 19.4846 30.6094 20.668 30.6094C20.8846 30.6094 21.093 30.6135 21.293 30.6219C21.493 30.6302 21.6846 30.651 21.868 30.6844C21.6346 31.0177 21.4596 31.376 21.343 31.7594C21.2263 32.1427 21.168 32.551 21.168 32.9844V34.6094H17.668C17.3846 34.6094 17.1471 34.5135 16.9555 34.3219C16.7638 34.1302 16.668 33.8927 16.668 33.6094ZM22.668 33.6094V32.9844C22.668 31.901 23.2221 31.026 24.3305 30.3594C25.4388 29.6927 26.8846 29.3594 28.668 29.3594C30.468 29.3594 31.918 29.6927 33.018 30.3594C34.118 31.026 34.668 31.901 34.668 32.9844V33.6094C34.668 33.8927 34.5721 34.1302 34.3805 34.3219C34.1888 34.5135 33.9513 34.6094 33.668 34.6094H23.668C23.3846 34.6094 23.1471 34.5135 22.9555 34.3219C22.7638 34.1302 22.668 33.8927 22.668 33.6094ZM36.668 30.6094C37.868 30.6094 38.8346 30.8302 39.568 31.2719C40.3013 31.7135 40.668 32.301 40.668 33.0344V33.6094C40.668 33.8927 40.5721 34.1302 40.3805 34.3219C40.1888 34.5135 39.9513 34.6094 39.668 34.6094H36.168V32.9844C36.168 32.551 36.1138 32.1427 36.0055 31.7594C35.8971 31.376 35.7346 31.0177 35.518 30.6844C35.7013 30.651 35.8888 30.6302 36.0805 30.6219C36.2721 30.6135 36.468 30.6094 36.668 30.6094Z" fill="#0F2715"/>
</g>
</svg>
