<svg width="56" height="57" viewBox="0 0 56 57" fill="none" xmlns="http://www.w3.org/2000/svg">
<rect x="4" y="4.31592" width="48" height="48" rx="24" fill="#BBDBB8"/>
<rect x="4" y="4.31592" width="48" height="48" rx="24" stroke="#EBF6EA" stroke-width="8"/>
<mask id="mask0_1294_25638" style="mask-type:alpha" maskUnits="userSpaceOnUse" x="15" y="16" width="25" height="24">
<rect x="15.667" y="16" width="24" height="24" fill="#D9D9D9"/>
</mask>
<g mask="url(#mask0_1294_25638)">
<path d="M19.667 29.525L22.192 27L19.667 24.475L17.142 27L19.667 29.525ZM33.167 29L35.667 25L38.167 29H33.167ZM27.667 28C26.8337 28 26.1253 27.7083 25.542 27.125C24.9587 26.5417 24.667 25.8333 24.667 25C24.667 24.15 24.9587 23.4375 25.542 22.8625C26.1253 22.2875 26.8337 22 27.667 22C28.517 22 29.2295 22.2875 29.8045 22.8625C30.3795 23.4375 30.667 24.15 30.667 25C30.667 25.8333 30.3795 26.5417 29.8045 27.125C29.2295 27.7083 28.517 28 27.667 28ZM15.667 33V32.425C15.667 31.6917 16.0378 31.1042 16.7795 30.6625C17.5212 30.2208 18.4837 30 19.667 30C19.8837 30 20.092 30.0042 20.292 30.0125C20.492 30.0208 20.6837 30.0417 20.867 30.075C20.6337 30.4083 20.4587 30.7667 20.342 31.15C20.2253 31.5333 20.167 31.9417 20.167 32.375V34H16.667C16.3837 34 16.1462 33.9042 15.9545 33.7125C15.7628 33.5208 15.667 33.2833 15.667 33ZM21.667 33V32.375C21.667 31.2917 22.2212 30.4167 23.3295 29.75C24.4378 29.0833 25.8837 28.75 27.667 28.75C29.467 28.75 30.917 29.0833 32.017 29.75C33.117 30.4167 33.667 31.2917 33.667 32.375V33C33.667 33.2833 33.5712 33.5208 33.3795 33.7125C33.1878 33.9042 32.9503 34 32.667 34H22.667C22.3837 34 22.1462 33.9042 21.9545 33.7125C21.7628 33.5208 21.667 33.2833 21.667 33ZM35.667 30C36.867 30 37.8337 30.2208 38.567 30.6625C39.3003 31.1042 39.667 31.6917 39.667 32.425V33C39.667 33.2833 39.5712 33.5208 39.3795 33.7125C39.1878 33.9042 38.9503 34 38.667 34H35.167V32.375C35.167 31.9417 35.1128 31.5333 35.0045 31.15C34.8962 30.7667 34.7337 30.4083 34.517 30.075C34.7003 30.0417 34.8878 30.0208 35.0795 30.0125C35.2712 30.0042 35.467 30 35.667 30Z" fill="#138A07"/>
</g>
</svg>
