<svg width="190" height="204" viewBox="0 0 190 204" fill="none" xmlns="http://www.w3.org/2000/svg">
<path d="M161.327 90.94L154.733 90.1374L154.765 89.6412C155.19 82.9612 152.344 79.0626 149.882 76.9514L129.542 61.1322C126.448 58.7508 122.796 57.3304 118.879 57.0813C114.695 56.8152 110.5 57.9281 106.993 60.2346L85.7127 74.2114C84.825 73.1585 83.8208 72.1365 82.7713 71.2266C80.7023 57.5276 69.3938 46.8053 55.1317 45.8982C40.8696 44.9911 29.8296 54.062 26.3168 67.8659C19.8205 72.7417 15.959 80.6212 15.3205 90.6603C14.682 100.699 17.5449 109.122 23.4496 114.748C23.9844 118.346 25.2136 121.835 26.9946 125.053C29.0532 128.71 32.7609 131.054 36.9372 131.434L36.4881 138.496C36.0389 145.558 41.3796 151.646 48.4156 152.094C53.8922 152.442 58.7555 149.225 60.8514 144.491C62.9075 146.385 65.5754 147.666 68.58 147.857L68.618 147.86L157.068 152.489C164.066 152.934 170.095 147.607 170.541 140.583L172.841 104.435C173.28 97.5258 168.16 91.5663 161.327 90.94Z" fill="#DADBEB"/>
<path d="M103.779 92.7608C103.335 99.7462 108.259 105.77 114.763 106.184C121.266 106.597 126.915 101.246 127.359 94.2606C127.803 87.2752 122.878 81.2514 116.375 80.8378C109.871 80.4241 104.223 85.7754 103.779 92.7608ZM121.502 93.8881C121.279 97.3998 118.475 100.058 115.204 99.8496C111.933 99.6415 109.489 96.65 109.712 93.1382C109.935 89.6264 112.739 86.9686 116.01 87.1766C119.281 87.3847 121.725 90.3763 121.502 93.8881Z" fill="black"/>
<path d="M49.023 142.551C47.2355 142.437 45.8825 140.895 45.9966 139.101L49.3737 86.0043C49.4878 84.2103 51.0253 82.8517 52.8128 82.9654C54.6003 83.0791 55.9533 84.6215 55.8392 86.4156L52.4621 139.512C52.348 141.306 50.8105 142.665 49.023 142.551Z" fill="black"/>
<path d="M160.378 100.461L144.65 98.5791L145.255 89.0744C145.318 88.0819 145.466 85.7535 143.69 84.2608L123.675 68.7305C122.11 67.5196 120.21 66.7854 118.27 66.6621C116.14 66.5266 114.005 67.0807 112.211 68.2696L89.8144 82.9804C88.9769 83.5403 88.4622 84.4274 88.3991 85.4199L87.7946 94.9246L85.1704 94.7577C85.1704 94.7577 84.3264 94.819 83.2922 94.8682C83.7681 87.3866 79.9123 80.166 73.5917 76.2763C73.8248 65.4066 65.4383 56.1732 54.561 55.4814C43.6838 54.7896 36.0587 63.0046 34.9128 73.8163C28.1099 76.9096 25.3076 83.745 24.8293 91.2648C24.351 98.7845 26.3028 105.922 32.621 109.85C32.54 113.524 33.4576 117.109 35.2767 120.329C35.8245 121.322 36.8198 121.883 37.8847 121.951C38.4932 121.99 39.1115 121.876 39.7062 121.53C41.2526 120.632 41.7972 118.674 40.9055 117.084C39.5655 114.738 38.9723 112.055 39.1447 109.345C39.1641 109.04 39.1836 108.735 39.2054 108.391C39.4093 106.986 38.6552 105.635 37.358 105.016C32.2051 102.58 30.8999 97.2848 31.2592 91.6354C31.6185 85.986 33.5841 80.8987 39.0041 79.1355C40.3312 78.6833 41.2504 77.4387 41.2642 76.0215C41.2836 75.7162 41.3055 75.3726 41.3249 75.0673C41.8129 67.3948 42.0128 61.8503 54.1507 61.9324C61.7839 61.9963 67.5988 69.0348 67.1108 76.7073C67.0914 77.0127 67.0719 77.3181 67.0501 77.6616C66.8462 79.0667 67.6003 80.4177 68.8975 81.0368C74.0504 83.4725 77.2573 88.8887 76.8979 94.5381C76.5386 100.188 72.6714 105.154 67.2514 106.917C65.9243 107.369 65.0051 108.614 64.9913 110.031C64.9695 110.375 64.95 110.68 64.9306 110.985C64.7607 113.657 63.8325 116.243 62.206 118.401C61.1225 119.826 61.4122 121.876 62.8703 122.965C64.072 123.885 65.7195 123.798 66.8475 122.873C66.7553 124.324 66.803 125.975 66.7763 126.395L66.2349 134.907C66.1232 136.663 67.4406 138.165 69.1901 138.276L157.678 142.908C159.428 143.019 160.925 141.696 161.036 139.94L163.336 103.792C163.447 102.036 162.13 100.534 160.38 100.423L160.378 100.461ZM85.5464 130.271C85.4518 131.76 84.157 132.904 82.6738 132.81L75.0673 132.326C73.7742 132.244 72.8129 131.148 72.8954 129.85L74.1118 110.726C77.6617 108.346 80.4381 104.92 81.9505 100.953L87.3892 101.299L85.5464 130.271ZM118.538 135.091L109.068 134.489L109.716 124.297C109.804 122.923 110.977 121.886 112.346 121.973L116.91 122.263C118.241 122.348 119.238 123.484 119.153 124.82L118.5 135.088L118.538 135.091ZM135.919 136.196L124.852 135.492L125.859 119.651C125.971 117.895 124.653 116.394 122.904 116.282L106.93 115.266C105.181 115.155 103.684 116.478 103.572 118.234L102.717 134.085L91.6494 133.381L94.3224 91.3539C94.4802 88.8727 95.7693 86.6168 97.8036 85.2515L112.608 75.2319C115.282 73.409 118.822 73.5958 121.287 75.6689L135.757 87.7038C137.64 89.3183 138.669 91.7599 138.509 94.2792L135.838 136.268L135.919 136.196ZM154.186 134.177C154.073 135.358 153.099 136.254 151.948 136.334L144.362 136.733C143.183 136.658 142.293 135.644 142.368 134.46L144.056 107.931C144.16 106.29 145.65 105.081 147.278 105.3L154.206 106.239C155.682 106.448 156.745 107.742 156.651 109.23L154.186 134.177Z" fill="black"/>
</svg>
