<svg width="56" height="57" viewBox="0 0 56 57" fill="none" xmlns="http://www.w3.org/2000/svg">
<rect x="4" y="4.31592" width="48" height="48" rx="24" fill="#BBDBB8"/>
<rect x="4" y="4.31592" width="48" height="48" rx="24" stroke="#EBF6EA" stroke-width="8"/>
<mask id="mask0_854_11994" style="mask-type:alpha" maskUnits="userSpaceOnUse" x="16" y="16" width="24" height="25">
<rect x="16" y="16.3159" width="24" height="24" fill="#D9D9D9"/>
</mask>
<g mask="url(#mask0_854_11994)">
<path d="M25 31.316H21.9C21.5 31.316 21.2041 31.1368 21.0125 30.7785C20.8208 30.4202 20.8416 30.0743 21.075 29.741L28.55 18.991C28.7166 18.7577 28.9333 18.5952 29.2 18.5035C29.4666 18.4118 29.7416 18.416 30.025 18.516C30.3083 18.616 30.5166 18.791 30.65 19.041C30.7833 19.291 30.8333 19.5577 30.8 19.841L30 26.316H33.875C34.3083 26.316 34.6125 26.5077 34.7875 26.891C34.9625 27.2743 34.9083 27.6327 34.625 27.966L26.4 37.816C26.2166 38.0327 25.9916 38.1743 25.725 38.241C25.4583 38.3077 25.2 38.2827 24.95 38.166C24.7 38.0493 24.5041 37.8702 24.3625 37.6285C24.2208 37.3868 24.1666 37.1243 24.2 36.841L25 31.316Z" fill="#138A07"/>
</g>
</svg>
