<svg width="51" height="63" viewBox="0 0 51 63" fill="none" xmlns="http://www.w3.org/2000/svg">
<g clip-path="url(#clip0_3314_7299)">
<path d="M20.7098 60.6238C19.6288 60.5671 18.5852 60.3409 17.5791 59.9451C13.5828 58.3635 11.0505 54.4286 11.2761 50.1238L11.5839 44.2509L10.8158 44.2106C7.00384 44.0109 3.70069 41.7223 2.20157 38.2132C0.674004 34.7027 1.253 30.7308 3.71712 27.8011L22.1801 5.89871C24.1577 3.54383 27.1939 2.21641 30.3232 2.3804C31.4042 2.43705 32.4762 2.66476 33.4824 3.06054C37.4517 4.61218 39.9825 8.57553 39.7569 12.8804L39.4491 18.7533L40.2172 18.7935C44.0292 18.9933 47.3323 21.2819 48.8314 24.791C50.359 28.3015 49.78 32.2734 47.3159 35.2031L28.826 57.0755C26.8184 59.4574 23.7837 60.7563 20.6829 60.5938L20.7098 60.6238Z" fill="#F9D38F"/>
<path d="M39.8435 25.9197L31.9636 25.5067L32.6449 12.5066C32.7091 11.2807 31.9978 10.1571 30.8239 9.69534C29.6785 9.23508 28.3774 9.56712 27.587 10.4977L9.12699 32.343C8.42638 33.1925 8.25283 34.3269 8.68564 35.3215C9.11845 36.3162 10.0812 36.9956 11.1623 37.0522L19.0422 37.4652L18.3609 50.4654C18.2967 51.6913 19.008 52.8149 20.1819 53.2766C20.4619 53.377 20.7718 53.4505 21.0847 53.4669C21.9666 53.5131 22.8125 53.1572 23.4203 52.4458L41.8803 30.6004C42.5809 29.7509 42.7545 28.6165 42.3216 27.6219C41.8888 26.6272 40.9545 25.9493 39.845 25.8912L39.8435 25.9197ZM23.8626 44.0071L24.3093 35.4828C24.3915 33.9148 23.1786 32.5648 21.6139 32.4828L16.0382 32.1906L27.1702 18.9949L26.7235 27.5191C26.6413 29.0871 27.8542 30.4371 29.4188 30.5191L34.9945 30.8113L23.8626 44.0071Z" fill="#010101"/>
</g>
<defs>
<clipPath id="clip0_3314_7299">
<rect width="48" height="58.6667" fill="white" transform="translate(3.07031 0.951172) rotate(3)"/>
</clipPath>
</defs>
</svg>
