<svg width="56" height="56" viewBox="0 0 56 56" fill="none" xmlns="http://www.w3.org/2000/svg">
<rect x="4" y="4" width="48" height="48" rx="24" fill="#80CB9C"/>
<rect x="4" y="4" width="48" height="48" rx="24" stroke="#D8EFE1" stroke-width="8"/>
<mask id="mask0_3314_17602" style="mask-type:alpha" maskUnits="userSpaceOnUse" x="16" y="16" width="24" height="24">
<rect x="16" y="16" width="24" height="24" fill="#D9D9D9"/>
</mask>
<g mask="url(#mask0_3314_17602)">
<path d="M27.05 30.5L31.2 27.85C31.5 27.65 31.65 27.3667 31.65 27C31.65 26.6333 31.5 26.35 31.2 26.15L27.05 23.5C26.7167 23.2833 26.375 23.2667 26.025 23.45C25.675 23.6333 25.5 23.925 25.5 24.325V29.675C25.5 30.075 25.675 30.3667 26.025 30.55C26.375 30.7333 26.7167 30.7167 27.05 30.5ZM20 35C19.45 35 18.9792 34.8042 18.5875 34.4125C18.1958 34.0208 18 33.55 18 33V21C18 20.45 18.1958 19.9792 18.5875 19.5875C18.9792 19.1958 19.45 19 20 19H36C36.55 19 37.0208 19.1958 37.4125 19.5875C37.8042 19.9792 38 20.45 38 21V33C38 33.55 37.8042 34.0208 37.4125 34.4125C37.0208 34.8042 36.55 35 36 35H32V36C32 36.2833 31.9042 36.5208 31.7125 36.7125C31.5208 36.9042 31.2833 37 31 37H25C24.7167 37 24.4792 36.9042 24.2875 36.7125C24.0958 36.5208 24 36.2833 24 36V35H20Z" fill="#0F2715"/>
</g>
</svg>
