<svg width="56" height="56" viewBox="0 0 56 56" fill="none" xmlns="http://www.w3.org/2000/svg">
<rect x="4" y="4" width="48" height="48" rx="24" fill="#80CB9C"/>
<rect x="4" y="4" width="48" height="48" rx="24" stroke="#D8EFE1" stroke-width="8"/>
<mask id="mask0_3314_17620" style="mask-type:alpha" maskUnits="userSpaceOnUse" x="16" y="16" width="24" height="25">
<rect x="16" y="16.3672" width="24" height="24" fill="#D9D9D9"/>
</mask>
<g mask="url(#mask0_3314_17620)">
<path d="M19 33.5172V26.3672C19 25.8339 19.1958 25.3839 19.5875 25.0172C19.9792 24.6505 20.4417 24.4839 20.975 24.5172C22.2917 24.7172 23.5458 25.1047 24.7375 25.6797C25.9292 26.2547 27.0167 27.0005 28 27.9172C28.9833 27.0005 30.0708 26.2547 31.2625 25.6797C32.4542 25.1047 33.7083 24.7172 35.025 24.5172C35.5583 24.4839 36.0208 24.6505 36.4125 25.0172C36.8042 25.3839 37 25.8339 37 26.3672V33.5172C37 34.0505 36.825 34.5047 36.475 34.8797C36.125 35.2547 35.6833 35.4589 35.15 35.4922C34.0833 35.6589 33.05 35.9339 32.05 36.3172C31.05 36.7005 30.1167 37.2089 29.25 37.8422C29.0667 37.9922 28.8708 38.1047 28.6625 38.1797C28.4542 38.2547 28.2333 38.2922 28 38.2922C27.7667 38.2922 27.5458 38.2547 27.3375 38.1797C27.1292 38.1047 26.9333 37.9922 26.75 37.8422C25.8833 37.2089 24.95 36.7005 23.95 36.3172C22.95 35.9339 21.9167 35.6589 20.85 35.4922C20.3167 35.4589 19.875 35.2547 19.525 34.8797C19.175 34.5047 19 34.0505 19 33.5172ZM28 25.3672C26.9 25.3672 25.9583 24.9755 25.175 24.1922C24.3917 23.4089 24 22.4672 24 21.3672C24 20.2672 24.3917 19.3255 25.175 18.5422C25.9583 17.7589 26.9 17.3672 28 17.3672C29.1 17.3672 30.0417 17.7589 30.825 18.5422C31.6083 19.3255 32 20.2672 32 21.3672C32 22.4672 31.6083 23.4089 30.825 24.1922C30.0417 24.9755 29.1 25.3672 28 25.3672Z" fill="#0F2715"/>
</g>
</svg>
