<svg width="56" height="57" viewBox="0 0 56 57" fill="none" xmlns="http://www.w3.org/2000/svg">
<rect x="4" y="4.92578" width="48" height="48" rx="24" fill="#80CB9C"/>
<rect x="4" y="4.92578" width="48" height="48" rx="24" stroke="#D8EFE1" stroke-width="8"/>
<mask id="mask0_3314_12543" style="mask-type:alpha" maskUnits="userSpaceOnUse" x="16" y="16" width="25" height="25">
<rect x="16.332" y="16.6094" width="24" height="24" fill="#D9D9D9"/>
</mask>
<g mask="url(#mask0_3314_12543)">
<path d="M22.332 38.6094C21.782 38.6094 21.3112 38.4135 20.9195 38.0219C20.5279 37.6302 20.332 37.1594 20.332 36.6094V26.6094C20.332 26.0594 20.5279 25.5885 20.9195 25.1969C21.3112 24.8052 21.782 24.6094 22.332 24.6094H23.332V22.6094C23.332 21.226 23.8195 20.0469 24.7945 19.0719C25.7695 18.0969 26.9487 17.6094 28.332 17.6094C29.7154 17.6094 30.8945 18.0969 31.8695 19.0719C32.8445 20.0469 33.332 21.226 33.332 22.6094V24.6094H34.332C34.882 24.6094 35.3529 24.8052 35.7445 25.1969C36.1362 25.5885 36.332 26.0594 36.332 26.6094V36.6094C36.332 37.1594 36.1362 37.6302 35.7445 38.0219C35.3529 38.4135 34.882 38.6094 34.332 38.6094H22.332ZM28.332 33.6094C28.882 33.6094 29.3529 33.4135 29.7445 33.0219C30.1362 32.6302 30.332 32.1594 30.332 31.6094C30.332 31.0594 30.1362 30.5885 29.7445 30.1969C29.3529 29.8052 28.882 29.6094 28.332 29.6094C27.782 29.6094 27.3112 29.8052 26.9195 30.1969C26.5279 30.5885 26.332 31.0594 26.332 31.6094C26.332 32.1594 26.5279 32.6302 26.9195 33.0219C27.3112 33.4135 27.782 33.6094 28.332 33.6094ZM25.332 24.6094H31.332V22.6094C31.332 21.776 31.0404 21.0677 30.457 20.4844C29.8737 19.901 29.1654 19.6094 28.332 19.6094C27.4987 19.6094 26.7904 19.901 26.207 20.4844C25.6237 21.0677 25.332 21.776 25.332 22.6094V24.6094Z" fill="#0F2715"/>
</g>
</svg>
