<svg width="56" height="57" viewBox="0 0 56 57" fill="none" xmlns="http://www.w3.org/2000/svg">
<rect x="4" y="4.31592" width="48" height="48" rx="24" fill="#BBDBB8"/>
<rect x="4" y="4.31592" width="48" height="48" rx="24" stroke="#EBF6EA" stroke-width="8"/>
<mask id="mask0_1294_25634" style="mask-type:alpha" maskUnits="userSpaceOnUse" x="16" y="16" width="25" height="24">
<rect x="16.333" y="16" width="24" height="24" fill="#D9D9D9"/>
</mask>
<g mask="url(#mask0_1294_25634)">
<path d="M22.333 38C21.783 38 21.3122 37.8042 20.9205 37.4125C20.5288 37.0208 20.333 36.55 20.333 36V26C20.333 25.45 20.5288 24.9792 20.9205 24.5875C21.3122 24.1958 21.783 24 22.333 24H23.333V22C23.333 20.6167 23.8205 19.4375 24.7955 18.4625C25.7705 17.4875 26.9497 17 28.333 17C29.7163 17 30.8955 17.4875 31.8705 18.4625C32.8455 19.4375 33.333 20.6167 33.333 22V24H34.333C34.883 24 35.3538 24.1958 35.7455 24.5875C36.1372 24.9792 36.333 25.45 36.333 26V36C36.333 36.55 36.1372 37.0208 35.7455 37.4125C35.3538 37.8042 34.883 38 34.333 38H22.333ZM28.333 33C28.883 33 29.3538 32.8042 29.7455 32.4125C30.1372 32.0208 30.333 31.55 30.333 31C30.333 30.45 30.1372 29.9792 29.7455 29.5875C29.3538 29.1958 28.883 29 28.333 29C27.783 29 27.3122 29.1958 26.9205 29.5875C26.5288 29.9792 26.333 30.45 26.333 31C26.333 31.55 26.5288 32.0208 26.9205 32.4125C27.3122 32.8042 27.783 33 28.333 33ZM25.333 24H31.333V22C31.333 21.1667 31.0413 20.4583 30.458 19.875C29.8747 19.2917 29.1663 19 28.333 19C27.4997 19 26.7913 19.2917 26.208 19.875C25.6247 20.4583 25.333 21.1667 25.333 22V24Z" fill="#138A07"/>
</g>
</svg>
