<svg width="106" height="120" viewBox="0 0 106 120" fill="none" xmlns="http://www.w3.org/2000/svg">
<g id="Group 202">
<path id="Vector" d="M105.018 12.715C104.756 10.5646 103.346 8.695 101.331 7.83873C93.3886 4.48194 84.4183 3.69555 77.4843 3.38925L76.475 3.35401C70.2836 3.1378 64.369 3.49262 58.9079 4.40858C43.1049 7.0725 32.423 14.6547 28.8358 25.7485C28.3596 27.2155 28.0001 28.7827 27.7668 30.4105C27.6439 30.4864 27.5293 30.5546 27.4389 30.6156C24.0562 32.8712 20.9199 35.4161 18.1128 38.181C12.3743 43.8267 8.00343 50.266 5.11849 57.3266C-0.362441 70.7521 0.323144 85.1066 6.991 96.7109C14.0822 109.052 27.5142 117.332 41.2106 117.81L44.0941 117.911C64.8524 117.561 82.5942 101.861 85.3701 81.3884C86.798 70.8126 84.0474 59.7861 77.8141 51.124C76.1544 48.8207 74.2717 46.702 72.1894 44.7848C74.0114 44.279 75.7681 43.5785 77.4425 42.7068C84.1819 39.173 88.94 33.3567 93.1451 28.2188C93.7313 27.5095 94.3094 26.7999 94.8872 26.0984C97.6244 22.8098 100.001 20.1983 102.695 18.1512C104.375 16.8786 105.258 14.7923 105.002 12.7064L105.018 12.715Z" fill="#97C597"/>
<path id="Vector_2" d="M99.2135 12.8715C92.4249 10.0041 84.5468 9.17562 77.2525 8.84873C71.4395 8.5896 65.5689 8.83367 59.8335 9.7962C49.29 11.5772 37.6221 16.3904 34.0529 27.4287C33.6126 28.7846 33.3151 30.1856 33.1375 31.5989C33.0621 32.1496 33.1727 33.1158 32.9156 33.5879C32.6071 34.1546 31.0698 34.7745 30.4952 35.1554C27.4489 37.1902 24.5774 39.5038 21.9615 42.0748C16.9538 47.0003 12.8514 52.8716 10.194 59.3867C5.63406 70.5508 5.65883 83.3907 11.7443 93.9883C17.77 104.464 29.2259 111.921 41.4165 112.346L44.0196 112.437C62.0176 112.135 77.5445 98.5476 79.9737 80.653C81.2267 71.4103 78.849 61.8804 73.3955 54.3122C68.0339 46.8674 60.0007 41.7512 51.0826 39.6996C49.6346 39.3683 48.1519 39.1161 46.6635 39.024C46.0713 38.9873 45.3455 38.8737 44.7549 39.0215C44.2693 39.1489 43.7811 39.5809 43.3628 39.847C41.0487 41.354 38.887 43.0909 36.8647 44.969C32.3316 49.1652 28.3182 54.0933 25.5742 59.6431C25.3238 60.1556 25.9576 60.8354 26.408 60.3379C32.0369 54.159 40.7956 51.1288 49.0108 53.0998C55.9376 54.7611 61.8141 59.6336 64.7793 66.1205C67.8261 72.7948 67.4755 80.7699 63.8526 87.1471C60.4428 93.1628 54.4156 97.4271 47.6129 98.6411C39.6725 100.056 31.4093 97.161 26.0706 91.1285C20.3539 84.6657 17.8578 75.9978 19.3492 67.5093C21.7033 54.0628 31.1373 43.4057 42.12 35.9383C53.0781 28.486 65.7132 23.5302 78.5277 20.3289C68.6032 25.0506 58.5935 29.6891 49.5447 35.973C49.1502 36.2479 49.1875 36.7865 49.6379 36.9787C57.6989 40.3797 66.8289 42.1019 74.9082 37.8611C81.5006 34.4024 86.0319 28.1933 90.686 22.5979C93.3312 19.4184 96.0945 16.2991 99.4058 13.7924C99.7683 13.5164 99.5374 13.0111 99.1974 12.8709L99.2135 12.8715Z" fill="#1C0000"/>
</g>
</svg>
