<svg width="52" height="52" viewBox="0 0 52 52" fill="none" xmlns="http://www.w3.org/2000/svg">
<path d="M27.4273 49.5706C25.9538 49.6711 24.5136 49.1304 23.4694 48.064C22.8067 47.3923 22.2361 46.7143 21.7487 46.1242C21.6984 46.0653 21.6481 46.0064 21.5978 45.9475C19.5596 48.3932 17.3208 49.0291 15.7859 49.1339C14.9417 49.1915 14.088 49.1095 13.239 48.8713C12.9718 48.7961 12.7034 48.7053 12.4197 48.6155C11.9344 48.9604 11.449 49.3052 10.9791 49.649C10.2148 50.1999 9.31081 50.5109 8.37452 50.5748C6.5787 50.6974 4.87284 49.8787 3.83068 48.3913C2.2063 46.0553 2.75564 42.8073 5.06483 41.1691C5.1384 41.1173 5.21197 41.0655 5.28553 41.0137C4.98119 39.9435 4.84462 38.8463 4.89329 37.752C5.07478 34.3109 7.09708 31.1805 10.1801 29.583C11.2963 28.9925 12.4909 28.646 13.6881 28.5643C15.6834 28.4281 17.6693 29.0562 19.2973 30.3166C20.5851 31.3353 21.5113 32.7059 21.9713 34.2486C22.0173 34.2455 22.0644 34.2578 22.0962 34.2713L31.2152 7.91762C31.6656 6.60889 32.5177 5.53769 33.6254 4.82309C34.6178 2.41757 36.8359 0.801167 39.3992 0.62622C40.3048 0.564412 41.2077 0.689808 42.0763 0.988989C45.4419 2.17753 47.3109 5.83719 46.3577 9.26866C46.435 9.49717 46.5123 9.72567 46.5588 9.95627C47.3845 10.7571 48.1636 11.7793 48.5532 12.9684C49.2148 14.9805 48.9518 17.2271 47.825 19.0184C47.0666 20.3326 46.6474 21.421 46.5177 22.4584C46.4564 22.9146 46.4442 23.4142 46.4712 24.0357C46.5564 26.8664 44.4494 29.2078 41.702 29.3953C41.4104 29.4152 41.132 29.403 40.8525 29.3753L36.5561 41.8874L36.3026 42.4658L35.8447 43.2139L35.3578 43.7615L30.8379 48.0286C30.4314 48.3993 30.0186 48.6768 29.6015 48.8923C28.9638 49.2631 28.2233 49.4851 27.4405 49.5385L27.4273 49.5706Z" fill="#C0A2CA"/>
<path d="M27.1333 45.4902C26.8263 45.5112 26.5251 45.3915 26.2943 45.1735C25.7651 44.6485 25.2787 44.0739 24.824 43.5127C24.1529 42.7169 23.5659 42.0244 22.9106 41.4613C22.0924 40.7691 21.4858 40.4676 20.9793 40.5022C20.9026 40.5074 20.8105 40.5137 20.7359 40.55C20.2521 40.6921 19.7228 41.523 19.2904 42.1916C19.0396 42.5827 18.8294 42.8932 18.6172 43.1726C17.6804 44.3587 16.6298 45.0071 15.4787 45.0856C15.0796 45.1129 14.6599 45.0636 14.2513 44.9512C13.4976 44.7533 12.7312 44.3692 12.0167 43.8413C10.8877 44.6976 9.74134 45.524 8.60924 46.3337C8.44781 46.4538 8.25145 46.514 8.06726 46.5266C7.68354 46.5528 7.3321 46.3741 7.11033 46.062C6.76841 45.571 6.89066 44.8769 7.376 44.5321C8.39061 43.8083 9.4195 43.0679 10.432 42.313C9.38718 41.0128 8.84942 39.4598 8.91979 38.0056C9.02985 36.0032 10.2159 34.1767 12.0181 33.2432C12.658 32.9035 13.3084 32.7188 13.9531 32.6748C14.9815 32.6046 15.9585 32.912 16.8218 33.5855C17.6194 34.2013 18.1323 35.1637 18.1979 36.1255C18.2646 37.1029 17.846 37.973 17.4575 38.6074C16.8896 39.5501 16.1687 40.285 15.5172 40.9061C14.9668 41.4269 14.3999 41.9331 13.8156 42.4094C14.1528 42.6046 14.4857 42.7377 14.8001 42.8253C14.9885 42.8748 15.1441 42.8953 15.2976 42.8849C15.8195 42.8493 16.3498 42.4858 16.9039 41.7934C17.0601 41.5957 17.2273 41.3349 17.4088 41.0576C18.1054 39.9658 18.8447 38.8244 20.0832 38.4437C20.3246 38.3649 20.5691 38.3327 20.8147 38.3159C22.2575 38.2174 23.4907 39.1151 24.2926 39.7929C24.7181 40.1535 25.0997 40.5482 25.467 40.9596L25.1028 38.3349C25.0737 38.1343 25.0907 37.9305 25.1547 37.7391L34.9956 9.31016C35.2528 8.56009 35.9271 8.04651 36.7099 7.99309C36.7406 7.99099 36.7559 7.98994 36.7866 7.98785L37.2746 6.55187C37.6355 5.5142 38.5591 4.81217 39.6489 4.73779C40.0172 4.71265 40.3756 4.76612 40.7228 4.88268C42.1137 5.37999 42.8674 6.93383 42.3927 8.33773L41.9058 9.78922C42.1344 9.97623 42.3038 10.1984 42.4456 10.4693C42.678 10.9366 42.7151 11.4795 42.5494 11.9896L42.5515 12.0206C43.3682 12.4636 44.4564 13.4959 44.7099 14.2734C45.0016 15.1574 44.883 16.1318 44.3802 16.8986C43.3027 18.7333 42.7035 20.3483 42.5067 21.9826C42.4294 22.6581 42.4003 23.3614 42.4279 24.2167C42.4374 24.8083 42.0087 25.3051 41.4254 25.3449C40.7961 25.3879 40.3007 24.9074 40.2748 24.3013C40.2377 23.3064 40.2737 22.4779 40.36 21.7083C40.4986 20.5767 40.967 19.5317 41.4629 18.4381C41.8244 17.6342 42.2144 16.7971 42.5039 15.8422C42.6056 15.5236 42.6617 14.9899 42.5886 14.8234C42.4796 14.5815 42.1361 14.2932 41.8296 14.0959L32.7842 40.3978L32.7181 40.5582L32.5926 40.7538L32.464 40.9028L28.0748 45.0519C27.9441 45.17 27.7959 45.258 27.6609 45.314C27.5588 45.3989 27.3788 45.4735 27.164 45.4881L27.1333 45.4902ZM27.8403 42.2938L28.9698 41.2192C28.5141 41.0945 28.0562 40.9387 27.6106 40.7353L27.825 42.2948L27.8403 42.2938ZM14.087 34.8632C13.7494 34.8862 13.3863 34.9889 13.0142 35.1858C11.8826 35.7773 11.1422 36.9032 11.0713 38.1237C11.0274 39.0618 11.4053 40.0802 12.1299 40.9815C12.7867 40.4379 13.4271 39.8799 14.0204 39.3095C14.5851 38.7722 15.161 38.1719 15.5913 37.4723C15.8136 37.1143 16.0591 36.6456 16.0348 36.2888C16.0104 35.932 15.7998 35.5567 15.4901 35.3129C15.0503 34.9689 14.5935 34.8286 14.0717 34.8642L14.087 34.8632ZM27.7423 37.921C28.5717 38.5501 29.5837 38.9175 30.6338 38.9393L36.6413 21.4478L33.7969 20.4419L27.7577 37.9199L27.7423 37.921ZM37.3489 19.389L40.0126 11.6484L37.1979 10.6249L34.5199 18.3821L37.3642 19.388L37.3489 19.389ZM39.6712 9.13131L40.2608 7.37669C40.3248 7.18529 40.2332 6.97335 40.0294 6.92492L39.8738 6.90437C39.7357 6.9138 39.6182 6.99974 39.5653 7.12804L38.9603 8.8837L39.6558 9.13235L39.6712 9.13131Z" fill="black"/>
</svg>
