<svg width="49" height="52" viewBox="0 0 49 52" fill="none" xmlns="http://www.w3.org/2000/svg">
<path d="M6.75182 48.5467C3.94714 48.3013 1.48177 46.2315 0.763145 43.5222C0.081807 40.9468 1.08348 38.2737 3.3266 36.7219C8.4912 33.1469 9.72405 26.5243 10.6964 19.3316C10.5004 19.3308 10.2963 19.3293 10.1018 19.3123C9.49385 19.2591 8.89371 19.1168 8.31687 18.8948C6.57822 18.2281 5.13816 16.7625 4.46028 14.9879C3.81512 13.306 3.90315 11.4596 4.70087 9.90393C8.03885 3.40015 15.2328 3.23723 19.9966 3.12309C20.5616 3.10717 21.1178 3.09867 21.643 3.0711C27.7028 2.8008 33.9038 2.87771 40.0602 3.27747C43.7971 3.6044 46.3852 6.69786 46.1088 10.3248C45.8273 14.0085 42.749 16.7041 39.103 16.4586C38.0795 16.3936 37.0391 16.3352 35.9818 16.2836C35.5218 18.367 35.1414 20.4738 34.8524 22.5641C34.4713 25.3324 34.1677 27.6827 34.1524 29.9112C35.4624 28.0083 37.6813 26.9201 40.0807 27.13C42.1964 27.3151 44.1209 28.4718 45.2326 30.2353C46.3081 31.9467 46.5171 34.0397 45.7921 35.9775C44.9073 38.3423 41.4756 46.1039 34.3202 46.5724C33.7781 46.6066 33.2396 46.6004 32.7127 46.5543C26.8845 46.0444 23.2519 41.0708 21.9126 36.9594C21.5337 35.7827 21.2777 34.6005 21.1271 33.4275C19.3462 38.7524 16.4316 43.6841 11.1443 47.3546C9.83979 48.2615 8.3177 48.6674 6.76134 48.5312L6.75182 48.5467Z" fill="#F1A695"/>
<path d="M37.8212 33.0269C37.1809 34.7433 35.1662 38.9125 32.8025 37.9215C30.289 36.8685 29.5397 33.5766 29.449 31.159C29.3333 28.0941 29.7469 24.9529 30.1669 21.9266C30.6155 18.666 31.2566 15.4467 32.0826 12.2599C32.1568 11.9723 32.1647 11.6953 32.1299 11.439C34.559 11.4964 36.9845 11.5942 39.4044 11.7569C41.8242 11.9196 42.1621 8.15101 39.7334 7.99571C33.7723 7.60486 27.8004 7.5235 21.8385 7.79421C17.4433 7.98961 11.2482 7.4721 8.8865 12.0601C8.41444 12.9745 9.12788 14.1559 9.99684 14.4933C11.0399 14.895 11.9594 14.2811 12.4301 13.383C13.0807 12.1085 15.2564 11.9803 16.5637 11.8823C16.5602 11.9228 16.5249 11.9524 16.5213 11.9929C14.7254 21.7845 15.1604 34.2707 6.01234 40.6174C4.0125 42.0025 6.45558 44.8872 8.4385 43.5088C18.517 36.5165 18.2992 23.1345 20.2825 12.322C20.3296 12.0647 20.3089 11.8342 20.2698 11.6266C21.5993 11.5551 22.9355 11.5004 24.2622 11.4613C25.6456 11.4272 27.0402 11.4511 28.4207 11.4494C27.4138 15.3963 26.6384 19.4043 26.1615 23.4548C25.7034 27.3844 25.1382 31.6967 26.3874 35.5306C27.4438 38.7678 30.2613 42.1345 33.9991 41.8897C37.614 41.6506 40.2244 37.3947 41.3559 34.3571C42.2087 32.0794 38.6644 30.7646 37.8117 33.0424L37.8212 33.0269Z" fill="#1C0000"/>
</svg>
