<svg width="41" height="41" viewBox="0 0 41 41" fill="none" xmlns="http://www.w3.org/2000/svg">
<path d="M16.3333 17.3542H18.375C18.9535 17.3542 19.4384 17.1585 19.8297 16.7672C20.221 16.3759 20.4167 15.891 20.4167 15.3125V13.2708C20.4167 12.6924 20.221 12.2075 19.8297 11.8161C19.4384 11.4248 18.9535 11.2292 18.375 11.2292H15.3125C15.0403 11.2292 14.8021 11.3313 14.5979 11.5354C14.3938 11.7396 14.2917 11.9778 14.2917 12.25V20.4167C14.2917 20.6889 14.3938 20.9271 14.5979 21.1313C14.8021 21.3354 15.0403 21.4375 15.3125 21.4375C15.5847 21.4375 15.8229 21.3354 16.0271 21.1313C16.2313 20.9271 16.3333 20.6889 16.3333 20.4167V17.3542ZM16.3333 15.3125V13.2708H18.375V15.3125H16.3333ZM26.5417 21.4375C27.1201 21.4375 27.605 21.2418 27.9964 20.8505C28.3877 20.4592 28.5833 19.9743 28.5833 19.3958V13.2708C28.5833 12.6924 28.3877 12.2075 27.9964 11.8161C27.605 11.4248 27.1201 11.2292 26.5417 11.2292H23.4792C23.2069 11.2292 22.9688 11.3313 22.7646 11.5354C22.5604 11.7396 22.4583 11.9778 22.4583 12.25V20.4167C22.4583 20.6889 22.5604 20.9271 22.7646 21.1313C22.9688 21.3354 23.2069 21.4375 23.4792 21.4375H26.5417ZM24.5 19.3958V13.2708H26.5417V19.3958H24.5ZM32.6667 17.3542H33.6875C33.9597 17.3542 34.1979 17.2521 34.4021 17.0479C34.6063 16.8438 34.7083 16.6056 34.7083 16.3333C34.7083 16.0611 34.6063 15.8229 34.4021 15.6188C34.1979 15.4146 33.9597 15.3125 33.6875 15.3125H32.6667V13.2708H33.6875C33.9597 13.2708 34.1979 13.1688 34.4021 12.9646C34.6063 12.7604 34.7083 12.5222 34.7083 12.25C34.7083 11.9778 34.6063 11.7396 34.4021 11.5354C34.1979 11.3313 33.9597 11.2292 33.6875 11.2292H31.6458C31.3736 11.2292 31.1354 11.3313 30.9313 11.5354C30.7271 11.7396 30.625 11.9778 30.625 12.25V20.4167C30.625 20.6889 30.7271 20.9271 30.9313 21.1313C31.1354 21.3354 31.3736 21.4375 31.6458 21.4375C31.9181 21.4375 32.1563 21.3354 32.3604 21.1313C32.5646 20.9271 32.6667 20.6889 32.6667 20.4167V17.3542ZM12.25 32.6667C11.1271 32.6667 10.1658 32.2668 9.36615 31.4672C8.56649 30.6675 8.16667 29.7063 8.16667 28.5833V4.08333C8.16667 2.96042 8.56649 1.99913 9.36615 1.19948C10.1658 0.399826 11.1271 0 12.25 0H36.75C37.8729 0 38.8342 0.399826 39.6339 1.19948C40.4335 1.99913 40.8333 2.96042 40.8333 4.08333V28.5833C40.8333 29.7063 40.4335 30.6675 39.6339 31.4672C38.8342 32.2668 37.8729 32.6667 36.75 32.6667H12.25ZM4.08333 40.8333C2.96042 40.8333 1.99913 40.4335 1.19948 39.6339C0.399826 38.8342 0 37.8729 0 36.75V10.2083C0 9.62986 0.19566 9.14497 0.586979 8.75365C0.978299 8.36233 1.46319 8.16667 2.04167 8.16667C2.62014 8.16667 3.10503 8.36233 3.49635 8.75365C3.88767 9.14497 4.08333 9.62986 4.08333 10.2083V36.75H30.625C31.2035 36.75 31.6884 36.9457 32.0797 37.337C32.471 37.7283 32.6667 38.2132 32.6667 38.7917C32.6667 39.3701 32.471 39.855 32.0797 40.2464C31.6884 40.6377 31.2035 40.8333 30.625 40.8333H4.08333Z" fill="#4354A3"/>
</svg>
