<svg width="56" height="56" viewBox="0 0 56 56" fill="none" xmlns="http://www.w3.org/2000/svg">
<rect x="4" y="4" width="48" height="48" rx="24" fill="#80CB9C"/>
<rect x="4" y="4" width="48" height="48" rx="24" stroke="#D8EFE1" stroke-width="8"/>
<mask id="mask0_3314_17566" style="mask-type:alpha" maskUnits="userSpaceOnUse" x="16" y="16" width="24" height="24">
<rect x="16" y="16" width="24" height="24" fill="#D9D9D9"/>
</mask>
<g mask="url(#mask0_3314_17566)">
<path d="M21 37C20.45 37 19.9792 36.8042 19.5875 36.4125C19.1958 36.0208 19 35.55 19 35V21C19 20.45 19.1958 19.9792 19.5875 19.5875C19.9792 19.1958 20.45 19 21 19H35C35.55 19 36.0208 19.1958 36.4125 19.5875C36.8042 19.9792 37 20.45 37 21V35C37 35.55 36.8042 36.0208 36.4125 36.4125C36.0208 36.8042 35.55 37 35 37H21ZM21 35H35V23H21V35ZM28 33C26.6333 33 25.4125 32.6292 24.3375 31.8875C23.2625 31.1458 22.4833 30.1833 22 29C22.4833 27.8167 23.2625 26.8542 24.3375 26.1125C25.4125 25.3708 26.6333 25 28 25C29.3667 25 30.5875 25.3708 31.6625 26.1125C32.7375 26.8542 33.5167 27.8167 34 29C33.5167 30.1833 32.7375 31.1458 31.6625 31.8875C30.5875 32.6292 29.3667 33 28 33ZM28 30.5C27.5833 30.5 27.2292 30.3542 26.9375 30.0625C26.6458 29.7708 26.5 29.4167 26.5 29C26.5 28.5833 26.6458 28.2292 26.9375 27.9375C27.2292 27.6458 27.5833 27.5 28 27.5C28.4167 27.5 28.7708 27.6458 29.0625 27.9375C29.3542 28.2292 29.5 28.5833 29.5 29C29.5 29.4167 29.3542 29.7708 29.0625 30.0625C28.7708 30.3542 28.4167 30.5 28 30.5ZM28 31.5C28.7 31.5 29.2917 31.2583 29.775 30.775C30.2583 30.2917 30.5 29.7 30.5 29C30.5 28.3 30.2583 27.7083 29.775 27.225C29.2917 26.7417 28.7 26.5 28 26.5C27.3 26.5 26.7083 26.7417 26.225 27.225C25.7417 27.7083 25.5 28.3 25.5 29C25.5 29.7 25.7417 30.2917 26.225 30.775C26.7083 31.2583 27.3 31.5 28 31.5Z" fill="#0F2715"/>
</g>
</svg>
