<svg width="42" height="42" viewBox="0 0 42 42" fill="none" xmlns="http://www.w3.org/2000/svg">
<path d="M4.66667 42C3.38333 42 2.28472 41.5431 1.37083 40.6292C0.456944 39.7153 0 38.6167 0 37.3333V4.66667C0 3.38333 0.456944 2.28472 1.37083 1.37083C2.28472 0.456944 3.38333 0 4.66667 0H37.3333C38.6167 0 39.7153 0.456944 40.6292 1.37083C41.5431 2.28472 42 3.38333 42 4.66667V37.3333C42 38.6167 41.5431 39.7153 40.6292 40.6292C39.7153 41.5431 38.6167 42 37.3333 42H4.66667ZM4.66667 37.3333H37.3333V9.33333H4.66667V37.3333ZM21 32.6667C17.8111 32.6667 14.9625 31.8014 12.4542 30.0708C9.94583 28.3403 8.12778 26.0944 7 23.3333C8.12778 20.5722 9.94583 18.3264 12.4542 16.5958C14.9625 14.8653 17.8111 14 21 14C24.1889 14 27.0375 14.8653 29.5458 16.5958C32.0542 18.3264 33.8722 20.5722 35 23.3333C33.8722 26.0944 32.0542 28.3403 29.5458 30.0708C27.0375 31.8014 24.1889 32.6667 21 32.6667ZM21 26.8333C20.0278 26.8333 19.2014 26.4931 18.5208 25.8125C17.8403 25.1319 17.5 24.3056 17.5 23.3333C17.5 22.3611 17.8403 21.5347 18.5208 20.8542C19.2014 20.1736 20.0278 19.8333 21 19.8333C21.9722 19.8333 22.7986 20.1736 23.4792 20.8542C24.1597 21.5347 24.5 22.3611 24.5 23.3333C24.5 24.3056 24.1597 25.1319 23.4792 25.8125C22.7986 26.4931 21.9722 26.8333 21 26.8333ZM21 29.1667C22.6333 29.1667 24.0139 28.6028 25.1417 27.475C26.2694 26.3472 26.8333 24.9667 26.8333 23.3333C26.8333 21.7 26.2694 20.3194 25.1417 19.1917C24.0139 18.0639 22.6333 17.5 21 17.5C19.3667 17.5 17.9861 18.0639 16.8583 19.1917C15.7306 20.3194 15.1667 21.7 15.1667 23.3333C15.1667 24.9667 15.7306 26.3472 16.8583 27.475C17.9861 28.6028 19.3667 29.1667 21 29.1667Z" fill="#4354A3"/>
</svg>
