<svg width="50" height="42" viewBox="0 0 50 42" fill="none" xmlns="http://www.w3.org/2000/svg">
<path d="M45.0004 30.3342V16.5676L26.2171 26.7759C25.5171 27.1648 24.7782 27.3592 24.0004 27.3592C23.2226 27.3592 22.4837 27.1648 21.7837 26.7759L2.06706 16.0426C1.63928 15.8092 1.33789 15.5176 1.16289 15.1676C0.987891 14.8176 0.900391 14.4287 0.900391 14.0009C0.900391 13.5731 0.987891 13.1842 1.16289 12.8342C1.33789 12.4842 1.63928 12.1926 2.06706 11.9592L21.7837 1.22591C22.1337 1.03147 22.4934 0.885634 22.8629 0.788411C23.2323 0.691189 23.6115 0.642578 24.0004 0.642578C24.3893 0.642578 24.7684 0.691189 25.1379 0.788411C25.5073 0.885634 25.8671 1.03147 26.2171 1.22591L48.4421 13.3592C48.8309 13.5537 49.1323 13.8356 49.3462 14.2051C49.5601 14.5745 49.6671 14.9731 49.6671 15.4009V30.3342C49.6671 30.9954 49.4434 31.5495 48.9962 31.9967C48.549 32.444 47.9948 32.6676 47.3337 32.6676C46.6726 32.6676 46.1184 32.444 45.6712 31.9967C45.224 31.5495 45.0004 30.9954 45.0004 30.3342ZM21.7837 40.7759L10.1171 34.4759C9.33928 34.0481 8.7365 33.4648 8.30872 32.7259C7.88095 31.987 7.66706 31.1898 7.66706 30.3342V21.4676L21.7837 29.1092C22.4837 29.4981 23.2226 29.6926 24.0004 29.6926C24.7782 29.6926 25.5171 29.4981 26.2171 29.1092L40.3337 21.4676V30.3342C40.3337 31.1898 40.1198 31.987 39.6921 32.7259C39.2643 33.4648 38.6615 34.0481 37.8837 34.4759L26.2171 40.7759C25.8671 40.9704 25.5073 41.1162 25.1379 41.2134C24.7684 41.3106 24.3893 41.3592 24.0004 41.3592C23.6115 41.3592 23.2323 41.3106 22.8629 41.2134C22.4934 41.1162 22.1337 40.9704 21.7837 40.7759Z" fill="#4354A3"/>
</svg>
