<svg width="56" height="56" viewBox="0 0 56 56" fill="none" xmlns="http://www.w3.org/2000/svg">
<rect x="4" y="4" width="48" height="48" rx="24" fill="#BBDBB8"/>
<rect x="4" y="4" width="48" height="48" rx="24" stroke="#EBF6EA" stroke-width="8"/>
<mask id="mask0_1294_25825" style="mask-type:alpha" maskUnits="userSpaceOnUse" x="16" y="16" width="24" height="24">
<rect x="16" y="16" width="24" height="24" fill="#D9D9D9"/>
</mask>
<g mask="url(#mask0_1294_25825)">
<path d="M36.9996 31.9999V26.0999L28.9496 30.4749C28.6496 30.6416 28.3329 30.7249 27.9996 30.7249C27.6663 30.7249 27.3496 30.6416 27.0496 30.4749L18.5996 25.8749C18.4163 25.7749 18.2871 25.6499 18.2121 25.4999C18.1371 25.3499 18.0996 25.1832 18.0996 24.9999C18.0996 24.8166 18.1371 24.6499 18.2121 24.4999C18.2871 24.3499 18.4163 24.2249 18.5996 24.1249L27.0496 19.5249C27.1996 19.4416 27.3538 19.3791 27.5121 19.3374C27.6704 19.2957 27.8329 19.2749 27.9996 19.2749C28.1663 19.2749 28.3288 19.2957 28.4871 19.3374C28.6454 19.3791 28.7996 19.4416 28.9496 19.5249L38.4746 24.7249C38.6413 24.8082 38.7704 24.9291 38.8621 25.0874C38.9538 25.2457 38.9996 25.4166 38.9996 25.5999V31.9999C38.9996 32.2832 38.9038 32.5207 38.7121 32.7124C38.5204 32.9041 38.2829 32.9999 37.9996 32.9999C37.7163 32.9999 37.4788 32.9041 37.2871 32.7124C37.0954 32.5207 36.9996 32.2832 36.9996 31.9999ZM27.0496 36.4749L22.0496 33.7749C21.7163 33.5916 21.4579 33.3416 21.2746 33.0249C21.0913 32.7082 20.9996 32.3666 20.9996 31.9999V28.1999L27.0496 31.4749C27.3496 31.6416 27.6663 31.7249 27.9996 31.7249C28.3329 31.7249 28.6496 31.6416 28.9496 31.4749L34.9996 28.1999V31.9999C34.9996 32.3666 34.9079 32.7082 34.7246 33.0249C34.5413 33.3416 34.2829 33.5916 33.9496 33.7749L28.9496 36.4749C28.7996 36.5582 28.6454 36.6207 28.4871 36.6624C28.3288 36.7041 28.1663 36.7249 27.9996 36.7249C27.8329 36.7249 27.6704 36.7041 27.5121 36.6624C27.3538 36.6207 27.1996 36.5582 27.0496 36.4749Z" fill="#138A07"/>
</g>
</svg>
