<svg width="56" height="56" viewBox="0 0 56 56" fill="none" xmlns="http://www.w3.org/2000/svg">
<rect x="4" y="4" width="48" height="48" rx="24" fill="#80CB9C"/>
<rect x="4" y="4" width="48" height="48" rx="24" stroke="#D8EFE1" stroke-width="8"/>
<mask id="mask0_3314_17585" style="mask-type:alpha" maskUnits="userSpaceOnUse" x="16" y="16" width="24" height="24">
<rect x="16" y="16" width="24" height="24" fill="#D9D9D9"/>
</mask>
<g mask="url(#mask0_3314_17585)">
<path d="M36.9996 32.0004V26.1004L28.9496 30.4754C28.6496 30.6421 28.3329 30.7254 27.9996 30.7254C27.6663 30.7254 27.3496 30.6421 27.0496 30.4754L18.5996 25.8754C18.4163 25.7754 18.2871 25.6504 18.2121 25.5004C18.1371 25.3504 18.0996 25.1837 18.0996 25.0004C18.0996 24.8171 18.1371 24.6504 18.2121 24.5004C18.2871 24.3504 18.4163 24.2254 18.5996 24.1254L27.0496 19.5254C27.1996 19.4421 27.3538 19.3796 27.5121 19.3379C27.6704 19.2962 27.8329 19.2754 27.9996 19.2754C28.1663 19.2754 28.3288 19.2962 28.4871 19.3379C28.6454 19.3796 28.7996 19.4421 28.9496 19.5254L38.4746 24.7254C38.6413 24.8087 38.7704 24.9296 38.8621 25.0879C38.9538 25.2462 38.9996 25.4171 38.9996 25.6004V32.0004C38.9996 32.2837 38.9038 32.5212 38.7121 32.7129C38.5204 32.9046 38.2829 33.0004 37.9996 33.0004C37.7163 33.0004 37.4788 32.9046 37.2871 32.7129C37.0954 32.5212 36.9996 32.2837 36.9996 32.0004ZM27.0496 36.4754L22.0496 33.7754C21.7163 33.5921 21.4579 33.3421 21.2746 33.0254C21.0913 32.7087 20.9996 32.3671 20.9996 32.0004V28.2004L27.0496 31.4754C27.3496 31.6421 27.6663 31.7254 27.9996 31.7254C28.3329 31.7254 28.6496 31.6421 28.9496 31.4754L34.9996 28.2004V32.0004C34.9996 32.3671 34.9079 32.7087 34.7246 33.0254C34.5413 33.3421 34.2829 33.5921 33.9496 33.7754L28.9496 36.4754C28.7996 36.5587 28.6454 36.6212 28.4871 36.6629C28.3288 36.7046 28.1663 36.7254 27.9996 36.7254C27.8329 36.7254 27.6704 36.7046 27.5121 36.6629C27.3538 36.6212 27.1996 36.5587 27.0496 36.4754Z" fill="#0F2715"/>
</g>
</svg>
