<svg width="56" height="56" viewBox="0 0 56 56" fill="none" xmlns="http://www.w3.org/2000/svg">
<rect x="4" y="4" width="48" height="48" rx="24" fill="#BBDBB8"/>
<rect x="4" y="4" width="48" height="48" rx="24" stroke="#EBF6EA" stroke-width="8"/>
<mask id="mask0_1238_23659" style="mask-type:alpha" maskUnits="userSpaceOnUse" x="16" y="16" width="25" height="25">
<rect x="16.1758" y="16.0029" width="24" height="24" fill="#D9D9D9"/>
</mask>
<g mask="url(#mask0_1238_23659)">
<path d="M26.8758 31.5029L27.0258 32.2279C27.0758 32.4613 27.1883 32.6488 27.3633 32.7904C27.5383 32.9321 27.7424 33.0029 27.9758 33.0029H28.3758C28.6091 33.0029 28.8133 32.9279 28.9883 32.7779C29.1633 32.6279 29.2758 32.4363 29.3258 32.2029L29.4758 31.5029C29.6758 31.4196 29.8633 31.3321 30.0383 31.2404C30.2133 31.1488 30.3924 31.0363 30.5758 30.9029L31.3008 31.1279C31.5174 31.1946 31.7299 31.1863 31.9383 31.1029C32.1466 31.0196 32.3091 30.8863 32.4258 30.7029L32.6258 30.3529C32.7424 30.1529 32.7841 29.9363 32.7508 29.7029C32.7174 29.4696 32.6091 29.2779 32.4258 29.1279L31.8758 28.6529C31.9091 28.4196 31.9258 28.2029 31.9258 28.0029C31.9258 27.8029 31.9091 27.5863 31.8758 27.3529L32.4258 26.8779C32.6091 26.7279 32.7174 26.5404 32.7508 26.3154C32.7841 26.0904 32.7424 25.8779 32.6258 25.6779L32.4008 25.3029C32.2841 25.1196 32.1258 24.9863 31.9258 24.9029C31.7258 24.8196 31.5174 24.8113 31.3008 24.8779L30.5758 25.1029C30.3924 24.9696 30.2133 24.8571 30.0383 24.7654C29.8633 24.6738 29.6758 24.5863 29.4758 24.5029L29.3258 23.7779C29.2758 23.5446 29.1633 23.3571 28.9883 23.2154C28.8133 23.0738 28.6091 23.0029 28.3758 23.0029H27.9758C27.7424 23.0029 27.5383 23.0779 27.3633 23.2279C27.1883 23.3779 27.0758 23.5696 27.0258 23.8029L26.8758 24.5029C26.6758 24.5863 26.4883 24.6738 26.3133 24.7654C26.1383 24.8571 25.9591 24.9696 25.7758 25.1029L25.0508 24.8779C24.8341 24.8113 24.6216 24.8196 24.4133 24.9029C24.2049 24.9863 24.0424 25.1196 23.9258 25.3029L23.7258 25.6529C23.6091 25.8529 23.5674 26.0696 23.6008 26.3029C23.6341 26.5363 23.7424 26.7279 23.9258 26.8779L24.4758 27.3529C24.4424 27.5863 24.4258 27.8029 24.4258 28.0029C24.4258 28.2029 24.4424 28.4196 24.4758 28.6529L23.9258 29.1279C23.7424 29.2779 23.6341 29.4654 23.6008 29.6904C23.5674 29.9154 23.6091 30.1279 23.7258 30.3279L23.9508 30.7029C24.0674 30.8863 24.2258 31.0196 24.4258 31.1029C24.6258 31.1863 24.8341 31.1946 25.0508 31.1279L25.7758 30.9029C25.9591 31.0363 26.1383 31.1488 26.3133 31.2404C26.4883 31.3321 26.6758 31.4196 26.8758 31.5029ZM28.1758 30.0029C27.6258 30.0029 27.1549 29.8071 26.7633 29.4154C26.3716 29.0238 26.1758 28.5529 26.1758 28.0029C26.1758 27.4529 26.3716 26.9821 26.7633 26.5904C27.1549 26.1988 27.6258 26.0029 28.1758 26.0029C28.7258 26.0029 29.1966 26.1988 29.5883 26.5904C29.9799 26.9821 30.1758 27.4529 30.1758 28.0029C30.1758 28.5529 29.9799 29.0238 29.5883 29.4154C29.1966 29.8071 28.7258 30.0029 28.1758 30.0029ZM21.1758 37.0029C20.6258 37.0029 20.1549 36.8071 19.7633 36.4154C19.3716 36.0238 19.1758 35.5529 19.1758 35.0029V21.0029C19.1758 20.4529 19.3716 19.9821 19.7633 19.5904C20.1549 19.1988 20.6258 19.0029 21.1758 19.0029H35.1758C35.7258 19.0029 36.1966 19.1988 36.5883 19.5904C36.9799 19.9821 37.1758 20.4529 37.1758 21.0029V35.0029C37.1758 35.5529 36.9799 36.0238 36.5883 36.4154C36.1966 36.8071 35.7258 37.0029 35.1758 37.0029H21.1758Z" fill="#138A07"/>
</g>
</svg>
