<svg width="56" height="57" viewBox="0 0 56 57" fill="none" xmlns="http://www.w3.org/2000/svg">
<rect x="4" y="4.31592" width="48" height="48" rx="24" fill="#BBDBB8"/>
<rect x="4" y="4.31592" width="48" height="48" rx="24" stroke="#EBF6EA" stroke-width="8"/>
<mask id="mask0_1294_25626" style="mask-type:alpha" maskUnits="userSpaceOnUse" x="16" y="16" width="24" height="24">
<rect x="16" y="16" width="24" height="24" fill="#D9D9D9"/>
</mask>
<g mask="url(#mask0_1294_25626)">
<path d="M28 35.8999C29.6167 35.3999 30.9667 34.4124 32.05 32.9374C33.1333 31.4624 33.7667 29.8166 33.95 27.9999H28V20.1249L22 22.3749V27.5499C22 27.6666 22.0167 27.8166 22.05 27.9999H28V35.8999ZM28 37.8999C27.8833 37.8999 27.775 37.8916 27.675 37.8749C27.575 37.8582 27.475 37.8332 27.375 37.7999C25.125 37.0499 23.3333 35.6624 22 33.6374C20.6667 31.6124 20 29.4332 20 27.0999V22.3749C20 21.9582 20.1208 21.5832 20.3625 21.2499C20.6042 20.9166 20.9167 20.6749 21.3 20.5249L27.3 18.2749C27.5333 18.1916 27.7667 18.1499 28 18.1499C28.2333 18.1499 28.4667 18.1916 28.7 18.2749L34.7 20.5249C35.0833 20.6749 35.3958 20.9166 35.6375 21.2499C35.8792 21.5832 36 21.9582 36 22.3749V27.0999C36 29.4332 35.3333 31.6124 34 33.6374C32.6667 35.6624 30.875 37.0499 28.625 37.7999C28.525 37.8332 28.425 37.8582 28.325 37.8749C28.225 37.8916 28.1167 37.8999 28 37.8999Z" fill="#138A07"/>
</g>
</svg>
