<svg width="56" height="57" viewBox="0 0 56 57" fill="none" xmlns="http://www.w3.org/2000/svg">
<rect x="4" y="4.92578" width="48" height="48" rx="24" fill="#80CB9C"/>
<rect x="4" y="4.92578" width="48" height="48" rx="24" stroke="#D8EFE1" stroke-width="8"/>
<mask id="mask0_3314_12534" style="mask-type:alpha" maskUnits="userSpaceOnUse" x="16" y="16" width="24" height="25">
<rect x="16" y="16.6094" width="24" height="24" fill="#D9D9D9"/>
</mask>
<g mask="url(#mask0_3314_12534)">
<path d="M28 36.5098C29.6167 36.0098 30.9667 35.0223 32.05 33.5473C33.1333 32.0723 33.7667 30.4264 33.95 28.6098H28V20.7348L22 22.9848V28.1598C22 28.2764 22.0167 28.4264 22.05 28.6098H28V36.5098ZM28 38.5098C27.8833 38.5098 27.775 38.5014 27.675 38.4848C27.575 38.4681 27.475 38.4431 27.375 38.4098C25.125 37.6598 23.3333 36.2723 22 34.2473C20.6667 32.2223 20 30.0431 20 27.7098V22.9848C20 22.5681 20.1208 22.1931 20.3625 21.8598C20.6042 21.5264 20.9167 21.2848 21.3 21.1348L27.3 18.8848C27.5333 18.8014 27.7667 18.7598 28 18.7598C28.2333 18.7598 28.4667 18.8014 28.7 18.8848L34.7 21.1348C35.0833 21.2848 35.3958 21.5264 35.6375 21.8598C35.8792 22.1931 36 22.5681 36 22.9848V27.7098C36 30.0431 35.3333 32.2223 34 34.2473C32.6667 36.2723 30.875 37.6598 28.625 38.4098C28.525 38.4431 28.425 38.4681 28.325 38.4848C28.225 38.5014 28.1167 38.5098 28 38.5098Z" fill="#0F2715"/>
</g>
</svg>
