<svg width="187" height="164" viewBox="0 0 187 164" fill="none" xmlns="http://www.w3.org/2000/svg">
<rect x="4.33594" width="161" height="51" rx="10" transform="rotate(4.87582 4.33594 0)" fill="#F1A695"/>
<path d="M21.1554 40.3857C19.912 40.2796 18.9454 39.884 18.2558 39.1989C17.582 38.5326 17.3026 37.5258 17.4175 36.1787C17.4735 35.5225 17.5667 34.9389 17.6973 34.4282C17.8466 33.9016 17.9902 33.3398 18.1281 32.7427C18.2833 32.1471 18.397 31.4261 18.4692 30.5799C18.5325 29.8372 18.384 29.2331 18.0236 28.7674C17.682 28.286 17.0708 28.0077 16.19 27.9326L14.9724 27.8287L15.1359 25.9117L16.3535 26.0155C17.2343 26.0907 17.8831 25.9286 18.2999 25.5292C18.7354 25.114 18.9848 24.5352 19.0482 23.7925C19.1218 22.929 19.1319 22.1992 19.0784 21.6032C19.0436 20.9913 18.9965 20.4219 18.9371 19.895C18.8964 19.3522 18.904 18.7527 18.96 18.0964C19.0749 16.7493 19.5208 15.8045 20.2978 15.2619C21.0935 14.7035 22.113 14.4773 23.3565 14.5834L25.8435 14.7955L25.68 16.7126L23.4261 16.5203C22.718 16.4599 22.1593 16.5862 21.7499 16.8992C21.3419 17.1949 21.1048 17.7314 21.0385 18.5086C20.9796 19.1994 20.9712 19.8075 21.0133 20.333C21.0742 20.8427 21.125 21.3689 21.1657 21.9117C21.2251 22.4387 21.2232 23.0735 21.1598 23.8161C21.0817 24.7314 20.8183 25.4744 20.3695 26.045C19.9222 26.5983 19.3695 26.96 18.7113 27.13L18.7025 27.2336C19.3223 27.5126 19.8051 27.9713 20.1507 28.6097C20.4979 29.2308 20.6324 29.999 20.5543 30.9143C20.491 31.6569 20.3846 32.2915 20.2353 32.8181C20.1048 33.3288 19.9656 33.8389 19.8178 34.3481C19.6887 34.8416 19.5947 35.4338 19.5358 36.1246C19.4695 36.9018 19.6123 37.4706 19.9643 37.8312C20.3147 38.209 20.844 38.4281 21.5521 38.4885L23.806 38.6808L23.6424 40.5978L21.1554 40.3857ZM34.8174 37.0368C33.1767 36.8968 31.8792 36.4034 30.9251 35.5566C29.9897 34.694 29.519 33.5839 29.513 32.2265L31.7668 32.4188C31.8101 33.1357 32.1061 33.7437 32.655 34.2429C33.2212 34.7435 34.0138 35.0372 35.0327 35.1242C35.9999 35.2067 36.7343 35.0606 37.2359 34.6858C37.7549 34.3126 38.0372 33.8583 38.0829 33.3229C38.1447 32.5975 37.9018 32.081 37.3539 31.7733C36.8076 31.4484 35.9704 31.1682 34.8423 30.9328C33.4912 30.661 32.3916 30.1932 31.5436 29.5293C30.6957 28.8655 30.3218 27.9464 30.4219 26.772C30.5118 25.7185 31.0266 24.8839 31.9663 24.2682C32.9061 23.6526 34.1358 23.4095 35.6557 23.5392C37.1582 23.6674 38.3118 24.1137 39.1164 24.8782C39.9224 25.6254 40.3322 26.6345 40.3455 27.9056L38.1953 27.7222C38.1965 27.096 37.9363 26.578 37.4146 26.1682C36.9116 25.7426 36.2542 25.4951 35.4425 25.4259C34.5963 25.3537 33.926 25.4618 33.4317 25.7501C32.9389 26.0212 32.6703 26.4158 32.6261 26.934C32.582 27.4521 32.8042 27.9059 33.2928 28.2956C33.8002 28.6694 34.6194 28.9567 35.7505 29.1576C36.6397 29.3378 37.4453 29.5805 38.1673 29.8856C38.8893 30.1908 39.4441 30.6208 39.8317 31.1758C40.2365 31.7322 40.3992 32.4767 40.3196 33.4093C40.2706 34.188 39.995 34.869 39.493 35.4524C39.0096 36.0201 38.3639 36.4521 37.5558 36.7485C36.7491 37.0276 35.8363 37.1237 34.8174 37.0368ZM43.4345 37.4587L44.5307 24.6094L46.3182 24.7619L46.4231 26.2843L46.5527 26.2954C46.8214 25.7964 47.195 25.3934 47.6735 25.0862C48.1693 24.7806 48.7453 24.6558 49.4016 24.7118C50.0579 24.7678 50.5965 24.979 51.0176 25.3454C51.4574 25.6961 51.7566 26.1652 51.9152 26.7528L52.0188 26.7616C52.2875 26.2627 52.687 25.8619 53.2174 25.5592C53.7477 25.2565 54.3669 25.1353 55.075 25.1957C56.0594 25.2797 56.7647 25.6791 57.1908 26.3939C57.6357 27.0929 57.8109 27.9951 57.7166 29.1004L56.9056 38.6079L54.7813 38.4267L55.5636 29.256C55.6167 28.6342 55.5291 28.131 55.301 27.7462C55.0902 27.3629 54.7084 27.1477 54.1557 27.1005C53.5858 27.0519 53.1011 27.228 52.7016 27.6288C52.3021 28.0296 52.0684 28.6273 52.0007 29.4217L51.2581 38.1261L49.1079 37.9427L49.8902 28.772C49.9433 28.1503 49.8644 27.6477 49.6535 27.2644C49.4427 26.8811 49.0609 26.6659 48.5083 26.6187C47.9383 26.5701 47.445 26.7455 47.0282 27.1449C46.6287 27.5457 46.395 28.1433 46.3273 28.9378L45.5847 37.6421L43.4345 37.4587ZM64.6667 39.5831C63.6477 39.4961 62.8169 39.2426 62.1743 38.8225C61.5317 38.4023 61.0713 37.8847 60.7933 37.2695C60.5167 36.637 60.4086 35.9667 60.469 35.2586C60.581 33.9461 61.1406 32.9935 62.148 32.401C63.1741 31.7927 64.4902 31.557 66.0964 31.694L69.6196 31.9946L69.6417 31.7355C69.8332 29.4903 68.9014 28.2801 66.8462 28.1048C66.0172 28.0341 65.3022 28.1557 64.7014 28.4698C64.1178 28.7853 63.7151 29.3251 63.4934 30.089L61.2655 29.8989C61.4255 29.0428 61.7738 28.3244 62.3104 27.744C62.8643 27.1649 63.5438 26.7445 64.349 26.4827C65.1542 26.2208 66.0403 26.1311 67.0075 26.2136C68.8382 26.3698 70.1267 26.9668 70.8732 28.0047C71.6385 29.0268 71.9533 30.3323 71.8178 31.9212L71.1437 39.8225L69.2785 39.6633L69.2673 37.6531L69.086 37.6377C68.653 38.227 68.0971 38.7275 67.4183 39.1393C66.7583 39.5353 65.8411 39.6832 64.6667 39.5831ZM65.2188 37.6992C66.0478 37.7699 66.7642 37.6309 67.368 37.2823C67.9891 36.9352 68.4744 36.446 68.824 35.8148C69.1908 35.185 69.4074 34.4816 69.4737 33.7044L66.1319 33.4193C64.9575 33.3191 64.1115 33.447 63.5941 33.803C63.0939 34.1604 62.8158 34.6673 62.7598 35.3236C62.7023 35.9971 62.8819 36.543 63.2985 36.9613C63.7152 37.3796 64.3552 37.6255 65.2188 37.6992ZM75.719 40.2128L75.8781 38.3475L79.1681 38.6282L79.8908 30.157C79.9276 29.7252 79.7388 29.4916 79.3243 29.4563L76.9927 29.2574L77.1519 27.3921L80.2865 27.6595C80.8564 27.7082 81.3008 27.9026 81.6197 28.243C81.9386 28.5833 82.0723 29.0557 82.0207 29.6602L81.9743 30.2042L82.0779 30.2131C82.3588 29.3672 82.8041 28.7354 83.4138 28.3177C84.0408 27.9015 84.8724 27.7376 85.9087 27.826L88.2661 28.0271L88.0694 30.3327L85.4011 30.1051C84.3476 30.0153 83.5057 30.3001 82.8754 30.9595C82.2465 31.6017 81.8857 32.4669 81.7928 33.5549L81.3442 38.8138L85.3856 39.1586L85.2264 41.0238L75.719 40.2128ZM98.1952 42.1301C97.0208 42.0299 96.1211 41.6661 95.4962 41.0387C94.8712 40.4113 94.6221 39.355 94.7488 37.8697L95.3499 30.8233L92.0858 30.5449L92.2449 28.6797L94.1878 28.8454C95.0686 28.9205 95.6149 28.5322 95.8268 27.6805L96.3596 25.7167L97.9658 25.8537L97.6851 29.1437L102.815 29.5813L102.655 31.4465L97.526 31.009L96.9249 38.0554C96.863 38.7807 96.9837 39.3042 97.2868 39.6258C97.6071 39.9489 98.1818 40.1458 99.0108 40.2165L101.886 40.4618L101.718 42.4306L98.1952 42.1301ZM112.485 43.6622C111.276 43.559 110.228 43.1914 109.343 42.5592C108.476 41.9111 107.818 41.0635 107.368 40.0161C106.919 38.9514 106.753 37.7456 106.868 36.3985C106.982 35.0514 107.342 33.8991 107.945 32.9416C108.568 31.9683 109.369 31.2451 110.348 30.772C111.33 30.2816 112.442 30.0894 113.685 30.1955C114.929 30.3016 115.967 30.6772 116.799 31.3222C117.633 31.95 118.244 32.7415 118.632 33.6966C119.02 34.6517 119.169 35.656 119.079 36.7095C119.063 36.8995 119.038 37.0888 119.005 37.2773C118.989 37.4672 118.97 37.6831 118.95 37.9249L108.976 37.0741C108.947 38.0284 109.095 38.8413 109.42 39.5127C109.764 40.1683 110.217 40.6766 110.777 41.0376C111.355 41.4 111.981 41.61 112.655 41.6674C113.605 41.7484 114.364 41.6132 114.933 41.2616C115.503 40.9101 115.956 40.392 116.292 39.7075L118.443 39.8909C118.047 41.0576 117.348 42.0156 116.345 42.765C115.343 43.4972 114.056 43.7962 112.485 43.6622ZM113.468 32.134C112.466 32.0486 111.56 32.2757 110.748 32.8153C109.954 33.3565 109.424 34.1637 109.159 35.237L116.982 35.9044C117.004 34.8277 116.687 33.9569 116.031 33.2921C115.393 32.6114 114.539 32.2254 113.468 32.134ZM122.319 44.188L122.478 42.3228L125.768 42.6034L126.491 34.1322C126.528 33.7004 126.339 33.4669 125.925 33.4315L123.593 33.2326L123.752 31.3674L126.887 31.6348C127.457 31.6834 127.901 31.8779 128.22 32.2182C128.539 32.5586 128.673 33.031 128.621 33.6354L128.575 34.1795L128.678 34.1883C128.959 33.3424 129.404 32.7107 130.014 32.293C130.641 31.8768 131.473 31.7129 132.509 31.8013L134.866 32.0024L134.67 34.308L132.001 34.0804C130.948 33.9905 130.106 34.2753 129.476 34.9348C128.847 35.577 128.486 36.4421 128.393 37.5302L127.945 42.7891L131.986 43.1338L131.827 44.999L122.319 44.188ZM138.169 50.3675L138.333 48.4505L140.587 48.6428C141.295 48.7032 141.853 48.5769 142.263 48.2639C142.671 47.9681 142.908 47.4317 142.974 46.6545C143.033 45.9637 143.032 45.3634 142.971 44.8537C142.929 44.3283 142.878 43.802 142.819 43.2751C142.778 42.7323 142.79 42.0896 142.853 41.347C142.931 40.4317 143.194 39.6973 143.641 39.144C144.09 38.5734 144.643 38.2031 145.301 38.0331L145.31 37.9295C144.69 37.6505 144.207 37.2004 143.86 36.5793C143.514 35.941 143.38 35.1641 143.458 34.2488C143.522 33.5061 143.619 32.8794 143.749 32.3687C143.899 31.8421 144.038 31.3321 144.167 30.8386C144.315 30.3294 144.418 29.7293 144.477 29.0385C144.543 28.2613 144.4 27.6925 144.048 27.3319C143.698 26.9541 143.169 26.735 142.461 26.6746L140.207 26.4823L140.37 24.5653L142.857 24.7774C144.101 24.8835 145.059 25.2783 145.731 25.9619C146.422 26.6298 146.71 27.6372 146.595 28.9843C146.539 29.6406 146.437 30.232 146.287 30.7586C146.157 31.2693 146.014 31.8225 145.859 32.4182C145.722 32.998 145.617 33.7197 145.544 34.5832C145.48 35.3258 145.619 35.9379 145.961 36.4193C146.321 36.885 146.942 37.1554 147.823 37.2305L149.04 37.3344L148.877 39.2514L147.659 39.1476C146.778 39.0724 146.12 39.2424 145.685 39.6576C145.268 40.0569 145.028 40.6279 144.965 41.3706C144.892 42.2168 144.874 42.9459 144.908 43.5577C144.96 44.171 145.007 44.7491 145.048 45.2918C145.107 45.8188 145.109 46.4104 145.053 47.0667C144.938 48.4138 144.483 49.3579 143.689 49.899C142.911 50.4589 141.9 50.6858 140.656 50.5797L138.169 50.3675Z" fill="black"/>
<g clip-path="url(#clip0_2675_51298)">
<rect x="5.89062" y="112.889" width="176" height="51" rx="10" transform="rotate(-5.83661 5.89062 112.889)" fill="#B199C8"/>
<path d="M29.921 149.443C28.6795 149.57 27.6562 149.361 26.8513 148.816C26.0654 148.287 25.6037 147.349 25.4662 146.004C25.3992 145.349 25.3824 144.759 25.4157 144.232C25.4645 143.687 25.5012 143.109 25.5257 142.496C25.5675 141.882 25.5452 141.153 25.4588 140.308C25.383 139.566 25.1248 139 24.6841 138.61C24.259 138.2 23.6067 138.04 22.7272 138.13L21.5116 138.254L21.3159 136.34L22.5316 136.216C23.411 136.126 24.0184 135.846 24.3536 135.377C24.7044 134.888 24.8419 134.272 24.7661 133.531C24.678 132.669 24.5522 131.95 24.3888 131.374C24.2409 130.78 24.0888 130.229 23.9325 129.722C23.7916 129.196 23.6877 128.606 23.6207 127.951C23.4832 126.606 23.7457 125.594 24.4083 124.917C25.0863 124.22 26.046 123.808 27.2876 123.682L29.7706 123.428L29.9663 125.342L27.716 125.572C27.009 125.644 26.4835 125.872 26.1394 126.256C25.7935 126.622 25.6602 127.193 25.7396 127.969C25.8101 128.659 25.9149 129.258 26.054 129.767C26.2086 130.256 26.3563 130.764 26.4971 131.289C26.6535 131.796 26.7695 132.42 26.8453 133.162C26.9388 134.076 26.818 134.855 26.4831 135.499C26.1464 136.125 25.6706 136.584 25.0555 136.873L25.066 136.976C25.727 137.135 26.2866 137.496 26.7449 138.059C27.2014 138.605 27.4764 139.335 27.5698 140.249C27.6456 140.99 27.6591 141.634 27.6103 142.179C27.5769 142.705 27.535 143.232 27.4844 143.76C27.4493 144.269 27.467 144.868 27.5375 145.558C27.6168 146.334 27.8629 146.866 28.2757 147.155C28.6903 147.461 29.2511 147.578 29.9581 147.505L32.2084 147.275L32.404 149.189L29.921 149.443ZM43.9063 143.179C42.7337 143.299 41.7821 143.108 41.0514 142.608C40.3208 142.108 39.8796 141.116 39.7281 139.633L39.0089 132.598L35.7499 132.931L35.5595 131.069L37.4994 130.87C38.3788 130.78 38.8434 130.297 38.8932 129.421L39.0518 127.392L40.6554 127.229L40.9912 130.513L46.1125 129.99L46.3029 131.852L41.1816 132.376L41.9007 139.411C41.9748 140.135 42.1906 140.627 42.5482 140.887C42.923 141.145 43.5243 141.231 44.352 141.147L47.223 140.853L47.4239 142.819L43.9063 143.179ZM58.102 142.041C56.895 142.165 55.7977 141.998 54.8101 141.541C53.8226 141.085 53.0104 140.384 52.3736 139.438C51.7351 138.475 51.3462 137.313 51.2069 135.951C51.0677 134.589 51.2142 133.38 51.6465 132.325C52.0771 131.253 52.7297 130.394 53.6045 129.747C54.4792 129.1 55.5201 128.715 56.7271 128.591C57.9342 128.468 59.0315 128.634 60.019 129.091C61.0066 129.548 61.8196 130.257 62.4582 131.22C63.095 132.166 63.483 133.319 63.6222 134.682C63.7615 136.044 63.6158 137.261 63.1853 138.333C62.753 139.388 62.0994 140.239 61.2247 140.886C60.35 141.533 59.3091 141.918 58.102 142.041ZM57.8905 139.972C58.632 139.896 59.2877 139.664 59.8578 139.274C60.4278 138.885 60.85 138.328 61.1243 137.603C61.416 136.876 61.5071 135.978 61.3978 134.909C61.2885 133.84 61.0176 132.979 60.585 132.326C60.1696 131.672 59.6434 131.212 59.0064 130.946C58.3694 130.68 57.6801 130.585 56.9387 130.66C56.2144 130.734 55.5673 130.966 54.9973 131.355C54.4273 131.745 53.9964 132.303 53.7048 133.03C53.4132 133.756 53.3221 134.654 53.4313 135.723C53.5953 137.327 54.104 138.469 54.9575 139.148C55.8093 139.81 56.7869 140.085 57.8905 139.972ZM72.9605 136.393C72.0638 136.485 71.2453 136.403 70.5048 136.147L69.7338 137.298C69.5706 137.576 69.5453 137.84 69.6579 138.09C69.7861 138.32 70.0484 138.416 70.445 138.375L73.8334 138.029C75.368 137.872 76.6404 138.047 77.6505 138.553C78.6588 139.042 79.2291 139.934 79.3613 141.227C79.4406 142.003 79.3155 142.739 78.9858 143.435C78.6562 144.13 78.0806 144.721 77.259 145.205C76.4563 145.706 75.3653 146.026 73.9858 146.167C72.1925 146.351 70.7183 146.162 69.5632 145.6C68.4081 145.039 67.7601 144.068 67.6191 142.689C67.5679 142.189 67.6411 141.711 67.8384 141.255C68.0547 140.815 68.3358 140.411 68.6817 140.045C68.1499 139.786 67.792 139.352 67.6078 138.743C67.4409 138.133 67.568 137.502 67.9891 136.849L69.005 135.281C68.0892 134.504 67.5669 133.486 67.4382 132.227C67.3536 131.399 67.4735 130.612 67.7978 129.864C68.1204 129.099 68.6304 128.463 69.3278 127.957C70.0424 127.448 70.9343 127.139 72.0034 127.03C72.6931 126.959 73.3417 126.997 73.9491 127.144L78.7601 126.653L78.9266 128.282L76.5291 128.606L76.5476 128.787C77.0717 129.482 77.3805 130.287 77.4739 131.201C77.5585 132.029 77.4396 132.825 77.117 133.59C76.8099 134.335 76.299 134.963 75.5844 135.471C74.887 135.978 74.0124 136.285 72.9605 136.393ZM72.7701 134.531C73.6151 134.444 74.2793 134.124 74.7627 133.569C75.2634 133.013 75.4687 132.295 75.3789 131.415C75.289 130.536 74.9434 129.883 74.3423 129.456C73.7566 129.011 73.0413 128.831 72.1964 128.918C71.3342 129.006 70.6528 129.328 70.1521 129.885C69.6497 130.424 69.4434 131.133 69.5333 132.013C69.6232 132.892 69.9696 133.554 70.5725 133.997C71.1754 134.441 71.908 134.619 72.7701 134.531ZM69.7579 142.392C69.8355 143.15 70.2472 143.683 70.9929 143.99C71.7387 144.297 72.672 144.394 73.7928 144.279C74.8791 144.168 75.7365 143.863 76.3649 143.363C77.0106 142.861 77.2964 142.248 77.2224 141.524C77.1642 140.955 76.8735 140.497 76.3501 140.15C75.8285 139.82 74.9211 139.721 73.6278 139.853L70.7051 140.152C69.9873 140.8 69.6716 141.547 69.7579 142.392ZM89.2494 138.857C88.0424 138.981 86.9451 138.814 85.9575 138.357C84.9854 137.882 84.181 137.171 83.5442 136.226C82.9057 135.263 82.5177 134.109 82.3802 132.764C82.2427 131.419 82.3815 130.22 82.7965 129.167C83.2271 128.095 83.8797 127.236 84.7545 126.589C85.6275 125.924 86.6847 125.529 87.9263 125.402C89.1678 125.275 90.2573 125.451 91.1949 125.93C92.1307 126.392 92.8782 127.056 93.4372 127.923C93.9961 128.789 94.3294 129.748 94.4369 130.8C94.4563 130.99 94.4671 131.18 94.4692 131.372C94.4886 131.561 94.5107 131.777 94.5353 132.018L84.5772 133.036C84.7259 133.979 85.0225 134.75 85.4671 135.35C85.9272 135.93 86.4662 136.345 87.0842 136.596C87.7194 136.844 88.3733 136.934 89.0458 136.866C89.9942 136.769 90.7154 136.495 91.2094 136.043C91.7034 135.592 92.0522 134.999 92.2559 134.264L94.4027 134.044C94.2312 135.264 93.7221 136.335 92.8756 137.258C92.0273 138.164 90.8186 138.697 89.2494 138.857ZM88.0728 127.347C87.0727 127.449 86.2241 127.841 85.5271 128.522C84.8473 129.201 84.4768 130.093 84.4154 131.197L92.2267 130.399C92.0484 129.337 91.5749 128.54 90.8063 128.009C90.0531 127.458 89.1419 127.238 88.0728 127.347ZM105.942 136.837C104.77 136.957 103.818 136.767 103.088 136.267C102.357 135.766 101.916 134.775 101.764 133.292L101.045 126.256L97.786 126.59L97.5956 124.727L99.5355 124.529C100.415 124.439 100.88 123.956 100.929 123.08L101.088 121.051L102.692 120.887L103.027 124.172L108.149 123.648L108.339 125.511L103.218 126.034L103.937 133.07C104.011 133.794 104.227 134.286 104.584 134.545C104.959 134.803 105.56 134.89 106.388 134.805L109.259 134.512L109.46 136.478L105.942 136.837ZM114.494 135.963L112.59 117.34L114.763 117.118L115.553 124.852C115.831 124.161 116.345 123.568 117.096 123.074C117.846 122.561 118.694 122.257 119.643 122.16C121.212 121.999 122.45 122.352 123.357 123.218C124.282 124.081 124.832 125.367 125.006 127.074L125.797 134.808L123.624 135.03L122.863 127.581C122.744 126.425 122.368 125.558 121.734 124.978C121.117 124.396 120.308 124.157 119.308 124.259C118.619 124.329 118.005 124.549 117.468 124.917C116.93 125.286 116.52 125.79 116.237 126.428C115.954 127.067 115.857 127.826 115.947 128.706L116.666 135.741L114.494 135.963ZM135.776 134.101C134.569 134.225 133.472 134.058 132.485 133.601C131.513 133.126 130.708 132.415 130.071 131.47C129.433 130.507 129.045 129.353 128.907 128.008C128.77 126.663 128.909 125.464 129.324 124.411C129.754 123.339 130.407 122.48 131.282 121.833C132.155 121.168 133.212 120.773 134.453 120.646C135.695 120.519 136.784 120.695 137.722 121.174C138.658 121.636 139.405 122.3 139.964 123.167C140.523 124.033 140.856 124.992 140.964 126.044C140.983 126.234 140.994 126.424 140.996 126.616C141.016 126.805 141.038 127.021 141.062 127.262L131.104 128.28C131.253 129.223 131.55 129.994 131.994 130.594C132.454 131.174 132.993 131.589 133.611 131.84C134.247 132.088 134.9 132.178 135.573 132.11C136.521 132.013 137.242 131.738 137.736 131.287C138.23 130.836 138.579 130.243 138.783 129.508L140.93 129.288C140.758 130.508 140.249 131.579 139.403 132.502C138.554 133.408 137.346 133.941 135.776 134.101ZM134.6 122.591C133.6 122.693 132.751 123.085 132.054 123.766C131.374 124.445 131.004 125.337 130.942 126.441L138.754 125.643C138.575 124.58 138.102 123.784 137.333 123.253C136.58 122.702 135.669 122.482 134.6 122.591ZM145.538 132.79L145.347 130.927L148.632 130.592L147.767 122.134C147.723 121.703 147.494 121.508 147.081 121.551L144.753 121.788L144.562 119.926L147.692 119.606C148.261 119.548 148.734 119.657 149.111 119.932C149.487 120.207 149.706 120.646 149.768 121.25L149.823 121.793L149.927 121.782C150.046 120.899 150.366 120.195 150.887 119.672C151.426 119.146 152.213 118.831 153.247 118.725L155.601 118.484L155.836 120.786L153.172 121.059C152.12 121.166 151.346 121.602 150.849 122.368C150.351 123.115 150.157 124.033 150.268 125.119L150.805 130.37L154.84 129.957L155.03 131.819L145.538 132.79ZM162.26 135.915L162.064 134.001L164.315 133.771C165.022 133.699 165.547 133.471 165.891 133.087C166.237 132.721 166.37 132.15 166.291 131.374C166.22 130.684 166.108 130.095 165.953 129.605C165.814 129.097 165.667 128.589 165.51 128.082C165.369 127.557 165.261 126.923 165.185 126.181C165.092 125.268 165.213 124.497 165.55 123.87C165.885 123.226 166.36 122.76 166.975 122.47L166.965 122.367C166.304 122.208 165.745 121.855 165.288 121.31C164.83 120.747 164.554 120.008 164.461 119.094C164.385 118.353 164.364 117.719 164.397 117.193C164.446 116.648 164.488 116.121 164.523 115.612C164.574 115.084 164.564 114.475 164.493 113.786C164.414 113.01 164.168 112.477 163.755 112.188C163.34 111.882 162.779 111.765 162.072 111.838L159.822 112.068L159.627 110.154L162.11 109.9C163.351 109.773 164.366 109.983 165.153 110.53C165.957 111.057 166.427 111.994 166.564 113.339C166.631 113.994 166.64 114.594 166.592 115.139C166.558 115.665 166.521 116.235 166.479 116.849C166.453 117.445 166.484 118.173 166.572 119.035C166.648 119.777 166.898 120.352 167.323 120.762C167.764 121.152 168.424 121.303 169.303 121.213L170.519 121.089L170.715 123.003L169.499 123.127C168.62 123.217 168.004 123.506 167.654 123.995C167.318 124.465 167.189 125.071 167.264 125.812C167.351 126.657 167.468 127.377 167.616 127.972C167.781 128.564 167.934 129.124 168.075 129.65C168.231 130.156 168.343 130.737 168.41 131.393C168.547 132.738 168.276 133.75 167.596 134.429C166.936 135.124 165.985 135.535 164.743 135.662L162.26 135.915Z" fill="black"/>
</g>
<rect x="7.28125" y="54" width="145" height="51" rx="10" transform="rotate(0.312814 7.28125 54)" fill="#80CB9C"/>
<path d="M27.2627 92.9198C26.0147 92.913 25.0198 92.5956 24.2779 91.9675C23.5532 91.3569 23.1945 90.3756 23.2019 89.0236C23.2055 88.365 23.2521 87.7759 23.3416 87.2564C23.4485 86.7196 23.547 86.1481 23.6369 85.5419C23.7443 84.9358 23.8002 84.2081 23.8049 83.3588C23.8089 82.6135 23.6128 82.0231 23.2165 81.5876C22.8377 81.1348 22.2062 80.9061 21.3222 80.9012L20.1003 80.8946L20.1108 78.9706L21.3328 78.9773C22.2167 78.9821 22.8506 78.7689 23.2343 78.3376C23.6354 77.8891 23.838 77.2922 23.8421 76.5469C23.8468 75.6803 23.7988 74.952 23.698 74.3621C23.6146 73.755 23.5224 73.1911 23.4212 72.6706C23.3375 72.1328 23.2974 71.5345 23.301 70.8759C23.3084 69.5239 23.6777 68.5466 24.409 67.9439C25.1578 67.324 26.1561 67.0174 27.4041 67.0242L29.9001 67.0379L29.8896 68.9618L27.6276 68.9495C26.9169 68.9456 26.37 69.1159 25.9868 69.4605C25.6037 69.7878 25.41 70.3414 25.4057 71.1214C25.4019 71.8147 25.4419 72.4216 25.5258 72.9421C25.627 73.4453 25.7195 73.9658 25.8032 74.5036C25.9044 75.0242 25.9529 75.6571 25.9489 76.4024C25.9439 77.3211 25.7404 78.0826 25.3384 78.6871C24.9365 79.2743 24.4143 79.6788 23.7717 79.9006L23.7712 80.0046C24.4113 80.2334 24.929 80.6523 25.3243 81.2611C25.7198 81.8526 25.915 82.6077 25.91 83.5263C25.9059 84.2716 25.8504 84.9127 25.7435 85.4494C25.654 85.969 25.5558 86.4884 25.449 87.0079C25.3596 87.51 25.313 88.1078 25.3092 88.8011C25.3049 89.5811 25.4926 90.1368 25.8721 90.4682C26.2515 90.817 26.7966 90.9933 27.5072 90.9971L29.7692 91.0095L29.7587 92.9335L27.2627 92.9198ZM38.4847 88.171L38.5448 77.1472L35.3469 77.1297L35.3571 75.2578L38.5551 75.2752L38.5663 73.2213C38.5736 71.8866 38.8995 70.9264 39.544 70.3406C40.1886 69.7547 41.1608 69.4654 42.4608 69.4725L45.5548 69.4894L45.544 71.4653L42.58 71.4491C41.9387 71.4456 41.4699 71.5818 41.1738 71.8575C40.895 72.116 40.7538 72.5745 40.7502 73.2332L40.739 75.2872L45.523 75.3133L45.5127 77.1852L40.7288 77.1591L40.6686 88.183L38.4847 88.171ZM54.9826 88.5731C53.9599 88.5675 53.1116 88.3809 52.4376 88.0132C51.7636 87.6455 51.2635 87.1661 50.9374 86.575C50.6114 85.9665 50.4503 85.307 50.4542 84.5963C50.4614 83.279 50.9435 82.285 51.9005 81.6142C52.8749 80.9262 54.1681 80.5866 55.7801 80.5954L59.3161 80.6147L59.3175 80.3547C59.3298 78.1014 58.3046 76.9691 56.242 76.9578C55.41 76.9533 54.707 77.1314 54.133 77.4923C53.5764 77.8533 53.2179 78.4233 53.0577 79.2025L50.8217 79.1903C50.9131 78.3241 51.2032 77.5803 51.6919 76.959C52.198 76.3377 52.8419 75.8646 53.6237 75.5395C54.4055 75.2144 55.2817 75.0545 56.2523 75.0598C58.0897 75.0699 59.4217 75.5625 60.2483 76.5377C61.0925 77.4956 61.5102 78.7719 61.5015 80.3666L61.4582 88.2965L59.5862 88.2862L59.4151 86.2833L59.2331 86.2823C58.8484 86.9042 58.3341 87.4474 57.6902 87.9119C57.0637 88.3591 56.1612 88.5796 54.9826 88.5731ZM55.383 86.6513C56.215 86.6558 56.9181 86.4603 57.4923 86.0648C58.0838 85.6693 58.5287 85.1431 58.8269 84.486C59.1425 83.8291 59.3024 83.1106 59.3067 82.3306L55.9527 82.3123C54.7741 82.3059 53.941 82.5007 53.4535 82.8967C52.9833 83.2928 52.7465 83.8202 52.7429 84.4788C52.7392 85.1548 52.9616 85.6847 53.4102 86.0685C53.8588 86.4523 54.5164 86.6465 55.383 86.6513ZM71.7941 88.6649C70.1475 88.6559 68.8149 88.2673 67.7964 87.4991C66.7954 86.7136 66.2379 85.6445 66.1239 84.2919L68.3859 84.3042C68.486 85.0155 68.8295 85.598 69.4164 86.0519C70.0206 86.5059 70.834 86.7356 71.8566 86.7412C72.8273 86.7465 73.5478 86.5424 74.018 86.129C74.5056 85.7157 74.7509 85.2403 74.7538 84.703C74.7578 83.975 74.4745 83.4795 73.9039 83.2163C73.3334 82.9359 72.4766 82.7232 71.3334 82.5783C69.9649 82.4148 68.8316 82.036 67.9335 81.4417C67.0354 80.8475 66.5896 79.961 66.596 78.7824C66.6018 77.7251 67.0486 76.8522 67.9363 76.1637C68.8241 75.4752 70.0307 75.1351 71.556 75.1434C73.0639 75.1516 74.2494 75.5048 75.1122 76.2028C75.9752 76.8836 76.4639 77.8569 76.5783 79.1229L74.4203 79.1111C74.3718 78.4868 74.0711 77.9912 73.5184 77.6242C72.9832 77.2399 72.3083 77.0455 71.4936 77.0411C70.6443 77.0365 69.9847 77.1975 69.5149 77.5243C69.0452 77.8337 68.809 78.2484 68.8061 78.7684C68.8033 79.2884 69.0609 79.7232 69.579 80.0727C70.1145 80.4049 70.954 80.6262 72.0974 80.7364C72.9982 80.8454 73.8206 81.0232 74.5646 81.2699C75.3086 81.5167 75.8958 81.9012 76.3263 82.4236C76.7741 82.946 76.9955 83.6752 76.9904 84.6112C77.0034 85.3913 76.7829 86.0921 76.3289 86.7136C75.8922 87.3179 75.2829 87.7999 74.5009 88.1597C73.7191 88.5021 72.8168 88.6705 71.7941 88.6649ZM88.6074 88.4447C87.4288 88.4383 86.503 88.1472 85.8302 87.5715C85.1573 86.9958 84.8249 85.9627 84.8331 84.472L84.8717 77.4001L81.5957 77.3822L81.606 75.5103L83.5559 75.5209C84.4399 75.5257 84.9536 75.0952 85.097 74.2293L85.4719 72.2293L87.0839 72.2381L87.0659 75.5401L92.2138 75.5682L92.2036 77.4402L87.0557 77.4121L87.017 84.484C87.0131 85.2119 87.1749 85.7242 87.5027 86.0206C87.8477 86.3172 88.4362 86.4677 89.2682 86.4723L92.1542 86.488L92.1434 88.464L88.6074 88.4447ZM102.973 88.8351C101.76 88.8285 100.687 88.5453 99.754 87.9855C98.8384 87.4085 98.1147 86.6159 97.5829 85.6077C97.0512 84.5821 96.789 83.3933 96.7964 82.0413C96.8037 80.6893 97.0702 79.5121 97.5957 78.5096C98.1386 77.4899 98.8795 76.7053 99.8185 76.1557C100.758 75.5888 101.851 75.3088 103.099 75.3156C104.347 75.3224 105.412 75.6142 106.292 76.1911C107.173 76.7505 107.845 77.4909 108.308 78.4121C108.771 79.3333 109 80.3226 108.994 81.3799C108.993 81.5706 108.983 81.7612 108.965 81.9517C108.964 82.1424 108.963 82.3591 108.961 82.6017L98.9516 82.5471C98.9984 83.5007 99.2107 84.2992 99.5886 84.9426C99.9838 85.5688 100.475 86.0395 101.063 86.3547C101.668 86.67 102.308 86.8295 102.984 86.8332C103.938 86.8384 104.684 86.6431 105.224 86.2474C105.763 85.8517 106.173 85.2992 106.455 84.5901L108.613 84.6019C108.311 85.7962 107.691 86.8069 106.75 87.6337C105.81 88.4433 104.551 88.8437 102.973 88.8351ZM103.037 77.2653C102.031 77.2598 101.146 77.5583 100.38 78.1608C99.631 78.7634 99.167 79.6102 98.9877 80.7013L106.84 80.7441C106.776 79.6691 106.391 78.8263 105.683 78.2158C104.993 77.588 104.111 77.2712 103.037 77.2653ZM112.819 88.5769L112.829 86.7049L116.131 86.7229L116.177 78.2211C116.18 77.7877 115.973 77.5699 115.557 77.5677L113.217 77.5549L113.227 75.6829L116.373 75.7001C116.945 75.7032 117.404 75.8617 117.749 76.1756C118.094 76.4895 118.264 76.9498 118.261 77.5564L118.258 78.1024L118.362 78.103C118.575 77.2375 118.968 76.5723 119.543 76.1074C120.135 75.6426 120.951 75.4131 121.991 75.4188L124.357 75.4317L124.344 77.7456L121.666 77.731C120.609 77.7252 119.792 78.0761 119.216 78.7837C118.641 79.4739 118.35 80.365 118.344 81.4569L118.315 86.7349L122.371 86.757L122.361 88.629L112.819 88.5769ZM129.11 93.4759L129.121 91.5519L131.383 91.5643C132.093 91.5682 132.64 91.3978 133.023 91.0532C133.407 90.726 133.6 90.1724 133.604 89.3924C133.608 88.6991 133.56 88.1008 133.458 87.5975C133.374 87.0771 133.282 86.5566 133.181 86.036C133.097 85.4982 133.057 84.8567 133.061 84.1113C133.066 83.1927 133.27 82.4398 133.672 81.8526C134.074 81.2481 134.596 80.835 135.238 80.6132L135.239 80.5092C134.599 80.2803 134.081 79.8702 133.686 79.2787C133.29 78.6698 133.095 77.9061 133.1 76.9874C133.104 76.2421 133.151 75.6097 133.241 75.0902C133.347 74.5534 133.446 74.0339 133.535 73.5318C133.642 73.0123 133.697 72.406 133.701 71.7126C133.705 70.9326 133.518 70.377 133.138 70.0455C132.759 69.6968 132.214 69.5205 131.503 69.5166L129.241 69.5043L129.251 67.5803L131.747 67.5939C132.995 67.6007 133.982 67.9181 134.706 68.5461C135.448 69.1568 135.816 70.1382 135.808 71.4901C135.805 72.1488 135.749 72.7465 135.642 73.2833C135.553 73.8028 135.455 74.3656 135.347 74.9717C135.257 75.5605 135.21 76.2883 135.205 77.1549C135.201 77.9003 135.389 78.4993 135.768 78.952C136.164 79.3875 136.804 79.6077 137.688 79.6125L138.91 79.6192L138.899 81.5432L137.677 81.5365C136.793 81.5317 136.151 81.7535 135.75 82.202C135.366 82.6332 135.172 83.2215 135.168 83.9668C135.163 84.8162 135.203 85.5444 135.286 86.1515C135.387 86.7587 135.479 87.3312 135.563 87.869C135.664 88.3896 135.713 88.9792 135.709 89.6379C135.702 90.9898 135.324 91.9671 134.575 92.5697C133.844 93.1897 132.854 93.4963 131.606 93.4895L129.11 93.4759Z" fill="black"/>
<defs>
<clipPath id="clip0_2675_51298">
<rect x="5.89062" y="112.889" width="176" height="51" rx="10" transform="rotate(-5.83661 5.89062 112.889)" fill="white"/>
</clipPath>
</defs>
</svg>
