<svg width="237" height="234" viewBox="0 0 237 234" fill="none" xmlns="http://www.w3.org/2000/svg">
<rect x="39.6309" y="41.5559" width="130" height="51" rx="10" transform="rotate(-3.76419 39.6309 41.5559)" fill="#F1A695"/>
<path d="M62.3279 78.9566C61.0826 79.0385 60.0676 78.7926 59.2829 78.2189C58.5166 77.6613 58.0891 76.708 58.0004 75.3589C57.9571 74.7017 57.9617 74.1108 58.014 73.5862C58.0825 73.0432 58.1401 72.4662 58.1868 71.8551C58.2507 71.2429 58.2548 70.5131 58.199 69.6656C58.1501 68.9219 57.9125 68.3469 57.4863 67.9407C57.0762 67.516 56.4301 67.3327 55.548 67.3907L54.3286 67.471L54.2023 65.5511L55.4217 65.4709C56.3038 65.4129 56.9208 65.1551 57.2729 64.6977C57.6411 64.2218 57.8008 63.612 57.7518 62.8683C57.6949 62.0035 57.5953 61.2805 57.4528 60.6992C57.3265 60.0996 57.1944 59.5437 57.0565 59.0317C56.9347 58.5012 56.8522 57.9073 56.809 57.2501C56.7202 55.901 57.0191 54.8999 57.7057 54.2467C58.4085 53.5751 59.3825 53.1984 60.6278 53.1164L63.1184 52.9526L63.2448 54.8724L60.9876 55.0209C60.2785 55.0676 59.7451 55.2764 59.3873 55.6473C59.0284 56.001 58.8746 56.567 58.9258 57.3453C58.9713 58.0371 59.0544 58.6397 59.175 59.1529C59.3118 59.6476 59.441 60.1602 59.5628 60.6907C59.7007 61.2028 59.7941 61.8306 59.843 62.5744C59.9034 63.4911 59.7545 64.2652 59.3965 64.8967C59.0374 65.5109 58.5453 65.9515 57.9201 66.2185L57.927 66.3222C58.5817 66.505 59.1279 66.886 59.5655 67.4651C60.002 68.027 60.2504 68.7663 60.3107 69.683C60.3597 70.4267 60.3499 71.0701 60.2814 71.6131C60.229 72.1377 60.1681 72.6628 60.0984 73.1885C60.0449 73.6958 60.041 74.2953 60.0865 74.9872C60.1377 75.7655 60.3644 76.3064 60.7665 76.61C61.1698 76.9309 61.726 77.068 62.4351 77.0214L64.6922 76.8729L64.8185 78.7927L62.3279 78.9566ZM70.6154 73.5909L66.9149 60.9105L69.0683 60.7688L71.5435 70.2728L73.1155 60.5026L75.5542 60.3421L78.3927 69.8222L79.6015 60.0758L81.7808 59.9325L79.7476 72.9901L77.5164 73.1369L74.5243 63.3021L72.8465 73.4441L70.6154 73.5909ZM85.1338 72.6357L85.0109 70.7678L88.3058 70.551L87.7476 62.0673C87.7192 61.6349 87.4974 61.4324 87.0823 61.4597L84.7474 61.6133L84.6245 59.7454L87.7637 59.5388C88.3344 59.5013 88.803 59.6268 89.1694 59.9153C89.5358 60.2039 89.7389 60.6509 89.7788 61.2562L89.8146 61.8011L89.9184 61.7942C90.0691 60.9158 90.4144 60.2243 90.9544 59.7197C91.5118 59.2141 92.3093 58.9271 93.3471 58.8588L95.708 58.7035L95.8599 61.0125L93.1877 61.1883C92.1326 61.2577 91.343 61.6658 90.8189 62.4124C90.2937 63.1418 90.0669 64.0514 90.1386 65.141L90.4851 70.4076L94.5323 70.1413L94.6552 72.0093L85.1338 72.6357ZM105.141 56.1026C104.623 56.1367 104.179 55.9922 103.81 55.669C103.441 55.3459 103.241 54.9421 103.209 54.4579C103.176 53.9563 103.322 53.5298 103.646 53.1784C103.969 52.8097 104.39 52.6083 104.909 52.5742C105.411 52.5412 105.846 52.6863 106.215 53.0094C106.6 53.3142 106.808 53.7173 106.841 54.2189C106.873 54.7032 106.719 55.1302 106.379 55.5C106.055 55.8687 105.643 56.0696 105.141 56.1026ZM101.105 71.5849L100.982 69.717L105.081 69.4473L104.523 60.9636C104.495 60.5312 104.264 60.3293 103.832 60.3577L100.822 60.5557L100.7 58.6877L104.228 58.4556C105.767 58.3543 106.588 59.0734 106.689 60.6127L107.261 69.3039L111.36 69.0342L111.483 70.9022L101.105 71.5849ZM123.199 70.1313C122.023 70.2087 121.079 69.9842 120.367 69.4578C119.655 68.9314 119.25 67.9245 119.152 66.4371L118.688 59.3803L115.419 59.5954L115.296 57.7274L117.242 57.5994C118.124 57.5414 118.606 57.0754 118.687 56.2015L118.919 54.1799L120.527 54.0741L120.744 57.369L125.881 57.031L126.004 58.899L120.867 59.2369L121.331 66.2937C121.379 67.0201 121.577 67.5195 121.925 67.7919C122.29 68.0632 122.888 68.1715 123.718 68.1169L126.598 67.9274L126.728 69.8992L123.199 70.1313ZM137.557 69.4994C136.346 69.579 135.255 69.3729 134.285 68.8808C133.331 68.3704 132.552 67.6312 131.95 66.6633C131.347 65.6781 131.001 64.511 130.912 63.1619C130.823 61.8128 131.005 60.6197 131.458 59.5824C131.927 58.5266 132.611 57.6913 133.508 57.0764C134.405 56.4442 135.476 56.0871 136.721 56.0051C137.966 55.9232 139.049 56.1386 139.968 56.6513C140.887 57.1468 141.61 57.8375 142.137 58.7234C142.664 59.6094 142.963 60.5799 143.032 61.635C143.045 61.8252 143.048 62.016 143.044 62.2074C143.056 62.3977 143.07 62.6139 143.086 62.856L133.098 63.5132C133.212 64.4611 133.481 65.2424 133.904 65.8574C134.342 66.4538 134.866 66.8884 135.475 67.161C136.1 67.4325 136.751 67.5461 137.425 67.5017C138.376 67.4391 139.107 67.1913 139.617 66.7582C140.127 66.3251 140.497 65.7449 140.727 65.0176L142.88 64.8759C142.665 66.0887 142.118 67.1409 141.238 68.0325C140.358 68.9069 139.13 69.3958 137.557 69.4994ZM136.797 57.9544C135.794 58.0204 134.932 58.3811 134.21 59.0365C133.507 59.6908 133.104 60.5684 133.003 61.6695L140.838 61.154C140.698 60.0862 140.254 59.2729 139.505 58.7142C138.772 58.1371 137.869 57.8838 136.797 57.9544ZM148.401 73.2936L148.275 71.3738L150.532 71.2253C151.241 71.1786 151.774 70.9698 152.132 70.5989C152.491 70.2452 152.645 69.6792 152.594 68.9009C152.548 68.2091 152.457 67.6158 152.32 67.121C152.199 66.6078 152.07 66.0952 151.932 65.5832C151.811 65.0527 151.725 64.4156 151.676 63.6719C151.616 62.7552 151.765 61.9897 152.124 61.3755C152.482 60.7439 152.974 60.2947 153.599 60.0278L153.592 59.924C152.938 59.7412 152.392 59.3689 151.955 58.807C151.518 58.2278 151.269 57.4799 151.209 56.5632C151.16 55.8195 151.161 55.1854 151.214 54.6608C151.282 54.1178 151.343 53.5926 151.397 53.0854C151.466 52.5597 151.478 51.9509 151.433 51.2591C151.382 50.4807 151.155 49.9398 150.753 49.6362C150.35 49.3153 149.793 49.1782 149.084 49.2249L146.827 49.3734L146.701 47.4535L149.191 47.2896C150.437 47.2077 151.443 47.4542 152.21 48.029C152.994 48.5855 153.43 49.5382 153.519 50.8873C153.562 51.5446 153.55 52.1447 153.481 52.6877C153.429 53.2122 153.371 53.7806 153.307 54.3928C153.259 54.9866 153.263 55.7158 153.32 56.5806C153.369 57.3244 153.599 57.9085 154.009 58.3332C154.435 58.7394 155.089 58.9135 155.971 58.8555L157.191 58.7753L157.317 60.6951L156.098 60.7753C155.216 60.8334 154.59 61.1003 154.222 61.5762C153.87 62.0336 153.719 62.6342 153.767 63.3779C153.823 64.2254 153.914 64.949 154.041 65.5487C154.184 66.1472 154.317 66.7117 154.439 67.2422C154.577 67.7543 154.667 68.3389 154.71 68.9962C154.799 70.3452 154.492 71.3469 153.788 72.0012C153.102 72.6717 152.137 73.0478 150.891 73.1298L148.401 73.2936Z" fill="black"/>
<rect x="22.9023" y="138.55" width="176" height="51" rx="10" transform="rotate(-3.88852 22.9023 138.55)" fill="#B199C8"/>
<path d="M45.6807 175.902C44.4355 175.986 43.42 175.743 42.6341 175.171C41.8666 174.615 41.437 173.662 41.3453 172.313C41.3007 171.656 41.3039 171.065 41.3552 170.541C41.4225 169.998 41.4788 169.42 41.5241 168.809C41.5867 168.197 41.5893 167.467 41.5317 166.62C41.4811 165.876 41.2423 165.302 40.8151 164.896C40.4041 164.473 39.7576 164.291 38.8757 164.351L37.6565 164.433L37.526 162.514L38.7452 162.431C39.6271 162.371 40.2437 162.112 40.5947 161.654C40.9619 161.177 41.1202 160.567 41.0697 159.823C41.0109 158.959 40.9097 158.236 40.7659 157.655C40.6383 157.056 40.505 156.5 40.366 155.988C40.2431 155.458 40.1593 154.864 40.1146 154.207C40.0229 152.858 40.3197 151.857 41.0049 151.202C41.7062 150.529 42.6794 150.15 43.9245 150.065L46.4148 149.896L46.5453 151.816L44.2885 151.969C43.5794 152.017 43.0464 152.227 42.6895 152.599C42.3314 152.953 42.1788 153.52 42.2317 154.298C42.2787 154.99 42.363 155.592 42.4848 156.105C42.6226 156.599 42.753 157.112 42.8759 157.642C43.0149 158.154 43.1097 158.781 43.1603 159.525C43.2226 160.441 43.0754 161.216 42.7188 161.848C42.361 162.463 41.8698 162.905 41.2453 163.173L41.2523 163.277C41.9075 163.458 42.4545 163.838 42.8934 164.416C43.3311 164.977 43.5811 165.716 43.6434 166.633C43.6939 167.376 43.6855 168.02 43.6182 168.563C43.567 169.087 43.5072 169.613 43.4387 170.138C43.3863 170.646 43.3836 171.245 43.4306 171.937C43.4835 172.715 43.7114 173.256 44.1142 173.559C44.5181 173.879 45.0746 174.014 45.7837 173.966L48.0404 173.813L48.1709 175.732L45.6807 175.902ZM59.8708 170.116C58.6949 170.196 57.7503 169.974 57.037 169.449C56.3238 168.924 55.9166 167.918 55.8156 166.431L55.336 159.375L52.0675 159.597L51.9406 157.729L53.8861 157.597C54.768 157.537 55.2488 157.07 55.3284 156.196L55.5558 154.174L57.1641 154.065L57.388 157.359L62.5241 157.01L62.6511 158.878L57.5149 159.227L57.9945 166.282C58.0439 167.009 58.2429 167.508 58.5914 167.779C58.9573 168.05 59.5552 168.157 60.3853 168.101L63.2647 167.905L63.3987 169.876L59.8708 170.116ZM74.097 169.462C72.8865 169.544 71.7955 169.34 70.824 168.85C69.8526 168.36 69.0647 167.632 68.4604 166.666C67.855 165.682 67.5058 164.507 67.413 163.141C67.3201 161.774 67.5076 160.572 67.9756 159.532C68.4423 158.475 69.1238 157.639 70.02 157.022C70.9163 156.405 71.9696 156.055 73.1802 155.973C74.3907 155.891 75.4817 156.094 76.4532 156.584C77.4246 157.074 78.2131 157.811 78.8185 158.795C79.4228 159.762 79.7714 160.928 79.8642 162.294C79.9571 163.66 79.7702 164.872 79.3034 165.929C78.8355 166.968 78.1534 167.796 77.2572 168.413C76.361 169.03 75.3076 169.38 74.097 169.462ZM73.956 167.387C74.6996 167.336 75.3629 167.126 75.9458 166.756C76.5288 166.386 76.9696 165.844 77.2685 165.129C77.5846 164.412 77.7063 163.518 77.6334 162.446C77.5605 161.374 77.319 160.504 76.9088 159.837C76.5159 159.169 76.0057 158.691 75.3781 158.403C74.7505 158.116 74.0649 157.998 73.3212 158.048C72.5949 158.098 71.9403 158.307 71.3573 158.677C70.7744 159.046 70.3249 159.59 70.0087 160.306C69.6926 161.022 69.571 161.917 69.6438 162.989C69.7531 164.597 70.2228 165.755 71.0527 166.463C71.8814 167.154 72.8492 167.462 73.956 167.387ZM89.1389 164.322C88.2397 164.383 87.4244 164.273 86.693 163.993L85.8833 165.117C85.7107 165.389 85.6765 165.652 85.7806 165.905C85.9008 166.14 86.1598 166.244 86.5575 166.217L89.9557 165.986C91.4948 165.882 92.7605 166.1 93.7528 166.64C94.7439 167.164 95.2835 168.074 95.3717 169.371C95.4246 170.149 95.2745 170.88 94.9214 171.564C94.5683 172.249 93.973 172.819 93.1353 173.275C92.3162 173.748 91.2149 174.031 89.8314 174.126C88.0329 174.248 86.5659 174.009 85.4306 173.408C84.2953 172.808 83.6806 171.816 83.5866 170.432C83.5525 169.931 83.6418 169.456 83.8545 169.007C84.0857 168.574 84.3804 168.181 84.7385 167.826C84.2158 167.549 83.8728 167.103 83.7094 166.489C83.5633 165.874 83.7118 165.247 84.1549 164.609L85.2235 163.077C84.3346 162.268 83.8473 161.233 83.7615 159.971C83.7051 159.14 83.8516 158.357 84.2012 157.621C84.5496 156.868 85.0809 156.25 85.7951 155.767C86.5266 155.283 87.4285 155.004 88.5007 154.932C89.1924 154.885 89.8393 154.945 90.4414 155.112L95.2663 154.784L95.3773 156.419L92.9702 156.66L92.9825 156.842C93.4827 157.555 93.764 158.37 93.8263 159.286C93.8827 160.117 93.7367 160.908 93.3883 161.662C93.0561 162.396 92.5242 163.006 91.7926 163.49C91.0784 163.973 90.1938 164.25 89.1389 164.322ZM89.012 162.454C89.8594 162.397 90.5341 162.099 91.0361 161.561C91.5554 161.022 91.7851 160.311 91.7251 159.429C91.6652 158.547 91.342 157.883 90.7557 157.436C90.1855 156.971 89.4768 156.768 88.6294 156.825C87.7647 156.884 87.0727 157.183 86.5534 157.722C86.0329 158.244 85.8027 158.946 85.8626 159.828C85.9226 160.71 86.2463 161.383 86.8338 161.847C87.4213 162.31 88.1473 162.513 89.012 162.454ZM85.7343 170.208C85.786 170.969 86.1793 171.516 86.9142 171.848C87.6491 172.18 88.5786 172.308 89.7027 172.232C90.7921 172.158 91.6594 171.882 92.3045 171.404C92.9668 170.924 93.2733 170.321 93.2239 169.595C93.1852 169.024 92.9101 168.557 92.3989 168.192C91.8888 167.844 90.9853 167.714 89.6883 167.803L86.757 168.002C86.0176 168.625 85.6767 169.361 85.7343 170.208ZM105.335 167.339C104.124 167.421 103.033 167.217 102.062 166.727C101.106 166.219 100.326 165.481 99.7222 164.515C99.1168 163.531 98.7682 162.364 98.6765 161.015C98.5848 159.667 98.7643 158.473 99.2149 157.435C99.6817 156.378 100.363 155.541 101.259 154.924C102.154 154.29 103.225 153.931 104.47 153.846C105.715 153.761 106.798 153.975 107.718 154.485C108.638 154.979 109.362 155.668 109.892 156.553C110.421 157.437 110.721 158.407 110.793 159.462C110.806 159.652 110.81 159.843 110.806 160.035C110.819 160.225 110.834 160.441 110.85 160.683L100.863 161.362C100.98 162.31 101.25 163.09 101.674 163.704C102.114 164.3 102.638 164.733 103.248 165.005C103.874 165.275 104.524 165.387 105.199 165.341C106.15 165.276 106.88 165.027 107.389 164.593C107.898 164.159 108.267 163.578 108.496 162.85L110.649 162.703C110.436 163.917 109.891 164.97 109.013 165.864C108.134 166.74 106.908 167.232 105.335 167.339ZM104.55 155.795C103.547 155.863 102.686 156.226 101.966 156.883C101.263 157.539 100.863 158.417 100.764 159.518L108.598 158.986C108.456 157.919 108.01 157.106 107.259 156.549C106.525 155.974 105.622 155.722 104.55 155.795ZM122.087 165.887C120.911 165.967 119.966 165.745 119.253 165.22C118.54 164.695 118.132 163.689 118.031 162.202L117.552 155.146L114.283 155.368L114.156 153.5L116.102 153.368C116.984 153.308 117.465 152.841 117.544 151.967L117.772 149.945L119.38 149.836L119.604 153.13L124.74 152.781L124.867 154.649L119.731 154.998L120.21 162.054C120.26 162.78 120.459 163.279 120.807 163.551C121.173 163.821 121.771 163.928 122.601 163.872L125.48 163.676L125.614 165.647L122.087 165.887ZM130.663 165.304L129.393 146.627L131.572 146.479L132.099 154.235C132.401 153.555 132.935 152.98 133.702 152.511C134.468 152.024 135.327 151.749 136.278 151.684C137.852 151.577 139.077 151.972 139.955 152.867C140.849 153.762 141.355 155.066 141.471 156.778L141.999 164.534L139.82 164.682L139.312 157.211C139.233 156.052 138.887 155.173 138.272 154.571C137.675 153.969 136.876 153.702 135.872 153.77C135.181 153.817 134.56 154.016 134.011 154.366C133.461 154.716 133.034 155.205 132.729 155.834C132.425 156.463 132.302 157.218 132.362 158.1L132.842 165.156L130.663 165.304ZM151.997 164.167C150.786 164.249 149.695 164.045 148.724 163.555C147.768 163.047 146.988 162.31 146.384 161.343C145.779 160.359 145.43 159.193 145.338 157.844C145.247 156.495 145.426 155.301 145.877 154.263C146.344 153.206 147.025 152.369 147.921 151.753C148.816 151.118 149.886 150.759 151.132 150.674C152.377 150.59 153.46 150.803 154.38 151.314C155.3 151.807 156.024 152.496 156.554 153.381C157.083 154.266 157.383 155.236 157.455 156.291C157.468 156.481 157.472 156.672 157.468 156.863C157.481 157.053 157.495 157.269 157.512 157.511L147.525 158.19C147.641 159.138 147.912 159.919 148.336 160.533C148.776 161.128 149.3 161.562 149.909 161.833C150.536 162.103 151.186 162.215 151.861 162.169C152.812 162.105 153.542 161.855 154.051 161.421C154.56 160.987 154.929 160.406 155.157 159.678L157.31 159.532C157.098 160.745 156.552 161.798 155.675 162.692C154.796 163.568 153.57 164.06 151.997 164.167ZM151.212 152.623C150.209 152.692 149.347 153.054 148.628 153.711C147.925 154.367 147.525 155.246 147.426 156.347L155.26 155.814C155.118 154.747 154.671 153.935 153.921 153.377C153.187 152.802 152.284 152.551 151.212 152.623ZM161.797 163.188L161.67 161.32L164.964 161.096L164.387 152.614C164.358 152.182 164.136 151.98 163.721 152.008L161.386 152.166L161.259 150.299L164.398 150.085C164.969 150.047 165.437 150.171 165.805 150.459C166.172 150.747 166.376 151.193 166.417 151.798L166.454 152.343L166.558 152.336C166.706 151.457 167.05 150.765 167.589 150.259C168.145 149.753 168.942 149.464 169.98 149.393L172.34 149.233L172.497 151.541L169.826 151.723C168.771 151.795 167.982 152.205 167.459 152.952C166.936 153.683 166.711 154.593 166.785 155.682L167.143 160.948L171.19 160.673L171.317 162.541L161.797 163.188ZM178.403 166.88L178.273 164.961L180.529 164.807C181.238 164.759 181.771 164.549 182.128 164.177C182.486 163.823 182.639 163.257 182.586 162.478C182.539 161.787 182.447 161.194 182.309 160.699C182.187 160.186 182.057 159.674 181.918 159.162C181.795 158.632 181.708 157.995 181.657 157.251C181.595 156.335 181.743 155.569 182.101 154.954C182.457 154.322 182.948 153.871 183.572 153.603L183.565 153.499C182.91 153.318 182.364 152.947 181.926 152.386C181.487 151.808 181.237 151.06 181.174 150.144C181.124 149.4 181.124 148.766 181.175 148.241C181.243 147.698 181.303 147.173 181.355 146.666C181.423 146.14 181.434 145.531 181.387 144.839C181.334 144.061 181.106 143.521 180.704 143.218C180.3 142.898 179.743 142.762 179.034 142.81L176.777 142.963L176.647 141.044L179.137 140.875C180.382 140.79 181.389 141.034 182.158 141.607C182.943 142.162 183.381 143.114 183.472 144.463C183.517 145.12 183.506 145.72 183.438 146.263C183.387 146.788 183.33 147.357 183.268 147.969C183.221 148.563 183.227 149.292 183.286 150.157C183.337 150.9 183.567 151.484 183.978 151.908C184.406 152.313 185.06 152.486 185.942 152.426L187.161 152.343L187.292 154.262L186.073 154.345C185.191 154.405 184.566 154.674 184.199 155.15C183.848 155.608 183.698 156.209 183.748 156.953C183.806 157.8 183.898 158.524 184.026 159.123C184.171 159.721 184.305 160.286 184.428 160.816C184.567 161.328 184.658 161.912 184.703 162.569C184.795 163.918 184.489 164.92 183.787 165.576C183.103 166.248 182.138 166.626 180.893 166.711L178.403 166.88Z" fill="black"/>
<rect x="34.4863" y="83.5107" width="145" height="51" rx="10" transform="rotate(1.56452 34.4863 83.5107)" fill="#80CB9C"/>
<path d="M53.6108 122.858C52.3632 122.823 51.3754 122.484 50.6474 121.84C49.9363 121.214 49.5991 120.225 49.6361 118.874C49.654 118.215 49.7134 117.627 49.8143 117.11C49.9329 116.575 50.0438 116.006 50.147 115.402C50.2675 114.799 50.3394 114.072 50.3626 113.223C50.3829 112.478 50.1998 111.884 49.8131 111.44C49.4442 110.979 48.8179 110.736 47.9342 110.712L46.7127 110.679L46.7652 108.755L47.9868 108.789C48.8704 108.813 49.5088 108.614 49.9018 108.191C50.3126 107.751 50.5282 107.159 50.5486 106.414C50.5722 105.547 50.5401 104.818 50.4523 104.226C50.3822 103.618 50.3023 103.052 50.2125 102.529C50.1405 101.99 50.1136 101.391 50.1315 100.732C50.1685 99.3808 50.5591 98.4118 51.3033 97.8252C52.0654 97.2218 53.0703 96.9371 54.3178 96.9712L56.8129 97.0393L56.7603 98.9626L54.4992 98.9009C53.7888 98.8815 53.2382 99.0398 52.8476 99.3759C52.4574 99.6947 52.2517 100.244 52.2304 101.024C52.2114 101.717 52.2382 102.324 52.3106 102.847C52.4009 103.352 52.482 103.874 52.5539 104.414C52.6437 104.936 52.6784 105.57 52.658 106.315C52.633 107.234 52.4129 107.991 51.9978 108.586C51.5832 109.164 51.0523 109.557 50.405 109.765L50.4022 109.869C51.0371 110.112 51.5456 110.542 51.9275 111.159C52.31 111.759 52.4886 112.518 52.4635 113.437C52.4432 114.182 52.3737 114.821 52.2551 115.356C52.1542 115.873 52.0447 116.39 51.9266 116.907C51.8262 117.407 51.7666 118.004 51.7477 118.697C51.7264 119.477 51.9018 120.036 52.274 120.376C52.6457 120.733 53.1868 120.921 53.8972 120.941L56.1584 121.002L56.1058 122.926L53.6108 122.858ZM67.1344 118.727C65.9735 118.696 64.9412 118.399 64.0376 117.836C63.1513 117.275 62.4532 116.484 61.9436 115.464C61.4344 114.427 61.1989 113.207 61.2372 111.804C61.2756 110.4 61.577 109.203 62.1416 108.213C62.7067 107.205 63.4557 106.446 64.3887 105.933C65.339 105.422 66.3773 105.182 67.5035 105.212C69.0976 105.256 70.3603 105.689 71.2915 106.512C72.2227 107.335 72.8 108.417 73.0235 109.759L70.7883 109.698C70.5998 108.982 70.2166 108.408 69.6389 107.976C69.0616 107.526 68.3225 107.289 67.4215 107.265C66.7631 107.247 66.1346 107.403 65.536 107.733C64.9374 108.064 64.4467 108.571 64.0639 109.254C63.6811 109.937 63.4753 110.807 63.4464 111.864C63.4176 112.921 63.5754 113.81 63.9198 114.53C64.2647 115.233 64.727 115.766 65.3067 116.128C65.8863 116.491 66.5054 116.681 67.1638 116.699C68.1168 116.725 68.8764 116.529 69.4427 116.111C70.0263 115.694 70.4318 115.133 70.6591 114.428L72.8943 114.489C72.5277 115.849 71.8486 116.905 70.857 117.658C69.8827 118.412 68.6418 118.768 67.1344 118.727ZM76.9051 118.682L76.9562 116.811L80.257 116.901L80.4891 108.402C80.501 107.969 80.299 107.747 79.8831 107.735L77.544 107.671L77.5951 105.8L80.7399 105.886C81.3117 105.902 81.7666 106.07 82.1046 106.391C82.4427 106.713 82.6034 107.177 82.5868 107.783L82.5719 108.329L82.6759 108.332C82.9075 107.471 83.3155 106.815 83.9001 106.362C84.502 105.911 85.3227 105.699 86.3624 105.727L88.7275 105.792L88.6643 108.105L85.9873 108.032C84.9304 108.003 84.1063 108.336 83.5151 109.031C82.9244 109.708 82.6141 110.593 82.5843 111.684L82.4402 116.96L86.4947 117.071L86.4436 118.942L76.9051 118.682ZM98.2245 119.576C97.0116 119.543 95.9449 119.237 95.0244 118.657C94.1217 118.06 93.4155 117.252 92.9058 116.232C92.3966 115.195 92.1605 114.001 92.1974 112.649C92.2343 111.298 92.5264 110.127 93.0736 109.136C93.6387 108.128 94.3966 107.36 95.3474 106.831C96.2987 106.285 97.3981 106.029 98.6456 106.063C99.8932 106.097 100.951 106.412 101.819 107.008C102.688 107.586 103.343 108.341 103.786 109.272C104.229 110.203 104.436 111.198 104.407 112.254C104.402 112.445 104.388 112.635 104.365 112.826C104.36 113.016 104.354 113.233 104.347 113.475L94.3411 113.202C94.367 114.156 94.5619 114.959 94.9255 115.611C95.307 116.245 95.7881 116.727 96.3687 117.055C96.9666 117.383 97.6034 117.557 98.2792 117.575C99.2321 117.601 99.9826 117.422 100.531 117.038C101.079 116.655 101.501 116.111 101.798 115.408L103.955 115.467C103.628 116.655 102.985 117.652 102.026 118.458C101.069 119.247 99.8012 119.619 98.2245 119.576ZM98.5404 108.011C97.5354 107.983 96.6435 108.262 95.8645 108.848C95.1029 109.434 94.6206 110.271 94.4175 111.357L102.267 111.572C102.227 110.496 101.86 109.645 101.166 109.019C100.49 108.376 99.6147 108.04 98.5404 108.011ZM112.587 119.969C111.565 119.941 110.721 119.736 110.055 119.353C109.389 118.971 108.9 118.481 108.586 117.883C108.274 117.267 108.127 116.604 108.147 115.894C108.183 114.577 108.686 113.594 109.658 112.944C110.647 112.277 111.947 111.966 113.559 112.01L117.093 112.107L117.1 111.847C117.162 109.594 116.162 108.44 114.1 108.384C113.268 108.361 112.561 108.524 111.98 108.872C111.415 109.221 111.045 109.783 110.867 110.558L108.632 110.497C108.742 109.633 109.049 108.896 109.551 108.285C110.07 107.675 110.724 107.216 111.513 106.908C112.302 106.601 113.181 106.46 114.152 106.486C115.988 106.537 117.309 107.058 118.114 108.051C118.937 109.027 119.327 110.312 119.284 111.906L119.067 119.834L117.196 119.782L117.069 117.776L116.887 117.771C116.488 118.385 115.962 118.916 115.308 119.367C114.672 119.8 113.765 120.001 112.587 119.969ZM113.029 118.056C113.861 118.079 114.568 117.899 115.151 117.516C115.751 117.133 116.207 116.617 116.52 115.967C116.85 115.317 117.025 114.602 117.046 113.822L113.694 113.731C112.515 113.698 111.678 113.875 111.182 114.26C110.704 114.646 110.455 115.168 110.437 115.826C110.419 116.502 110.63 117.037 111.07 117.43C111.51 117.824 112.163 118.032 113.029 118.056ZM130.623 120.149C129.444 120.117 128.525 119.806 127.865 119.216C127.205 118.625 126.895 117.585 126.936 116.095L127.129 109.026L123.854 108.936L123.905 107.065L125.855 107.118C126.738 107.142 127.261 106.723 127.424 105.86L127.842 103.869L129.453 103.913L129.363 107.214L134.509 107.355L134.458 109.226L129.312 109.085L129.119 116.155C129.099 116.882 129.25 117.398 129.571 117.702C129.91 118.006 130.495 118.169 131.326 118.192L134.211 118.27L134.157 120.246L130.623 120.149ZM144.977 120.853C143.764 120.82 142.697 120.514 141.777 119.934C140.874 119.337 140.168 118.528 139.658 117.509C139.149 116.472 138.913 115.278 138.949 113.926C138.986 112.575 139.278 111.404 139.826 110.413C140.391 109.405 141.149 108.637 142.1 108.108C143.051 107.562 144.15 107.306 145.398 107.34C146.645 107.374 147.703 107.689 148.571 108.285C149.44 108.863 150.095 109.618 150.538 110.549C150.981 111.48 151.188 112.474 151.159 113.531C151.154 113.722 151.14 113.912 151.117 114.102C151.112 114.293 151.106 114.51 151.099 114.752L141.093 114.479C141.119 115.433 141.314 116.236 141.678 116.888C142.059 117.522 142.54 118.004 143.121 118.332C143.719 118.66 144.356 118.834 145.031 118.852C145.984 118.878 146.735 118.699 147.283 118.315C147.831 117.931 148.253 117.388 148.55 116.685L150.707 116.744C150.38 117.932 149.737 118.929 148.779 119.735C147.821 120.524 146.553 120.896 144.977 120.853ZM145.292 109.288C144.288 109.26 143.396 109.539 142.617 110.125C141.855 110.711 141.373 111.547 141.17 112.634L149.019 112.849C148.979 111.773 148.612 110.922 147.918 110.296C147.242 109.653 146.367 109.317 145.292 109.288ZM155.422 125.638L155.474 123.715L157.735 123.777C158.446 123.796 158.996 123.638 159.387 123.302C159.777 122.983 159.983 122.434 160.004 121.654C160.023 120.961 159.987 120.362 159.897 119.856C159.825 119.334 159.744 118.812 159.654 118.289C159.582 117.75 159.556 117.107 159.577 116.362C159.602 115.444 159.821 114.696 160.236 114.117C160.651 113.522 161.182 113.12 161.83 112.912L161.832 112.809C161.197 112.566 160.689 112.144 160.306 111.544C159.924 110.927 159.746 110.159 159.771 109.241C159.791 108.496 159.852 107.865 159.953 107.347C160.071 106.813 160.181 106.296 160.281 105.796C160.399 105.279 160.468 104.674 160.487 103.981C160.508 103.201 160.333 102.641 159.961 102.302C159.589 101.945 159.048 101.756 158.337 101.737L156.076 101.675L156.129 99.7519L158.624 99.8201C159.871 99.8542 160.85 100.193 161.561 100.837C162.29 101.463 162.635 102.453 162.599 103.804C162.581 104.463 162.512 105.059 162.394 105.593C162.293 106.111 162.182 106.671 162.062 107.275C161.959 107.861 161.896 108.588 161.872 109.454C161.852 110.199 162.026 110.802 162.395 111.263C162.781 111.707 163.417 111.941 164.3 111.966L165.522 111.999L165.469 113.922L164.248 113.889C163.364 113.865 162.717 114.072 162.306 114.512C161.913 114.935 161.706 115.519 161.686 116.264C161.663 117.113 161.686 117.842 161.756 118.451C161.844 119.06 161.923 119.634 161.995 120.174C162.085 120.696 162.121 121.287 162.103 121.945C162.066 123.297 161.667 124.266 160.905 124.852C160.16 125.456 159.164 125.741 157.917 125.706L155.422 125.638Z" fill="black"/>
</svg>
