<svg width="187" height="164" viewBox="0 0 187 164" fill="none" xmlns="http://www.w3.org/2000/svg">
<rect x="4.33594" width="130" height="51" rx="10" transform="rotate(4.87582 4.33594 0)" fill="#9597C9"/>
<path d="M21.1564 40.3857C19.9129 40.2796 18.9464 39.884 18.2568 39.1989C17.583 38.5326 17.3036 37.5258 17.4185 36.1787C17.4745 35.5225 17.5677 34.9389 17.6983 34.4282C17.8476 33.9016 17.9912 33.3398 18.1291 32.7427C18.2843 32.1471 18.398 31.4261 18.4702 30.5799C18.5335 29.8372 18.385 29.2331 18.0246 28.7674C17.683 28.286 17.0717 28.0077 16.1909 27.9326L14.9733 27.8287L15.1369 25.9117L16.3545 26.0155C17.2353 26.0907 17.8841 25.9286 18.3008 25.5292C18.7364 25.114 18.9858 24.5352 19.0492 23.7925C19.1228 22.929 19.1329 22.1992 19.0794 21.6032C19.0446 20.9913 18.9975 20.4219 18.938 19.895C18.8974 19.3522 18.905 18.7527 18.961 18.0964C19.0759 16.7493 19.5218 15.8045 20.2988 15.2619C21.0944 14.7035 22.114 14.4773 23.3575 14.5834L25.8445 14.7955L25.6809 16.7126L23.4271 16.5203C22.719 16.4599 22.1603 16.5862 21.7508 16.8992C21.3429 17.1949 21.1058 17.7314 21.0395 18.5086C20.9805 19.1994 20.9722 19.8075 21.0143 20.333C21.0752 20.8427 21.126 21.3689 21.1667 21.9117C21.2261 22.4387 21.2241 23.0735 21.1608 23.8161C21.0827 24.7314 20.8193 25.4744 20.3705 26.045C19.9232 26.5983 19.3704 26.96 18.7123 27.13L18.7034 27.2336C19.3233 27.5126 19.806 27.9713 20.1517 28.6097C20.4988 29.2308 20.6334 29.999 20.5553 30.9143C20.4919 31.6569 20.3856 32.2915 20.2363 32.8181C20.1058 33.3288 19.9666 33.8389 19.8188 34.3481C19.6897 34.8416 19.5957 35.4338 19.5367 36.1246C19.4704 36.9018 19.6133 37.4706 19.9652 37.8312C20.3157 38.209 20.845 38.4281 21.5531 38.4885L23.8069 38.6808L23.6434 40.5978L21.1564 40.3857ZM30.1559 36.3259L28.4024 23.2335L30.5526 23.4169L31.572 33.1849L34.5939 23.7617L37.029 23.9694L38.4112 33.7683L41.0704 24.3141L43.2465 24.4998L39.2748 37.1038L37.0469 36.9137L35.5662 26.7411L32.3838 36.516L30.1559 36.3259ZM44.6531 37.5626L44.8122 35.6974L48.1023 35.978L48.8249 27.5068C48.8617 27.075 48.6729 26.8415 48.2584 26.8061L45.9269 26.6072L46.086 24.742L49.2206 25.0094C49.7905 25.058 50.2349 25.2525 50.5538 25.5928C50.8727 25.9332 51.0064 26.4056 50.9548 27.01L50.9084 27.5541L51.012 27.5629C51.293 26.717 51.7383 26.0853 52.348 25.6676C52.9749 25.2514 53.8066 25.0875 54.8428 25.1759L57.2002 25.377L57.0036 27.6826L54.3352 27.455C53.2817 27.3651 52.4398 27.6499 51.8095 28.3094C51.1806 28.9516 50.8198 29.8167 50.727 30.9048L50.2784 36.1637L54.3197 36.5084L54.1606 38.3736L44.6531 37.5626ZM66.9173 24.2227C66.3992 24.1785 65.9822 23.969 65.6662 23.5941C65.3503 23.2192 65.213 22.79 65.2542 22.3064C65.2969 21.8056 65.505 21.4058 65.8784 21.1071C66.2533 20.7912 66.6998 20.6553 67.2179 20.6995C67.7187 20.7422 68.1271 20.951 68.4431 21.3259C68.7778 21.685 68.9238 22.1149 68.881 22.6158C68.8398 23.0994 68.6231 23.4984 68.2309 23.8129C67.8561 24.1288 67.4182 24.2654 66.9173 24.2227ZM60.601 38.923L60.7601 37.0578L64.8533 37.407L65.5759 28.9357C65.6127 28.504 65.4153 28.2697 64.9835 28.2328L61.9784 27.9765L62.1375 26.1113L65.6607 26.4118C67.1978 26.5429 67.9008 27.377 67.7697 28.9141L67.0294 37.5926L71.1225 37.9418L70.9634 39.807L60.601 38.923ZM82.6627 40.805C81.4883 40.7048 80.5887 40.341 79.9637 39.7137C79.3388 39.0863 79.0897 38.0299 79.2164 36.5447L79.8175 29.4983L76.5533 29.2198L76.7124 27.3546L78.6554 27.5203C79.5362 27.5955 80.0825 27.2072 80.2943 26.3554L80.8272 24.3916L82.4333 24.5286L82.1527 27.8187L87.2821 28.2562L87.1229 30.1214L81.9936 29.6839L81.3925 36.7303C81.3306 37.4557 81.4512 37.9791 81.7543 38.3007C82.0747 38.6238 82.6493 38.8207 83.4783 38.8914L86.3539 39.1367L86.1859 41.1056L82.6627 40.805ZM96.9521 42.3371C95.7431 42.234 94.6959 41.8663 93.8104 41.2341C92.9437 40.5861 92.2854 39.7384 91.8355 38.691C91.387 37.6264 91.2202 36.4205 91.3351 35.0734C91.45 33.7263 91.8093 32.574 92.4128 31.6165C93.0352 30.6432 93.8362 29.92 94.816 29.4469C95.7972 28.9565 96.9095 28.7644 98.153 28.8704C99.3965 28.9765 100.434 29.3521 101.267 29.9972C102.1 30.6249 102.711 31.4164 103.099 32.3715C103.488 33.3266 103.637 34.331 103.547 35.3845C103.531 35.5744 103.506 35.7637 103.472 35.9522C103.456 36.1422 103.438 36.358 103.417 36.5998L93.4433 35.749C93.4141 36.7033 93.5622 37.5162 93.8877 38.1876C94.2319 38.8432 94.6843 39.3515 95.245 39.7125C95.8229 40.0749 96.4487 40.2849 97.1222 40.3423C98.0721 40.4234 98.8317 40.2881 99.401 39.9366C99.9702 39.585 100.423 39.067 100.76 38.3824L102.91 38.5659C102.515 39.7325 101.816 40.6905 100.812 41.44C99.8104 42.1721 98.5237 42.4712 96.9521 42.3371ZM97.9355 30.809C96.9338 30.7235 96.0272 30.9506 95.2157 31.4903C94.4215 32.0314 93.8917 32.8386 93.6261 33.9119L101.45 34.5793C101.472 33.5026 101.155 32.6319 100.498 31.967C99.8605 31.2863 99.0062 30.9003 97.9355 30.809ZM107.103 47.7174L107.267 45.8003L109.521 45.9926C110.229 46.053 110.788 45.9267 111.197 45.6137C111.605 45.318 111.842 44.7815 111.908 44.0044C111.967 43.3135 111.966 42.7133 111.905 42.2036C111.863 41.6781 111.812 41.1519 111.753 40.6249C111.712 40.0822 111.724 39.4395 111.787 38.6968C111.865 37.7815 112.128 37.0472 112.575 36.4938C113.024 35.9233 113.577 35.553 114.236 35.383L114.244 35.2793C113.625 35.0003 113.141 34.5502 112.794 33.9292C112.448 33.2908 112.314 32.514 112.393 31.5986C112.456 30.856 112.553 30.2293 112.683 29.7185C112.833 29.192 112.972 28.682 113.101 28.1885C113.249 27.6792 113.352 27.0792 113.411 26.3883C113.477 25.6112 113.335 25.0423 112.983 24.6817C112.632 24.3039 112.103 24.0848 111.395 24.0244L109.141 23.8321L109.304 21.9151L111.791 22.1272C113.035 22.2333 113.993 22.6282 114.665 23.3118C115.356 23.9796 115.644 24.9871 115.529 26.3342C115.473 26.9905 115.371 27.5819 115.221 28.1084C115.091 28.6192 114.948 29.1724 114.793 29.768C114.656 30.3478 114.551 31.0695 114.478 31.9331C114.414 32.6757 114.553 33.2877 114.895 33.7692C115.255 34.2348 115.876 34.5052 116.757 34.5804L117.974 34.6842L117.811 36.6013L116.593 36.4974C115.713 36.4223 115.054 36.5923 114.619 37.0074C114.202 37.4068 113.962 37.9778 113.899 38.7204C113.826 39.5667 113.808 40.2957 113.843 40.9075C113.895 41.5209 113.941 42.0989 113.982 42.6416C114.041 43.1686 114.043 43.7602 113.987 44.4165C113.872 45.7636 113.417 46.7077 112.623 47.2489C111.845 47.8087 110.834 48.0356 109.59 47.9295L107.103 47.7174Z" fill="black"/>
<g clip-path="url(#clip0_3314_9876)">
<rect x="5.89062" y="112.891" width="176" height="51" rx="10" transform="rotate(-5.83661 5.89062 112.891)" fill="#F9D38F"/>
<path d="M29.9249 149.445C28.6834 149.572 27.6601 149.363 26.8552 148.818C26.0693 148.289 25.6076 147.351 25.4701 146.006C25.4031 145.351 25.3863 144.761 25.4196 144.234C25.4685 143.689 25.5051 143.111 25.5297 142.498C25.5714 141.884 25.5491 141.155 25.4627 140.31C25.387 139.568 25.1287 139.002 24.6881 138.612C24.2629 138.202 23.6106 138.042 22.7312 138.132L21.5155 138.256L21.3198 136.342L22.5355 136.218C23.4149 136.128 24.0223 135.848 24.3576 135.378C24.7083 134.89 24.8458 134.274 24.77 133.533C24.6819 132.671 24.5561 131.952 24.3927 131.376C24.2448 130.781 24.0927 130.231 23.9364 129.724C23.7955 129.198 23.6916 128.608 23.6246 127.953C23.4871 126.608 23.7496 125.596 24.4122 124.919C25.0902 124.222 26.0499 123.81 27.2915 123.684L29.7745 123.43L29.9702 125.344L27.7199 125.574C27.0129 125.646 26.4874 125.874 26.1433 126.258C25.7974 126.624 25.6642 127.195 25.7435 127.971C25.814 128.661 25.9188 129.26 26.0579 129.769C26.2125 130.258 26.3602 130.766 26.501 131.291C26.6574 131.798 26.7734 132.422 26.8492 133.164C26.9427 134.078 26.8219 134.857 26.487 135.501C26.1503 136.127 25.6745 136.585 25.0594 136.875L25.0699 136.978C25.7309 137.137 26.2905 137.498 26.7488 138.061C27.2053 138.607 27.4803 139.337 27.5737 140.251C27.6495 140.992 27.663 141.635 27.6142 142.181C27.5808 142.707 27.5389 143.234 27.4883 143.762C27.4532 144.27 27.4709 144.87 27.5414 145.559C27.6207 146.335 27.8668 146.868 28.2796 147.157C28.6942 147.463 29.255 147.58 29.962 147.507L32.2123 147.277L32.408 149.191L29.9249 149.445ZM43.9102 143.181C42.7376 143.3 41.786 143.11 41.0553 142.61C40.3247 142.11 39.8836 141.118 39.732 139.635L39.0128 132.6L35.7538 132.933L35.5634 131.071L37.5033 130.872C38.3827 130.782 38.8473 130.299 38.8972 129.423L39.0557 127.394L40.6593 127.23L40.9951 130.515L46.1164 129.992L46.3068 131.854L41.1855 132.378L41.9046 139.413C41.9787 140.137 42.1945 140.629 42.5521 140.889C42.9269 141.147 43.5282 141.233 44.3559 141.149L47.2269 140.855L47.4278 142.821L43.9102 143.181ZM58.1059 142.043C56.8989 142.166 55.8016 142 54.814 141.543C53.8265 141.087 53.0143 140.386 52.3775 139.44C51.739 138.477 51.3501 137.315 51.2108 135.953C51.0716 134.59 51.2181 133.382 51.6504 132.327C52.081 131.255 52.7336 130.396 53.6084 129.749C54.4831 129.102 55.524 128.717 56.7311 128.593C57.9381 128.47 59.0354 128.636 60.023 129.093C61.0105 129.55 61.8236 130.259 62.4621 131.222C63.0989 132.167 63.4869 133.321 63.6261 134.684C63.7654 136.046 63.6197 137.263 63.1892 138.335C62.7569 139.39 62.1034 140.241 61.2286 140.888C60.3539 141.535 59.313 141.92 58.1059 142.043ZM57.8944 139.974C58.6359 139.898 59.2916 139.666 59.8617 139.276C60.4317 138.887 60.8539 138.33 61.1283 137.605C61.4199 136.878 61.511 135.98 61.4017 134.911C61.2925 133.842 61.0215 132.981 60.5889 132.328C60.1735 131.674 59.6473 131.214 59.0103 130.948C58.3733 130.682 57.684 130.587 56.9426 130.662C56.2183 130.736 55.5712 130.968 55.0012 131.357C54.4312 131.747 54.0003 132.305 53.7087 133.032C53.4171 133.758 53.326 134.656 53.4353 135.725C53.5992 137.329 54.1079 138.47 54.9614 139.15C55.8132 139.812 56.7908 140.087 57.8944 139.974ZM72.9644 136.395C72.0678 136.486 71.2492 136.405 70.5087 136.149L69.7377 137.3C69.5745 137.578 69.5492 137.842 69.6618 138.091C69.79 138.322 70.0523 138.417 70.4489 138.377L73.8373 138.031C75.372 137.874 76.6443 138.049 77.6544 138.555C78.6627 139.044 79.233 139.936 79.3652 141.229C79.4445 142.005 79.3194 142.741 78.9897 143.437C78.6601 144.132 78.0845 144.723 77.2629 145.207C76.4602 145.708 75.3692 146.028 73.9897 146.169C72.1964 146.353 70.7222 146.163 69.5671 145.602C68.412 145.041 67.764 144.07 67.623 142.691C67.5718 142.191 67.645 141.713 67.8423 141.257C68.0586 140.817 68.3398 140.413 68.6856 140.047C68.1538 139.788 67.7959 139.354 67.6117 138.745C67.4448 138.135 67.5719 137.504 67.993 136.851L69.0089 135.283C68.0931 134.506 67.5708 133.488 67.4421 132.229C67.3575 131.401 67.4774 130.614 67.8017 129.866C68.1243 129.101 68.6343 128.465 69.3317 127.959C70.0463 127.45 70.9382 127.141 72.0073 127.032C72.697 126.961 73.3456 126.999 73.953 127.146L78.764 126.655L78.9305 128.284L76.533 128.608L76.5515 128.789C77.0756 129.484 77.3844 130.289 77.4778 131.203C77.5624 132.031 77.4435 132.827 77.1209 133.592C76.8138 134.337 76.3029 134.965 75.5883 135.473C74.8909 135.98 74.0163 136.287 72.9644 136.395ZM72.774 134.533C73.619 134.446 74.2832 134.126 74.7666 133.571C75.2673 133.014 75.4727 132.297 75.3828 131.417C75.2929 130.538 74.9473 129.885 74.3462 129.458C73.7605 129.013 73.0452 128.833 72.2003 128.92C71.3381 129.008 70.6567 129.33 70.156 129.887C69.6536 130.426 69.4473 131.135 69.5372 132.015C69.6271 132.894 69.9735 133.556 70.5764 133.999C71.1793 134.443 71.9119 134.621 72.774 134.533ZM69.7618 142.394C69.8394 143.152 70.2511 143.685 70.9968 143.992C71.7426 144.299 72.6759 144.396 73.7967 144.281C74.883 144.17 75.7404 143.865 76.3689 143.365C77.0145 142.863 77.3003 142.25 77.2263 141.526C77.1681 140.957 76.8774 140.499 76.354 140.152C75.8324 139.822 74.925 139.723 73.6317 139.855L70.709 140.154C69.9912 140.802 69.6755 141.549 69.7618 142.394ZM89.2533 138.859C88.0463 138.983 86.949 138.816 85.9614 138.359C84.9893 137.884 84.1849 137.173 83.5481 136.228C82.9096 135.265 82.5216 134.111 82.3841 132.766C82.2466 131.421 82.3854 130.222 82.8005 129.169C83.231 128.097 83.8837 127.238 84.7584 126.591C85.6314 125.926 86.6886 125.531 87.9302 125.404C89.1717 125.277 90.2612 125.453 91.1988 125.932C92.1347 126.394 92.8821 127.058 93.4411 127.925C94.0001 128.791 94.3333 129.75 94.4408 130.802C94.4602 130.992 94.471 131.182 94.4731 131.374C94.4925 131.563 94.5146 131.779 94.5392 132.02L84.5811 133.038C84.7298 133.981 85.0264 134.752 85.471 135.352C85.9311 135.932 86.4701 136.347 87.0881 136.598C87.7233 136.846 88.3772 136.936 89.0497 136.868C89.9981 136.771 90.7193 136.496 91.2133 136.045C91.7073 135.594 92.0561 135.001 92.2598 134.266L94.4066 134.046C94.2351 135.266 93.726 136.337 92.8795 137.26C92.0312 138.166 90.8225 138.699 89.2533 138.859ZM88.0767 127.349C87.0766 127.451 86.228 127.843 85.531 128.524C84.8512 129.203 84.4807 130.095 84.4193 131.199L92.2306 130.401C92.0523 129.339 91.5788 128.542 90.8102 128.011C90.057 127.46 89.1458 127.24 88.0767 127.349ZM105.946 136.839C104.774 136.959 103.822 136.769 103.091 136.269C102.361 135.768 101.92 134.777 101.768 133.294L101.049 126.258L97.7899 126.591L97.5995 124.729L99.5394 124.531C100.419 124.441 100.883 123.958 100.933 123.082L101.092 121.053L102.695 120.889L103.031 124.174L108.153 123.65L108.343 125.513L103.222 126.036L103.941 133.072C104.015 133.796 104.231 134.288 104.588 134.547C104.963 134.805 105.564 134.892 106.392 134.807L109.263 134.514L109.464 136.48L105.946 136.839ZM114.498 135.965L112.594 117.342L114.767 117.12L115.557 124.854C115.835 124.163 116.349 123.57 117.1 123.076C117.849 122.563 118.698 122.259 119.647 122.162C121.216 122.001 122.454 122.354 123.361 123.22C124.286 124.083 124.836 125.369 125.01 127.076L125.801 134.81L123.628 135.032L122.866 127.583C122.748 126.427 122.372 125.56 121.738 124.98C121.121 124.398 120.312 124.158 119.312 124.261C118.623 124.331 118.009 124.551 117.472 124.919C116.934 125.288 116.524 125.792 116.241 126.43C115.958 127.069 115.861 127.828 115.951 128.708L116.67 135.743L114.498 135.965ZM135.78 134.103C134.573 134.226 133.476 134.06 132.488 133.603C131.516 133.128 130.712 132.417 130.075 131.472C129.437 130.509 129.049 129.355 128.911 128.01C128.774 126.665 128.912 125.466 129.328 124.413C129.758 123.341 130.411 122.482 131.285 121.835C132.158 121.17 133.216 120.775 134.457 120.648C135.699 120.521 136.788 120.697 137.726 121.176C138.662 121.638 139.409 122.302 139.968 123.169C140.527 124.035 140.86 124.994 140.968 126.046C140.987 126.235 140.998 126.426 141 126.617C141.02 126.807 141.042 127.023 141.066 127.264L131.108 128.282C131.257 129.225 131.554 129.996 131.998 130.596C132.458 131.176 132.997 131.591 133.615 131.842C134.25 132.09 134.904 132.18 135.577 132.111C136.525 132.015 137.246 131.74 137.74 131.289C138.234 130.838 138.583 130.245 138.787 129.51L140.934 129.29C140.762 130.51 140.253 131.581 139.407 132.504C138.558 133.41 137.35 133.943 135.78 134.103ZM134.604 122.593C133.604 122.695 132.755 123.087 132.058 123.768C131.378 124.447 131.008 125.339 130.946 126.443L138.758 125.644C138.579 124.582 138.106 123.786 137.337 123.255C136.584 122.704 135.673 122.484 134.604 122.593ZM145.541 132.792L145.351 130.929L148.636 130.594L147.771 122.136C147.727 121.705 147.498 121.51 147.085 121.552L144.757 121.79L144.566 119.928L147.696 119.608C148.265 119.55 148.738 119.659 149.114 119.934C149.491 120.209 149.71 120.648 149.772 121.252L149.827 121.795L149.931 121.784C150.05 120.901 150.37 120.197 150.891 119.674C151.43 119.148 152.217 118.832 153.251 118.727L155.605 118.486L155.84 120.788L153.176 121.06C152.124 121.168 151.35 121.604 150.853 122.369C150.355 123.117 150.161 124.034 150.272 125.121L150.809 130.371L154.844 129.959L155.034 131.821L145.541 132.792ZM162.264 135.917L162.068 134.003L164.318 133.773C165.025 133.701 165.551 133.473 165.895 133.089C166.241 132.723 166.374 132.152 166.295 131.376C166.224 130.686 166.112 130.097 165.957 129.607C165.818 129.099 165.67 128.591 165.514 128.084C165.373 127.558 165.265 126.925 165.189 126.183C165.096 125.269 165.217 124.499 165.554 123.872C165.889 123.228 166.364 122.762 166.979 122.472L166.968 122.369C166.308 122.21 165.749 121.857 165.292 121.312C164.834 120.749 164.558 120.01 164.465 119.096C164.389 118.355 164.368 117.721 164.401 117.195C164.45 116.65 164.492 116.123 164.527 115.614C164.577 115.086 164.568 114.477 164.497 113.788C164.418 113.012 164.172 112.479 163.759 112.19C163.344 111.884 162.783 111.767 162.076 111.84L159.826 112.07L159.63 110.156L162.113 109.902C163.355 109.775 164.37 109.985 165.157 110.531C165.96 111.059 166.431 111.996 166.568 113.341C166.635 113.996 166.644 114.596 166.596 115.141C166.562 115.667 166.525 116.237 166.483 116.851C166.457 117.447 166.488 118.175 166.576 119.037C166.651 119.779 166.902 120.354 167.327 120.764C167.768 121.154 168.428 121.305 169.307 121.215L170.523 121.091L170.719 123.005L169.503 123.129C168.623 123.219 168.008 123.508 167.658 123.997C167.322 124.467 167.193 125.073 167.268 125.814C167.355 126.659 167.472 127.379 167.62 127.973C167.785 128.566 167.938 129.126 168.079 129.652C168.235 130.158 168.347 130.739 168.414 131.394C168.551 132.739 168.28 133.752 167.6 134.431C166.94 135.126 165.988 135.537 164.747 135.664L162.264 135.917Z" fill="black"/>
</g>
<rect x="7.28125" y="54" width="145" height="51" rx="10" transform="rotate(0.312814 7.28125 54)" fill="#F1A695"/>
<path d="M27.2608 92.9198C26.0128 92.913 25.0178 92.5956 24.2759 91.9675C23.5512 91.3569 23.1926 90.3756 23.2 89.0236C23.2036 88.365 23.2501 87.7759 23.3396 87.2564C23.4466 86.7196 23.545 86.1481 23.635 85.5419C23.7423 84.9358 23.7983 84.2081 23.8029 83.3588C23.807 82.6135 23.6109 82.0231 23.2146 81.5876C22.8357 81.1348 22.2043 80.9061 21.3203 80.9012L20.0983 80.8946L20.1088 78.9706L21.3308 78.9773C22.2148 78.9821 22.8486 78.7689 23.2323 78.3376C23.6334 77.8891 23.836 77.2922 23.8401 76.5469C23.8448 75.6803 23.7968 74.952 23.696 74.3621C23.6127 73.755 23.5204 73.1911 23.4193 72.6706C23.3355 72.1328 23.2955 71.5345 23.2991 70.8759C23.3064 69.5239 23.6758 68.5466 24.4071 67.9439C25.1558 67.324 26.1542 67.0174 27.4021 67.0242L29.8981 67.0379L29.8876 68.9618L27.6256 68.9495C26.915 68.9456 26.368 69.1159 25.9848 69.4605C25.6017 69.7878 25.408 70.3414 25.4037 71.1214C25.4 71.8147 25.44 72.4216 25.5238 72.9421C25.6251 73.4453 25.7176 73.9658 25.8013 74.5036C25.9024 75.0242 25.951 75.6571 25.9469 76.4024C25.9419 77.3211 25.7384 78.0826 25.3364 78.6871C24.9346 79.2743 24.4123 79.6788 23.7698 79.9006L23.7692 80.0046C24.4093 80.2334 24.927 80.6523 25.3224 81.2611C25.7178 81.8526 25.913 82.6077 25.908 83.5263C25.904 84.2716 25.8485 84.9127 25.7415 85.4494C25.652 85.969 25.5539 86.4884 25.447 87.0079C25.3576 87.51 25.311 88.1078 25.3072 88.8011C25.303 89.5811 25.4906 90.1368 25.8701 90.4682C26.2496 90.817 26.7946 90.9933 27.5053 90.9971L29.7672 91.0095L29.7567 92.9335L27.2608 92.9198ZM40.691 88.4951C39.5297 88.4888 38.4911 88.2144 37.5754 87.6721C36.677 87.1298 35.9619 86.3546 35.4301 85.3463C34.8983 84.3207 34.6363 83.106 34.644 81.702C34.6516 80.298 34.9269 79.0948 35.4697 78.0924C36.0126 77.0727 36.7448 76.2967 37.6664 75.7644C38.6053 75.2322 39.6381 74.9692 40.7648 74.9753C42.3594 74.984 43.6312 75.3896 44.5802 76.1922C45.5292 76.9947 46.13 78.064 46.3827 79.4L44.1467 79.3878C43.9426 78.676 43.547 78.1105 42.96 77.6913C42.373 77.2548 41.6289 77.0341 40.7276 77.0291C40.0689 77.0255 39.444 77.1955 38.8528 77.5389C38.2615 77.8823 37.782 78.3997 37.4143 79.0911C37.0465 79.7824 36.8597 80.6567 36.8539 81.7141C36.8482 82.7714 37.0253 83.6563 37.3854 84.369C37.7457 85.0643 38.2195 85.5869 38.8069 85.9368C39.3943 86.2867 40.0174 86.4634 40.676 86.467C41.6294 86.4722 42.3845 86.2596 42.9416 85.8293C43.5159 85.3991 43.909 84.8293 44.1209 84.1198L46.3569 84.132C46.0201 85.4995 45.3642 86.5706 44.3893 87.3453C43.4317 88.1201 42.1989 88.5033 40.691 88.4951ZM50.4584 88.2364L50.4686 86.3645L53.7705 86.3825L53.817 77.8806C53.8193 77.4473 53.6125 77.2295 53.1965 77.2272L50.8565 77.2144L50.8668 75.3425L54.0127 75.3596C54.5847 75.3628 55.0432 75.5213 55.3881 75.8352C55.7331 76.149 55.9039 76.6093 55.9006 77.216L55.8976 77.762L56.0016 77.7625C56.2144 76.897 56.608 76.2318 57.1825 75.7669C57.7744 75.3022 58.5904 75.0726 59.6303 75.0783L61.9963 75.0912L61.9837 77.4052L59.3057 77.3906C58.2484 77.3848 57.4318 77.7357 56.8559 78.4432C56.2802 79.1334 55.9893 80.0245 55.9833 81.1165L55.9545 86.3944L60.0104 86.4165L60.0002 88.2885L50.4584 88.2364ZM71.7922 88.6649C70.5789 88.6583 69.5057 88.3751 68.5728 87.8153C67.6573 87.2383 66.9336 86.4457 66.4017 85.4374C65.87 84.4118 65.6078 83.2231 65.6152 81.8711C65.6226 80.5191 65.889 79.3419 66.4145 78.3394C66.9574 77.3197 67.6984 76.535 68.6374 75.9855C69.5765 75.4186 70.67 75.1386 71.918 75.1454C73.166 75.1522 74.2304 75.444 75.1113 76.0208C75.9922 76.5803 76.6642 77.3207 77.1272 78.2419C77.5902 79.1631 77.8188 80.1523 77.813 81.2097C77.8119 81.4003 77.8022 81.5909 77.7839 81.7815C77.7828 81.9722 77.7816 82.1888 77.7803 82.4315L67.7705 82.3769C67.8173 83.3305 68.0296 84.129 68.4074 84.7724C68.8026 85.3985 69.2941 85.8692 69.8817 86.1844C70.4867 86.4997 71.1271 86.6592 71.8031 86.6629C72.7564 86.6681 73.5029 86.4729 74.0424 86.0772C74.5819 85.6814 74.9922 85.129 75.2734 84.4198L77.4314 84.4316C77.1302 85.626 76.5093 86.6366 75.5688 87.4635C74.6284 88.273 73.3695 88.6735 71.7922 88.6649ZM71.8554 77.0951C70.85 77.0896 69.9644 77.3881 69.1984 77.9906C68.4498 78.5932 67.9858 79.44 67.8065 80.531L75.6584 80.5739C75.595 79.4989 75.2096 78.6561 74.5022 78.0455C73.8123 77.4178 72.93 77.1009 71.8554 77.0951ZM86.1598 88.7433C85.1372 88.7378 84.2888 88.5511 83.6148 88.1834C82.9408 87.8158 82.4408 87.3364 82.1147 86.7452C81.7887 86.1368 81.6276 85.4772 81.6315 84.7666C81.6387 83.4493 82.1208 82.4552 83.0778 81.7844C84.0522 81.0964 85.3454 80.7568 86.9574 80.7656L90.4933 80.7849L90.4948 80.5249C90.5071 78.2716 89.4819 77.1393 87.4193 77.128C86.5873 77.1235 85.8843 77.3017 85.3103 77.6625C84.7537 78.0235 84.3952 78.5936 84.235 79.3727L81.999 79.3605C82.0904 78.4943 82.3804 77.7505 82.8692 77.1292C83.3752 76.508 84.0192 76.0348 84.801 75.7097C85.5827 75.3847 86.459 75.2248 87.4296 75.2301C89.2669 75.2401 90.5989 75.7327 91.4256 76.7079C92.2697 77.6659 92.6874 78.9422 92.6787 80.5368L92.6354 88.4667L90.7635 88.4565L90.5924 86.4535L90.4104 86.4525C90.0257 87.0744 89.5113 87.6176 88.8675 88.0821C88.241 88.5294 87.3385 88.7498 86.1598 88.7433ZM86.5603 86.8215C87.3923 86.826 88.0954 86.6305 88.6696 86.235C89.2611 85.8396 89.7059 85.3133 90.0042 84.6563C90.3198 83.9993 90.4797 83.2808 90.484 82.5009L87.13 82.4825C85.9514 82.4761 85.1183 82.6709 84.6308 83.0669C84.1606 83.463 83.9237 83.9904 83.9201 84.6491C83.9164 85.325 84.1389 85.8549 84.5875 86.2387C85.036 86.6225 85.6937 86.8168 86.5603 86.8215ZM104.195 88.5298C103.016 88.5234 102.091 88.2323 101.418 87.6566C100.745 87.081 100.413 86.0478 100.421 84.5571L100.459 77.4852L97.1834 77.4674L97.1936 75.5954L99.1436 75.606C100.028 75.6109 100.541 75.1803 100.685 74.3144L101.06 72.3144L102.672 72.3232L102.654 75.6252L107.801 75.6533L107.791 77.5253L102.643 77.4972L102.605 84.5691C102.601 85.2971 102.763 85.8093 103.09 86.1057C103.435 86.4023 104.024 86.5528 104.856 86.5574L107.742 86.5731L107.731 88.5491L104.195 88.5298ZM118.561 88.9202C117.348 88.9136 116.275 88.6304 115.342 88.0707C114.426 87.4937 113.702 86.701 113.171 85.6928C112.639 84.6672 112.377 83.4784 112.384 82.1264C112.391 80.7744 112.658 79.5972 113.183 78.5947C113.726 77.575 114.467 76.7904 115.406 76.2408C116.345 75.674 117.439 75.3939 118.687 75.4007C119.935 75.4075 120.999 75.6994 121.88 76.2762C122.761 76.8357 123.433 77.576 123.896 78.4972C124.359 79.4184 124.588 80.4077 124.582 81.465C124.581 81.6557 124.571 81.8463 124.553 82.0369C124.552 82.2275 124.55 82.4442 124.549 82.6868L114.539 82.6322C114.586 83.5858 114.798 84.3843 115.176 85.0277C115.571 85.6539 116.063 86.1246 116.651 86.4398C117.255 86.7551 117.896 86.9146 118.572 86.9183C119.525 86.9235 120.272 86.7282 120.811 86.3325C121.351 85.9368 121.761 85.3843 122.042 84.6752L124.2 84.687C123.899 85.8813 123.278 86.892 122.338 87.7188C121.397 88.5284 120.138 88.9289 118.561 88.9202ZM118.624 77.3504C117.619 77.3449 116.733 77.6434 115.967 78.2459C115.219 78.8485 114.755 79.6953 114.575 80.7864L122.427 80.8292C122.364 79.7542 121.978 78.9114 121.271 78.3009C120.581 77.6731 119.699 77.3563 118.624 77.3504ZM129.108 93.4759L129.119 91.5519L131.381 91.5643C132.091 91.5682 132.638 91.3978 133.021 91.0532C133.405 90.726 133.598 90.1724 133.603 89.3924C133.606 88.6991 133.558 88.1008 133.456 87.5975C133.372 87.0771 133.28 86.5566 133.179 86.036C133.095 85.4982 133.055 84.8567 133.059 84.1113C133.064 83.1927 133.268 82.4398 133.67 81.8526C134.072 81.2481 134.594 80.835 135.236 80.6132L135.237 80.5092C134.597 80.2803 134.079 79.8702 133.684 79.2787C133.288 78.6698 133.093 77.9061 133.098 76.9874C133.102 76.2421 133.149 75.6097 133.239 75.0902C133.346 74.5534 133.444 74.0339 133.533 73.5318C133.64 73.0123 133.695 72.406 133.699 71.7126C133.703 70.9326 133.516 70.377 133.136 70.0455C132.757 69.6968 132.212 69.5205 131.501 69.5166L129.239 69.5043L129.25 67.5803L131.745 67.5939C132.993 67.6007 133.98 67.9181 134.704 68.5461C135.446 69.1568 135.814 70.1382 135.806 71.4901C135.803 72.1488 135.747 72.7465 135.64 73.2833C135.551 73.8028 135.453 74.3656 135.345 74.9717C135.255 75.5605 135.208 76.2883 135.203 77.1549C135.199 77.9003 135.387 78.4993 135.766 78.952C136.162 79.3875 136.802 79.6077 137.686 79.6125L138.908 79.6192L138.897 81.5432L137.675 81.5365C136.791 81.5317 136.149 81.7535 135.748 82.202C135.364 82.6332 135.17 83.2215 135.166 83.9668C135.162 84.8162 135.201 85.5444 135.284 86.1515C135.385 86.7587 135.477 87.3312 135.561 87.869C135.662 88.3896 135.711 88.9792 135.707 89.6379C135.7 90.9898 135.322 91.9671 134.573 92.5697C133.842 93.1897 132.852 93.4963 131.604 93.4895L129.108 93.4759Z" fill="black"/>
<defs>
<clipPath id="clip0_3314_9876">
<rect x="5.89062" y="112.891" width="176" height="51" rx="10" transform="rotate(-5.83661 5.89062 112.891)" fill="white"/>
</clipPath>
</defs>
</svg>
