<svg width="227" height="158" viewBox="0 0 227 158" fill="none" xmlns="http://www.w3.org/2000/svg">
<rect x="26" y="9.02344" width="130" height="51" rx="10" transform="rotate(-3.97942 26 9.02344)" fill="#F9D38F"/>
<path d="M48.837 46.338C47.592 46.4247 46.5761 46.1826 45.7892 45.6118C45.0209 45.0571 44.5898 44.1054 44.496 42.7567C44.4502 42.0996 44.4526 41.5087 44.5029 40.9839C44.5694 40.4407 44.6248 39.8634 44.6692 39.2522C44.7308 38.6398 44.7322 37.9099 44.6732 37.0626C44.6215 36.3191 44.3817 35.745 43.954 35.3404C43.5423 34.9173 42.8955 34.7364 42.0136 34.7977L40.7946 34.8825L40.6611 32.9632L41.8801 32.8784C42.762 32.817 43.3781 32.557 43.7284 32.0982C44.0949 31.621 44.2522 31.0106 44.2005 30.2671C44.1403 29.4025 44.0379 28.6798 43.8933 28.0992C43.7647 27.5 43.6305 26.9446 43.4907 26.4331C43.367 25.903 43.2822 25.3095 43.2365 24.6524C43.1427 23.3037 43.4378 22.3014 44.122 21.6457C44.8222 20.9715 45.7948 20.5911 47.0398 20.5045L49.5298 20.3313L49.6633 22.2506L47.4068 22.4076C46.6978 22.4569 46.1652 22.6677 45.8088 23.04C45.4513 23.395 45.2995 23.9616 45.3537 24.7397C45.4018 25.4314 45.4871 26.0336 45.6097 26.5463C45.7483 27.0405 45.8795 27.5527 46.0032 28.0827C46.1431 28.5942 46.2389 29.2217 46.2906 29.9653C46.3543 30.8817 46.2084 31.6564 45.8528 32.2893C45.496 32.9048 45.0055 33.3473 44.3814 33.6166L44.3886 33.7203C45.044 33.9006 45.5916 34.2795 46.0314 34.8571C46.47 35.4173 46.7212 36.1557 46.785 37.0721C46.8367 37.8156 46.8293 38.459 46.7629 39.0023C46.7125 39.5271 46.6535 40.0524 46.5858 40.5784C46.5342 41.0858 46.5325 41.6854 46.5806 42.3771C46.6348 43.1552 46.8635 43.6953 47.2667 43.9974C47.6712 44.3167 48.2279 44.4518 48.9369 44.4024L51.1934 44.2455L51.3269 46.1648L48.837 46.338ZM57.1042 40.9413L53.3561 28.2749L55.5089 28.1251L58.0199 37.6197L59.5552 27.8436L61.9933 27.674L64.8674 37.1434L66.0395 27.3925L68.2182 27.241L66.2341 40.3062L64.0035 40.4613L60.9745 30.6379L59.3348 40.7861L57.1042 40.9413ZM71.619 39.9316L71.4891 38.0641L74.7831 37.8349L74.1931 29.3534C74.163 28.9211 73.9405 28.7194 73.5255 28.7483L71.1911 28.9107L71.0612 27.0432L74.1996 26.8249C74.7702 26.7852 75.2393 26.9089 75.6068 27.1961C75.9743 27.4833 76.179 27.9295 76.2211 28.5347L76.259 29.0794L76.3628 29.0722C76.5101 28.1932 76.8529 27.5004 77.391 26.9938C77.9465 26.486 78.7429 26.1961 79.7804 26.1239L82.1407 25.9597L82.3013 28.2681L79.6298 28.454C78.575 28.5273 77.7869 28.9383 77.2656 29.687C76.7431 30.4184 76.5198 31.3287 76.5956 32.4181L76.9618 37.6834L81.0081 37.4019L81.138 39.2694L71.619 39.9316ZM91.5643 23.3234C91.0456 23.3594 90.6013 23.2166 90.2314 22.8948C89.8615 22.5731 89.6597 22.1701 89.626 21.6859C89.5911 21.1845 89.7352 20.7574 90.0582 20.4048C90.3799 20.035 90.8002 19.832 91.3189 19.7959C91.8204 19.761 92.2561 19.9044 92.6259 20.2262C93.0119 20.5295 93.2224 20.9319 93.2572 21.4333C93.2909 21.9175 93.1382 22.3451 92.7992 22.7162C92.4774 23.0861 92.0658 23.2885 91.5643 23.3234ZM87.5862 38.8208L87.4563 36.9533L91.5544 36.6682L90.9644 28.1867C90.9343 27.7544 90.7031 27.5533 90.2708 27.5834L87.2621 27.7927L87.1322 25.9252L90.6597 25.6798C92.1986 25.5728 93.0216 26.2887 93.1287 27.8276L93.7331 36.5166L97.8312 36.2316L97.9612 38.099L87.5862 38.8208ZM109.675 37.2842C108.499 37.366 107.554 37.145 106.84 36.6213C106.126 36.0976 105.717 35.0922 105.614 33.6051L105.123 26.5502L101.855 26.7775L101.725 24.9101L103.67 24.7747C104.552 24.7134 105.032 24.2456 105.11 23.3714L105.334 21.349L106.942 21.2371L107.172 24.5311L112.307 24.1739L112.437 26.0414L107.302 26.3986L107.792 33.4536C107.843 34.1798 108.043 34.6785 108.392 34.9496C108.758 35.2195 109.356 35.3256 110.186 35.2678L113.065 35.0676L113.202 37.0388L109.675 37.2842ZM124.03 36.5983C122.819 36.6825 121.728 36.4804 120.756 35.9921C119.799 35.4852 119.018 34.749 118.413 33.7833C117.806 32.8004 117.455 31.6346 117.361 30.2859C117.268 28.9371 117.445 27.7433 117.894 26.7043C118.359 25.6468 119.039 24.8089 119.935 24.1906C120.829 23.555 121.898 23.1939 123.143 23.1073C124.388 23.0207 125.471 23.232 126.393 23.7413C127.313 24.2333 128.039 24.9213 128.569 25.8052C129.1 26.6892 129.402 27.6586 129.475 28.7134C129.489 28.9036 129.493 29.0944 129.489 29.2858C129.502 29.476 129.517 29.6922 129.534 29.9342L119.548 30.6289C119.667 31.5763 119.938 32.3567 120.363 32.97C120.804 33.5649 121.329 33.9975 121.939 34.2678C122.566 34.537 123.216 34.6481 123.891 34.6012C124.842 34.535 125.571 34.2844 126.08 33.8494C126.588 33.4144 126.956 32.8328 127.183 32.1046L129.336 31.9549C129.125 33.1684 128.582 34.2227 127.706 35.1176C126.828 35.9953 125.603 36.4889 124.03 36.5983ZM123.227 25.0562C122.224 25.126 121.363 25.4899 120.644 26.1481C119.943 26.805 119.543 27.6842 119.446 28.7856L127.279 28.2406C127.136 27.1734 126.688 26.3618 125.937 25.8059C125.202 25.2315 124.299 24.9816 123.227 25.0562ZM134.888 40.3518L134.755 38.4325L137.011 38.2755C137.72 38.2262 138.253 38.0154 138.609 37.6431C138.967 37.2881 139.118 36.7215 139.064 35.9434C139.016 35.2517 138.923 34.6588 138.784 34.1645C138.662 33.6518 138.53 33.1397 138.39 32.6281C138.267 32.0981 138.179 31.4613 138.127 30.7178C138.064 29.8013 138.21 29.0353 138.567 28.4197C138.922 27.7869 139.412 27.3358 140.036 27.0665L140.029 26.9627C139.374 26.7825 138.827 26.4122 138.388 25.852C137.948 25.2744 137.697 24.5274 137.633 23.611C137.581 22.8674 137.58 22.2333 137.631 21.7085C137.697 21.1653 137.756 20.6399 137.808 20.1324C137.876 19.6065 137.885 18.9977 137.837 18.306C137.783 17.5279 137.554 16.9878 137.151 16.6857C136.747 16.3663 136.19 16.2313 135.481 16.2806L133.224 16.4376L133.091 14.5183L135.581 14.345C136.826 14.2584 137.833 14.5011 138.603 15.0731C139.388 15.6266 139.828 16.5777 139.922 17.9264C139.968 18.5835 139.957 19.1837 139.891 19.7269C139.84 20.2517 139.784 20.8203 139.723 21.4327C139.677 22.0266 139.684 22.7559 139.745 23.6204C139.796 24.364 140.028 24.9473 140.44 25.3704C140.868 25.775 141.522 25.9467 142.404 25.8853L143.623 25.8005L143.757 27.7199L142.538 27.8047C141.656 27.866 141.032 28.1353 140.665 28.6126C140.315 29.0713 140.166 29.6725 140.217 30.416C140.276 31.2633 140.37 31.9865 140.499 32.5857C140.644 33.1837 140.779 33.7477 140.903 34.2777C141.043 34.7893 141.136 35.3736 141.181 36.0307C141.275 37.3794 140.971 38.3822 140.27 39.0392C139.587 39.7122 138.623 40.092 137.378 40.1786L134.888 40.3518Z" fill="black"/>
<g clip-path="url(#clip0_3314_14557)">
<rect x="0.476562" y="106.258" width="223" height="51" rx="10" transform="rotate(-4.10355 0.476562 106.258)" fill="#80CB9C"/>
<path d="M23.3936 143.524C22.1488 143.613 21.1324 143.373 20.3443 142.804C19.5748 142.251 19.1416 141.3 19.0449 139.952C18.9977 139.295 18.9988 138.704 19.048 138.179C19.1133 137.636 19.1674 137.058 19.2105 136.447C19.2708 135.835 19.2706 135.105 19.2098 134.258C19.1565 133.514 18.9155 132.941 18.4868 132.537C18.0742 132.115 17.427 131.935 16.5453 131.998L15.3264 132.086L15.1888 130.167L16.4076 130.079C17.2894 130.016 17.9049 129.755 18.2542 129.295C18.6196 128.817 18.7757 128.206 18.7223 127.463C18.6603 126.599 18.5564 125.876 18.4104 125.296C18.2806 124.697 18.1452 124.142 18.0042 123.631C17.8793 123.101 17.7933 122.507 17.7462 121.85C17.6495 120.502 17.9424 119.499 18.6252 118.842C19.3239 118.166 20.2957 117.784 21.5405 117.694L24.0301 117.516L24.1678 119.435L21.9116 119.597C21.2027 119.647 20.6706 119.859 20.315 120.232C19.9582 120.588 19.8077 121.155 19.8635 121.933C19.9132 122.625 19.9998 123.227 20.1234 123.739C20.2632 124.233 20.3955 124.745 20.5203 125.275C20.6613 125.786 20.7584 126.413 20.8118 127.157C20.8775 128.073 20.7333 128.848 20.379 129.482C20.0236 130.098 19.534 130.541 18.9105 130.812L18.9179 130.916C19.5737 131.095 20.1222 131.472 20.5632 132.049C21.003 132.608 21.2558 133.346 21.3216 134.262C21.3749 135.006 21.3689 135.649 21.3036 136.193C21.2544 136.718 21.1965 137.243 21.13 137.769C21.0795 138.277 21.0791 138.876 21.1287 139.568C21.1845 140.346 21.4144 140.885 21.8183 141.187C22.2235 141.505 22.7805 141.639 23.4893 141.588L25.7455 141.426L25.8832 143.345L23.3936 143.524ZM36.4432 138.078C35.2849 138.161 34.2283 137.968 33.2735 137.497C32.3361 137.026 31.5634 136.308 30.9555 135.344C30.3463 134.362 29.9915 133.171 29.8911 131.771C29.7906 130.37 29.9724 129.15 30.4364 128.108C30.8992 127.05 31.5695 126.22 32.4473 125.618C33.3425 125.015 34.352 124.673 35.4757 124.593C37.0663 124.479 38.3656 124.785 39.3735 125.512C40.3815 126.239 41.0629 127.259 41.4177 128.572L39.1874 128.732C38.9291 128.038 38.4912 127.504 37.8736 127.132C37.2547 126.742 36.4958 126.579 35.5968 126.643C34.9398 126.691 34.3298 126.908 33.7668 127.296C33.2038 127.684 32.7655 128.237 32.4521 128.954C32.1386 129.672 32.0197 130.558 32.0954 131.613C32.1711 132.667 32.4159 133.536 32.8298 134.219C33.2425 134.884 33.7551 135.369 34.3677 135.672C34.9804 135.976 35.6152 136.104 36.2722 136.057C37.223 135.989 37.9596 135.719 38.4818 135.247C39.0214 134.774 39.3694 134.175 39.526 133.452L41.7563 133.292C41.5258 134.681 40.9544 135.799 40.042 136.647C39.1469 137.493 37.9473 137.97 36.4432 138.078ZM51.7856 136.977C50.5754 137.064 49.4836 136.865 48.5103 136.378C47.5371 135.892 46.7465 135.167 46.1386 134.202C45.5294 133.221 45.1759 132.047 45.0779 130.681C44.9799 129.315 45.1629 128.112 45.6269 127.071C46.0897 126.012 46.768 125.173 47.6619 124.553C48.5559 123.932 49.6079 123.579 50.8181 123.492C52.0284 123.405 53.1201 123.605 54.0934 124.091C55.0667 124.577 55.8579 125.311 56.4671 126.293C57.075 127.257 57.4279 128.422 57.5259 129.788C57.6239 131.154 57.4415 132.366 56.9787 133.425C56.5147 134.466 55.8357 135.297 54.9418 135.917C54.0479 136.537 52.9958 136.891 51.7856 136.977ZM51.6368 134.903C52.3802 134.849 53.0427 134.637 53.6242 134.265C54.2058 133.893 54.6446 133.349 54.9408 132.632C55.2542 131.915 55.3725 131.02 55.2956 129.948C55.2187 128.876 54.9739 128.008 54.5612 127.342C54.1658 126.675 53.6538 126.199 53.0251 125.914C52.3965 125.629 51.7104 125.513 50.967 125.567C50.2408 125.619 49.587 125.831 49.0055 126.203C48.4239 126.575 47.9764 127.119 47.663 127.837C47.3495 128.555 47.2312 129.449 47.3081 130.521C47.4235 132.129 47.8975 133.286 48.73 133.99C49.5614 134.678 50.5303 134.982 51.6368 134.903ZM61.4782 135.969L61.3442 134.102L65.7269 133.788L64.7018 119.498C64.6708 119.066 64.4392 118.865 64.0069 118.897L60.7393 119.131L60.6054 117.264L64.3916 116.992C65.1351 116.939 65.7199 117.097 66.146 117.466C66.5722 117.835 66.812 118.391 66.8653 119.135L67.9053 133.631L72.2881 133.317L72.422 135.184L61.4782 135.969ZM77.028 134.854L76.8941 132.986L81.2768 132.672L80.2517 118.383C80.2207 117.951 79.989 117.75 79.5568 117.781L76.2892 118.015L76.1553 116.148L79.9415 115.876C80.6849 115.823 81.2697 115.981 81.6959 116.35C82.1221 116.719 82.3618 117.276 82.4152 118.019L83.4552 132.516L87.838 132.201L87.9719 134.068L77.028 134.854ZM97.346 133.709C96.326 133.782 95.4658 133.661 94.7655 133.346C94.0652 133.032 93.5297 132.592 93.159 132.028C92.7871 131.447 92.5758 130.801 92.5249 130.092C92.4306 128.779 92.8348 127.75 93.7373 127.008C94.6558 126.247 95.9191 125.809 97.5269 125.693L101.054 125.44L101.035 125.181C100.874 122.933 99.7647 121.883 97.7073 122.031C96.8775 122.09 96.1903 122.322 95.6458 122.726C95.1186 123.129 94.8051 123.725 94.7053 124.514L92.475 124.674C92.4995 123.804 92.7314 123.04 93.1708 122.382C93.6276 121.724 94.2331 121.203 94.9876 120.818C95.742 120.434 96.6033 120.207 97.5715 120.138C99.4041 120.006 100.77 120.395 101.669 121.304C102.585 122.194 103.1 123.434 103.214 125.025L103.781 132.934L101.914 133.068L101.589 131.084L101.408 131.097C101.072 131.747 100.601 132.328 99.9947 132.841C99.4046 133.335 98.5217 133.624 97.346 133.709ZM97.5974 131.762C98.4272 131.702 99.1132 131.453 99.6552 131.015C100.214 130.575 100.618 130.016 100.864 129.338C101.128 128.658 101.232 127.93 101.177 127.152L97.8313 127.392C96.6556 127.476 95.84 127.735 95.3844 128.167C94.9462 128.598 94.7506 129.142 94.7977 129.799C94.8461 130.473 95.1087 130.985 95.5855 131.333C96.0623 131.681 96.7329 131.824 97.5974 131.762ZM114.426 132.483C113.441 132.554 112.588 132.415 111.868 132.067C111.164 131.701 110.622 131.175 110.243 130.49L110.087 130.501L109.995 132.488L108.206 132.617L106.866 113.945L109.044 113.789L109.593 121.439C109.881 120.845 110.355 120.307 111.015 119.825C111.693 119.342 112.508 119.066 113.459 118.998C114.565 118.919 115.56 119.108 116.445 119.566C117.329 120.024 118.049 120.737 118.605 121.705C119.161 122.673 119.491 123.874 119.594 125.309C119.698 126.761 119.545 128.015 119.134 129.07C118.722 130.107 118.102 130.916 117.275 131.497C116.465 132.076 115.515 132.405 114.426 132.483ZM113.992 130.429C115.081 130.351 115.944 129.907 116.581 129.096C117.234 128.268 117.504 127.067 117.391 125.493C117.279 123.92 116.84 122.778 116.077 122.069C115.33 121.34 114.411 121.015 113.322 121.093C112.233 121.171 111.362 121.625 110.709 122.454C110.054 123.265 109.784 124.458 109.897 126.031C110.01 127.604 110.448 128.754 111.213 129.482C111.976 130.191 112.903 130.507 113.992 130.429ZM129.535 131.399C128.325 131.486 127.233 131.287 126.26 130.8C125.286 130.314 124.496 129.589 123.888 128.624C123.279 127.643 122.925 126.469 122.827 125.103C122.729 123.737 122.912 122.534 123.376 121.493C123.839 120.434 124.517 119.595 125.411 118.975C126.305 118.354 127.357 118.001 128.568 117.914C129.778 117.827 130.869 118.027 131.843 118.513C132.816 119 133.607 119.733 134.216 120.715C134.824 121.679 135.177 122.844 135.275 124.21C135.373 125.576 135.191 126.788 134.728 127.847C134.264 128.888 133.585 129.719 132.691 130.339C131.797 130.959 130.745 131.313 129.535 131.399ZM129.386 129.325C130.13 129.271 130.792 129.059 131.374 128.687C131.955 128.315 132.394 127.771 132.69 127.054C133.004 126.337 133.122 125.442 133.045 124.37C132.968 123.298 132.723 122.43 132.311 121.764C131.915 121.097 131.403 120.621 130.775 120.336C130.146 120.051 129.46 119.935 128.716 119.989C127.99 120.041 127.336 120.253 126.755 120.625C126.173 120.997 125.726 121.541 125.412 122.259C125.099 122.977 124.981 123.871 125.058 124.943C125.173 126.551 125.647 127.708 126.479 128.412C127.311 129.1 128.28 129.404 129.386 129.325ZM139.461 130.374L139.327 128.507L142.621 128.271L142.012 119.791C141.981 119.359 141.758 119.157 141.343 119.187L139.009 119.355L138.875 117.487L142.013 117.262C142.584 117.221 143.053 117.344 143.421 117.63C143.789 117.917 143.995 118.363 144.038 118.968L144.077 119.512L144.181 119.505C144.327 118.626 144.668 117.932 145.205 117.424C145.759 116.915 146.555 116.624 147.592 116.549L149.952 116.38L150.118 118.688L147.447 118.88C146.392 118.955 145.605 119.368 145.085 120.118C144.564 120.85 144.343 121.761 144.421 122.85L144.799 128.115L148.845 127.824L148.978 129.692L139.461 130.374ZM159.546 129.246C158.526 129.32 157.665 129.199 156.965 128.884C156.265 128.569 155.729 128.13 155.359 127.566C154.987 126.984 154.775 126.339 154.724 125.63C154.63 124.316 155.034 123.288 155.937 122.545C156.855 121.784 158.119 121.346 159.726 121.231L163.253 120.978L163.235 120.719C163.074 118.471 161.964 117.421 159.907 117.569C159.077 117.628 158.39 117.86 157.845 118.264C157.318 118.667 157.005 119.263 156.905 120.052L154.675 120.212C154.699 119.341 154.931 118.577 155.37 117.92C155.827 117.262 156.433 116.74 157.187 116.356C157.942 115.972 158.803 115.745 159.771 115.675C161.604 115.544 162.97 115.933 163.869 116.841C164.784 117.731 165.299 118.972 165.413 120.562L165.981 128.472L164.113 128.606L163.789 126.622L163.607 126.635C163.271 127.285 162.8 127.866 162.194 128.379C161.604 128.873 160.721 129.162 159.546 129.246ZM159.797 127.299C160.627 127.24 161.313 126.991 161.855 126.552C162.414 126.112 162.817 125.553 163.064 124.875C163.328 124.196 163.432 123.467 163.376 122.689L160.031 122.929C158.855 123.014 158.04 123.272 157.584 123.705C157.146 124.136 156.95 124.68 156.997 125.337C157.046 126.011 157.308 126.522 157.785 126.87C158.262 127.218 158.932 127.361 159.797 127.299ZM177.511 127.645C176.335 127.729 175.39 127.51 174.675 126.988C173.959 126.466 173.548 125.461 173.442 123.974L172.936 116.921L169.668 117.155L169.534 115.288L171.479 115.148C172.361 115.085 172.84 114.616 172.916 113.742L173.136 111.719L174.744 111.604L174.98 114.897L180.115 114.529L180.249 116.396L175.114 116.764L175.62 123.818C175.672 124.544 175.873 125.043 176.223 125.313C176.59 125.582 177.188 125.687 178.018 125.627L180.896 125.421L181.038 127.392L177.511 127.645ZM191.864 126.928C190.654 127.015 189.562 126.815 188.589 126.329C187.632 125.824 186.849 125.089 186.241 124.125C185.632 123.143 185.279 121.978 185.182 120.63C185.086 119.281 185.261 118.087 185.707 117.047C186.17 115.988 186.848 115.149 187.742 114.529C188.635 113.891 189.704 113.528 190.949 113.439C192.193 113.349 193.277 113.558 194.2 114.066C195.121 114.556 195.848 115.242 196.381 116.125C196.913 117.008 197.217 117.976 197.293 119.031C197.307 119.221 197.312 119.412 197.308 119.603C197.322 119.794 197.337 120.01 197.355 120.252L187.37 120.968C187.49 121.915 187.763 122.695 188.19 123.307C188.632 123.901 189.158 124.333 189.768 124.602C190.396 124.87 191.047 124.979 191.721 124.931C192.672 124.863 193.401 124.61 193.908 124.174C194.416 123.738 194.782 123.156 195.008 122.427L197.161 122.273C196.952 123.487 196.411 124.542 195.537 125.439C194.662 126.319 193.437 126.815 191.864 126.928ZM191.036 115.387C190.033 115.459 189.173 115.825 188.456 116.485C187.756 117.143 187.359 118.023 187.264 119.125L195.096 118.563C194.95 117.496 194.501 116.685 193.748 116.131C193.012 115.558 192.108 115.31 191.036 115.387ZM202.731 130.658L202.593 128.739L204.849 128.577C205.558 128.526 206.09 128.314 206.446 127.941C206.803 127.585 206.953 127.018 206.897 126.24C206.848 125.549 206.753 124.956 206.613 124.462C206.49 123.949 206.357 123.438 206.216 122.926C206.092 122.397 206.002 121.76 205.949 121.017C205.883 120.1 206.028 119.334 206.384 118.718C206.738 118.084 207.227 117.632 207.85 117.361L207.843 117.257C207.187 117.079 206.639 116.71 206.2 116.15C205.758 115.574 205.505 114.827 205.439 113.911C205.386 113.168 205.384 112.533 205.433 112.008C205.498 111.465 205.556 110.94 205.607 110.432C205.673 109.906 205.682 109.297 205.632 108.606C205.576 107.828 205.346 107.288 204.943 106.987C204.537 106.668 203.98 106.534 203.272 106.585L201.015 106.747L200.878 104.828L203.367 104.649C204.612 104.56 205.62 104.801 206.391 105.371C207.177 105.923 207.619 106.873 207.716 108.221C207.763 108.878 207.754 109.479 207.689 110.022C207.64 110.547 207.585 111.116 207.524 111.728C207.48 112.322 207.489 113.051 207.551 113.916C207.604 114.659 207.837 115.242 208.25 115.664C208.679 116.068 209.334 116.238 210.216 116.175L211.434 116.087L211.572 118.007L210.353 118.094C209.472 118.157 208.848 118.428 208.483 118.906C208.133 119.365 207.985 119.967 208.039 120.71C208.099 121.558 208.195 122.281 208.325 122.879C208.472 123.477 208.608 124.041 208.733 124.571C208.874 125.082 208.968 125.666 209.015 126.323C209.111 127.671 208.81 128.675 208.11 129.333C207.428 130.008 206.465 130.39 205.22 130.479L202.731 130.658Z" fill="black"/>
</g>
<rect x="36.6328" y="49.0078" width="130" height="51" rx="10" transform="rotate(2.96178 36.6328 49.0078)" fill="#DADBEB"/>
<path d="M54.7927 88.8084C53.5463 88.7439 52.5671 88.3809 51.855 87.7192C51.1593 87.0757 50.8464 86.0789 50.9163 84.7287C50.9503 84.0709 51.024 83.4846 51.1375 82.9698C51.2691 82.4385 51.3939 81.8722 51.5118 81.2708C51.647 80.6703 51.7365 79.946 51.7804 79.0978C51.8189 78.3535 51.6503 77.7546 51.2745 77.3013C50.917 76.8315 50.2968 76.5738 49.414 76.5281L48.1936 76.465L48.2931 74.5435L49.5134 74.6067C50.3962 74.6523 51.0393 74.4687 51.4425 74.0556C51.8639 73.6261 52.0939 73.0392 52.1324 72.2949C52.1771 71.4294 52.1628 70.6997 52.0894 70.1058C52.0342 69.4954 51.9681 68.9279 51.8911 68.4032C51.8323 67.8621 51.82 67.2627 51.854 66.6049C51.9239 65.2547 52.338 64.2955 53.0963 63.7273C53.8729 63.1426 54.8844 62.8825 56.1307 62.947L58.6234 63.076L58.524 64.9974L56.265 64.8805C55.5553 64.8438 55.001 64.9887 54.6023 65.3152C54.2045 65.6244 53.9854 66.1685 53.9451 66.9474C53.9093 67.6398 53.9212 68.2479 53.9809 68.7717C54.0588 69.2791 54.1271 69.8033 54.1859 70.3444C54.2629 70.8691 54.2821 71.5036 54.2436 72.2479C54.1961 73.1654 53.9577 73.9167 53.5282 74.502C53.0996 75.0699 52.5593 75.4498 51.9071 75.6417L51.9018 75.7456C52.5306 76.0038 53.0284 76.4461 53.3952 77.0725C53.7629 77.6817 53.923 78.445 53.8755 79.3624C53.837 80.1067 53.7519 80.7445 53.6203 81.2758C53.5069 81.7906 53.3848 82.305 53.2541 82.8189C53.1416 83.3164 53.0674 83.9114 53.0316 84.6038C52.9913 85.3828 53.153 85.9465 53.5168 86.2951C53.8797 86.661 54.4161 86.8624 55.1258 86.8991L57.3847 87.016L57.2853 88.9374L54.7927 88.8084ZM69.5716 84.7566C68.3945 84.6957 67.4832 84.3622 66.8377 83.756C66.1921 83.1499 65.9079 82.1024 65.9849 80.6138L66.3503 73.5512L63.0787 73.3819L63.1754 71.5124L65.1228 71.6132C66.0056 71.6589 66.5386 71.2525 66.7219 70.3942L67.1889 68.4137L68.7987 68.497L68.6281 71.7946L73.7692 72.0606L73.6725 73.9301L68.5314 73.6641L68.166 80.7266C68.1283 81.4536 68.2664 81.9728 68.58 82.2841C68.911 82.5963 69.492 82.7739 70.3228 82.8169L73.205 82.966L73.1029 84.9393L69.5716 84.7566ZM83.9041 85.8106C82.6924 85.7479 81.6335 85.4154 80.7274 84.8131C79.8396 84.1944 79.1533 83.3692 78.6686 82.3374C78.1848 81.2884 77.9779 80.0887 78.0477 78.7386C78.1176 77.3884 78.4381 76.2247 79.0094 75.2476C79.5988 74.254 80.3753 73.5045 81.3387 72.9989C82.303 72.4761 83.4083 72.2469 84.6546 72.3113C85.901 72.3758 86.9508 72.7165 87.804 73.3334C88.6582 73.933 89.2952 74.7037 89.7151 75.6453C90.135 76.5869 90.3177 77.5857 90.2631 78.6416C90.2532 78.832 90.2347 79.022 90.2075 79.2115C90.1977 79.4019 90.1865 79.6183 90.1739 79.8606L80.1773 79.3434C80.18 80.2981 80.3552 81.1056 80.7029 81.7658C81.0687 82.4096 81.5379 82.9025 82.1103 83.2445C82.7001 83.5874 83.3325 83.7763 84.0076 83.8113C84.9596 83.8605 85.7143 83.7 86.2715 83.3296C86.8287 82.9592 87.2642 82.4264 87.5778 81.731L89.733 81.8425C89.3769 83.0216 88.71 84.0025 87.7322 84.785C86.7554 85.5502 85.4794 85.8921 83.9041 85.8106ZM84.502 74.2561C83.498 74.2041 82.5995 74.4614 81.8065 75.0278C81.0308 75.5952 80.5282 76.4196 80.2987 77.5012L88.1402 77.9069C88.1265 76.8301 87.7804 75.9704 87.1021 75.3278C86.4419 74.6688 85.5752 74.3116 84.502 74.2561ZM98.2528 86.553C97.2315 86.5001 96.3927 86.2745 95.7364 85.8761C95.0801 85.4776 94.6027 84.9756 94.3043 84.37C94.0068 83.7472 93.8763 83.0809 93.9131 82.3712C93.9811 81.0556 94.5087 80.0849 95.4956 79.459C96.5008 78.8168 97.8084 78.5373 99.4182 78.6206L102.949 78.8033L102.963 78.5437C103.079 76.2933 102.108 75.1149 100.048 75.0083C99.2168 74.9653 98.5063 75.1108 97.9163 75.4448C97.3436 75.7796 96.9592 76.3325 96.7631 77.1034L94.53 76.9879C94.6614 76.1268 94.9855 75.3973 95.5024 74.7992C96.0367 74.202 96.7018 73.7591 97.4978 73.4705C98.2937 73.1819 99.1764 73.0627 100.146 73.1128C101.981 73.2078 103.288 73.7614 104.069 74.7738C104.868 75.7697 105.226 77.064 105.144 78.6565L104.734 86.5759L102.865 86.4792L102.786 84.4705L102.605 84.461C102.192 85.0645 101.653 85.5834 100.988 86.0176C100.342 86.4354 99.4299 86.6139 98.2528 86.553ZM98.7417 84.6517C99.5726 84.6947 100.284 84.5319 100.876 84.1633C101.485 83.7956 101.954 83.2905 102.282 82.648C102.628 82.0063 102.821 81.296 102.861 80.517L99.5113 80.3437C98.3342 80.2828 97.493 80.4389 96.9877 80.8119C96.4998 81.1859 96.2388 81.7018 96.2047 82.3596C96.1698 83.0347 96.3675 83.5743 96.7979 83.9784C97.2282 84.3825 97.8762 84.6069 98.7417 84.6517ZM115.12 87.4257C113.96 87.3657 112.936 87.0436 112.046 86.4595C111.174 85.8764 110.495 85.0689 110.01 84.0371C109.527 82.9881 109.321 81.7625 109.393 80.3603C109.466 78.9582 109.797 77.769 110.385 76.7928C110.975 75.7993 111.742 75.0579 112.687 74.5688C113.65 74.0805 114.693 73.8655 115.819 73.9237C117.411 74.0061 118.663 74.4701 119.574 75.3156C120.485 76.1611 121.035 77.2571 121.226 78.6034L118.993 78.4879C118.822 77.7674 118.453 77.1842 117.886 76.7383C117.32 76.2751 116.587 76.0202 115.687 75.9736C115.029 75.9396 114.397 76.0805 113.79 76.3962C113.184 76.712 112.681 77.2067 112.281 77.8803C111.882 78.5539 111.655 79.4186 111.601 80.4745C111.546 81.5305 111.682 82.4227 112.009 83.1512C112.336 83.8624 112.786 84.4064 113.356 84.783C113.927 85.1597 114.541 85.365 115.199 85.399C116.151 85.4483 116.915 85.2709 117.491 84.8668C118.085 84.4636 118.504 83.9125 118.749 83.2135L120.982 83.3291C120.582 84.6796 119.877 85.7192 118.868 86.448C117.875 87.1777 116.626 87.5036 115.12 87.4257ZM124.863 87.6174L125.83 68.9224L128.011 69.0352L127.61 76.7988C127.99 76.1589 128.589 75.6519 129.407 75.2776C130.225 74.8861 131.111 74.7149 132.063 74.7642C133.638 74.8457 134.808 75.3835 135.572 76.3777C136.354 77.3727 136.7 78.7271 136.612 80.4408L136.21 88.2044L134.029 88.0916L134.416 80.6136C134.476 79.4538 134.237 78.5389 133.699 77.8689C133.178 77.1997 132.415 76.8392 131.411 76.7872C130.719 76.7514 130.079 76.8745 129.492 77.1565C128.904 77.4386 128.422 77.8736 128.044 78.4615C127.667 79.0494 127.455 79.7848 127.41 80.6676L127.044 87.7302L124.863 87.6174ZM140.937 93.2654L141.036 91.344L143.295 91.4609C144.005 91.4976 144.559 91.3527 144.958 91.0262C145.355 90.717 145.574 90.1729 145.615 89.394C145.651 88.7016 145.63 88.1017 145.552 87.5943C145.492 87.0705 145.424 86.5463 145.347 86.0216C145.288 85.4805 145.278 84.8378 145.316 84.0935C145.364 83.176 145.602 82.4333 146.03 81.8654C146.46 81.2801 147.001 80.8915 147.653 80.6997L147.658 80.5958C147.029 80.3376 146.531 79.904 146.163 79.2948C145.797 78.6684 145.637 77.8964 145.684 76.979C145.723 76.2346 145.799 75.6051 145.912 75.0902C146.044 74.559 146.166 74.0446 146.278 73.5471C146.409 73.0332 146.492 72.43 146.528 71.7376C146.569 70.9586 146.407 70.3948 146.043 70.0462C145.68 69.6803 145.144 69.479 144.434 69.4423L142.175 69.3254L142.275 67.404L144.767 67.533C146.014 67.5975 146.984 67.9601 147.679 68.6209C148.392 69.2652 148.713 70.2625 148.644 71.6127C148.61 72.2705 148.527 72.865 148.395 73.3963C148.282 73.9111 148.157 74.4687 148.022 75.0692C147.905 75.6533 147.824 76.3781 147.779 77.2436C147.741 77.9879 147.9 78.595 148.258 79.0647C148.634 79.5181 149.263 79.7676 150.146 79.8133L151.366 79.8764L151.267 81.7979L150.046 81.7347C149.164 81.689 148.512 81.8809 148.09 82.3104C147.687 82.7235 147.466 83.3021 147.428 84.0465C147.384 84.8947 147.389 85.624 147.444 86.2343C147.517 86.8455 147.583 87.4217 147.641 87.9628C147.718 88.4874 147.74 89.0787 147.706 89.7365C147.636 91.0867 147.213 92.0454 146.438 92.6128C145.678 93.1983 144.676 93.4589 143.429 93.3944L140.937 93.2654Z" fill="black"/>
<defs>
<clipPath id="clip0_3314_14557">
<rect x="0.476562" y="106.258" width="223" height="51" rx="10" transform="rotate(-4.10355 0.476562 106.258)" fill="white"/>
</clipPath>
</defs>
</svg>
