<svg width="52" height="53" viewBox="0 0 52 53" fill="none" xmlns="http://www.w3.org/2000/svg">
<path d="M27.5175 50.897C23.6475 51.2356 20.315 50.7884 16.9719 49.472C16.2736 49.7301 15.5179 49.8947 14.7699 49.9601C12.4446 50.1636 10.1696 49.4433 8.38472 47.9578C5.96315 45.9369 4.8813 42.7482 5.38899 39.7488C3.54574 36.6595 2.44594 33.0784 2.09245 29.0379C1.73896 24.9975 2.21217 21.2295 3.49097 17.867C2.61592 15.1692 3.26282 12.0754 5.35602 9.59396C6.98933 7.66163 9.13152 6.48921 11.3918 6.29146C11.9934 6.23883 12.617 6.24994 13.2152 6.34535C16.3511 4.54424 20.3746 3.33854 24.5699 2.97151C28.7651 2.60447 31.6375 3.22326 34.5287 4.43141C35.2285 4.1896 35.9517 4.02783 36.6996 3.96239C39.0249 3.75896 41.2999 4.47926 43.0848 5.96479C45.5064 7.98561 46.5882 11.1743 46.0805 14.1738C47.9238 17.263 49.0236 20.8442 49.3771 24.8846C49.7306 28.9251 49.2708 32.6591 47.9905 36.0052C49.0113 38.8709 48.4997 42.199 46.4658 44.6097C44.9674 46.3989 42.8506 47.487 40.5254 47.6904C39.7611 47.7573 38.9883 47.7264 38.2395 47.5949C35.1553 49.4243 31.5488 50.5279 27.5161 50.8807L27.5175 50.897Z" fill="#F1A4A1"/>
<path d="M45.0891 25.009C44.7297 20.9015 43.497 17.3815 41.4143 14.5296C42.3838 12.6309 41.9626 10.2273 40.262 8.77653C38.5439 7.31084 36.1307 7.35707 34.4745 8.63977C31.3357 7.06752 28.9356 6.33757 24.8784 6.69253C20.8212 7.0475 16.7329 8.3451 13.9147 10.4385C12.0771 9.46149 10.027 10.1355 8.58953 11.8773C7.15203 13.6191 6.85371 15.7724 8.11925 17.4426C6.56337 20.6128 5.96064 24.2933 6.32 28.4008C6.67936 32.5083 7.91205 36.0283 9.9948 38.8802C9.02528 40.7789 9.44647 43.1825 11.1456 44.6169C12.8637 46.0826 15.277 46.0364 16.9331 44.7537C20.072 46.3259 23.0838 47.0023 27.141 46.6474C31.1983 46.2924 34.6748 45.0483 37.493 42.9549C39.3306 43.9319 41.7152 43.5584 43.1688 41.8152C44.6063 40.0735 44.5715 37.636 43.3045 35.9495C44.8604 32.7792 45.4631 29.0987 45.1038 24.9912L45.0891 25.009ZM35.8463 29.5113C36.1486 28.3306 36.2666 27.0835 36.1535 25.7907C36.0404 24.4979 35.7076 23.2903 35.2049 22.18L39.4176 17.1118C40.8635 19.3599 41.7201 22.1047 41.9979 25.2794C42.2756 28.4542 41.8925 31.3074 40.8751 33.771L35.8463 29.5113ZM26.064 34.5226C21.8136 34.8945 19.3029 31.6018 18.9264 27.2979C18.5499 22.994 20.5211 19.9358 24.7555 19.5654C28.9898 19.1949 31.4621 21.8643 31.8387 26.1682C32.2152 30.4721 30.2984 34.1522 26.064 34.5226ZM11.9754 36.2994C10.5295 34.0513 9.67288 31.3065 9.39513 28.1318C9.11737 24.9571 9.50045 22.1038 10.5179 19.6402L15.5467 23.8999C15.2444 25.0806 15.1264 26.3277 15.2395 27.6205C15.3526 28.9133 15.6854 30.1209 16.1881 31.2312L11.9754 36.2994ZM38.2818 11.1759C38.9305 11.7293 39.0164 12.7112 38.4751 13.3851L33.4409 19.4486C32.7561 18.6675 31.9511 17.9959 31.0742 17.4295L36.1083 11.3661C36.651 10.7085 37.6331 10.6225 38.2818 11.1759ZM32.3186 11.071L28.106 16.1392C26.9431 15.8287 25.6995 15.7066 24.4276 15.8179C23.1557 15.9292 22.58 16.2104 21.4888 16.7181L16.46 12.4585C18.6857 11.0105 22.0109 10.0765 25.1504 9.80181C28.29 9.52713 29.8753 10.0315 32.3186 11.071ZM10.9563 13.8964C11.4991 13.2388 12.1305 12.8537 12.7792 13.4071L18.7898 18.5043C18.0231 19.198 17.3483 20.0155 16.8095 20.9037L10.799 15.8065C10.1503 15.2531 10.3975 14.5554 10.9563 13.8964ZM13.1112 42.2353C12.4625 41.6819 12.3766 40.7 12.9179 40.0261L17.952 33.9626C18.6369 34.7437 19.4419 35.4153 20.3188 35.9817L15.2847 42.0451C14.742 42.7027 13.7599 42.7887 13.1112 42.2353ZM19.0743 42.3402L23.287 37.272C24.4498 37.5825 25.0817 37.7581 26.3375 37.6483C27.5933 37.5384 28.7969 37.2022 29.9042 36.6931L34.933 40.9528C32.7073 42.4007 30.01 43.2798 26.8704 43.5545C23.7309 43.8291 21.5338 43.3783 19.0904 42.3388L19.0743 42.3402ZM40.7873 39.814C40.2446 40.4716 39.2625 40.5575 38.6138 40.0041L32.6032 34.9069C33.3699 34.2132 34.0447 33.3957 34.5835 32.5075L40.594 37.6047C41.2427 38.1581 41.3286 39.14 40.7873 39.814Z" fill="#13110C"/>
</svg>
