<svg width="56" height="57" viewBox="0 0 56 57" fill="none" xmlns="http://www.w3.org/2000/svg">
<rect x="4" y="4.31592" width="48" height="48" rx="24" fill="#BBDBB8"/>
<rect x="4" y="4.31592" width="48" height="48" rx="24" stroke="#EBF6EA" stroke-width="8"/>
<mask id="mask0_1231_32133" style="mask-type:alpha" maskUnits="userSpaceOnUse" x="16" y="16" width="24" height="25">
<rect x="16" y="16.3159" width="24" height="24" fill="#D9D9D9"/>
</mask>
<g mask="url(#mask0_1231_32133)">
<path d="M28 37.3159C27.7167 37.3159 27.4792 37.2201 27.2875 37.0284C27.0958 36.8368 27 36.5993 27 36.3159C27 36.0326 27.0958 35.7951 27.2875 35.6034C27.4792 35.4118 27.7167 35.3159 28 35.3159H35V28.2159C35 26.2659 34.3208 24.6118 32.9625 23.2534C31.6042 21.8951 29.95 21.2159 28 21.2159C26.05 21.2159 24.3958 21.8951 23.0375 23.2534C21.6792 24.6118 21 26.2659 21 28.2159V33.3159C21 33.5993 20.9042 33.8368 20.7125 34.0284C20.5208 34.2201 20.2833 34.3159 20 34.3159C19.45 34.3159 18.9792 34.1201 18.5875 33.7284C18.1958 33.3368 18 32.8659 18 32.3159V30.3159C18 29.9659 18.0875 29.6368 18.2625 29.3284C18.4375 29.0201 18.6833 28.7743 19 28.5909L19.075 27.2659C19.2083 26.1326 19.5375 25.0826 20.0625 24.1159C20.5875 23.1493 21.2458 22.3076 22.0375 21.5909C22.8292 20.8743 23.7375 20.3159 24.7625 19.9159C25.7875 19.5159 26.8667 19.3159 28 19.3159C29.1333 19.3159 30.2083 19.5159 31.225 19.9159C32.2417 20.3159 33.15 20.8701 33.95 21.5784C34.75 22.2868 35.4083 23.1243 35.925 24.0909C36.4417 25.0576 36.775 26.1076 36.925 27.2409L37 28.5409C37.3167 28.6909 37.5625 28.9159 37.7375 29.2159C37.9125 29.5159 38 29.8326 38 30.1659V32.4659C38 32.7993 37.9125 33.1159 37.7375 33.4159C37.5625 33.7159 37.3167 33.9409 37 34.0909V35.3159C37 35.8659 36.8042 36.3368 36.4125 36.7284C36.0208 37.1201 35.55 37.3159 35 37.3159H28ZM25 30.3159C24.7167 30.3159 24.4792 30.2201 24.2875 30.0284C24.0958 29.8368 24 29.5993 24 29.3159C24 29.0326 24.0958 28.7951 24.2875 28.6034C24.4792 28.4118 24.7167 28.3159 25 28.3159C25.2833 28.3159 25.5208 28.4118 25.7125 28.6034C25.9042 28.7951 26 29.0326 26 29.3159C26 29.5993 25.9042 29.8368 25.7125 30.0284C25.5208 30.2201 25.2833 30.3159 25 30.3159ZM31 30.3159C30.7167 30.3159 30.4792 30.2201 30.2875 30.0284C30.0958 29.8368 30 29.5993 30 29.3159C30 29.0326 30.0958 28.7951 30.2875 28.6034C30.4792 28.4118 30.7167 28.3159 31 28.3159C31.2833 28.3159 31.5208 28.4118 31.7125 28.6034C31.9042 28.7951 32 29.0326 32 29.3159C32 29.5993 31.9042 29.8368 31.7125 30.0284C31.5208 30.2201 31.2833 30.3159 31 30.3159ZM22.025 28.7659C21.9083 26.9993 22.4417 25.4826 23.625 24.2159C24.8083 22.9493 26.2833 22.3159 28.05 22.3159C29.5333 22.3159 30.8375 22.7868 31.9625 23.7284C33.0875 24.6701 33.7667 25.8743 34 27.3409C32.4833 27.3243 31.0875 26.9159 29.8125 26.1159C28.5375 25.3159 27.5583 24.2326 26.875 22.8659C26.6083 24.1993 26.0458 25.3868 25.1875 26.4284C24.3292 27.4701 23.275 28.2493 22.025 28.7659Z" fill="#138A07"/>
</g>
</svg>
