<svg width="52" height="53" viewBox="0 0 52 53" fill="none" xmlns="http://www.w3.org/2000/svg">
<path d="M27.5175 50.1958C23.6475 50.5344 20.315 50.0872 16.9719 48.7708C16.2736 49.0289 15.5179 49.1935 14.7699 49.259C12.4446 49.4624 10.1696 48.7421 8.38472 47.2566C5.96315 45.2358 4.8813 42.047 5.38899 39.0476C3.54574 35.9583 2.44594 32.3772 2.09245 28.3367C1.73896 24.2963 2.21217 20.5283 3.49097 17.1659C2.61592 14.468 3.26282 11.3743 5.35602 8.89279C6.98933 6.96046 9.13152 5.78804 11.3918 5.59029C11.9934 5.53766 12.617 5.54876 13.2152 5.64418C16.3511 3.84306 20.3746 2.63737 24.5699 2.27034C28.7651 1.9033 31.6375 2.52209 34.5287 3.73024C35.2285 3.48843 35.9517 3.32666 36.6996 3.26122C39.0249 3.05779 41.2999 3.77809 43.0848 5.26362C45.5064 7.28444 46.5882 10.4732 46.0805 13.4726C47.9238 16.5619 49.0236 20.143 49.3771 24.1835C49.7306 28.2239 49.2708 31.9579 47.9905 35.304C49.0113 38.1697 48.4997 41.4979 46.4658 43.9085C44.9674 45.6977 42.8506 46.7858 40.5254 46.9892C39.7611 47.0561 38.9883 47.0252 38.2395 46.8937C35.1553 48.7232 31.5488 49.8267 27.5161 50.1795L27.5175 50.1958Z" fill="#F9D38F"/>
<path d="M45.0891 24.3078C44.7297 20.2003 43.497 16.6804 41.4143 13.8284C42.3838 11.9297 41.9626 9.52609 40.262 8.07536C38.5439 6.60967 36.1307 6.6559 34.4745 7.93859C31.3357 6.36635 28.9356 5.6364 24.8784 5.99136C20.8212 6.34632 16.7329 7.64393 13.9147 9.73735C12.0771 8.76032 10.027 9.43437 8.58953 11.1761C7.15203 12.9179 6.85371 15.0712 8.11925 16.7414C6.56337 19.9116 5.96064 23.5921 6.32 27.6997C6.67936 31.8072 7.91205 35.3271 9.9948 38.179C9.02528 40.0777 9.44647 42.4814 11.1456 43.9157C12.8637 45.3814 15.277 45.3352 16.9331 44.0525C20.072 45.6247 23.0838 46.3012 27.141 45.9462C31.1983 45.5912 34.6748 44.3472 37.493 42.2537C39.3306 43.2308 41.7152 42.8572 43.1688 41.1141C44.6063 39.3723 44.5715 36.9348 43.3045 35.2483C44.8604 32.078 45.4631 28.3975 45.1038 24.29L45.0891 24.3078ZM35.8463 28.8102C36.1486 27.6294 36.2666 26.3824 36.1535 25.0896C36.0404 23.7968 35.7076 22.5891 35.2049 21.4788L39.4176 16.4107C40.8635 18.6587 41.7201 21.4035 41.9979 24.5782C42.2756 27.753 41.8925 30.6063 40.8751 33.0698L35.8463 28.8102ZM26.064 33.8214C21.8136 34.1933 19.3029 30.9006 18.9264 26.5967C18.5499 22.2929 20.5211 19.2347 24.7555 18.8642C28.9898 18.4938 31.4621 21.1632 31.8387 25.4671C32.2152 29.7709 30.2984 33.451 26.064 33.8214ZM11.9754 35.5982C10.5295 33.3502 9.67288 30.6053 9.39513 27.4306C9.11737 24.2559 9.50045 21.4026 10.5179 18.9391L15.5467 23.1987C15.2444 24.3794 15.1264 25.6265 15.2395 26.9193C15.3526 28.2121 15.6854 29.4197 16.1881 30.53L11.9754 35.5982ZM38.2818 10.4747C38.9305 11.0281 39.0164 12.01 38.4751 12.684L33.4409 18.7474C32.7561 17.9664 31.9511 17.2947 31.0742 16.7284L36.1083 10.6649C36.651 10.0073 37.6331 9.92137 38.2818 10.4747ZM32.3186 10.3698L28.106 15.438C26.9431 15.1275 25.6995 15.0054 24.4276 15.1167C23.1557 15.228 22.58 15.5092 21.4888 16.0169L16.46 11.7573C18.6857 10.3093 22.0109 9.37531 25.1504 9.10063C28.29 8.82596 29.8753 9.33037 32.3186 10.3698ZM10.9563 13.1952C11.4991 12.5376 12.1305 12.1526 12.7792 12.7059L18.7898 17.8031C18.0231 18.4968 17.3483 19.3144 16.8095 20.2025L10.799 15.1053C10.1503 14.5519 10.3975 13.8542 10.9563 13.1952ZM13.1112 41.5341C12.4625 40.9808 12.3766 39.9989 12.9179 39.3249L17.952 33.2614C18.6369 34.0425 19.4419 34.7141 20.3188 35.2805L15.2847 41.344C14.742 42.0016 13.7599 42.0875 13.1112 41.5341ZM19.0743 41.639L23.287 36.5709C24.4498 36.8814 25.0817 37.057 26.3375 36.9471C27.5933 36.8372 28.7969 36.5011 29.9042 35.9919L34.933 40.2516C32.7073 41.6995 30.01 42.5786 26.8704 42.8533C23.7309 43.128 21.5338 42.6771 19.0904 41.6376L19.0743 41.639ZM40.7873 39.1128C40.2446 39.7704 39.2625 39.8563 38.6138 39.3029L32.6032 34.2058C33.3699 33.5121 34.0447 32.6945 34.5835 31.8064L40.594 36.9036C41.2427 37.4569 41.3286 38.4388 40.7873 39.1128Z" fill="#13110C"/>
</svg>
