<svg width="56" height="57" viewBox="0 0 56 57" fill="none" xmlns="http://www.w3.org/2000/svg">
<rect x="4" y="4.31592" width="48" height="48" rx="24" fill="#BBDBB8"/>
<rect x="4" y="4.31592" width="48" height="48" rx="24" stroke="#EBF6EA" stroke-width="8"/>
<mask id="mask0_854_12071" style="mask-type:alpha" maskUnits="userSpaceOnUse" x="16" y="16" width="25" height="25">
<rect x="16.1758" y="16.3193" width="24" height="24" fill="#D9D9D9"/>
</mask>
<g mask="url(#mask0_854_12071)">
<path d="M27.4758 24.6192L25.4008 22.5192C25.2008 22.3192 25.1008 22.0859 25.1008 21.8192C25.1008 21.5526 25.2008 21.3192 25.4008 21.1192L27.4789 19.0192C27.6768 18.8192 27.9121 18.7192 28.1849 18.7192C28.4576 18.7192 28.6962 18.8192 28.9008 19.0192L30.9758 21.1192C31.1758 21.3192 31.2758 21.5526 31.2758 21.8192C31.2758 22.0859 31.1758 22.3192 30.9758 22.5192L28.8977 24.6192C28.6997 24.8192 28.4644 24.9192 28.1917 24.9192C27.919 24.9192 27.6803 24.8192 27.4758 24.6192ZM18.1758 36.3192C17.8924 36.3192 17.6549 36.2234 17.4633 36.0317C17.2716 35.8401 17.1758 35.6026 17.1758 35.3192V32.3192C17.1758 31.7526 17.3716 31.2776 17.7633 30.8942C18.1549 30.5109 18.6258 30.3192 19.1758 30.3192H22.4508C22.7841 30.3192 23.1008 30.4026 23.4008 30.5692C23.7008 30.7359 23.9424 30.9609 24.1258 31.2442C24.6091 31.8942 25.2049 32.4026 25.9133 32.7692C26.6216 33.1359 27.3758 33.3192 28.1758 33.3192C28.9924 33.3192 29.7549 33.1359 30.4633 32.7692C31.1716 32.4026 31.7591 31.8942 32.2258 31.2442C32.4424 30.9609 32.6966 30.7359 32.9883 30.5692C33.2799 30.4026 33.5841 30.3192 33.9008 30.3192H37.1758C37.7424 30.3192 38.2174 30.5109 38.6008 30.8942C38.9841 31.2776 39.1758 31.7526 39.1758 32.3192V35.3192C39.1758 35.6026 39.0799 35.8401 38.8883 36.0317C38.6966 36.2234 38.4591 36.3192 38.1758 36.3192H33.1758C32.8924 36.3192 32.6549 36.2234 32.4633 36.0317C32.2716 35.8401 32.1758 35.6026 32.1758 35.3192V34.0442C31.5924 34.4609 30.9633 34.7776 30.2883 34.9942C29.6133 35.2109 28.9091 35.3192 28.1758 35.3192C27.4591 35.3192 26.7591 35.2067 26.0758 34.9817C25.3924 34.7567 24.7591 34.4359 24.1758 34.0192V35.3192C24.1758 35.6026 24.0799 35.8401 23.8883 36.0317C23.6966 36.2234 23.4591 36.3192 23.1758 36.3192H18.1758ZM20.1758 29.3192C19.3424 29.3192 18.6341 29.0276 18.0508 28.4442C17.4674 27.8609 17.1758 27.1526 17.1758 26.3192C17.1758 25.4692 17.4674 24.7567 18.0508 24.1817C18.6341 23.6067 19.3424 23.3192 20.1758 23.3192C21.0258 23.3192 21.7383 23.6067 22.3133 24.1817C22.8883 24.7567 23.1758 25.4692 23.1758 26.3192C23.1758 27.1526 22.8883 27.8609 22.3133 28.4442C21.7383 29.0276 21.0258 29.3192 20.1758 29.3192ZM36.1758 29.3192C35.3424 29.3192 34.6341 29.0276 34.0508 28.4442C33.4674 27.8609 33.1758 27.1526 33.1758 26.3192C33.1758 25.4692 33.4674 24.7567 34.0508 24.1817C34.6341 23.6067 35.3424 23.3192 36.1758 23.3192C37.0258 23.3192 37.7383 23.6067 38.3133 24.1817C38.8883 24.7567 39.1758 25.4692 39.1758 26.3192C39.1758 27.1526 38.8883 27.8609 38.3133 28.4442C37.7383 29.0276 37.0258 29.3192 36.1758 29.3192Z" fill="#138A07"/>
</g>
</svg>
