<svg width="56" height="57" viewBox="0 0 56 57" fill="none" xmlns="http://www.w3.org/2000/svg">
<rect x="4" y="4.31592" width="48" height="48" rx="24" fill="#BBDBB8"/>
<rect x="4" y="4.31592" width="48" height="48" rx="24" stroke="#EBF6EA" stroke-width="8"/>
<mask id="mask0_854_12141" style="mask-type:alpha" maskUnits="userSpaceOnUse" x="16" y="16" width="24" height="24">
<rect x="16" y="16" width="24" height="24" fill="#138A07"/>
</mask>
<g mask="url(#mask0_854_12141)">
<path d="M33.8501 35.9501L29.4251 31.5251L31.5251 29.4251L35.9501 33.8501C36.2334 34.1334 36.3751 34.4834 36.3751 34.9001C36.3751 35.3168 36.2334 35.6668 35.9501 35.9501C35.6667 36.2334 35.3167 36.3751 34.9001 36.3751C34.4834 36.3751 34.1334 36.2334 33.8501 35.9501ZM20.0501 35.9501C19.7667 35.6668 19.6251 35.3168 19.6251 34.9001C19.6251 34.4834 19.7667 34.1334 20.0501 33.8501L25.9001 28.0001L24.2001 26.3001C24.0167 26.4834 23.7834 26.5751 23.5001 26.5751C23.2167 26.5751 22.9834 26.4834 22.8001 26.3001L22.2251 25.7251V27.9751C22.2251 28.2084 22.1251 28.3668 21.9251 28.4501C21.7251 28.5334 21.5417 28.4918 21.3751 28.3251L18.6501 25.6001C18.4834 25.4334 18.4417 25.2501 18.5251 25.0501C18.6084 24.8501 18.7667 24.7501 19.0001 24.7501H21.2501L20.7001 24.2001C20.5001 24.0001 20.4001 23.7668 20.4001 23.5001C20.4001 23.2334 20.5001 23.0001 20.7001 22.8001L23.5501 19.9501C23.8834 19.6168 24.2417 19.3751 24.6251 19.2251C25.0084 19.0751 25.4001 19.0001 25.8001 19.0001C26.1334 19.0001 26.4459 19.0501 26.7376 19.1501C27.0292 19.2501 27.3167 19.4001 27.6001 19.6001C27.7334 19.6834 27.8042 19.8001 27.8126 19.9501C27.8209 20.1001 27.7667 20.2334 27.6501 20.3501L25.7501 22.2501L26.3001 22.8001C26.4834 22.9834 26.5751 23.2168 26.5751 23.5001C26.5751 23.7834 26.4834 24.0168 26.3001 24.2001L28.0001 25.9001L30.2501 23.6501C30.1834 23.4668 30.1292 23.2751 30.0876 23.0751C30.0459 22.8751 30.0251 22.6751 30.0251 22.4751C30.0251 21.4918 30.3626 20.6626 31.0376 19.9876C31.7126 19.3126 32.5417 18.9751 33.5251 18.9751C33.6584 18.9751 33.7834 18.9793 33.9001 18.9876C34.0167 18.9959 34.1334 19.0168 34.2501 19.0501C34.4001 19.1001 34.4959 19.2043 34.5376 19.3626C34.5792 19.5209 34.5417 19.6584 34.4251 19.7751L32.8001 21.4001C32.7001 21.5001 32.6501 21.6168 32.6501 21.7501C32.6501 21.8834 32.7001 22.0001 32.8001 22.1001L33.9001 23.2001C34.0001 23.3001 34.1167 23.3501 34.2501 23.3501C34.3834 23.3501 34.5001 23.3001 34.6001 23.2001L36.2251 21.5751C36.3417 21.4584 36.4792 21.4168 36.6376 21.4501C36.7959 21.4834 36.9001 21.5834 36.9501 21.7501C36.9834 21.8668 37.0042 21.9834 37.0126 22.1001C37.0209 22.2168 37.0251 22.3418 37.0251 22.4751C37.0251 23.4584 36.6876 24.2876 36.0126 24.9626C35.3376 25.6376 34.5084 25.9751 33.5251 25.9751C33.3251 25.9751 33.1251 25.9584 32.9251 25.9251C32.7251 25.8918 32.5334 25.8334 32.3501 25.7501L22.1501 35.9501C21.8667 36.2334 21.5167 36.3751 21.1001 36.3751C20.6834 36.3751 20.3334 36.2334 20.0501 35.9501Z" fill="#138A07"/>
</g>
</svg>
