<svg width="56" height="56" viewBox="0 0 56 56" fill="none" xmlns="http://www.w3.org/2000/svg">
<rect x="4" y="4" width="48" height="48" rx="24" fill="#BBDBB8"/>
<rect x="4" y="4" width="48" height="48" rx="24" stroke="#EBF6EA" stroke-width="8"/>
<mask id="mask0_1238_23818" style="mask-type:alpha" maskUnits="userSpaceOnUse" x="16" y="15" width="24" height="25">
<rect x="16" y="15.999" width="24" height="24" fill="#D9D9D9"/>
</mask>
<g mask="url(#mask0_1238_23818)">
<path d="M20 35.999C19.45 35.999 18.9792 35.8032 18.5875 35.4115C18.1958 35.0199 18 34.549 18 33.999V21.999C18 21.449 18.1958 20.9782 18.5875 20.5865C18.9792 20.1949 19.45 19.999 20 19.999H36C36.55 19.999 37.0208 20.1949 37.4125 20.5865C37.8042 20.9782 38 21.449 38 21.999V33.999C38 34.549 37.8042 35.0199 37.4125 35.4115C37.0208 35.8032 36.55 35.999 36 35.999H20ZM29 33.999H36V21.999H29V33.999ZM22 31.999H25C25.2833 31.999 25.5208 31.9032 25.7125 31.7115C25.9042 31.5199 26 31.2824 26 30.999C26 30.7157 25.9042 30.4782 25.7125 30.2865C25.5208 30.0949 25.2833 29.999 25 29.999H22C21.7167 29.999 21.4792 30.0949 21.2875 30.2865C21.0958 30.4782 21 30.7157 21 30.999C21 31.2824 21.0958 31.5199 21.2875 31.7115C21.4792 31.9032 21.7167 31.999 22 31.999ZM22 28.999H25C25.2833 28.999 25.5208 28.9032 25.7125 28.7115C25.9042 28.5199 26 28.2824 26 27.999C26 27.7157 25.9042 27.4782 25.7125 27.2865C25.5208 27.0949 25.2833 26.999 25 26.999H22C21.7167 26.999 21.4792 27.0949 21.2875 27.2865C21.0958 27.4782 21 27.7157 21 27.999C21 28.2824 21.0958 28.5199 21.2875 28.7115C21.4792 28.9032 21.7167 28.999 22 28.999ZM22 25.999H25C25.2833 25.999 25.5208 25.9032 25.7125 25.7115C25.9042 25.5199 26 25.2824 26 24.999C26 24.7157 25.9042 24.4782 25.7125 24.2865C25.5208 24.0949 25.2833 23.999 25 23.999H22C21.7167 23.999 21.4792 24.0949 21.2875 24.2865C21.0958 24.4782 21 24.7157 21 24.999C21 25.2824 21.0958 25.5199 21.2875 25.7115C21.4792 25.9032 21.7167 25.999 22 25.999ZM31 31.999H34C34.2833 31.999 34.5208 31.9032 34.7125 31.7115C34.9042 31.5199 35 31.2824 35 30.999C35 30.7157 34.9042 30.4782 34.7125 30.2865C34.5208 30.0949 34.2833 29.999 34 29.999H31C30.7167 29.999 30.4792 30.0949 30.2875 30.2865C30.0958 30.4782 30 30.7157 30 30.999C30 31.2824 30.0958 31.5199 30.2875 31.7115C30.4792 31.9032 30.7167 31.999 31 31.999ZM31 28.999H34C34.2833 28.999 34.5208 28.9032 34.7125 28.7115C34.9042 28.5199 35 28.2824 35 27.999C35 27.7157 34.9042 27.4782 34.7125 27.2865C34.5208 27.0949 34.2833 26.999 34 26.999H31C30.7167 26.999 30.4792 27.0949 30.2875 27.2865C30.0958 27.4782 30 27.7157 30 27.999C30 28.2824 30.0958 28.5199 30.2875 28.7115C30.4792 28.9032 30.7167 28.999 31 28.999ZM31 25.999H34C34.2833 25.999 34.5208 25.9032 34.7125 25.7115C34.9042 25.5199 35 25.2824 35 24.999C35 24.7157 34.9042 24.4782 34.7125 24.2865C34.5208 24.0949 34.2833 23.999 34 23.999H31C30.7167 23.999 30.4792 24.0949 30.2875 24.2865C30.0958 24.4782 30 24.7157 30 24.999C30 25.2824 30.0958 25.5199 30.2875 25.7115C30.4792 25.9032 30.7167 25.999 31 25.999Z" fill="#138A07"/>
</g>
</svg>
