<svg width="56" height="57" viewBox="0 0 56 57" fill="none" xmlns="http://www.w3.org/2000/svg">
<rect x="4" y="4.31592" width="48" height="48" rx="24" fill="#BBDBB8"/>
<rect x="4" y="4.31592" width="48" height="48" rx="24" stroke="#EBF6EA" stroke-width="8"/>
<mask id="mask0_1231_32125" style="mask-type:alpha" maskUnits="userSpaceOnUse" x="16" y="16" width="24" height="25">
<rect x="16" y="16.3159" width="24" height="24" fill="#D9D9D9"/>
</mask>
<g mask="url(#mask0_1231_32125)">
<path d="M22 38.3159C21.45 38.3159 20.9792 38.1201 20.5875 37.7284C20.1958 37.3368 20 36.8659 20 36.3159V20.3159C20 19.7659 20.1958 19.2951 20.5875 18.9034C20.9792 18.5118 21.45 18.3159 22 18.3159H29.175C29.4417 18.3159 29.6958 18.3659 29.9375 18.4659C30.1792 18.5659 30.3917 18.7076 30.575 18.8909L35.425 23.7409C35.6083 23.9243 35.75 24.1368 35.85 24.3784C35.95 24.6201 36 24.8743 36 25.1409V27.3159C35.6167 27.3993 35.2583 27.5326 34.925 27.7159C34.5917 27.8993 34.2833 28.1326 34 28.4159L28.6 33.8159C28.4167 33.9993 28.2708 34.2118 28.1625 34.4534C28.0542 34.6951 28 34.9493 28 35.2159V38.3159H22ZM30 37.3159V35.6659C30 35.5326 30.025 35.4034 30.075 35.2784C30.125 35.1534 30.2 35.0409 30.3 34.9409L35.525 29.7409C35.675 29.5909 35.8417 29.4826 36.025 29.4159C36.2083 29.3493 36.3917 29.3159 36.575 29.3159C36.775 29.3159 36.9667 29.3534 37.15 29.4284C37.3333 29.5034 37.5 29.6159 37.65 29.7659L38.575 30.6909C38.7083 30.8409 38.8125 31.0076 38.8875 31.1909C38.9625 31.3743 39 31.5576 39 31.7409C39 31.9243 38.9667 32.1118 38.9 32.3034C38.8333 32.4951 38.725 32.6659 38.575 32.8159L33.375 38.0159C33.275 38.1159 33.1625 38.1909 33.0375 38.2409C32.9125 38.2909 32.7833 38.3159 32.65 38.3159H31C30.7167 38.3159 30.4792 38.2201 30.2875 38.0284C30.0958 37.8368 30 37.5993 30 37.3159ZM36.575 32.7159L37.5 31.7409L36.575 30.8159L35.625 31.7659L36.575 32.7159ZM30 25.3159H34L29 20.3159V24.3159C29 24.5993 29.0958 24.8368 29.2875 25.0284C29.4792 25.2201 29.7167 25.3159 30 25.3159Z" fill="#138A07"/>
</g>
</svg>
