<svg width="126" height="100" viewBox="0 0 126 100" fill="none" xmlns="http://www.w3.org/2000/svg">
<g clip-path="url(#clip0_175_1054)">
<path d="M39.3719 3.81143C26.3244 9.2722 18.8367 22.5474 18.8367 41.0158C18.8367 59.4841 15.0149 57.0465 10.0969 66.3966C6.58525 73.0727 8.50277 84.7013 13.016 90.1228C19.2684 97.6326 30.0213 100.713 42.1183 99.6659C61.7656 97.9654 63.0902 80.1373 92.2719 87.4457C106.165 90.9252 118.65 78.9172 122.419 61.7865C124.68 51.5082 119.948 37.5547 110.231 32.0116C96.9858 24.4571 97.3925 30.9183 82.7227 14.579C66.9559 -2.98246 53.4157 -2.06638 39.3719 3.81143Z" fill="#F3F5FD"/>
<path d="M125.409 30.661L74.8271 11.1336L50.6412 74.5096L101.223 94.037L125.409 30.661Z" fill="#C1D8ED"/>
<g opacity="0.61">
<path d="M62.5865 54.6542C62.5491 54.6244 62.5222 54.5832 62.5097 54.5369C62.4971 54.4906 62.4997 54.4415 62.5169 54.3967L69.6677 35.6367C69.6782 35.609 69.6941 35.5837 69.7144 35.5622C69.7347 35.5406 69.759 35.5233 69.786 35.5113C69.813 35.4992 69.842 35.4926 69.8715 35.4919C69.9011 35.4911 69.9304 35.4962 69.958 35.5068L112.799 52.0664C112.854 52.0879 112.899 52.1308 112.924 52.1856C112.948 52.2404 112.95 52.3026 112.928 52.3585L105.777 71.1183C105.767 71.1461 105.751 71.1715 105.731 71.1931C105.71 71.2147 105.686 71.232 105.659 71.2441C105.632 71.2561 105.603 71.2627 105.574 71.2634C105.544 71.2641 105.515 71.2589 105.487 71.2481L62.6464 54.6889C62.6248 54.6805 62.6046 54.6688 62.5865 54.6542ZM70.0069 36.0098L63.017 54.3476L105.438 70.745L112.427 52.4065L70.0069 36.0098Z" fill="white"/>
</g>
<g opacity="0.61">
<path d="M61.0196 58.7599C60.9777 58.7261 60.9491 58.6785 60.939 58.6254C60.9289 58.5724 60.9381 58.5175 60.9648 58.4707C60.9914 58.4239 61.0339 58.3882 61.0845 58.3702C61.135 58.3521 61.1904 58.3529 61.2405 58.3723L104.074 74.9283C104.129 74.9499 104.174 74.9927 104.198 75.0475C104.223 75.1023 104.224 75.1645 104.203 75.2204C104.182 75.2763 104.139 75.3214 104.085 75.3458C104.03 75.3701 103.968 75.3717 103.913 75.3502L61.08 58.7939C61.0583 58.7858 61.0379 58.7743 61.0196 58.7599Z" fill="white"/>
</g>
<g opacity="0.61">
<path d="M59.7085 62.1953C59.6667 62.1615 59.6383 62.1138 59.6283 62.0609C59.6183 62.0079 59.6275 61.9531 59.6541 61.9064C59.6808 61.8597 59.7231 61.8241 59.7736 61.8061C59.8241 61.788 59.8793 61.7887 59.9294 61.8079L102.762 78.3638C102.79 78.3741 102.816 78.3899 102.838 78.4103C102.86 78.4306 102.878 78.4552 102.89 78.4825C102.903 78.5099 102.909 78.5394 102.91 78.5694C102.911 78.5994 102.906 78.6293 102.896 78.6573C102.885 78.6853 102.869 78.7109 102.848 78.7326C102.827 78.7543 102.803 78.7716 102.775 78.7835C102.748 78.7955 102.718 78.8018 102.689 78.8021C102.659 78.8025 102.629 78.7968 102.601 78.7855L59.7685 62.2298C59.7468 62.2215 59.7265 62.2099 59.7085 62.1953Z" fill="white"/>
</g>
<g opacity="0.61">
<path d="M58.3975 65.6307C58.3557 65.597 58.3272 65.5493 58.3172 65.4964C58.3072 65.4434 58.3164 65.3886 58.343 65.3419C58.3697 65.2952 58.412 65.2595 58.4625 65.2415C58.513 65.2234 58.5682 65.2241 58.6183 65.2433L101.451 81.7991C101.507 81.8206 101.552 81.8635 101.576 81.9182C101.6 81.973 101.602 82.0352 101.581 82.0912C101.559 82.1471 101.517 82.1922 101.462 82.2166C101.408 82.241 101.346 82.2425 101.291 82.221L58.4577 65.6652C58.436 65.657 58.4157 65.6454 58.3975 65.6307Z" fill="white"/>
</g>
<g opacity="0.61">
<path d="M57.0863 69.0665C57.0445 69.0327 57.016 68.9851 57.006 68.9321C56.996 68.8792 57.0052 68.8244 57.0318 68.7776C57.0584 68.7309 57.1008 68.6953 57.1512 68.6772C57.2017 68.6591 57.257 68.6598 57.307 68.6791L100.14 85.2348C100.168 85.2455 100.193 85.2615 100.214 85.2819C100.236 85.3024 100.253 85.3269 100.265 85.354C100.277 85.3811 100.284 85.4103 100.284 85.44C100.285 85.4697 100.28 85.4992 100.27 85.5269C100.259 85.5546 100.243 85.5799 100.223 85.6014C100.203 85.6229 100.178 85.6402 100.151 85.6523C100.124 85.6643 100.095 85.6709 100.066 85.6717C100.036 85.6724 100.007 85.6673 99.9794 85.6567L57.1465 69.1007C57.1248 69.0926 57.1044 69.081 57.0863 69.0665Z" fill="white"/>
</g>
<g opacity="0.61">
<path d="M71.1166 32.3025C71.0748 32.2687 71.0463 32.2211 71.0364 32.1681C71.0264 32.1152 71.0355 32.0604 71.0621 32.0136C71.0888 31.9669 71.1311 31.9313 71.1816 31.9132C71.2321 31.8951 71.2873 31.8958 71.3374 31.9151L114.17 48.4711C114.226 48.4926 114.271 48.5355 114.295 48.5903C114.32 48.645 114.321 48.7072 114.3 48.7632C114.278 48.8191 114.236 48.8642 114.181 48.8885C114.127 48.9129 114.065 48.9144 114.01 48.8929L71.1765 32.3371C71.1549 32.3287 71.1347 32.3171 71.1166 32.3025Z" fill="white"/>
</g>
<g opacity="0.61">
<path d="M72.8873 27.8136C72.8455 27.7798 72.8171 27.7322 72.8071 27.6792C72.7971 27.6263 72.8062 27.5715 72.8328 27.5247C72.8595 27.478 72.9018 27.4424 72.9523 27.4243C73.0028 27.4062 73.058 27.4069 73.1081 27.4262L101.932 38.5671C101.987 38.5892 102.031 38.6321 102.054 38.6866C102.078 38.7411 102.079 38.8027 102.058 38.8582C102.037 38.9136 101.995 38.9585 101.941 38.983C101.888 39.0075 101.826 39.0097 101.771 38.9892L72.9472 27.8482C72.9257 27.8398 72.9055 27.8281 72.8873 27.8136Z" fill="white"/>
</g>
<g opacity="0.61">
<path d="M105.348 29.6105L76.5227 18.4838L76.0083 19.8325L104.834 30.9592L105.348 29.6105Z" fill="white"/>
</g>
<g opacity="0.61">
<path d="M74.5066 23.5708C74.4648 23.5371 74.4363 23.4894 74.4263 23.4365C74.4163 23.3835 74.4255 23.3287 74.4521 23.282C74.4787 23.2352 74.5211 23.1996 74.5716 23.1816C74.622 23.1635 74.6773 23.1641 74.7274 23.1834L103.551 34.3244C103.578 34.335 103.604 34.351 103.625 34.3715C103.646 34.3919 103.664 34.4164 103.676 34.4435C103.688 34.4706 103.694 34.4998 103.695 34.5295C103.696 34.5592 103.691 34.5887 103.68 34.6164C103.67 34.6441 103.654 34.6695 103.634 34.691C103.613 34.7125 103.589 34.7298 103.562 34.7418C103.535 34.7539 103.506 34.7605 103.476 34.7613C103.447 34.762 103.418 34.7569 103.39 34.7463L74.5668 23.6051C74.5451 23.5968 74.5248 23.5853 74.5066 23.5708Z" fill="white"/>
</g>
<path d="M75.1176 53.3504C75.0932 53.341 75.0705 53.3273 75.0507 53.31L68.7993 47.8304C68.777 47.8109 68.7589 47.7872 68.7457 47.7606C68.7326 47.7341 68.7248 47.7052 68.7228 47.6756C68.7187 47.6158 68.7384 47.5569 68.7775 47.5117C68.8167 47.4666 68.872 47.4389 68.9314 47.4348C68.9908 47.4307 69.0494 47.4505 69.0943 47.4899L75.2392 52.876L85.2005 48.566C85.2512 48.5441 85.3081 48.5417 85.3604 48.5593C85.4128 48.5769 85.4568 48.6133 85.4843 48.6614L89.1928 55.1851L95.7642 54.2883C95.8027 54.2831 95.8419 54.288 95.878 54.3026C95.914 54.3172 95.9457 54.3409 95.9699 54.3715L101.032 60.7614L107.09 57.043C107.141 57.0118 107.202 57.0022 107.26 57.0163C107.318 57.0304 107.368 57.067 107.399 57.1181C107.43 57.1693 107.439 57.2307 107.425 57.2889C107.411 57.3471 107.375 57.3974 107.324 57.4286L101.097 61.2503C101.05 61.2792 100.995 61.2898 100.941 61.2802C100.887 61.2706 100.838 61.2414 100.804 61.1982L95.6983 54.7527L89.1031 55.6532C89.0588 55.6592 89.0137 55.6518 88.9736 55.6319C88.9335 55.6119 88.9002 55.5805 88.878 55.5414L85.1937 49.0606L75.2875 53.3475C75.2334 53.3708 75.1725 53.3718 75.1176 53.3504Z" fill="#262626"/>
<path d="M108.308 42.8298C110.909 44.923 114.705 44.4993 116.786 41.8834C118.867 39.2674 118.446 35.4498 115.845 33.3565C113.244 31.2633 109.448 31.687 107.367 34.3029C105.286 36.9189 105.707 40.7365 108.308 42.8298Z" fill="#F3F5FD"/>
<path d="M117.655 35.7883L112.077 38.0939L114.238 32.4306C114.979 32.7152 115.656 33.1442 116.231 33.693C116.806 34.2418 117.267 34.8996 117.588 35.6285C117.611 35.681 117.634 35.7348 117.655 35.7883Z" fill="#5BB553"/>
<path d="M117.708 40.268C117.322 41.2834 116.671 42.1752 115.823 42.8488L112.077 38.0945L117.587 35.6288C117.611 35.6814 117.633 35.7352 117.655 35.7887C118.242 37.2198 118.261 38.8232 117.708 40.268Z" fill="#262626"/>
<path d="M67.2972 51.7786C67.2671 51.7542 67.2433 51.7228 67.2278 51.6871C67.2123 51.6515 67.2057 51.6126 67.2084 51.5737C67.2111 51.5349 67.2231 51.4974 67.2434 51.4642C67.2637 51.4311 67.2917 51.4034 67.3249 51.3835L78.1358 44.9156C78.1632 44.8992 78.1936 44.8884 78.2252 44.884C78.2568 44.8795 78.2889 44.8814 78.3197 44.8896C78.3506 44.8978 78.3795 44.9121 78.4047 44.9316C78.43 44.9512 78.4512 44.9756 78.4669 45.0035L83.4663 53.8479L89.8707 52.3012C89.9154 52.2905 89.9622 52.2928 90.0056 52.308C90.0489 52.3232 90.087 52.3506 90.1154 52.3869L95.3821 59.1355L108.066 54.5481C108.096 54.5369 108.127 54.5317 108.159 54.5328C108.191 54.534 108.222 54.5415 108.251 54.5549C108.28 54.5683 108.306 54.5874 108.327 54.6109C108.349 54.6345 108.365 54.6622 108.376 54.6922C108.387 54.7223 108.391 54.7543 108.39 54.7862C108.388 54.8181 108.38 54.8494 108.367 54.8782C108.353 54.907 108.333 54.9328 108.31 54.9541C108.286 54.9753 108.258 54.9916 108.228 55.0019L95.3814 59.6483C95.334 59.6655 95.2825 59.6672 95.234 59.6531C95.1856 59.6391 95.1428 59.6101 95.1117 59.5703L89.8331 52.8065L83.4026 54.3587C83.352 54.3709 83.2989 54.3663 83.2512 54.3455C83.2035 54.3247 83.1638 54.2889 83.1381 54.2434L78.1704 45.4553L67.5697 51.7977C67.5277 51.8228 67.4792 51.8344 67.4305 51.8309C67.3818 51.8275 67.3353 51.8093 67.2972 51.7786Z" fill="white"/>
<path d="M52.1458 12.8025L0.521851 29.3412L21.0062 94.0234L72.6301 77.4847L52.1458 12.8025Z" fill="#C1D8ED"/>
<g opacity="0.61">
<path d="M13.0127 55.3017C12.959 55.3018 12.907 55.2825 12.8663 55.2474C12.8255 55.2123 12.7985 55.1636 12.7903 55.1103C12.782 55.0569 12.793 55.0023 12.8213 54.9564C12.8496 54.9105 12.8933 54.8763 12.9444 54.8599L56.6602 40.855C56.717 40.8368 56.7787 40.842 56.8316 40.8696C56.8846 40.8971 56.9245 40.9447 56.9426 41.0018C56.9607 41.059 56.9554 41.121 56.9281 41.1742C56.9007 41.2275 56.8534 41.2676 56.7966 41.2858L13.0809 55.2903C13.0589 55.2977 13.0359 55.3016 13.0127 55.3017Z" fill="white"/>
</g>
<g opacity="0.61">
<path d="M14.123 58.808C14.0694 58.8079 14.0176 58.7885 13.9769 58.7534C13.9363 58.7183 13.9094 58.6697 13.9012 58.6165C13.893 58.5632 13.904 58.5087 13.9321 58.4629C13.9603 58.417 14.0038 58.3828 14.0549 58.3664L57.7705 44.3614C57.7988 44.3518 57.8287 44.3479 57.8585 44.35C57.8883 44.3521 57.9174 44.3602 57.944 44.3737C57.9707 44.3873 57.9944 44.406 58.0137 44.4289C58.0331 44.4518 58.0477 44.4783 58.0568 44.5069C58.0659 44.5355 58.0692 44.5657 58.0665 44.5956C58.0638 44.6255 58.0553 44.6546 58.0413 44.6811C58.0274 44.7077 58.0083 44.7312 57.9852 44.7502C57.9621 44.7693 57.9355 44.7835 57.9069 44.7921L14.1912 58.7972C14.1692 58.8044 14.1462 58.8081 14.123 58.808Z" fill="white"/>
</g>
<g opacity="0.61">
<path d="M15.2258 62.2983C15.1722 62.2982 15.1204 62.2789 15.0797 62.2438C15.039 62.2087 15.0121 62.1601 15.0039 62.1068C14.9957 62.0535 15.0066 61.9991 15.0348 61.9532C15.063 61.9073 15.1065 61.8731 15.1575 61.8566L58.8733 47.8513C58.9015 47.8423 58.9311 47.839 58.9605 47.8415C58.9899 47.844 59.0185 47.8523 59.0448 47.8659C59.071 47.8796 59.0943 47.8983 59.1133 47.921C59.1323 47.9437 59.1468 47.9699 59.1557 47.9982C59.1647 48.0265 59.168 48.0563 59.1655 48.0859C59.163 48.1154 59.1547 48.1442 59.1412 48.1706C59.1276 48.197 59.109 48.2204 59.0865 48.2396C59.0639 48.2587 59.0378 48.2732 59.0097 48.2822L15.2941 62.2872C15.272 62.2945 15.249 62.2982 15.2258 62.2983Z" fill="white"/>
</g>
<g opacity="0.61">
<path d="M23.8016 39.5952C23.748 39.5951 23.6962 39.5758 23.6555 39.5407C23.6148 39.5056 23.5879 39.457 23.5797 39.4037C23.5715 39.3505 23.5824 39.296 23.6106 39.2501C23.6388 39.2042 23.6823 39.17 23.7334 39.1536L53.1509 29.7291C53.2074 29.7119 53.2685 29.7177 53.3208 29.7454C53.3731 29.773 53.4125 29.8203 53.4305 29.8769C53.4484 29.9336 53.4434 29.9951 53.4167 30.0481C53.3899 30.1011 53.3434 30.1413 53.2874 30.1602L23.8699 39.5846C23.8478 39.5916 23.8248 39.5951 23.8016 39.5952Z" fill="white"/>
</g>
<g opacity="0.61">
<path d="M50.2574 20.5928L20.8409 30.0203L21.2777 31.3989L50.6942 21.9714L50.2574 20.5928Z" fill="white"/>
</g>
<g opacity="0.61">
<path d="M55.1187 35.9084L25.7023 45.3359L26.139 46.7146L55.5555 37.287L55.1187 35.9084Z" fill="white"/>
</g>
<g opacity="0.61">
<path d="M22.4304 35.265C22.3768 35.2649 22.325 35.2456 22.2843 35.2105C22.2436 35.1754 22.2167 35.1268 22.2085 35.0735C22.2002 35.0202 22.2112 34.9658 22.2394 34.9199C22.2675 34.874 22.3111 34.8398 22.3621 34.8233L51.7795 25.3991C51.8076 25.3901 51.8372 25.3867 51.8667 25.3892C51.8961 25.3917 51.9247 25.4 51.951 25.4136C51.9772 25.4273 52.0005 25.4459 52.0195 25.4686C52.0386 25.4913 52.053 25.5176 52.062 25.5459C52.0709 25.5741 52.0742 25.6039 52.0718 25.6335C52.0693 25.6631 52.061 25.6919 52.0475 25.7183C52.0339 25.7447 52.0153 25.7681 51.9928 25.7873C51.9702 25.8064 51.9441 25.8209 51.916 25.8299L22.4986 35.2539C22.4766 35.2611 22.4536 35.2648 22.4304 35.265Z" fill="white"/>
</g>
<path d="M13.7671 43.5802C17.0982 43.5802 19.7986 40.8642 19.7986 37.5138C19.7986 34.1634 17.0982 31.4474 13.7671 31.4474C10.436 31.4474 7.7356 34.1634 7.7356 37.5138C7.7356 40.8642 10.436 43.5802 13.7671 43.5802Z" fill="#F3F5FD"/>
<mask id="mask0_175_1054" style="mask-type:alpha" maskUnits="userSpaceOnUse" x="7" y="31" width="13" height="13">
<path d="M13.7671 43.5802C17.0982 43.5802 19.7986 40.8642 19.7986 37.5138C19.7986 34.1634 17.0982 31.4474 13.7671 31.4474C10.436 31.4474 7.7356 34.1634 7.7356 37.5138C7.7356 40.8642 10.436 43.5802 13.7671 43.5802Z" fill="#F3F5FD"/>
</mask>
<g mask="url(#mask0_175_1054)">
<ellipse cx="5.99746" cy="6.02574" rx="5.99746" ry="6.02574" transform="matrix(0.952122 -0.305719 0.302533 0.953139 8.41125 40.0867)" fill="#5BB553"/>
</g>
<ellipse cx="1.84414" cy="1.84298" rx="1.84414" ry="1.84298" transform="matrix(0.665174 -0.746689 0.742861 0.669446 10.605 35.861)" fill="#5BB553"/>
<line x1="1.5" y1="-1.5" x2="21.6902" y2="-1.5" transform="matrix(0.952122 -0.305719 0.302533 0.953139 16.1213 65.9636)" stroke="#E7F0F8" stroke-width="3" stroke-linecap="round"/>
<line x1="1.5" y1="-1.5" x2="21.6902" y2="-1.5" transform="matrix(0.952122 -0.305719 0.302533 0.953139 22.424 75.2472)" stroke="#E7F0F8" stroke-width="3" stroke-linecap="round"/>
<ellipse cx="0.799662" cy="0.803432" rx="0.799662" ry="0.803432" transform="matrix(0.952122 -0.305719 0.302533 0.953139 19.0382 75.153)" fill="#E7F0F8"/>
<line x1="1.5" y1="-1.5" x2="21.6902" y2="-1.5" transform="matrix(0.952122 -0.305719 0.302533 0.953139 23.3962 78.3103)" stroke="#E7F0F8" stroke-width="3" stroke-linecap="round"/>
<ellipse cx="0.799662" cy="0.803432" rx="0.799662" ry="0.803432" transform="matrix(0.952122 -0.305719 0.302533 0.953139 20.0104 78.2161)" fill="#E7F0F8"/>
<line x1="1.5" y1="-1.5" x2="21.6902" y2="-1.5" transform="matrix(0.952122 -0.305719 0.302533 0.953139 24.3685 81.3735)" stroke="#E7F0F8" stroke-width="3" stroke-linecap="round"/>
<ellipse cx="0.799662" cy="0.803432" rx="0.799662" ry="0.803432" transform="matrix(0.952122 -0.305719 0.302533 0.953139 20.9827 81.2793)" fill="#E7F0F8"/>
<line x1="1.5" y1="-1.5" x2="21.6902" y2="-1.5" transform="matrix(0.952122 -0.305719 0.302533 0.953139 25.3407 84.4366)" stroke="#E7F0F8" stroke-width="3" stroke-linecap="round"/>
<ellipse cx="0.799662" cy="0.803432" rx="0.799662" ry="0.803432" transform="matrix(0.952122 -0.305719 0.302533 0.953139 21.955 84.3424)" fill="#E7F0F8"/>
<path d="M91.2174 11.2558H34.9653V83.7397H91.2174V11.2558Z" fill="#DEE8F5"/>
<path d="M49.8507 15.8664H39.3972V25.2788H49.8507V15.8664Z" fill="white"/>
<path d="M86.7863 39.0296H77.4423V61.5955H86.7863V39.0296Z" fill="#6597E0"/>
<path d="M77.4425 58.5478H39.3982V61.4248H77.4425V58.5478Z" fill="#C1D8ED"/>
<path d="M86.7863 37.6711H39.3962V40.3883H86.7863V37.6711Z" fill="white"/>
<path d="M87.011 61.8217H39.1715V37.6711H39.621V61.3696H86.5615V37.6711H87.011V61.8217Z" fill="white"/>
<path d="M48.3283 39.0296H47.8787V61.5957H48.3283V39.0296Z" fill="white"/>
<path d="M86.7863 43.0391H39.3982V43.4913H86.7863V43.0391Z" fill="white"/>
<path d="M86.7863 46.0957H39.3982V46.5479H86.7863V46.0957Z" fill="white"/>
<path d="M86.7863 49.1521H39.3982V49.6043H86.7863V49.1521Z" fill="white"/>
<path d="M86.7863 52.2087H39.3982V52.6609H86.7863V52.2087Z" fill="white"/>
<path d="M86.7863 55.2651H39.3982V55.7174H86.7863V55.2651Z" fill="white"/>
<path d="M86.7863 58.3217H39.3982V58.774H86.7863V58.3217Z" fill="white"/>
<path d="M68.0715 39.0296H67.6218V61.5957H68.0715V39.0296Z" fill="white"/>
<path d="M77.6671 39.0296H77.2174V61.5957H77.6671V39.0296Z" fill="white"/>
<path d="M86.7864 74.0953H72.4238V79.2595H86.7864V74.0953Z" fill="white"/>
<path d="M86.7863 66.0108H39.3962V66.463H86.7863V66.0108Z" fill="white"/>
<path d="M86.7863 69.94H39.3962V70.3923H86.7863V69.94Z" fill="white"/>
<path d="M86.7863 21.1235H54.0624V21.5757H86.7863V21.1235Z" fill="white"/>
<path d="M70.7975 25.0527H54.0624V25.505H70.7975V25.0527Z" fill="white"/>
<path d="M86.7863 29.4105H39.3962V29.8627H86.7863V29.4105Z" fill="white"/>
<path d="M86.7863 33.3397H39.3962V33.792H86.7863V33.3397Z" fill="white"/>
<path d="M86.7863 16.0272H54.0624V17.8796H86.7863V16.0272Z" fill="white"/>
</g>
<defs>
<clipPath id="clip0_175_1054">
<rect width="125" height="100" fill="white" transform="translate(0.5)"/>
</clipPath>
</defs>
</svg>
