<svg width="91" height="52" viewBox="0 0 91 52" fill="none" xmlns="http://www.w3.org/2000/svg">
<path fill-rule="evenodd" clip-rule="evenodd" d="M90.3252 42.9968C89.9702 33.0138 78.9192 35.6738 75.9442 29.5488C73.0382 23.5688 78.0342 21.5188 78.0342 14.8448C78.0342 6.93878 71.5432 0.529785 63.5372 0.529785C53.2002 0.529785 53.3452 9.11979 45.4662 9.11979H45.4652C37.5862 9.11979 37.7312 0.529785 27.3942 0.529785C19.3872 0.529785 12.8972 6.93978 12.8972 14.8448C12.8972 21.5188 17.8922 23.5678 14.9872 29.5488C12.0112 35.6738 0.961158 33.0138 0.605158 42.9968C0.437158 47.7068 4.47516 51.5298 9.24816 51.5298C14.0212 51.5298 17.9162 47.7098 17.8902 42.9968C17.8682 39.1438 15.1982 37.7718 16.1572 33.1808H16.1592C16.9302 29.3408 21.0942 26.0508 26.4672 25.3898C32.4872 24.6488 39.2912 27.5848 39.2912 34.2138C39.2912 38.3188 36.8292 38.8738 36.8292 42.9968C36.8292 47.5258 40.5672 51.5298 45.4592 51.5298C50.3512 51.5298 54.1012 47.5258 54.1012 42.9968C54.1012 38.8748 51.6392 38.3188 51.6392 34.2138C51.6392 27.5838 58.4422 24.6488 64.4642 25.3898C69.8372 26.0508 74.0012 29.3398 74.7712 33.1798H74.7732C75.7322 37.7718 73.0622 39.1438 73.0402 42.9968C73.0142 47.7088 76.9102 51.5298 81.6832 51.5298C86.4562 51.5298 90.4932 47.7058 90.3252 42.9968ZM45.4722 28.8098C40.6992 28.8098 36.8292 24.9898 36.8292 20.2758C36.8292 15.5638 40.6992 11.7428 45.4722 11.7428C50.2452 11.7428 54.1142 15.5628 54.1142 20.2758C54.1142 24.9888 50.2452 28.8098 45.4722 28.8098Z" fill="#E5222E"/>
</svg>