<svg xmlns="http://www.w3.org/2000/svg" viewBox="0 0 500 500"><title>Asset 1</title><g id="Layer_2" data-name="Layer 2"><g id="Layer_1-2" data-name="Layer 1"><path d="M289.06,181.64H242.77V336.72h47.85c68.16,0,83.79-51.76,83.79-77.54C374.41,217.19,347.66,181.64,289.06,181.64Z" fill="#95ba2e"/><path d="M250,0C111.91,0,0,111.91,0,250S111.91,500,250,500,500,388.09,500,250,388.09,0,250,0ZM168.55,249V363.67H138.48V154.49h30.08Zm-15-118.36a19.73,19.73,0,1,1,19.73-19.73A19.8,19.8,0,0,1,153.52,130.66Zm140.82,233.2H212.7V154.49h81.25c77.34,0,111.33,55.27,111.33,104.69C405.27,312.89,363.28,363.87,294.34,363.87Z" fill="#95ba2e"/></g></g></svg>