<svg width="35" height="24" viewBox="0 0 35 24" fill="none" xmlns="http://www.w3.org/2000/svg">
<rect x="1" y="0.5" width="33.5" height="23" rx="5.5" fill="white"/>
<rect x="1" y="0.5" width="33.5" height="23" rx="5.5" stroke="#F2F4F7"/>
<path fill-rule="evenodd" clip-rule="evenodd" d="M11.251 15.8582H9.19129L7.64674 9.79235C7.57343 9.51332 7.41776 9.26664 7.18879 9.15038C6.61737 8.85821 5.9877 8.62568 5.30078 8.50841V8.27487H8.61886C9.07681 8.27487 9.42026 8.62568 9.47751 9.03311L10.2789 13.4086L12.3376 8.27487H14.3401L11.251 15.8582ZM15.485 15.8582H13.5398L15.1415 8.27487H17.0868L15.485 15.8582ZM19.6035 10.3757C19.6607 9.96725 20.0042 9.73372 20.4049 9.73372C21.0346 9.67508 21.7205 9.79235 22.2929 10.0835L22.6364 8.45079C22.0639 8.21725 21.4343 8.09998 20.8628 8.09998C18.9748 8.09998 17.601 9.15038 17.601 10.6082C17.601 11.7173 18.5741 12.2996 19.261 12.6504C20.0042 13.0002 20.2904 13.2337 20.2332 13.5835C20.2332 14.1082 19.6607 14.3418 19.0893 14.3418C18.4024 14.3418 17.7155 14.1669 17.0868 13.8747L16.7433 15.5084C17.4303 15.7996 18.1734 15.9169 18.8603 15.9169C20.9773 15.9745 22.2929 14.9251 22.2929 13.35C22.2929 11.3664 19.6035 11.2502 19.6035 10.3757ZM29.1008 15.8582L27.5562 8.27487H25.8972C25.5537 8.27487 25.2103 8.50841 25.0958 8.85821L22.2356 15.8582H24.2381L24.6378 14.7502H27.0983L27.3273 15.8582H29.1008ZM26.1834 10.3171L26.7548 13.1751H25.153L26.1834 10.3171Z" fill="#172B85"/>
</svg>
