<svg viewBox="0 0 22 22" fill="none" xmlns="http://www.w3.org/2000/svg">
  <path d="M21.77 11.241c0-.901-.076-1.559-.238-2.241H11v4.068h6.182c-.124 1.011-.797 2.534-2.293 3.557l-.021.136 3.33 2.521.23.023c2.12-1.913 3.341-4.726 3.341-8.064" fill="#fff"/>
  <path d="M11.021 21.794c3.03 0 5.572-.974 7.43-2.655l-3.54-2.68c-.948.646-2.22 1.096-3.89 1.096A6.739 6.739 0 0 1 4.64 13l-.132.01-3.463 2.62-.045.123c1.845 3.58 5.634 6.041 10.021 6.041z" fill="#fff"/>
  <path d="M4.836 13.142a6.61 6.61 0 0 1-.374-2.168c0-.755.137-1.486.362-2.168l-.007-.145L1.311 6l-.114.053A10.77 10.77 0 0 0 0 10.974c0 1.766.436 3.435 1.197 4.921l3.64-2.753" fill="#fff"/>
  <path d="M11.021 4.239c2.107 0 3.528.889 4.338 1.632l3.166-3.02C16.581 1.083 14.05 0 11.021 0 6.634 0 2.845 2.46 1 6.041l3.627 2.753a6.767 6.767 0 0 1 6.394-4.555" fill="#fff"/>
</svg>