<svg width="96" height="97" viewBox="0 0 96 97" fill="none" xmlns="http://www.w3.org/2000/svg">
<path d="M48 6.63672C24.795 6.63672 6 25.4317 6 48.6367C6 67.2217 18.0225 82.9192 34.7175 88.4842C36.8175 88.8517 37.605 87.5917 37.605 86.4892C37.605 85.4917 37.5525 82.1842 37.5525 78.6667C27 80.6092 24.27 76.0942 23.43 73.7317C22.9575 72.5242 20.91 68.7967 19.125 67.7992C17.655 67.0117 15.555 65.0692 19.0725 65.0167C22.38 64.9642 24.7425 68.0617 25.53 69.3217C29.31 75.6742 35.3475 73.8892 37.7625 72.7867C38.13 70.0567 39.2325 68.2192 40.44 67.1692C31.095 66.1192 21.33 62.4967 21.33 46.4317C21.33 41.8642 22.9575 38.0842 25.635 35.1442C25.215 34.0942 23.745 29.7892 26.055 24.0142C26.055 24.0142 29.5725 22.9117 37.605 28.3192C40.965 27.3742 44.535 26.9017 48.105 26.9017C51.675 26.9017 55.245 27.3742 58.605 28.3192C66.6375 22.8592 70.155 24.0142 70.155 24.0142C72.465 29.7892 70.995 34.0942 70.575 35.1442C73.2525 38.0842 74.88 41.8117 74.88 46.4317C74.88 62.5492 65.0625 66.1192 55.7175 67.1692C57.24 68.4817 58.5525 71.0017 58.5525 74.9392C58.5525 80.5567 58.5 85.0717 58.5 86.4892C58.5 87.5917 59.2875 88.9042 61.3875 88.4842C69.7253 85.6695 76.9704 80.3109 82.1031 73.1627C87.2359 66.0146 89.9977 57.4368 90 48.6367C90 25.4317 71.205 6.63672 48 6.63672Z" fill="#252525"/>
</svg>
