<svg width="100" height="101" viewBox="0 0 100 101" fill="none" xmlns="http://www.w3.org/2000/svg">
<g clip-path="url(#clip0_1031_9039)">
<path d="M90.4156 46.2584L53.7407 9.58543C51.629 7.47283 48.2037 7.47283 46.0902 9.58543L38.4753 17.2021L48.1351 26.862C50.3803 26.1032 52.9545 26.6124 54.7435 28.4023C56.5435 30.2032 57.0481 32.7994 56.2702 35.0528L65.5817 44.3634C67.8351 43.5864 70.4331 44.0892 72.2322 45.891C74.7461 48.4049 74.7461 52.4783 72.2322 54.9941C69.7164 57.5089 65.643 57.5089 63.1263 54.9941C61.2358 53.1018 60.7678 50.3228 61.7267 47.9935L53.0423 39.31V62.161C53.6548 62.4645 54.2334 62.8686 54.7435 63.3787C57.2575 65.8926 57.2575 69.9661 54.7435 72.4827C52.2296 74.9957 48.1534 74.9957 45.6413 72.4827C43.1274 69.9651 43.1274 65.8917 45.6413 63.3787C46.263 62.758 46.9824 62.2881 47.7503 61.9736V38.9096C46.9824 38.5951 46.2648 38.1298 45.6413 37.5045C43.7372 35.6013 43.2792 32.8058 44.2555 30.4674L34.7328 20.9428L9.58445 46.0884C7.47185 48.2028 7.47185 51.6282 9.58445 53.7408L46.2611 90.4147C48.3728 92.5273 51.7972 92.5273 53.9117 90.4147L90.4156 53.9108C92.5282 51.7982 92.5282 48.371 90.4156 46.2584Z" fill="#F05133"/>
</g>
<defs>
<clipPath id="clip0_1031_9039">
<rect width="84" height="84" fill="white" transform="translate(8 8)"/>
</clipPath>
</defs>
</svg>