<svg width="35" height="24" viewBox="0 0 35 24" fill="none" xmlns="http://www.w3.org/2000/svg">
<rect x="0.5" y="0.5" width="33.5" height="23" rx="3.5" fill="#1F72CD"/>
<rect x="0.5" y="0.5" width="33.5" height="23" rx="3.5" stroke="#F2F4F7"/>
<path fill-rule="evenodd" clip-rule="evenodd" d="M6.09517 8.5L2.91406 15.7467H6.7223L7.19441 14.5913H8.27355L8.74566 15.7467H12.9375V14.8649L13.311 15.7467H15.4793L15.8528 14.8462V15.7467H24.5706L25.6307 14.6213L26.6232 15.7467L31.1009 15.7561L27.9097 12.1436L31.1009 8.5H26.6927L25.6608 9.60463L24.6995 8.5H15.2156L14.4013 10.3704L13.5678 8.5H9.7675V9.35186L9.34474 8.5H6.09517ZM6.83205 9.52905H8.68836L10.7984 14.4431V9.52905H12.8319L14.4617 13.0524L15.9637 9.52905H17.987V14.7291H16.7558L16.7458 10.6544L14.9509 14.7291H13.8495L12.0446 10.6544V14.7291H9.51179L9.03162 13.5633H6.43744L5.95827 14.728H4.60123L6.83205 9.52905ZM24.1196 9.52905H19.1134V14.726H24.0421L25.6307 13.0036L27.1618 14.726H28.7624L26.436 12.1426L28.7624 9.52905H27.2313L25.6507 11.2316L24.1196 9.52905ZM7.73508 10.4089L6.8804 12.4856H8.58876L7.73508 10.4089ZM20.3497 11.555V10.6057V10.6048H23.4734L24.8364 12.1229L23.413 13.6493H20.3497V12.613H23.0808V11.555H20.3497Z" fill="white"/>
</svg>
