<svg width="100" height="101" viewBox="0 0 100 101" fill="none" xmlns="http://www.w3.org/2000/svg">
<g clip-path="url(#clip0_743_5735)">
<path d="M90.4146 46.8907L53.7328 10.2221C51.6276 8.10371 48.1967 8.10371 46.0757 10.2221L38.4737 17.8372L48.139 27.4893C50.3938 26.7386 52.9663 27.2426 54.7435 29.0355C56.5495 30.8415 57.0535 33.4376 56.2896 35.6793L65.5873 44.9902C67.8422 44.2106 70.441 44.7172 72.2312 46.5206C74.7617 49.0353 74.7617 53.1093 72.2312 55.6267C69.7165 58.1415 65.6556 58.1415 63.1382 55.6267C61.2508 53.7393 60.7731 50.9516 61.7155 48.6416L53.0057 39.9738V62.8192C53.62 63.1211 54.208 63.5306 54.7146 64.0372C57.2162 66.5677 57.2162 70.626 54.7146 73.1433C52.1998 75.6581 48.1101 75.6581 45.5822 73.1433C43.0675 70.6286 43.0675 66.5677 45.5822 64.0372C46.2253 63.4072 46.9367 62.9426 47.7006 62.6302V39.567C46.9498 39.2388 46.2227 38.7873 45.5953 38.16C43.6948 36.2595 43.2302 33.4717 44.2146 31.1328L34.7252 21.591L9.56984 46.7332C7.47772 48.8385 7.47772 52.2693 9.56984 54.3903L46.2516 91.059C48.37 93.1773 51.7877 93.1773 53.9087 91.059L90.412 54.5557C92.5303 52.4505 92.5303 49.0196 90.412 46.8986L90.4146 46.8907Z" fill="black"/>
</g>
<defs>
<clipPath id="clip0_743_5735">
<rect width="84" height="84" fill="white" transform="translate(8 8.63672)"/>
</clipPath>
</defs>
</svg>
