<svg xmlns="http://www.w3.org/2000/svg" viewBox="0 0 500 406.28"><title>Asset 3</title><g id="Layer_2" data-name="Layer 2"><g id="Layer_1-2" data-name="Layer 1"><path d="M157.24,406.28c188.68,0,291.88-156.32,291.88-291.88,0-4.44,0-8.86-.3-13.26A208.72,208.72,0,0,0,500,48a204.76,204.76,0,0,1-58.92,16.14,102.94,102.94,0,0,0,45.1-56.74A205.58,205.58,0,0,1,421,32.34,102.68,102.68,0,0,0,246.22,125.9,291.24,291.24,0,0,1,34.8,18.72,102.66,102.66,0,0,0,66.56,155.66,101.82,101.82,0,0,1,20,142.82v1.3a102.62,102.62,0,0,0,82.3,100.56A102.42,102.42,0,0,1,56,246.44a102.7,102.7,0,0,0,95.84,71.24,205.84,205.84,0,0,1-127.4,44A208.82,208.82,0,0,1,0,360.2a290.42,290.42,0,0,0,157.24,46" fill="#1DA1F2"/></g></g></svg>