<svg xmlns:xlink="http://www.w3.org/1999/xlink" xmlns="http://www.w3.org/2000/svg" width="512" height="123" viewBox="0 0 512 123">
  <g>
    <path d="M73.915,36.1,19.179,108.014H75.912V120H0v-9.589L54.738,38.493H2.8V26.51H73.915Z" fill="#cc2936"/>
    <path d="M181.391,73.254a50.99,50.99,0,0,1-3.7,19.578,46.339,46.339,0,0,1-25.97,25.87,52.875,52.875,0,0,1-20.075,3.7,52.316,52.316,0,0,1-19.878-3.7A46.347,46.347,0,0,1,85.8,92.832a50.933,50.933,0,0,1-3.7-19.578,50.923,50.923,0,0,1,3.7-19.576,46.323,46.323,0,0,1,25.97-25.87,52.279,52.279,0,0,1,19.878-3.7,52.837,52.837,0,0,1,20.075,3.7,46.315,46.315,0,0,1,25.97,25.87A50.98,50.98,0,0,1,181.391,73.254Zm-14.383,0a41.934,41.934,0,0,0-2.5-14.583,35.122,35.122,0,0,0-7.09-11.787,33.352,33.352,0,0,0-11.088-7.889,38.643,38.643,0,0,0-29.365,0,32.214,32.214,0,0,0-10.988,7.889,35.905,35.905,0,0,0-6.992,11.787,43.829,43.829,0,0,0,0,29.165,35.813,35.813,0,0,0,6.992,11.787,32.2,32.2,0,0,0,10.988,7.892,38.668,38.668,0,0,0,29.365,0,33.332,33.332,0,0,0,11.088-7.892,35.033,35.033,0,0,0,7.09-11.787A41.9,41.9,0,0,0,167.008,73.254Z" fill="#222"/>
    <path d="M245.712,38.493H218.743V93.631a29.833,29.833,0,0,0,1,8.491,11.963,11.963,0,0,0,2.8,5.093,9.627,9.627,0,0,0,4.3,2.5,20.2,20.2,0,0,0,5.492.7,25.978,25.978,0,0,0,6.993-1,32.094,32.094,0,0,0,6.591-2.6l.6,12.185q-7.392,3.394-17.778,3.4a33.373,33.373,0,0,1-7.892-1,18.6,18.6,0,0,1-7.492-3.8,20.886,20.886,0,0,1-5.592-7.592q-2.2-4.792-2.2-12.585V38.493H185.78V26.51h19.779V.138h13.184V26.51h26.969Z" fill="#222"/>
    <path d="M264.888,76.851a40.055,40.055,0,0,0,3.4,13.185,34.493,34.493,0,0,0,17.981,17.778,32.264,32.264,0,0,0,12.985,2.6,33.3,33.3,0,0,0,18.278-4.894A36.6,36.6,0,0,0,329.213,94.23l10.189,8.391q-8.392,10.59-18.48,15.182a51.705,51.705,0,0,1-21.673,4.594,49.743,49.743,0,0,1-19.279-3.7,45.151,45.151,0,0,1-15.282-10.289A48.651,48.651,0,0,1,254.6,92.832a50.933,50.933,0,0,1-3.695-19.578A52.232,52.232,0,0,1,254.5,53.678a47.343,47.343,0,0,1,9.989-15.584,45.906,45.906,0,0,1,14.982-10.286,46.486,46.486,0,0,1,18.579-3.7,45.564,45.564,0,0,1,18.977,3.8,42.109,42.109,0,0,1,14.084,10.086,43.2,43.2,0,0,1,8.69,14.785,53.921,53.921,0,0,1,3,18.078v5.994Zm63.526-10.788q0-13.38-7.991-21.675T298.05,36.1a31.918,31.918,0,0,0-12.385,2.5,34.9,34.9,0,0,0-10.488,6.694,33.48,33.48,0,0,0-7.193,9.589,24.716,24.716,0,0,0-2.7,11.187Z" fill="#222"/>
    <path d="M362.174,55.675q0-6.19-.3-12.585t-.5-16.58h12.984V43.888h.4a29.025,29.025,0,0,1,4-7.292,31.327,31.327,0,0,1,6.291-6.292,30.907,30.907,0,0,1,8.591-4.5,33.784,33.784,0,0,1,11.088-1.7,35.791,35.791,0,0,1,9.786,1.2l-2.6,12.985a22.215,22.215,0,0,0-7.59-1,27.106,27.106,0,0,0-12.985,2.9,28.807,28.807,0,0,0-8.99,7.391,30.677,30.677,0,0,0-5.3,9.689,32.149,32.149,0,0,0-1.7,9.989V120H362.174Z" fill="#222"/>
    <path d="M512,73.254a50.99,50.99,0,0,1-3.7,19.578,46.339,46.339,0,0,1-25.97,25.87,52.875,52.875,0,0,1-20.075,3.7,52.316,52.316,0,0,1-19.878-3.7,46.347,46.347,0,0,1-25.97-25.87,50.933,50.933,0,0,1-3.7-19.578,50.923,50.923,0,0,1,3.7-19.576,46.323,46.323,0,0,1,25.97-25.87,52.279,52.279,0,0,1,19.878-3.7,52.837,52.837,0,0,1,20.075,3.7,46.315,46.315,0,0,1,25.97,25.87A50.98,50.98,0,0,1,512,73.254Zm-14.383,0a41.934,41.934,0,0,0-2.5-14.583,35.122,35.122,0,0,0-7.09-11.787,33.352,33.352,0,0,0-11.088-7.889,38.643,38.643,0,0,0-29.365,0,32.214,32.214,0,0,0-10.988,7.889A35.905,35.905,0,0,0,429.6,58.671a43.829,43.829,0,0,0,0,29.165,35.813,35.813,0,0,0,6.992,11.787,32.2,32.2,0,0,0,10.988,7.892,38.668,38.668,0,0,0,29.365,0,33.332,33.332,0,0,0,11.088-7.892,35.033,35.033,0,0,0,7.09-11.787A41.9,41.9,0,0,0,497.617,73.254Z" fill="#222"/>
  </g>
</svg>