<svg width="35" height="24" viewBox="0 0 35 24" fill="none" xmlns="http://www.w3.org/2000/svg">
<rect x="1" y="0.5" width="33.5" height="23" rx="3.5" fill="white"/>
<rect x="1" y="0.5" width="33.5" height="23" rx="3.5" stroke="#F2F4F7"/>
<path fill-rule="evenodd" clip-rule="evenodd" d="M15.115 18.4482L15.3357 16.9991L14.844 16.9873H12.4961L14.1278 6.29364C14.1329 6.26126 14.1493 6.2312 14.1733 6.20981C14.1975 6.18843 14.2282 6.1767 14.2604 6.1767H18.2193C19.5338 6.1767 20.4408 6.45933 20.9143 7.01727C21.1363 7.27902 21.2777 7.55261 21.3461 7.85357C21.4179 8.16945 21.4191 8.54679 21.3491 9.00709L21.344 9.04057V9.33555L21.566 9.46557C21.7529 9.56809 21.9015 9.6854 22.0155 9.81969C22.2054 10.0435 22.3282 10.328 22.3801 10.6652C22.4338 11.0119 22.4161 11.4247 22.3282 11.892C22.2269 12.4294 22.0632 12.8975 21.842 13.2805C21.6386 13.6334 21.3795 13.9262 21.0717 14.153C20.7779 14.3685 20.4289 14.5321 20.0343 14.6368C19.6519 14.7397 19.2158 14.7917 18.7376 14.7917H18.4295C18.2093 14.7917 17.9953 14.8737 17.8273 15.0207C17.6588 15.1707 17.5475 15.3758 17.5133 15.6L17.49 15.7305L17.1 18.2847L17.0824 18.3784C17.0776 18.4081 17.0696 18.4229 17.0578 18.4329C17.0473 18.4421 17.0321 18.4482 17.0173 18.4482H15.115Z" fill="#28356A"/>
<path fill-rule="evenodd" clip-rule="evenodd" d="M21.7761 9.07465C21.7644 9.15273 21.7508 9.23252 21.7356 9.31451C21.2136 12.0852 19.4273 13.0423 17.146 13.0423H15.9845C15.7055 13.0423 15.4703 13.2516 15.4269 13.5361L14.6638 18.5394C14.6356 18.7262 14.7748 18.8945 14.9571 18.8945H17.0173C17.2612 18.8945 17.4684 18.7113 17.5069 18.4626L17.5271 18.3545L17.915 15.8103L17.9399 15.6707C17.9779 15.4212 18.1856 15.2379 18.4295 15.2379H18.7376C20.7336 15.2379 22.2961 14.4004 22.7528 11.9765C22.9435 10.964 22.8448 10.1186 22.34 9.52396C22.1873 9.3447 21.9977 9.19586 21.7761 9.07465Z" fill="#298FC2"/>
<path fill-rule="evenodd" clip-rule="evenodd" d="M21.2288 8.84962C21.149 8.82555 21.0667 8.8038 20.9823 8.78413C20.8974 8.76494 20.8105 8.74796 20.7211 8.73305C20.4079 8.68075 20.0647 8.65594 19.6971 8.65594H16.5941C16.5176 8.65594 16.445 8.67379 16.3801 8.70604C16.2369 8.77716 16.1306 8.9172 16.1049 9.08864L15.4447 13.4102L15.4258 13.5362C15.4692 13.2517 15.7043 13.0424 15.9833 13.0424H17.1449C19.4261 13.0424 21.2124 12.0847 21.7345 9.31457C21.7501 9.23258 21.7632 9.15279 21.7749 9.07471C21.6428 9.00224 21.4998 8.94029 21.3457 8.8875C21.3077 8.87443 21.2684 8.86184 21.2288 8.84962Z" fill="#22284F"/>
<path fill-rule="evenodd" clip-rule="evenodd" d="M16.1047 9.08862C16.1304 8.91718 16.2367 8.77715 16.3799 8.70652C16.4453 8.67414 16.5174 8.6563 16.5939 8.6563H19.6969C20.0645 8.6563 20.4077 8.68123 20.7208 8.73353C20.8103 8.74831 20.8972 8.76542 20.9821 8.7846C21.0665 8.80415 21.1488 8.82603 21.2286 8.84998C21.2682 8.8622 21.3075 8.8749 21.3459 8.88749C21.4999 8.94028 21.6431 9.00272 21.7752 9.07469C21.9305 8.05082 21.7739 7.3537 21.2383 6.72245C20.6478 6.0274 19.5821 5.72998 18.2184 5.72998H14.2593C13.9808 5.72998 13.7431 5.9393 13.7001 6.22426L12.0511 17.0279C12.0186 17.2416 12.1781 17.4344 12.3866 17.4344H14.8308L16.1047 9.08862Z" fill="#28356A"/>
</svg>
