<svg xmlns="http://www.w3.org/2000/svg" viewBox="0 0 500 500"><title>Asset 2</title><g id="Layer_2" data-name="Layer 2"><g id="Layer_1-2" data-name="Layer 1"><path d="M490.59,233.83C472.22,217,415.33,179.95,367.7,132.31,320.44,85,282.75,27.78,266.17,9.41c-12.55-12.55-19.79-12.55-32.35,0C217.23,27.78,179.56,85,132.3,132.31,84.67,179.95,27.78,218.5,9.41,233.83c-12.55,12.55-12.55,19.79,0,32.35C27.78,282.53,85,320.44,132.31,367.7c47.64,47.64,84.94,104.52,101.52,122.89,12.55,12.55,19.79,12.55,32.35,0,16.36-18.37,53.88-75.25,101.52-122.89,47.26-47.26,104.9-86.41,122.89-101.52C503.14,253.62,503.14,246.38,490.59,233.83Zm-56.89,29.12c-5.49,7.32-40.07,53.66-80.71,94.12l0,0C312.49,397.74,271.34,428.48,264,434l-.13.08c-7.59,6.29-20.19,6-27.94,0-7.32-5.49-50.39-38.15-90.85-78.79l0,0c-40.65-40.46-73.31-83.53-78.79-90.85h0c-6.29-7.59-6-20.19,0-27.93,5.49-7.32,38.15-50.39,78.79-90.85l0,0c40.46-40.65,83.53-73.31,90.85-78.79,7.74-6,20.35-6.29,27.93,0h0c7.32,5.49,50.39,38.15,90.85,78.79l0,0c40.65,40.46,73.39,84.8,78.88,92.12v0C440,245.32,439.71,255.21,433.69,262.95Z" fill="#00629B"/><path d="M420.46,238.64c-5.09-6.79-35.48-47.94-73.2-85.49l0,0c-37.55-37.72-77.52-68-84.31-73.12h0l-.14-.13c-7-5.84-18.6-5.45-25.79.14-6.79,5.09-46.76,35.4-84.31,73.12l0,0c-37.72,37.55-68,77.52-73.12,84.31-5.59,7.18-5.84,18.88,0,25.92h0c5.09,6.79,35.4,46.76,73.12,84.31l0,0c37.55,37.72,77.52,68,84.31,73.12,7.18,5.59,18.88,5.84,25.92,0l.12-.07a787.78,787.78,0,0,0,82.53-71.34l0,0c37.72-37.55,69.81-80.56,74.9-87.35,5.59-7.18,5.84-16.36,0-23.4ZM249.6,118l27.6,79.64H258.79l3.43,75.83c-9.18,1.59-15.89,1.27-24.9-.14l3.27-75.69h-18.8Zm-16,253.83,3.37-77.95c5.31.89,21.4.77,26.72-.06l3.54,78C258.34,374.22,242,373.81,233.55,371.86Zm11.64-82.5c-57.38,0-103.78-18.47-103.89-41.25-.08-15.63,21.78-29.23,54.16-36.22l24.65,15.87c-25.23,4.53-42.51,13.77-42.51,24.43,0,15.13,34.84,27.4,77.81,27.4,36.91,0,78.35-12.27,78.35-27.4-.19-9.53-11.23-15.05-21.94-20.39l-14.7,3.36-7.75-21.39,47.72,11.66-10.77,2.74s18.21,9.43,22.09,20C356,271,306.22,289.35,245.18,289.35Z" fill="#00629B"/><path d="M335.42,444.59c-9.3,0-17.58,6.44-17.58,17.49s8.27,17.54,17.58,17.54,17.53-6.47,17.53-17.54S344.66,444.59,335.42,444.59Zm0,31v-.05c-6.94.05-12.54-5.34-12.54-13.43s5.6-13.41,12.54-13.41c6.78,0,12.55,5.36,12.55,13.41S342.19,475.56,335.42,475.56Zm7.83-17.22c0-4.32-2.85-5.68-7.73-5.68h-7v18.85h4v-7.92h1.92l4.34,7.92h4.81l-4.86-8.27C341.24,463,343.25,461.79,343.25,458.34Zm-7.15,2H332.5v-4.55h2.84c1.54,0,3.62.15,3.62,2.11S337.9,460.38,336.1,460.38Z" fill="#00629B" fill-rule="evenodd"/></g></g></svg>