<svg xmlns="http://www.w3.org/2000/svg" viewBox="0 0 500 430.79"><title>Asset 4</title><g id="Layer_2" data-name="Layer 2"><g id="Layer_1-2" data-name="Layer 1"><circle cx="291.76" cy="172.38" r="11.72" fill="#fff"/><path d="M307.11,310.48a4.71,4.71,0,0,0-5.89-3.08c-12.93,4-29.57,6.22-46.52,6.56V257c0-.14-.07-.25-.08-.39,14.13-4.8,43.14-26.44,37.62-37.14-2.48-4.81-21.73-5.28-42.35-5.41-20.43-.13-39.65.8-42.06,5.61-5.81,11.62,22.39,32.84,37.49,37.13V314c-17-.35-33.6-2.52-46.52-6.58a4.72,4.72,0,0,0-2.82,9h0c15.16,4.76,34.61,7.13,54.07,7.13s38.86-2.37,54-7.11a4.71,4.71,0,0,0,3.06-5.92Z" fill="#fff"/><circle cx="208.27" cy="172.38" r="11.72" fill="#fff"/><path d="M249.29,404.89c2.88,9.34,5.7,19.73,7.43,25.28,37.9-.39,72.72-.26,109.1,0-.09-14.67-.93-23.15-1-35.49l19.91,21.41c18.71-36.35,41.83-62.9,48.36-103.75,26.95-17,36.71-51.27,55.46-77.28-9.25-4.64-18.86-5.69-27.55-10,11.42-3.81,27-7,39-11-16.71-26.89-30-52.75-45.65-78.11-7.54-14.6-22.8-18.82-37.65-7.17.35-10.22,15.18-29.16,10.76-37.39-12.87-24-26.86-50.76-41-74.1L357,41.14,368.25.65C340.84,1.34,312,3.08,287,2.16c-19.65-.73-37.79,6.58-41.27,29.92-1.86-10.37-5.19-19.41-18.85-24.18C196.14-2.76,138.19,0,123.25,1.29c5.28,13,6.07,27.18,11.07,39.46L107.79,28.32C96.56,48.9,84,68.33,71.62,86.9c-8.47,16.32-12,31.15,13.72,45-14.26-.49-25-4.33-34.37-4.65C34.13,157.48,15.5,184.43,0,214.7c16.88-.43,33.29,7.54,43.2,7.29h0c-8,5.5-10.43,16.17-22.73,24.61,22.64,19,17.76,60.78,48.78,67.77-.73,5.22-4.71,14.07-2.2,19,14.17,28.1,32.86,51.37,48.65,79.92,9.39-13.15,19.17-17.67,26.48-27.21L137.57,429c17.87.61,35,1.42,52.21,1.74C211.09,431.11,242.32,431.14,249.29,404.89ZM348.57,86.16c4.24-6.39,25.13,3.51,28.49,9.37,2.82,4.91.82,29.09-6.37,29.42-2.86.13-8.14-8.58-13.63-18S347,88.53,348.57,86.16ZM122.66,95.53c3.36-5.85,24.25-15.75,28.49-9.37,1.57,2.37-3.06,11.43-8.5,20.77s-10.77,18.14-13.65,18C121.84,124.62,119.84,100.44,122.66,95.53Zm20,290Zm20.9-86.71,6.21-10.75-43.25-74.92,61.74-106.94H311.73l61.75,106.94-43.26,74.92,6.21,10.76-43.22,74.86H206.78Z" fill="#fff"/></g></g></svg>