<svg xmlns="http://www.w3.org/2000/svg" width="777.5" height="820.52" viewBox="0 0 777.5 820.52">
  <g>
    <g>
      <circle cx="388.75" cy="388.75" r="388.75" fill="#798ed2" opacity="0.05"/>
      <rect x="182.22" y="230.37" width="413.04" height="295.03" fill="#a93529"/>
      <path d="M389.5,229.95s9.34-15.08,42.47-13.25,133.77,14.17,133.77,14.17V492.25s-91.3-16.45-141.84-11.88c-22.82,2.06-35.25,11.88-35.25,11.88S390.13,230.63,389.5,229.95Z" fill="#fff"/>
      <path d="M389.18,230.52s-10.59-15.5-43.72-13.67S211.7,231,211.7,231V492.41S303,476,353.53,480.52c22.82,2.06,35.25,11.88,35.25,11.88S388.54,231.2,389.18,230.52Z" fill="#fff"/>
      <path d="M388.78,487.15v5.26s0-1.88,0-5.26Z" fill="#e9e6d9"/>
      <g>
        <circle cx="195.09" cy="656.25" r="12.92" fill="#a93529"/>
        <path d="M194.85,696.16c2.64,5.28,23.77,6.3,46.21,6.16,22.66-.14,43.81-.66,46.53-5.94,6.85-13.27-34.66-41.88-46.42-41.88C227.16,654.5,187.73,681.91,194.85,696.16Z" fill="#a93529"/>
        <circle cx="220.92" cy="630.4" r="12.92" fill="#a93529"/>
        <circle cx="261.54" cy="630.4" r="12.92" fill="#a93529"/>
        <circle cx="287.38" cy="656.25" r="12.92" fill="#a93529"/>
      </g>
      <g>
        <circle cx="490.12" cy="774.44" r="12.92" fill="#a93529"/>
        <path d="M489.89,814.35c2.64,5.28,23.77,6.3,46.21,6.16,22.66-.14,43.81-.66,46.53-5.94,6.85-13.27-34.66-41.88-46.42-41.88C522.19,772.69,482.76,800.11,489.89,814.35Z" fill="#a93529"/>
        <circle cx="515.96" cy="748.6" r="12.92" fill="#a93529"/>
        <circle cx="556.58" cy="748.6" r="12.92" fill="#a93529"/>
        <circle cx="582.41" cy="774.44" r="12.92" fill="#a93529"/>
      </g>
      <rect x="211.7" y="406.39" width="354.03" height="88.87" fill="#fff"/>
      <path d="M502.94,451.45c-58.5-14.55-114.29-5-114.29,40.8L386.37,228s.41-11.71,16.15-24.17l-3.15,27.79L442.13,218l-25.65,30.49L427.12,257l-14.5,20.45,31.82,54.39L422.55,370.5l21.88,42.19-20.3,17.14Z" fill="#cfcfcf"/>
      <path d="M353.53,480.52c22.82,2.06,35.25,11.88,35.25,11.88v2.86H211.7v-2.86S303,476,353.53,480.52Z" fill="#e7e6e6"/>
      <path d="M423.89,480.38c-22.82,2.08-35.25,12-35.25,12v2.88H565.73v-2.88S474.43,475.76,423.89,480.38Z" fill="#e7e6e6"/>
    </g>
  </g>
</svg>
