<svg xmlns="http://www.w3.org/2000/svg" width="650.95" height="260.49" viewBox="0 0 650.95 260.49">
  <g>
    <g>
      <path d="M464.53,260.49c-27.17,0-75.15-13.71-105.35-46.51-25.23-27.4-26.69-55.26-28.09-82.2-1-18.92-1.92-36.79-11-53.72C290.25,22.75,182.7-.54.34,8.84L0,2.09C187.78-7.58,294.42,16.23,326,74.86c9.84,18.27,10.86,37.74,11.84,56.57,1.35,25.75,2.74,52.37,26.32,78,30.92,33.59,81.25,46.18,105.54,44.12,8.27-.7,9.89-2.86,10-3.1,2.59-4-15.91-19.6-29.41-31-30.14-25.42-67.66-57.07-58.22-86.53,5.29-16.54,24-28.7,57.23-37.18l1.67,6.55C420.66,110,403,121,398.54,135c-8.05,25.15,29.05,56.45,56.14,79.3,22,18.57,36.56,30.84,30.74,39.83-2.22,3.42-7.32,5.5-15.15,6.17C468.48,260.42,466.56,260.49,464.53,260.49Z" fill="#505050"/>
      <path d="M526.92,129.37h0a9.79,9.79,0,0,1,10-9.55H641a9.79,9.79,0,0,1,10,9.55h0a9.79,9.79,0,0,1-10,9.55H536.87a9.79,9.79,0,0,1-10-9.55Zm10-46.66a9.79,9.79,0,0,1-10-9.55h0a9.79,9.79,0,0,1,10-9.55H641a9.79,9.79,0,0,1,10,9.55h0a9.79,9.79,0,0,1-10,9.55H536.87" fill="#919296" fill-rule="evenodd"/>
      <rect x="444.49" y="57.18" width="68.71" height="88.17" fill="#919296"/>
      <rect x="473.95" y="41.51" width="118.01" height="117.98" fill="#c1c2c5"/>
    </g>
  </g>
</svg>
