<svg xmlns="http://www.w3.org/2000/svg" width="1173.03" height="1147.68" viewBox="0 0 1173.03 1147.68">
  <g>
    <g>
      <circle cx="738.57" cy="388.64" r="388.64" fill="#798ed2" opacity="0.05"/>
      <path d="M464.53,860.56c-27.17,0-75.15-13.71-105.35-46.51-25.23-27.4-26.69-55.26-28.09-82.2-1-18.92-1.92-36.79-11-53.72C290.25,622.81,182.7,599.53.34,608.91L0,602.15c187.78-9.66,294.42,14.14,326,72.77,9.84,18.27,10.86,37.74,11.84,56.57,1.35,25.75,2.74,52.37,26.32,78,30.92,33.59,81.25,46.18,105.54,44.12,8.27-.7,9.89-2.86,10-3.1,2.59-4-15.91-19.6-29.41-31-30.14-25.42-67.66-57.07-58.22-86.53,5.29-16.54,24-28.7,57.23-37.18l1.67,6.55c-30.35,7.75-48,18.75-52.47,32.69-8.05,25.15,29.05,56.45,56.14,79.3,22,18.57,36.56,30.84,30.74,39.83-2.22,3.42-7.32,5.5-15.15,6.17C468.48,860.48,466.56,860.56,464.53,860.56Z" fill="#505050"/>
      <path d="M526.92,729.44h0a9.79,9.79,0,0,1,10-9.55H641a9.79,9.79,0,0,1,10,9.55h0A9.79,9.79,0,0,1,641,739H536.87a9.79,9.79,0,0,1-10-9.55Zm10-46.66a9.79,9.79,0,0,1-10-9.55h0a9.79,9.79,0,0,1,10-9.55H641a9.79,9.79,0,0,1,10,9.55h0a9.79,9.79,0,0,1-10,9.55H536.87" fill="#919296" fill-rule="evenodd"/>
      <rect x="444.49" y="657.24" width="68.71" height="88.17" fill="#919296"/>
      <rect x="473.95" y="641.58" width="118.01" height="117.98" fill="#c1c2c5"/>
      <g>
        <rect x="591.19" y="232.25" width="294.75" height="294.75" fill="#c1c2c5"/>
        <path d="M738.57,468.11a88.49,88.49,0,1,0-88.49-88.49A88.66,88.66,0,0,0,738.57,468.11Z" fill="#919296" fill-rule="evenodd"/>
        <path d="M702.78,366.1a13.27,13.27,0,1,1-13.27,13.27,13.27,13.27,0,0,1,13.27-13.27Zm71.9,0a13.27,13.27,0,1,1-13.27,13.27A13.27,13.27,0,0,1,774.68,366.1Z" fill="#505050" fill-rule="evenodd"/>
      </g>
      <g>
        <path d="M1173,578.25c-5.17-2.88-8.32-4.27-12.67-6.7l11.48-2.74c-9.06-13.8-12.33-25.5-26.85-33.1-2.85-11.84-25.77-18.9-31.19-30.66-1.24,3.38-.91,2.15-1.7,4.65-5.23-3-9.29-8.54-12.69-15.31-11.23-24.87-15-50-16.35-51.56-5.55,8.51-7.84,9.87-12.83,16.28-5.46,6.46-10.92,13.35-14.21,21.85-3.76,9-7.42,21.72-4,26.76-5.78.45-4.86-.61-5.88,1.81-4.28,10.11-11.87,44.3-10.38,55.4h0v0c-3-.71-5.23-1.07-5.23-1.07s2.85,24.23,8.25,38.47c5.8,1.19,9.22,1.57,14.1,2.58L1042.75,611c12.78,10.44,21.33,21.79,36.91,27.8,4.46,12.07,17.17,18.79,25.87,28.38a30.45,30.45,0,0,1,5.55-4.88,11.8,11.8,0,0,0,2.91.24,9.68,9.68,0,0,0,6.93,1.51l-2-8.51c.37.63.75,1.3,1.12,1.9,5.86,9.32,17.48,5.37,20,5.4-2-6.09-1.68-5.13-2.37-10.59,6.79,3.22,5.35,1.14,10.58,4.88,3.77-6.16,7.05-11.66,10.58-17.63,4.37-7.4,6.61-18.62,4.79-25.29C1167.56,612.19,1165.72,591,1173,578.25Z" fill="#a73529"/>
        <g>
          <path d="M1001,950.12c41.3-64.88,93.86-117.43,122-189.41,16.58-42.45,7.19-94.59-16.38-142.51-2.87-.33-6,2.06-4.69,5.77,21.29,58.92,22.26,100.16-6.54,155.55-26.3,50.65-64.92,92.78-96.22,139.58-28.43,42.53-53.62,89.72-55,144-.74,29.92,8.2,58.38,22.32,84.08h17C947.05,1085.58,962.47,1010.6,1001,950.12Z" fill="#a93529"/>
          <path d="M1000.71,950l6.36-9.79c2.09-3.28,4.35-6.45,6.52-9.68l3.29-4.82,3.37-4.77c2.25-3.18,4.47-6.37,6.77-9.51q6.82-9.47,13.77-18.85l13.86-18.77q3.47-4.69,6.88-9.42c2.27-3.15,4.59-6.28,6.81-9.47s4.5-6.34,6.71-9.54l6.56-9.64c4.26-6.5,8.53-13,12.5-19.66l3-5L1100,806c1.89-3.39,3.9-6.72,5.62-10.19s3.61-6.87,5.32-10.35l4.93-10.54.62-1.32.56-1.34,1.11-2.69,2.22-5.37,1.11-2.69c.17-.43.4-.93.53-1.31l.47-1.38,1.9-5.52a27.94,27.94,0,0,0,.81-2.77l.73-2.78c.48-1.86,1-3.69,1.33-5.6l1.08-5.68c.33-1.9.49-3.82.75-5.73.58-3.82.63-7.69.9-11.53.08-1.93,0-3.86,0-5.79s0-3.86-.11-5.79l-.32-5.78c-.09-1.93-.38-3.84-.56-5.77l-.31-2.88-.16-1.44-.22-1.43-.91-5.72c-.26-1.92-.7-3.8-1.08-5.69l-1.19-5.68-1.43-5.62c-.47-1.88-.94-3.75-1.53-5.6l-1.66-5.56c-.52-1.86-1.23-3.67-1.83-5.51s-1.24-3.67-1.91-5.48l-2.1-5.41c-1.33-3.63-3-7.15-4.47-10.72s-3.28-7-4.9-10.53l1,.74a3.4,3.4,0,0,0-2.91,1.1,2.9,2.9,0,0,0-.32,3l3,8.63.74,2.16.68,2.19,1.36,4.39c.45,1.46.92,2.92,1.34,4.39l1.2,4.43a202.89,202.89,0,0,1,6.65,36.09,147.37,147.37,0,0,1-1.41,36.71c-.6,3-1.12,6-1.78,9l-2.3,8.91-2.81,8.75c-1,2.89-2.17,5.73-3.24,8.59a286.82,286.82,0,0,1-16.09,32.91c-6,10.68-12.59,20.94-19.42,31-13.69,20.2-28.62,39.47-43.22,58.94-7.3,9.73-14.56,19.5-21.52,29.46s-13.65,20.13-20,30.5c-12.64,20.73-23.77,42.49-31.35,65.57-.89,2.9-1.82,5.79-2.67,8.7l-2.31,8.8-1.89,8.9c-.55,3-1,6-1.48,9-.8,6-1.44,12-1.67,18.11-.22,3-.2,6-.21,9.1l.15,4.53c.05,1.51.2,3,.3,4.53a155.1,155.1,0,0,0,2.53,18,169.89,169.89,0,0,0,4.66,17.58,194.73,194.73,0,0,0,14.49,33.36l-.44-.26,17,0-.41.72-3.19-5.7-2.94-5.83-2.68-6-2.41-6.07-2.14-6.17-1.86-6.26-1.58-6.33-1.3-6.4c-.34-2.15-.71-4.29-1-6.45s-.55-4.32-.76-6.48-.38-4.33-.49-6.51-.22-4.35-.23-6.52-.06-4.35,0-6.52.1-4.35.27-6.52q.4-6.51,1.22-13a203.51,203.51,0,0,1,5-25.58,230.07,230.07,0,0,1,8.06-24.79q2.36-6.08,5-12c.92-2,1.79-4,2.75-5.91s1.9-3.91,2.89-5.84,2-3.86,3-5.77l3.17-5.69,3.3-5.62Zm.53.34-3.43,5.53-3.3,5.61-3.16,5.68c-1,1.91-2,3.84-3,5.76s-1.92,3.89-2.88,5.83-1.82,3.93-2.74,5.9q-2.65,5.94-5,12a229.49,229.49,0,0,0-8,24.72,202.83,202.83,0,0,0-5,25.5q-.83,6.45-1.2,12.94c-.16,2.16-.16,4.33-.24,6.49s0,4.33,0,6.5.17,4.33.25,6.49.34,4.32.51,6.48.52,4.3.77,6.45.7,4.27,1,6.41l1.31,6.36,1.59,6.29,1.87,6.22,2.14,6.13,2.41,6,2.68,5.91,2.94,5.79,3.19,5.65.41.72h-.82l-17,0h-.3l-.14-.26a195.77,195.77,0,0,1-14.69-33.49,170.91,170.91,0,0,1-4.75-17.69,156.45,156.45,0,0,1-2.62-18.14c-.1-1.53-.26-3-.32-4.58l-.17-4.59c0-3,0-6.1.17-9.15.2-6.11.83-12.19,1.61-18.25.49-3,.92-6,1.46-9l1.87-9,2.29-8.87c.84-2.94,1.77-5.84,2.65-8.77,7.54-23.26,18.66-45.19,31.27-66,6.32-10.44,13-20.63,19.93-30.67s14.17-19.83,21.45-29.6c14.58-19.51,29.45-38.79,43-58.94,6.78-10.07,13.35-20.33,19.25-30.9,1.52-2.62,2.91-5.34,4.36-8s2.76-5.37,4.12-8.1l2-4.08c.68-1.36,1.23-2.76,1.86-4.14l1.82-4.16.91-2.08c.29-.7.54-1.41.82-2.12,1.06-2.83,2.19-5.64,3.19-8.5l2.75-8.64,2.25-8.78c.64-2.95,1.15-5.93,1.73-8.89a144.88,144.88,0,0,0,1.31-36.09,200.3,200.3,0,0,0-6.64-35.62l-1.19-4.38c-.42-1.46-.89-2.89-1.34-4.34l-1.35-4.33-.68-2.17-.75-2.16-3-8.63a6.55,6.55,0,0,1-.39-2.81,5.15,5.15,0,0,1,1.18-2.78,6,6,0,0,1,5.27-2.05l.74.08.31.66,2.5,5.3c.82,1.78,1.7,3.52,2.43,5.33,1.51,3.61,3.14,7.16,4.48,10.83l2.1,5.47c.67,1.84,1.27,3.7,1.91,5.54s1.31,3.68,1.84,5.57l1.67,5.62c.59,1.87,1.06,3.76,1.53,5.66l1.43,5.69,1.19,5.75c.39,1.92.82,3.83,1.08,5.77l.9,5.8.22,1.45.15,1.46.31,2.92c.18,1.95.47,3.89.55,5.85l.31,5.87c.15,2,.09,3.92.09,5.88s0,3.92-.07,5.88c-.3,3.91-.38,7.84-1,11.72a125.53,125.53,0,0,1-5,23l-1.94,5.5-.48,1.38c-.19.53-.38.92-.57,1.39l-1.14,2.7-2.28,5.39-1.14,2.7-.57,1.35-.63,1.32-5,10.57c-1.74,3.49-3.62,6.91-5.42,10.37s-3.79,6.81-5.71,10.2l-2.91,5.07-3.07,5c-4,6.67-8.35,13.15-12.66,19.64l-6.63,9.62c-2.23,3.19-4.52,6.34-6.78,9.51s-4.58,6.29-6.88,9.44-4.61,6.27-6.94,9.38l-14,18.69q-7,9.34-13.89,18.75c-2.32,3.12-4.56,6.3-6.83,9.46l-3.39,4.74-3.32,4.79c-2.19,3.21-4.46,6.36-6.58,9.63Z" fill="#a93529"/>
        </g>
      </g>
    </g>
  </g>
</svg>
