<svg xmlns="http://www.w3.org/2000/svg" viewBox="0 0 500 431" width="500" height="431">
	<g>
		<circle cx="291.77" cy="172.48" r="11.72" fill="#acadb2"/>
		<path d="M307.12,310.59a4.71,4.71,0,0,0-5.89-3.08c-12.93,4.05-29.57,6.22-46.52,6.56v-57c0-.14-0.07-0.25-0.08-0.39,14.13-4.8,43.14-26.44,37.62-37.14-2.48-4.81-21.73-5.28-42.35-5.41-20.43-.13-39.65.8-42.06,5.61-5.81,11.62,22.39,32.84,37.49,37.13,0,0.07,0,.13,0,0.2v57c-17-.35-33.6-2.52-46.52-6.58a4.7,4.7,0,0,0-2.82,9c15.16,4.76,34.61,7.13,54.07,7.13s38.86-2.37,54-7.11A4.71,4.71,0,0,0,307.12,310.59Z" fill="#acadb2"/>
		<circle cx="208.27" cy="172.48" r="11.72" fill="#acadb2"/>
		<path d="M249.3,405c2.88,9.34,5.7,19.73,7.43,25.28,37.9-.39,72.72-0.26,109.1,0-0.09-14.67-.93-23.15-1-35.49l19.91,21.41c18.71-36.35,41.83-62.9,48.36-103.75,26.95-17,36.71-51.27,55.46-77.28-9.25-4.64-18.86-5.69-27.55-10,11.42-3.81,27-7,39-11-16.71-26.89-30-52.75-45.65-78.11-7.54-14.6-22.8-18.82-37.65-7.17,0.35-10.22,15.18-29.16,10.76-37.39-12.87-24-26.86-50.76-41-74.1L357,41.24,368.26,0.75C340.85,1.44,312,3.18,287,2.26c-19.65-.73-37.79,6.58-41.27,29.92C243.87,21.81,240.54,12.77,226.88,8,196.14-2.66,138.19.13,123.25,1.39c5.28,13,6.07,27.18,11.07,39.46L107.79,28.42C96.56,49,84,68.43,71.62,87c-8.47,16.32-12,31.15,13.72,45-14.26-.49-25-4.33-34.37-4.65C34.13,157.58,15.5,184.53,0,214.81c16.88-.43,33.29,7.54,43.2,7.29h0c-8,5.5-10.43,16.17-22.73,24.61,22.64,19.05,17.76,60.78,48.78,67.77-0.73,5.22-4.71,14.07-2.2,19.05,14.17,28.1,32.86,51.37,48.65,79.92,9.39-13.15,19.17-17.67,26.48-27.21l-4.61,42.83c17.87,0.61,35,1.42,52.21,1.74C211.09,431.22,242.32,431.25,249.3,405ZM348.58,86.26c4.24-6.39,25.13,3.51,28.49,9.37,2.82,4.91.82,29.09-6.37,29.42-2.86.13-8.14-8.58-13.63-18S347,88.63,348.58,86.26ZM122.66,95.63c3.36-5.85,24.25-15.75,28.49-9.37,1.57,2.37-3.06,11.43-8.5,20.77S131.88,125.17,129,125C121.84,124.72,119.84,100.54,122.66,95.63Zm20,290h0Zm20.9-86.71,6.21-10.75-43.25-74.92,61.74-106.94H311.74l61.75,106.94-43.26,74.92,6.21,10.76-43.22,74.86H206.78Z" fill="#acadb2"/>
	</g>
</svg>
