<svg xmlns="http://www.w3.org/2000/svg" viewBox="0 0 1024 275" width="1024" height="275">
	<g>
		<g>
			<path d="M395.61,171.28a52.08,52.08,0,0,0-8.14-5q-4.42-2.17-8.15-4.35a30.22,30.22,0,0,1-6.24-4.68,8.07,8.07,0,0,1-2.51-5.9,7.68,7.68,0,0,1,8.28-7.74,34.85,34.85,0,0,1,3.94.2,12.58,12.58,0,0,1,3.39.88l5.7,13.85h4.62q1.49-4.07,3.12-9a49.65,49.65,0,0,0,2.17-9.3,52,52,0,0,0-11.07-3.19,76.18,76.18,0,0,0-13.65-1.15,36,36,0,0,0-9.84,1.29,25.35,25.35,0,0,0-7.81,3.6,17.5,17.5,0,0,0-5.16,5.64,14.65,14.65,0,0,0-1.9,7.4,17.55,17.55,0,0,0,2.51,9.64,27.14,27.14,0,0,0,6.24,6.86,46.39,46.39,0,0,0,8.15,5.09q4.41,2.17,8.15,4.34a29.14,29.14,0,0,1,6.24,4.75,8.47,8.47,0,0,1,2.51,6.11,7.39,7.39,0,0,1-3.26,6.38,12.16,12.16,0,0,1-7.2,2.31,31.08,31.08,0,0,1-3.46-.2,6.82,6.82,0,0,1-3.33-1.29L362.28,183h-4.62a69.27,69.27,0,0,0-4.34,9A30.85,30.85,0,0,0,351,201.9,48.83,48.83,0,0,0,363,205.7a69.92,69.92,0,0,0,13.44,1.36q12.76,0,20.36-5.36a17.06,17.06,0,0,0,7.6-14.73,16.13,16.13,0,0,0-2.51-9.1A26.19,26.19,0,0,0,395.61,171.28Z" fill="#505050"/>
			<path d="M487.46,197V164.48A54.47,54.47,0,0,0,486,150.54a21.83,21.83,0,0,0-4.35-8.78,15,15,0,0,0-7.13-4.56,33.51,33.51,0,0,0-9.71-1.29,21.07,21.07,0,0,0-7.2,1.22,25.57,25.57,0,0,0-6.31,3.33,28.07,28.07,0,0,0-5.23,4.89,24.49,24.49,0,0,0-3.67,5.9h-.14V103.33h-4.62q-2.72.27-6.24.75t-7.06,1.08q-3.53.61-6.72,1.43a43.24,43.24,0,0,0-5.23,1.63v5.16l10.32,1.09V197a37.83,37.83,0,0,0-9,3.27v5.16h36v-5.16a17.41,17.41,0,0,0-3.6-2,30.49,30.49,0,0,0-3.87-1.23V159.16a21.54,21.54,0,0,1,5.43-8.64,12.68,12.68,0,0,1,9.23-3.74q6.52,0,8.76,5.51t2.24,17.22V197a29.77,29.77,0,0,0-4.07,1.5q-1.77.82-3.39,1.77v5.16h36v-5.16a15.94,15.94,0,0,0-4.34-2Q489.76,197.54,487.46,197Z" fill="#505050"/>
			<path d="M564.64,190.9q-.07-2.17-.07-5.16,0-6.92.34-13.51t.34-14.73a31.69,31.69,0,0,0-1.08-8.42,16,16,0,0,0-3.87-6.85,19,19,0,0,0-7.67-4.62,39.28,39.28,0,0,0-12.63-1.7,70.84,70.84,0,0,0-17.24,2,41.18,41.18,0,0,0-13.3,5.57,37.91,37.91,0,0,0,.88,4.75,45.13,45.13,0,0,0,1.5,4.82q.88,2.38,1.9,4.48a31.64,31.64,0,0,0,2.1,3.73h6L528.18,145a21.42,21.42,0,0,1,7.74-1.36q6.79,0,8.82,5.43t.95,17.11A182.58,182.58,0,0,0,526.76,168,43.32,43.32,0,0,0,514,171.69a17,17,0,0,0-7.26,6.45,19.64,19.64,0,0,0-2.31,10,18.11,18.11,0,0,0,1.63,7.81,17.5,17.5,0,0,0,4.48,5.91,20.91,20.91,0,0,0,6.65,3.8,24.49,24.49,0,0,0,8.28,1.36,22.32,22.32,0,0,0,7.6-1.22,21,21,0,0,0,5.91-3.19,18.44,18.44,0,0,0,4.14-4.48,17.32,17.32,0,0,0,2.31-5.23h.68q.13,4.48.41,7.6a19.89,19.89,0,0,0,1.63,6.24h4.62q2.31-.27,5.3-.75c2-.32,4-.72,6-1.22s4-1,5.84-1.56a27.67,27.67,0,0,0,4.41-1.63v-4.75L565,195.51Q564.71,193.07,564.64,190.9Zm-18.94-4.75a31.57,31.57,0,0,1-1.15,3.12,10.84,10.84,0,0,1-2.17,3.26,13.45,13.45,0,0,1-3.46,2.58,10.23,10.23,0,0,1-4.89,1.09,8.46,8.46,0,0,1-6.79-2.85q-2.44-2.85-2.44-8a16.57,16.57,0,0,1,.88-5.77,8.11,8.11,0,0,1,3.19-3.94,16.15,16.15,0,0,1,6.38-2.24,75.73,75.73,0,0,1,10.45-.81Z" fill="#505050"/>
			<path d="M632.73,135.91a14.84,14.84,0,0,0-7.06,1.49,24.23,24.23,0,0,0-6.24,4.35,32.67,32.67,0,0,0-5,6,31.32,31.32,0,0,0-3.19,6.24h-.54V135.91h-4.62l-5.36.68q-3.19.41-6.59,1T587.58,139a35.51,35.51,0,0,0-5.36,1.76V146l9,1.09V197q-2.17.54-4.35,1.23a24.89,24.89,0,0,0-4.62,2v5.16h39.37v-5.16a25.11,25.11,0,0,0-5.43-2.25,32.68,32.68,0,0,0-5.43-1V162.14a16.5,16.5,0,0,1,3.94-6.26,19.06,19.06,0,0,1,3.8-2.72h18.6v-5.3q-.68-3.12-1.76-6.59A17,17,0,0,0,632.73,135.91Z" fill="#505050"/>
			<path d="M701.9,144.06a22.62,22.62,0,0,0-10-6.24,43,43,0,0,0-13-1.9q-16.16,0-25.25,9.1t-9.1,26.48a45,45,0,0,0,2.24,14.66,31.13,31.13,0,0,0,6.59,11.2,28.53,28.53,0,0,0,10.86,7.19,41.28,41.28,0,0,0,14.93,2.51A40,40,0,0,0,689,205.9a36,36,0,0,0,8-3,24.23,24.23,0,0,0,5.84-4.21,17.16,17.16,0,0,0,3.46-4.68l-2.58-2.72a21.25,21.25,0,0,1-7.54,3.53,34.31,34.31,0,0,1-9.3,1.36q-10.46,0-15.82-6.38t-5.5-17.11h41.68q1.76-10.18.2-17.24A24.15,24.15,0,0,0,701.9,144.06Zm-14.19,21.59H666a72.12,72.12,0,0,1,1.35-10.79,22.11,22.11,0,0,1,2.5-6.79,8.55,8.55,0,0,1,3.65-3.46,11.48,11.48,0,0,1,4.79-1,8.12,8.12,0,0,1,8.23,5.7Q688.66,155.06,687.71,165.65Z" fill="#505050"/>
			<path d="M742.7,103.33H739.3q-5,.81-10.32,2a46,46,0,0,0-8.82,2.85v3.53l10.32,1.09v85.94a44.83,44.83,0,0,0-9,3.26v3.39h30.14V202a44.83,44.83,0,0,0-9-3.26Z" fill="#505050"/>
			<path d="M815.33,192.8q-.14-2.17-.14-5.16,0-6.92.34-14.46t.34-15.68a43.28,43.28,0,0,0-.68-7.6,17.36,17.36,0,0,0-2.85-6.92,15.68,15.68,0,0,0-6.31-5.09q-4.14-2-11.07-2a52.19,52.19,0,0,0-14.05,1.76,46,46,0,0,0-11.47,4.89,52.2,52.2,0,0,0,1.29,8.56q1,4.34,2.38,8.42h3.53L783,143.24a15.87,15.87,0,0,1,4.68-1.16q2.38-.2,4.28-.2a10.92,10.92,0,0,1,6.59,1.83,11.22,11.22,0,0,1,3.8,5.16,25.22,25.22,0,0,1,1.49,8,78,78,0,0,1-.34,10.52q-9.5.54-16.7,1.56a42.32,42.32,0,0,0-12.08,3.33,17,17,0,0,0-7.4,6.31,19,19,0,0,0-2.51,10.25q0,8.15,5.23,13.17t13.51,5a20.3,20.3,0,0,0,13.65-4.89,18.39,18.39,0,0,0,4.07-5,18.77,18.77,0,0,0,2.1-5.5h.68q.13,4.48.41,8.21a20.81,20.81,0,0,0,1.63,6.86h3.39a59.23,59.23,0,0,0,7.94-2,50.37,50.37,0,0,0,7.53-3.12v-2.85l-9.37-1.36Q815.47,195,815.33,192.8Zm-11.68-6a17.75,17.75,0,0,1-1.49,3.33,19.78,19.78,0,0,1-2.85,3.87,16.09,16.09,0,0,1-4.35,3.26,12.63,12.63,0,0,1-6,1.36,10.62,10.62,0,0,1-8.15-3.19q-3-3.19-3-9a15.77,15.77,0,0,1,1.09-6,9.39,9.39,0,0,1,3.94-4.41,21.65,21.65,0,0,1,7.87-2.58,83.19,83.19,0,0,1,12.9-.81Z" fill="#505050"/>
			<path d="M872.35,198.3q-3.67.34-6.11.34-5.16,0-7.74-3.38t-2.58-11.48V144.6h20.36v-7.06H855.92V119.76h-3.39a48.82,48.82,0,0,0-4.68,2.24,31.35,31.35,0,0,0-4.14,2.65v11.54A35.12,35.12,0,0,0,832.84,141v3.65H843.7v43q0,10.27,4.28,14.87t12.42,4.59a23.09,23.09,0,0,0,6.11-.81,31.53,31.53,0,0,0,5.5-2,34.51,34.51,0,0,0,4.48-2.58,17.09,17.09,0,0,0,3.06-2.58l-1-2A24.63,24.63,0,0,1,872.35,198.3Z" fill="#505050"/>
			<path d="M937.72,141.48a22,22,0,0,0-8.21-4.28,34.75,34.75,0,0,0-9.37-1.29q-14.66,0-22.67,9.1t-8,26.48a47.51,47.51,0,0,0,2.1,14.66,31.63,31.63,0,0,0,6.18,11.2,26.72,26.72,0,0,0,10.18,7.19A36.9,36.9,0,0,0,922,207.06a29.55,29.55,0,0,0,7.2-.88,31.74,31.74,0,0,0,6.52-2.38,24.56,24.56,0,0,0,5.29-3.53,13.54,13.54,0,0,0,3.39-4.35l-1.9-2.17a18.46,18.46,0,0,1-7.33,3.53,35.88,35.88,0,0,1-9.64,1.36,23.09,23.09,0,0,1-10.18-2.1,20,20,0,0,1-7.2-5.77,25.25,25.25,0,0,1-4.28-8.62,38.43,38.43,0,0,1-1.42-10.66h42.36a46.16,46.16,0,0,0,.75-5.09q.2-2.37.2-4.68a29.83,29.83,0,0,0-2.24-12.29A21.79,21.79,0,0,0,937.72,141.48ZM933,163.13q-.07,1.15-.2,2.38H902.9q.81-13.17,4.89-18.4t11.81-5.23q6.93,0,10.18,5.16T933,160.89Q933,162,933,163.13Z" fill="#505050"/>
			<path d="M1020.54,200.2q-1.83-.75-3.73-1.43L995.35,169l18.6-24.71a27.88,27.88,0,0,0,7.6-3.26v-3.53H998.88v3.53a21.44,21.44,0,0,0,6.79,3.26L991.82,164.7,977.7,144.33a15.82,15.82,0,0,0,3.46-1.43q1.56-.88,3.19-2v-3.39H957.07v3.53a25.4,25.4,0,0,0,3.19,1.83,36.4,36.4,0,0,0,3.46,1.43l20.36,27.42-20.23,27a27.56,27.56,0,0,0-7.6,3.26v3.39h23.22V202q-1.63-.95-3.26-1.76a32,32,0,0,0-3.53-1.5l15.21-22.26L1003,198.77a20.53,20.53,0,0,0-3.26,1.43q-1.63.88-3.53,2v3.26H1024V202A19.53,19.53,0,0,0,1020.54,200.2Z" fill="#505050"/>
		</g>
		<g>
			<circle cx="185.77" cy="110.11" r="7.46" fill="#a93529"/>
			<circle cx="132.61" cy="110.11" r="7.46" fill="#a93529"/>
			<path d="M289.28,86.89c-4.8-9.3-14.52-12-24-4.57.22-6.51,9.66-18.56,6.85-23.81C264,43.26,255.06,26.2,246.08,11.34L227.3,26.55,234.47.77c-17.46.44-35.83,1.55-51.75,1-12.51-.46-24.06,4.19-26.28,19.05-1.17-6.6-3.29-12.36-12-15.38-19.57-6.81-56.47-5-66-4.23,3.36,8.27,3.86,17.3,7,25.13L68.63,18.39c-7.15,13.13-15.13,25.47-23,37.28C40.21,66.06,38,75.51,54.34,84.32c-9.08-.31-15.9-2.76-21.88-3C21.73,100.62,9.87,117.78,0,137.06c10.75-.27,21.2,4.8,27.5,4.64h0C22.4,145.2,20.86,152,13,157.37c14.42,12.13,11.3,38.7,31.06,43.15-.46,3.32-3,9-1.4,12.13,9,17.89,20.92,32.71,31,50.89,6-8.39,12.21-11.29,16.87-17.39L87.6,273.48c11.38.39,22.31.9,33.24,1.11,13.56.26,33.45.28,37.89-16.42,1.83,5.95,3.63,12.56,4.73,16.09,24.13-.25,46.3-.17,69.46,0-.06-9.34-.59-14.74-.64-22.6L245,265.29c11.91-23.14,26.63-40,30.79-66.06,17.16-10.84,23.37-32.64,35.31-49.21-5.89-3-12-3.62-17.54-6.39,7.27-2.43,17.22-4.47,24.82-7C307.71,119.5,299.23,103,289.28,86.89ZM78.1,61.18c2.14-3.73,15.44-10,18.14-6,1,1.51-2,7.28-5.41,13.23S84,80,82.15,79.91C77.58,79.7,76.3,64.3,78.1,61.18ZM210.25,183.75l4,6.85-27.52,47.66h-55L104.14,190.6l4-6.85L80.55,136,119.86,68h78.62L237.8,136ZM236,79.91c-1.82.08-5.18-5.46-8.68-11.46s-6.41-11.72-5.41-13.23c2.7-4.07,16,2.24,18.14,6C241.87,64.3,240.6,79.7,236,79.91Z" fill="#a93529"/>
			<path d="M191.79,196.08c-8.23,2.58-18.83,4-29.62,4.18V164c0-.09,0-.16-.05-.25,9-3.06,27.47-16.83,24-23.65-1.58-3.06-13.83-3.36-27-3.44s-25.25.51-26.78,3.57c-3.7,7.4,14.26,20.91,23.87,23.64,0,0,0,.08,0,.13v36.27c-10.8-.22-21.39-1.61-29.62-4.19a3,3,0,1,0-1.79,5.71c9.65,3,22,4.54,34.42,4.54s24.74-1.51,34.39-4.53a3,3,0,1,0-1.79-5.72Z" fill="#a93529"/>
		</g>
	</g>
</svg>
