<svg id="Layer_1" data-name="Layer 1" xmlns="http://www.w3.org/2000/svg" width="1180" height="275" viewBox="0 0 1180 275"><title>SL New Logo</title><path d="M390.95,161h12l3.27,15.78a12.61,12.61,0,0,0,5.64,3.2,29.59,29.59,0,0,0,9.3,1.34q8.08,0,12-3.36t3.88-9.54a11.66,11.66,0,0,0-2.47-7.35,23.64,23.64,0,0,0-6.93-5.76q-4.46-2.59-12.28-6.14a61.28,61.28,0,0,1-17.73-11.84q-7.28-7.1-7.28-18.69a23.25,23.25,0,0,1,3.82-13,26.13,26.13,0,0,1,11.51-9.35q7.69-3.49,18.85-3.49a66.54,66.54,0,0,1,12,1q5.29,1,10.87,2.48a46.71,46.71,0,0,0,4.87,1.13L451.35,120H439.68l-3.14-15.16q-1-1.18-4.2-2.17a24.53,24.53,0,0,0-7.21-1q-7.31,0-10.77,3.18a11.1,11.1,0,0,0-3.46,8.6,11.64,11.64,0,0,0,2.82,7.76,27.29,27.29,0,0,0,7.21,5.89q4.39,2.55,12.79,6.61a109,109,0,0,1,12.41,6.95,33,33,0,0,1,8.95,8.82A21.43,21.43,0,0,1,458.79,162a27.54,27.54,0,0,1-3.59,13.52q-3.59,6.48-11.86,10.75t-21.48,4.27a68.93,68.93,0,0,1-13.43-1.22q-6.12-1.22-12.73-3.14a38.18,38.18,0,0,0-5.84-1.47Z" fill="#505050"/><path d="M477,180.59v-83l-10-1.65V88.11L494.6,85h-1.35L497,87.79l.13,28-1,11.74a41.48,41.48,0,0,1,10.77-6.73,34.34,34.34,0,0,1,14.21-2.92q8.14,0,12.68,3a15.91,15.91,0,0,1,6.39,9q1.84,6,1.84,16.14v34.48l8,1.23V190H514v-8.18l7-1.23V146.51a44.38,44.38,0,0,0-.8-9.55,8.71,8.71,0,0,0-3-5.12q-2.17-1.68-6.38-1.69a19.24,19.24,0,0,0-7.44,1.52,23.49,23.49,0,0,0-6.41,3.89v45l8,1.23V190H470v-8.24Z" fill="#505050"/><path d="M600,142.32a10,10,0,0,0-.56-6.13,6.79,6.79,0,0,0-3.84-3.4,22.13,22.13,0,0,0-8-1.13,53.4,53.4,0,0,0-11.71,1.18c-3.49.79-10.51,3.16-10.51,3.16h.87l-4.09-7.61a35.31,35.31,0,0,1,6.89-4.12,65.6,65.6,0,0,1,11.27-4.15,49,49,0,0,1,13.19-1.79q10.07,0,15.83,2.49a15.32,15.32,0,0,1,8.21,7.88q2.45,5.4,2.45,14.57V180h6v8.06q-3.21.7-8.06,1.4a60.62,60.62,0,0,1-8.5.7,16.86,16.86,0,0,1-5.13-.6,4.16,4.16,0,0,1-2.55-2.16,10.71,10.71,0,0,1-.76-4.54v-1.68s-4.64,4.6-8.2,6.47a26,26,0,0,1-12.25,2.8,24.6,24.6,0,0,1-11.14-2.52,19.35,19.35,0,0,1-8-7.43,22.4,22.4,0,0,1-3-11.86q0-12,11.17-18.07c7.45-4.06,17.75-6.09,30.43-6.09ZM600,153q-10.6,0-15.33,3.75a11.64,11.64,0,0,0-4.73,9.52q0,5.84,2.7,9a9.09,9.09,0,0,0,7.27,3.14,14.51,14.51,0,0,0,5.17-1.16,16.24,16.24,0,0,0,4.92-2.91Z" fill="#505050"/><path d="M644,180.74V133.58l-7-2.31V121l21-3h.31l3.7,2.88v3.79L661.69,135h.36a22.2,22.2,0,0,1,4.07-6.79,30.1,30.1,0,0,1,8.11-6.89,20.6,20.6,0,0,1,10.77-3,13.44,13.44,0,0,1,2.92.29,7.24,7.24,0,0,1,2.08.75V141.6a15.7,15.7,0,0,0-4.58-2.66,17,17,0,0,0-5.67-.83,30.74,30.74,0,0,0-8.72,1.17,16.39,16.39,0,0,0-6,2.93v38.48L680,182v8H636v-8.11Z" fill="#505050"/><path d="M703.77,135.47a30.45,30.45,0,0,1,12.41-12.59,38,38,0,0,1,18.54-4.38q13.39,0,20.54,6.25t7.46,17.93a59.75,59.75,0,0,1-1,12.32h-41q.76,11.68,5.74,17.33T739.73,178a32.64,32.64,0,0,0,9.93-1.65,35.4,35.4,0,0,0,8.41-3.75l3.68,7.87a27.37,27.37,0,0,1-6.57,4.76,47.78,47.78,0,0,1-10,4A40.53,40.53,0,0,1,734,190.86q-11.81,0-19.55-4.5A27.18,27.18,0,0,1,703,173.81a45.4,45.4,0,0,1-3.65-18.88Q699.36,143.68,703.77,135.47ZM742,146l.06-4.56q0-6.79-2.29-10.54T732,127.15a11.45,11.45,0,0,0-6.16,1.58q-2.54,1.58-4.06,5.73A37.59,37.59,0,0,0,720.1,146Z" fill="#505050"/><path d="M787,183.49V102.3l-11-1.44V94h35v6.84l-13,1.37V183h36.26l7.23-19.68,6.16,1L842.94,190H776v-5.36Z" fill="#505050"/><path d="M904,142.47a31.52,31.52,0,0,0-1.62-9.29,9.06,9.06,0,0,0-4.73-5q-3.37-1.58-9.52-1.58c-7.28,0-22.85,6.35-22.85,6.35h-.49l-2.88-5a28.86,28.86,0,0,1,6.14-3.78A66.17,66.17,0,0,1,878.69,120a39.26,39.26,0,0,1,11.47-1.83q8.95,0,14.12,2.4a14.48,14.48,0,0,1,7.45,7.68q2.27,5.29,2.27,14.26V184h8v4.83a52,52,0,0,1-12.43,2,11.7,11.7,0,0,1-3.3-.35,2.79,2.79,0,0,1-1.68-1.52,8.53,8.53,0,0,1-.58-3.63v-5.15a61.07,61.07,0,0,1-5.24,4.53,37.62,37.62,0,0,1-7.46,3.88,25.06,25.06,0,0,1-9.46,1.82,26.39,26.39,0,0,1-10.95-2.21,17.74,17.74,0,0,1-7.84-6.79,20.71,20.71,0,0,1-2.92-11.35,17.54,17.54,0,0,1,6.13-13.87q6.12-5.34,15.93-7.74a91.25,91.25,0,0,1,21.81-2.4Zm0,9.63a62.34,62.34,0,0,0-17.74,2.17q-7.2,2.17-10.76,6.06a12.94,12.94,0,0,0-3.55,9q0,7.45,3.81,10.85t10.22,3.4a20.64,20.64,0,0,0,8.79-2.46,46.81,46.81,0,0,0,9.24-5.91Z" fill="#505050"/><path d="M967,184V100H942.12l-4.22,27h-7.22l2.15-33h79l1.46,33h-6.47l-3.64-27H978v84h19v6H950v-6Z" fill="#505050"/><path d="M1029.11,135.51A31.93,31.93,0,0,1,1041,122.75a32.49,32.49,0,0,1,17.08-4.58q11.55,0,18,6t6.89,17.44v1.91a36.76,36.76,0,0,1-.7,8.49H1036a14.23,14.23,0,0,0,.06,1.59q.25,9.71,3.43,16.31a22.82,22.82,0,0,0,8.38,9.84,21.55,21.55,0,0,0,11.62,3.24,34,34,0,0,0,11.11-2,28,28,0,0,0,8.89-4.63l2.09,4.76q-3.81,3.94-11,6.6a41.27,41.27,0,0,1-14.47,2.67q-10,0-17.11-4.58a28.33,28.33,0,0,1-10.66-12.74,46.56,46.56,0,0,1-3.59-18.89A39.45,39.45,0,0,1,1029.11,135.51ZM1071.49,146a41.5,41.5,0,0,0,.32-5q-.06-7.33-4-11.68T1055.56,125q-17.77,0-19.3,21Z" fill="#505050"/><path d="M1100.88,183.65l28.56-42.21L1102,100.88l-10-1.52V94h37v5.59l-13,1.52,21.34,35,21-35.1L1147,99.59V94h31v5.35l-10.35,1.52-27.23,39.36L1170,183.65l10,1.14V191h-36v-5.59l12.5-1.21-23.25-37.71-22.37,37.77,13.13,1.14V191h-34v-6.21Z" fill="#505050"/><circle cx="187.32" cy="110.11" r="7.46" fill="#a93529"/><circle cx="134.16" cy="110.11" r="7.46" fill="#a93529"/><path d="M290.84,86.89c-4.8-9.3-14.52-12-24-4.57.22-6.51,9.66-18.56,6.85-23.81-8.19-15.26-17.1-32.32-26.08-47.18L228.86,26.55,236,.77c-17.46.44-35.83,1.55-51.75,1C171.76,1.27,160.21,5.92,158,20.78c-1.17-6.6-3.29-12.36-12-15.38C126.44-1.4,89.54.38,80,1.18c3.36,8.27,3.86,17.3,7,25.13L70.18,18.39C63,31.52,55.06,43.86,47.16,55.67c-5.39,10.39-7.64,19.84,8.74,28.65C46.81,84,40,81.56,34,81.36c-10.73,19.27-22.59,36.43-32.46,55.7,10.75-.27,21.2,4.8,27.5,4.64h0c-5.1,3.5-6.64,10.3-14.47,15.67,14.42,12.13,11.3,38.7,31.06,43.15-.46,3.32-3,9-1.4,12.13,9,17.89,20.92,32.71,31,50.89,6-8.39,12.21-11.29,16.87-17.39l-2.94,27.33c11.38.39,22.31.9,33.24,1.11,13.56.26,33.45.28,37.89-16.42,1.83,5.95,3.63,12.56,4.73,16.09,24.13-.25,46.3-.17,69.46,0-.06-9.34-.59-14.74-.64-22.6l12.68,13.63c11.91-23.14,26.63-40,30.79-66.06,17.16-10.84,23.37-32.64,35.31-49.21-5.89-3-12-3.62-17.54-6.39,7.27-2.43,17.22-4.47,24.82-7C309.26,119.5,300.78,103,290.84,86.89ZM79.65,61.18c2.14-3.73,15.44-10,18.14-6,1,1.51-2,7.28-5.41,13.23S85.52,80,83.7,79.91C79.13,79.7,77.86,64.3,79.65,61.18ZM211.72,183.58l3.95,6.84L188.2,238H133.26l-27.47-47.58,3.95-6.84L82.25,136l39.24-68H200l39.24,68ZM237.58,79.91c-1.82.08-5.18-5.46-8.68-11.46s-6.41-11.72-5.41-13.23c2.7-4.07,16,2.24,18.14,6C243.43,64.3,242.15,79.7,237.58,79.91Z" fill="#a93529"/><path d="M193.68,196.13c-8.25,2.58-18.87,4-29.68,4.19V164c0-.09,0-.16-.05-.25,9-3.06,27.52-16.87,24-23.69-1.58-3.07-13.86-3.37-27-3.45s-25.3.51-26.83,3.58c-3.71,7.41,14.28,21,23.92,23.69,0,0,0,.08,0,.13v36.34c-10.77-.22-21.34-1.6-29.57-4.16a3.06,3.06,0,0,0-3.43,1,3,3,0,0,0,1.52,4.65c9.67,3,22.08,4.55,34.49,4.55s24.71-1.5,34.36-4.51a3.07,3.07,0,0,0,2.19-3.25A3,3,0,0,0,193.68,196.13Z" fill="#a93529"/></svg>