<svg id="Layer_1" data-name="Layer 1" xmlns="http://www.w3.org/2000/svg" width="16" height="16" viewBox="0 0 16 16">
  <title>favicon</title>
  <path d="M14,0H2A2,2,0,0,0,0,2V14a2,2,0,0,0,2,2H14a2,2,0,0,0,2-2V2A2,2,0,0,0,14,0ZM11.3,11.56A2.87,2.87,0,0,1,10,12.69a4.93,4.93,0,0,1-2.26.45A7.26,7.26,0,0,1,6.37,13q-.64-.13-1.34-.33a3.94,3.94,0,0,0-.61-.16L4.53,10H5.79l.34,1.66a1.33,1.33,0,0,0,.59.34,3.11,3.11,0,0,0,1,.14A1.88,1.88,0,0,0,9,11.81a1.26,1.26,0,0,0,.41-1A1.22,1.22,0,0,0,9.12,10a2.48,2.48,0,0,0-.73-.61q-.47-.27-1.29-.65A6.46,6.46,0,0,1,5.23,7.54a2.63,2.63,0,0,1-.77-2,2.45,2.45,0,0,1,.4-1.36,2.75,2.75,0,0,1,1.21-1,4.79,4.79,0,0,1,2-.37A7,7,0,0,1,9.32,3q.56.1,1.14.26l.51.12-.09,2.38H9.66l-.33-1.6a1,1,0,0,0-.44-.23,2.57,2.57,0,0,0-.76-.1A1.64,1.64,0,0,0,7,4.12,1.17,1.17,0,0,0,6.63,5a1.22,1.22,0,0,0,.3.82,2.87,2.87,0,0,0,.76.62q.46.27,1.35.7a11.53,11.53,0,0,1,1.31.73,3.47,3.47,0,0,1,.94.93,2.26,2.26,0,0,1,.39,1.32A2.9,2.9,0,0,1,11.3,11.56Z"/>
</svg>
