<svg width="36" height="36" viewBox="0 0 36 36" fill="none" xmlns="http://www.w3.org/2000/svg">
  <path d="M35.2989 16.4138L19.59 0.706825C18.6861 -0.197848 17.219 -0.197848 16.314 0.706825L13.0522 3.96893L17.1897 8.1064C18.1515 7.78165 19.254 7.99939 20.0204 8.7659C20.7907 9.53718 21.0069 10.6491 20.674 11.6142L24.6618 15.6019C25.6266 15.2695 26.7397 15.4843 27.5101 16.256C28.5871 17.3327 28.5871 19.0774 27.5101 20.1544C26.4329 21.2318 24.6882 21.2318 23.6104 20.1544C22.8005 19.344 22.6002 18.1541 23.0104 17.1563L19.2914 13.4372L19.291 23.2238C19.5536 23.3538 19.8014 23.5273 20.0202 23.7452C21.0969 24.8218 21.0969 26.5662 20.0202 27.6445C18.9432 28.7211 17.1977 28.7211 16.1218 27.6445C15.0449 26.5663 15.0449 24.8219 16.1218 23.7452C16.3879 23.4795 16.6959 23.2784 17.0245 23.1437V13.2661C16.6957 13.1319 16.3881 12.9323 16.1216 12.6645C15.3059 11.8495 15.1095 10.6523 15.5278 9.65065L11.4491 5.57128L0.678757 16.3413C-0.226201 17.2466 -0.226201 18.7138 0.678757 19.6185L16.3868 35.3256C17.2911 36.2303 18.7578 36.2303 19.6634 35.3256L35.2988 19.6927C36.2034 18.7876 36.2034 17.32 35.2988 16.4152" fill="#F05133"/>
</svg>
