<svg width="34" height="33" viewBox="0 0 34 33" fill="none" xmlns="http://www.w3.org/2000/svg">
  <path fill-rule="evenodd" clip-rule="evenodd" d="M16.665 -9.53674e-05C7.46238 -9.53674e-05 0 7.46063 0 16.6649C0 24.0277 4.77503 30.2744 11.3965 32.478C12.2294 32.6323 12.5352 32.1165 12.5352 31.6763C12.5352 31.2792 12.5197 29.9662 12.5125 28.5736C7.87633 29.5817 6.89803 26.6074 6.89803 26.6074C6.13996 24.6814 5.04768 24.169 5.04768 24.169C3.53567 23.1346 5.16166 23.1559 5.16166 23.1559C6.83511 23.2734 7.71627 24.8735 7.71627 24.8735C9.20262 27.4209 11.6148 26.6844 12.5658 26.2586C12.7157 25.1817 13.1473 24.4463 13.6239 24.0301C9.92234 23.609 6.03122 22.1798 6.03122 15.7942C6.03122 13.9751 6.68223 12.4882 7.74828 11.3211C7.57525 10.9014 7.00483 9.20639 7.91 6.91091C7.91 6.91091 9.30942 6.46329 12.4938 8.61941C13.8231 8.25017 15.2487 8.06499 16.665 8.05837C18.0813 8.06499 19.508 8.25017 20.8398 8.61941C24.0206 6.46329 25.4181 6.91091 25.4181 6.91091C26.3252 9.20639 25.7548 10.9014 25.5817 11.3211C26.6503 12.4882 27.2966 13.9751 27.2966 15.7942C27.2966 22.1953 23.398 23.6043 19.6871 24.0169C20.2848 24.5341 20.8175 25.5482 20.8175 27.103C20.8175 29.3328 20.7984 31.1274 20.7984 31.6763C20.7984 32.1201 21.0981 32.6394 21.9428 32.4761C28.561 30.27 33.33 24.0255 33.33 16.6649C33.33 7.46063 25.8687 -9.53674e-05 16.665 -9.53674e-05Z" fill="#1B1817"/>
</svg>
