<svg width="96" height="54" viewBox="0 0 96 54" fill="none" xmlns="http://www.w3.org/2000/svg">
<path fill-rule="evenodd" clip-rule="evenodd" d="M95.9946 44.6795C95.6148 34.2771 83.7916 37.0489 80.6087 30.6665C77.4996 24.4352 82.8447 22.2991 82.8447 15.3447C82.8447 7.10651 75.9002 0.428223 67.3348 0.428223C56.2755 0.428223 56.4306 9.37915 48.0011 9.37915H48C39.5705 9.37915 39.7256 0.428223 28.6663 0.428223C20.0998 0.428223 13.1563 7.10755 13.1563 15.3447C13.1563 22.2991 18.5003 24.4342 15.3924 30.6665C12.2084 37.0489 0.38629 34.2771 0.00541443 44.6795C-0.174325 49.5874 4.14583 53.5711 9.25234 53.5711C14.3589 53.5711 18.526 49.5906 18.4982 44.6795C18.4747 40.6647 15.6181 39.235 16.6441 34.4511H16.6462C17.4711 30.4498 21.9261 27.0215 27.6745 26.3328C34.1152 25.5606 41.3946 28.62 41.3946 35.5275C41.3946 39.805 38.7606 40.3833 38.7606 44.6795C38.7606 49.3988 42.7597 53.5711 47.9936 53.5711C53.2274 53.5711 57.2394 49.3988 57.2394 44.6795C57.2394 40.3844 54.6054 39.805 54.6054 35.5275C54.6054 28.6189 61.8838 25.5606 68.3266 26.3328C74.075 27.0215 78.5299 30.4487 79.3537 34.4501H79.3559C80.3819 39.235 77.5253 40.6647 77.5018 44.6795C77.474 49.5895 81.6422 53.5711 86.7487 53.5711C91.8552 53.5711 96.1743 49.5864 95.9946 44.6795ZM48.0075 29.8965C42.901 29.8965 38.7606 25.916 38.7606 21.0039C38.7606 16.0939 42.901 12.1124 48.0075 12.1124C53.114 12.1124 57.2533 16.0929 57.2533 21.0039C57.2533 25.9149 53.114 29.8965 48.0075 29.8965Z" fill="#E5222E"/>
</svg>
