<svg viewBox="0 0 384 240" fill="none" xmlns="http://www.w3.org/2000/svg">
    <g clip-path="url(#clip0_6696_10278)">
    <path d="M0 8.00001C0 3.58173 3.58172 0 8 0H376C380.418 0 384 3.58172 384 8V232C384 236.418 380.418 240 376 240H7.99999C3.58171 240 0 236.418 0 232V8.00001Z" fill="#F9D880"/>
    <path d="M44.5508 83.7639C44.8142 82.4807 45.9436 81.5596 47.2536 81.5596H333.385C335.32 81.5596 336.447 83.7453 335.325 85.3216C330.323 92.3476 330.323 101.772 335.325 108.798C336.447 110.374 335.32 112.56 333.385 112.56H47.2025C45.9211 112.56 44.8151 111.661 44.5524 110.407C42.7296 101.706 42.7115 92.7235 44.4992 84.0151L44.5508 83.7639Z" fill="#C0A2CA"/>
    <path d="M332.554 150.328C332.233 152.256 330.564 153.67 328.609 153.67L53.6131 153.67C52.4728 153.67 51.7767 152.416 52.3792 151.448C58.9631 140.87 58.9631 127.469 52.3792 116.891C51.7767 115.923 52.4728 114.67 53.6131 114.67L328.609 114.67C330.564 114.67 332.233 116.083 332.554 118.011L333.054 121.005C334.508 129.721 334.508 138.618 333.054 147.334L332.554 150.328Z" fill="#80CB9C"/>
    <path d="M337.801 170.96C337.594 171.456 337.109 171.78 336.571 171.78L46.8211 171.78C46.2773 171.78 45.9782 171.147 46.3233 170.727C49.6387 166.689 49.6387 160.87 46.3233 156.832C45.9782 156.412 46.2773 155.78 46.8211 155.78L336.572 155.78C337.109 155.78 337.594 156.103 337.801 156.599C339.718 161.194 339.718 166.365 337.801 170.96Z" fill="#F1A4A1"/>
    <path d="M66.2392 175.844C66.4667 174.707 67.4645 173.89 68.6233 173.89L311.2 173.89C311.999 173.89 312.451 174.805 311.966 175.439C307.479 181.314 307.479 189.465 311.966 195.34C312.451 195.975 311.999 196.89 311.2 196.89L68.6233 196.89C67.4645 196.89 66.4667 196.072 66.2392 194.935C64.9777 188.634 64.9777 182.145 66.2392 175.844Z" fill="#80CB9C"/>
    <path d="M44.8927 202.889C44.953 200.724 46.7254 199 48.8911 199L334.208 199C335.817 199 336.767 200.802 335.859 202.13L333.794 205.145C326.014 216.511 326.014 231.489 333.794 242.855C335.578 245.461 333.712 249 330.554 249L48.8911 249C46.7253 249 44.953 247.276 44.8927 245.111L44.3047 224L44.8927 202.889Z" fill="#C0A2CA"/>
    </g>
    <defs>
    <clipPath id="clip0_6696_10278">
    <path d="M0 8.00001C0 3.58173 3.58172 0 8 0H376C380.418 0 384 3.58172 384 8V232C384 236.418 380.418 240 376 240H7.99999C3.58171 240 0 236.418 0 232V8.00001Z" fill="white"/>
    </clipPath>
    </defs>
</svg>
