<svg viewBox="0 0 384 240" fill="none" xmlns="http://www.w3.org/2000/svg">
    <g clip-path="url(#clip0_6696_10369)">
    <path d="M0 8.00001C0 3.58173 3.58172 0 8 0H376C380.418 0 384 3.58172 384 8V232C384 236.418 380.418 240 376 240H7.99999C3.58171 240 0 236.418 0 232V8.00001Z" fill="#80CB9C"/>
    <rect x="358.875" y="298.361" width="333.742" height="238.098" rx="5" transform="rotate(-180 358.875 298.361)" fill="#C0A2CA"/>
    <path d="M358.875 72.3632C358.875 78.9906 353.502 84.3632 346.875 84.3632L37.1328 84.3631C30.5054 84.3631 25.1328 78.9905 25.1328 72.3631L25.1328 35.7403C25.1328 34.6357 26.0282 33.7403 27.1328 33.7403L356.875 33.7403C357.98 33.7403 358.875 34.6358 358.875 35.7403L358.875 72.3632Z" fill="#DADBEB"/>
    <line x1="173.926" y1="87.778" x2="209.449" y2="146.754" stroke="#DADBEB" stroke-width="3"/>
    <line x1="210.112" y1="86.7354" x2="174.58" y2="148.278" stroke="#DADBEB" stroke-width="3"/>
    <circle cx="192" cy="83.552" r="20" fill="#80CB9C"/>
    <circle cx="192" cy="152.528" r="20" fill="#80CB9C"/>
    <circle cx="192" cy="152.528" r="5" fill="#DADBEB"/>
    <circle cx="192" cy="83.552" r="5" fill="#DADBEB"/>
    </g>
    <defs>
    <clipPath id="clip0_6696_10369">
    <path d="M0 8.00001C0 3.58173 3.58172 0 8 0H376C380.418 0 384 3.58172 384 8V232C384 236.418 380.418 240 376 240H7.99999C3.58171 240 0 236.418 0 232V8.00001Z" fill="white"/>
    </clipPath>
    </defs>
</svg>
