<svg width="60" height="60" fill="none" xmlns="http://www.w3.org/2000/svg"><path d="M30.4 21.87h4.1L38.34 44h-3.93l-.9-5.86h-8.8L21.28 44h-4.15l13.27-22.13zm1.34 3.9h-.06l-5.33 9.43h6.75l-1.36-9.43zM39.38 21.87h3.54v8.18h.06a4.86 4.86 0 012.05-1.83c.43-.23.88-.4 1.33-.5a7.4 7.4 0 014.68.5 6.26 6.26 0 012.36 1.83 7.78 7.78 0 011.4 2.7 11.49 11.49 0 01.02 6.45 7.92 7.92 0 01-1.27 2.7 6.43 6.43 0 01-2.14 1.85c-.87.46-1.89.68-3.07.68-.53 0-1.08-.04-1.64-.12a5.71 5.71 0 01-2.91-1.2c-.4-.34-.73-.77-1-1.31h-.06V44h-3.35V21.87zM51.72 36c0-.72-.09-1.42-.28-2.1a5.54 5.54 0 00-.83-1.8 4.1 4.1 0 00-3.32-1.77c-1.49 0-2.61.52-3.38 1.55A6.91 6.91 0 0042.8 36c0 .8.1 1.56.28 2.27.21.68.51 1.27.9 1.76.4.5.86.9 1.4 1.18.56.29 1.2.43 1.92.43a3.95 3.95 0 003.41-1.76 5 5 0 00.77-1.8c.17-.68.25-1.38.25-2.08z" fill="#5d6879"/><path d="M19 34.39h18.45v1.55H19v-1.55z" fill="#5d6879"/><path d="M37.43 34.39h18.94v1.55H37.43v-1.55z" fill="#5d6879"/><path fill-rule="evenodd" clip-rule="evenodd" d="M17 37.17v.77h.01l-.68 2.38c-.24.85-.5 1.61-.8 2.3l.14-.06L13.61 46h4.1a28.28 28.28 0 01-9.27 3c-.43.03-.84-.2-1.06-.58-.07-.11-.11-.23-.14-.36v-.03h.12l.94-.2v-.01l-1.06.21c-.11-.54.2-.89.53-1.26a11.73 11.73 0 00.34-.39l.1-.1.35-.38a46.83 46.83 0 001.04-1.15 13.78 13.78 0 002.89-5.53C7.3 36.33 4 31.85 4 26.83 4 18.1 14.07 11 26.5 11c11.84 0 21.54 6.42 22.43 14.6-.38-.04-.78-.06-1.18-.06a7.5 7.5 0 00-2.8.52 7.4 7.4 0 00-.03-.3v-5.9h-3.57c-.38-.32-.8-.64-1.24-.96-3.32-2.33-8.12-3.9-13.61-3.9s-10.29 1.57-13.6 3.91C9.55 21.26 8 24.12 8 26.83c0 3.11 2.07 6.46 6.44 8.9L17 37.17zm15.1 5l-.3-2.03h-5.95l-1.43 2.46a33.37 33.37 0 007.68-.43zM9.15 47.64l1.01-.2-1 .2zm-.06.01l.01.01-.76.16v-.01l.75-.16z" fill="#5d6879"/></svg>