<svg width="80" height="81" viewBox="0 0 80 81" fill="none" xmlns="http://www.w3.org/2000/svg">
<mask id="mask0_403_8037" style="mask-type:alpha" maskUnits="userSpaceOnUse" x="0" y="0" width="80" height="81">
<rect y="0.839844" width="80" height="80" fill="#D9D9D9"/>
</mask>
<g mask="url(#mask0_403_8037)">
<path d="M20.1665 60.7563C19.4443 60.7563 18.8471 60.5202 18.3748 60.0479C17.9026 59.5757 17.6665 58.9785 17.6665 58.2563V35.0063C17.6665 34.284 17.9026 33.6868 18.3748 33.2146C18.8471 32.7424 19.4443 32.5063 20.1665 32.5063C20.8887 32.5063 21.4859 32.7424 21.9582 33.2146C22.4304 33.6868 22.6665 34.284 22.6665 35.0063V58.2563C22.6665 58.9785 22.4304 59.5757 21.9582 60.0479C21.4859 60.5202 20.8887 60.7563 20.1665 60.7563ZM40.3332 60.7563C39.611 60.7563 39.0137 60.5202 38.5415 60.0479C38.0693 59.5757 37.8332 58.9785 37.8332 58.2563V35.0063C37.8332 34.284 38.0693 33.6868 38.5415 33.2146C39.0137 32.7424 39.611 32.5063 40.3332 32.5063C41.0554 32.5063 41.6526 32.7424 42.1248 33.2146C42.5971 33.6868 42.8332 34.284 42.8332 35.0063V58.2563C42.8332 58.9785 42.5971 59.5757 42.1248 60.0479C41.6526 60.5202 41.0554 60.7563 40.3332 60.7563ZM9.4165 27.5063C8.63873 27.5063 7.98595 27.2424 7.45817 26.7146C6.93039 26.1868 6.6665 25.534 6.6665 24.7563C6.6665 24.3118 6.80539 23.8396 7.08317 23.3396C7.36095 22.8396 7.69428 22.4785 8.08317 22.2563L37.4998 5.50627C37.8887 5.28404 38.2915 5.11738 38.7082 5.00627C39.1248 4.89516 39.5554 4.8396 39.9998 4.8396C40.4443 4.8396 40.8748 4.89516 41.2915 5.00627C41.7082 5.11738 42.111 5.28404 42.4998 5.50627L71.9165 22.2563C72.3054 22.4785 72.6387 22.8396 72.9165 23.3396C73.1943 23.8396 73.3332 24.3118 73.3332 24.7563C73.3332 25.534 73.0693 26.1868 72.5415 26.7146C72.0137 27.2424 71.3609 27.5063 70.5832 27.5063H9.4165ZM17.8332 22.5063H62.1665L39.9998 9.8396L17.8332 22.5063ZM9.1665 70.7563C8.44428 70.7563 7.84706 70.5202 7.37484 70.0479C6.90262 69.5757 6.6665 68.9785 6.6665 68.2563C6.6665 67.534 6.90262 66.9368 7.37484 66.4646C7.84706 65.9924 8.44428 65.7563 9.1665 65.7563H48.3332C48.4443 66.534 48.5415 67.3257 48.6248 68.1313C48.7082 68.9368 48.9165 69.8118 49.2498 70.7563H9.1665ZM57.3332 46.5063V35.0063C57.3332 34.284 57.5693 33.6868 58.0415 33.2146C58.5137 32.7424 59.111 32.5063 59.8332 32.5063C60.5554 32.5063 61.1526 32.7424 61.6248 33.2146C62.0971 33.6868 62.3332 34.284 62.3332 35.0063V44.0063L57.3332 46.5063ZM66.6665 80.8396C62.8332 79.8952 59.6526 77.6868 57.1248 74.2146C54.5971 70.7424 53.3332 66.8952 53.3332 62.6729V55.7563C53.3332 55.3118 53.4582 54.8813 53.7082 54.4646C53.9582 54.0479 54.3054 53.7285 54.7498 53.5063L65.5832 48.0896C65.9165 47.9229 66.2776 47.8396 66.6665 47.8396C67.0554 47.8396 67.4165 47.9229 67.7498 48.0896L78.5832 53.5063C79.0276 53.7285 79.3748 54.0479 79.6248 54.4646C79.8748 54.8813 79.9998 55.3118 79.9998 55.7563V62.6729C79.9998 66.8952 78.7359 70.7424 76.2082 74.2146C73.6804 77.6868 70.4998 79.8952 66.6665 80.8396ZM75.5832 60.1729C75.9165 59.8396 76.0832 59.4507 76.0832 59.0063C76.0832 58.5618 75.9165 58.1729 75.5832 57.8396C75.2498 57.5063 74.861 57.3396 74.4165 57.3396C73.9721 57.3396 73.5832 57.5063 73.2498 57.8396L64.9165 66.1729L61.1665 62.4229C60.8332 62.0896 60.4443 61.9229 59.9998 61.9229C59.5554 61.9229 59.1665 62.0896 58.8332 62.4229C58.4998 62.7563 58.3332 63.1452 58.3332 63.5896C58.3332 64.034 58.4998 64.4229 58.8332 64.7563L63.1665 69.0896C63.4443 69.3674 63.7221 69.5618 63.9998 69.6729C64.2776 69.784 64.5832 69.8396 64.9165 69.8396C65.2498 69.8396 65.5554 69.784 65.8332 69.6729C66.111 69.5618 66.3887 69.3674 66.6665 69.0896L75.5832 60.1729Z" fill="#3265B2"/>
</g>
</svg>
