<svg width="10" height="8" viewBox="0 0 10 8" fill="none" xmlns="http://www.w3.org/2000/svg">
    <path d="M3.22917 5.9375L8.72917 0.458333C8.88194 0.305555 9.05556 0.23611 9.25 0.249999C9.44445 0.249999 9.61806 0.326388 9.77083 0.479166C9.92361 0.631943 10 0.805555 10 0.999999C10 1.19444 9.92361 1.36806 9.77083 1.52083L3.77083 7.52083C3.61806 7.67361 3.4375 7.75 3.22917 7.75C3.03472 7.75 2.86111 7.67361 2.70833 7.52083L0.229167 5.04167C0.0763889 4.88889 0 4.71528 0 4.52083C0 4.32639 0.0763889 4.15278 0.229167 4C0.381945 3.84722 0.555556 3.77083 0.75 3.77083C0.944445 3.77083 1.11806 3.84722 1.27083 4L3.22917 5.9375Z" fill="#1F5919"/>
</svg>
    