<svg width="22" height="17" viewBox="0 0 22 17" fill="none" xmlns="http://www.w3.org/2000/svg">
<path d="M0 16.5273V13.7273C0 13.1607 0.146 12.6397 0.438 12.1643C0.729333 11.6897 1.11667 11.3273 1.6 11.0773C2.63333 10.5607 3.68333 10.173 4.75 9.91434C5.81667 9.65634 6.9 9.52734 8 9.52734C9.1 9.52734 10.1833 9.65634 11.25 9.91434C12.3167 10.173 13.3667 10.5607 14.4 11.0773C14.8833 11.3273 15.2707 11.6897 15.562 12.1643C15.854 12.6397 16 13.1607 16 13.7273V16.5273H0ZM18 16.5273V13.5273C18 12.794 17.796 12.0897 17.388 11.4143C16.9793 10.7397 16.4 10.1607 15.65 9.67734C16.5 9.77734 17.3 9.94801 18.05 10.1893C18.8 10.4313 19.5 10.7273 20.15 11.0773C20.75 11.4107 21.2083 11.7813 21.525 12.1893C21.8417 12.598 22 13.044 22 13.5273V16.5273H18ZM8 8.52734C6.9 8.52734 5.95833 8.13568 5.175 7.35234C4.39167 6.56901 4 5.62734 4 4.52734C4 3.42734 4.39167 2.48568 5.175 1.70234C5.95833 0.919011 6.9 0.527344 8 0.527344C9.1 0.527344 10.0417 0.919011 10.825 1.70234C11.6083 2.48568 12 3.42734 12 4.52734C12 5.62734 11.6083 6.56901 10.825 7.35234C10.0417 8.13568 9.1 8.52734 8 8.52734ZM18 4.52734C18 5.62734 17.6083 6.56901 16.825 7.35234C16.0417 8.13568 15.1 8.52734 14 8.52734C13.8167 8.52734 13.5833 8.50668 13.3 8.46534C13.0167 8.42334 12.7833 8.37734 12.6 8.32734C13.05 7.79401 13.3957 7.20234 13.637 6.55234C13.879 5.90234 14 5.22734 14 4.52734C14 3.82734 13.879 3.15234 13.637 2.50234C13.3957 1.85234 13.05 1.26068 12.6 0.727344C12.8333 0.64401 13.0667 0.589677 13.3 0.564344C13.5333 0.539677 13.7667 0.527344 14 0.527344C15.1 0.527344 16.0417 0.919011 16.825 1.70234C17.6083 2.48568 18 3.42734 18 4.52734ZM2 14.5273H14V13.7273C14 13.544 13.9543 13.3773 13.863 13.2273C13.771 13.0773 13.65 12.9607 13.5 12.8773C12.6 12.4273 11.6917 12.0897 10.775 11.8643C9.85833 11.6397 8.93333 11.5273 8 11.5273C7.06667 11.5273 6.14167 11.6397 5.225 11.8643C4.30833 12.0897 3.4 12.4273 2.5 12.8773C2.35 12.9607 2.22933 13.0773 2.138 13.2273C2.046 13.3773 2 13.544 2 13.7273V14.5273ZM8 6.52734C8.55 6.52734 9.021 6.33134 9.413 5.93934C9.80433 5.54801 10 5.07734 10 4.52734C10 3.97734 9.80433 3.50668 9.413 3.11534C9.021 2.72334 8.55 2.52734 8 2.52734C7.45 2.52734 6.97933 2.72334 6.588 3.11534C6.196 3.50668 6 3.97734 6 4.52734C6 5.07734 6.196 5.54801 6.588 5.93934C6.97933 6.33134 7.45 6.52734 8 6.52734Z" fill="#5BB553"/>
</svg>