<svg width="80" height="81" viewBox="0 0 80 81" fill="none" xmlns="http://www.w3.org/2000/svg">
<mask id="mask0_403_8029" style="mask-type:alpha" maskUnits="userSpaceOnUse" x="0" y="0" width="80" height="81">
<rect y="0.839844" width="80" height="80" fill="#D9D9D9"/>
</mask>
<g mask="url(#mask0_403_8029)">
<path d="M40.0002 73.6728C39.3891 73.6728 38.8202 73.6306 38.2935 73.5461C37.7646 73.4639 37.2779 73.3394 36.8335 73.1728C29.9446 70.6172 24.3057 66.0617 19.9168 59.5061C15.5279 52.9506 13.3335 45.7283 13.3335 37.8394V22.0894C13.3335 20.7005 13.7368 19.4505 14.5435 18.3394C15.3479 17.2283 16.3891 16.4228 17.6668 15.9228L37.6668 8.42277C38.4446 8.14499 39.2224 8.0061 40.0002 8.0061C40.7779 8.0061 41.5557 8.14499 42.3335 8.42277L62.3335 15.9228C63.6113 16.4228 64.6535 17.2283 65.4602 18.3394C66.2646 19.4505 66.6668 20.7005 66.6668 22.0894V37.8394C66.6668 45.7283 64.4724 52.9506 60.0835 59.5061C55.6946 66.0617 50.0557 70.6172 43.1668 73.1728C42.7224 73.3394 42.2357 73.4639 41.7068 73.5461C41.1802 73.6306 40.6113 73.6728 40.0002 73.6728ZM40.0002 67.1728C45.389 65.5061 49.889 62.215 53.5002 57.2994C57.1113 52.3817 59.2224 46.895 59.8335 40.8394H40.0002V14.5894L20.0002 22.0894V39.3394C20.0002 39.7283 20.0557 40.2283 20.1668 40.8394H40.0002V67.1728Z" fill="#3265B2"/>
</g>
</svg>
