<svg width="80" height="81" viewBox="0 0 80 81" fill="none" xmlns="http://www.w3.org/2000/svg">
<mask id="mask0_403_8045" style="mask-type:alpha" maskUnits="userSpaceOnUse" x="0" y="0" width="80" height="81">
<rect y="0.839844" width="80" height="80" fill="#D9D9D9"/>
</mask>
<g mask="url(#mask0_403_8045)">
<path d="M36.5835 44.7564L30.0002 38.173C29.5002 37.673 28.8891 37.423 28.1668 37.423C27.4446 37.423 26.8335 37.673 26.3335 38.173C25.8335 38.673 25.5835 39.2841 25.5835 40.0064C25.5835 40.7286 25.8335 41.3397 26.3335 41.8397L34.5835 50.0897C35.0835 50.5897 35.6807 50.8397 36.3752 50.8397C37.0696 50.8397 37.6668 50.5897 38.1668 50.0897L53.5835 34.673C54.0279 34.2286 54.2502 33.6452 54.2502 32.923C54.2502 32.2008 54.0279 31.6175 53.5835 31.173C53.1391 30.7286 52.5696 30.5063 51.8752 30.5063C51.1807 30.5063 50.6113 30.7286 50.1668 31.173L36.5835 44.7564ZM40.0002 73.923C39.7779 73.923 39.5696 73.9091 39.3752 73.8813C39.1807 73.8536 39.0002 73.8119 38.8335 73.7563C31.389 71.5341 25.2779 66.9647 20.5002 60.048C15.7224 53.1314 13.3335 45.5341 13.3335 37.2563V20.923C13.3335 19.8675 13.6391 18.9091 14.2502 18.048C14.8613 17.1869 15.6391 16.5619 16.5835 16.173L38.2502 8.08968C38.8613 7.86746 39.4446 7.75635 40.0002 7.75635C40.5557 7.75635 41.139 7.86746 41.7502 8.08968L63.4168 16.173C64.3613 16.5619 65.1391 17.1869 65.7502 18.048C66.3613 18.9091 66.6668 19.8675 66.6668 20.923V37.2563C66.6668 45.5341 64.2779 53.1314 59.5002 60.048C54.7224 66.9647 48.6113 71.5341 41.1668 73.7563L40.0002 73.923ZM40.0002 68.923C46.389 66.8119 51.5974 62.8258 55.6252 56.9647C59.6529 51.1036 61.6668 44.5341 61.6668 37.2563V20.923L40.0002 12.7563L18.3335 20.923V37.2563C18.3335 44.5341 20.3474 51.1036 24.3752 56.9647C28.4029 62.8258 33.6113 66.8119 40.0002 68.923Z" fill="#3265B2"/>
</g>
</svg>
