<svg width="18" height="13" viewBox="0 0 18 13" fill="none" xmlns="http://www.w3.org/2000/svg">
<path d="M9 10C9.97222 10 10.7986 9.65972 11.4792 8.97917C12.1597 8.29861 12.5 7.47222 12.5 6.5C12.5 5.52778 12.1597 4.70139 11.4792 4.02083C10.7986 3.34028 9.97222 3 9 3C8.02778 3 7.20139 3.34028 6.52083 4.02083C5.84028 4.70139 5.5 5.52778 5.5 6.5C5.5 7.47222 5.84028 8.29861 6.52083 8.97917C7.20139 9.65972 8.02778 10 9 10ZM9 8.5C8.44444 8.5 7.97222 8.30556 7.58333 7.91667C7.19444 7.52778 7 7.05556 7 6.5C7 5.94444 7.19444 5.47222 7.58333 5.08333C7.97222 4.69444 8.44444 4.5 9 4.5C9.55556 4.5 10.0278 4.69444 10.4167 5.08333C10.8056 5.47222 11 5.94444 11 6.5C11 7.05556 10.8056 7.52778 10.4167 7.91667C10.0278 8.30556 9.55556 8.5 9 8.5ZM9 12.5C7.19444 12.5 5.53472 12.0208 4.02083 11.0625C2.50694 10.0903 1.30556 8.8125 0.416667 7.22917C0.347222 7.11806 0.298611 7 0.270833 6.875C0.243056 6.75 0.229167 6.625 0.229167 6.5C0.229167 6.375 0.243056 6.25 0.270833 6.125C0.298611 6 0.347222 5.88194 0.416667 5.77083C1.30556 4.1875 2.50694 2.91667 4.02083 1.95833C5.53472 0.98611 7.19444 0.499999 9 0.499999C10.8056 0.499999 12.4653 0.98611 13.9792 1.95833C15.4931 2.91667 16.6944 4.1875 17.5833 5.77083C17.6528 5.88194 17.7014 6 17.7292 6.125C17.7569 6.25 17.7708 6.375 17.7708 6.5C17.7708 6.625 17.7569 6.75 17.7292 6.875C17.7014 7 17.6528 7.11806 17.5833 7.22917C16.6944 8.8125 15.4931 10.0903 13.9792 11.0625C12.4653 12.0208 10.8056 12.5 9 12.5Z" fill="#1B222C"/>
</svg>
