<svg width="18" height="17" viewBox="0 0 18 17" fill="none" xmlns="http://www.w3.org/2000/svg">
<path d="M15.5 16.8335L12 13.3752C11.5139 13.5279 11.0208 13.6425 10.5208 13.7189C10.0208 13.7953 9.51389 13.8335 9 13.8335C7.13889 13.8335 5.4375 13.3335 3.89583 12.3335C2.35417 11.3335 1.14583 10.0141 0.270833 8.37516C0.201389 8.25016 0.149306 8.12169 0.114583 7.98975C0.0798611 7.8578 0.0625 7.72239 0.0625 7.5835C0.0625 7.44461 0.0798611 7.30919 0.114583 7.17725C0.149306 7.0453 0.201389 6.91683 0.270833 6.79183C0.576389 6.25016 0.902778 5.72239 1.25 5.2085C1.59722 4.69461 2 4.23627 2.45833 3.8335L0.166667 1.50016L1.33333 0.333496L16.6667 15.6668L15.5 16.8335ZM9 11.3335C9.15278 11.3335 9.29861 11.3266 9.4375 11.3127C9.57639 11.2988 9.71528 11.271 9.85417 11.2293L5.35417 6.72933C5.3125 6.86822 5.28472 7.00711 5.27083 7.146C5.25694 7.28489 5.25 7.43072 5.25 7.5835C5.25 8.62516 5.61458 9.51058 6.34375 10.2397C7.07292 10.9689 7.95833 11.3335 9 11.3335ZM15.0833 11.7085L12.4375 9.0835C12.5347 8.84739 12.6111 8.60433 12.6667 8.35433C12.7222 8.10433 12.75 7.84739 12.75 7.5835C12.75 6.54183 12.3854 5.65641 11.6563 4.92725C10.9271 4.19808 10.0417 3.8335 9 3.8335C8.73611 3.8335 8.47917 3.86127 8.22917 3.91683C7.97917 3.97239 7.73611 4.05572 7.5 4.16683L5.375 2.04183C5.95833 1.80572 6.55208 1.62864 7.15625 1.51058C7.76042 1.39252 8.375 1.3335 9 1.3335C10.8611 1.3335 12.566 1.83697 14.1146 2.84391C15.6632 3.85086 16.875 5.17377 17.75 6.81266C17.8194 6.92377 17.8715 7.0453 17.9063 7.17725C17.941 7.30919 17.9583 7.44461 17.9583 7.5835C17.9583 7.72239 17.9444 7.8578 17.9167 7.98975C17.8889 8.12169 17.8403 8.24322 17.7708 8.35433C17.4375 9.00711 17.0521 9.61822 16.6146 10.1877C16.1771 10.7571 15.6667 11.2641 15.0833 11.7085ZM11.2292 7.87516L8.72917 5.37516C9.09028 5.30572 9.44097 5.3335 9.78125 5.4585C10.1215 5.5835 10.4097 5.77794 10.6458 6.04183C10.8819 6.29183 11.0521 6.57655 11.1563 6.896C11.2604 7.21544 11.2847 7.54183 11.2292 7.87516Z" fill="#1C1B1F"/>
</svg>
