<svg width="80" height="81" viewBox="0 0 80 81" fill="none" xmlns="http://www.w3.org/2000/svg">
<mask id="mask0_403_8053" style="mask-type:alpha" maskUnits="userSpaceOnUse" x="0" y="0" width="80" height="81">
<rect y="0.839844" width="80" height="80" fill="#D9D9D9"/>
</mask>
<g mask="url(#mask0_403_8053)">
<path d="M35.1668 44.1733L40.0002 40.5899L44.7502 44.1733C45.2502 44.5621 45.7502 44.5899 46.2502 44.2566C46.7502 43.9233 46.9168 43.451 46.7502 42.8399L44.9168 36.9233L50.0002 33.0066C50.4446 32.6177 50.5696 32.1455 50.3752 31.5899C50.1807 31.0344 49.7779 30.7566 49.1668 30.7566H43.0835L41.1668 24.5899C41.0002 23.9788 40.6252 23.6733 40.0418 23.6733C39.4585 23.6733 39.0557 23.9788 38.8335 24.5899L36.8335 30.7566H30.8335C30.2224 30.7566 29.8196 31.0344 29.6252 31.5899C29.4307 32.1455 29.5557 32.6177 30.0002 33.0066L35.0835 36.9233L33.2502 42.8399C33.0835 43.451 33.2502 43.9233 33.7502 44.2566C34.2502 44.5899 34.7224 44.5621 35.1668 44.1733ZM23.6668 76.4233C22.8891 76.701 22.1391 76.5899 21.4168 76.0899C20.6946 75.5899 20.3335 74.8955 20.3335 74.0066V52.1733C17.8335 49.5621 16.0418 46.701 14.9585 43.5899C13.8752 40.4788 13.3335 37.3399 13.3335 34.1733C13.3335 26.6177 15.8891 20.2844 21.0002 15.1733C26.1113 10.0621 32.4446 7.50659 40.0002 7.50659C47.5557 7.50659 53.8891 10.0621 59.0002 15.1733C64.1113 20.2844 66.6668 26.6177 66.6668 34.1733C66.6668 37.3399 66.1252 40.4788 65.0418 43.5899C63.9585 46.701 62.1668 49.5621 59.6668 52.1733V74.0066C59.6668 74.8955 59.3057 75.5899 58.5835 76.0899C57.8613 76.5899 57.1113 76.701 56.3335 76.4233L40.0002 70.9233L23.6668 76.4233ZM40.0002 55.8399C46.0557 55.8399 51.1807 53.7427 55.3752 49.5483C59.5696 45.3538 61.6668 40.2288 61.6668 34.1733C61.6668 28.1177 59.5696 22.9927 55.3752 18.7983C51.1807 14.6038 46.0557 12.5066 40.0002 12.5066C33.9446 12.5066 28.8196 14.6038 24.6252 18.7983C20.4307 22.9927 18.3335 28.1177 18.3335 34.1733C18.3335 40.2288 20.4307 45.3538 24.6252 49.5483C28.8196 53.7427 33.9446 55.8399 40.0002 55.8399ZM25.3335 70.5066L40.0002 65.9233L54.6668 70.5066V56.2566C52.4446 57.8677 50.0557 59.0344 47.5002 59.7566C44.9446 60.4788 42.4446 60.8399 40.0002 60.8399C37.5557 60.8399 35.0557 60.4788 32.5002 59.7566C29.9446 59.0344 27.5557 57.8677 25.3335 56.2566V70.5066Z" fill="#3265B2"/>
</g>
</svg>
