<svg width="18" height="19" viewBox="0 0 18 19" fill="none" xmlns="http://www.w3.org/2000/svg">
<path d="M2 18.3783C1.45 18.3783 0.979 18.1826 0.587 17.7913C0.195667 17.3993 0 16.9283 0 16.3783V2.3783C0 1.8283 0.195667 1.3573 0.587 0.965296C0.979 0.573962 1.45 0.378296 2 0.378296H16C16.55 0.378296 17.021 0.573962 17.413 0.965296C17.8043 1.3573 18 1.8283 18 2.3783V16.3783C18 16.9283 17.8043 17.3993 17.413 17.7913C17.021 18.1826 16.55 18.3783 16 18.3783H2ZM2 16.3783H16V4.3783H2V16.3783ZM5 9.3783C4.71667 9.3783 4.479 9.2823 4.287 9.0903C4.09567 8.89896 4 8.66163 4 8.3783C4 8.09496 4.09567 7.8573 4.287 7.6653C4.479 7.47396 4.71667 7.3783 5 7.3783H13C13.2833 7.3783 13.5207 7.47396 13.712 7.6653C13.904 7.8573 14 8.09496 14 8.3783C14 8.66163 13.904 8.89896 13.712 9.0903C13.5207 9.2823 13.2833 9.3783 13 9.3783H5ZM5 13.3783C4.71667 13.3783 4.479 13.2823 4.287 13.0903C4.09567 12.899 4 12.6616 4 12.3783C4 12.095 4.09567 11.8573 4.287 11.6653C4.479 11.474 4.71667 11.3783 5 11.3783H9C9.28333 11.3783 9.521 11.474 9.713 11.6653C9.90433 11.8573 10 12.095 10 12.3783C10 12.6616 9.90433 12.899 9.713 13.0903C9.521 13.2823 9.28333 13.3783 9 13.3783H5Z" fill="#5BB553"/>
</svg>