<svg width="16" height="16" viewBox="0 0 16 16" fill="none" xmlns="http://www.w3.org/2000/svg">
<g clip-path="url(#clip0_2673_2754)">
<path d="M11.894 9.3478C8.10162 8.49142 7.51419 7.90399 6.65781 4.11161C6.61857 3.93828 6.46429 3.81485 6.286 3.81485C6.10772 3.81485 5.95343 3.93828 5.91419 4.11161C5.05743 7.90399 4.47038 8.49142 0.678002 9.3478C0.504288 9.38742 0.380859 9.54133 0.380859 9.71961C0.380859 9.8979 0.504288 10.0518 0.678002 10.0914C4.47038 10.9482 5.05743 11.5356 5.91419 15.3276C5.95343 15.5009 6.10772 15.6244 6.286 15.6244C6.46429 15.6244 6.61857 15.5009 6.65781 15.3276C7.51457 11.5356 8.10162 10.9482 11.894 10.0914C12.0677 10.0518 12.1908 9.8979 12.1908 9.71961C12.1908 9.54133 12.0673 9.38742 11.894 9.3478Z" fill="url(#paint0_linear_2673_2754)"/>
<path d="M15.322 3.44343C13.306 2.98819 13.023 2.70514 12.5677 0.689523C12.5281 0.515809 12.3742 0.392761 12.1959 0.392761C12.0176 0.392761 11.8637 0.515809 11.8241 0.689523C11.3689 2.70514 11.0858 2.98819 9.0702 3.44343C8.89648 3.48305 8.77344 3.63695 8.77344 3.81524C8.77344 3.99352 8.89648 4.14743 9.0702 4.18705C11.0858 4.64228 11.3689 4.92533 11.8241 6.94133C11.8637 7.11467 12.0176 7.23809 12.1959 7.23809C12.3742 7.23809 12.5281 7.11467 12.5677 6.94133C13.023 4.92533 13.306 4.64228 15.322 4.18705C15.4953 4.14743 15.6188 3.99352 15.6188 3.81524C15.6188 3.63695 15.4953 3.48305 15.322 3.44343Z" fill="url(#paint1_linear_2673_2754)"/>
</g>
<defs>
<linearGradient id="paint0_linear_2673_2754" x1="12.1908" y1="3.81485" x2="-1.57528" y2="10.0509" gradientUnits="userSpaceOnUse">
<stop stop-color="#214475"/>
<stop offset="0.295154" stop-color="#254C84"/>
<stop offset="1" stop-color="#6597E0"/>
</linearGradient>
<linearGradient id="paint1_linear_2673_2754" x1="15.6188" y1="0.392762" x2="7.63952" y2="4.00726" gradientUnits="userSpaceOnUse">
<stop stop-color="#214475"/>
<stop offset="0.295154" stop-color="#254C84"/>
<stop offset="1" stop-color="#6597E0"/>
</linearGradient>
<clipPath id="clip0_2673_2754">
<rect width="16" height="16" fill="white"/>
</clipPath>
</defs>
</svg>
