<svg xmlns="http://www.w3.org/2000/svg" width="42" height="38" viewBox="0 0 42 38" fill="none">
<g clip-path="url(#clip0_47_137)">
<path d="M41.5135 27.0169C41.4753 25.9308 41.4274 24.8448 41.3701 23.7587L41.2936 22.1486C41.2266 20.5481 40.0407 19.1858 38.5392 18.9762C37.602 18.8428 36.7317 18.576 35.5553 18.1569C35.125 18.0044 34.752 17.8425 34.3981 17.6805C34.3216 17.6424 34.2355 17.5852 34.1495 17.5281C33.8052 17.309 33.3461 17.0327 32.7819 16.8517V16.2991C32.7819 16.0705 32.7532 15.8418 32.7149 15.6227C35.0485 15.5655 36.9516 13.6411 36.9516 11.3165V10.1447C36.9516 8.00114 35.5936 6.06717 33.5852 5.32407L20.1482 0.360532C19.5744 0.150939 18.9719 0.0461426 18.3598 0.0461426C17.6043 0.0461426 16.8487 0.217627 16.1697 0.532016L4.06207 6.17196C2.25453 7.01034 1.08775 8.83951 1.08775 10.8211V11.4308C1.08775 12.6503 1.56594 13.803 2.4458 14.6605C2.81878 15.0225 3.24915 15.3083 3.70821 15.5179C3.67952 15.7084 3.65083 15.9085 3.65083 16.1086V23.8444C3.65083 23.9016 3.66995 23.9588 3.66995 24.0159C1.86241 24.5113 0.600006 26.1023 0.600006 28.1316C0.600006 30.5705 2.42667 32.4187 4.83673 32.4187H23.3903C25.0448 34.8671 27.7418 36.8773 30.5822 37.7347C30.9456 37.8681 31.3186 37.9348 31.7107 37.9348H31.7585C32.1411 37.9348 32.5236 37.8681 32.8775 37.7347C35.8518 36.8392 38.6922 34.667 40.3181 32.0567C41.4848 30.1799 41.5613 28.2649 41.5135 26.9979V27.0169Z" fill="#80CBA2"/>
<path d="M9.40815 25.3592H7.74407C6.7877 25.3592 6.03217 24.7019 6.03217 23.8635V16.1276C6.03217 15.2893 6.77813 14.6319 7.74407 14.6319H9.48466C10.5749 14.6319 11.4261 15.3655 11.4261 16.2991V23.6349C11.4261 24.6066 10.5367 25.3688 9.39859 25.3688L9.40815 25.3592ZM7.95447 23.4538H9.40815C9.40815 23.4538 9.48466 23.4538 9.52292 23.4443V16.5278C9.52292 16.5278 9.50379 16.5278 9.49423 16.5278H7.96403V23.4538H7.95447Z" fill="black"/>
<path d="M18.8954 25.3592H17.2408C16.2845 25.3592 15.5289 24.7019 15.5289 23.8635V16.1276C15.5289 15.2893 16.2749 14.6319 17.2408 14.6319H18.9814C20.0717 14.6319 20.9229 15.3655 20.9229 16.2991V23.6349C20.9229 24.6066 20.0334 25.3688 18.8954 25.3688V25.3592ZM17.4417 23.4538H18.8954C18.8954 23.4538 18.9719 23.4538 19.0101 23.4443V16.5278C19.0101 16.5278 18.991 16.5278 18.9814 16.5278H17.4512V23.4538H17.4417Z" fill="black"/>
<path d="M35.7849 24.2541C35.5266 23.8159 34.9146 23.6444 34.4746 23.9111C32.7819 24.9591 31.4908 26.512 30.2953 28.0935C29.9414 27.5981 29.5111 27.1598 28.9946 26.7883C28.5834 26.4834 27.9235 26.7216 27.6844 27.1312C27.3975 27.6171 27.6079 28.122 28.0287 28.4364C27.9235 28.3602 28.1339 28.5222 28.153 28.5412C28.2295 28.6079 28.306 28.6746 28.373 28.7508C28.4495 28.827 28.5164 28.8937 28.5834 28.9699C28.6312 29.0176 28.6695 29.0747 28.7173 29.1224C28.679 29.0747 28.679 29.0843 28.7173 29.1319C28.8321 29.2939 28.9373 29.4749 29.0329 29.6464C29.1477 29.8655 29.1477 29.8655 29.2337 30.1227C29.3581 30.4847 29.6354 30.761 30.0275 30.8086C30.4388 30.8563 30.7448 30.6753 30.9839 30.3513C31.6916 29.4082 32.2559 28.627 33.021 27.741C33.4035 27.3027 33.7956 26.8835 34.226 26.4929C34.6755 26.0833 34.9337 25.8737 35.4406 25.5593C35.8805 25.2925 36.0526 24.7114 35.7849 24.2541Z" fill="black"/>
<path d="M5.64006 13.5935C5.06624 13.5935 4.53068 13.3743 4.11944 12.9742C3.7082 12.5646 3.47867 12.0215 3.47867 11.4404V10.8307C3.47867 9.76364 4.10031 8.78236 5.07581 8.3346L17.1835 2.68512C17.8529 2.37073 18.6276 2.34215 19.3162 2.59938L32.7532 7.55339C33.8339 7.95352 34.5607 8.99196 34.5607 10.1352V11.307C34.5607 12.355 33.7 13.2314 32.648 13.241L5.66876 13.5935C5.66876 13.5935 5.64963 13.5935 5.64006 13.5935ZM18.3598 5.2955L6.72076 10.7259L31.6916 10.4019V10.2114L18.3598 5.2955Z" fill="black"/>
<path d="M38.9122 22.2534C38.893 21.8819 38.6253 21.396 38.214 21.3389C36.9994 21.1674 35.9092 20.8149 34.7615 20.4052C34.2833 20.2337 33.8147 20.0432 33.3557 19.8146C32.8679 19.5764 32.2941 19.0429 31.7394 19.0429C31.2803 19.0429 30.8213 19.4049 30.41 19.6526V16.2991C30.41 15.3655 29.5589 14.6319 28.4686 14.6319H26.728C25.7716 14.6319 25.0161 15.2893 25.0161 16.1276V21.4437C24.7388 21.6151 24.5666 21.9676 24.5571 22.263C24.4997 23.5967 24.4423 24.921 24.3849 26.2548C24.3658 26.2548 24.3562 26.2548 24.3467 26.2548H4.83671C2.37884 26.2548 2.36927 30.0655 4.83671 30.0655H24.3371C24.4901 30.0655 24.6336 30.0465 24.7675 30.0179C24.8822 30.2942 25.0066 30.5609 25.1787 30.8277C26.5367 33.0189 28.9755 34.8481 31.4716 35.534C31.4812 35.534 31.4907 35.534 31.5003 35.534C31.5673 35.5531 31.6533 35.5531 31.7298 35.5531C31.8063 35.5531 31.8829 35.5531 31.9594 35.534C31.9689 35.534 31.9785 35.534 31.9881 35.534C34.4842 34.8385 36.9229 33.0094 38.281 30.8277C39.0078 29.6654 39.1704 28.4555 39.1226 27.1027C39.0652 25.4831 38.9791 23.873 38.9122 22.263V22.2534ZM26.9289 16.5278H28.459C28.459 16.5278 28.4782 16.5278 28.4877 16.5278V20.4719C27.9617 20.6529 27.4453 20.8244 26.9193 20.9768V16.5278H26.9289ZM36.7508 29.6654C35.6988 31.4565 33.7382 32.9713 31.7298 33.6096C29.7215 32.9713 27.7609 31.4565 26.7089 29.6654C26.0968 28.6174 26.2403 27.4361 26.2881 26.2738C26.3359 25.1973 26.3837 24.1207 26.4315 23.0537C27.3401 22.8727 28.2008 22.5964 29.0998 22.282C29.5876 22.1105 30.0562 21.92 30.5344 21.7199C30.8213 21.5961 31.0986 21.4627 31.3664 21.3198C31.4907 21.2531 31.6151 21.1864 31.7298 21.1102C31.8255 21.1674 31.9307 21.215 32.0167 21.2626C32.2845 21.4056 32.5714 21.5389 32.8488 21.6723C33.3078 21.8724 33.7765 22.0629 34.2451 22.2344C35.1823 22.5678 36.0813 22.8632 37.0281 23.0537C37.0759 24.1303 37.1238 25.2068 37.1716 26.2738C37.2194 27.4361 37.3629 28.6174 36.7508 29.6654Z" fill="black"/>
</g>
<defs>
<clipPath id="clip0_47_137">
<rect width="40.9231" height="37.9077" fill="white" transform="translate(0.600006 0.0461426)"/>
</clipPath>
</defs>
</svg>
