<svg xmlns="http://www.w3.org/2000/svg" width="52" height="56" viewBox="0 0 52 56" fill="none">
<path fill-rule="evenodd" clip-rule="evenodd" d="M43.504 16.4324C42.1876 15.5761 40.8485 15.1422 39.5208 15.1422C38.193 15.1422 36.3546 15.5646 34.6751 17.5627L34.5729 17.6883L34.0282 18.5446L33.0523 16.8092C32.2579 15.4162 30.7826 14.5599 29.1939 14.5599C28.6265 14.5599 28.0704 14.6626 27.503 14.891L27.2987 14.9709L27.2193 14.4229C26.8221 12.3449 24.995 10.8035 22.8389 10.7692H17.9137C15.7689 10.8149 13.9419 12.4134 13.5674 14.6512L13.522 14.9938L13.2496 14.8796C12.7276 14.6741 12.1942 14.5713 11.6382 14.5713C10.0721 14.5713 8.58551 15.4276 7.75709 16.8548L5.33992 21.1707C4.27319 23.0432 4.68172 25.4409 6.3953 26.9252L6.75845 27.222L6.32722 27.576C4.65903 28.9804 4.23914 31.3781 5.31722 33.2506L7.76844 37.6349C8.56282 39.0165 10.0381 39.8842 11.6155 39.8842C12.1829 39.8842 12.739 39.7814 13.3064 39.5531L13.4993 39.4732L13.5787 40.0212C13.9759 42.0992 15.803 43.6292 17.9591 43.6749H23.6786L23.7467 43.5835C24.0418 44.1887 24.473 44.7139 25.0518 45.0792C25.6532 45.4674 26.3568 45.673 27.0718 45.673C27.4122 45.673 27.7413 45.6273 28.0591 45.5359L32.5076 44.6111L32.6551 44.5654C33.4608 44.2914 34.1531 43.7434 34.5956 43.0355L45.9439 25.281C47.8731 22.2668 46.8517 18.636 43.4699 16.4438L43.504 16.4324Z" fill="#80CBA2"/>
<path d="M22.4984 41.0831H17.9818C17.0626 41.0602 16.291 40.4094 16.1207 39.5188L15.7462 36.8129C15.3831 36.6188 15.0313 36.4132 14.6909 36.1735L12.3418 37.1554C11.4453 37.5093 10.4693 37.1554 9.99269 36.3333L7.55283 31.9718C7.0989 31.1725 7.26912 30.145 7.98406 29.5398L10.0381 27.8728C10.0267 27.6559 10.0154 27.439 10.0154 27.222C10.0154 26.9937 10.0154 26.7653 10.0381 26.5484L8.00675 24.9043C7.28047 24.2763 7.0989 23.2487 7.56417 22.4495L9.99269 18.1108C10.4807 17.2773 11.4566 16.9347 12.3191 17.2773L14.7022 18.2706C15.0427 18.0423 15.3944 17.8253 15.7462 17.6426L16.1094 15.0052C16.2683 14.0461 17.0513 13.361 17.9591 13.3496H22.8389C23.7581 13.361 24.5298 14.0233 24.7 14.9138L25.0745 17.6198C25.4376 17.8139 25.7894 18.0194 26.1299 18.2592L28.4789 17.2887C29.3755 16.9347 30.3514 17.2887 30.828 18.1108L33.1544 22.2782L32.5416 22.9633C31.577 24.0594 30.7032 25.2354 29.9542 26.4913L23.6106 36.9841L24.0418 39.2106L22.4984 41.1059V41.0831ZM15.088 33.2163L15.6782 33.6958C16.2115 34.1297 16.8016 34.4837 17.4258 34.7577L18.0953 35.0431L18.5719 38.4913H21.3069L21.0686 37.2011C21.0118 36.6416 21.148 36.0821 21.443 35.6026L27.7754 25.1212C28.4449 24.0023 29.2052 22.9404 30.045 21.9243L28.9102 19.8919L25.7554 21.2049L25.1653 20.7254C24.6319 20.2915 24.0418 19.9376 23.4063 19.6636L22.7367 19.3781L22.2601 15.93H18.5719L18.0953 19.401L17.4371 19.6864C16.8016 19.9604 16.2115 20.3258 15.6782 20.7597L15.088 21.2278L11.9332 19.9148L10.0608 23.2601L12.7617 25.4523L12.6595 26.183C12.6141 26.5141 12.5914 26.8567 12.5914 27.222C12.5914 27.5874 12.6255 27.9528 12.6709 28.2953L12.7617 29.0146L10.0721 31.1954L11.9446 34.5407L15.0994 33.2277L15.088 33.2163ZM19.5706 32.223H19.5592C18.1407 32.223 16.2115 31.6635 15.054 28.9804C14.3164 27.2563 14.3618 25.4523 15.1902 23.9109C16.0299 22.3467 17.5847 21.2278 19.355 20.9195C20.4898 20.7254 21.5338 20.988 22.3623 21.6845C23.5084 22.655 24.178 24.4361 24.178 26.5598C24.178 30.0536 22.419 32.223 19.5706 32.223ZM20.0699 23.4314C19.9905 23.4314 19.8997 23.4314 19.7976 23.4542C18.8216 23.6255 17.9138 24.2649 17.4598 25.1326C17.1421 25.7263 16.8811 26.6854 17.4144 27.9528C18.0499 29.4485 18.867 29.6426 19.5706 29.6426H19.5819C21.2615 29.6426 21.6246 27.9642 21.6246 26.5598C21.6246 25.2582 21.2615 24.1164 20.7168 23.6597C20.5806 23.5456 20.399 23.4314 20.0813 23.4314H20.0699Z" fill="black"/>
<path fill-rule="evenodd" clip-rule="evenodd" d="M42.1195 18.6018C40.1336 17.323 38.193 17.3801 36.6383 19.2297L34.119 23.1802L25.3015 36.9842C25.1539 37.2125 25.0972 37.4751 25.1199 37.7377L25.9483 42.0308C25.9823 42.3847 26.1753 42.7044 26.4817 42.8985C26.7767 43.0926 27.1512 43.1383 27.4803 43.0241L31.8834 42.1107C32.1331 42.0308 32.3487 41.8595 32.4962 41.6312L43.8331 23.8767C45.1041 21.8786 44.1168 19.892 42.1309 18.6018H42.1195ZM32.1785 37.772C31.9969 38.0574 30.5784 40.0669 30.2606 40.1811L28.7967 40.6835C28.286 40.8548 27.7527 40.5122 27.6959 39.9756L27.5371 38.4228C27.503 38.0917 27.5824 37.7606 27.764 37.4751L35.5943 25.224L38.7604 27.5075L32.1898 37.7834L32.1785 37.772ZM41.45 23.283L39.9861 25.578L36.7178 23.4657L38.1476 21.2278C38.681 20.3943 39.7591 20.029 40.6556 20.4628C41.7337 20.9766 42.0855 22.3125 41.4613 23.2944L41.45 23.283Z" fill="black"/>
</svg>
