<svg xmlns="http://www.w3.org/2000/svg" width="104" height="120" viewBox="0 0 104 120" fill="none"><path d="M103.521 3.769C87.2881 -2.58618 28.56 -4.88324 28.4835 30.1851C11.3321 41.1344 0 58.9749 0 78.117C0 101.241 18.7593 120 41.883 120C65.0067 120 83.7659 101.241 83.7659 78.117C83.7659 60.2766 72.5869 44.9629 56.8138 38.9905C53.7511 37.842 47.1662 35.7746 41.9595 36.234C34.4558 40.9813 25.2676 50.7821 20.9798 60.5828C27.4115 52.8494 37.442 49.4804 46.4005 50.9352C59.4937 53.0791 69.5242 64.4113 69.5242 78.1936C69.5242 93.4307 57.1967 105.758 41.9595 105.758C33.537 105.758 26.0333 102.006 20.9798 96.1106C13.3995 87.3052 11.4853 77.8108 13.0166 68.546C18.2999 36.0809 56.8138 17.6279 85.4504 10.507C76.1091 15.484 59.264 23.6002 47.4725 32.4056C81.8517 45.7285 87.4412 16.7091 103.521 3.769Z" fill="#046530"/></svg>
