<svg width="104" height="30" viewBox="0 0 104 30" fill="none" xmlns="http://www.w3.org/2000/svg">
<mask id="mask0_2946_8679" style="mask-type:alpha" maskUnits="userSpaceOnUse" x="0" y="0" width="58" height="30">
<path d="M57.4311 30H0.132324V0H57.4311V30Z" fill="white"/>
</mask>
<g mask="url(#mask0_2946_8679)">
<path d="M37.8711 21.0606C37.9861 22.0943 38.3884 22.9174 39.1163 23.5108C39.8251 24.1042 40.7446 24.4105 41.8749 24.4105C42.622 24.4105 43.2925 24.2574 43.8863 23.9511C44.4802 23.6257 44.9591 23.2045 45.304 22.6303H48.9054C48.2924 24.1999 47.392 25.4059 46.166 26.2864C44.9591 27.1478 43.5415 27.5881 41.9515 27.5881C40.8787 27.5881 39.9017 27.3967 39.0014 27.0138C38.101 26.631 37.2964 26.0759 36.5685 25.3293C35.898 24.6211 35.3616 23.8171 34.9976 22.8791C34.6336 21.9412 34.4421 21.0032 34.4421 20.027C34.4421 19.0316 34.6145 18.0745 34.9593 17.1939C35.3041 16.3134 35.8022 15.5094 36.4727 14.8011C37.2006 14.0163 38.0435 13.4229 38.9631 13.0209C39.8826 12.5998 40.8404 12.3892 41.8174 12.3892C43.0626 12.3892 44.2312 12.6764 45.304 13.2315C46.3767 13.8058 47.2963 14.5906 48.0625 15.6243C48.5223 16.2368 48.8671 16.9259 49.097 17.7108C49.3269 18.4764 49.4226 19.357 49.4226 20.3524C49.4226 20.4289 49.4227 20.5438 49.4035 20.7161C49.4035 20.8883 49.3843 21.0032 49.3843 21.0798H37.8711V21.0606ZM45.8212 18.3999C45.5338 17.4428 45.0549 16.7154 44.3844 16.2177C43.7139 15.72 42.8519 15.4711 41.8366 15.4711C40.9362 15.4711 40.1508 15.7391 39.442 16.2751C38.7332 16.8111 38.2543 17.5193 38.0052 18.3999H45.8212ZM57.4493 15.72C56.1467 15.8157 55.2463 16.1602 54.7291 16.7345C54.2118 17.3088 53.9628 18.3424 53.9628 19.8355V27.167H50.6104V12.8104H53.7521V14.4757C54.2502 13.8249 54.8057 13.3655 55.4187 13.0592C56.0126 12.7529 56.7022 12.5998 57.4493 12.5998V15.72ZM26.0323 0.94225C21.971 -0.646546 7.27779 -1.22081 7.25864 7.54628C2.96752 10.2836 0.132324 14.7437 0.132324 19.5293C0.132324 25.3102 4.82573 30 10.6111 30C16.3964 30 21.0898 25.3102 21.0898 19.5293C21.0898 15.0691 18.2929 11.2407 14.3466 9.74763C13.5804 9.4605 11.9329 8.94366 10.6302 9.05851C8.75286 10.2453 6.45405 12.6955 5.38127 15.1457C6.99044 13.2124 9.49998 12.3701 11.7413 12.7338C15.0171 13.2698 17.5267 16.1028 17.5267 19.5484C17.5267 23.3577 14.4424 26.4396 10.6302 26.4396C8.52298 26.4396 6.64562 25.5016 5.38127 24.0277C3.48476 21.8263 3.00584 19.4527 3.38897 17.1365C4.71079 9.02023 14.3466 4.40698 21.5113 2.62676C19.1741 3.871 14.9597 5.90006 12.0095 8.10141C20.6109 11.4321 22.0093 4.17727 26.0323 0.94225ZM29.5188 27.1861H26.8943L21.4346 12.8104H24.9978L28.3502 22.3623L31.7984 12.8104H35.2658L29.5188 27.1861Z" fill="#046530"/>
</g>
<path d="M66.8949 21.0719C67.0098 22.1064 67.4313 22.9301 68.1401 23.524C68.8489 24.1179 69.7684 24.4244 70.8987 24.4244C71.6458 24.4244 72.3163 24.2711 72.9102 23.9646C73.5041 23.6389 73.983 23.2175 74.3278 22.6428H77.9293C77.3163 24.2137 76.4159 25.4206 75.1899 26.3018C73.983 27.1639 72.5654 27.6045 70.9753 27.6045C69.9025 27.6045 68.9255 27.4129 68.0251 27.0298C67.1248 26.6466 66.3202 26.0911 65.5922 25.3439C64.9217 24.6351 64.3853 23.8305 64.0213 22.8918C63.6382 21.9723 63.4658 21.0144 63.4658 20.0374C63.4658 19.0412 63.6382 18.0834 63.983 17.2022C64.3278 16.3209 64.8259 15.5163 65.4964 14.8075C66.2244 14.0221 67.0673 13.4282 67.9868 13.0259C68.9064 12.6045 69.8642 12.3937 70.8412 12.3937C72.0864 12.3937 73.255 12.6811 74.3278 13.2366C75.4006 13.8114 76.3201 14.5968 77.0864 15.6313C77.5462 16.2443 77.891 16.934 78.1209 17.7194C78.3508 18.4857 78.4466 19.3669 78.4466 20.3631C78.4466 20.4397 78.4466 20.5547 78.4274 20.7271C78.4274 20.8995 78.4083 21.0144 78.4083 21.0911H66.8949V21.0719ZM74.8259 18.4091C74.5385 17.4512 74.0596 16.7232 73.3891 16.2252C72.7186 15.7271 71.8566 15.478 70.8412 15.478C69.9408 15.478 69.1554 15.7462 68.4466 16.2826C67.7378 16.819 67.2589 17.5278 67.0098 18.4091H74.8259ZM91.7224 27.2022V25.4397C91.3201 26.1485 90.7646 26.6849 90.0366 27.0298C89.3086 27.3746 88.3699 27.547 87.2397 27.547C85.1132 27.547 83.3316 26.819 81.914 25.3631C80.4964 23.9071 79.7684 22.1064 79.7684 19.9608C79.7684 18.9455 79.9408 17.9876 80.3048 17.0872C80.6688 16.1868 81.1669 15.3822 81.8374 14.6926C82.5462 13.9263 83.3508 13.3707 84.2129 13.0068C85.0749 12.6428 86.0711 12.4704 87.1631 12.4704C88.2167 12.4704 89.1171 12.6428 89.8642 12.9876C90.6113 13.3324 91.2244 13.8688 91.6841 14.5776V12.8343H94.9408V27.2213H91.7224V27.2022ZM83.1975 19.8842C83.1975 21.0911 83.5998 22.1064 84.4044 22.9301C85.209 23.7539 86.186 24.1562 87.3546 24.1562C88.4083 24.1562 89.3278 23.7539 90.1324 22.9301C90.937 22.1064 91.3393 21.1485 91.3393 20.0566C91.3393 18.888 90.937 17.8918 90.1324 17.0489C89.3278 16.206 88.3891 15.7845 87.2972 15.7845C86.1669 15.7845 85.209 16.1868 84.4044 16.9723C83.5998 17.7769 83.1975 18.7347 83.1975 19.8842ZM103.868 12.8152V15.8037H101.454V27.2022H98.2167V15.8037H96.5117V12.8152H98.1209V12.432C98.1209 10.9186 98.5424 9.78837 99.3661 9.04124C100.209 8.29411 101.473 7.93013 103.178 7.93013C103.236 7.93013 103.351 7.93013 103.504 7.94929C103.657 7.94929 103.772 7.96844 103.868 7.96844V10.9761H103.638C102.872 10.9761 102.335 11.1102 102.01 11.3401C101.684 11.5891 101.512 11.9914 101.512 12.5853V12.8535H103.868V12.8152ZM58.8872 27.2022H62.1631V8.16002H58.8872V27.2022Z" fill="#046530"/>
</svg>
