<svg xmlns="http://www.w3.org/2000/svg" width="30" height="30" fill="none"><g clip-path="url(#a)"><path fill="url(#b)" d="M29.7 16.9c0-.2-.3-.2-.4-.3-.9 0-8.1-.3-8.1-8.7 0-.3-.2-.5-.5-.5-.2 0-.5.2-.5.5a8 8 0 0 1-8 8.7l-.3.1-.2.2v.5l.5.2c.9 0 8 .3 8 8.7 0 .3.3.5.5.5.3 0 .5-.2.5-.5a8 8 0 0 1 8-8.7c.3 0 .4 0 .5-.2v-.5Z"/><path fill="url(#c)" d="M10.4 22.9c-.4 0-4.3-.2-4.3-4.8 0-.2-.3-.4-.5-.4-.3 0-.5.2-.5.4 0 4.6-4 4.8-4.4 4.8-.3 0-.5.2-.5.5 0 .2.2.4.5.4.5 0 4.4.2 4.4 4.8 0 .3.2.5.5.5.2 0 .4-.2.4-.5C6 24 10 24 10.4 24c.3 0 .5-.2.5-.5s-.2-.5-.5-.5Z"/><path fill="url(#d)" d="M14.7 7.4c.2 0 .4-.3.4-.6 0-.2-.2-.4-.4-.4-.5 0-4.4-.2-4.4-4.8 0-.3-.3-.5-.5-.5-.3 0-.5.2-.5.5 0 4.6-4 4.8-4.4 4.8-.3 0-.5.2-.5.4 0 .3.3.5.5.5.5 0 4.4.2 4.4 4.8 0 .2.2.5.5.5.2 0 .4-.2.4-.5 0-4.6 4-4.7 4.4-4.7Z"/></g><defs><linearGradient id="b" x1="29.8" x2="8.2" y1="7.4" y2="16.6" gradientUnits="userSpaceOnUse"><stop stop-color="#214475"/><stop offset=".3" stop-color="#254C84"/><stop offset="1" stop-color="#6597E0"/></linearGradient><linearGradient id="c" x1="10.9" x2="-1.8" y1="17.7" y2="23" gradientUnits="userSpaceOnUse"><stop stop-color="#214475"/><stop offset=".3" stop-color="#254C84"/><stop offset="1" stop-color="#6597E0"/></linearGradient><linearGradient id="d" x1="15.1" x2="2.4" y1="1.1" y2="6.5" gradientUnits="userSpaceOnUse"><stop stop-color="#214475"/><stop offset=".3" stop-color="#254C84"/><stop offset="1" stop-color="#6597E0"/></linearGradient><clipPath id="a"><path fill="#fff" d="M0 .9h30v28.2H0z"/></clipPath></defs></svg>
