<svg width="41" height="40" viewBox="0 0 41 40" fill="none" xmlns="http://www.w3.org/2000/svg">
<path d="M30.2344 23.5171C20.275 21.2682 18.7323 19.7255 16.4837 9.76641C16.3807 9.31122 15.9756 8.987 15.5074 8.987C15.0392 8.987 14.6341 9.3112 14.531 9.76641C12.281 19.7259 10.7394 21.2686 0.780336 23.5171C0.324219 23.6212 0 24.0253 0 24.4935C0 24.9616 0.324203 25.3659 0.780336 25.4698C10.7398 27.7199 12.2813 29.2624 14.531 39.2205C14.6341 39.6757 15.0392 39.9999 15.5074 39.9999C15.9756 39.9999 16.3807 39.6757 16.4837 39.2205C18.7338 29.2622 20.2754 27.7196 30.2344 25.4698C30.6906 25.3657 31.0139 24.9616 31.0139 24.4935C31.0139 24.0253 30.6897 23.6211 30.2344 23.5171Z" fill="url(#paint0_linear_4820_1102)"/>
<path d="M39.2371 8.01179C33.9428 6.81627 33.1993 6.07299 32.004 0.779476C31.8998 0.32336 31.4958 6.10352e-05 31.0276 6.10352e-05C30.5595 6.10352e-05 30.1552 0.323168 30.0513 0.779476C28.8558 6.07255 28.1125 6.81607 22.819 8.01179C22.3628 8.11589 22.0396 8.51996 22.0396 8.98812C22.0396 9.45629 22.3627 9.86054 22.819 9.96447C28.112 11.16 28.8556 11.9033 30.0513 17.1976C30.1554 17.6528 30.5595 17.977 31.0276 17.977C31.4958 17.977 31.9 17.6528 32.004 17.1976C33.1995 11.9033 33.9427 11.1598 39.2371 9.96447C39.6923 9.86036 40.0165 9.45629 40.0165 8.98812C40.0165 8.51996 39.6923 8.11571 39.2371 8.01179Z" fill="url(#paint1_linear_4820_1102)"/>
<defs>
<linearGradient id="paint0_linear_4820_1102" x1="31.0139" y1="8.987" x2="-5.13702" y2="25.3634" gradientUnits="userSpaceOnUse">
<stop stop-color="#214475"/>
<stop offset="0.295154" stop-color="#254C84"/>
<stop offset="1" stop-color="#6597E0"/>
</linearGradient>
<linearGradient id="paint1_linear_4820_1102" x1="40.0165" y1="6.2448e-05" x2="19.0617" y2="9.49231" gradientUnits="userSpaceOnUse">
<stop stop-color="#214475"/>
<stop offset="0.295154" stop-color="#254C84"/>
<stop offset="1" stop-color="#6597E0"/>
</linearGradient>
</defs>
</svg>
