<svg xmlns="http://www.w3.org/2000/svg" width="20" height="21" fill="none"><g fill="#fff" clip-path="url(#a)"><path d="M14.87 12.18c-4.74-1.07-5.48-1.8-6.55-6.54a.48.48 0 0 0-.93 0c-1.07 4.74-1.8 5.47-6.54 6.54a.48.48 0 0 0 0 .93c4.74 1.08 5.47 1.8 6.54 6.55a.48.48 0 0 0 .93 0c1.07-4.74 1.8-5.47 6.55-6.55a.48.48 0 0 0 0-.93Zm4.28-7.38c-2.52-.56-2.87-.92-3.44-3.44a.48.48 0 0 0-.93 0c-.57 2.52-.92 2.88-3.44 3.44a.48.48 0 0 0 0 .93c2.52.57 2.87.93 3.44 3.45a.48.48 0 0 0 .93 0c.57-2.52.92-2.88 3.44-3.45a.48.48 0 0 0 0-.93Z"/></g><defs><clipPath id="a"><path fill="#fff" d="M0 .5h20v20H0z"/></clipPath></defs></svg>
