<svg width="122" height="32" viewBox="0 0 122 32" fill="none" xmlns="http://www.w3.org/2000/svg">
    <g clip-path="url(#clip0_1568_11355)">
    <path d="M13.3806 0H0V32L13.3806 0Z" fill="black"/>
    <path d="M22.793 0H36.1561V32L22.793 0Z" fill="black"/>
    <path d="M18.0874 11.7941L26.6039 32H21.0163L18.4709 25.5669H12.2383L18.0874 11.7941Z" fill="black"/>
    <path d="M57.9857 20.3499L59.5635 24.874C59.6158 24.9874 59.6942 25.0397 59.8337 25.0397H62.8672C63.0328 25.0397 63.059 24.9612 63.0328 24.7956L56.7653 7.38779C56.7392 7.24832 56.713 7.22217 56.5736 7.22217H52.8078C52.7032 7.22217 52.6422 7.30062 52.6422 7.41394C52.5899 8.32922 52.5115 8.60817 52.3981 8.87839L46.8105 24.7694C46.7844 24.9612 46.8454 25.0397 47.0023 25.0397H49.7133C49.8789 25.0397 49.9574 24.9874 50.0184 24.8217L51.509 20.3499H57.9857ZM52.372 17.3949C53.1914 14.9193 54.2723 11.7463 54.7081 9.93315H54.7343C55.2747 11.8334 56.5474 15.5992 57.1227 17.3949H52.372Z" fill="black"/>
    <path d="M71.0911 25.3099C72.7211 25.3099 74.4558 25.0135 76.2166 24.2551C76.3561 24.2028 76.3823 24.1418 76.3823 24.0111C76.3299 23.5229 76.2689 22.8168 76.2689 22.2764V5.88847C76.2689 5.78387 76.2689 5.73157 76.1382 5.73157H73.1831C73.0698 5.73157 73.0175 5.78387 73.0175 5.92334V11.4761C72.5555 11.4237 72.233 11.3976 71.8494 11.3976C67.0812 11.3976 64.1523 14.5444 64.1523 18.4758C64.1523 23.0348 67.1597 25.3099 71.0911 25.3099ZM73.0175 22.2764C72.5294 22.4333 71.9889 22.4943 71.4397 22.4943C69.2779 22.4943 67.5084 21.2739 67.5084 18.3102C67.5084 15.6864 69.3302 14.1347 71.7448 14.1347C72.233 14.1347 72.6601 14.187 73.0175 14.3265V22.2764Z" fill="black"/>
    <path d="M85.8088 11.3976C81.738 11.3976 79.2188 14.5183 79.2188 18.3712C79.2188 21.8144 81.2237 25.3099 85.7478 25.3099C89.5745 25.3099 92.2593 22.4943 92.2593 18.284C92.2593 14.5706 89.9842 11.3976 85.8088 11.3976ZM85.6432 14.1347C87.9444 14.1347 88.9207 16.1135 88.9207 18.3712C88.9207 21.1606 87.4824 22.5466 85.8088 22.5466C83.7429 22.5466 82.5225 20.8119 82.5225 18.3101C82.5225 15.7386 83.8213 14.1347 85.6432 14.1347Z" fill="black"/>
    <path d="M95.3129 5.73157C95.1995 5.73157 95.1211 5.78387 95.1211 5.92334V24.4731C95.1211 24.5515 95.1995 24.691 95.3129 24.7171C96.6117 25.1181 97.9715 25.3099 99.375 25.3099C103.393 25.3099 107.299 22.8168 107.299 17.7959C107.299 14.1609 104.806 11.3976 100.9 11.3976C100.003 11.3976 99.1658 11.5371 98.4335 11.7811L98.3987 5.94949C98.3987 5.75772 98.3464 5.73157 98.1546 5.73157H95.3129ZM103.96 18.1271C103.96 21.1345 101.903 22.5466 99.6801 22.5466C99.2181 22.5466 98.8084 22.5205 98.4335 22.4071V14.4921C98.8607 14.3265 99.375 14.187 100.325 14.187C102.47 14.187 103.96 15.5469 103.96 18.1271Z" fill="black"/>
    <path d="M118.328 19.1034C119.653 19.1034 120.743 19.0772 121.118 18.9901C121.257 18.9639 121.31 18.9116 121.336 18.7983C121.414 18.5019 121.449 17.883 121.449 17.1246C121.449 14.5444 119.898 11.3976 115.888 11.3976C111.791 11.3976 109.516 14.7362 109.516 18.5019C109.516 21.8405 111.276 25.3099 116.21 25.3099C118.058 25.3099 119.252 25.0135 120.281 24.5253C120.386 24.473 120.438 24.3859 120.438 24.229V21.9713C120.438 21.8405 120.36 21.8144 120.281 21.8667C119.252 22.3025 118.137 22.5204 116.916 22.5204C114.153 22.5204 112.898 20.995 112.819 19.1034H118.328ZM112.819 16.7672C113.037 15.4423 113.874 14.004 115.748 14.004C117.814 14.004 118.355 15.7386 118.355 16.5232C118.355 16.5493 118.355 16.6626 118.355 16.7411C118.241 16.7672 117.893 16.7672 116.864 16.7672H112.819Z" fill="black"/>
    </g>
    <defs>
    <clipPath id="clip0_1568_11355">
    <rect width="121.451" height="32" fill="white"/>
    </clipPath>
    </defs>
    </svg>
    