<svg width="133" height="32" viewBox="0 0 133 32" fill="none" xmlns="http://www.w3.org/2000/svg">
    <g clip-path="url(#clip0_1568_11544)">
    <path d="M113.793 31.2391H118.955V20.2385C118.955 17.6149 120.14 14.3149 124.033 14.3149C126.657 14.3149 127.84 15.5844 127.84 18.5462V31.2391H133.002V17.066C133.002 10.8457 128.813 9.32255 125.175 9.32255C122.255 9.32255 120.181 10.4646 119.039 11.9462H118.955V0.267962H113.793V31.2391ZM112.186 15.4153C110.874 12.1998 108.335 9.32255 103.131 9.32255C96.1928 9.32255 92.1734 14.1458 92.1734 20.5338C92.1734 26.9231 96.1928 31.7464 102.75 31.7464C108.547 31.7464 111.001 28.3201 112.439 25.1879L108.039 22.8622C107.235 24.8081 105.924 27.0077 102.836 27.0077C99.2391 27.0077 97.5885 23.8781 97.5885 20.5338C97.5885 17.1921 99.4499 14.0612 103.131 14.0612C105.161 14.0612 106.981 15.3724 107.659 17.4887L112.186 15.4153ZM74.6288 17.784C75.179 15.4999 77.1678 13.5539 80.1713 13.5539C83.6404 13.5539 85.0361 16.6419 85.0361 17.784H74.6288ZM90.4525 21.7617C90.4525 14.1028 87.3216 9.32255 80.1713 9.32255C73.2317 9.32255 69.2124 14.1458 69.2124 20.5338C69.2124 26.9231 73.2317 31.7464 80.1713 31.7464C86.0091 31.7464 89.0984 28.9549 90.7061 26.5004L86.3486 23.9626C85.84 24.6806 84.2323 27.0077 80.1713 27.0077C77.3786 27.0077 74.7133 24.9356 74.6288 21.7617H90.4525ZM59.1718 5.16792V26.3313C59.1718 29.5897 60.6105 31.4927 64.8405 31.4927C66.4496 31.4927 67.7178 31.2391 68.9457 30.9854V26.754C68.1835 26.8386 67.3796 27.0077 66.6603 27.0077C64.6714 27.0077 64.3332 26.0776 64.3332 24.3854V13.5539H68.9457V9.82985H64.3332V1.90735e-06L59.1718 5.16792ZM50.5231 31.2391H55.6845V0.267962H50.5231V31.2391ZM41.6662 23.5815C41.6662 26.3313 38.5782 27.5163 36.1653 27.5163C34.3039 27.5163 32.8236 26.4575 32.8236 24.8497C32.8236 22.8192 34.4314 22.269 36.3773 21.8892L39.2117 21.296C40.143 21.1269 40.9898 20.8733 41.6662 20.5338V23.5815ZM46.8276 16.3467C46.8276 10.2539 42.2164 9.32255 37.6039 9.32255C32.9082 9.32255 28.4648 11.2685 28.4648 16.3037L33.6275 16.5158C33.6275 14.1887 34.6005 13.3003 37.6039 13.3003C39.8464 13.3003 41.6662 13.8921 41.6662 16.0072V16.6419C40.355 17.1076 37.9421 17.5303 36.0807 17.9115L33.9228 18.3342C30.7502 18.969 27.4073 20.8317 27.4073 25.0201C27.4073 29.1656 30.6227 31.7464 34.685 31.7464C37.3503 31.7464 39.6773 30.9009 41.6662 29.2931C41.6662 29.8433 41.8353 30.7318 42.1735 31.2391H47.6315C47.3362 30.7734 46.8276 29.8433 46.8276 27.6425V16.3467ZM26.6294 9.82985C25.1908 3.52637 20.5783 0.352509 14.5284 0.352509C5.51677 0.352509 0.246094 7.67188 0.246094 16.1763C0.246094 24.6806 4.882 32 14.5284 32C20.5366 32 24.556 29.0811 26.9676 23.0313L21.8062 20.6613C20.7057 24.1733 18.4632 26.754 14.5284 26.754C8.52022 26.754 6.02407 21.4235 6.02407 16.1763C6.02407 10.9303 8.52022 5.59978 14.5284 5.59978C17.9559 5.59978 20.7057 7.88391 21.1714 11.2269L26.6294 9.82985Z" fill="black"/>
    </g>
    <defs>
    <clipPath id="clip0_1568_11544">
    <rect width="132.756" height="32" fill="white" transform="translate(0.246094)"/>
    </clipPath>
    </defs>
    </svg>
    