<svg width="58" height="56" viewBox="0 0 58 56" fill="none" xmlns="http://www.w3.org/2000/svg">
    <g clip-path="url(#clip0_1568_11537)">
    <path d="M16.1354 23.2293C15.342 23.3047 13.9133 23.3047 13.12 23.3047V19.7616H15.8159C16.2143 19.7616 16.6092 19.8406 17.0077 19.8406C17.0077 19.7616 16.9287 19.6036 16.9287 19.5247C16.9287 19.4457 17.0077 19.2913 17.0077 19.2088C16.6092 19.2088 16.2143 19.2878 15.8159 19.2878H13.12V16.2185H14.7856L16.1354 16.2975C16.5302 16.2975 16.9287 16.3729 17.3236 16.3729C17.3236 16.2975 17.2446 16.1395 17.2446 16.0606C17.2446 15.9026 17.3236 15.8236 17.3236 15.6657H11.939V23.8575H17.4025C17.4025 23.7785 17.3236 23.6242 17.3236 23.5452C17.3236 23.3872 17.4025 23.3083 17.4025 23.1503C16.9835 23.216 16.5593 23.2424 16.1354 23.2293ZM27.2384 15.6657H26.761V23.9221C26.8805 23.8499 27.0215 23.822 27.1595 23.8431C27.2708 23.8313 27.3827 23.8593 27.4754 23.9221V17.3995H27.6333L33.42 23.1431C33.6836 23.3819 33.924 23.6451 34.1379 23.9293H34.5364V15.6729C34.3748 15.6729 34.2959 15.7519 34.1379 15.7519C33.98 15.7519 33.901 15.6729 33.7431 15.6729V21.8975H33.6641L27.2384 15.6657ZM10.6538 22.6154C9.83112 23.2463 8.81859 23.5792 7.78203 23.5595C5.72152 23.5595 4.21383 22.1452 4.21383 19.7795C4.21383 17.8124 5.40203 15.9995 7.86101 15.9995C8.83082 16 9.76499 16.3652 10.4779 17.0226H10.5569L10.7938 16.0785C9.88016 15.7359 8.91549 15.5491 7.93998 15.5257C5.06819 15.5257 2.86408 17.1016 2.86408 19.7795C2.86408 22.3785 4.68767 24.0334 7.62408 24.0334C8.65434 24.0334 9.77793 23.8754 10.5569 23.4016L10.6538 22.6154ZM19.7754 19.4636V16.1539C20.3282 16.1539 21.8359 16.0749 22.3133 16.1539C23.3436 16.3119 23.821 16.8719 23.821 17.6508C23.821 18.5949 23.1031 19.2231 22.0764 19.3811C21.3136 19.4807 20.5431 19.5071 19.7754 19.4601M25.0882 22.9277L22.3133 19.776C23.6595 19.6216 25.0882 18.9108 25.0882 17.4929C25.0882 16.3119 24.1369 15.698 22.0764 15.698H18.6661V23.9544C18.8713 23.8892 19.0867 23.8624 19.3015 23.8754C19.4893 23.8627 19.6776 23.8896 19.8543 23.9544V19.9195H20.9636L21.9938 21.0216L23.5805 22.8344C23.8964 23.2293 24.1369 23.5524 24.4528 23.9365C24.7111 23.8669 24.9791 23.8402 25.2461 23.8575C25.4882 23.8438 25.7308 23.8705 25.9641 23.9365L25.7272 23.6206L25.0954 22.9026L25.0882 22.9277ZM17.4743 41.0595C16.612 40.9349 15.7584 40.7563 14.9184 40.5247C17.045 42.6087 19.6021 44.2015 22.4102 45.1913L23.3759 44.1431C21.2436 43.4681 19.2462 42.4244 17.4743 41.0595ZM13.059 13.7272H14.7102C16.7815 11.0565 22.1015 7.10057 29.2343 7.10057C30.7519 7.10044 32.2641 7.27998 33.7395 7.63544C33.1705 7.04727 32.5637 6.49687 31.9231 5.98775C31.0317 5.86973 30.1335 5.80977 29.2343 5.80826C26.1128 5.79437 23.03 6.49954 20.2249 7.86909C17.4198 9.23864 14.9678 11.2358 13.059 13.7057M29.2343 45.0585C28.3344 45.054 27.4359 44.9856 26.5456 44.8539L25.4938 45.999C28.8285 46.6268 32.2672 46.4122 35.498 45.3748C38.7288 44.3373 41.6495 42.5098 43.9954 40.058L43.6364 38.5324C41.84 40.5842 39.6255 42.2281 37.1415 43.3537C34.6575 44.4793 31.9615 45.0606 29.2343 45.0585ZM46.2569 37.2472C47.9538 34.7101 49.0478 31.8184 49.4554 28.7934H49.5451L52.8225 5.52467L51.5338 5.34519L49.2041 21.8903C48.5193 18.7117 47.0841 15.743 45.0184 13.232C42.9526 10.721 40.3162 8.74055 37.3292 7.45596C37.8685 8.16898 38.3613 8.91599 38.8046 9.69237C41.6956 11.348 44.0996 13.736 45.7746 16.6158C47.4495 19.4957 48.3365 22.766 48.3461 26.0975C48.3468 29.3917 47.4801 32.628 45.8333 35.4811L46.2533 37.276L46.2569 37.2472ZM10.1225 26.0975V25.6488L8.82306 25.6237V26.0975C8.81768 29.6046 9.73239 33.0518 11.4759 36.0949C12.1925 36.4933 12.9348 36.8435 13.6979 37.1431C11.3639 33.9332 10.1072 30.0662 10.1082 26.0975M39.5943 20.2354C39.5943 30.7031 31.022 39.218 20.4825 39.218C17.9787 39.2355 15.4962 38.7574 13.178 37.8113C10.8598 36.8651 8.75167 35.4696 6.97517 33.7051C5.19867 31.9406 3.78887 29.842 2.827 27.5303C1.86514 25.2185 1.37021 22.7393 1.37075 20.2354C1.37075 9.76775 9.94306 1.25288 20.4825 1.25288C31.022 1.25288 39.5943 9.76775 39.5943 20.2354ZM20.4969 -0.0394287C9.23947 -0.0394287 0.0820312 9.05339 0.0820312 20.2354C0.0824025 21.9045 0.288573 23.5671 0.695877 25.1857C0.738954 25.3544 0.796391 25.5195 0.846647 25.6883L5.95126 43.8775L7.20408 43.5185L4.01639 32.1785C6.89797 36.0817 11.0714 38.8352 15.7935 39.9489C20.5155 41.0625 25.4796 40.4638 29.8015 38.2595L13.4861 56.0288H15.2487L35.5774 33.8836C38.3969 30.8228 40.2001 26.9644 40.7395 22.838L48.5472 56.036H49.8825L40.3733 15.6226C39.5943 12.3705 38.0274 9.35978 35.8108 6.85579C33.5941 4.35181 30.7957 2.43137 27.662 1.26365H57.8446V-0.0394287" fill="black"/>
    </g>
    <defs>
    <clipPath id="clip0_1568_11537">
    <rect width="57.4359" height="56" fill="white" transform="translate(0.242188)"/>
    </clipPath>
    </defs>
    </svg>
    