<svg width="171" height="26" viewBox="0 0 171 26" fill="none" xmlns="http://www.w3.org/2000/svg">
    <g clip-path="url(#clip0_1568_11535)">
    <path d="M6.62496 6.9542C6.49966 6.45299 6.53099 5.95179 6.59364 5.66986C6.75026 4.88673 7.28279 4.04094 8.81773 4.04094C10.2587 4.04094 11.0732 4.91806 11.0732 6.26504C11.0732 6.7036 11.0732 7.76866 11.0732 7.76866H17.1503V6.04577C17.1503 0.751791 12.3575 -0.0939941 8.91171 -0.0939941C4.58882 -0.0939941 1.04906 1.34697 0.391227 5.32528C0.203275 6.42167 0.17195 7.39275 0.453878 8.61444C1.51894 13.5952 10.196 15.0361 11.4491 18.2C11.6997 18.7952 11.6057 19.547 11.5117 20.0168C11.3238 20.8313 10.7599 21.6771 9.13099 21.6771C7.59605 21.6771 6.68761 20.8 6.68761 19.453V17.1036H0.140625V18.9831C0.140625 24.4337 4.43219 26.0626 9.00568 26.0626C13.4226 26.0626 17.025 24.559 17.6201 20.4867C17.9021 18.3879 17.6828 17.0096 17.5888 16.5084C16.5864 11.3397 7.31412 9.8048 6.62496 6.9542ZM85.9719 7.01685C85.878 6.54697 85.9093 6.01444 85.9406 5.76384C86.1286 4.9807 86.6298 4.13492 88.1647 4.13492C89.5744 4.13492 90.3888 5.01203 90.3888 6.32769C90.3888 6.76625 90.3888 7.83131 90.3888 7.83131H96.4033V6.13974C96.4033 0.877093 91.7045 0.0626324 88.29 0.0626324C83.9984 0.0626324 80.49 1.47227 79.8322 5.41926C79.6756 6.48432 79.6129 7.4554 79.8948 8.67709C80.9286 13.5952 89.5117 15.0361 90.7647 18.1687C90.984 18.7638 90.9213 19.5156 90.796 19.9542C90.6081 20.7687 90.0756 21.5831 88.4466 21.5831C86.943 21.5831 86.0033 20.706 86.0033 19.3903V17.0409H79.5189V18.8891C79.5189 24.2771 83.7478 25.906 88.29 25.906C92.6442 25.906 96.2466 24.4024 96.8105 20.3928C97.0924 18.294 96.8731 16.947 96.7792 16.4458C95.8081 11.3711 86.6611 9.83613 85.9719 7.01685ZM141.355 20.3301L135.623 0.689138H126.57V24.8409H132.553L132.208 4.57348L138.379 24.8409H147.056V0.689138H141.042L141.355 20.3301ZM26.2659 0.689138L21.7551 25.0602H28.3334L31.7479 2.47468L35.0683 25.0602H41.6153L37.1045 0.657816H26.2659V0.689138ZM63.1045 0.689138L60.0346 19.7663L56.9647 0.689138H47.0033L46.4707 25.0916H52.5792L52.7358 2.50601L56.9334 25.0602H63.1045L67.3021 2.47468L67.4587 25.0602H73.5671L73.0346 0.657816H63.1045V0.689138ZM119.803 0.689138H113.632V18.7325C113.632 19.0458 113.632 19.3903 113.57 19.6723C113.444 20.2675 112.943 21.4578 111.22 21.4578C109.529 21.4578 109.027 20.2988 108.902 19.6723C108.839 19.4217 108.839 19.0458 108.839 18.7325V0.689138H102.668V18.1687C102.668 18.6072 102.7 19.547 102.731 19.7663C103.17 24.3084 106.741 25.812 111.22 25.812C115.7 25.812 119.302 24.3397 119.741 19.7663C119.772 19.5156 119.835 18.6072 119.803 18.1687V0.689138ZM162.155 11.3711V14.9422H164.661V18.4819C164.661 18.7952 164.661 19.1397 164.598 19.4217C164.504 20.0795 163.878 21.2072 162.092 21.2072C160.338 21.2072 159.712 20.0795 159.618 19.4217C159.586 19.1397 159.555 18.7952 159.555 18.4819V7.3301C159.555 6.92287 159.586 6.51564 159.68 6.17107C159.806 5.57589 160.338 4.41685 162.092 4.41685C163.972 4.41685 164.41 5.63854 164.536 6.17107C164.598 6.51564 164.598 7.11083 164.598 7.11083V8.45781H170.738V7.64335C170.738 7.64335 170.77 6.79757 170.707 6.01444C170.237 1.44095 166.478 -1.72779e-05 162.155 -1.72779e-05C157.832 -1.72779e-05 154.136 1.47227 153.603 6.01444C153.541 6.42167 153.478 7.17347 153.478 7.64335V17.8867C153.478 18.3253 153.478 18.6699 153.572 19.4843C153.979 23.9325 157.832 25.4988 162.155 25.4988C166.509 25.4988 170.331 23.9325 170.738 19.4843C170.801 18.6699 170.832 18.3253 170.832 17.8867V11.3397H162.155V11.3711Z" fill="black"/>
    </g>
    <defs>
    <clipPath id="clip0_1568_11535">
    <rect width="170.723" height="26" fill="white" transform="translate(0.234375)"/>
    </clipPath>
    </defs>
    </svg>
    