<svg width="143" height="38" viewBox="0 0 143 38" fill="none" xmlns="http://www.w3.org/2000/svg">
    <g clip-path="url(#clip0_1568_11539)">
    <path d="M106.932 10.468L108.65 4.55522H108.677L110.389 10.468H106.932ZM112.393 17.449H117.426L112.234 0.320657H105.088L99.897 17.449H104.929L105.847 14.2827H111.478L112.393 17.449ZM22.8253 8.88137C22.8253 7.94278 22.8501 7.38586 22.8679 6.97349C22.9991 4.32998 24.0436 4.02058 26.0723 4.02058C28.1029 4.02058 29.147 4.32998 29.2797 6.97349C29.2975 7.38685 29.3217 7.94377 29.3217 8.88137C29.3217 9.8259 29.2975 10.3803 29.2797 10.7992C29.1465 13.4362 28.1025 13.7476 26.0723 13.7476C24.0431 13.7476 22.9991 13.4367 22.8679 10.7992C22.8501 10.3803 22.8253 9.8264 22.8253 8.88137ZM26.0723 17.7564C31.2415 17.7564 33.7345 16.849 34.087 12.1838C34.1726 11.0749 34.189 9.9358 34.1909 8.88137C34.1909 7.83189 34.1726 6.69577 34.087 5.58144C33.734 0.921634 31.2415 0.00927734 26.0723 0.00927734C20.9066 0.00927734 18.4126 0.921634 18.0601 5.58144C17.9754 6.69577 17.9591 7.83189 17.9591 8.88137C17.9591 9.9358 17.9749 11.0749 18.0601 12.1838C18.4126 16.849 20.9066 17.7564 26.0723 17.7564ZM0.960938 0.321152V4.59136H6.08014V17.449H11.2053V4.59136H16.3245V0.321152H0.960938ZM74.6911 0.321152H79.5529V17.4495H74.6911V0.321152ZM59.9973 6.57399V0.321152H55.1598V17.449H59.9973V10.8472H65.6126V17.449H70.4412V0.321152H65.6126V6.57399H59.9973ZM88.6933 4.2379H92.0422C92.9229 4.2379 93.461 4.65374 93.461 5.64827C93.461 6.50667 92.9278 7.03091 92.0422 7.03091H88.6933V4.2379ZM88.6933 10.415H92.0422C93.4001 10.415 93.6818 11.0086 93.6818 11.9734C93.6818 12.9323 93.1536 13.5253 92.0422 13.5253H88.6933V10.415ZM95.5406 8.49771C97.6941 7.94822 98.3248 6.65666 98.3248 4.79829C98.3248 1.03599 95.957 0.320657 92.5882 0.320657H83.8652V17.449H93.0239C97.2386 17.449 98.6564 15.6327 98.6564 12.8372C98.6564 10.8907 98.2124 9.17097 95.5406 8.49771ZM37.0067 11.8278H41.6136C41.618 12.6635 41.7269 13.2179 42.1284 13.5174C42.5863 13.8649 42.9962 13.9832 44.3581 13.9832C45.6689 13.9832 47.1026 13.9832 47.1026 12.364C47.1026 11.0912 46.3026 10.8066 44.8204 10.7254C41.1497 10.5308 39.821 10.4244 38.4532 9.4076C37.523 8.71652 37.0409 7.37101 37.0409 5.5458C37.0409 2.44586 38.122 1.35925 39.6824 0.600354C41.2928 -0.180323 47.6129 -0.180323 49.3109 0.600354C51.4525 1.58796 51.5168 3.71811 51.5168 5.69777H46.9184C46.9095 4.69086 46.6813 4.40424 46.4956 4.21414C46.0184 3.79336 45.3382 3.70475 44.3581 3.70475C43.1695 3.70475 41.7977 3.75771 41.7977 5.20026C41.7977 6.29776 42.2675 6.76211 43.5209 6.83983C45.2372 6.95072 48.6169 7.05666 49.8223 7.76803C51.5158 8.7685 51.949 10.1219 51.949 12.3313C51.949 15.5203 50.8084 16.453 49.2248 17.154C47.3917 17.9673 41.2665 17.9673 39.2775 17.0906C37.0503 16.1223 37.0067 14.1842 37.0067 11.8278Z" fill="black"/>
    <path d="M121.7 25.9939H124.919L129.767 30.5671L124.914 35.161H121.695L126.549 30.5671L121.7 25.9939Z" fill="black"/>
    <path d="M128.298 25.9939H131.517L136.364 30.5671L131.512 35.161H128.293L133.146 30.5671L128.298 25.9939Z" fill="black"/>
    <path d="M134.898 25.9939H138.114L142.964 30.5671L138.11 35.161H134.89L139.746 30.5671L134.898 25.9939ZM1.39453 26.0389H3.45142V33.4294H7.07956V35.161H1.39453V26.0389ZM12.276 31.0888C12.276 30.6017 12.0592 29.7463 11.1265 29.7463C10.2468 29.7463 9.89435 30.5453 9.83941 31.0888H12.276ZM9.85327 32.4952C9.92158 33.3621 10.7597 33.767 11.7206 33.767C12.4235 33.767 12.9923 33.6715 13.5477 33.4838L13.8175 34.8769C13.1403 35.1605 12.3161 35.2952 11.4225 35.2952C9.17605 35.2952 7.88994 33.9982 7.88994 31.9136C7.88994 30.2329 8.94388 28.38 11.2324 28.38C13.371 28.38 14.1829 30.0453 14.1829 31.6829C14.1829 32.0354 14.1428 32.3462 14.1156 32.5086L9.85327 32.4952ZM18.9348 32.0354C17.8516 32.0354 17.0135 32.2913 17.0135 33.0764C17.0135 33.6056 17.3655 33.8616 17.8254 33.8616C18.3274 33.8616 18.759 33.5234 18.8952 33.1041C18.9224 32.9957 18.9353 32.8754 18.9353 32.7537L18.9348 32.0354ZM20.9243 33.5635C20.9243 34.1878 20.9511 34.7957 21.0332 35.1615H19.1773L19.057 34.4987H19.0159C18.5828 35.0254 17.9071 35.31 17.1214 35.31C15.7814 35.31 14.9829 34.3348 14.9829 33.2799C14.9829 31.5601 16.5259 30.7492 18.8674 30.7492V30.6671C18.8674 30.3151 18.6788 29.8156 17.6635 29.8156C16.9868 29.8156 16.27 30.0453 15.8363 30.3017L15.4566 28.9884C15.9175 28.7315 16.8244 28.3933 18.0274 28.3933C20.2342 28.3933 20.9248 29.6928 20.9248 31.2502L20.9243 33.5635ZM26.9207 31.3586C26.9207 31.2369 26.9207 31.1007 26.8925 30.9789C26.7717 30.4235 26.3247 29.9785 25.6891 29.9785C24.7406 29.9785 24.2673 30.8171 24.2673 31.8601C24.2673 32.9685 24.8223 33.6715 25.6757 33.6715C26.2703 33.6715 26.7579 33.269 26.8801 32.6848C26.9074 32.5497 26.9207 32.3868 26.9207 32.2245V31.3586ZM28.9766 25.5518V33.1858C28.9766 33.9422 29.0053 34.715 29.0316 35.1605H27.2044L27.1237 34.2007H27.0831C26.6767 34.9318 25.8648 35.309 25.0124 35.309C23.4416 35.309 22.1832 33.97 22.1832 31.9136C22.1703 29.6938 23.5639 28.3943 25.148 28.3943C25.9732 28.3943 26.596 28.6928 26.8925 29.1384H26.9207V25.5523L28.9766 25.5518ZM30.6286 28.5428H32.6865V35.1605H30.6286V28.5428ZM31.6439 27.677C30.9533 27.677 30.5073 27.1899 30.5073 26.58C30.5073 25.9568 30.9662 25.4845 31.6711 25.4845C32.3756 25.4845 32.8087 25.9573 32.8211 26.58C32.8211 27.1889 32.3756 27.677 31.6568 27.677H31.6439ZM34.3364 30.6552C34.3364 29.8285 34.3092 29.1384 34.283 28.5428H36.07L36.1631 29.4621H36.2037C36.4745 29.0285 37.1379 28.3933 38.2472 28.3933C39.6002 28.3933 40.6165 29.3003 40.6165 31.2502V35.1605H38.5586V31.4943C38.5586 30.6393 38.2606 30.0582 37.5171 30.0582C36.9492 30.0582 36.6106 30.4517 36.4616 30.8304C36.4082 30.9661 36.3938 31.1557 36.3938 31.3448V35.1615H34.3364V30.6552ZM46.4768 31.2369C46.4768 31.1146 46.4634 30.9789 46.4367 30.8581C46.2877 30.3151 45.8956 29.9502 45.3268 29.9502C44.5689 29.9502 43.9748 30.627 43.9748 31.8329C43.9748 32.8205 44.4615 33.5918 45.3139 33.5918C45.8555 33.5918 46.2738 33.2403 46.4109 32.7645C46.4634 32.6042 46.4778 32.3868 46.4778 32.2106L46.4768 31.2369ZM48.5341 34.2007C48.5341 35.4714 48.2767 36.514 47.5183 37.1793C46.8025 37.8006 45.8139 37.9907 44.8392 37.9907C43.959 37.9907 43.0531 37.8149 42.457 37.4897L42.863 35.9184C43.2823 36.162 43.9996 36.4199 44.7852 36.4199C45.7599 36.4199 46.505 35.9046 46.505 34.6749V34.2551H46.4763C46.0847 34.7967 45.4476 35.1086 44.6902 35.1086C43.0526 35.1086 41.8892 33.7814 41.8892 31.8863C41.8892 29.7473 43.257 28.3943 44.8941 28.3943C45.8005 28.3943 46.3688 28.7859 46.7065 29.329H46.7332L46.803 28.5438H48.5881C48.5487 29.2016 48.5309 29.8606 48.5346 30.5195L48.5341 34.2007ZM53.087 26.0389H55.1434V35.161H53.087V26.0389ZM56.8622 30.6552C56.8622 29.8285 56.8355 29.1384 56.8092 28.5428H58.5948L58.6899 29.4621H58.729C59.0013 29.0285 59.6641 28.3933 60.7735 28.3933C62.1264 28.3933 63.1418 29.3003 63.1418 31.2502V35.1605H61.0849V31.4943C61.0849 30.6393 60.7869 30.0582 60.0433 30.0582C59.476 30.0582 59.1369 30.4517 58.9879 30.8304C58.9334 30.9661 58.9206 31.1557 58.9206 31.3448V35.1615H56.8622V30.6552ZM64.7932 30.6552C64.7932 29.8285 64.7675 29.1384 64.7403 28.5428H66.5268L66.6214 29.4621H66.661C66.9318 29.0285 67.5956 28.3933 68.7045 28.3933C70.0585 28.3933 71.0738 29.3003 71.0738 31.2502V35.1605H69.0169V31.4943C69.0169 30.6393 68.7189 30.0582 67.9753 30.0582C67.407 30.0582 67.0684 30.4517 66.9189 30.8304C66.865 30.9661 66.8516 31.1557 66.8516 31.3448V35.1615H64.7932V30.6552ZM75.8098 33.8353C76.6237 33.8353 77.1241 33.0363 77.1241 31.8457C77.1241 30.87 76.7445 29.87 75.8098 29.87C74.8351 29.87 74.4584 30.8705 74.4584 31.8601C74.4584 32.9833 74.9316 33.8353 75.7965 33.8353H75.8098ZM75.7692 35.309C73.8356 35.309 72.346 34.0388 72.346 31.8977C72.346 29.7611 73.7534 28.3933 75.891 28.3933C77.9073 28.3933 79.2617 29.7874 79.2617 31.7908C79.2617 34.1997 77.5429 35.3081 75.7841 35.3081L75.7692 35.309ZM82.0641 28.5428L82.9572 31.6131C83.1206 32.1685 83.2275 32.6977 83.3369 33.2259H83.3785C83.4823 32.6846 83.6035 32.1467 83.7418 31.6131L84.5953 28.5428H86.7591L84.2973 35.1605H82.2389L79.831 28.5428H82.0641ZM91.2258 32.0354C90.1427 32.0354 89.3041 32.2913 89.3041 33.0764C89.3041 33.6056 89.6556 33.8616 90.1165 33.8616C90.6169 33.8616 91.0491 33.5234 91.1857 33.1041C91.212 32.9957 91.2258 32.8754 91.2258 32.7537V32.0354ZM93.2154 33.5635C93.2154 34.1878 93.2431 34.7957 93.3238 35.1615H91.4704L91.3486 34.4987H91.3055C90.8744 35.0254 90.1971 35.31 89.412 35.31C88.0719 35.31 87.2749 34.3348 87.2749 33.2799C87.2749 31.5601 88.816 30.7492 91.159 30.7492V30.6671C91.159 30.3151 90.9684 29.8156 89.9536 29.8156C89.2764 29.8156 88.56 30.0453 88.1269 30.3017L87.7467 28.9884C88.2086 28.7315 89.1165 28.3933 90.3189 28.3933C92.5243 28.3933 93.2154 29.6928 93.2154 31.2502V33.5635ZM97.1544 26.7419V28.5433H98.6292V30.0582H97.1544V32.469C97.1544 33.268 97.3569 33.6314 97.9683 33.6314C98.2509 33.6314 98.3876 33.6185 98.5757 33.5784L98.5895 35.1348C98.3321 35.2303 97.8326 35.31 97.2623 35.31C96.599 35.31 96.045 35.0808 95.7049 34.7427C95.3267 34.3502 95.1371 33.713 95.1371 32.7799V30.0582H94.2579V28.5428H95.1371V27.2968L97.1544 26.7419ZM99.8212 28.5428H101.876V35.1605H99.8212V28.5428ZM100.836 27.677C100.144 27.677 99.697 27.1899 99.697 26.58C99.697 25.9568 100.157 25.4845 100.862 25.4845C101.567 25.4845 101.999 25.9573 102.012 26.58C102.012 27.1889 101.567 27.677 100.847 27.677H100.836ZM106.614 33.8353C107.425 33.8353 107.926 33.0363 107.926 31.8457C107.926 30.87 107.548 29.87 106.614 29.87C105.639 29.87 105.26 30.8705 105.26 31.8601C105.26 32.9833 105.733 33.8353 106.6 33.8353H106.614ZM106.572 35.309C104.639 35.309 103.15 34.0388 103.15 31.8977C103.15 29.7611 104.557 28.3933 106.694 28.3933C108.711 28.3933 110.066 29.7874 110.066 31.7908C110.066 34.1997 108.346 35.3081 106.587 35.3081L106.572 35.309ZM111.147 30.6552C111.147 29.8285 111.118 29.1384 111.093 28.5428H112.878L112.974 29.4621H113.014C113.283 29.0285 113.948 28.3933 115.057 28.3933C116.409 28.3933 117.426 29.3003 117.426 31.2502V35.1605H115.369V31.4943C115.369 30.6393 115.071 30.0582 114.327 30.0582C113.76 30.0582 113.42 30.4517 113.272 30.8304C113.217 30.9661 113.204 31.1557 113.204 31.3448V35.1615H111.147V30.6552Z" fill="black"/>
    </g>
    <defs>
    <clipPath id="clip0_1568_11539">
    <rect width="142.003" height="38" fill="white" transform="translate(0.960938)"/>
    </clipPath>
    </defs>
    </svg>
    