<svg width="141" height="42" fill="none" xmlns="http://www.w3.org/2000/svg"><path fill-rule="evenodd" clip-rule="evenodd" d="M27.276 7.131c.12.059.272.009.332-.114a.252.252 0 00-.114-.332.25.25 0 00-.332.114.25.25 0 00.114.332zm.518-1.063c.12.059.273.008.333-.114a.252.252 0 00-.114-.332.25.25 0 00-.333.114.25.25 0 00.114.332z" fill="#000"/><path d="M14.484 30.11s1.377 1.186 6.528 1.186 6.668-1.087 6.668-1.087v.986s-1.517 1.086-6.668 1.086-6.528-1.186-6.528-1.186v-.985z" stroke="#000" stroke-width=".257" stroke-miterlimit="3.864"/><path d="M31.903 32.17a.579.579 0 111.158 0 .579.579 0 01-1.158 0zm-2.942 2.354a.58.58 0 111.158.002.58.58 0 01-1.158-.002z" stroke="#000" stroke-width=".257" stroke-miterlimit="3.864" stroke-linecap="round"/><path d="M20.082 20.444a.208.208 0 11.417 0 .208.208 0 01-.417 0zM20.414 20.757a.208.208 0 11.417 0 .208.208 0 01-.417 0zM20.746 21.07a.208.208 0 11.417 0 .208.208 0 01-.417 0zM21.012 21.466a.208.208 0 11.416 0 .208.208 0 01-.416 0zM21.129 21.944a.208.208 0 11.417 0 .208.208 0 01-.417 0z" fill="#000"/><path d="M21.168 22.381a.209.209 0 11.416 0 .209.209 0 01-.416 0zM21.098 22.88a.208.208 0 11.416 0 .208.208 0 01-.416 0zM21.027 23.38a.208.208 0 11.417 0 .208.208 0 01-.417 0z" fill="#000"/><path d="M21.418 23.13a.208.208 0 11.417 0 .208.208 0 01-.417 0zM21.684 22.754a.208.208 0 11.417 0 .208.208 0 01-.417 0zM21.93 22.318a.208.208 0 11.416-.001.208.208 0 01-.416 0zM22.172 21.88a.208.208 0 11.417 0 .208.208 0 01-.417 0zM22.293 21.402a.208.208 0 11.417 0 .208.208 0 01-.417 0z" fill="#000"/><path d="M22.328 20.965a.208.208 0 11.417 0 .208.208 0 01-.417 0zM22.258 20.466a.209.209 0 11.417 0 .209.209 0 01-.417 0z" fill="#000"/><path d="M11.035 15.45h3.36v1.148h-3.36V15.45z" stroke="#000" stroke-width=".257" stroke-miterlimit="3.864"/><path d="M15.377 17.885c-.015 2.136.059 3.25.248 5.47.238 2.801.433 3.645.926 5.934m-1.509-11.903c-.067 3.596.067 5.82.1 8.51.036 2.81.102 2.62.37 3.528M26.37 22.76c-.19 3.477-.844 6.303-1.28 6.616m2.029-6.807c-.19 3.478-.354 6.146-.762 7.06" stroke="#000" stroke-width=".257" stroke-miterlimit="3.864" stroke-linecap="round" stroke-linejoin="round"/><path d="M11.205 34.33a.579.579 0 111.158 0 .579.579 0 01-1.158 0zm-2.69-2.245a.58.58 0 111.159 0 .58.58 0 01-1.158 0z" stroke="#000" stroke-width=".257" stroke-miterlimit="3.864" stroke-linecap="round"/><path d="M20.892 16.49l-.875.446c-.127.513-.19.804-.29 1.323-.062.324-.308.547-.145.834.076.135.15.207.29.272.173.08.307.073.49.018.142-.043.232-.083.326-.2.134-.167.085-.328.09-.543.009-.377-.428-.742-.217-.943.374-.356.47-.73.331-1.207z" stroke="#000" stroke-width=".257" stroke-miterlimit="1"/><path d="M22.995 17.426c.021.46.376.56.376.938 0 .395.034.363-.063.561a.693.693 0 01-.292.333.676.676 0 01-.645.063M20.561 19.237c.045.174.054.28.04.458a1.21 1.21 0 01-.144.521m1.776-.826a2 2 0 01-.049.742 1.97 1.97 0 01-.188.52" stroke="#000" stroke-width=".257" stroke-miterlimit="3.864"/><path d="M21.015 16.528a4.41 4.41 0 011.055-.093c.35.006.549.026.893.093.06.248.07.399.046.654a1.721 1.721 0 01-.035.226c.062.29.06.471-.011.759-.063.254-.161.377-.285.608-.09.168-.145.26-.248.42a.54.54 0 01-.222.216.57.57 0 01-.608 0c-.39-.19-.69-.675-.89-1.015" stroke="#000" stroke-width=".257" stroke-miterlimit="3.864"/><path d="M21.215 17.154l.761-.019-.074.259-.58.077-.107-.317zM22.936 17.117l-.569-.012.061.248.417.09.09-.326z" fill="#000"/><path d="M22.284 17.19v.562l.09.235-.108.109.18.054.02-.779-.037-.181h-.145zM22.518 18.513h-.725l.109.145.18.09.4.019.036-.254z" fill="#000"/><path d="M19.707 16.262l-.895-.895a.926.926 0 01.79-.312c.342.018.57.14.77.416l.438-.271a1.022 1.022 0 01-.042-.52c.043-.298.354-.687.354-.687.021 0 .471.157.645.396.145.199.194.357.187.603l.563.063a.8.8 0 01.374-.625.836.836 0 01.979-.02c-.234.285-.351.462-.52.79-.103.197-.14.318-.23.52m-3.121 1.145c.395-.22.641-.314 1.082-.417.72-.167 1.174-.167 1.893 0l.125-.624c-.755-.232-1.257-.247-2.025-.062a3.314 3.314 0 00-1.263.562l.188.54z" stroke="#000" stroke-width=".257" stroke-miterlimit="3.864"/><path d="M20.761 13.54c-.666-1.915-1.078-3.61.252-3.667 1.696-.073 1.442 1.391.655 3.68m.495.242c.484-1.794.712-3.662 2-3.155 1.232.484 1.096 1.484-.736 3.067m.413 1.991c1.984-.654 3.334-1.45 3.709-.492m-3.478-1.402c.67-.917 1.978-2.087 2.587-.864.73 1.467-.976 1.622-2.482 2.058m-3.79-1.25c-.654-1.747-1.248-3.622-2.174-3.216-1.245.546-.823 1.426 1.425 3.675m-1.457 1.207c-1.94-.7-2.96-1.403-3.446-.325m4.445-.716c-.707-.809-2.867-3.341-3.545-1.64-.59 1.482 1.232 1.567 2.67 2.098" stroke="#000" stroke-width=".257" stroke-miterlimit="3.864" stroke-linecap="round" stroke-linejoin="round"/><path d="M18.503 34.58c-1.069-.665-2.093-.944-2.938-1.737-.37-.349-.459-.793-.282-1.098" stroke="#000" stroke-width=".257" stroke-miterlimit="3.864"/><path d="M20.161 34.76c-.79-.537-1.252-.717-1.429-1.432-.09-.37-.025-.69.254-.944m1.763 2.093c-.485-.613-.638-.615-.716-1.15-.048-.33.103-.69.36-.84m-.922 2.195c-1.124-.536-1.506-.527-2.222-1.483-.305-.408-.28-.587-.128-.995m3.977 2.273c.484-.613.637-.615.716-1.15.048-.33-.103-.69-.36-.84m.017 2.288c.893-.411 1.554-.835 1.73-1.55.092-.37.075-.562-.205-.816m-.62 2.273c1.123-.536 1.694-.6 2.409-1.557.305-.407.418-.562.077-.896m-1.517 2.35c1.07-.664 1.976-.712 2.82-1.505.372-.349.203-.87.026-1.176" stroke="#000" stroke-width=".257" stroke-miterlimit="3.864" stroke-linecap="round" stroke-linejoin="round"/><path d="M11.883 33.385a.23.23 0 11.46 0 .23.23 0 01-.46 0zM12.414 34.019a.23.23 0 11.46 0 .23.23 0 01-.46 0zM12.246 34.995a.23.23 0 11.46 0 .23.23 0 01-.46 0zM11.23 35.273a.23.23 0 11.46 0 .23.23 0 01-.46 0zM10.672 34.563a.23.23 0 11.46 0 .23.23 0 01-.46 0zM10.914 33.648a.23.23 0 11.46 0 .23.23 0 01-.46 0zM9.195 31.14a.23.23 0 11.46 0 .23.23 0 01-.46 0zM9.727 31.773a.23.23 0 11.46 0 .23.23 0 01-.46 0zM9.559 32.75a.23.23 0 11.46 0 .23.23 0 01-.46 0zM8.54 33.027a.23.23 0 11.458 0 .23.23 0 01-.459 0zM7.98 32.318a.23.23 0 11.46 0 .23.23 0 01-.46 0zM8.227 31.403a.23.23 0 11.459 0 .23.23 0 01-.46 0zM29.64 33.58a.23.23 0 11.46-.001.23.23 0 01-.46 0zM30.172 34.213a.23.23 0 11.459 0 .23.23 0 01-.46 0zM30.004 35.19a.23.23 0 11.46 0 .23.23 0 01-.46 0zM28.984 35.467a.23.23 0 11.46 0 .23.23 0 01-.46 0zM28.426 34.758a.23.23 0 11.46 0 .23.23 0 01-.46 0zM28.672 33.843a.23.23 0 11.459 0 .23.23 0 01-.46 0zM14.824 5.212a.23.23 0 11.46 0 .23.23 0 01-.46 0zM15.355 5.845a.23.23 0 11.46 0 .23.23 0 01-.46 0zM15.188 6.821a.23.23 0 11.459 0 .23.23 0 01-.46 0zM14.168 7.099a.23.23 0 11.459 0 .23.23 0 01-.459 0zM13.61 6.39a.23.23 0 11.458 0 .23.23 0 01-.459 0zM13.855 5.475a.23.23 0 11.46 0 .23.23 0 01-.46 0z" fill="#000"/><path d="M27.077 5.565l.157-.52c-.093-.05-.297-.169-.519-.245-.482-.166-.828-.056-.95.302-.092.264.015.48.17.676.237.3.582.553.47.877-.069.202-.285.302-.572.203-.434-.15-.404-.484-.385-.666l-.096-.033-.168.553c.102.068.296.202.558.292.502.173.922.125 1.083-.341.078-.226.012-.411-.107-.593-.182-.277-.692-.623-.58-.947.06-.172.255-.256.523-.164.35.12.356.385.32.573l.096.033z" fill="#000" stroke="#000" stroke-width=".257" stroke-miterlimit="3.864"/><path d="M32.214 8.81l.333-.43c-.069-.081-.216-.264-.396-.415-.391-.328-.753-.349-.996-.059-.18.214-.157.453-.084.693.114.365.346.724.125.987-.137.164-.374.18-.607-.016-.35-.295-.203-.596-.12-.76l-.079-.065-.355.456c.071.1.204.295.416.473.407.342.817.447 1.134.07.153-.183.158-.38.112-.592-.07-.324-.422-.83-.201-1.092.117-.14.33-.148.546.034.285.238.194.487.094.65l.078.065z" fill="#000"/><path d="M32.214 8.81l.333-.43c-.069-.081-.216-.264-.396-.415-.391-.328-.753-.349-.996-.059-.18.214-.157.453-.084.693.114.365.346.724.125.987-.137.164-.374.18-.607-.016-.35-.295-.203-.596-.12-.76l-.079-.065-.355.456c.071.1.204.295.416.473.407.342.817.447 1.134.07.153-.183.158-.38.112-.592-.07-.324-.422-.83-.201-1.092.117-.14.33-.148.546.034.285.238.194.487.094.65l.078.065z" stroke="#000" stroke-width=".257" stroke-miterlimit="3.864"/><path fill-rule="evenodd" clip-rule="evenodd" d="M31.57 10.591l.55.654.066-.056c-.12-.142-.145-.221-.062-.291a.353.353 0 01.123-.061l.358-.128.583.694-.2.35a.34.34 0 01-.081.105c-.083.07-.175-.018-.262-.123l-.068.057.641.764.068-.056c-.158-.188-.161-.29-.026-.532l1.014-1.782-.184-.22-1.89.668c-.292.103-.407.086-.563-.1l-.067.057zm2.263-.314l-.56.977-.506-.603 1.066-.374z" fill="#000"/><path d="M31.57 10.591l.55.654.066-.056c-.12-.142-.145-.221-.062-.291a.353.353 0 01.123-.061l.358-.128.583.694-.2.35a.34.34 0 01-.081.105c-.083.07-.175-.018-.262-.123l-.068.057.641.764.068-.056c-.158-.188-.161-.29-.026-.532l1.014-1.782-.184-.22-1.89.668c-.292.103-.407.086-.563-.1l-.067.057zm2.263-.314l-.56.977-.506-.603 1.066-.374z" stroke="#000" stroke-width=".257" stroke-miterlimit="3.864"/><path fill-rule="evenodd" clip-rule="evenodd" d="M33.484 12.976l.475.856.077-.042c-.12-.214-.098-.286.14-.418l.542-.3.063.113c.209.376.507.843 1.052.541.423-.234.386-.626.17-1.014l-.48-.866-.076.042c.119.214.098.286-.14.418l-1.317.73c-.239.132-.31.112-.429-.103l-.077.043zm2.01-.333c.183-.102.233-.098.323.064.146.263.184.47-.177.67-.417.23-.578-.016-.721-.276l-.06-.107.634-.351z" fill="#000"/><path d="M33.484 12.976l.475.856.077-.042c-.12-.214-.098-.286.14-.418l.542-.3.063.113c.209.376.507.843 1.052.541.423-.234.386-.626.17-1.014l-.48-.866-.076.042c.119.214.098.286-.14.418l-1.317.73c-.239.132-.31.112-.429-.103l-.077.043zm2.01-.333c.183-.102.233-.098.323.064.146.263.184.47-.177.67-.417.23-.578-.016-.721-.276l-.06-.107.634-.351z" stroke="#000" stroke-width=".257" stroke-miterlimit="3.864"/><path d="M34.598 15.092l.367.908.08-.033c-.091-.227-.062-.295.191-.397l1.396-.564c.253-.102.321-.073.413.154l.081-.033-.367-.908-.08.033c.092.23.062.295-.192.397l-1.395.564c-.253.102-.32.077-.413-.154l-.081.033z" fill="#000"/><path d="M34.598 15.092l.367.908.08-.033c-.091-.227-.062-.295.191-.397l1.396-.564c.253-.102.321-.073.413.154l.081-.033-.367-.908-.08.033c.092.23.062.295-.192.397l-1.395.564c-.253.102-.32.077-.413-.154l-.081.033z" stroke="#000" stroke-width=".257" stroke-miterlimit="3.864"/><path d="M35.168 16.524l.412 1.653.497-.102-.024-.099c-.217.043-.363-.021-.435-.313l-.078-.312c-.044-.177-.034-.208.194-.265l.702-.175.111.445c.055.22-.008.272-.211.323l.023.091.703-.175-.023-.092c-.224.056-.28.034-.336-.186l-.11-.445.6-.15c.191-.047.255-.024.296.143l.054.217c.095.38-.047.462-.227.521l.024.099.488-.143-.398-1.599-.085.021c.06.238.02.301-.244.368l-1.46.364c-.266.066-.33.027-.389-.21l-.084.021z" fill="#000"/><path d="M35.168 16.524l.412 1.653.497-.102-.024-.099c-.217.043-.363-.021-.435-.313l-.078-.312c-.044-.177-.034-.208.194-.265l.702-.175.111.445c.055.22-.008.272-.211.323l.023.091.703-.175-.023-.092c-.224.056-.28.034-.336-.186l-.11-.445.6-.15c.191-.047.255-.024.296.143l.054.217c.095.38-.047.462-.227.521l.024.099.488-.143-.398-1.599-.085.021c.06.238.02.301-.244.368l-1.46.364c-.266.066-.33.027-.389-.21l-.084.021z" stroke="#000" stroke-width=".257" stroke-miterlimit="3.864"/><path fill-rule="evenodd" clip-rule="evenodd" d="M35.734 18.856l.057.813.087-.006c-.017-.247.032-.3.304-.32l1.561-.108v.007l-1.892 1.286.023.332 1.914-.134c.272-.019.327.022.345.274l.087-.006-.057-.814-.087.007c.017.244-.032.3-.304.319l-1.463.102v-.007l1.798-1.223-.047-.684-.088.007c.018.244-.031.3-.303.318l-1.502.105c-.272.02-.328-.03-.346-.274l-.087.006z" fill="#000"/><path d="M35.734 18.856l.057.813.087-.006c-.017-.247.032-.3.304-.32l1.561-.108v.007l-1.892 1.286.023.332 1.914-.134c.272-.019.327.022.345.274l.087-.006-.057-.814-.087.007c.017.244-.032.3-.304.319l-1.463.102v-.007l1.798-1.223-.047-.684-.088.007c.018.244-.031.3-.303.318l-1.502.105c-.272.02-.328-.03-.346-.274l-.087.006z" stroke="#000" stroke-width=".257" stroke-miterlimit="3.864"/><path d="M35.848 22.032l-.086.976.087.008c.022-.244.078-.292.35-.268l1.75.153-.01.132c-.033.366-.162.435-.423.448l-.009.1.542.03.156-1.773-.539-.068-.01.1c.252.061.372.146.34.511l-.013.136-1.75-.153c-.272-.024-.32-.08-.298-.325l-.087-.007z" fill="#000"/><path d="M35.848 22.032l-.086.976.087.008c.022-.244.078-.292.35-.268l1.75.153-.01.132c-.033.366-.162.435-.423.448l-.009.1.542.03.156-1.773-.539-.068-.01.1c.252.061.372.146.34.511l-.013.136-1.75-.153c-.272-.024-.32-.08-.298-.325l-.087-.007z" stroke="#000" stroke-width=".257" stroke-miterlimit="3.864"/><path d="M35.618 23.908l-.204.958.085.018c.051-.24.114-.28.381-.223l1.472.313c.267.057.308.12.257.359l.085.018.204-.958-.085-.018c-.052.243-.114.28-.38.223l-1.473-.313c-.267-.056-.308-.116-.257-.358l-.085-.019z" fill="#000"/><path d="M35.618 23.908l-.204.958.085.018c.051-.24.114-.28.381-.223l1.472.313c.267.057.308.12.257.359l.085.018.204-.958-.085-.018c-.052.243-.114.28-.38.223l-1.473-.313c-.267-.056-.308-.116-.257-.358l-.085-.019z" stroke="#000" stroke-width=".257" stroke-miterlimit="3.864"/><path fill-rule="evenodd" clip-rule="evenodd" d="M35.322 25.332l-.306.797.082.031c.066-.173.123-.234.224-.195.043.017.08.046.113.078l.286.252-.325.845-.403-.004a.342.342 0 01-.131-.02c-.101-.04-.07-.162-.02-.29l-.082-.03-.358.93.082.031c.088-.228.175-.281.452-.28l2.05.023.103-.268-1.5-1.329c-.232-.205-.272-.314-.186-.54l-.081-.031zm1.372 1.827l-1.126-.016.282-.735.844.751z" fill="#000"/><path d="M35.322 25.332l-.306.797.082.031c.066-.173.123-.234.224-.195.043.017.08.046.113.078l.286.252-.325.845-.403-.004a.342.342 0 01-.131-.02c-.101-.04-.07-.162-.02-.29l-.082-.03-.358.93.082.031c.088-.228.175-.281.452-.28l2.05.023.103-.268-1.5-1.329c-.232-.205-.272-.314-.186-.54l-.081-.031zm1.372 1.827l-1.126-.016.282-.735.844.751z" stroke="#000" stroke-width=".257" stroke-miterlimit="3.864"/><path d="M34.155 28.15l-.878 1.46.424.28.053-.087c-.184-.123-.241-.271-.087-.53l.166-.275c.094-.156.124-.171.324-.05l.621.373-.236.393c-.117.195-.198.187-.378.079l-.048.081.62.373.05-.08c-.199-.12-.223-.175-.106-.37l.237-.393.53.32c.168.1.196.162.108.31l-.115.19c-.202.337-.36.295-.53.21l-.052.086.446.244.849-1.413-.075-.044c-.126.209-.198.228-.432.086l-1.29-.775c-.234-.14-.253-.212-.126-.422l-.075-.045z" fill="#000"/><path d="M34.155 28.15l-.878 1.46.424.28.053-.087c-.184-.123-.241-.271-.087-.53l.166-.275c.094-.156.124-.171.324-.05l.621.373-.236.393c-.117.195-.198.187-.378.079l-.048.081.62.373.05-.08c-.199-.12-.223-.175-.106-.37l.237-.393.53.32c.168.1.196.162.108.31l-.115.19c-.202.337-.36.295-.53.21l-.052.086.446.244.849-1.413-.075-.044c-.126.209-.198.228-.432.086l-1.29-.775c-.234-.14-.253-.212-.126-.422l-.075-.045z" stroke="#000" stroke-width=".257" stroke-miterlimit="3.864"/><path d="M26.399 37.002l.223.495c.103-.023.335-.068.552-.155.474-.192.661-.502.52-.852-.105-.26-.327-.352-.573-.399-.375-.071-.802-.034-.93-.352-.08-.199.017-.415.3-.53.424-.17.62.1.726.25l.095-.038-.236-.527c-.122.015-.357.042-.613.146-.493.199-.778.51-.594.968.09.22.26.317.47.377.319.09.93.016 1.059.334.068.169-.024.36-.287.467-.344.139-.521-.058-.618-.222l-.094.038z" fill="#000"/><path d="M26.399 37.002l.223.495c.103-.023.335-.068.552-.155.474-.192.661-.502.52-.852-.105-.26-.327-.352-.573-.399-.375-.071-.802-.034-.93-.352-.08-.199.017-.415.3-.53.424-.17.62.1.726.25l.095-.038-.236-.527c-.122.015-.357.042-.613.146-.493.199-.778.51-.594.968.09.22.26.317.47.377.319.09.93.016 1.059.334.068.169-.024.36-.287.467-.344.139-.521-.058-.618-.222l-.094.038z" stroke="#000" stroke-width=".257" stroke-miterlimit="3.864"/><path d="M24.466 35.73l-.958.203.018.085c.24-.05.302-.01.359.257l.365 1.718-.13.028c-.36.076-.464-.026-.552-.273l-.1.02.13.528 1.743-.37-.092-.535-.1.021c.016.258-.03.396-.39.473l-.133.028-.365-1.718c-.057-.267-.016-.33.224-.38l-.018-.086z" fill="#000"/><path d="M24.466 35.73l-.958.203.018.085c.24-.05.302-.01.359.257l.365 1.718-.13.028c-.36.076-.464-.026-.552-.273l-.1.02.13.528 1.743-.37-.092-.535-.1.021c.016.258-.03.396-.39.473l-.133.028-.365-1.718c-.057-.267-.016-.33.224-.38l-.018-.086z" stroke="#000" stroke-width=".257" stroke-miterlimit="3.864"/><path d="M20.575 38.088c.01.272-.041.327-.286.335l.003.088.85-.03-.003-.088c-.245.01-.3-.042-.309-.314l-.04-1.169c-.015-.437.104-.627.52-.641.437-.016.51.255.522.605l.04 1.168c.01.273-.04.327-.285.336l.003.088.979-.035-.003-.087c-.245.009-.3-.042-.309-.315l-.04-1.168c-.018-.511-.258-.776-.867-.755-.72.025-.829.418-.815.813l.04 1.169z" fill="#000"/><path d="M20.575 38.088c.01.272-.041.327-.286.335l.003.088.85-.03-.003-.088c-.245.01-.3-.042-.309-.314l-.04-1.169c-.015-.437.104-.627.52-.641.437-.016.51.255.522.605l.04 1.168c.01.273-.04.327-.285.336l.003.088.979-.035-.003-.087c-.245.009-.3-.042-.309-.315l-.04-1.168c-.018-.511-.258-.776-.867-.755-.72.025-.829.418-.815.813l.04 1.169z" stroke="#000" stroke-width=".257" stroke-miterlimit="3.864"/><path fill-rule="evenodd" clip-rule="evenodd" d="M19.544 36.126l-.896-.141c-.666-.106-1.155-.02-1.313.978-.153.965.292 1.22.948 1.324l.895.142.014-.087c-.245-.04-.285-.099-.242-.368l.235-1.486c.043-.27.1-.314.345-.275l.014-.087zm-.975 1.788c-.034.214-.077.243-.26.214-.65-.103-.667-.464-.566-1.1.11-.691.286-.978.88-.884.211.033.21.11.182.283l-.236 1.487z" fill="#000"/><path d="M19.544 36.126l-.896-.141c-.666-.106-1.155-.02-1.313.978-.153.965.292 1.22.948 1.324l.895.142.014-.087c-.245-.04-.285-.099-.242-.368l.235-1.486c.043-.27.1-.314.345-.275l.014-.087zm-.975 1.788c-.034.214-.077.243-.26.214-.65-.103-.667-.464-.566-1.1.11-.691.286-.978.88-.884.211.033.21.11.182.283l-.236 1.487z" stroke="#000" stroke-width=".257" stroke-miterlimit="3.864"/><path d="M16.697 35.569l-.926-.319-.029.083c.232.08.264.147.176.404l-.49 1.424c-.09.258-.156.29-.388.21l-.028.083.926.319.028-.083c-.234-.08-.264-.146-.175-.404l.49-1.424c.09-.258.153-.291.388-.21l.028-.083z" fill="#000"/><path d="M16.697 35.569l-.926-.319-.029.083c.232.08.264.147.176.404l-.49 1.424c-.09.258-.156.29-.388.21l-.028.083.926.319.028-.083c-.234-.08-.264-.146-.175-.404l.49-1.424c.09-.258.153-.291.388-.21l.028-.083z" stroke="#000" stroke-width=".257" stroke-miterlimit="3.864"/><path d="M15.136 35.01l-.894-.398-.036.08c.224.1.25.169.14.418l-.614 1.375c-.11.25-.18.276-.404.176l-.035.08.895.398.035-.08c-.227-.1-.25-.168-.14-.417l.614-1.376c.11-.249.177-.277.404-.176l.035-.08z" fill="#000"/><path d="M15.136 35.01l-.894-.398-.036.08c.224.1.25.169.14.418l-.614 1.375c-.11.25-.18.276-.404.176l-.035.08.895.398.035-.08c-.227-.1-.25-.168-.14-.417l.614-1.376c.11-.249.177-.277.404-.176l.035-.08z" stroke="#000" stroke-width=".257" stroke-miterlimit="3.864"/><path fill-rule="evenodd" clip-rule="evenodd" d="M8.146 29.06l-.157-.262-2.054.38c-.241.048-.322.023-.446-.184l-.075.045.449.747.075-.046c-.11-.182-.115-.265-.037-.312a.557.557 0 01.17-.05l1.582-.296.003.005-1.018 1.229a.556.556 0 01-.128.126c-.087.052-.153-.003-.239-.146l-.075.044.512.852.075-.045c-.136-.225-.109-.29.082-.523l1.28-1.565z" fill="#000"/><path d="M8.146 29.06l-.157-.262-2.054.38c-.241.048-.322.023-.446-.184l-.075.045.449.747.075-.046c-.11-.182-.115-.265-.037-.312a.557.557 0 01.17-.05l1.582-.296.003.005-1.018 1.229a.556.556 0 01-.128.126c-.087.052-.153-.003-.239-.146l-.075.044.512.852.075-.045c-.136-.225-.109-.29.082-.523l1.28-1.565z" stroke="#000" stroke-width=".257" stroke-miterlimit="3.864"/><path d="M7.204 27.263l-.366-.908-.081.033c.09.227.062.295-.191.397l-1.396.564c-.253.102-.321.074-.413-.154l-.081.034.367.908.08-.033c-.092-.23-.062-.296.191-.398l1.396-.563c.253-.103.32-.077.413.153l.081-.033z" fill="#000"/><path d="M7.204 27.263l-.366-.908-.081.033c.09.227.062.295-.191.397l-1.396.564c-.253.102-.321.074-.413-.154l-.081.034.367.908.08-.033c-.092-.23-.062-.296.191-.398l1.396-.563c.253-.103.32-.077.413.153l.081-.033z" stroke="#000" stroke-width=".257" stroke-miterlimit="3.864"/><path d="M6.598 25.697l-.412-1.652-.497.102.024.098c.217-.043.363.022.435.314l.078.312c.044.176.034.208-.194.264l-.703.176-.11-.445c-.055-.22.007-.272.211-.323l-.023-.092-.703.175.023.092c.224-.056.28-.034.335.187l.111.445-.601.15c-.19.047-.254.023-.295-.143l-.055-.217c-.094-.381.048-.463.228-.522l-.025-.098-.487.143.398 1.598.085-.021c-.06-.238-.021-.301.244-.367l1.46-.364c.265-.066.33-.028.388.21l.085-.022z" fill="#000"/><path d="M6.598 25.697l-.412-1.652-.497.102.024.098c.217-.043.363.022.435.314l.078.312c.044.176.034.208-.194.264l-.703.176-.11-.445c-.055-.22.007-.272.211-.323l-.023-.092-.703.175.023.092c.224-.056.28-.034.335.187l.111.445-.601.15c-.19.047-.254.023-.295-.143l-.055-.217c-.094-.381.048-.463.228-.522l-.025-.098-.487.143.398 1.598.085-.021c-.06-.238-.021-.301.244-.367l1.46-.364c.265-.066.33-.028.388.21l.085-.022z" stroke="#000" stroke-width=".257" stroke-miterlimit="3.864"/><path fill-rule="evenodd" clip-rule="evenodd" d="M6.007 23.2l-.043-.814-.087.004c.013.249-.037.3-.31.314l-1.562.082v-.006l1.915-1.253-.018-.332-1.915.1c-.273.015-.328-.028-.34-.28l-.088.005.042.814.088-.005c-.013-.244.036-.3.31-.313l1.464-.077v.007l-1.82 1.192.036.684.087-.004c-.013-.245.037-.3.31-.314l1.503-.079c.273-.014.328.035.34.28l.088-.005z" fill="#000"/><path d="M6.007 23.2l-.043-.814-.087.004c.013.249-.037.3-.31.314l-1.562.082v-.006l1.915-1.253-.018-.332-1.915.1c-.273.015-.328-.028-.34-.28l-.088.005.042.814.088-.005c-.013-.244.036-.3.31-.313l1.464-.077v.007l-1.82 1.192.036.684.087-.004c-.013-.245.037-.3.31-.314l1.503-.079c.273-.014.328.035.34.28l.088-.005z" stroke="#000" stroke-width=".257" stroke-miterlimit="3.864"/><path d="M5.899 20.242l.113-.806-.086-.013c-.035.246-.094.287-.364.25l-1.55-.218.002-.007 2.118-.865.046-.329-1.9-.267c-.27-.038-.315-.09-.28-.34l-.087-.012-.113.807.086.013c.035-.243.094-.287.364-.25l1.452.205v.007l-2.015.822-.095.68.086.011c.035-.242.094-.287.364-.249l1.49.21c.271.038.316.097.282.34l.087.011z" fill="#000"/><path d="M5.899 20.242l.113-.806-.086-.013c-.035.246-.094.287-.364.25l-1.55-.218.002-.007 2.118-.865.046-.329-1.9-.267c-.27-.038-.315-.09-.28-.34l-.087-.012-.113.807.086.013c.035-.243.094-.287.364-.25l1.452.205v.007l-2.015.822-.095.68.086.011c.035-.242.094-.287.364-.249l1.49.21c.271.038.316.097.282.34l.087.011z" stroke="#000" stroke-width=".257" stroke-miterlimit="3.864"/><path d="M6.4 17.322l.527-1.62-.476-.177-.032.096c.207.079.296.21.204.497l-.1.306c-.056.173-.082.194-.305.122l-.689-.224.142-.436c.07-.216.151-.227.35-.162l.03-.09-.689-.224-.029.09c.22.071.255.12.185.336l-.142.436-.589-.191c-.186-.061-.228-.115-.174-.278l.069-.213c.12-.373.285-.367.469-.322l.031-.097-.489-.136-.51 1.567.084.027c.075-.233.142-.267.401-.183l1.432.466c.26.084.293.15.217.383l.083.027z" fill="#000"/><path d="M6.4 17.322l.527-1.62-.476-.177-.032.096c.207.079.296.21.204.497l-.1.306c-.056.173-.082.194-.305.122l-.689-.224.142-.436c.07-.216.151-.227.35-.162l.03-.09-.689-.224-.029.09c.22.071.255.12.185.336l-.142.436-.589-.191c-.186-.061-.228-.115-.174-.278l.069-.213c.12-.373.285-.367.469-.322l.031-.097-.489-.136-.51 1.567.084.027c.075-.233.142-.267.401-.183l1.432.466c.26.084.293.15.217.383l.083.027z" stroke="#000" stroke-width=".257" stroke-miterlimit="3.864"/><path d="M7.238 14.909l.395-.713-.076-.043c-.12.217-.19.235-.43.103l-1.368-.759.004-.006 2.288-.048.161-.29-1.678-.93c-.239-.133-.262-.198-.14-.418l-.077-.043-.395.713.077.042c.118-.213.19-.234.429-.102l1.282.711-.003.007-2.175.046-.333.6.077.042c.119-.214.19-.235.429-.102l1.316.73c.239.132.26.203.14.417l.077.043z" fill="#000"/><path d="M7.238 14.909l.395-.713-.076-.043c-.12.217-.19.235-.43.103l-1.368-.759.004-.006 2.288-.048.161-.29-1.678-.93c-.239-.133-.262-.198-.14-.418l-.077-.043-.395.713.077.042c.118-.213.19-.234.429-.102l1.282.711-.003.007-2.175.046-.333.6.077.042c.119-.214.19-.235.429-.102l1.316.73c.239.132.26.203.14.417l.077.043z" stroke="#000" stroke-width=".257" stroke-miterlimit="3.864"/><path d="M8.388 10.009l-.435-.325c-.08.07-.26.221-.408.403-.321.397-.335.76-.042.997.218.177.456.149.694.072.363-.12.72-.36.986-.143.166.134.185.37-.006.607-.289.357-.592.214-.757.135l-.064.078.462.347c.1-.072.291-.21.465-.424.335-.413.433-.824.05-1.135-.185-.15-.382-.152-.593-.102-.323.076-.823.437-1.09.221-.14-.114-.153-.327.026-.547.233-.288.483-.203.648-.105l.064-.079z" fill="#000"/><path d="M8.388 10.009l-.435-.325c-.08.07-.26.221-.408.403-.321.397-.335.76-.042.997.218.177.456.149.694.072.363-.12.72-.36.986-.143.166.134.185.37-.006.607-.289.357-.592.214-.757.135l-.064.078.462.347c.1-.072.291-.21.465-.424.335-.413.433-.824.05-1.135-.185-.15-.382-.152-.593-.102-.323.076-.823.437-1.09.221-.14-.114-.153-.327.026-.547.233-.288.483-.203.648-.105l.064-.079z" stroke="#000" stroke-width=".257" stroke-miterlimit="3.864"/><path d="M10.427 10.436l.728-.656-.059-.064c-.182.163-.256.16-.438-.044L9.65 8.554c-.183-.203-.18-.277.003-.44l-.059-.066-.728.656.058.065c.185-.167.257-.16.44.042l1.006 1.12c.183.202.182.274-.003.44l.059.065z" fill="#000"/><path d="M10.427 10.436l.728-.656-.059-.064c-.182.163-.256.16-.438-.044L9.65 8.554c-.183-.203-.18-.277.003-.44l-.059-.066-.728.656.058.065c.185-.167.257-.16.44.042l1.006 1.12c.183.202.182.274-.003.44l.059.065z" stroke="#000" stroke-width=".257" stroke-miterlimit="3.864"/><path d="M11.973 6.97l-.328-.432c-.096.046-.311.14-.503.275-.419.293-.532.637-.316.947.16.23.398.268.648.26.382-.015.79-.147.986.134.123.175.077.408-.173.582-.375.263-.628.042-.764-.08l-.083.059.348.46c.116-.042.338-.12.564-.279.436-.305.644-.673.361-1.077-.136-.195-.325-.25-.542-.261-.331-.016-.91.193-1.107-.088-.105-.149-.058-.357.174-.52.304-.212.52-.06.652.078l.083-.058z" fill="#000"/><path d="M11.973 6.97l-.328-.432c-.096.046-.311.14-.503.275-.419.293-.532.637-.316.947.16.23.398.268.648.26.382-.015.79-.147.986.134.123.175.077.408-.173.582-.375.263-.628.042-.764-.08l-.083.059.348.46c.116-.042.338-.12.564-.279.436-.305.644-.673.361-1.077-.136-.195-.325-.25-.542-.261-.331-.016-.91.193-1.107-.088-.105-.149-.058-.357.174-.52.304-.212.52-.06.652.078l.083-.058z" stroke="#000" stroke-width=".257" stroke-miterlimit="3.864"/><path d="M29.352 6.39a.23.23 0 11.459 0 .23.23 0 01-.46 0zM29.883 7.024a.23.23 0 11.459 0 .23.23 0 01-.46 0zM29.715 8a.23.23 0 11.459 0 .23.23 0 01-.46 0zM28.7 8.277a.23.23 0 11.459 0 .23.23 0 01-.46 0zM28.14 7.568a.23.23 0 11.46 0 .23.23 0 01-.46 0zM28.383 6.654a.23.23 0 11.46 0 .23.23 0 01-.46 0zM32.582 31.224a.23.23 0 11.46 0 .23.23 0 01-.46 0zM33.113 31.858a.23.23 0 11.46 0 .23.23 0 01-.46 0zM32.945 32.834a.23.23 0 11.46 0 .23.23 0 01-.46 0zM31.93 33.111a.23.23 0 11.46 0 .23.23 0 01-.46 0zM31.371 32.402a.23.23 0 11.46 0 .23.23 0 01-.46 0zM31.613 31.487a.23.23 0 11.46 0 .23.23 0 01-.46 0z" fill="#000"/><path d="M30.003 25.098l-.593 1.028-.594-1.028h1.187zm0-1.644l-.593-1.028-.594 1.028h1.187z" stroke="#000" stroke-width=".257" stroke-miterlimit="3.864" stroke-linecap="round" stroke-linejoin="round"/><path d="M29.412 20.302v1.465m0 4.646v1.72m-.545-3.881a.545.545 0 111.09 0 .545.545 0 01-1.09 0z" stroke="#000" stroke-width=".257" stroke-miterlimit="3.864" stroke-linecap="round"/><path d="M28.184 19.577h2.358m-2.358 9.577h2.358" stroke="#000" stroke-width=".257" stroke-miterlimit="3.864" stroke-linecap="round" stroke-linejoin="round"/><path d="M27.878 15.508h3.36v1.149h-3.36v-1.15zm-.062 2.124h3.36v1.149h-3.36v-1.15zm.38 1.213h2.532V30.06h-2.533V18.845z" stroke="#000" stroke-width=".257" stroke-miterlimit="3.864"/><path d="M28.02 16.861v.528a.429.429 0 00.356-.137.432.432 0 00.137-.39h-.494zm2.949 0v.598a.527.527 0 01-.427-.207.52.52 0 01-.137-.39h.564zm-2.386 0c.001.145.027.234.103.357a.596.596 0 00.252.24.667.667 0 00.274-.275.668.668 0 00.103-.322h-.732zm.87 0c.001.145.027.234.103.357a.598.598 0 00.252.24.59.59 0 00.344-.275.584.584 0 00.103-.322h-.802z" stroke="#000" stroke-width=".257" stroke-miterlimit="3.864" stroke-linecap="round"/><path d="M27.605 30.046h3.572v1.15h-3.572v-1.15z" stroke="#000" stroke-width=".257" stroke-miterlimit="3.864"/><path d="M11.266 16.85v.526a.428.428 0 00.356-.136.432.432 0 00.137-.39h-.493zm2.948 0v.597a.528.528 0 01-.426-.207.52.52 0 01-.137-.39h.563zm-2.385 0a.6.6 0 00.103.356.596.596 0 00.252.24.67.67 0 00.274-.275.661.661 0 00.102-.322h-.73zm.87 0a.601.601 0 00.103.356.599.599 0 00.252.24.594.594 0 00.344-.275.583.583 0 00.103-.322h-.802z" stroke="#000" stroke-width=".257" stroke-miterlimit="3.864" stroke-linecap="round"/><path d="M11.559 29.154h2.358" stroke="#000" stroke-width=".257" stroke-miterlimit="3.864" stroke-linecap="round" stroke-linejoin="round"/><path d="M11.484 18.845h2.533v11.15h-2.533v-11.15zm-.52-1.213h3.361v1.149h-3.36v-1.15z" stroke="#000" stroke-width=".257" stroke-miterlimit="3.864"/><path d="M13.335 24.93l-.593 1.028-.594-1.028h1.187zm0-1.645l-.593-1.027-.594 1.027h1.187z" stroke="#000" stroke-width=".257" stroke-miterlimit="3.864" stroke-linecap="round" stroke-linejoin="round"/><path d="M12.74 20.133V21.6m0 4.646v1.72m-.545-3.882a.545.545 0 111.091 0 .545.545 0 01-1.09 0z" stroke="#000" stroke-width=".257" stroke-miterlimit="3.864" stroke-linecap="round"/><path d="M10.824 30.046h3.571v1.15h-3.57v-1.15z" stroke="#000" stroke-width=".257" stroke-miterlimit="3.864"/><path d="M11.559 19.577h2.358" stroke="#000" stroke-width=".257" stroke-miterlimit="3.864" stroke-linecap="round" stroke-linejoin="round"/><path d="M19.538 8.86a.588.588 0 11-.392-1.007m-.933 1.42a.588.588 0 11-.609-.893m-.526 1.46a.589.589 0 11-.78-.748m-.306 1.467a.589.589 0 11-.92-.569m-.071 1.571a.588.588 0 11-1.017-.364m.25 1.468a.588.588 0 11-1.07-.145m.478 1.326a.59.59 0 01-.728.815.588.588 0 01-.351-.753m10.192-4.985a.59.59 0 001-.44.587.587 0 00-.608-.567m.933 1.502a.588.588 0 10.609-.893m.526 1.541a.588.588 0 10.78-.746m.306 1.466a.588.588 0 10.92-.569m.071 1.57a.588.588 0 101.017-.364m-.25 1.469a.587.587 0 101.07-.145m-.478 1.326a.587.587 0 101.079.061M20.297 8.09c0-.65.342-1.176.765-1.176s.766.527.766 1.177-.343 1.177-.766 1.177-.765-.527-.765-1.177z" stroke="#000" stroke-width=".257" stroke-miterlimit="3.864"/><path d="M20.48 7.016c-4.294.546-8.335 4.16-8.937 8.419l2.305.015a7.304 7.304 0 017.186-5.998m.003 0c3.607 0 6.569 2.552 7.163 5.99l2.302-.007c-.592-4.512-4.25-8.07-8.84-8.34" stroke="#000" stroke-width=".257" stroke-miterlimit="3.864"/><path d="M21.664 21.942h.312m-1.81-1.872l-.937.27-.229.167.396.707.187.874 1.429-.125m1.697.016h.305l.419-.91-.062-.25-.48-.25m-3.162-.27l.395.77.062.416h.604m.77-.145l.583-.063" stroke="#000" stroke-width=".257" stroke-miterlimit="3.864" stroke-linecap="round"/><path d="M21.221 20.898h1.01m-3.258 7.646a8.86 8.86 0 00-.22.697c-.088.316-.178.49-.192.818a1.867 1.867 0 000 .192m1.814-1.572l-.257.818-.042.69m2.83-1.707l.364 1.124-.043.732m-1.06-1.728l.135 1.302v.476M21.136 28.7l.085 1.686m-3.35-2.29a7.42 7.42 0 00-.327 1.095 7.417 7.417 0 00-.192 1.28c.192.064.302.097.497.15.4.107.853.197 1.039.213.32.028 2.474.21 3.997-.128.256-.021.54-.042.86-.064.078-.005.252-.052.242-.128-.049-.37-.025-.505-.07-.825-.057-.399-.077-.632-.214-1.01a3.187 3.187 0 00-.235-.52" stroke="#000" stroke-width=".257" stroke-miterlimit="3.864" stroke-linecap="round" stroke-linejoin="round"/><path d="M23.945 17.306h2.53l.875.462m-2.917.013h2.892v3.787h-2.85m.811 0v-3.787l-.56-.506m1.185 0l.629.445-.005 3.765m-2.552-3.38l.471.508h2.81m-3.281 1.443l.43.534h2.871m-3.276-3.197l.445.377-.008 3.7-.436-.463-.001-3.614z" stroke="#000" stroke-width=".257" stroke-miterlimit="3.864"/><path d="M28.674 7.335a.579.579 0 111.158 0 .579.579 0 01-1.158 0zm-14.53-1.178a.58.58 0 111.159 0 .58.58 0 01-1.159 0z" stroke="#000" stroke-width=".257" stroke-miterlimit="3.864" stroke-linecap="round"/><path d="M17.326 18.337l2.79 7.535m-2.42-7.789l3.099 8.101m-3.313-7.343a.228.228 0 01.137-.196.23.23 0 01.249.02m-.19.6a.207.207 0 01.078-.229.22.22 0 01.308.04m4.667 5.642c.36.46.528.756.74 1.3.29.748.37 1.227.341 2.028h-.989c-.27.113-.43.162-.718.22-.418.085-.666.069-1.092.065a6.651 6.651 0 01-1.433-.15 6.777 6.777 0 01-.562-.135 1.465 1.465 0 01-.932 0 1.437 1.437 0 01-.39-.17c.025-.41.06-.641.156-1.039.072-.3.124-.466.235-.754m.888.733l-.064.476v.412m2.198-2.986l.135.498.043.91m.605-1.36c.268.582.39.93.54 1.552.127.523.174.828.214 1.365m-4.71-6.309l.257.065.413.448-.413-.904-.427.278-.348.654-.086.278.925.305.675.534m-1.557-.712c-.04.159-.074.247-.15.392-.19.365-.527.4-.739.754a1.83 1.83 0 00-.213.476c-.062.204-.105.328-.086.54.02.205.006.378.171.499.107.077.196.1.327.085.17-.103.255-.198.449-.235.718-.135.974-.199 1.493-.348.176-.06.32-.043.37-.299.078-.408-.107-.562-.177-.89l.113-.192m-.07 1.402c.189.126.288.216.433.391.161.196.236.325.326.562a2.37 2.37 0 01-.412.363c-.119.086-.19.13-.32.199a1.911 1.911 0 01-.74.02c-.394-.054-.626-.14-.952-.369a1.839 1.839 0 01-.534-.54m2.048.996a.31.31 0 00.129.284.315.315 0 00.348.043c.306-.113.868-.605.868-.605l-.328-.37m-.497 1.06c.158.283.278.431.519.648.218.195.36.29.626.412l.192.15.285.02m-.435-.583c.134.1.204.168.306.3.102.13.071.283.214.369a.41.41 0 00.455 0m-.52-.775l.215.362.134.392m1.856-5.448a.835.835 0 01.171.625c-.015.18-.083.269-.15.434-.08.2-.131.31-.234.498l-1.102-.128-.75-.021-1.028.106m.199.541l1.188-.065 1.422.129.071-.37m1.963-2.418a.374.374 0 00-.17.263.368.368 0 00.02.235c.14.058.22.087.364.128.206.06.327.083.54.107a.683.683 0 01.263-.32c.235-.166.458 0 .733-.087.132-.04.192-.104.327-.134.165-.036.359.152.434 0a.218.218 0 000-.213m-2.86.711a.892.892 0 01.477-.064c.249.026.352.17.584.263.085.035.226-.007.22.085-.021.32-.233.339-.456.342-.196.003-.239-.225-.433-.256-.143-.023-.26.137-.37.042a.224.224 0 01-.085-.149m-.99-1.43l.428.328.241 1.08m.235.065l-.433.192-.605.74m2.055-.541c-.327.54-.39.711-.583 1.4-.102.37-.263.869-.69 1.274-.124.118-.22.212-.39.199a.372.372 0 01-.194-.064m2.853-3.997l.213-.028m-8.801-3.862a.63.63 0 01.131-.543.65.65 0 01.66-.268.595.595 0 00-.62-.176.57.57 0 00-.367.254 1.137 1.137 0 00-.156-.274 1.135 1.135 0 00-.386-.347.932.932 0 00-.117.445.922.922 0 00.078.445.607.607 0 00-.523 0 .613.613 0 00-.386.424.943.943 0 01.675-.092c.127.024.21.032.312.112a.475.475 0 01.19.293.457.457 0 01.216-.215.457.457 0 01.293-.058z" stroke="#000" stroke-width=".257" stroke-miterlimit="3.864" stroke-linecap="round" stroke-linejoin="round"/><path d="M67.79 5.018c0-.706-.605-1.286-1.285-1.286-.706 0-1.286.58-1.286 1.286 0 .706.58 1.286 1.286 1.286.68 0 1.286-.58 1.286-1.286zM67.513 8.684c-.378.026-.68.076-1.008.076-.353 0-.681-.05-1.009-.076v12.054c.328-.026.656-.076 1.009-.076.328 0 .63.05 1.008.076V8.684zM77.35 14.131l-1.514 3.555c-.1.227-.302.454-.479.706-1.563-3.53-3.05-7.363-3.757-9.708-.428.026-.756.076-1.11.076-.403 0-.781-.05-1.134-.076 1.588 3.506 4.06 9.658 4.942 12.054.252-.026.504-.076.782-.076.227 0 .48.05.756.076 1.261-3.657 3.783-9.204 5.144-12.054-.302.026-.555.076-.806.076-.278 0-.555-.05-.807-.076l-2.017 5.447z" fill="#000"/><path fill-rule="evenodd" clip-rule="evenodd" d="M91.477 18.14c-.68.656-2.017 1.74-3.732 1.74-3.05 0-4.589-2.42-4.362-5.244h3.555c1.69 0 3.404.025 5.12.075.252-4.211-2.32-6.178-5.12-6.178-3.757 0-5.774 2.698-5.774 6.203 0 3.909 2.47 6.203 5.951 6.203 1.538 0 3.101-.605 4.337-1.487l.025-1.312zm-8.094-4.438c.151-2.118 1.185-4.387 3.555-4.387 2.497 0 3.102 2.194 3.152 4.387h-6.707z" fill="#000"/><path d="M93.758 20.738c.327-.026.655-.076 1.008-.076.328 0 .63.05 1.009.076v-6.531c0-1.362.05-2.194.932-3.203.379-.428 1.06-.63 1.614-.63.43 0 .807.302 1.186.403l.353-2.118c-.227-.1-.43-.126-.782-.126-1.26 0-2.345 1.06-3.177 2.37l-.126.303V8.684c-.378.026-.68.076-1.009.076-.353 0-.68-.05-1.008-.076v12.054zM100.404 18.292c-.1.63-.327 1.235-.529 1.84.882.53 2.119.807 3.152.807 2.219 0 4.64-1.286 4.64-3.984 0-4.034-5.951-2.32-5.951-5.547 0-1.362 1.034-2.093 2.294-2.093.933 0 1.816.832 2.144 1.664h.227c.151-.605.353-1.21.605-1.79-.454-.277-1.538-.656-2.849-.656-2.27 0-4.111 1.311-4.111 3.732 0 4.413 5.951 2.194 5.951 5.598 0 1.336-1.235 2.294-2.471 2.294-1.185 0-2.295-.882-2.899-1.866h-.203zM112.259 5.018c0-.706-.605-1.286-1.286-1.286a1.29 1.29 0 00-1.285 1.286 1.29 1.29 0 001.285 1.286c.681 0 1.286-.58 1.286-1.286zM111.982 8.684c-.378.026-.68.076-1.008.076-.353 0-.681-.05-1.009-.076v12.054c.328-.026.656-.076 1.009-.076.328 0 .63.05 1.008.076V8.684zM115.751 6.188v2.497h-1.563c.075.327.075.63 0 .958h1.563v7.337c-.126 3.077.983 3.96 2.9 3.96.731 0 1.437-.202 2.118-.455v-.605c-.378.076-.757.177-1.135.177-2.093 0-1.866-2.547-1.866-4.085v-6.33h2.673c-.076-.251-.076-.604 0-.957h-2.673V5.406l-2.017.782zM134.407 6.188v2.497h-1.563c.075.327.075.63 0 .958h1.563v7.337c-.126 3.077.984 3.96 2.9 3.96.731 0 1.437-.202 2.118-.455v-.605c-.379.076-.756.177-1.134.177-2.094 0-1.867-2.547-1.867-4.085v-6.33h2.673c-.075-.251-.075-.604 0-.957h-2.673V5.406l-2.017.782zM63.993 23.138c-.303.025-.53.075-.782.075-.302 0-.555-.05-.807-.075-.53 1.714-2.572 6.682-3.706 9.38-1.16-2.648-2.572-6.834-3.228-9.38-.252.025-.454.075-.656.075-.227 0-.453-.05-.655-.075-.832 2.647-2.496 7.136-3.53 9.355-1.21-2.926-2.32-6.304-3.203-9.355-.429.025-.756.075-1.11.075-.378 0-.756-.05-1.109-.075 1.362 3.152 2.976 7.489 4.463 12.053.227-.026.454-.076.681-.076.227 0 .429.05.681.076 1.21-3.858 2.597-7.54 3.43-9.153.932 2.32 2.445 6.707 3.101 9.153.227-.026.454-.076.68-.076.203 0 .404.05.681.076 1.564-4.615 4.186-10.314 5.07-12.053zM67.51 23.138c-.379.025-.681.075-1.01.075-.352 0-.68-.05-1.008-.075V35.19c.328-.026.656-.076 1.009-.076.328 0 .63.05 1.009.076V23.138z" fill="#000"/><path fill-rule="evenodd" clip-rule="evenodd" d="M80.02 32.594c-.68.655-2.017 1.74-3.732 1.74-3.05 0-4.589-2.421-4.362-5.245h3.556c1.69 0 3.404.025 5.119.075.252-4.21-2.32-6.178-5.12-6.178-3.756 0-5.774 2.698-5.774 6.203 0 3.909 2.472 6.204 5.951 6.204 1.538 0 3.102-.606 4.337-1.488l.026-1.311zm-8.094-4.438c.152-2.118 1.186-4.387 3.556-4.387 2.496 0 3.102 2.193 3.152 4.387h-6.708z" fill="#000"/><path d="M82.246 35.19c.328-.024.656-.075 1.009-.075.327 0 .63.05 1.008.076v-5.85c0-3.102.656-5.043 3.304-5.043 2.37 0 2.799 1.84 2.799 4.185v6.708c.327-.025.656-.076 1.008-.076.328 0 .63.05 1.009.076v-7.287c0-3.33-1.135-4.918-4.06-4.918-1.79 0-3.177.908-4.06 2.446v-2.294c-.378.025-.68.075-1.008.075-.353 0-.68-.05-1.009-.076v12.054z" fill="#000"/><path fill-rule="evenodd" clip-rule="evenodd" d="M130.753 12.76c0-2.88-1.454-4.283-4.13-4.283-1.505 0-2.883.56-4.106 1.402v1.428h.28c.179-.56 1.173-1.759 3.034-1.759 1.913 0 2.984 1.097 2.984 2.983 0 1.224-.688 1.377-2.703 1.708-2.397.383-4.717.766-4.717 3.672 0 1.887 1.581 3.111 3.391 3.111 1.53 0 2.703-.535 3.774-1.606l.229-.23c.204 1.505 1.301 1.709 2.627 1.48.28-.052.586-.18.765-.256v-.56c-1.505.33-1.429-.18-1.429-1.174l.001-5.915zm-2.04 5.432c0 .178-.51.612-.689.79-.484.485-1.351.97-2.039.97-1.556 0-2.499-.791-2.499-2.398 0-2.32 2.601-2.575 4.334-2.907l.893-.178v3.723z" fill="#000"/><path d="M124.869 5.018c0-.67-.574-1.221-1.221-1.221-.671 0-1.222.55-1.222 1.221 0 .67.551 1.222 1.222 1.222.646 0 1.221-.551 1.221-1.222zM130.568 5.018c0-.67-.575-1.221-1.222-1.221-.67 0-1.221.55-1.221 1.221 0 .67.551 1.222 1.221 1.222.647 0 1.222-.551 1.222-1.222zM54.718 8.684v2.24c.884-1.505 2.26-2.39 4.028-2.39 2.925 0 4.06 1.588 4.06 4.916v7.288c-.379-.026-.681-.076-1.01-.076-.352 0-.68.05-1.008.076V14.03c0-2.345-.428-4.186-2.798-4.186-2.323 0-3.113 1.495-3.272 3.956v6.938c-.395-.026-.69-.075-1.008-.075-.373.002-.69.05-1.009.075l-.032-2.109c-.813 1.5-2.235 2.31-3.977 2.31-2.774 0-4.16-1.437-4.16-4.841V8.684c.327.026.655.076 1.008.076.327 0 .63-.05 1.008-.076v6.809c0 2.647.782 4.21 3.051 4.21 2.228 0 2.924-1.702 3.07-3.321V8.684c.35.025.668.073 1.008.076.351 0 .646-.05 1.01-.076h.031z" fill="#000"/><path d="M10.843 30.458c-2.42-2.358-3.705-5.712-3.705-9.445 0-7.375 6.128-13.723 13.504-13.903m.9.025c7.336.372 13.362 6.45 13.362 13.878 0 3.598-1.482 6.943-3.727 9.41m-1.863 1.72c-1.792 1.403-5.216 2.67-7.9 2.844m-1.15-.05c-2.878-.15-5.207-1.12-7.36-2.76M2.625 21.012c0-10.16 8.236-18.396 18.396-18.396s18.395 8.236 18.395 18.396-8.236 18.395-18.395 18.395c-10.16 0-18.396-8.236-18.396-18.395z" stroke="#000" stroke-width=".257" stroke-miterlimit="3.864"/><path d="M12.152 31.733a.53.53 0 111.058 0 .53.53 0 01-1.058 0zm16.857 0a.53.53 0 111.058 0 .53.53 0 01-1.058 0z" stroke="#000" stroke-width=".257" stroke-miterlimit="3.864" stroke-linecap="round" stroke-linejoin="round"/><path d="M19.818 4.479c.137-.455.72-.686 1.132-.45.251.145.376.343.389.632.015.327-.172.518-.427.723-.17.137-.292.195-.505.24m-2.255-.054c-.975.595-1.32.156-1.335-.36-.014-.476.441-.707.957-.757.969-.094 1.282 1.133 2.551 1.17l.3-.006.275-.005c1.267-.081 1.537-1.317 2.509-1.257.516.031.98.247.983.723.003.515-.327.967-1.322.407" stroke="#000" stroke-width=".257" stroke-miterlimit="3.864" stroke-linecap="round"/><path d="M9.754 16.54s-.508.747-.769 1.26a14.913 14.913 0 00-.493 1.158c.232.267.358.35.493.63.171.357.133.44.092.683m1.135.236l-.768.322m.87.562H9.41m.768.802l-.836-.323m-.323.446a2.055 2.055 0 01-.17.507c-.141.303-.256.465-.494.699.27.368.44.565.767.884.257.25.412.382.699.596m.151-5.126c-.704.325-1.824.823-1.85 1.193-.039.56.953 1.294 1.7 1.789.362-.488.496-.86.527-1.466.031-.609-.065-.993-.377-1.516zM32.327 16.54s.508.747.769 1.26c.222.438.493 1.158.493 1.158-.232.267-.358.35-.493.63-.171.357-.163.47-.122.712m-1.105.207l.767.322m-.87.562h.905m-.768.802l.836-.323m.322.587c.025.267.064.42.171.665.134.306.25.47.494.699-.27.368-.44.566-.768.884-.256.25-.41.382-.698.596m-.151-5.425c.797.09 1.796 1.27 1.97 1.606.181.347-1.173 1.08-1.82 1.376-.362-.488-.496-.86-.527-1.466-.03-.609.065-.993.377-1.516z" stroke="#000" stroke-width=".257" stroke-miterlimit="3.864"/><path d="M14.93 29.867l2.49-.022m6.59.022l2.915-.022m-7.823-5.775l.213-.085m2.162 3.869c0-.109-.004-.17-.02-.278a1.57 1.57 0 00-.278-.718l-.285-.518-.434-.257-.277-.107" stroke="#000" stroke-width=".257" stroke-miterlimit="3.864" stroke-linecap="round" stroke-linejoin="round"/></svg>