<svg width="542" height="157" viewBox="0 0 542 157" xmlns="http://www.w3.org/2000/svg" xmlns:xlink="http://www.w3.org/1999/xlink"><defs><path id="a" d="M299.24 156.94H.06V.28h299.18z"/></defs><g fill="none" fill-rule="evenodd"><mask id="b" fill="#fff"><use xlink:href="#a"/></mask><path d="M197.05 110.3c.58 5.4 2.74 9.7 6.45 12.78 3.7 3.13 8.5 4.7 14.37 4.7 3.9 0 7.4-.83 10.53-2.46 3.12-1.66 5.6-3.94 7.4-6.9h18.85c-3.2 8.18-7.94 14.54-14.3 19.08-6.34 4.52-13.67 6.78-22 6.78-5.6 0-10.75-.98-15.46-2.96-4.7-1.98-9-4.9-12.7-8.78-3.6-3.68-6.3-7.94-8.3-12.8-2-4.83-3-9.8-3-14.9 0-5.24.9-10.15 2.7-14.77 1.8-4.63 4.4-8.78 7.9-12.46 3.8-4 8.1-7.1 13-9.3 4.8-2.2 9.7-3.3 14.9-3.3 6.5 0 12.6 1.5 18.2 4.4 5.6 3 10.4 7.2 14.4 12.5 2.4 3.3 4.2 6.9 5.3 10.9s1.74 8.6 1.74 13.8c0 .4 0 1-.08 1.9-.07.9-.1 1.5-.1 1.9h-60zm41.4-13.87c-1.48-5-4-8.8-7.53-11.43-3.52-2.6-7.97-3.92-13.33-3.92-4.7 0-8.8 1.42-12.5 4.24-3.7 2.82-6.2 6.52-7.5 11.1h40.8zm60.8-14c-6.8.54-11.52 2.33-14.2 5.34-2.68 3-4.03 8.4-4.03 16.23v38.3h-17.47V67.22h16.37v8.67c2.64-3.4 5.52-5.9 8.67-7.5 3.1-1.6 6.6-2.4 10.6-2.4v16.3zM135.2 5.18c-21.16-8.25-97.87-11.3-98 34.47C14.82 53.98 0 77.35 0 102.33 0 132.53 24.48 157 54.68 157s54.68-24.48 54.68-54.67c0-23.34-14.63-43.28-35.2-51.1C70.2 49.7 61.6 47 54.73 47.58c-9.8 6.23-21.75 19.04-27.4 31.8 8.4-10.08 21.53-14.48 33.16-12.6 17.1 2.77 30.2 17.63 30.2 35.54 0 19.9-16.2 36.02-36.1 36.02-11 0-20.8-4.9-27.4-12.62-9.7-11.42-12.2-23.8-10.2-35.9C23.9 47.4 74.2 23.27 111.6 14 99.4 20.46 77.4 31.07 62 42.63c44.9 17.34 52.17-20.52 73.2-37.46zm18.2 137.12h-13.73l-28.52-75.08h18.62l17.47 49.9 18.03-49.9h18.14l-30 75.08z" fill="#4C4D41" mask="url(#b)"/><path d="M348.63 110.3c.58 5.4 2.75 9.7 6.45 12.78 3.7 3.13 8.5 4.7 14.38 4.7 3.9 0 7.4-.83 10.53-2.46 3.1-1.66 5.5-3.94 7.4-6.9h18.8c-3.2 8.18-8 14.54-14.3 19.08-6.4 4.52-13.7 6.78-22 6.78-5.6 0-10.8-.98-15.5-2.96-4.7-1.98-8.9-4.9-12.7-8.78-3.6-3.68-6.3-7.94-8.3-12.8-2-4.83-3-9.8-3-14.9 0-5.24.9-10.15 2.7-14.77 1.8-4.63 4.42-8.78 7.92-12.46 3.82-4 8.15-7.1 13-9.3 4.9-2.2 9.9-3.3 15-3.3 6.5 0 12.57 1.5 18.2 4.4 5.64 3 10.44 7.2 14.4 12.5 2.42 3.3 4.2 6.9 5.36 10.9s1.77 8.6 1.77 13.8c0 .4-.04 1-.08 1.9-.08.9-.1 1.5-.1 1.9h-60.1zm41.42-13.87c-1.5-5-4-8.8-7.55-11.43-3.52-2.6-7.96-3.92-13.32-3.92-4.66 0-8.8 1.42-12.5 4.24-3.7 2.82-6.16 6.52-7.44 11.1h40.8zm88.13 45.87v-9.22c-2.1 3.72-5.04 6.5-8.83 8.27-3.8 1.77-8.67 2.65-14.58 2.65-11.1 0-20.37-3.8-27.8-11.37-7.43-7.57-11.15-16.98-11.15-28.2 0-5.3.93-10.3 2.8-15.03 1.86-4.73 4.5-8.9 7.98-12.5 3.73-3.95 7.88-6.86 12.42-8.75 4.54-1.88 9.67-2.84 15.35-2.84 5.45 0 10.15 1 14.1 2.8 3.93 1.8 7.1 4.6 9.5 8.3v-9.1h17.07v75.1h-16.86zm-44.47-38.16c0 6.32 2.1 11.6 6.4 15.87 4.2 4.3 9.3 6.4 15.4 6.4 5.5 0 10.4-2.1 14.6-6.4 4.2-4.3 6.3-9.3 6.3-15 0-6.1-2.1-11.3-6.3-15.7-4.2-4.4-9.1-6.6-14.7-6.6-5.9 0-10.97 2.1-15.17 6.3-4.16 4.2-6.25 9.3-6.25 15.3zm108-36.92v15.56h-12.6v59.52h-16.9V82.78h-8.9V67.22h8.4v-2.05c0-7.9 2.2-13.8 6.6-17.7 4.4-3.87 11-5.83 19.9-5.83.4 0 1 .03 1.8.07.8.1 1.4.1 1.9.1v15.7h-1.2c-3.94 0-6.8.7-8.5 2-1.7 1.3-2.52 3.5-2.52 6.5v1.4h12.28zM306.9 142.3h17.06V42.92H306.9v99.38z" fill="#138A07"/></g></svg>