<?xml version="1.0" encoding="utf-8"?>
<!-- Generator: Adobe Illustrator 21.0.0, SVG Export Plug-In . SVG Version: 6.00 Build 0)  -->
<svg version="1.1" id="Layer_1" xmlns="http://www.w3.org/2000/svg" xmlns:xlink="http://www.w3.org/1999/xlink" x="0px" y="0px"
	 viewBox="0 0 136 157" style="enable-background:new 0 0 136 157;" xml:space="preserve">
<style type="text/css">
	.st0{fill:#FFFFFF;}
</style>
<g id="Page-1">
	<g id="overleaf">
		<g id="Group">
			<path id="Fill-1" class="st0" d="M37.2,39.7C14.8,54,0,77.3,0,102.3C0,132.5,24.5,157,54.7,157s54.7-24.5,54.7-54.7
				c0-23.3-14.6-43.3-35.2-51.1c-4-1.5-12.6-4.2-19.4-3.6C45,53.8,33,66.6,27.4,79.4c8.4-10.1,21.5-14.5,33.2-12.6
				c17.1,2.8,30.2,17.6,30.2,35.6c0,19.9-16.1,36-36,36c-11,0-20.8-4.9-27.4-12.6c-9.9-11.5-12.4-23.9-10.4-36
				c6.9-42.4,57.2-66.5,94.6-75.8C99.4,20.5,77.4,31.1,62,42.6c44.9,17.3,52.2-20.5,73.2-37.5C114-3.1,37.3-6.1,37.2,39.7z"/>
		</g>
	</g>
</g>
</svg>
