<svg width="130" height="40" viewBox="0 0 130 40" fill="none" xmlns="http://www.w3.org/2000/svg">
<g clip-path="url(#clip0_382_3973)">
<mask id="mask0_382_3973" style="mask-type:alpha" maskUnits="userSpaceOnUse" x="1" y="1" width="72" height="38">
<path d="M72.7633 38.6327H1.02344V1.07178H72.7633V38.6327Z" fill="white"/>
</mask>
<g mask="url(#mask0_382_3973)">
<path d="M48.2509 27.4555C48.3948 28.7507 48.8985 29.7821 49.81 30.5257C50.6974 31.2692 51.8487 31.653 53.2638 31.653C54.1993 31.653 55.0387 31.4611 55.7823 31.0773C56.5258 30.6696 57.1255 30.1419 57.5572 29.4223H62.0664C61.2989 31.3891 60.1716 32.9002 58.6365 34.0035C57.1255 35.0829 55.3506 35.6345 53.3598 35.6345C52.0166 35.6345 50.7934 35.3947 49.666 34.915C48.5387 34.4352 47.5314 33.7397 46.6199 32.8043C45.7804 31.9168 45.1089 30.9094 44.6531 29.7341C44.1974 28.5589 43.9576 27.3836 43.9576 26.1603C43.9576 24.9131 44.1734 23.7138 44.6052 22.6105C45.0369 21.5072 45.6605 20.4998 46.5 19.6124C47.4114 18.629 48.4668 17.8854 49.6181 17.3817C50.7694 16.8541 51.9686 16.5902 53.1919 16.5902C54.7509 16.5902 56.214 16.95 57.5572 17.6456C58.9004 18.3651 60.0517 19.3485 61.0111 20.6437C61.5867 21.4113 62.0185 22.2747 62.3063 23.2581C62.5941 24.2175 62.714 25.3209 62.714 26.5681C62.714 26.664 62.714 26.8079 62.69 27.0238C62.69 27.2397 62.6661 27.3836 62.6661 27.4795H48.2509V27.4555ZM58.2048 24.1216C57.845 22.9223 57.2454 22.0109 56.4059 21.3873C55.5664 20.7637 54.4871 20.4519 53.2159 20.4519C52.0886 20.4519 51.1052 20.7876 50.2177 21.4592C49.3303 22.1308 48.7306 23.0183 48.4188 24.1216H58.2048ZM72.7638 20.7637C71.1328 20.8836 70.0055 21.3153 69.3579 22.0349C68.7103 22.7544 68.3985 24.0496 68.3985 25.9205V35.1068H64.2011V17.1179H68.1347V19.2046C68.7583 18.3891 69.4539 17.8135 70.2214 17.4297C70.9649 17.0459 71.8284 16.8541 72.7638 16.8541V20.7637ZM33.428 2.24705C28.3432 0.256278 9.9465 -0.463279 9.92251 10.522C4.54982 13.9519 1 19.5404 1 25.5367C1 32.7803 6.87638 38.6567 14.1199 38.6567C21.3635 38.6567 27.2399 32.7803 27.2399 25.5367C27.2399 19.9482 23.738 15.1511 18.797 13.2803C17.8376 12.9205 15.7749 12.2729 14.1439 12.4168C11.7934 13.9039 8.91513 16.974 7.57196 20.0441C9.58672 17.6216 12.7288 16.5662 15.5351 17.022C19.6365 17.6936 22.7786 21.2434 22.7786 25.5607C22.7786 30.3338 18.917 34.1954 14.1439 34.1954C11.5055 34.1954 9.15498 33.0201 7.57196 31.1733C5.19742 28.415 4.59779 25.4408 5.07749 22.5386C6.73247 12.3688 18.797 6.58838 27.7675 4.35775C24.8413 5.9168 19.5646 8.45923 15.8708 11.2175C26.6402 15.391 28.3911 6.30056 33.428 2.24705ZM37.7934 35.1308H34.5074L27.6716 17.1179H32.1328L36.3303 29.0865L40.6476 17.1179H44.9889L37.7934 35.1308Z" fill="#04652F"/>
</g>
<path d="M84.6118 27.4556C84.7557 28.7508 85.2834 29.7822 86.1708 30.5257C87.0583 31.2692 88.2096 31.653 89.6247 31.653C90.5601 31.653 91.3996 31.4611 92.1431 31.0774C92.8867 30.6696 93.4863 30.1419 93.918 29.4224H98.4273C97.6597 31.3892 96.5324 32.9002 94.9974 34.0036C93.4863 35.0829 91.7114 35.6346 89.7206 35.6346C88.3775 35.6346 87.1542 35.3947 86.0269 34.915C84.8996 34.4353 83.8922 33.7397 82.9808 32.8043C82.1413 31.9168 81.4697 30.9095 81.014 29.7342C80.5343 28.5829 80.3184 27.3836 80.3184 26.1604C80.3184 24.9131 80.5343 23.7139 80.966 22.6106C81.3977 21.5072 82.0214 20.4999 82.8608 19.6124C83.7723 18.629 84.8276 17.8855 85.9789 17.3818C87.1302 16.8541 88.3295 16.5903 89.5527 16.5903C91.1118 16.5903 92.5749 16.95 93.918 17.6456C95.2612 18.3652 96.4125 19.3486 97.3719 20.6438C97.9476 21.4113 98.3793 22.2748 98.6671 23.2582C98.9549 24.2176 99.0749 25.3209 99.0749 26.5681C99.0749 26.6641 99.0749 26.808 99.0509 27.0238C99.0509 27.2397 99.0269 27.3836 99.0269 27.4796H84.6118V27.4556ZM94.5417 24.1216C94.1819 22.9224 93.5823 22.0109 92.7428 21.3873C91.9033 20.7637 90.824 20.4519 89.5527 20.4519C88.4254 20.4519 87.442 20.7877 86.5546 21.4593C85.6671 22.1309 85.0675 23.0183 84.7557 24.1216H94.5417ZM115.697 35.1309V32.9242C115.193 33.8117 114.497 34.4833 113.586 34.915C112.675 35.3467 111.499 35.5626 110.084 35.5626C107.422 35.5626 105.191 34.6512 103.416 32.8283C101.641 31.0054 100.73 28.7508 100.73 26.0644C100.73 24.7932 100.946 23.594 101.401 22.4667C101.857 21.3393 102.481 20.332 103.32 19.4685C104.208 18.5091 105.215 17.8135 106.294 17.3578C107.374 16.9021 108.621 16.6862 109.988 16.6862C111.307 16.6862 112.435 16.9021 113.37 17.3338C114.306 17.7655 115.073 18.4371 115.649 19.3246V17.1419H119.726V35.1548H115.697V35.1309ZM105.023 25.9685C105.023 27.4796 105.527 28.7508 106.534 29.7822C107.542 30.8135 108.765 31.3172 110.228 31.3172C111.547 31.3172 112.698 30.8135 113.706 29.7822C114.713 28.7508 115.217 27.5515 115.217 26.1844C115.217 24.7213 114.713 23.474 113.706 22.4187C112.698 21.3633 111.523 20.8357 110.156 20.8357C108.741 20.8357 107.542 21.3393 106.534 22.3227C105.527 23.3301 105.023 24.5294 105.023 25.9685ZM130.903 17.1179V20.8596H127.881V35.1309H123.828V20.8596H121.693V17.1179H123.708V16.6382C123.708 14.7434 124.235 13.3283 125.267 12.3929C126.322 11.4574 127.905 11.0017 130.04 11.0017C130.112 11.0017 130.256 11.0017 130.448 11.0257C130.639 11.0257 130.783 11.0497 130.903 11.0497V14.8154H130.615C129.656 14.8154 128.984 14.9833 128.577 15.2711C128.169 15.5829 127.953 16.0866 127.953 16.8301V17.1659H130.903V17.1179ZM74.5859 35.1309H78.6874V11.2895H74.5859V35.1309Z" fill="#04652F"/>
</g>
<defs>
<clipPath id="clip0_382_3973">
<rect width="130" height="40" fill="white"/>
</clipPath>
</defs>
</svg>
