<svg width="136" height="157" xmlns="http://www.w3.org/2000/svg"><path d="M37.205 39.652C14.822 53.982 0 77.339 0 102.326 0 132.522 24.48 157 54.681 157c30.198 0 54.674-24.478 54.674-54.674 0-23.34-14.626-43.276-35.204-51.111-3.958-1.505-12.556-4.213-19.421-3.635-9.806 6.234-21.751 19.044-27.411 31.809 8.416-10.093 21.537-14.488 33.17-12.619 17.126 2.777 30.208 17.638 30.208 35.551 0 19.896-16.126 36.021-36.016 36.021-10.962 0-20.785-4.896-27.388-12.619C17.516 114.299 15 101.91 16.975 89.809c6.927-42.375 57.233-66.53 94.636-75.799-12.207 6.458-34.227 17.074-49.626 28.63 44.924 17.341 52.184-20.517 73.217-37.459C114.038-3.07 37.33-6.117 37.205 39.652z" fill="#138A07" fill-rule="evenodd"/></svg>