<svg id="Layer_1" xmlns="http://www.w3.org/2000/svg" viewBox="0 0 542 157" enable-background="new 0 0 542 157"><style>.st0{filter:url(#Adobe_OpacityMaskFilter);} .st1{fill:#FFFFFF;} .st2{mask:url(#mask-2);fill:#FFFFFF;}</style><g id="Page-1"><g id="Overleaf"><g id="Group-3"><defs><filter id="Adobe_OpacityMaskFilter" filterUnits="userSpaceOnUse" x="0" y=".3" width="299.2" height="156.7"><feColorMatrix values="1 0 0 0 0 0 1 0 0 0 0 0 1 0 0 0 0 0 1 0"/></filter></defs><mask maskUnits="userSpaceOnUse" x="0" y=".3" width="299.2" height="156.7" id="mask-2"><g class="st0"><path id="path-1" class="st1" d="M299.2 156.9H.1V.3h299.1z"/></g></mask><path id="Fill-1" class="st2" d="M197 110.3c.6 5.4 2.7 9.7 6.5 12.8 3.7 3.1 8.5 4.7 14.4 4.7 3.9 0 7.4-.8 10.5-2.4 3.1-1.7 5.6-3.9 7.4-6.9h18.8c-3.2 8.2-7.9 14.5-14.3 19.1-6.3 4.5-13.7 6.8-22 6.8-5.6 0-10.7-1-15.4-3-4.7-2-8.9-4.9-12.7-8.8-3.5-3.7-6.3-7.9-8.2-12.8s-2.9-9.8-2.9-14.9c0-5.2.9-10.2 2.7-14.8 1.8-4.6 4.4-8.8 7.9-12.5 3.8-4.1 8.2-7.2 13-9.3 4.8-2.2 9.8-3.3 14.9-3.3 6.5 0 12.6 1.5 18.2 4.4 5.6 3 10.4 7.1 14.4 12.5 2.4 3.2 4.2 6.8 5.4 10.9 1.2 4 1.7 8.6 1.7 13.8 0 .4 0 1-.1 1.9 0 .9-.1 1.5-.1 1.9H197v-.1zm41.5-13.9c-1.5-5-4-8.8-7.5-11.4-3.5-2.6-8-3.9-13.3-3.9-4.7 0-8.8 1.4-12.5 4.2-3.7 2.8-6.2 6.5-7.5 11.1h40.8zm60.7-14c-6.8.5-11.5 2.3-14.2 5.3-2.7 3-4 8.4-4 16.2v38.3h-17.5v-75h16.4v8.7c2.6-3.4 5.5-5.8 8.7-7.4 3.1-1.6 6.7-2.4 10.6-2.4v16.3zm-164-77.2C114-3.1 37.3-6.1 37.2 39.7 14.8 54 0 77.3 0 102.3 0 132.5 24.5 157 54.7 157c30.2 0 54.7-24.5 54.7-54.7 0-23.3-14.6-43.3-35.2-51.1-4-1.5-12.6-4.2-19.4-3.6-9.8 6.2-21.8 19-27.4 31.8 8.4-10.1 21.5-14.5 33.2-12.6 17.1 2.8 30.2 17.6 30.2 35.6 0 19.9-16.1 36-36 36-11 0-20.8-4.9-27.4-12.6-9.9-11.5-12.4-23.9-10.4-36 6.9-42.4 57.2-66.5 94.6-75.8C99.4 20.5 77.4 31.1 62 42.6c44.9 17.4 52.2-20.5 73.2-37.4zm18.2 137.1h-13.7l-28.5-75.1h18.6l17.5 49.9 18-49.9h18.1l-30 75.1z"/></g><path id="Fill-4" class="st1" d="M348.6 110.3c.6 5.4 2.8 9.7 6.5 12.8 3.7 3.1 8.5 4.7 14.4 4.7 3.9 0 7.4-.8 10.5-2.4 3.1-1.7 5.6-3.9 7.4-6.9h18.8c-3.2 8.2-7.9 14.5-14.3 19.1-6.3 4.5-13.7 6.8-22 6.8-5.6 0-10.7-1-15.4-3-4.7-2-8.9-4.9-12.7-8.8-3.5-3.7-6.3-7.9-8.2-12.8-2-4.8-2.9-9.8-2.9-14.9 0-5.2.9-10.2 2.7-14.8 1.8-4.6 4.4-8.8 7.9-12.5 3.8-4.1 8.2-7.2 13-9.3 4.8-2.2 9.8-3.3 14.9-3.3 6.5 0 12.6 1.5 18.2 4.4 5.6 3 10.4 7.1 14.4 12.5 2.4 3.2 4.2 6.8 5.4 10.9 1.2 4 1.7 8.6 1.7 13.8 0 .4 0 1-.1 1.9 0 .9-.1 1.5-.1 1.9h-60.1v-.1zM390 96.4c-1.5-5-4-8.8-7.5-11.4-3.5-2.6-8-3.9-13.3-3.9-4.7 0-8.8 1.4-12.5 4.2-3.7 2.8-6.2 6.5-7.5 11.1H390zm88.2 45.9v-9.2c-2.1 3.7-5 6.5-8.8 8.3-3.8 1.8-8.7 2.7-14.6 2.7-11.1 0-20.4-3.8-27.8-11.4-7.4-7.6-11.2-17-11.2-28.2 0-5.3.9-10.3 2.8-15 1.9-4.7 4.5-8.9 8-12.5 3.7-4 7.9-6.9 12.4-8.8s9.7-2.8 15.4-2.8c5.5 0 10.2.9 14.1 2.7 3.9 1.8 7.1 4.6 9.5 8.3v-9.1h17v75.1h-16.8v-.1zm-44.5-38.2c0 6.3 2.1 11.6 6.3 15.9 4.2 4.3 9.3 6.4 15.4 6.4 5.5 0 10.3-2.1 14.5-6.4 4.2-4.3 6.3-9.3 6.3-15 0-6.1-2.1-11.3-6.3-15.7-4.2-4.4-9.1-6.6-14.8-6.6-5.9 0-10.9 2.1-15.1 6.2-4.2 4.2-6.3 9.2-6.3 15.2zm107.9-36.9v15.6H529v59.5h-16.9V82.8h-8.9V67.2h8.4v-2c0-7.9 2.2-13.8 6.5-17.7 4.4-3.9 11-5.8 19.9-5.8.3 0 .9 0 1.7.1.8 0 1.4.1 1.9.1v15.7h-1.2c-4 0-6.8.7-8.5 1.9-1.7 1.3-2.6 3.4-2.6 6.5v1.4h12.3v-.2zm-234.8 75.1h17.1V42.9h-17.1v99.4z"/></g></g></svg>