<svg width="120" height="130" viewBox="0 0 120 130" fill="none" xmlns="http://www.w3.org/2000/svg">
<path d="M91.6613 94.6934C92.4317 94.0503 93.1387 93.3117 93.7388 92.5026L106.155 75.9913C107.63 74.0326 111.095 69.43 110.214 63.1896C109.691 59.4604 107.287 52.8762 97.0826 50.7055L77.0357 46.4767C73.3993 45.7096 69.6009 46.6966 66.6263 49.1822C63.9272 51.4427 62.1974 54.6801 61.9012 58.0646C61.8552 58.5868 61.8376 59.1008 61.852 59.6129C49.0388 59.2868 36.3274 54.6806 26.4622 46.2916C21.7484 42.2971 15.1832 42.2462 10.4819 46.1832C7.47726 48.7027 5.67429 52.544 5.64746 56.4669C5.6283 60.3027 7.31404 63.9389 10.2614 66.4503C26.7432 80.453 48.8094 87.0186 70.3956 85.1296C70.4076 85.7092 70.4587 86.2992 70.5578 86.8864C71.1219 90.3854 73.0865 93.5303 75.951 95.5112C80.7091 98.7945 87.1618 98.4642 91.6586 94.7032L91.6613 94.6934Z" fill="#80CBA2"/>
<path d="M15.9193 59.2983C12.3365 56.281 16.5709 50.1836 20.1804 53.2182C37.7632 68.0045 63.0309 72.441 84.9234 64.5104C81.3696 63.794 77.815 63.0618 74.2612 62.3455C72.3084 61.9496 70.723 60.5309 70.9278 58.3898C71.0996 56.5953 73.0066 54.618 74.9727 55.0226C79.5389 55.9488 84.1087 56.8811 88.675 57.8073C90.7969 58.2365 92.9189 58.6658 95.0346 59.0986C97.7362 59.6517 100.524 60.6712 100.948 63.8006C101.26 66.1017 99.9477 67.9979 98.608 69.7459C97.2414 71.534 95.8882 73.3308 94.5217 75.1189C91.6992 78.8287 88.8704 82.5421 86.0513 86.2581C84.8324 87.8545 82.5678 88.3758 80.8845 87.2347C79.291 86.1482 78.7633 83.7339 79.9787 82.1313C82.347 79.0196 84.7277 75.9006 87.0924 72.7828C87.5467 72.1847 88.001 71.5866 88.4589 70.9947C64.2017 80.1676 35.5623 75.8352 15.9201 59.3142L15.9166 59.308L15.9193 59.2983Z" fill="black"/>
</svg>
