<svg width="120" height="130" viewBox="0 0 120 130" fill="none" xmlns="http://www.w3.org/2000/svg">
<path d="M110.54 84.6325L97.1896 34.9234C95.5937 29.0735 90.2537 25 84.2078 25C83.0416 25 81.8754 25.1531 80.7399 25.4594L70.7657 28.124C70.1212 28.3078 69.5381 28.5528 68.955 28.7979C66.684 27.0214 63.8298 25.9188 60.6995 25.9188H49.7739C46.9812 25.9188 44.3725 26.7764 42.2243 28.2466C40.076 26.7764 37.4673 25.9188 34.6746 25.9188H23.749C16.3528 25.9188 10.3376 31.9219 10.3376 39.2726L10 91.3706C10 98.7825 16.0152 104.786 23.4421 104.786H23.6569L34.9508 104.173C37.6515 104.112 40.168 103.254 42.2549 101.845C44.4032 103.315 47.0119 104.173 49.8046 104.173H60.1164C67.0216 104.173 72.6378 98.9357 73.405 92.3201L74.3257 95.9342C75.7682 101.263 80.6171 105 86.1413 105H87.062C88.2282 105 89.3944 104.847 90.4992 104.541L90.7448 104.479L101.302 100.988C104.647 100.008 107.44 97.8331 109.189 94.8009C110.969 91.7075 111.46 88.0934 110.54 84.6325Z" fill="#F1A695"/>
<path d="M23.4421 97.1286C20.2504 97.1286 17.6724 94.5559 17.6724 91.3706L18.01 39.3032C18.01 36.1179 20.588 33.5452 23.7797 33.5452H34.7052C37.897 33.5452 40.4749 36.1179 40.4749 39.3032V90.758C40.4749 93.9433 37.897 96.5161 34.7052 96.5161L23.4421 97.1286ZM23.7797 38.2312C23.1659 38.2312 22.6749 38.7213 22.6749 39.3338L22.3373 91.4012C22.3373 92.0138 22.8283 92.5038 23.4421 92.5038L34.7052 91.8913C35.319 91.8913 35.8101 91.4012 35.8101 90.7886V39.3338C35.8101 38.7213 35.319 38.2312 34.7052 38.2312H23.7797Z" fill="black"/>
<path d="M26.1121 49.1346C24.8231 49.1346 23.7797 48.0933 23.7797 46.8069C23.7797 45.5205 24.8231 44.4792 26.1121 44.4792L32.5877 44.0198C33.8766 44.0198 34.9201 45.0611 34.9201 46.3475C34.9201 47.6339 33.8766 48.6752 32.5877 48.6752L26.1121 49.1346Z" fill="black"/>
<path d="M26.1121 86.2555C24.8231 86.2555 23.7797 85.2142 23.7797 83.9278C23.7797 82.6414 24.8231 81.6001 26.1121 81.6001H32.9866C34.2756 81.6001 35.319 82.6414 35.319 83.9278C35.319 85.2142 34.2756 86.2555 32.9866 86.2555H26.1121Z" fill="black"/>
<path d="M49.8046 96.5466C46.6129 96.5466 44.0349 93.9738 44.0349 90.7885V39.3337C44.0349 36.1484 46.6129 33.5757 49.8046 33.5757H60.7302C63.9219 33.5757 66.4998 36.1484 66.4998 39.3337L65.886 90.7885C65.886 93.9738 63.3081 96.5466 60.1164 96.5466H49.8046ZM50.8174 38.2311C49.6512 38.2311 48.6691 39.1806 48.6691 40.3751V90.7885C48.6691 91.4011 49.1601 91.8912 49.7739 91.8912H60.0857C60.6995 91.8912 61.1905 91.4011 61.1905 90.7885L61.8043 39.3337C61.8043 38.7212 61.3133 38.2311 60.6995 38.2311H50.8174Z" fill="black"/>
<path d="M51.5232 48.2157C50.2343 48.2157 49.1908 47.1744 49.1908 45.888C49.1908 44.6017 50.2343 43.5603 51.5232 43.5603L58.3978 43.8666C59.6867 43.8666 60.7302 44.9079 60.7302 46.1943C60.7302 47.4807 59.6867 48.522 58.3978 48.522L51.5232 48.2157Z" fill="black"/>
<path d="M51.5232 86.2555C50.2343 86.2555 49.1908 85.2142 49.1908 83.9278C49.1908 82.6414 50.2343 81.6001 51.5232 81.6001H58.3978C59.6867 81.6001 60.7302 82.6414 60.7302 83.9278C60.7302 85.2142 59.6867 86.2555 58.3978 86.2555H51.5232Z" fill="black"/>
<path d="M86.1413 97.3429C84.0851 97.3429 82.2744 95.9647 81.722 93.9739L68.6788 42.5803C67.8502 39.5175 69.6916 36.3628 72.7606 35.5359L82.7347 32.8713C83.2258 32.7488 83.7168 32.6875 84.2078 32.6875C86.8165 32.6875 89.1182 34.4333 89.7934 36.9448L103.143 86.6538C103.542 88.1546 103.328 89.686 102.56 91.0336C101.793 92.3812 100.535 93.3307 99.0617 93.7288L88.5658 97.2204C88.0748 97.3429 87.5837 97.4042 87.0927 97.4042H86.172L86.1413 97.3429ZM84.2078 37.3123C84.2078 37.3123 84.0237 37.3123 83.9316 37.3429L73.9575 40.0076C73.6813 40.0688 73.4357 40.2832 73.2823 40.5282C73.1288 40.7733 73.0981 41.0795 73.1595 41.3552L85.9572 91.8912C86.0799 92.3812 86.5403 92.7181 87.0313 92.7181L97.8341 89.1959C98.1103 89.1347 98.3558 88.9509 98.5093 88.6752C98.6627 88.4302 98.6934 88.1239 98.632 87.8483L85.282 38.1393C85.1592 37.6492 84.6989 37.3123 84.2078 37.3123Z" fill="black"/>
<path d="M77.6709 49.594C77.0571 49.594 76.474 49.3489 76.0137 48.9201C75.5533 48.4914 75.3385 47.9094 75.3385 47.2662C75.3385 46.2249 76.0444 45.3061 77.0571 45.0304L83.6861 43.254C83.8703 43.1927 84.0851 43.1621 84.2999 43.1621C85.3434 43.1621 86.2641 43.8666 86.5403 44.8773C86.8778 46.1024 86.1413 47.3888 84.9137 47.7257L78.254 49.5021C78.0699 49.5633 77.8551 49.594 77.6402 49.594H77.6709Z" fill="black"/>
<path d="M87.0927 86.5313C85.8037 86.3782 84.9137 85.2143 85.0671 83.9279C85.1899 82.8866 86.0185 82.0596 87.062 81.9065L93.8751 80.0076C94.0899 80.0076 94.2741 80.0076 94.4889 80.0076C95.5324 80.1301 96.361 80.957 96.5144 81.9984C96.6986 83.2848 95.8086 84.4486 94.5196 84.6324L87.7065 86.5313C87.4916 86.5313 87.3075 86.5313 87.0927 86.5313Z" fill="black"/>
</svg>
