<svg width="120" height="130" viewBox="0 0 120 130" fill="none" xmlns="http://www.w3.org/2000/svg">
<path d="M54.5509 104.97C48.8309 105.44 43.4009 103.4 39.4909 99.4895C33.0909 98.6195 27.3609 94.9395 23.9009 89.2595C20.6309 83.8995 19.8509 77.5795 21.5509 71.7995C20.1909 69.1495 19.4709 66.1895 19.4609 63.1195C19.4609 59.5195 20.4309 56.0795 22.2609 53.0895C22.1209 49.3495 23.0809 45.6095 25.0609 42.3695C27.0609 39.1095 29.9809 36.5395 33.4009 34.9695C36.5509 29.9195 41.9609 26.5495 48.1009 26.0395C51.2309 25.7795 54.2709 26.2795 57.0409 27.4395C59.5809 25.8395 62.5009 24.8595 65.6309 24.5995C71.7709 24.0995 77.6509 26.5395 81.5909 31.0095C85.2209 31.9995 88.5209 34.0595 91.0209 36.9495C93.5109 39.8195 95.0609 43.3595 95.5309 47.0795C97.8309 49.7295 99.351 52.9595 99.931 56.5195C100.421 59.5595 100.191 62.5895 99.2809 65.4295C101.901 70.8595 102.151 77.2195 99.801 83.0495C97.311 89.2195 92.2609 93.7795 86.0909 95.6795C82.8709 100.169 77.8409 103.069 72.1309 103.539C69.0009 103.799 65.9509 103.3 63.1809 102.14C60.6309 103.74 57.7109 104.729 54.5709 104.979L54.5509 104.97Z" fill="#DADBEB"/>
<path d="M87.3289 50.7392C88.0889 44.3292 83.1289 38.7692 76.8389 38.6092C72.9489 31.1792 62.3189 30.7492 57.9189 38.0892C52.3889 31.5692 41.969 33.7192 39.339 41.6892C33.149 42.8692 29.1689 49.1692 30.9589 55.3692C26.6289 59.6492 26.7189 66.6292 30.9989 70.8192C25.2389 80.0792 32.4389 92.2892 43.6089 91.3692C47.7889 98.5192 58.0489 98.5692 62.2989 91.4792C67.6489 97.7892 77.7689 96.0592 80.7189 88.3292C91.8689 87.4392 97.0089 74.1992 89.8189 65.9992C93.3689 61.1692 92.2989 54.2592 87.3389 50.7492L87.3289 50.7392ZM53.2689 92.6392C47.6189 93.0992 43.8189 86.7392 47.1389 81.9792C47.7789 81.0592 47.5489 79.7992 46.6389 79.1592C45.7189 78.5192 44.4589 78.7492 43.8189 79.6592C42.2889 81.8492 41.5989 84.5892 41.9689 87.3092C34.2389 87.1192 30.0789 78.2392 34.6789 72.1792C34.7389 72.2392 36.4189 69.3692 40.4289 68.5992C40.4689 69.9092 40.7489 71.2192 41.2689 72.4692C41.6189 73.2992 42.4489 73.7792 43.2989 73.7092C44.6689 73.5992 45.5389 72.1792 44.9989 70.8992C43.5489 67.4392 45.1789 63.4492 48.6289 61.9992C49.6589 61.5692 50.1489 60.3792 49.7089 59.3492C49.2789 58.3192 48.0889 57.8292 47.0589 58.2692C46.6089 58.4592 46.1789 58.6792 45.7589 58.9192C44.7889 56.9192 45.1389 54.4392 46.8089 52.8092C47.6089 52.0292 47.629 50.7392 46.8389 49.9392C46.0589 49.1392 44.7689 49.1192 43.9689 49.9092C40.7089 53.0992 40.2989 58.0392 42.6389 61.6592C41.3989 63.2792 41.1789 64.4192 41.0589 64.4292C38.0889 64.6692 35.4289 65.8592 33.3389 67.6792C30.6089 64.7792 30.9289 60.0392 34.2489 57.5692C35.0089 56.9992 35.2789 55.9792 34.8889 55.1092C33.0589 51.0792 35.4589 45.9592 40.8189 45.5192C41.7289 45.4492 42.4889 44.7592 42.6489 43.8592C43.1889 40.8292 45.7089 38.5392 48.7889 38.2892C52.5289 37.9792 55.8089 40.7692 56.1189 44.5092L59.4689 85.3192C59.7789 89.0592 56.9889 92.3392 53.2489 92.6492L53.2689 92.6392ZM86.429 63.3192C83.879 61.7492 80.8789 61.1092 78.2389 61.3792C77.6989 60.4592 77.0689 59.6492 76.2689 58.8992C77.9889 54.9492 76.789 50.1392 73.049 47.5192C72.129 46.8792 70.8689 47.0992 70.2289 48.0192C69.5889 48.9392 69.8089 50.1992 70.7289 50.8392C72.6489 52.1792 73.3989 54.5692 72.7689 56.6992C72.3189 56.5292 71.8589 56.3792 71.3889 56.2692C70.2989 56.0092 69.2089 56.6792 68.9489 57.7692C68.6889 58.8592 69.3589 59.9492 70.4489 60.2092C74.0989 61.0792 76.3489 64.7492 75.4789 68.3992C75.2189 69.4892 75.8889 70.5792 76.9789 70.8392C78.0589 71.0992 79.159 70.4292 79.419 69.3392C79.729 68.0192 79.7989 66.6892 79.6189 65.3792C84.4089 65.4992 88.399 69.2292 88.789 74.0392C89.189 78.8892 85.8289 83.1892 81.1489 84.0792C81.0689 81.3492 79.9489 78.7592 78.0789 76.8392C77.2989 76.0392 76.0189 76.0192 75.2089 76.7992C74.4089 77.5792 74.389 78.8592 75.169 79.6692C79.209 83.8092 76.4989 90.7192 70.8489 91.1792C67.1089 91.4892 63.8289 88.6992 63.5189 84.9592L60.1689 44.1492C59.8589 40.4092 62.6489 37.1292 66.3889 36.8192C69.4589 36.5692 72.3189 38.4192 73.3489 41.3192C73.6689 42.2092 74.5489 42.7692 75.4889 42.6592C80.2089 42.0992 84.0789 46.5092 82.8389 51.1592C82.5889 52.0792 83.0189 53.0492 83.8689 53.4892C87.5489 55.3892 88.639 60.0092 86.409 63.3092L86.429 63.3192Z" fill="black"/>
</svg>
