<svg width="120" height="130" viewBox="0 0 120 130" fill="none" xmlns="http://www.w3.org/2000/svg">
<path d="M104.642 54.8382L100.154 54.5793V54.2427C100.154 49.712 98.0644 47.2007 96.3103 45.8803L81.8905 36.068C79.6979 34.5922 77.17 33.7897 74.513 33.7897C71.6755 33.7897 68.8896 34.7217 66.6196 36.4304L52.8447 46.7864C52.1999 46.1133 51.4776 45.466 50.7295 44.8965C48.7433 35.7314 40.6434 28.9741 30.9701 28.9741C21.2968 28.9741 14.2288 35.5761 12.4489 45.0518C8.27001 48.6246 6 54.1133 6 60.9223C6 67.7314 8.29581 73.2977 12.5263 76.8447C13.0422 79.2524 14.0224 81.5566 15.3638 83.6537C16.9115 86.0356 19.5169 87.4596 22.3544 87.5372V92.3269C22.3544 97.1165 26.2237 101 30.9959 101C34.7105 101 37.8575 98.6181 39.0699 95.3301C40.5403 96.521 42.3975 97.2719 44.4354 97.2719H44.4612L104.41 96.5987C109.156 96.5987 113 92.7411 113 87.9774V63.4596C113 58.7735 109.285 54.9676 104.642 54.8382Z" fill="#9597C9"/>
<path d="M65.8457 58.5405C65.8457 63.2784 69.4313 67.136 73.8423 67.136C78.2534 67.136 81.839 63.2784 81.839 58.5405C81.839 53.8027 78.2534 49.9451 73.8423 49.9451C69.4313 49.9451 65.8457 53.8027 65.8457 58.5405ZM77.8664 58.5405C77.8664 60.9224 76.0865 62.8383 73.8681 62.8383C71.6497 62.8383 69.8698 60.9224 69.8698 58.5405C69.8698 56.1587 71.6497 54.2428 73.8681 54.2428C76.0865 54.2428 77.8664 56.1587 77.8664 58.5405Z" fill="black"/>
<path d="M30.9959 94.5275C29.7835 94.5275 28.8033 93.5437 28.8033 92.3269V56.3139C28.8033 55.0971 29.7835 54.1133 30.9959 54.1133C32.2083 54.1133 33.1885 55.0971 33.1885 56.3139V92.3269C33.1885 93.5437 32.2083 94.5275 30.9959 94.5275Z" fill="black"/>
<path d="M104.41 61.3106L93.7049 60.7151V54.2685C93.7049 53.5954 93.7049 52.0161 92.4409 51.0841L78.2534 41.453C77.1442 40.7022 75.8286 40.2879 74.513 40.2879C73.0685 40.2879 71.6497 40.754 70.4889 41.6342L55.9918 52.5339C55.4501 52.9481 55.1405 53.5695 55.1405 54.2426V60.6892H53.3607C53.3607 60.6892 52.7932 60.7669 52.0967 60.8446C52.0967 55.7701 49.1818 51.0582 44.7449 48.7022C44.4354 41.3494 38.3734 35.4724 30.9959 35.4724C23.6184 35.4724 18.8204 41.3494 18.5108 48.7022C14.0482 51.0841 12.4489 55.8219 12.4489 60.9222C12.4489 66.0226 14.074 70.7604 18.5108 73.1423C18.614 75.6277 19.3879 78.0096 20.7551 80.1067C21.1678 80.754 21.8643 81.0905 22.5865 81.0905C22.9993 81.0905 23.412 80.987 23.7989 80.7281C24.805 80.0549 25.0887 78.7087 24.418 77.6731C23.412 76.1455 22.8961 74.3591 22.8961 72.521C22.8961 72.3138 22.8961 72.1067 22.8961 71.8737C22.9735 70.9158 22.406 70.0355 21.5031 69.6731C17.9176 68.2491 16.8083 64.7281 16.8083 60.8964C16.8083 57.0646 17.9176 53.5436 21.5031 52.1197C22.3802 51.7572 22.9477 50.8769 22.8961 49.919C22.8961 49.7119 22.8961 49.4789 22.8961 49.2718C22.8961 44.0679 22.7929 40.3138 30.9959 39.8478C36.155 39.563 40.3855 44.0679 40.3855 49.2718C40.3855 49.4789 40.3855 49.686 40.3855 49.919C40.3081 50.8769 40.8756 51.7572 41.7784 52.1197C45.364 53.5436 47.763 57.0646 47.763 60.8964C47.763 64.7281 45.364 68.2491 41.7784 69.6731C40.9014 70.0355 40.3339 70.9158 40.3855 71.8737C40.3855 72.1067 40.3855 72.3138 40.3855 72.521C40.3855 74.3333 39.8696 76.1197 38.8635 77.6472C38.1929 78.6569 38.4766 80.029 39.5084 80.7022C40.3597 81.2718 41.4689 81.1423 42.1912 80.4692C42.1912 81.453 42.2944 82.5663 42.2944 82.851V88.6245C42.2944 89.8155 43.2488 90.7734 44.4354 90.7734L104.41 90.1002C105.597 90.1002 106.551 89.1423 106.551 87.9514V63.4336C106.551 62.2426 105.597 61.2847 104.41 61.2847V61.3106ZM55.1405 84.6633C55.1405 85.6731 54.3151 86.5015 53.3091 86.5015H48.15C47.2729 86.5015 46.5764 85.8025 46.5764 84.9222V71.9514C48.8722 70.1909 50.6005 67.7572 51.4518 65.0129H55.1405V84.6633ZM77.6343 86.5015H71.2112V79.5889C71.2112 78.6569 71.9593 77.9061 72.8879 77.9061H75.9834C76.8862 77.9061 77.6085 78.631 77.6085 79.5371V86.5015H77.6343ZM89.4229 86.5015H81.9163V75.7572C81.9163 74.5663 80.9619 73.6083 79.7753 73.6083H68.9412C67.7546 73.6083 66.8001 74.5663 66.8001 75.7572L66.9033 86.5015H59.3968V57.9967C59.3968 56.3138 60.1707 54.7345 61.4863 53.7248L71.0564 46.3203C72.7847 44.974 75.1837 44.9481 76.9378 46.2426L87.2302 53.7507C88.5716 54.7604 89.3713 56.3656 89.3713 58.0744V86.5533L89.4229 86.5015ZM101.676 84.3527C101.65 85.1553 101.031 85.8025 100.257 85.9061L95.1495 86.5015C94.3498 86.5015 93.7049 85.8543 93.7049 85.0517V67.0582C93.7049 65.9449 94.6594 65.0646 95.7686 65.1423L100.489 65.4789C101.495 65.5566 102.269 66.385 102.269 67.3947L101.676 84.3527Z" fill="black"/>
</svg>
