<svg width="120" height="130" viewBox="0 0 120 130" fill="none" xmlns="http://www.w3.org/2000/svg">
<path fill-rule="evenodd" clip-rule="evenodd" d="M105.545 39.7485C105.253 28.5786 96.5672 19.4453 85.6595 18.2414C82.6093 14.6026 78.0022 12.3668 72.9581 12.4392L46.7542 12.8013C42.1653 12.8646 37.4763 15.019 34.7812 19.563C29.9647 20.3324 25.567 22.6315 22.1527 26.207C18.0373 30.5156 15.8612 36.1549 16.0069 42.0929L17.4545 96.7929C17.6093 102.731 20.0859 108.252 24.4107 112.326C28.6627 116.345 34.244 118.508 40.1167 118.436L85.2315 117.259C91.2044 117.105 96.7584 114.643 100.856 110.343C104.971 106.044 107.147 100.396 106.992 94.4575L105.545 39.7575V39.7485Z" fill="#DADBEB"/>
<path fill-rule="evenodd" clip-rule="evenodd" d="M96.1715 40.012C95.9812 32.7272 89.9196 26.9826 82.6438 27.1729L79.989 27.2454C79.3457 23.9292 76.4191 21.4465 72.9216 21.5009L46.8448 21.8633C43.1933 21.9177 41.7255 24.6993 41.5895 28.2602L38.0287 28.3508C30.7438 28.5411 24.9993 34.6027 25.1896 41.8785L26.6302 96.6326C26.7209 100.13 28.1978 103.446 30.7348 105.847C33.2718 108.258 36.6605 109.553 40.1579 109.463L84.7731 108.294C88.2705 108.203 91.5867 106.726 93.9878 104.189C96.398 101.652 97.6937 98.2635 97.6031 94.7661L96.1624 40.012H96.1715ZM47.6693 28.9488C47.6693 28.3871 48.1133 27.925 48.666 27.925L73.0122 27.5897C73.574 27.5897 74.0361 28.0337 74.0361 28.5864L74.0904 32.6456C74.0904 33.2074 73.6465 33.6695 73.0938 33.6695L48.7475 34.0047C48.1858 34.0047 47.7237 33.5607 47.7237 33.008L47.6693 28.9488ZM89.5843 99.9941C88.2886 101.362 86.5037 102.16 84.619 102.205L40.0039 103.374C38.1193 103.419 36.2981 102.721 34.9299 101.426C33.5617 100.13 32.7644 98.3451 32.7191 96.4605L31.2784 41.7064C31.1787 37.7921 34.2685 34.5212 38.1918 34.4215L41.7798 34.3309C42.4141 37.6471 45.3498 40.1298 48.8472 40.0845L71.0189 39.7764C74.6794 39.7221 79.545 36.886 80.134 33.3252L82.8159 33.2527C86.7392 33.153 90.0011 36.2427 90.1008 40.166L91.5415 94.9201C91.5868 96.8048 90.8891 98.626 89.5934 99.9941H89.5843Z" fill="black"/>
<path fill-rule="evenodd" clip-rule="evenodd" d="M81.4025 47.7589L43.3654 48.2844C41.6892 48.3116 40.3392 49.6888 40.3663 51.3651C40.3935 53.0413 41.7708 54.3913 43.447 54.3642L81.484 53.8386C83.1602 53.8115 83.5861 52.4433 83.568 50.767C83.5499 49.0908 83.0787 47.7317 81.4025 47.7498V47.7589Z" fill="black"/>
<path fill-rule="evenodd" clip-rule="evenodd" d="M43.6826 64.8746L73.6827 64.1497C75.359 64.0863 76.5731 62.2651 76.5097 60.5798C76.4463 58.9036 75.0328 57.5898 73.3565 57.6532L43.5829 58.4777C41.9067 58.5411 40.466 60.2627 40.5295 61.9389C40.5929 63.6152 42.0064 64.929 43.6826 64.8655V64.8746Z" fill="black"/>
<path fill-rule="evenodd" clip-rule="evenodd" d="M81.8011 75.9021L43.7641 76.4276C42.0878 76.4548 40.7378 77.832 40.765 79.5082C40.7921 81.1845 42.1694 82.5345 43.8456 82.5073L81.8826 81.9818C83.5589 81.9546 83.9847 80.5865 83.9666 78.9102C83.9485 77.234 83.4773 75.8749 81.8011 75.893V75.9021Z" fill="black"/>
<path fill-rule="evenodd" clip-rule="evenodd" d="M73.8277 86.1591L44.0451 86.2678C42.3688 86.295 40.8829 87.9803 40.91 89.6566C40.9372 91.3328 42.3145 92.6828 43.9907 92.6557H73.9999C75.6761 92.6285 76.9356 90.8345 76.9084 89.1582C76.8812 87.482 75.504 86.1319 73.8277 86.1591Z" fill="black"/>
</svg>
