<svg width="120" height="130" viewBox="0 0 120 130" fill="none" xmlns="http://www.w3.org/2000/svg">
<g clip-path="url(#clip0_20_600)">
<path d="M60.7975 100C53.8521 100 47.1968 97.6225 42.5558 93.6328C40.1225 95.1147 37.3185 95.9126 34.3696 95.9126C33.5316 95.9126 32.6775 95.8475 31.8235 95.7172C23.6372 94.4959 16.8852 87.7053 15.3866 79.1885C14.1296 72.0722 15.87 62.1876 21.6068 57.0743C22.477 56.3089 23.3955 55.6576 24.3624 55.1528C24.1207 52.0261 24.588 48.7855 25.7321 45.5938C28.4394 38.103 34.4662 32.1429 41.46 30.0096C43.6677 29.342 45.9882 29 48.3893 29C53.1914 29 57.8163 30.3679 61.426 32.8594C62.6829 33.7388 63.7948 34.7158 64.7456 35.8069C66.6149 35.0904 68.597 34.7158 70.6435 34.7158C72.7867 34.7158 74.9139 35.1229 76.9604 35.9372C80.6668 37.4028 83.648 40.3828 85.1628 44.0794C85.34 44.5028 85.4851 44.9424 85.6301 45.3821C90.0616 46.0661 94.2675 48.4599 97.716 52.2704C103.517 58.719 107.659 70.1344 103.002 79.9865C99.1663 88.0961 91.7214 92.9326 83.084 92.9326C82.2299 92.9326 81.3597 92.8837 80.5056 92.786C79.6032 92.6883 78.4913 92.5417 77.2827 92.33C75.0911 95.8312 71.3203 98.3227 66.4698 99.3975C64.6811 99.7883 62.7796 100 60.8136 100H60.7975Z" fill="#F9D38F"/>
<path d="M60.7977 95.9289C54.1262 95.9289 46.8424 93.242 42.9105 88.1776C40.2193 91.011 36.513 92.2975 32.4038 91.695C25.9096 90.7342 20.5434 85.2952 19.3509 78.472C18.3196 72.6259 19.6893 64.2069 24.2659 60.1358C25.6517 58.8982 27.2149 58.1491 28.8908 57.8886C27.9561 54.5177 28.1495 50.7397 29.5031 47.0106C31.7914 40.7085 36.8192 35.6929 42.6204 33.9179C48.1799 32.2243 54.658 33.1363 59.1379 36.2303C61.0716 37.5656 62.5219 39.2103 63.4566 41.0993C66.8568 38.6567 71.2883 38.0704 75.4781 39.7314C78.1692 40.7899 80.3286 42.9395 81.4244 45.6264C81.9078 46.8152 82.1656 48.0528 82.1817 49.2741C86.6294 49.0136 91.1092 51.0165 94.7189 55.0225C99.8111 60.6732 103.034 70.4601 99.3599 78.2441C95.8469 85.686 88.9499 89.6106 80.9087 88.7475C79.3778 88.5847 77.0734 88.259 74.9785 87.6239C73.8988 91.5159 70.5792 94.3168 65.5998 95.4241C64.085 95.7661 62.4575 95.9289 60.7977 95.9289ZM46.359 82.0383V82.0709C48.5667 86.5165 53.6428 89.4152 59.5246 89.5292C63.3921 89.6106 66.5667 88.6335 67.9848 86.9562C68.855 85.9303 69.1128 84.5624 68.7744 82.7874C68.5327 81.4684 69.1128 80.1493 70.2247 79.4491L70.5953 79.2537C71.4494 78.8629 72.4002 78.8629 73.2059 79.2211C74.06 79.4654 74.769 80.1168 75.043 81.0124C75.7037 81.5824 78.701 82.4129 83.4064 82.5106C88.0958 82.6083 92.7207 79.0908 93.9132 74.5312C95.3796 68.9294 92.4306 60.6732 87.7252 57.2046C84.8729 55.1039 81.795 55.0876 78.6043 57.172C77.6374 57.7908 76.4772 57.8723 75.4781 57.3512C74.4467 56.8138 73.7699 55.7553 73.7055 54.5665C73.6571 53.6709 73.9794 52.8404 74.5595 52.2053L74.6885 51.9285C75.7037 49.9418 76.1065 48.9647 75.5909 47.9714C74.9785 46.7989 73.8827 45.9032 72.5936 45.5287C67.9526 44.1771 65.4548 47.4014 64.4557 49.209C64.3912 49.6161 64.3268 50.0232 64.214 50.4466C63.8111 51.9936 62.3286 52.9544 60.7493 52.6938C60.6849 52.6938 60.6043 52.6613 60.5398 52.6613L60.3787 52.6124C59.0251 52.2216 58.1065 50.9351 58.2032 49.5021C58.5094 44.747 57.4297 42.1252 54.5774 40.7248C51.3062 39.1289 47.5676 38.8684 44.5864 40.0246C40.2032 41.7507 36.6097 45.5938 35.2077 50.0883C34.4664 52.4658 34.0636 55.967 36.1585 59.4681C36.3035 59.5496 36.4485 59.631 36.5936 59.7124C38.06 60.5755 38.5756 62.4482 37.7538 63.9464L37.2865 64.5977C36.3357 65.6236 34.8209 65.9168 33.5318 65.2328C30.2444 63.4904 28.8102 64.6466 28.3429 65.0211C25.4906 67.3498 24.6688 74.2869 25.8935 78.7C26.6186 81.3544 28.5363 83.7482 30.9051 84.9369C32.1943 85.5883 34.1925 86.1583 36.4969 85.2464C37.8344 84.709 38.2372 84.0413 38.9463 82.82C39.2847 82.2337 39.6714 81.6312 39.9937 80.931C40.4127 80.0191 40.8156 79.4165 41.573 78.9931C41.9919 78.7652 43.0394 78.472 43.4906 78.4232C43.9418 78.3743 44.3608 78.4232 44.8926 78.7163C45.9884 79.3188 46.7296 80.817 46.3429 82.0058L46.359 82.0383Z" fill="black"/>
</g>
<defs>
<clipPath id="clip0_20_600">
<rect width="90" height="71" fill="white" transform="translate(15 29)"/>
</clipPath>
</defs>
</svg>
