<svg width="120" height="130" viewBox="0 0 120 130" fill="none" xmlns="http://www.w3.org/2000/svg">
<path fill-rule="evenodd" clip-rule="evenodd" d="M100.991 38.1466C97.9355 36.1587 94.8269 35.1515 91.7446 35.1515C88.6624 35.1515 84.3946 36.1322 80.4957 40.7706L80.2586 41.0622L78.9941 43.0501L76.7285 39.0213C74.8844 35.7876 71.4597 33.7997 67.7715 33.7997C66.4543 33.7997 65.1634 34.0383 63.8462 34.5684L63.372 34.7539L63.1876 33.4817C62.2656 28.6577 58.0242 25.0795 53.0188 25H41.5855C36.6064 25.106 32.365 28.8168 31.4957 34.0118L31.3903 34.8069L30.7581 34.5419C29.5462 34.0648 28.3081 33.8262 27.0172 33.8262C23.3817 33.8262 19.9306 35.8141 18.0075 39.1273L12.3962 49.1463C9.91988 53.4931 10.8683 59.0592 14.8462 62.5049L15.6892 63.194L14.6882 64.0157C10.8156 67.2759 9.84085 72.842 12.3435 77.1888L18.0339 87.3668C19.8779 90.574 23.3027 92.5884 26.9645 92.5884C28.2817 92.5884 29.5726 92.3498 30.8898 91.8197L31.3376 91.6342L31.522 92.9064C32.4441 97.7304 36.6855 101.282 41.6908 101.388H54.9683L55.1263 101.176C55.8113 102.581 56.8124 103.8 58.1559 104.648C59.5521 105.549 61.1855 106.027 62.8452 106.027C63.6355 106.027 64.3995 105.92 65.1371 105.708L75.464 103.562L75.8064 103.455C77.6769 102.819 79.2839 101.547 80.3113 99.9038L106.655 58.6882C111.134 51.6908 108.763 43.2621 100.912 38.1731L100.991 38.1466Z" fill="#F1A695"/>
<path d="M52.2285 95.3715H41.7436C39.6097 95.3184 37.8183 93.8076 37.4231 91.7402L36.5538 85.4585C35.7108 85.0079 34.8941 84.5308 34.1038 83.9742L28.6505 86.2537C26.5694 87.0753 24.3038 86.2537 23.1973 84.3453L17.5333 74.2203C16.4796 72.3649 16.8747 69.9794 18.5344 68.5747L23.3027 64.7049C23.2764 64.2013 23.25 63.6977 23.25 63.1941C23.25 62.664 23.25 62.1339 23.3027 61.6303L18.5871 57.8135C16.9011 56.3557 16.4796 53.9703 17.5597 52.1149L23.1973 42.0429C24.3301 40.108 26.5957 39.3129 28.5979 40.108L34.1301 42.414C34.9204 41.8839 35.7371 41.3803 36.5538 40.9562L37.3968 34.8335C37.7656 32.6071 39.5833 31.0167 41.6909 30.9902H53.0188C55.1527 31.0167 56.9441 32.554 57.3393 34.6215L58.2086 40.9032C59.0516 41.3538 59.8683 41.8309 60.6586 42.3875L66.1118 40.1345C68.193 39.3129 70.4586 40.1345 71.5651 42.0429L76.9656 51.7173L75.543 53.3076C73.3038 55.8521 71.2753 58.5822 69.5366 61.4978L54.8102 85.8561L55.8113 91.0246L52.2285 95.4245V95.3715ZM35.0258 77.1093L36.3957 78.2226C37.6339 79.2298 39.0038 80.0514 40.4527 80.6876L42.007 81.3502L43.1134 89.3548H49.4624L48.9092 86.3597C48.7774 85.0609 49.0936 83.7622 49.7785 82.6489L64.4785 58.3171C66.0328 55.7196 67.7979 53.2546 69.7473 50.8957L67.1129 46.1777L59.7893 49.2258L58.4194 48.1126C57.1812 47.1054 55.8113 46.2838 54.336 45.6476L52.7817 44.985L51.6753 36.9804H43.1134L42.007 45.038L40.479 45.7006C39.0038 46.3368 37.6339 47.1849 36.3957 48.1921L35.0258 49.2788L27.7022 46.2307L23.3554 53.9968L29.6253 59.0858L29.3882 60.7821C29.2828 61.5508 29.2301 62.3459 29.2301 63.1941C29.2301 64.0423 29.3091 64.8904 29.4145 65.6856L29.6253 67.3554L23.3817 72.4179L27.7285 80.184L35.0522 77.1359L35.0258 77.1093ZM45.4317 74.8034H45.4054C42.1124 74.8034 37.6339 73.5046 34.9468 67.2759C33.2344 63.2736 33.3398 59.0858 35.2629 55.5076C37.2124 51.8764 40.8215 49.2788 44.9312 48.5632C47.5656 48.1126 49.9893 48.7222 51.9124 50.3391C54.5731 52.592 56.1274 56.7268 56.1274 61.6568C56.1274 69.7674 52.0441 74.8034 45.4317 74.8034ZM46.5909 54.3944C46.4065 54.3944 46.1957 54.3944 45.9586 54.4474C43.693 54.8449 41.5855 56.3292 40.5317 58.3436C39.7941 59.7219 39.1882 61.9484 40.4264 64.8904C41.9016 68.3626 43.7984 68.8132 45.4317 68.8132H45.4581C49.357 68.8132 50.2 64.9169 50.2 61.6568C50.2 58.6352 49.357 55.9847 48.0925 54.9245C47.7764 54.6594 47.3549 54.3944 46.6172 54.3944H46.5909Z" fill="black"/>
<path fill-rule="evenodd" clip-rule="evenodd" d="M97.7774 43.1826C93.1672 40.214 88.6624 40.3466 85.0532 44.6404L79.2048 53.8112L58.7355 85.856C58.393 86.3862 58.2613 86.9958 58.314 87.6054L60.2371 97.5714C60.3161 98.393 60.764 99.1352 61.4753 99.5858C62.1602 100.036 63.0296 100.142 63.7936 99.8773L74.0151 97.7569C74.5946 97.5714 75.0952 97.1738 75.4376 96.6437L101.755 55.428C104.706 50.7896 102.414 46.1777 97.8038 43.1826H97.7774ZM74.7 87.6849C74.2785 88.3475 70.9855 93.0125 70.2479 93.2775L66.8495 94.4437C65.664 94.8413 64.4258 94.0462 64.2941 92.8004L63.9253 89.1957C63.8462 88.4271 64.0307 87.6584 64.4522 86.9958L82.6296 58.5557L89.9796 63.8567L74.7263 87.7114L74.7 87.6849ZM96.2231 54.0498L92.8247 59.3773L85.2376 54.4738L88.557 49.2788C89.7952 47.3439 92.2979 46.4958 94.379 47.503C96.8817 48.6957 97.6984 51.7968 96.2495 54.0763L96.2231 54.0498Z" fill="black"/>
</svg>
