<svg width="37" height="40" viewBox="0 0 37 40" fill="none" xmlns="http://www.w3.org/2000/svg">
<path d="M34.0038 27.9404C34.2069 27.3505 34.3111 26.7268 34.3111 26.0953C34.3111 23.8682 33.0273 21.9347 31.1602 20.9914C31.3372 20.7004 31.4909 20.3469 31.6028 19.9103C31.7461 19.3516 31.8034 18.6967 31.7591 18.164C31.7383 17.9093 31.7148 17.6702 31.6888 17.4442C31.4075 14.9338 30.0066 12.6859 27.8686 11.3346C26.4937 10.464 24.3245 9.72858 24.1553 8.82683C24.1474 8.79304 24.1422 8.75666 24.1344 8.72288C24.137 8.64492 24.1422 8.56436 24.1422 8.4864C24.1422 5.93446 22.5876 3.82171 20.3768 3.06808C19.882 2.87577 19.3378 2.76923 18.7414 2.76923C18.7128 2.76923 18.6815 2.76923 18.6529 2.76923C18.6242 2.76923 18.593 2.76923 18.5644 2.76923C17.968 2.76923 17.4238 2.87577 16.929 3.06808C14.7182 3.8243 13.1635 5.93446 13.1635 8.4864C13.1635 8.56696 13.1688 8.64492 13.1714 8.72288C13.1635 8.75666 13.1557 8.79304 13.1505 8.82683C12.9813 9.72858 10.8121 10.4666 9.43715 11.3346C7.29922 12.6859 5.89824 14.9338 5.617 17.4442C5.59096 17.6702 5.56752 17.9093 5.54669 18.164C5.49982 18.6967 5.55971 19.3516 5.70293 19.9103C5.81491 20.3469 5.96855 20.7029 6.14562 20.9914C4.27852 21.9347 2.99472 23.8682 2.99472 26.0953C2.99472 26.7268 3.10148 27.3505 3.302 27.9404C2.13278 29.1488 1.54166 30.8067 1.54166 32.8701V34.2241C1.54166 35.8846 2.89056 37.2308 4.55455 37.2308H32.7538C34.4178 37.2308 35.7667 35.8846 35.7667 34.2241V32.8701C35.7667 30.8067 35.1756 29.1488 34.0064 27.9404H34.0038Z" fill="#80CBA2"/>
<path d="M14.5721 17.5385H23.5023C23.8058 17.5385 24.05 17.2906 24.05 16.9827V15.1589C24.05 13.8048 23.5203 12.508 22.5792 11.5505C22.2475 11.2139 21.8721 10.9295 21.4684 10.7025C21.9467 10.0607 22.227 9.24661 22.227 8.3569C22.227 6.29306 20.7253 4.61539 18.6914 4.61539C16.6574 4.61539 15.0041 6.29046 15.0041 8.3569C15.0041 9.26227 15.3203 10.092 15.8475 10.739C15.4669 10.9608 15.1146 11.2322 14.7984 11.5505C13.8547 12.508 13.5667 13.8048 13.5667 15.1589V16.5183C13.5667 17.0819 14.0167 17.5385 14.5721 17.5385ZM18.6888 6.65574C19.6145 6.65574 20.2136 7.4176 20.2136 8.3569C20.2136 9.29619 19.6119 10.0581 18.6888 10.0581C17.7657 10.0581 17.0123 9.29619 17.0123 8.3569C17.0123 7.4176 17.7631 6.65574 18.6888 6.65574ZM15.5775 14.6371C15.5775 14.0527 15.7703 13.476 16.1663 13.0507C16.6523 12.5289 17.254 12.2993 17.9585 12.1636C18.1925 12.1193 18.4317 12.0984 18.6708 12.0984H19.2879C20.2804 12.1141 20.5916 12.4193 21.1573 12.9933C21.723 13.5674 22.0418 14.3475 22.0418 15.1589C22.0418 15.3468 21.8927 15.4981 21.7075 15.4981H15.9169C15.7317 15.4981 15.5826 15.3468 15.5826 15.1589V14.6397L15.5775 14.6371Z" fill="black"/>
<path d="M32.4027 29.0889C32.0612 28.7524 31.6748 28.468 31.2592 28.241C31.7515 27.5991 32.04 26.7851 32.04 25.8953C32.04 23.8315 30.4942 22.1538 28.4005 22.1538C26.3067 22.1538 24.6047 23.8289 24.6047 25.8953C24.6047 26.8007 24.9303 27.6304 25.4729 28.2775C25.0812 28.4993 24.7185 28.7706 24.393 29.0889C23.4215 30.0465 23.1251 31.3432 23.1251 32.6974V34.0567C23.1251 34.6203 23.5883 35.0769 24.16 35.0769H33.3529C33.6653 35.0769 33.9167 34.829 33.9167 34.5212V32.6974C33.9167 31.3432 33.3715 30.0465 32.4027 29.0889ZM28.3978 24.1942C29.3507 24.1942 29.9675 24.9561 29.9675 25.8953C29.9675 26.8346 29.3481 27.5965 28.3978 27.5965C27.4476 27.5965 26.672 26.8346 26.672 25.8953C26.672 24.9561 27.4449 24.1942 28.3978 24.1942ZM31.5027 33.0366H25.5417C25.3512 33.0366 25.1976 32.8852 25.1976 32.6974V32.1782C25.1976 31.5937 25.3962 31.0171 25.8038 30.5918C26.3041 30.07 26.9235 29.8404 27.6487 29.7047C27.8896 29.6603 28.1358 29.6395 28.3819 29.6395H29.0172C30.0389 29.6551 30.3592 29.9604 30.9416 30.5344C31.5239 31.1084 31.8521 31.8885 31.8521 32.7C31.8521 32.8878 31.6986 33.0392 31.508 33.0392L31.5027 33.0366Z" fill="black"/>
<path d="M11.8341 28.241C12.3265 27.5991 12.615 26.7851 12.615 25.8953C12.615 23.8315 11.0692 22.1538 8.97542 22.1538C6.88167 22.1538 5.17967 23.8289 5.17967 25.8953C5.17967 26.8007 5.50524 27.6304 6.04787 28.2775C5.65612 28.4993 5.29349 28.7706 4.96791 29.0889C3.99647 30.0465 3.70001 31.3432 3.70001 32.6974V34.0567C3.70001 34.6203 4.16323 35.0769 4.73498 35.0769H13.9279C14.2402 35.0769 14.4917 34.829 14.4917 34.5212V32.6974C14.4917 31.3432 13.9464 30.0465 12.9776 29.0889C12.6362 28.7524 12.2497 28.468 11.8341 28.241ZM8.97277 24.1968C9.92568 24.1968 10.5424 24.9587 10.5424 25.898C10.5424 26.8372 9.92303 27.5991 8.97277 27.5991C8.02251 27.5991 7.24695 26.8372 7.24695 25.898C7.24695 24.9587 8.01986 24.1968 8.97277 24.1968ZM12.0777 33.0392H6.11669C5.92611 33.0392 5.77259 32.8878 5.77259 32.7V32.1808C5.77259 31.5963 5.97111 31.0197 6.37874 30.5944C6.87902 30.0726 7.49841 29.843 8.22368 29.7073C8.46455 29.6629 8.71072 29.6421 8.95689 29.6421H9.59216C10.6139 29.6577 10.9342 29.963 11.5165 30.537C12.0988 31.111 12.4271 31.8912 12.4271 32.7026C12.4271 32.8905 12.2735 33.0418 12.083 33.0418L12.0777 33.0392Z" fill="black"/>
<path d="M27.8715 19.3063C27.8715 19.916 28.4282 20.4002 29.0682 20.2926C29.5677 20.2081 29.9424 19.7392 29.9059 19.2422C29.6354 15.4478 29.0838 14.5511 27.7128 12.7552C27.4552 12.417 27.0155 12.2351 26.5993 12.335C25.8604 12.5118 25.5794 13.3624 26.3937 14.3974C27.5437 15.9039 27.8715 17.2771 27.8715 19.3063Z" fill="black"/>
<path d="M21.9215 27.8889C21.1343 28.1636 20.8286 28.2714 20.291 28.3639C18.9969 28.5847 17.6671 28.446 16.4417 27.9813C16.2303 27.9017 16.0239 27.8221 15.8201 27.7502C15.303 27.5654 14.7323 27.8375 14.5489 28.3613C14.3655 28.8851 14.6381 29.4576 15.1552 29.6425C16.3627 30.3357 17.1295 30.4616 18.411 30.4616C19.6924 30.4616 20.5764 30.4616 22.4615 29.6425C22.9787 29.4576 23.2513 28.8825 23.0679 28.3613C22.8844 27.8401 22.4412 27.704 21.9215 27.8914V27.8889Z" fill="black"/>
<path d="M8.36483 20.2261C9.14108 20.5458 9.66675 19.8604 9.66675 19.3079C9.66675 17.2824 9.99904 15.9269 11.2029 14.4231C11.7885 13.6584 11.9111 12.7479 11.3745 12.5075C10.9033 12.1776 10.236 12.2645 9.88465 12.707C8.6481 14.7376 8.02437 14.9346 7.7166 18.3361C7.66757 18.8859 7.83099 20.0061 8.36756 20.2261H8.36483Z" fill="black"/>
</svg>
