<svg width="120" height="130" viewBox="0 0 120 130" fill="none" xmlns="http://www.w3.org/2000/svg">
<path d="M110.282 90.8062C110.941 88.889 111.279 86.862 111.279 84.8097C111.279 77.5716 107.115 71.2879 101.06 68.2221C101.634 67.2761 102.132 66.1275 102.496 64.7086C102.96 62.8928 103.146 60.7644 103.002 59.033C102.935 58.2053 102.859 57.4283 102.774 56.6935C101.862 48.5349 97.3184 41.2292 90.3846 36.8374C85.9254 34.0081 78.8902 31.6179 78.3413 28.6872C78.3159 28.5774 78.299 28.4592 78.2737 28.3494C78.2821 28.096 78.299 27.8342 78.299 27.5808C78.299 19.287 73.257 12.4206 66.0867 9.97127C64.4821 9.34628 62.717 9 60.7829 9C60.69 9 60.5887 9 60.4958 9C60.4029 9 60.3015 9 60.2086 9C58.2746 9 56.5095 9.34628 54.9048 9.97127C47.7345 12.429 42.6925 19.287 42.6925 27.5808C42.6925 27.8426 42.7094 28.096 42.7179 28.3494C42.6925 28.4592 42.6672 28.5774 42.6503 28.6872C42.1013 31.6179 35.0662 34.0165 30.6069 36.8374C23.6731 41.2292 19.1294 48.5349 18.2173 56.6935C18.1328 57.4283 18.0568 58.2053 17.9893 59.033C17.8373 60.7644 18.0315 62.8928 18.496 64.7086C18.8592 66.1275 19.3575 67.2846 19.9318 68.2221C13.8763 71.2879 9.71262 77.5716 9.71262 84.8097C9.71262 86.862 10.0589 88.889 10.7092 90.8062C6.91714 94.7335 5 100.122 5 106.828V111.228C5 116.625 9.3748 121 14.7715 121H106.228C111.625 121 116 116.625 116 111.228V106.828C116 100.122 114.083 94.7335 110.291 90.8062H110.282Z" fill="#F1A695"/>
<path d="M47.2607 57H76.2237C77.2078 57 78 56.1944 78 55.1938V49.2665C78 44.8655 76.2821 40.6511 73.2298 37.5391C72.154 36.4452 70.9365 35.5209 69.6272 34.7832C71.1783 32.6972 72.0873 30.0515 72.0873 27.1599C72.0873 20.4525 67.2171 15 60.6206 15C54.024 15 48.6618 20.444 48.6618 27.1599C48.6618 30.1024 49.6875 32.7989 51.3971 34.9019C50.1629 35.6227 49.0204 36.5045 47.9946 37.5391C44.934 40.6511 44 44.8655 44 49.2665V53.6844C44 55.5161 45.4594 57 47.2607 57ZM60.6122 21.6311C63.6144 21.6311 65.5575 24.1072 65.5575 27.1599C65.5575 30.2126 63.6061 32.6887 60.6122 32.6887C57.6183 32.6887 55.1749 30.2126 55.1749 27.1599C55.1749 24.1072 57.61 21.6311 60.6122 21.6311ZM50.5215 47.5706C50.5215 45.6711 51.1469 43.7971 52.4312 42.4149C54.0074 40.719 55.9588 39.9727 58.2438 39.5318C59.0027 39.3876 59.7783 39.3198 60.5538 39.3198H62.5553C65.7743 39.3707 66.7834 40.3628 68.6181 42.2283C70.4528 44.0939 71.4869 46.6293 71.4869 49.2665C71.4869 49.877 71.0032 50.3689 70.4027 50.3689H51.6223C51.0218 50.3689 50.5381 49.877 50.5381 49.2665V47.579L50.5215 47.5706Z" fill="black"/>
<path d="M105.09 94.5391C103.982 93.4452 102.729 92.5209 101.381 91.7832C102.978 89.6971 103.913 87.0515 103.913 84.1599C103.913 77.4525 98.8999 72 92.1094 72C85.3189 72 79.7989 77.444 79.7989 84.1599C79.7989 87.1024 80.8548 89.7989 82.6147 91.9019C81.3441 92.6227 80.168 93.5045 79.1121 94.5391C75.9615 97.6511 75 101.866 75 106.267V110.684C75 112.516 76.5023 114 78.3566 114H108.171C109.184 114 110 113.194 110 112.194V106.267C110 101.866 108.232 97.6511 105.09 94.5391ZM92.1008 78.6311C95.1913 78.6311 97.1916 81.1072 97.1916 84.1599C97.1916 87.2126 95.1827 89.6887 92.1008 89.6887C89.0189 89.6887 86.5036 87.2126 86.5036 84.1599C86.5036 81.1072 89.0103 78.6311 92.1008 78.6311ZM102.171 107.369H82.8379C82.2198 107.369 81.7219 106.877 81.7219 106.267V104.579C81.7219 102.68 82.3657 100.806 83.6878 99.4234C85.3103 97.7274 87.3191 96.9812 89.6713 96.5403C90.4525 96.3961 91.2509 96.3283 92.0493 96.3283H94.1096C97.4233 96.3792 98.4621 97.3713 100.351 99.2368C102.239 101.102 103.304 103.638 103.304 106.275C103.304 106.886 102.806 107.377 102.188 107.377L102.171 107.369Z" fill="black"/>
<path d="M38.3809 91.7832C39.9777 89.6971 40.9134 87.0515 40.9134 84.1599C40.9134 77.4525 35.8999 72 29.1094 72C22.3189 72 16.7989 77.444 16.7989 84.1599C16.7989 87.1024 17.8548 89.7989 19.6147 91.9019C18.3441 92.6227 17.168 93.5045 16.1121 94.5391C12.9615 97.6511 12 101.866 12 106.267V110.684C12 112.516 13.5023 114 15.3566 114H45.1714C46.1844 114 47 113.194 47 112.194V106.267C47 101.866 45.2315 97.6511 42.0895 94.5391C40.9821 93.4452 39.7287 92.5209 38.3809 91.7832ZM29.1008 78.6396C32.1913 78.6396 34.1916 81.1157 34.1916 84.1684C34.1916 87.2211 32.1827 89.6971 29.1008 89.6971C26.0189 89.6971 23.5036 87.2211 23.5036 84.1684C23.5036 81.1157 26.0103 78.6396 29.1008 78.6396ZM39.1707 107.377H19.8379C19.2198 107.377 18.7219 106.886 18.7219 106.275V104.588C18.7219 102.688 19.3657 100.814 20.6878 99.4319C22.3103 97.7359 24.3191 96.9897 26.6713 96.5488C27.4525 96.4046 28.2509 96.3368 29.0493 96.3368H31.1096C34.4233 96.3876 35.4621 97.3798 37.3507 99.2453C39.2394 101.111 40.3039 103.646 40.3039 106.283C40.3039 106.894 39.806 107.386 39.1879 107.386L39.1707 107.377Z" fill="black"/>
<path d="M90.3937 62.7454C90.3937 64.7271 92.1994 66.3008 94.2751 65.9511C95.8952 65.6763 97.1102 64.1526 96.9921 62.5372C96.1145 50.2056 94.3257 47.2913 89.879 41.4543C89.0437 40.3552 87.6177 39.764 86.2677 40.0888C83.8714 40.6633 82.9601 43.4277 85.6011 46.7917C89.3306 51.6877 90.3937 56.1507 90.3937 62.7454Z" fill="black"/>
<path d="M71.0965 90.6388C68.5435 91.5317 67.552 91.8821 65.8086 92.1825C61.6114 92.9002 57.2985 92.4496 53.3243 90.9392C52.6386 90.6805 51.9693 90.4219 51.3084 90.1882C49.6311 89.5874 47.7804 90.4719 47.1855 92.1742C46.5906 93.8765 47.4747 95.7373 49.1519 96.3381C53.0682 98.5911 55.5552 99 59.7111 99C63.867 99 66.734 99 72.8481 96.3381C74.5254 95.7373 75.4094 93.8681 74.8145 92.1742C74.2196 90.4803 72.782 90.038 71.0965 90.6471V90.6388Z" fill="black"/>
<path d="M27.1291 65.7348C29.6467 66.7738 31.3516 64.5462 31.3516 62.7508C31.3516 56.1678 32.4293 51.7624 36.3337 46.875C38.2329 44.3897 38.6304 41.4307 36.8902 40.6494C35.362 39.5771 33.1978 39.8597 32.0583 41.2977C28.0478 47.8974 26.025 48.5374 25.0268 59.5923C24.8678 61.3793 25.3978 65.02 27.138 65.7348H27.1291Z" fill="black"/>
</svg>
