<svg width="120" height="130" viewBox="0 0 120 130" fill="none" xmlns="http://www.w3.org/2000/svg">
<path d="M46.6057 116.996C46.2487 116.996 45.883 116.965 45.5045 116.901C38.7507 115.738 33.2058 110.102 31.0334 102.192C29.5751 96.8885 30.0224 91.758 30.4569 86.8004C30.6161 84.9634 30.771 83.1956 30.8226 81.4797C28.6287 79.7594 26.5896 77.8922 24.7313 75.9126C22.5159 73.5483 22.4169 70.0689 24.4904 67.4539L28.0781 62.9372C28.3362 62.613 28.6201 62.2845 28.904 61.9474C29.261 61.5324 29.7816 60.9273 29.9665 60.5945C29.9407 58.8613 29.6396 56.9811 29.3213 54.9929C29.1019 53.6097 28.8696 52.1791 28.7276 50.7311C27.7769 41.2049 31.2183 34.1769 38.1743 31.4409C38.9185 31.147 39.6885 31 40.4542 31C43.3579 31 45.7798 33.0877 46.3433 36.083C46.9283 39.208 45.3066 42.186 42.3986 43.3271C40.1617 44.2045 41.1554 50.5193 41.6888 53.9123C41.8308 54.8027 41.9598 55.6282 42.0501 56.3587L42.1577 57.1756C42.5621 60.1969 43.0611 63.9572 40.2649 67.7824C39.4691 68.8716 38.6432 69.9306 37.8129 70.9723C37.8688 71.0198 37.9291 71.0673 37.985 71.1149C38.2216 71.3051 38.4969 71.478 38.7722 71.6595C40.2348 72.6234 42.6868 74.2399 43.2761 77.4427C43.9386 81.0388 43.4912 84.7387 43.0955 88.002C42.9234 89.4413 42.7599 90.7941 42.6954 92.0476C42.5965 93.9624 42.39 103.571 47.9651 104.53C51.1397 105.075 53.2476 107.802 52.9766 111.018C52.6927 114.372 49.8922 117 46.6014 117L46.6057 116.996Z" fill="#80CBA2"/>
<path d="M82.3988 116C79.1079 116 76.3073 113.402 76.0234 110.087C75.7524 106.909 77.8603 104.213 81.0351 103.675C86.6104 102.73 86.4039 93.2334 86.3049 91.3408C86.2404 90.1061 86.0769 88.7646 85.9048 87.342C85.5091 84.1165 85.066 80.4552 85.7242 76.905C86.3135 73.7393 88.7656 72.1414 90.2282 71.1887C90.5036 71.0093 90.7832 70.8384 91.0155 70.6504C91.0714 70.6034 91.1317 70.5564 91.1876 70.5095C90.3573 69.4841 89.5314 68.4332 88.7355 67.3566C85.9393 63.5799 86.4383 59.8631 86.8427 56.8768L86.9502 56.0651C87.0405 55.3431 87.1696 54.5271 87.3116 53.647C87.845 50.2933 88.8387 44.0559 86.6018 43.1844C83.6937 42.0565 82.0719 39.1129 82.6569 36.0241C83.2162 33.0678 85.6381 31 88.5462 31C89.3163 31 90.082 31.1453 90.8305 31.4358C97.7867 34.1358 101.228 41.0824 100.277 50.4984C100.131 51.9338 99.9032 53.3437 99.6838 54.7108C99.3655 56.676 99.0644 58.5344 99.0385 60.2476C99.2235 60.5723 99.744 61.1747 100.101 61.5848C100.389 61.9138 100.669 62.2384 100.927 62.5589L104.48 66.9849C106.588 69.6123 106.489 73.0514 104.27 75.3883C102.416 77.345 100.372 79.1906 98.1782 80.8909C98.2298 82.587 98.3846 84.3343 98.5438 86.15C98.9783 91.0545 99.4257 96.1256 97.9674 101.368C95.7906 109.19 90.2498 114.761 83.4958 115.906C83.1172 115.97 82.7473 116 82.3945 116H82.3988Z" fill="#80CBA2"/>
<path d="M40.3047 36.1324C34.2954 38.4361 33.1133 44.7154 33.6936 50.3925C34.0375 53.7575 34.9531 57.2614 34.9574 60.6433C34.9574 62.5553 33.2466 64.0419 32.086 65.4654C30.891 66.931 29.696 68.4008 28.5053 69.8664C27.8864 70.6287 27.7789 71.5973 28.5053 72.3512C30.9727 74.9202 33.6936 77.1733 36.6596 79.1738C36.363 78.6684 36.0664 78.163 35.7698 77.6535C36.2254 85.0025 33.8183 92.5621 35.8601 99.8016C37.3301 105.011 41.0225 110.01 46.7481 110.97C49.0091 111.35 49.9763 107.959 47.7024 107.58C39.8963 106.27 38.3747 97.2621 38.7099 90.8607C38.9292 86.6365 40.1499 81.8607 39.359 77.6535C39.0323 75.9183 36.9648 75.1392 35.658 74.1032C34.016 72.7976 32.4943 71.3699 31.0457 69.8622V72.347C33.0789 69.8496 35.2196 67.4111 37.1453 64.8379C39.0495 62.2984 38.4735 59.8136 38.0953 56.8571C37.4591 51.8918 34.794 41.999 41.259 39.5185C43.3867 38.7014 42.4625 35.3028 40.3047 36.1282V36.1324Z" fill="black"/>
<path d="M89.2812 36.1324C95.0044 38.4361 96.1302 44.7154 95.5775 50.3925C95.25 53.7575 94.378 57.2614 94.3739 60.6433C94.3739 62.5553 96.0033 64.0419 97.1086 65.4654C98.2467 66.931 99.3847 68.4008 100.519 69.8664C101.108 70.6287 101.211 71.5973 100.519 72.3512C98.1689 74.9202 95.5775 77.1733 92.7528 79.1738C93.0353 78.6684 93.3177 78.163 93.6002 77.6534C93.1663 85.0025 95.4588 92.5621 93.5142 99.8016C92.1142 105.011 88.5976 110.01 83.1447 110.97C80.9913 111.35 80.0702 107.959 82.2358 107.58C89.6701 106.27 91.1194 97.2621 90.8001 90.8607C90.5913 86.6365 89.4286 81.8607 90.1819 77.6534C90.493 75.9183 92.4621 75.1392 93.7066 74.1032C95.2705 72.7976 96.7197 71.3699 98.0993 69.8622C98.0993 70.6919 98.0993 71.5215 98.0993 72.347C96.1629 69.8496 94.1242 67.4111 92.2902 64.8379C90.4766 62.2984 91.0252 59.8136 91.3855 56.8571C91.9913 51.8918 94.5295 41.999 88.3724 39.5185C86.346 38.7014 87.2262 35.3028 89.2812 36.1282V36.1324Z" fill="black"/>
</svg>
