<svg width="52" height="56" viewBox="0 0 52 56" fill="none" xmlns="http://www.w3.org/2000/svg">
<path d="M20.0768 50.3983C19.923 50.3983 19.7655 50.3853 19.6024 50.3573C16.6931 49.8565 14.3045 47.4286 13.3687 44.0213C12.7405 41.7368 12.9333 39.5267 13.1204 37.3911C13.189 36.5998 13.2557 35.8383 13.2779 35.0991C12.3329 34.3581 11.4545 33.5537 10.654 32.701C9.69966 31.6825 9.65704 30.1837 10.5502 29.0572L12.0957 27.1116C12.2069 26.9719 12.3292 26.8304 12.4515 26.6852C12.6053 26.5064 12.8295 26.2458 12.9092 26.1024C12.8981 25.3558 12.7683 24.5459 12.6312 23.6894C12.5367 23.0936 12.4366 22.4773 12.3755 21.8536C11.966 17.7499 13.4484 14.7225 16.4448 13.5439C16.7654 13.4173 17.0971 13.354 17.4269 13.354C18.6778 13.354 19.721 14.2533 19.9638 15.5436C20.2158 16.8897 19.5172 18.1726 18.2645 18.6641C17.3009 19.0421 17.729 21.7623 17.9588 23.2239C18.0199 23.6075 18.0755 23.9631 18.1144 24.2778L18.1607 24.6296C18.3349 25.9311 18.5499 27.551 17.3454 29.1987C17.0026 29.6679 16.6468 30.1241 16.2892 30.5728C16.3132 30.5933 16.3392 30.6138 16.3633 30.6343C16.4652 30.7162 16.5838 30.7907 16.7024 30.8689C17.3324 31.2841 18.3887 31.9804 18.6425 33.3601C18.9279 34.9092 18.7352 36.503 18.5647 37.9087C18.4906 38.5287 18.4202 39.1115 18.3924 39.6514C18.3498 40.4762 18.2608 44.6152 20.6624 45.0286C22.0299 45.2632 22.9379 46.438 22.8212 47.8233C22.6989 49.2681 21.4926 50.4002 20.075 50.4002L20.0768 50.3983Z" fill="#9597C9"/>
<path d="M35.4947 49.9694C34.0771 49.9694 32.8707 48.8505 32.7484 47.4224C32.6316 46.0531 33.5396 44.8919 34.9072 44.66C37.3089 44.2533 37.2199 40.1622 37.1773 39.347C37.1495 38.8151 37.0791 38.2372 37.005 37.6244C36.8345 36.2349 36.6436 34.6578 36.9272 33.1284C37.181 31.7648 38.2373 31.0765 38.8674 30.6661C38.986 30.5888 39.1064 30.5152 39.2065 30.4342C39.2306 30.4139 39.2565 30.3937 39.2806 30.3735C38.923 29.9318 38.5672 29.4791 38.2243 29.0153C37.0198 27.3884 37.2348 25.7873 37.409 24.5009L37.4553 24.1513C37.4942 23.8403 37.5498 23.4888 37.611 23.1096C37.8407 21.665 38.2688 18.9781 37.3052 18.6026C36.0525 18.1168 35.3539 16.8488 35.6059 15.5182C35.8468 14.2447 36.8901 13.354 38.1428 13.354C38.4745 13.354 38.8044 13.4166 39.1268 13.5417C42.1233 14.7048 43.6058 17.6972 43.1963 21.7533C43.1333 22.3717 43.0351 22.979 42.9405 23.5679C42.8034 24.4144 42.6737 25.215 42.6626 25.953C42.7423 26.0928 42.9665 26.3523 43.1203 26.529C43.2445 26.6707 43.3649 26.8106 43.4761 26.9486L45.0068 28.8552C45.9148 29.987 45.8722 31.4685 44.916 32.4751C44.1173 33.318 43.237 34.113 42.292 34.8455C42.3142 35.5761 42.3809 36.3288 42.4495 37.1109C42.6366 39.2236 42.8294 41.4081 42.2012 43.6662C41.2635 47.0359 38.8766 49.4357 35.9672 49.9289C35.8042 49.9565 35.6448 49.9694 35.4928 49.9694H35.4947Z" fill="#9597C9"/>
<path d="M17.363 15.5649C14.7744 16.5572 14.2652 19.2622 14.5151 21.7077C14.6633 23.1572 15.0577 24.6666 15.0595 26.1234C15.0595 26.947 14.3226 27.5874 13.8226 28.2006C13.3079 28.8319 12.7931 29.4651 12.2802 30.0964C12.0135 30.4248 11.9673 30.842 12.2802 31.1668C13.343 32.2734 14.5151 33.244 15.7928 34.1058C15.665 33.8881 15.5372 33.6704 15.4095 33.4508C15.6058 36.6166 14.5688 39.873 15.4484 42.9916C16.0816 45.2357 17.6722 47.3892 20.1386 47.8028C21.1126 47.9661 21.5292 46.5057 20.5497 46.3424C17.1871 45.7782 16.5316 41.8976 16.676 39.1401C16.7704 37.3205 17.2963 35.2632 16.9556 33.4508C16.8149 32.7034 15.9242 32.3678 15.3613 31.9215C14.654 31.3591 13.9985 30.7441 13.3745 30.0946V31.165C14.2503 30.0892 15.1725 29.0388 16.002 27.9303C16.8223 26.8363 16.5742 25.766 16.4112 24.4924C16.1372 22.3535 14.9892 18.092 17.7741 17.0235C18.6906 16.6715 18.2925 15.2075 17.363 15.563V15.5649Z" fill="black"/>
<path d="M38.4599 15.5649C40.9252 16.5572 41.4102 19.2622 41.1721 21.7077C41.031 23.1572 40.6554 24.6666 40.6537 26.1234C40.6537 26.947 41.3555 27.5874 41.8317 28.2006C42.3219 28.8319 42.8122 29.4651 43.3006 30.0964C43.5546 30.4248 43.5987 30.842 43.3006 31.1668C42.2884 32.2734 41.1721 33.244 39.9553 34.1058C40.077 33.8881 40.1987 33.6704 40.3204 33.4508C40.1334 36.6166 41.121 39.873 40.2833 42.9916C39.6802 45.2357 38.1654 47.3892 35.8164 47.8028C34.8888 47.9661 34.492 46.5057 35.4249 46.3424C38.6274 45.7782 39.2517 41.8976 39.1141 39.1401C39.0242 37.3205 38.5234 35.2632 38.8479 33.4508C38.9819 32.7034 39.8301 32.3678 40.3662 31.9215C41.0399 31.3591 41.6641 30.7441 42.2584 30.0946C42.2584 30.452 42.2584 30.8094 42.2584 31.165C41.4243 30.0892 40.5461 29.0388 39.756 27.9303C38.9748 26.8363 39.2111 25.766 39.3663 24.4924C39.6273 22.3535 40.7207 18.092 38.0684 17.0235C37.1955 16.6715 37.5746 15.2075 38.4599 15.563V15.5649Z" fill="black"/>
</svg>
