<svg width="120" height="130" viewBox="0 0 120 130" fill="none" xmlns="http://www.w3.org/2000/svg">
<path d="M38.9647 110.454C35.5587 110.454 32.5794 108.171 31.5442 104.765C30.8093 102.346 31.2597 99.8176 32.6427 97.8656C31.2123 96.2061 29.7977 94.5465 28.399 92.8791C26.9291 94.918 24.5662 96.1586 21.9267 96.1586C19.2873 96.1586 16.8058 94.91 15.3439 92.8159C13.9293 90.7928 13.6132 88.2561 14.4825 85.8537C17.928 76.3231 24.9692 70.6332 33.3065 70.6332C33.9308 70.6332 34.563 70.6648 35.1952 70.7281C35.5982 62.865 38.5301 55.8791 43.7458 50.6081C48.4637 45.8349 54.5645 43.4167 61.8902 43.4167C62.6884 43.4167 63.5023 43.4404 64.3242 43.5036C64.8537 33.657 69.4925 28.3385 73.7283 25.5094C75.0323 24.6401 76.5258 24.1738 78.0352 24.1738C81.4413 24.1738 84.4285 26.4656 85.4558 29.8716C85.9695 31.5707 85.9062 33.3171 85.3372 34.8819C86.8703 36.6757 88.443 38.4538 90.0472 40.224C91.4302 39.1098 93.1766 38.4775 95.0732 38.4775C97.7285 38.4775 100.186 39.7262 101.656 41.8204C103.071 43.8434 103.387 46.3723 102.518 48.7826C99.072 58.3131 92.0308 64.003 83.6935 64.003C83.0692 64.003 82.437 63.9713 81.8048 63.9081C81.4018 71.7712 78.4699 78.7571 73.2542 84.0282C68.5363 88.8013 62.4355 91.2195 55.1098 91.2195C54.3116 91.2195 53.4976 91.1958 52.6758 91.1326C52.1463 100.979 47.5075 106.298 43.2717 109.127C41.9677 109.996 40.4741 110.462 38.9647 110.462V110.454Z" fill="#9597C9"/>
<path d="M92.8537 45.6533C92.3953 46.9098 91.771 48.2374 90.9729 49.4623C86.4605 44.8077 82.1377 39.9713 78.0284 34.9611C78.3682 34.6608 78.7238 34.3684 79.1189 34.0997C81.5213 32.4954 79.2691 28.5837 76.843 30.2037C70.2127 34.6292 69.2802 42.7767 70.2206 50.1024C62.1758 48.2611 53.8938 48.3481 47.7456 54.5753C41.8424 60.5576 40.0248 68.7684 41.06 76.9002C41.1074 77.2716 41.1627 77.6667 41.226 78.0619C39.7166 77.5798 38.2309 77.1136 36.8005 76.7422C28.4395 74.5531 22.4731 80.3299 19.7783 87.7663C18.7905 90.5006 23.1527 91.6781 24.1326 88.9675C24.8676 86.9286 26.0529 84.7238 27.6809 83.0879C27.7362 83.167 27.7678 83.2618 27.831 83.3408C31.9167 88.3511 36.0972 93.2823 40.3646 98.1345C39.7087 99.0275 38.8947 99.8415 37.8594 100.529C35.4571 102.133 37.7093 106.045 40.1354 104.425C46.7657 99.9995 47.6982 91.8519 46.7578 84.5262C54.8026 86.3675 63.0846 86.2806 69.2328 80.0533C75.1361 74.079 76.9536 65.8603 75.9184 57.7285C75.871 57.3571 75.8157 56.9619 75.7525 56.5668C77.2619 57.0488 78.7475 57.5151 80.1779 57.8865C88.5389 60.0755 94.5053 54.2988 97.2001 46.8624C98.1879 44.1281 93.8336 42.9506 92.8458 45.6612L92.8537 45.6533ZM31.6164 80.8515C31.8535 80.8041 32.0668 80.725 32.3118 80.7013C34.73 80.4484 37.1719 81.6023 39.3846 82.3767C40.2697 82.6849 41.1706 82.9615 42.0636 83.2381C42.5931 86.6599 42.9408 90.2872 42.3086 93.5036C38.6813 89.3468 35.1014 85.1347 31.6085 80.8594L31.6164 80.8515ZM45.9833 79.5397C45.3669 75.8729 44.8454 72.1744 45.5013 68.4918C45.7384 67.1721 46.1414 65.884 46.6234 64.6274C50.5826 69.938 54.4707 75.288 57.8056 81.0095C53.9966 81.5311 49.9504 80.6934 45.9833 79.5317V79.5397ZM62.2548 79.6661C58.3746 72.8145 53.641 66.5399 48.9468 60.2336C49.7213 59.1272 50.5668 58.0683 51.5626 57.1595C52.8586 55.9741 54.2257 55.1522 55.6403 54.5595C59.5047 61.0318 64.0487 67.0931 69.1538 72.6407C68.166 74.4267 66.9332 76.0704 65.4317 77.4534C64.4122 78.3859 63.3533 79.105 62.2548 79.6661ZM71.4929 66.121C71.3823 66.7375 71.1847 67.3381 71.0188 67.9465C67.028 63.4342 63.4402 58.6057 60.2871 53.469C63.7721 53.224 67.4231 54.0221 71.0109 55.0732C71.6273 58.74 72.1489 62.4384 71.4929 66.121ZM77.6095 52.2441C76.7245 51.9359 75.8236 51.6593 74.9306 51.3827C74.2668 47.0837 73.8637 42.4606 75.3652 38.7464C79.3481 43.567 83.5128 48.2374 87.8671 52.7261C86.9267 53.3504 85.8757 53.793 84.6903 53.9194C82.2721 54.1723 79.8302 53.0185 77.6175 52.2519L77.6095 52.2441Z" fill="black"/>
</svg>
