<svg width="120" height="130" viewBox="0 0 120 130" fill="none" xmlns="http://www.w3.org/2000/svg">
<path fill-rule="evenodd" clip-rule="evenodd" d="M43.28 105.73C39.12 105.73 35.18 104.18 32.17 101.35C29.08 98.49 27.23 94.39 27.11 90.12L26 48.38C25.89 44.08 27.47 40 30.46 36.89C33.44 33.79 37.45 32.02 41.76 31.91L76.23 31C76.38 31 76.52 31 76.66 31C85.5 31 92.6 37.87 92.83 46.64L92.99 52.8H92.94L93.89 88.37C94.01 92.68 92.42 96.77 89.43 99.88C86.55 102.91 82.43 104.73 78.16 104.84L43.71 105.72C43.57 105.72 43.42 105.72 43.28 105.72V105.73Z" fill="#DADBEB"/>
<path fill-rule="evenodd" clip-rule="evenodd" d="M41.91 37.9101C36.28 38.0501 31.85 42.6801 32 48.2201L33.11 89.9501C33.18 92.6201 34.32 95.1501 36.28 96.9701C38.24 98.8101 40.85 99.7901 43.56 99.7201L78.01 98.8401C80.72 98.7701 83.28 97.6501 85.12 95.7101C86.98 93.7801 87.97 91.2001 87.9 88.5201L86.79 46.7901H86.84C86.69 41.2301 82.01 36.8601 76.4 37.0001L41.93 37.9101H41.91ZM76.51 41.6301C79.53 41.5601 82.05 43.9001 82.14 46.9101L83.25 88.6401C83.27 90.0701 82.74 91.4601 81.75 92.5101H81.73C80.74 93.5601 79.36 94.1601 77.89 94.2101L43.44 95.0901C41.99 95.1101 40.59 94.5901 39.52 93.6101C38.46 92.6301 37.85 91.2701 37.8 89.8101L36.69 48.0801C36.62 45.1001 38.99 42.6101 42.03 42.5201L76.5 41.6401L76.51 41.6301Z" fill="black"/>
<path fill-rule="evenodd" clip-rule="evenodd" d="M57.1596 58.6867L42.027 59.0926C40.7216 59.0926 39.6822 60.1669 39.7063 61.4322C39.7063 62.7214 40.7942 63.748 42.0753 63.7242L57.2079 63.3183C58.5133 63.3183 58.8276 62.244 58.8276 60.9786C58.8276 59.6894 58.4408 58.6628 57.1596 58.6867Z" fill="black"/>
<path fill-rule="evenodd" clip-rule="evenodd" d="M42.2688 71.722L51.2129 71.1729C52.5183 71.1251 53.4369 69.7404 53.3886 68.4512C53.3402 67.162 52.2524 66.1832 50.947 66.2309L42.1962 66.8517C40.8909 66.8994 39.7789 68.2125 39.8272 69.5017C39.8756 70.7909 40.9634 71.7698 42.2688 71.722Z" fill="black"/>
<path fill-rule="evenodd" clip-rule="evenodd" d="M57.4497 74.3481L42.3171 74.7539C41.0117 74.7539 39.9723 75.8283 39.9964 77.0936C39.9964 78.3828 41.0843 79.4094 42.3654 79.3855L57.498 78.9797C58.8034 78.9797 59.1177 77.9053 59.1177 76.64C59.1177 75.3508 58.7309 74.3242 57.4497 74.3481Z" fill="black"/>
<path fill-rule="evenodd" clip-rule="evenodd" d="M57.4497 81.1523L42.3171 81.5581C41.0117 81.5581 39.9723 82.6325 39.9964 83.8978C39.9964 85.187 41.0843 86.2136 42.3654 86.1897L57.498 85.7839C58.8034 85.7839 59.1177 84.7095 59.1177 83.4442C59.1177 82.155 58.7309 81.1284 57.4497 81.1523Z" fill="black"/>
<path fill-rule="evenodd" clip-rule="evenodd" d="M78.3356 58.6867L63.203 59.0926C61.8976 59.0926 60.8582 60.1669 60.8823 61.4322C60.8823 62.7214 61.9701 63.748 63.2513 63.7242L78.3839 63.3183C79.6893 63.3183 80.0036 62.244 80.0036 60.9786C80.0036 59.6894 79.6168 58.6628 78.3356 58.6867Z" fill="black"/>
<path fill-rule="evenodd" clip-rule="evenodd" d="M57.1596 51.1423L42.027 51.5481C40.7216 51.5481 39.6822 52.6225 39.7063 53.8878C39.7063 55.177 40.7942 56.2036 42.0753 56.1797L57.2079 55.7739C58.5133 55.7739 58.8276 54.6995 58.8276 53.4342C58.8276 52.145 58.4408 51.1184 57.1596 51.1423Z" fill="black"/>
<path fill-rule="evenodd" clip-rule="evenodd" d="M78.3356 51.1423L63.203 51.5481C61.8976 51.5481 60.8582 52.6225 60.8823 53.8878C60.8823 55.177 61.9701 56.2036 63.2513 56.1797L78.3839 55.7739C79.6893 55.7739 80.0036 54.6995 80.0036 53.4342C80.0036 52.145 79.6168 51.1184 78.3356 51.1423Z" fill="black"/>
<path fill-rule="evenodd" clip-rule="evenodd" d="M63.4447 71.722L72.3889 71.1729C73.6943 71.1251 74.6129 69.7404 74.5645 68.4512C74.5162 67.162 73.4284 66.1832 72.123 66.2309L63.3722 66.8517C62.0668 66.8994 60.9549 68.2125 61.0032 69.5017C61.0515 70.7909 62.1394 71.7698 63.4447 71.722Z" fill="black"/>
<path fill-rule="evenodd" clip-rule="evenodd" d="M78.6498 74.3481L63.5172 74.7539C62.2119 74.7539 61.1724 75.8283 61.1966 77.0936C61.1966 78.3828 62.2844 79.4094 63.5656 79.3855L78.6982 78.9797C80.0035 78.9797 80.3178 77.9053 80.3178 76.64C80.3178 75.3508 79.931 74.3242 78.6498 74.3481Z" fill="black"/>
<path fill-rule="evenodd" clip-rule="evenodd" d="M78.6498 81.1523L63.5172 81.5581C62.2119 81.5581 61.1724 82.6325 61.1966 83.8978C61.1966 85.187 62.2844 86.2136 63.5656 86.1897L78.6982 85.7839C80.0035 85.7839 80.3178 84.7095 80.3178 83.4442C80.3178 82.155 79.931 81.1284 78.6498 81.1523Z" fill="black"/>
</svg>
