<svg width="120" height="130" viewBox="0 0 120 130" fill="none" xmlns="http://www.w3.org/2000/svg">
<path d="M103.478 78.7967C101.564 74.7835 98.4339 72.0173 95.3714 70.1581C95.3489 68.4576 95.1012 66.5531 94.3131 64.6712C94.268 64.5578 94.2005 64.4671 94.1554 64.3764C97.0152 63.7416 99.4922 61.9277 100.956 59.3203C101.159 58.9802 101.339 58.6174 101.429 58.436C103.343 54.1507 103.298 49.2533 101.294 45.0361C100.303 42.9501 98.8617 41.0909 97.1053 39.6171C96.4298 36.9417 94.9886 34.4703 92.9395 32.5657C91.2281 30.9786 89.2014 29.8676 87.0172 29.2781C86.1164 27.9177 85.0131 26.6706 83.7295 25.6277C80.8247 23.2696 77.1767 21.9546 73.4387 21.9546C70.8491 21.9546 68.2821 22.5894 65.9852 23.7685C62.9678 25.3329 60.4908 27.8497 58.9596 30.8199C54.9063 32.0216 51.416 34.8104 49.2092 38.7782C48.6012 39.9572 48.331 41.1816 48.2859 42.4286C45.854 43.6076 43.6022 45.1721 41.6881 47.1447C39.3688 49.5481 37.6123 52.4729 36.5089 55.6472C33.0637 56.1006 29.7085 57.2343 26.6685 58.9575C20.9939 62.1998 16.693 67.392 14.5312 73.5818C12.3695 79.7716 12.5046 86.5283 14.914 92.6274C17.2334 98.4771 21.2867 102.853 27.3666 106.027C29.7985 107.274 32.5007 107.955 35.1579 107.955C35.5407 107.955 35.901 107.955 36.1036 107.932L90.2373 105.574H90.5525C96.7225 105.574 100.956 103.465 103.883 98.9306L104.131 98.5678L104.311 98.1597C106.856 92.446 106.54 85.1906 103.5 78.774L103.478 78.7967Z" fill="#F1A695"/>
<path d="M35.1579 102.332C33.3789 102.332 31.5775 101.878 29.9337 101.039C25.0697 98.4998 21.9622 95.1895 20.1608 90.5868C18.2693 85.7574 18.1567 80.4065 19.8681 75.509C21.5794 70.6116 24.9797 66.5077 29.4833 63.9456C32.7034 62.1091 36.3288 61.1341 40.0218 61.1341C40.3596 61.1341 40.6974 61.1341 41.0126 61.1568C41.463 57.393 43.1293 53.856 45.7414 51.1352C48.9615 47.7795 53.4877 45.8523 58.1489 45.8523C60.1756 45.8523 62.1572 46.2151 64.0487 46.8953C69.363 48.8678 73.3487 53.2438 74.7898 58.7081C75.4204 58.6174 76.0959 58.5494 76.7714 58.5494C79.0007 58.5494 81.23 59.1162 83.1666 60.1818C85.8463 61.6556 87.963 64.0136 89.1564 66.8478C90.0346 68.9564 89.7869 71.4052 89.5167 73.4684C92.1739 74.6021 96.4073 76.9828 98.4114 81.2227C100.731 86.0975 101.023 91.6978 99.177 95.847C97.8484 97.9103 95.8218 99.9282 90.5526 99.9282H90.1472L35.8785 102.286C35.6533 102.286 35.4281 102.309 35.1804 102.309L35.1579 102.332ZM84.878 77.6403L84.5627 77.3229L84.3375 77.0735L84.1799 76.8468L84.0223 76.552L83.9097 76.2346L83.8196 75.9172L83.7746 75.509V75.0102L83.8421 74.7608C83.8421 74.6248 83.8872 74.4661 83.9998 74.0353C84.7879 70.929 83.8872 67.7547 81.7029 65.9635C80.3068 64.8072 78.5954 64.195 76.7714 64.195C74.4746 64.195 72.3129 65.1927 70.8267 66.9158C70.1511 67.7321 69.2053 68.8431 67.8543 68.8431C67.1787 68.8431 66.5257 68.571 65.8952 68.0268C63.9586 66.2356 65.715 64.2404 66.3906 63.4922L66.5932 63.2654C67.4489 62.2905 68.4172 61.4516 69.4756 60.7487C68.5748 56.6448 65.4898 52.9037 61.8419 51.566C60.8511 51.2032 59.7928 51.0218 58.6668 51.0218C55.3567 51.0218 51.7313 52.677 49.1642 55.3298C45.3586 58.9802 44.8182 64.263 47.5204 71.0424C48.0833 72.4708 47.4078 74.126 45.9666 74.6928C45.6513 74.8062 45.3811 74.8742 45.1109 74.8968C43.8049 74.8968 42.7465 74.2166 42.3187 73.1283C42.161 72.7656 42.0259 72.3801 41.9133 71.9947C41.0576 69.3419 39.4589 66.8478 38.8509 66.8478C32.5458 67.3013 27.1414 71.4505 25.0697 77.4136C22.4802 84.8051 25.5201 92.4687 32.4332 96.0284C33.2889 96.4819 34.2121 96.7086 35.1128 96.7086C35.6082 96.7086 88.4809 94.3959 89.0438 94.3733C89.3591 94.3733 92.6467 94.4639 93.9978 93.5797C96.9477 91.6751 94.5158 86.2335 93.2998 83.6714C92.0613 81.064 89.3366 79.0461 85.8012 78.1165L85.6211 78.0484L84.8329 77.6403H84.878Z" fill="black"/>
<path d="M86.3191 45.739L86.2291 45.5123L86.1615 45.2175L86.1165 44.8094V44.4466L86.184 44.0838C86.5443 42.8368 86.2516 41.6805 85.3959 40.8869C85.0131 40.5241 84.5177 40.2747 84.0223 40.1613C83.9773 40.4788 83.8872 40.8415 83.7971 41.227C83.4819 42.3833 82.4685 43.2222 81.2751 43.2903H81.23C80.8022 43.2903 80.5995 43.2676 80.3518 43.1996C79.6312 43.0182 79.0233 42.542 78.663 41.8845C78.2802 41.227 78.1901 40.4561 78.3928 39.7306C78.9332 37.758 78.2576 35.672 76.6814 34.3796C75.7806 33.6314 74.6322 33.2233 73.4613 33.2233C72.6506 33.2233 71.8625 33.4274 71.1419 33.7901C69.3404 34.7197 68.2596 36.647 68.3722 38.6649C68.3722 38.7783 68.3722 38.937 68.3722 39.0504C68.3722 39.3224 68.3046 39.5718 68.2145 39.7986L68.1019 40.0933L67.9218 40.4108L67.6966 40.7055L67.4039 40.9776L66.5932 41.4764L66.1654 41.5898L65.8727 41.6351C65.8727 41.6351 65.715 41.6351 65.625 41.6351C65.4673 41.6351 65.3097 41.6351 65.2647 41.6351C65.1971 41.6351 65.0845 41.6124 64.9719 41.5898C64.5216 41.4764 64.0937 41.4311 63.6884 41.4311C61.7969 41.4311 60.0404 42.4514 59.1172 44.1065C58.6668 44.9227 57.8337 45.4669 56.8654 45.5349C56.2124 45.5349 55.762 45.4216 55.3116 45.1722C53.9831 44.4013 53.4877 42.7234 54.2082 41.3404C56.0322 38.0754 59.4099 35.9894 63.0804 35.7854C63.7334 32.8605 65.8051 30.2077 68.5523 28.7567C70.061 27.9858 71.7499 27.5776 73.4388 27.5776C75.8932 27.5776 78.2802 28.4392 80.1717 29.981C81.6128 31.16 82.7162 32.7018 83.3918 34.425C85.5085 34.425 87.5576 35.2186 89.1339 36.6923C90.8453 38.2795 91.8586 40.5014 91.9036 42.8141C93.7727 43.8571 95.3039 45.4669 96.2046 47.3941C97.5107 50.1149 97.5332 53.2665 96.2947 56.0327C96.2497 56.1461 96.1821 56.2821 96.092 56.3955C95.3264 57.8012 93.8852 58.7535 92.2414 58.8669L84.1799 59.411H84.1574C82.6937 59.411 81.4777 58.2547 81.3651 56.7809C81.3201 56.0327 81.5678 55.3071 82.0407 54.7403C82.5361 54.1735 83.2116 53.8334 83.9547 53.788L91.3632 53.2892C91.7235 52.1102 91.6559 50.8858 91.138 49.7975C90.5526 48.5732 89.4717 47.6662 88.1431 47.3034L87.8504 47.1901L87.4676 47.0087L87.1298 46.782L86.8596 46.5326L86.6569 46.3058L86.5894 46.2151L86.2741 45.6483L86.3191 45.739Z" fill="black"/>
</svg>
