<svg width="120" height="130" viewBox="0 0 120 130" fill="none" xmlns="http://www.w3.org/2000/svg">
<path d="M86.6502 93.9723C81.1971 93.751 75.2014 93.668 68.3376 93.668C62.1791 93.668 56.0207 93.751 49.8351 93.834C43.7309 93.917 37.5996 94 31.4954 94C29.2708 94 27.2089 93.2529 25.5269 91.8141L25.2827 91.6204L24.7944 91.15L24.5773 90.901C24.4145 90.7349 24.2789 90.5413 24.1432 90.3476C22.7325 88.632 22 86.5291 22 84.2879C22 73.0539 22.3798 61.0728 23.1666 47.6806C23.2208 46.7121 23.4379 45.7437 23.7906 44.7752L23.872 44.4985L24.0619 44.0835C24.306 43.5854 24.5502 43.0874 24.8758 42.6447C25.9338 40.9845 27.4531 39.767 29.2436 39.0476C30.356 38.6049 31.4954 38.3835 32.6891 38.3835H32.9062C41.8318 38.3558 50.9203 38.0238 59.7375 37.6917C68.9344 37.3874 78.4299 37.0277 87.8439 37H88.4678C89.6073 37 90.7467 37.1937 91.8048 37.6087C92.3203 37.8024 92.7815 38.0238 93.2156 38.2728L93.6768 38.5495L94.138 38.9092C94.5449 39.2136 95.1418 39.684 95.7115 40.4034C97.285 42.285 98.0989 44.6092 97.9904 46.9888C97.692 53.2422 97.4207 59.4956 97.1765 65.749C96.9323 72.0301 96.661 78.3112 96.3626 84.5922C96.3083 85.7544 96.037 86.6675 95.7929 87.3869C94.572 91.316 91.0723 93.9447 87.0028 93.9447H86.623L86.6502 93.9723Z" fill="#9597C9"/>
<path d="M91.9722 46.7919C92 46.1301 91.722 45.4959 91.2772 44.9995C91.1381 44.834 90.9435 44.6962 90.7767 44.5583C90.6933 44.5031 90.6377 44.448 90.5543 44.3928C90.4153 44.3101 90.2763 44.255 90.1373 44.1998C89.7202 44.0343 89.3032 43.9792 88.8584 44.0068C69.9253 44.0343 51.02 45.3028 32.0869 45.3856C31.6977 45.3856 31.3362 45.4407 30.9748 45.5786C30.4188 45.7716 30.0017 46.1301 29.7237 46.5713C29.6125 46.7368 29.5013 46.9298 29.4179 47.1228C29.2789 47.4262 29.1677 47.7571 29.1677 48.1156C28.4448 60.1386 28 72.1617 28 84.2123C28 84.9844 28.278 85.5359 28.695 85.9772C28.7507 86.0323 28.7785 86.115 28.8341 86.1702C28.8897 86.2253 28.9453 86.2529 29.0009 86.3081C29.4457 86.6941 30.0017 86.9975 30.7802 86.9975C49.7133 86.9975 68.6464 86.2805 87.5517 86.9975C88.9696 87.0526 89.8036 86.1978 90.1095 85.1499C90.2207 84.8741 90.3319 84.5984 90.3319 84.2399C90.9435 71.748 91.3884 59.2562 92 46.7644L91.9722 46.7919ZM61.1121 63.0341C54.523 58.9529 47.934 54.8716 41.3449 50.7904C54.3006 50.5147 67.2563 49.9356 80.212 49.715C73.8454 54.1547 67.4509 58.622 61.0843 63.0617L61.1121 63.0341ZM33.5604 81.4823C33.616 71.9687 33.9496 62.4826 34.45 52.9965C42.9018 58.2359 51.3536 63.4753 59.7776 68.7147C60.556 69.2111 61.8071 69.2662 62.5856 68.7147C70.4535 63.2271 78.2937 57.7395 86.1616 52.2519C85.7168 61.9862 85.3275 71.7205 84.8549 81.4272C67.7567 80.9032 50.6308 81.3996 33.5326 81.4547L33.5604 81.4823Z" fill="#010101"/>
</svg>
