<svg width="120" height="130" viewBox="0 0 120 130" fill="none" xmlns="http://www.w3.org/2000/svg">
<g clip-path="url(#clip0_20_643)">
<path d="M74.118 103.097C65.8097 103.097 58.1675 98.0223 53.112 89.2007L50.5646 84.7119L52.8376 80.0669C54.9539 75.8122 56.0904 70.4256 56.0904 65C56.0904 59.5743 54.9147 54.1877 52.8376 49.9331L50.5646 45.2881L53.112 40.7992C58.1283 31.9777 65.8097 26.9033 74.118 26.9033C89.2063 26.9033 101.042 43.6487 101.042 65C101.042 86.3513 89.2063 103.097 74.118 103.097Z" fill="#9597C9"/>
<path d="M74.118 107C68.9449 107 63.9285 105.283 59.5 102.082C55.0715 105.283 50.0551 107 44.882 107C27.5599 107 14.0392 88.5372 14.0392 65C14.0392 41.4628 27.5599 23 44.8428 23C50.0159 23 55.0323 24.7175 59.4608 27.9182C63.8893 24.7175 68.9057 23 74.0788 23C91.4009 23 104.922 41.4628 104.922 65C104.922 88.5372 91.3618 107 74.0788 107H74.118ZM72.8247 82.9164C73.4126 83.3848 73.8829 83.5799 74.118 83.5799C75.9599 83.5799 81.4466 76.9833 81.4466 65C81.4466 53.0167 75.9208 46.4201 74.118 46.4201C73.8829 46.4201 73.4126 46.6152 72.8247 47.0836C74.7059 52.6654 75.7248 58.7546 75.7248 65C75.7248 71.2454 74.745 77.3736 72.8247 82.9164ZM44.8428 46.4201C43.0009 46.4201 37.5142 53.0167 37.5142 65C37.5142 76.9833 43.0401 83.5799 44.8428 83.5799C46.6456 83.5799 52.2106 76.9833 52.2106 65C52.2106 53.0167 46.6848 46.4201 44.8428 46.4201Z" fill="#9597C9"/>
<path d="M44.8428 103.097C29.7545 103.097 17.919 86.3513 17.919 65C17.919 43.6487 29.7545 26.9033 44.8428 26.9033C59.9311 26.9033 71.8058 43.6487 71.8058 65C71.8058 86.3513 59.9703 103.097 44.8428 103.097Z" fill="#9597C9"/>
<path d="M74.118 32.7583C68.4354 32.7583 63.2623 36.2323 59.5 41.8531C55.6985 36.2323 50.5646 32.7583 44.882 32.7583C33.2817 32.7583 23.8368 47.2397 23.8368 64.9999C23.8368 82.7602 33.2817 97.2416 44.882 97.2416C50.5646 97.2416 55.7377 93.7676 59.5 88.1468C63.3015 93.7676 68.4354 97.2416 74.118 97.2416C85.7183 97.2416 95.1632 82.7602 95.1632 64.9999C95.1632 47.2397 85.7183 32.7583 74.118 32.7583ZM74.118 93.3382C69.2192 93.3382 64.7907 89.8642 61.6555 84.3996C64.3204 79.0129 65.9272 72.2992 65.9272 64.9999C65.9272 57.7007 64.3204 51.026 61.6555 45.6003C64.7907 40.0966 69.2192 36.6616 74.118 36.6616C83.5629 36.6616 91.2442 49.3866 91.2442 64.9999C91.2442 80.6133 83.5629 93.3382 74.118 93.3382ZM27.7166 64.9999C27.7166 49.3866 35.3979 36.6616 44.8428 36.6616C54.2877 36.6616 62.0082 49.3866 62.0082 64.9999C62.0082 80.6133 54.3269 93.3382 44.8428 93.3382C35.3587 93.3382 27.7166 80.6133 27.7166 64.9999Z" fill="black"/>
<path d="M82.152 63.0483C76.6654 63.0483 72.1977 67.4982 72.1977 72.9628C72.1977 78.4275 76.6654 82.8773 82.152 82.8773C87.6387 82.8773 92.1456 78.4275 92.1456 72.9628C92.1456 67.4982 87.6779 63.0483 82.152 63.0483Z" fill="black"/>
<path d="M52.8768 82.9554C58.3961 82.9554 62.8704 78.4991 62.8704 73.0019C62.8704 67.5047 58.3961 63.0483 52.8768 63.0483C47.3576 63.0483 42.8833 67.5047 42.8833 73.0019C42.8833 78.4991 47.3576 82.9554 52.8768 82.9554Z" fill="black"/>
</g>
<defs>
<clipPath id="clip0_20_643">
<rect width="91" height="84" fill="white" transform="translate(14 23)"/>
</clipPath>
</defs>
</svg>
