<svg width="120" height="130" viewBox="0 0 120 130" fill="none" xmlns="http://www.w3.org/2000/svg">
<path d="M60.118 103.097C51.8097 103.097 44.1675 98.0223 39.112 89.2007L36.5646 84.7119L38.8376 80.0669C40.9539 75.8122 42.0904 70.4256 42.0904 65C42.0904 59.5743 40.9147 54.1877 38.8376 49.9331L36.5646 45.2881L39.112 40.7992C44.1283 31.9777 51.8097 26.9033 60.118 26.9033C75.2063 26.9033 87.0418 43.6487 87.0418 65C87.0418 86.3513 75.2063 103.097 60.118 103.097Z" fill="#DADBEB"/>
<path d="M60.118 107C54.9449 107 49.9285 105.283 45.5 102.082C41.0715 105.283 36.0551 107 30.882 107C13.5599 107 0.0391846 88.5372 0.0391846 65C0.0391846 41.4628 13.5599 23 30.8428 23C36.0159 23 41.0323 24.7175 45.4608 27.9182C49.8893 24.7175 54.9057 23 60.0788 23C77.4009 23 90.9216 41.4628 90.9216 65C90.9216 88.5372 77.3617 107 60.0788 107H60.118ZM58.8247 82.9164C59.4126 83.3848 59.8829 83.5799 60.118 83.5799C61.9599 83.5799 67.4466 76.9833 67.4466 65C67.4466 53.0167 61.9207 46.4201 60.118 46.4201C59.8829 46.4201 59.4126 46.6152 58.8247 47.0836C60.7058 52.6654 61.7248 58.7546 61.7248 65C61.7248 71.2454 60.745 77.3736 58.8247 82.9164ZM30.8428 46.4201C29.0009 46.4201 23.5142 53.0167 23.5142 65C23.5142 76.9833 29.04 83.5799 30.8428 83.5799C32.6456 83.5799 38.2106 76.9833 38.2106 65C38.2106 53.0167 32.6847 46.4201 30.8428 46.4201Z" fill="#DADBEB"/>
<path d="M30.8428 103.097C15.7545 103.097 3.91904 86.3513 3.91904 65C3.91904 43.6487 15.7545 26.9033 30.8428 26.9033C45.9311 26.9033 57.8058 43.6487 57.8058 65C57.8058 86.3513 45.9703 103.097 30.8428 103.097Z" fill="#DADBEB"/>
<path d="M60.118 32.7583C54.4354 32.7583 49.2623 36.2323 45.5 41.8531C41.6985 36.2323 36.5646 32.7583 30.882 32.7583C19.2817 32.7583 9.83679 47.2397 9.83679 64.9999C9.83679 82.7602 19.2817 97.2416 30.882 97.2416C36.5646 97.2416 41.7377 93.7676 45.5 88.1468C49.3015 93.7676 54.4354 97.2416 60.118 97.2416C71.7184 97.2416 81.1632 82.7602 81.1632 64.9999C81.1632 47.2397 71.7184 32.7583 60.118 32.7583ZM60.118 93.3382C55.2192 93.3382 50.7907 89.8642 47.6555 84.3996C50.3204 79.0129 51.9272 72.2992 51.9272 64.9999C51.9272 57.7007 50.3204 51.026 47.6555 45.6003C50.7907 40.0966 55.2192 36.6616 60.118 36.6616C69.5629 36.6616 77.2442 49.3866 77.2442 64.9999C77.2442 80.6133 69.5629 93.3382 60.118 93.3382ZM13.7166 64.9999C13.7166 49.3866 21.3979 36.6616 30.8428 36.6616C40.2877 36.6616 48.0082 49.3866 48.0082 64.9999C48.0082 80.6133 40.3269 93.3382 30.8428 93.3382C21.3588 93.3382 13.7166 80.6133 13.7166 64.9999Z" fill="black"/>
<path d="M68.152 63.0483C62.6654 63.0483 58.1977 67.4982 58.1977 72.9628C58.1977 78.4275 62.6654 82.8773 68.152 82.8773C73.6387 82.8773 78.1456 78.4275 78.1456 72.9628C78.1456 67.4982 73.6779 63.0483 68.152 63.0483Z" fill="black"/>
<path d="M38.8768 82.9554C44.3961 82.9554 48.8704 78.4991 48.8704 73.0019C48.8704 67.5047 44.3961 63.0483 38.8768 63.0483C33.3576 63.0483 28.8833 67.5047 28.8833 73.0019C28.8833 78.4991 33.3576 82.9554 38.8768 82.9554Z" fill="black"/>
</svg>
