<svg width="120" height="130" viewBox="0 0 120 130" fill="none" xmlns="http://www.w3.org/2000/svg">
<path d="M59.5 112C33.2994 112 12 90.7006 12 64.5C12 38.2994 33.2994 17 59.5 17C85.7006 17 107 38.2994 107 64.5C107 90.7006 85.7006 112 59.5 112Z" fill="#F1A695"/>
<path d="M59.5 23C36.5885 23 18 41.5885 18 64.5C18 87.4115 36.5885 106 59.5 106C82.4115 106 101 87.4115 101 64.5C101 41.5885 82.4115 23 59.5 23ZM45.1889 32.9427C46.372 35.946 47.3048 39.0403 47.8054 42.2256C48.2377 44.9786 48.852 48.801 47.8736 51.4857C47.009 53.852 43.9148 52.9646 41.9353 52.8509C39.2278 52.6916 36.5203 53.0329 34.3588 54.7621C29.8539 58.3342 30.6957 64.591 32.7207 69.278C33.79 71.7807 35.724 74.8295 34.6774 77.628C33.8355 79.9032 31.6513 81.3594 29.2851 81.4276C26.4638 76.4222 24.8484 70.6431 24.8484 64.5C24.8484 50.4847 33.2212 38.4032 45.2116 32.9427H45.1889ZM59.5 99.1743C49.1705 99.1743 39.9104 94.6012 33.5625 87.4342C37.9764 85.7506 41.3438 81.6779 41.7305 76.7862C42.0263 72.9411 40.1606 69.6875 38.7728 66.2747C37.9992 64.3862 36.6796 60.3591 39.5918 59.6993C42.3904 59.0622 45.3936 60.2908 48.2832 59.54C51.3775 58.7437 53.5617 56.332 54.449 53.3059C56.5195 46.2982 54.3125 37.3566 51.6277 30.7585C54.1532 30.1669 56.7925 29.8257 59.5 29.8257C78.6118 29.8257 94.1743 45.3882 94.1743 64.5C94.1743 83.6118 78.6118 99.1743 59.5 99.1743Z" fill="black"/>
<path d="M87.0833 62.6948C85.6107 61.0481 83.2732 60.2705 81.2629 59.4929C77.2425 57.9377 72.9649 57.2744 68.6639 57C67.0277 57 65.4149 57 63.7786 57.0229C62.3294 57.0229 61.0204 57.2287 59.7815 58.052C57.9349 59.2871 57.3038 61.2539 56.6727 63.2437C56.0182 65.3706 55.504 67.4976 56.8129 69.5102C57.7479 70.9739 59.5478 71.66 60.6932 72.4834C63.1943 74.2901 63.6617 77.6292 63.3345 80.6939C63.1475 82.3634 62.5398 84.0101 62.6099 85.7254C62.7034 88.4013 64.4565 90.7112 67.0277 91.6031C71.0715 92.9982 74.8115 90.5053 77.0789 87.395C77.9437 86.2057 78.645 84.8792 79.4631 83.6671C80.5383 82.0661 81.8473 80.6481 83.2732 79.3674C84.6289 78.1324 86.0314 77.0575 87.13 75.5938C88.439 73.8785 89 71.7972 89 69.6703C89 67.4061 88.6961 64.4787 87.1066 62.7176L87.0833 62.6948ZM81.6837 67.0173C81.5668 66.8343 81.6369 66.7886 81.6837 67.0173V67.0173ZM69.3184 85.1536C69.3184 85.1536 69.3418 85.1536 69.3886 85.1994C68.5237 85.4052 69.2951 85.0393 69.3184 85.1536ZM69.6457 85.611C69.6457 85.611 69.6691 85.5424 69.6691 85.451C69.9262 85.7025 70.1366 85.9541 69.6457 85.611ZM81.5668 71.3856C80.9591 72.4376 79.7436 73.2381 78.8086 74.0157C76.4945 76.0283 74.4843 78.4068 72.8714 80.9683C72.2637 81.9289 71.7494 82.9352 71.0482 83.85C70.978 83.9186 70.7443 84.2159 70.6976 84.2617C70.4872 84.4904 70.2534 84.7191 69.9963 84.9021C70.1366 84.7877 69.8093 84.9478 69.6457 85.0393C69.6457 84.9935 69.6457 84.9478 69.6457 84.9707C69.8794 83.1868 70.3469 81.4486 70.4171 79.6418C70.5573 76.4857 69.8794 73.1237 68.1263 70.4479C67.355 69.2815 66.4433 68.2523 65.3447 67.3832C64.8071 66.9487 64.2461 66.5599 63.6384 66.2168C63.4981 66.1253 63.3579 66.0567 63.2176 65.9881C63.3111 65.6679 63.3812 65.3477 63.4514 65.0733C63.5449 64.7531 63.6617 64.4101 63.7786 64.0899C63.802 64.0213 63.8254 63.9526 63.8487 63.884C63.9656 63.884 64.0591 63.884 64.176 63.884C65.672 63.884 67.1913 63.884 68.6873 63.884C71.4923 64.067 74.1336 64.4329 76.8451 65.2563C78.0372 65.6222 79.2293 66.0339 80.3513 66.537C80.7487 66.72 81.3565 66.9716 81.7304 67.1774C81.7304 67.246 81.7304 67.2689 81.7304 67.3604C81.7304 67.6577 81.8473 68.0236 81.8941 68.298C82.0343 69.373 82.1512 70.5165 81.5902 71.4542L81.5668 71.3856Z" fill="black"/>
</svg>
