<svg width="120" height="130" viewBox="0 0 120 130" fill="none" xmlns="http://www.w3.org/2000/svg">
<path d="M59.5 112C33.2994 112 12 90.7006 12 64.5C12 38.2994 33.2994 17 59.5 17C85.7006 17 107 38.2994 107 64.5C107 90.7006 85.7006 112 59.5 112Z" fill="#F9D38F"/>
<path d="M59.5 22.7256C36.4371 22.7256 17.7256 41.437 17.7256 64.4999C17.7256 87.5629 36.4371 106.274 59.5 106.274C82.5629 106.274 101.274 87.5629 101.274 64.4999C101.274 41.437 82.5629 22.7256 59.5 22.7256ZM73.3332 32.4821C72.7835 33.2379 72.2109 33.9937 71.6384 34.7265C71.1345 35.3678 70.6307 36.032 70.0581 36.5817C69.852 36.7878 69.7375 36.9481 69.4855 37.0855C69.3939 37.1313 69.371 37.1542 69.3481 37.1771C68.661 37.1313 67.9511 36.4901 67.3556 36.1694C66.5311 35.7343 65.6837 35.3678 64.8363 35.0472C63.0957 34.4059 61.1948 34.0853 59.3397 34.0395C57.5991 33.9937 55.7669 34.2227 54.095 34.7265C52.446 35.2075 50.8886 36.2839 49.1709 36.5588C46.9265 36.9252 45.1172 35.2533 43.6743 33.444C48.438 31.0163 53.7972 29.5964 59.5229 29.5964C64.447 29.5964 69.1191 30.627 73.3561 32.4592L73.3332 32.4821ZM37.9257 37.1313C40.216 40.04 42.9414 42.605 46.7432 43.2921C51.3238 44.1166 54.8508 40.8186 59.3168 40.9332C63.6454 41.0477 67.0121 45.1701 71.4323 43.7273C73.4706 43.0631 74.9593 41.4828 76.2647 39.8567C77.3182 38.5513 78.3488 37.2 79.3336 35.8259C84.9448 39.7193 89.3421 45.2159 91.9072 51.6287C90.533 52.3616 89.1818 53.1402 87.8534 53.9418C85.7693 55.2015 83.7997 56.5756 83.0439 59.0262C82.2881 61.4539 83.0439 64.1106 83.5935 66.4925C83.8913 67.7521 84.5783 69.9279 83.5935 71.0959C83.1126 71.6684 82.1278 71.9662 81.5323 72.3784C80.6162 73.0197 79.8375 73.7755 79.2878 74.7832C77.9366 77.2796 78.9443 79.8447 80.2039 82.112C81.5094 84.471 82.6774 86.9445 84.0516 89.2805C79.1733 94.1359 72.8522 97.5255 65.7982 98.808C66.2563 96.22 66.6914 93.6091 67.035 90.9983C67.5159 87.2193 66.9433 83.7152 63.8515 81.2188C62.546 80.1653 61.5841 79.6386 61.3093 77.8751C61.0345 76.1574 61.4238 74.371 61.4925 72.6304C61.6528 68.6224 60.5993 64.8664 57.3013 62.37C54.1637 59.9881 50.4535 59.8965 46.7432 60.9271C45.0714 61.3852 43.2621 62.2555 41.4985 62.1181C39.5747 61.9577 39.6205 60.263 39.3457 58.7056C38.3609 52.9799 34.6965 48.5368 29.6121 46.4985C31.7878 42.9028 34.582 39.7193 37.857 37.1313H37.9257ZM85.4486 77.9667C85.4486 77.9667 85.3799 78.0125 85.3112 78.0125C85.4028 78.0125 85.4257 77.9896 85.4486 77.9667ZM24.5964 64.4999C24.5964 60.3088 25.3751 56.3237 26.7264 52.5906C28.6731 53.2548 30.3908 54.6289 31.4672 56.3924C33.0933 59.0491 32.5436 62.3929 34.1697 65.0725C35.8645 67.8895 39.1167 69.1263 42.3001 68.9888C45.4149 68.8514 49.2625 66.2863 52.2628 67.317C55.6066 68.4621 54.5759 72.7449 54.4385 75.4016C54.2782 78.4476 54.6675 81.6998 56.7059 84.1275C57.5991 85.2039 59.3397 85.8452 60.0497 87.0132C60.6451 87.9751 60.3703 89.5325 60.21 90.5631C59.7977 93.5175 59.2481 96.472 58.7671 99.4035C39.8496 99.0142 24.5735 83.532 24.5735 64.5457L24.5964 64.4999ZM88.7466 83.5091C88.1511 82.3411 87.5557 81.173 86.9373 80.0508C86.5709 79.3637 86.2502 78.5392 85.7693 77.9209C85.7693 77.9209 85.7693 77.898 85.7464 77.8751C87.3038 77.5315 89.0902 75.4245 89.7543 74.1648C90.6475 72.5387 91.014 70.5691 90.9224 68.714C90.785 66.4008 89.9146 64.2709 89.6627 61.9806C89.6169 61.6371 89.5711 61.2478 89.6627 60.9271C89.7085 60.8126 89.2963 61.1333 89.9834 60.6752C90.6933 60.1942 91.4491 59.782 92.182 59.3239C92.7317 59.0033 93.3042 58.7285 93.8768 58.4078C94.2203 60.3775 94.4494 62.3929 94.4494 64.4541C94.4494 71.4623 92.3423 77.9896 88.7924 83.4633L88.7466 83.5091Z" fill="black"/>
</svg>
