<svg width="52" height="57" viewBox="0 0 52 57" fill="none" xmlns="http://www.w3.org/2000/svg">
<path d="M25.6315 48.47C14.3451 48.47 5.16992 39.2948 5.16992 28.0084C5.16992 16.722 14.3451 7.54688 25.6315 7.54688C36.9179 7.54688 46.093 16.722 46.093 28.0084C46.093 39.2948 36.9179 48.47 25.6315 48.47Z" fill="#80CBA2"/>
<path d="M25.6299 10.0127C15.6951 10.0127 7.63477 18.073 7.63477 28.0078C7.63477 37.9426 15.6951 46.0029 25.6299 46.0029C35.5647 46.0029 43.625 37.9426 43.625 28.0078C43.625 18.073 35.5647 10.0127 25.6299 10.0127ZM31.5888 14.2155C31.352 14.5411 31.1054 14.8666 30.8587 15.1823C30.6417 15.4586 30.4246 15.7447 30.178 15.9815C30.0892 16.0703 30.0399 16.1393 29.9313 16.1985C29.8919 16.2182 29.882 16.2281 29.8721 16.238C29.5762 16.2182 29.2703 15.942 29.0138 15.8039C28.6587 15.6164 28.2936 15.4586 27.9286 15.3205C27.1788 15.0442 26.3599 14.9061 25.5608 14.8864C24.811 14.8666 24.0218 14.9653 23.3016 15.1823C22.5912 15.3895 21.9204 15.8532 21.1804 15.9716C20.2136 16.1295 19.4342 15.4093 18.8126 14.6299C20.8647 13.5841 23.1733 12.9724 25.6397 12.9724C27.7609 12.9724 29.7735 13.4164 31.5986 14.2056L31.5888 14.2155ZM16.3363 16.2182C17.3229 17.4712 18.4969 18.5762 20.1347 18.8721C22.1078 19.2273 23.6271 17.8066 25.5509 17.856C27.4156 17.9053 28.8658 19.6811 30.7699 19.0596C31.648 18.7735 32.2892 18.0927 32.8516 17.3923C33.3054 16.8299 33.7494 16.2478 34.1736 15.6559C36.5907 17.3331 38.4849 19.7009 39.5899 22.4633C38.9979 22.779 38.4159 23.1144 37.8437 23.4597C36.9459 24.0023 36.0974 24.5943 35.7719 25.6499C35.4463 26.6957 35.7719 27.8401 36.0086 28.8661C36.1369 29.4087 36.4329 30.346 36.0086 30.8491C35.8014 31.0958 35.3772 31.224 35.1207 31.4016C34.7261 31.6779 34.3906 32.0034 34.1539 32.4375C33.5718 33.5129 34.0059 34.6178 34.5485 35.5946C35.1108 36.6107 35.614 37.6762 36.2059 38.6825C34.1045 40.7741 31.3816 42.2342 28.3429 42.7867C28.5403 41.6719 28.7277 40.5472 28.8757 39.4225C29.0829 37.7946 28.8362 36.2852 27.5044 35.2098C26.942 34.756 26.5277 34.5291 26.4093 33.7694C26.2909 33.0295 26.4586 32.2599 26.4882 31.5101C26.5573 29.7836 26.1034 28.1657 24.6828 27.0903C23.3312 26.0643 21.7329 26.0248 20.1347 26.4687C19.4145 26.6661 18.6351 27.041 17.8754 26.9818C17.0467 26.9127 17.0664 26.1826 16.948 25.5118C16.5238 23.0453 14.9453 21.1314 12.7551 20.2533C13.6923 18.7044 14.8959 17.3331 16.3067 16.2182H16.3363ZM36.8078 33.8089C36.8078 33.8089 36.7782 33.8286 36.7486 33.8286C36.788 33.8286 36.7979 33.8187 36.8078 33.8089ZM10.5945 28.0078C10.5945 26.2024 10.9299 24.4857 11.512 22.8776C12.3506 23.1637 13.0905 23.7557 13.5542 24.5153C14.2547 25.6598 14.0179 27.1002 14.7184 28.2544C15.4484 29.4679 16.8494 30.0007 18.2207 29.9415C19.5624 29.8823 21.2199 28.7773 22.5123 29.2213C23.9527 29.7146 23.5087 31.5595 23.4495 32.7039C23.3805 34.016 23.5482 35.417 24.4263 36.4627C24.811 36.9264 25.5608 37.2027 25.8666 37.7058C26.1232 38.1202 26.0048 38.7911 25.9357 39.235C25.7581 40.5077 25.5213 41.7804 25.3142 43.0432C17.1651 42.8755 10.5846 36.2062 10.5846 28.0275L10.5945 28.0078ZM38.2284 36.1964C37.9719 35.6932 37.7154 35.1901 37.449 34.7066C37.2912 34.4107 37.1531 34.0555 36.9459 33.7891C36.9459 33.7891 36.9459 33.7793 36.936 33.7694C37.6069 33.6214 38.3764 32.7138 38.6625 32.1711C39.0473 31.4707 39.2051 30.6222 39.1657 29.8231C39.1065 28.8267 38.7316 27.9091 38.623 26.9226C38.6033 26.7746 38.5836 26.6069 38.623 26.4687C38.6428 26.4194 38.4652 26.5575 38.7612 26.3602C39.067 26.153 39.3926 25.9755 39.7083 25.7781C39.9451 25.64 40.1917 25.5216 40.4383 25.3835C40.5863 26.232 40.685 27.1002 40.685 27.9881C40.685 31.007 39.7773 33.8187 38.2481 36.1766L38.2284 36.1964Z" fill="black"/>
</svg>
