<svg width="120" height="130" viewBox="0 0 120 130" fill="none" xmlns="http://www.w3.org/2000/svg">
<path d="M59.5 112C33.2994 112 12 90.7006 12 64.5C12 38.2994 33.2994 17 59.5 17C85.7006 17 107 38.2994 107 64.5C107 90.7006 85.7006 112 59.5 112Z" fill="#DADBEB"/>
<path d="M59.5 23C36.5885 23 18 41.5885 18 64.5C18 87.4115 36.5885 106 59.5 106C82.4115 106 101 87.4115 101 64.5C101 41.5885 82.4115 23 59.5 23ZM31.9698 43.4997C34.0175 42.7489 36.2473 41.7706 38.4087 41.5885C38.4315 41.5885 39.5236 41.634 39.9559 42.1801C40.5247 42.9082 40.4792 44.5008 40.7067 45.4337C41.412 48.5052 43.7327 50.5074 46.9863 49.5973C48.1012 49.2788 49.1705 48.6872 50.1716 48.0729C50.9907 47.5951 51.7415 46.9353 52.6971 46.8671C54.449 46.7305 55.8824 48.2094 56.0644 49.8931C56.3147 52.2138 54.9723 54.3753 53.1521 55.6949C50.9679 57.2876 48.2832 58.1749 45.8259 59.267C43.8465 60.1316 41.8671 61.0189 39.8876 61.8835C34.9959 64.0222 30.0132 65.9334 24.9849 67.7991C24.8712 66.707 24.8257 65.6149 24.8257 64.5C24.8257 56.605 27.5104 49.3243 31.9698 43.4997ZM26.3273 74.5565C34.1996 71.6442 41.9353 68.3906 49.6255 65.0233C54.5173 62.8846 59.4772 60.7914 61.7752 55.5811C63.8912 50.7804 62.9811 45.0696 58.5672 41.9071C56.2692 40.2462 53.3114 39.7001 50.5811 40.3372C49.307 40.6329 48.2149 41.2928 47.1001 41.9526C47.0546 41.9753 46.9863 42.0208 46.9408 42.0436C46.7815 41.179 46.5995 40.3144 46.2355 39.4953C45.2571 37.3794 43.2777 35.855 41.0707 35.1724C46.4175 31.8051 52.7198 29.8257 59.5 29.8257C72.2185 29.8257 83.3443 36.7423 89.3736 46.9808C84.2771 47.7544 78.2706 48.801 76.1091 53.6472C74.835 56.5367 75.6313 59.4035 76.3366 62.3158C76.6096 63.4079 76.8372 64.1132 76.1546 64.9323C75.2445 66.0244 73.4698 66.798 72.2185 67.4123C69.2152 68.8684 65.7796 69.2097 62.8673 70.8934C60.3191 72.3723 58.1576 74.602 56.6787 77.1502C53.8347 82.0192 53.0384 89.7094 58.7037 92.963C62.0027 94.8514 65.7341 93.8731 69.1242 92.8492C72.1502 91.9391 74.4482 92.1894 75.199 95.3747C70.4666 97.7865 65.1425 99.1743 59.4772 99.1743C43.8465 99.1743 30.6275 88.7766 26.3046 74.5565H26.3273ZM81.1828 91.5296C80.0907 89.0269 78.0885 86.9564 75.4948 85.9781C71.6042 84.5219 68.2824 86.3421 64.5282 87.0702C63.4816 87.2749 62.2303 87.5025 61.5932 86.4559C60.9561 85.432 61.2974 83.7939 61.6387 82.7245C62.526 79.8577 64.733 77.3322 67.5088 76.1719C69.42 75.3756 71.5359 75.0343 73.4698 74.2607C75.199 73.5781 76.8599 72.759 78.4298 71.7352C81.4786 69.733 83.7766 67.071 83.4353 63.2031C83.2533 61.2009 81.1373 57.2421 82.9803 55.7404C84.0951 54.8303 85.938 54.6256 87.3032 54.3525C88.9868 54.0112 90.6705 53.7155 92.3769 53.3969C93.56 56.878 94.2198 60.6094 94.2198 64.4772C94.2198 75.3983 89.1461 85.1362 81.2284 91.5069L81.1828 91.5296Z" fill="black"/>
</svg>
