<svg width="120" height="130" viewBox="0 0 120 130" fill="none" xmlns="http://www.w3.org/2000/svg">
<path d="M59.5 112C33.2994 112 12 90.7006 12 64.5C12 38.2994 33.2994 17 59.5 17C85.7006 17 107 38.2994 107 64.5C107 90.7006 85.7006 112 59.5 112Z" fill="#80CBA2"/>
<path d="M60 23C36.8125 23 18 41.8125 18 65C18 88.1875 36.8125 107 60 107C83.1875 107 102 88.1875 102 65C102 41.8125 83.1875 23 60 23ZM60 29.9079C62.8092 29.9079 65.5263 30.2763 68.1283 30.898C68.8651 36.0329 69.8322 44.9901 63.477 46.9243C60.4605 47.8224 56.9145 46.3257 53.898 46.1184C50.5592 45.8882 47.3816 46.7632 44.7796 48.8586C42.5 50.7237 40.9112 53.3487 40.4507 56.25C39.9211 59.3816 40.6118 62.398 40.6579 65.5526C40.7039 68.7533 39.2072 70.273 36.1678 71.0559C32.6447 71.977 28.9836 71.7928 25.4605 70.9178C25.1382 68.9836 24.9309 67.0263 24.9309 65.023C24.9309 45.6809 40.6809 29.9309 60.023 29.9309L60 29.9079ZM27.5559 78.3322C34.1875 79.1612 42.2007 78.2401 45.8158 72.5757C47.727 69.5592 47.6579 66.0362 47.3355 62.6283C47.0362 59.4737 46.5296 55.9737 49.5 53.9013C52.5395 51.7599 56.8914 53.6711 60.2072 53.9704C63.8224 54.2928 67.2993 53.3717 70.0625 50.977C75.2895 46.4638 75.8651 39.8783 75.3355 33.477C84.1316 37.7599 90.8783 45.5888 93.6875 55.1217C88.0691 55.1217 81.898 55.8355 78.6053 61.0164C77.0855 63.4112 76.7862 66.4046 76.9474 69.1678C77.1086 71.6086 77.9605 74.648 76.9013 76.9737C75.8421 79.2533 73.5855 77.8487 71.6743 77.5493C68.9342 77.1118 66.0559 77.2039 63.5461 78.5395C58.6875 81.1414 57.6743 88.0724 59.4013 92.9079C60.5526 96.1316 63.0855 98.227 66.4704 98.6875C67.4605 98.8257 68.4507 98.7796 69.4408 98.7796C66.4474 99.6086 63.2928 100.092 60.0461 100.092C45.4013 100.092 32.852 91.0888 27.602 78.3322H27.5559ZM77.8224 95.1875C76.602 93.5757 74.6908 92.5395 72.6414 92.1711C71.1447 91.8947 69.6711 92.0099 68.1743 91.9408C67.2993 91.8947 66.5164 91.8717 66.0329 91.0888C65.0658 89.5 65.1809 85.4243 67 84.5263C69.3026 83.375 72.3882 85.0329 74.7138 85.2171C77.9375 85.4704 80.7928 83.7204 82.4967 81.0493C84.3618 78.102 84.3158 74.5789 83.9934 71.2171C83.7632 68.7993 83.0954 65.4375 85.2829 63.6875C87.6316 61.8224 91.0164 62.0066 93.8487 62.0296C94.2401 62.0296 94.6086 61.9605 94.9309 61.8684C95.023 62.9046 95.0921 63.9638 95.0921 65.023C95.0921 77.8717 88.1382 89.0855 77.8224 95.2105V95.1875Z" fill="black"/>
</svg>
