<svg width="120" height="130" viewBox="0 0 120 130" fill="none" xmlns="http://www.w3.org/2000/svg">
<path d="M94.8172 68.9397C97.4053 68.9397 99.7943 67.9041 101.511 66.0055C104.199 63.0466 104.025 59.5205 103.95 57.9918L103.353 46.1562C103.129 41.6932 99.4708 38.1918 94.9168 38.1918C92.8513 38.1918 90.8604 39.0548 89.3424 40.4603C80.284 30.7945 67.2689 25 53.7809 25C52.1136 25 50.4213 25.0986 48.7789 25.2712C44.8967 25.6904 41.9851 28.5753 41.363 32.2493C41.2883 32.2 41.1888 32.126 41.1141 32.0767C39.7703 31.189 38.2274 30.7452 36.5601 30.7452C33.1507 30.7452 29.4926 30.7452 25.8095 30.9671C21.8527 31.189 18.742 33.9507 18.0701 37.7973C17.9457 38.3397 17.871 38.8822 17.8461 39.4493C17.7466 43.4932 17.6221 47.5616 17.5226 51.6055C17.3484 57.474 17.1742 63.3178 17.0747 69.1863C16.9751 74.7589 16.9751 79.6904 17.0747 84.2521C17.1244 86.8658 17.1991 89.4795 17.2986 92.0192C17.2986 92.2658 17.2737 92.537 17.2489 92.8575C17.0498 95.2 16.7511 99.0959 19.4886 102.055C21.0066 103.682 23.1219 104.57 25.4362 104.595H25.9339H25.9837C29.8658 104.595 33.6733 104.373 37.5306 104.175C38.4763 104.126 39.3721 103.929 40.1934 103.584C42.6819 104.89 45.6184 105.088 47.8581 105.088C49.5503 105.088 51.1928 104.964 52.3873 104.866C52.9099 104.816 53.3578 104.792 53.6565 104.792C55.2243 104.792 56.6925 104.348 57.9617 103.584C59.3055 104.447 60.8733 104.915 62.5157 104.915C62.6402 104.915 62.7646 104.915 62.8641 104.915C63.2374 104.964 63.6356 104.989 64.0089 104.989C65.2283 104.989 66.4228 105.038 67.6422 105.088C69.0109 105.137 70.3547 105.186 71.6985 105.186H71.7483C73.2912 105.186 74.7097 104.767 75.9291 104.052C77.3724 105.285 79.2637 106 81.3043 106H88.3967C92.5775 106 95.9868 103.016 96.5343 98.948C96.6339 98.4055 96.6836 97.8877 96.6836 97.3452C96.6836 92.7836 96.6836 87.9014 96.4597 83.0685C96.3104 79.1726 93.4734 75.9918 89.6161 75.3014C88.994 75.1534 88.3718 75.0795 87.7248 75.0795C85.8833 75.0795 83.9422 75.0795 81.9514 75.2274C81.603 75.1781 81.2297 75.1534 80.8813 75.1534C81.0057 72.2438 81.1053 69.2849 81.2297 66.2274C81.2546 65.5616 81.1799 64.8959 81.0555 64.2795L90.1138 67.9288C91.1839 68.3479 92.8264 68.9151 94.7426 68.9151L94.8172 68.9397Z" fill="#F1A695"/>
<path d="M37.8541 37.3782C37.5306 37.1069 37.1075 36.9343 36.5352 36.9343C33.0512 36.9343 29.5921 36.9343 26.133 37.1316C24.9136 37.2056 24.2666 38.0932 24.1422 39.0302C24.0924 39.2028 24.0426 39.4001 24.0426 39.5973C23.8186 49.485 23.4205 59.3727 23.2712 69.285C23.1965 74.2412 23.1716 79.1973 23.2712 84.1288C23.3209 86.6932 23.3956 89.233 23.4951 91.7973C23.5698 93.6713 22.3504 98.4056 25.5109 98.4056C25.5855 98.4056 25.6602 98.4056 25.7348 98.4056C25.8095 98.4056 25.8593 98.4056 25.9339 98.4056C29.6916 98.4056 33.4245 98.2083 37.1822 97.9864C38.3767 97.9124 39.0237 97.0741 39.173 96.1371C39.2228 95.9398 39.2726 95.7425 39.2726 95.496C39.2726 76.7069 39.0735 57.9425 39.0735 39.1535C39.0735 38.2165 38.5509 37.6247 37.879 37.3288L37.8541 37.3782ZM27.8003 94.2384C26.8796 76.5343 27.7506 58.8549 28.1985 41.1508C30.4382 41.0768 32.6779 41.0521 34.9176 41.0521C34.9176 58.6823 35.0918 76.3371 35.1167 93.9672C32.6779 94.0905 30.2391 94.1891 27.8252 94.2384H27.8003Z" fill="black"/>
<path d="M56.7174 51.3095C56.4437 51.1122 56.1201 50.9889 55.722 50.9396C52.3127 50.5451 48.9282 50.3725 45.5189 50.7423C44.6728 50.841 44.1004 51.3095 43.8018 51.9259C43.6027 52.2218 43.4534 52.5917 43.4534 53.0108C42.881 67.3862 43.5778 81.8108 41.9851 96.1369C41.5372 100.156 51.3919 98.6026 53.6565 98.6026C55.0252 98.6026 55.6971 97.5424 55.6722 96.4821C55.6971 96.3588 55.722 96.2355 55.7469 96.1122C57.1156 81.8355 56.4685 67.4602 58.0363 53.1834C58.1608 52.0985 57.5386 51.4821 56.7423 51.2848L56.7174 51.3095ZM51.6905 94.4848H46.3152C47.6093 81.2684 47.1116 67.978 47.5346 54.7122C49.5752 54.6136 51.6407 54.6876 53.6814 54.8602C52.3873 68.0273 52.8352 81.293 51.6905 94.4848Z" fill="black"/>
<path d="M73.0174 64.0082C72.8681 63.9836 72.7437 63.9343 72.5695 63.9343C69.5832 63.7123 66.597 63.4904 63.6107 63.1206C62.4908 62.9726 61.8438 63.6384 61.6945 64.4521C61.4705 64.748 61.3461 65.1178 61.3212 65.5863C61.1221 75.9671 60.8982 86.348 60.5 96.7534C60.4253 98.3808 61.9682 98.9973 63.1876 98.6521C63.4365 98.7507 63.7102 98.8247 64.0337 98.8247C66.597 98.8247 69.1602 99.0219 71.7483 99.0219C72.893 99.0219 73.54 98.2822 73.7142 97.4192C73.9133 97.1233 74.0377 96.7781 74.0377 96.3343C74.2617 86.2247 74.6599 76.1151 75.0829 66.0055C75.1327 64.6493 74.0875 63.9836 73.0174 64.0082ZM69.9067 94.8548C68.1896 94.8055 66.4476 94.7315 64.7305 94.7069C65.054 85.6329 65.278 76.5343 65.4522 67.4603C67.244 67.6575 69.0357 67.8055 70.8275 67.9288C70.4542 76.9041 70.1058 85.8795 69.9067 94.8548Z" fill="black"/>
<path d="M88.3967 81.3672C88.1977 81.3179 87.9986 81.2686 87.7746 81.2686C85.734 81.2686 83.6685 81.2686 81.6279 81.4658C80.4085 81.0713 78.8158 81.6877 78.8158 83.3398V96.9507C78.8158 97.5672 79.0398 98.0357 79.3882 98.3562C79.5872 99.1699 80.2343 99.8357 81.3292 99.8357H88.4216C89.6908 99.8357 90.3627 98.8987 90.4125 97.937C90.4622 97.7644 90.4871 97.5672 90.4871 97.3699C90.4871 92.685 90.4871 88.0247 90.2881 83.3398C90.2383 82.1316 89.3424 81.4905 88.4216 81.3672H88.3967ZM82.9966 95.7179V85.485C84.0667 85.4357 85.1118 85.411 86.1819 85.411C86.2815 88.8384 86.3064 92.2905 86.3064 95.7179H82.9717H82.9966Z" fill="black"/>
<path d="M49.5255 35.6274C63.5609 34.0987 77.9199 40.6822 85.5847 52.4932C87.0778 54.7863 90.736 52.5918 89.2428 50.274C80.8315 37.3288 64.9794 29.685 49.5006 31.3863C46.788 31.6822 46.8129 35.9233 49.5503 35.6274H49.5255Z" fill="black"/>
<path d="M81.5283 57.7945C84.0418 58.8055 86.5303 59.8164 89.0438 60.8027C90.2134 61.2712 91.3581 61.7397 92.5278 62.2082C94.0209 62.8 95.6882 63.1945 96.9325 61.8384C97.8533 60.8521 97.8284 59.5205 97.7786 58.263C97.7288 57.0055 97.6542 55.6986 97.5795 54.4164C97.4551 51.7534 97.3058 49.0904 97.1814 46.4274C97.1316 45.2931 96.2108 44.3068 95.0163 44.3315C93.8965 44.3315 92.8513 45.3178 92.901 46.4767C93.0255 48.7205 93.125 50.9397 93.2494 53.1836C93.2992 54.2685 93.349 55.3781 93.4236 56.463C93.4485 57.0301 93.4734 57.5973 93.4983 58.1644C93.4983 58.2877 93.4983 59.5699 93.5481 59.5699V59.3726C93.7223 58.9041 94.0955 58.6329 94.7177 58.5342H94.8421C94.6181 58.4603 94.5435 58.4356 94.6679 58.4603C94.1702 58.2384 93.6725 58.0658 93.1997 57.8685L90.1138 56.6356C87.9737 55.7726 85.8335 54.9096 83.6934 54.0466C82.6233 53.6274 81.4039 53.7753 80.7818 54.8849C80.284 55.7973 80.5329 57.326 81.6279 57.7699L81.5283 57.7945Z" fill="black"/>
</svg>
