<svg width="120" height="130" viewBox="0 0 120 130" fill="none" xmlns="http://www.w3.org/2000/svg">
<path d="M23.6472 49.2809C23.9326 49.2809 24.2417 49.2809 24.5509 49.3287C25.6211 49.4482 26.6914 49.496 27.7616 49.496C35.8954 49.496 43.6724 46.175 49.2852 40.6321C48.9998 40.2737 48.7144 39.8915 48.5003 39.4614C47.4063 37.4784 47.2161 34.9937 47.9771 32.7956C48.7144 30.717 50.2603 29.0446 52.258 28.2323L62.7701 23.9557C63.7928 23.5495 65.3624 23 67.1937 23C69.6672 23 71.9503 24.0035 73.5913 25.8431C76.1599 28.7101 75.9934 32.1267 75.9221 33.6079L75.3513 45.076C75.3513 45.5299 75.2561 45.9361 75.161 46.3661C76.1123 46.39 77.0874 46.4139 77.9912 46.5095C77.9912 44.7654 77.9912 43.0213 77.9912 41.2533C77.9912 38.3146 79.5133 35.7582 81.9867 34.3725C83.2472 33.5363 84.7693 33.0823 86.3152 33.0823C89.5735 33.0823 93.0696 33.0823 96.5894 33.2974C100.371 33.5124 103.344 36.1883 103.986 39.9154C104.105 40.441 104.176 40.9666 104.2 41.54C104.295 45.4583 104.414 49.4004 104.509 53.3186C104.676 59.0049 104.842 64.6672 104.937 70.3535C105.009 75.753 105.032 80.5314 104.937 84.9514C104.89 87.4839 104.818 90.0164 104.723 92.4534C104.723 92.6923 104.747 92.9551 104.771 93.2657C104.961 95.5354 105.246 99.3342 102.63 102.177C101.18 103.754 99.158 104.614 96.9462 104.638H96.4705H96.423C92.7128 104.638 89.074 104.423 85.3877 104.232C84.4839 104.184 83.6277 103.993 82.8429 103.659C80.4646 104.925 77.6582 105.116 75.5178 105.116C73.9005 105.116 72.3308 104.997 71.1893 104.901C70.6898 104.853 70.2617 104.829 69.9763 104.829C68.478 104.829 67.0748 104.399 65.8619 103.659C64.5776 104.495 63.0793 104.949 61.5096 104.949C61.3907 104.949 61.2718 104.949 61.1766 104.949C60.8199 104.997 60.4394 105.02 60.0826 105.02C58.9173 105.02 57.7757 105.068 56.6103 105.116C55.3022 105.164 54.018 105.212 52.7337 105.212H52.6861C51.2116 105.212 49.856 104.805 48.6906 104.113C47.3112 105.307 45.5037 106 43.5535 106H36.7753C32.7798 106 29.5453 103.109 28.9983 99.1669C28.9032 98.6413 28.8556 98.1396 28.8556 97.614C28.8556 93.194 28.8556 88.4634 29.0697 83.7807C29.2124 80.0058 31.9236 76.9237 35.61 76.2547C36.2046 76.1114 36.7991 76.0397 37.4175 76.0397C39.1774 76.0397 41.0325 76.0397 42.9351 76.1831C43.2681 76.1353 43.6248 76.1114 43.9578 76.1114C43.8389 73.2922 43.7437 70.4252 43.6248 67.4626C43.5297 65.4079 44.2194 63.4965 45.5275 61.9914C40.0098 64.285 34.0641 65.5273 27.9994 65.5273C26.406 65.5273 24.7887 65.4318 23.2191 65.2645C18.8668 64.7867 15.775 61.0596 16.0128 56.6157C16.2507 52.4108 19.5327 49.2332 23.6709 49.2332L23.6472 49.2809Z" fill="#F9D38F"/>
<path d="M84.4126 39.426C84.7347 39.1657 85.156 39 85.726 39C89.1954 39 92.6401 39 96.0847 39.1893C97.299 39.2603 97.9434 40.1123 98.0673 41.0116C98.1168 41.1773 98.1664 41.3666 98.1664 41.556C98.3894 51.0461 98.7859 60.5363 98.9346 70.0501C99.009 74.8071 99.0337 79.564 98.9346 84.2972C98.8851 86.7585 98.8107 89.1961 98.7116 91.6574C98.6372 93.4561 99.8515 98 96.7043 98C96.6299 98 96.5556 98 96.4812 98C96.4069 98 96.3573 98 96.283 98C92.5409 98 88.8237 97.8107 85.0817 97.5977C83.8921 97.5267 83.2478 96.722 83.0991 95.8227C83.0496 95.6334 83 95.444 83 95.2074C83 77.1737 83.1983 59.1637 83.1983 41.13C83.1983 40.2306 83.7187 39.6627 84.3878 39.3787L84.4126 39.426ZM94.4244 94.0241C95.3413 77.0317 94.4739 60.063 94.0278 43.0706C91.7975 42.9996 89.5671 42.9759 87.3368 42.9759C87.3368 59.8973 87.1633 76.8424 87.1385 93.7637C89.5671 93.8821 91.9957 93.9767 94.3996 94.0241H94.4244Z" fill="black"/>
<path d="M67.328 52.7497C67.6004 52.558 67.9223 52.4382 68.3184 52.3902C71.7104 52.0068 75.0776 51.8391 78.4695 52.1985C79.3113 52.2944 79.8808 52.7497 80.1779 53.3488C80.376 53.6364 80.5245 53.9958 80.5245 54.4032C81.094 68.3744 80.4007 82.3934 81.9853 96.3166C82.4309 100.223 72.6264 98.713 70.3734 98.713C69.0116 98.713 68.3432 97.6826 68.3679 96.6521C68.3432 96.5323 68.3184 96.4125 68.2936 96.2926C66.9319 82.4174 67.5756 68.4462 66.0158 54.571C65.892 53.5166 66.511 52.9174 67.3033 52.7257L67.328 52.7497ZM72.3293 94.687H77.6772C76.3898 81.8422 76.885 68.9255 76.4641 56.0328C74.4338 55.9369 72.3788 56.0088 70.3486 56.1766C71.6361 68.9735 71.1904 81.8662 72.3293 94.687Z" fill="black"/>
<path d="M51.1257 64.8851C51.2792 64.861 51.4072 64.813 51.5863 64.813C54.6571 64.5968 57.7278 64.3805 60.7986 64.0202C61.9501 63.876 62.6155 64.5247 62.769 65.3175C62.9993 65.6058 63.1273 65.9662 63.1529 66.4226C63.3576 76.537 63.5879 86.6514 63.9973 96.7897C64.0741 98.3754 62.4875 98.976 61.2336 98.6396C60.9777 98.7357 60.6962 98.8078 60.3636 98.8078C57.7278 98.8078 55.0921 99 52.4308 99C51.2537 99 50.5883 98.2793 50.4092 97.4384C50.2045 97.1501 50.0765 96.8138 50.0765 96.3813C49.8462 86.5312 49.4368 76.6811 49.0018 66.8311C48.9506 65.5097 50.0253 64.861 51.1257 64.8851ZM54.3244 94.9158C56.0901 94.8678 57.8814 94.7957 59.6471 94.7717C59.3144 85.9306 59.0841 77.0655 58.905 68.2245C57.0625 68.4167 55.2201 68.5608 53.3776 68.6809C53.7614 77.4259 54.1197 86.1709 54.3244 94.9158Z" fill="black"/>
<path d="M36.9701 82.0956C37.1578 82.0478 37.3454 82 37.5565 82C39.4797 82 41.4264 82 43.3497 82.1912C44.4989 81.8088 46 82.4064 46 84.008V97.2032C46 97.8008 45.7889 98.255 45.4606 98.5657C45.2729 99.3546 44.6631 100 43.6311 100H36.9467C35.7505 100 35.1173 99.0916 35.0704 98.1594C35.0235 97.992 35 97.8008 35 97.6096C35 93.0677 35 88.5498 35.1876 84.008C35.2345 82.8367 36.0789 82.2151 36.9467 82.0956H36.9701ZM42.0597 96.008V86.0877C41.0512 86.0398 40.0661 86.0159 39.0576 86.0159C38.9638 89.3386 38.9403 92.6853 38.9403 96.008H42.0832H42.0597Z" fill="black"/>
<path d="M23.9413 54.7867C37.2727 56.2256 50.9114 50.0292 58.1917 38.913C59.6099 36.7547 63.0846 38.8201 61.6664 41.0016C53.677 53.1854 38.62 60.3797 23.9177 58.7784C21.3412 58.4999 21.3648 54.5083 23.9649 54.7867H23.9413Z" fill="black"/>
<path d="M53.9768 33.5763C56.4522 32.6434 58.903 31.7105 61.3783 30.8004C62.5302 30.3681 63.6576 29.9358 64.8095 29.5034C66.28 28.9574 67.9221 28.5933 69.1475 29.8447C70.0543 30.7549 70.0298 31.9836 69.9808 33.144C69.9317 34.3044 69.8582 35.5103 69.7847 36.6935C69.6621 39.1508 69.5151 41.6082 69.3926 44.0656C69.3435 45.1122 68.4367 46.0223 67.2603 45.9996C66.1575 45.9996 65.1281 45.0895 65.1771 44.02C65.2997 41.9495 65.3977 39.9017 65.5202 37.8311C65.5693 36.83 65.6183 35.8061 65.6918 34.805C65.7163 34.2816 65.7408 33.7583 65.7653 33.235C65.7653 33.1212 65.7653 31.938 65.8143 31.938V32.1201C65.9859 32.5524 66.3535 32.8027 66.9662 32.8937H67.0888C66.8682 32.9619 66.7947 32.9847 66.9172 32.9619C66.427 33.1667 65.9369 33.326 65.4712 33.508L62.4322 34.6457C60.3245 35.4421 58.2168 36.2384 56.109 37.0348C55.0552 37.4216 53.8543 37.2851 53.2416 36.2612C52.7514 35.4193 52.9965 34.0086 54.0749 33.599L53.9768 33.5763Z" fill="black"/>
</svg>
