<svg width="50" height="50" viewBox="0 0 50 50" fill="none" xmlns="http://www.w3.org/2000/svg">
<path d="M8.6604 33.6065C4.2953 33.7589 0.98846 29.9601 0.837178 25.6279C0.685896 21.2958 4.12319 17.6376 8.48829 17.4852M8.48829 17.4852C4.19416 17.6351 0.431298 14.0051 0.274686 9.52028C0.118074 5.0355 3.2413 1.54111 7.53542 1.39115C10.3745 1.29201 12.9826 2.71728 14.4719 5.00443C16.9113 5.33066 19.1204 6.52301 21.0738 8.53536C22.8311 10.3547 24.1286 12.5781 25.3883 14.7322C26.4084 16.4715 27.4538 18.257 28.5227 19.3598C29.4933 20.3603 30.0999 20.4332 30.5967 20.4158L34.8317 20.2679C34.7758 20.0231 34.7431 19.7656 34.7341 19.5073C34.6951 18.392 35.0963 17.3318 35.8615 16.5175C36.6266 15.7033 37.6642 15.2321 38.788 15.1929C39.9118 15.1536 40.9798 15.5512 41.7999 16.3102L46.7814 20.9203C48.5683 22.5741 48.6655 25.3565 46.9982 27.1309L42.3505 32.0773C41.5854 32.8916 40.5477 33.3628 39.4239 33.402C38.3001 33.4413 37.2321 33.0436 36.4121 32.2847C35.592 31.5258 35.1178 30.4962 35.0789 29.3809C35.0699 29.1226 35.0845 28.8635 35.1232 28.6153L30.8882 28.7632C30.3914 28.7805 29.7909 28.8838 28.8929 29.9613C27.9035 31.136 26.9856 33.0018 26.0889 34.7963C24.9826 37.033 23.8319 39.3536 22.2059 41.2911C20.4094 43.4344 18.277 44.7784 15.8663 45.274C14.552 47.6591 12.0379 49.2632 9.19877 49.3623C4.97562 49.5098 1.6754 46.2397 1.51879 41.7549C1.36217 37.2702 4.42625 33.7778 8.6494 33.6304" fill="#F1A4A1"/>
<path d="M44.6005 22.7571L39.6523 18.1105C39.1539 17.6424 38.3787 17.6695 37.9141 18.1712C37.4496 18.6729 37.4768 19.4535 37.9757 19.9334L40.9057 22.6849L30.6409 23.0433C29.0554 23.0987 27.693 22.4713 26.3624 21.0731C25.0566 19.7096 23.9298 17.7478 22.8407 15.8557C21.6766 13.836 20.463 11.7469 18.9614 10.1653C17.1304 8.23987 15.1238 7.3508 12.8101 7.43159L12.634 7.43774C12.0072 5.31636 10.0375 3.79841 7.7473 3.87839C5.02256 3.97354 3.27979 6.26056 3.37561 9.00439C3.47143 11.7482 5.36948 13.9081 8.09423 13.8129C10.3844 13.733 12.2434 12.0813 12.7207 9.92138L12.8969 9.91523C14.4824 9.85986 15.8448 10.4872 17.1753 11.8854C18.4812 13.2489 19.608 15.2107 20.6971 17.1028C21.8612 19.1226 23.0747 21.2116 24.5763 22.7933C24.7348 22.9535 24.8924 23.0901 25.0622 23.2381L13.2354 23.6511C12.6909 21.5269 11.003 19.9991 8.71285 20.0791C5.9881 20.1742 3.85776 22.4748 3.95358 25.2186C4.0494 27.9624 6.33502 30.1088 9.05977 30.0136C11.35 29.9336 12.9389 28.2914 13.3221 26.1348L25.1489 25.7218C25.0016 25.8808 24.8422 26.0285 24.6953 26.1994C23.3077 27.882 22.2428 30.0506 21.2224 32.1466C20.268 34.1101 19.269 36.1461 18.0732 37.597C16.8434 39.0846 15.5281 39.8055 13.9426 39.8608L13.7664 39.867C13.1397 37.7456 11.17 36.2276 8.87976 36.3076C6.15501 36.4028 4.54144 38.6853 4.63725 41.4291C4.73307 44.1729 6.50194 46.3373 9.22668 46.2422C11.5169 46.1622 13.3759 44.5106 13.8531 42.3506L14.0293 42.3445C16.3312 42.2641 18.2822 41.225 19.9749 39.1884C21.3625 37.5058 22.4274 35.3372 23.4478 33.2412C24.4023 31.2777 25.4012 29.2417 26.597 27.7908C27.8268 26.3032 29.1421 25.5823 30.7276 25.527L40.9924 25.1685L38.2615 28.1176C37.7969 28.6193 37.8241 29.3999 38.323 29.8798C38.8219 30.3597 39.5966 30.3208 40.0612 29.8191L44.6732 24.8387C45.2171 24.2513 45.1845 23.317 44.6005 22.7571ZM8.00708 11.3175C6.64471 11.3651 5.88947 10.2783 5.84156 8.90643C5.79365 7.53452 6.47125 6.39778 7.83362 6.3502C9.19599 6.30263 10.3388 7.3758 10.3867 8.74771C10.4346 10.1196 9.36945 11.2699 8.00708 11.3175ZM8.96129 27.5304C7.59892 27.578 6.45611 26.5048 6.4082 25.1329C6.36029 23.761 7.42546 22.6107 8.78783 22.5631C10.1502 22.5155 10.9054 23.6022 10.9534 24.9742C11.0013 26.3461 10.3237 27.4828 8.96129 27.5304ZM9.14036 43.7704C7.77799 43.8179 7.15194 42.7267 7.10403 41.3548C7.05612 39.9829 7.60453 38.8507 8.9669 38.8031C10.3293 38.7555 11.4721 39.8287 11.52 41.2006C11.5679 42.5725 10.5027 43.7228 9.14036 43.7704Z" fill="#010101"/>
</svg>
