<svg width="45" height="52" viewBox="0 0 45 52" fill="none" xmlns="http://www.w3.org/2000/svg">
<g clip-path="url(#clip0_338_15540)">
<path d="M10.0357 50.7791C6.67645 51.0559 3.71573 48.5417 3.43849 45.1768L0.644027 11.26L0.632987 11.126C0.284599 6.89757 3.44848 3.15923 7.68476 2.8102L32.716 0.747832C37.086 0.387775 40.9554 3.57662 41.4907 7.89458L41.7974 11.6168L44.1183 39.7865C44.4876 44.2681 41.1464 48.2159 36.6723 48.5845L10.0357 50.7791Z" fill="#DADBEB"/>
<path d="M38.0814 11.9229L37.8017 8.52828C37.6005 6.08651 35.4604 4.26917 33.0227 4.47002L7.99145 6.53238C5.80642 6.71241 4.16993 8.64604 4.35025 10.8347L4.66797 14.6909L7.15576 44.8855C7.26371 46.1957 8.42225 47.1796 9.7303 47.0718L36.3817 44.8759C38.8046 44.6763 40.6196 42.5481 40.4184 40.1063L38.0962 11.9217L38.0814 11.9229ZM37.4443 40.3364C37.5094 41.1255 36.9229 41.8184 36.1351 41.8833L10.0783 44.0301L7.88492 17.4089L35.3687 15.1444L37.4443 40.3364Z" fill="black"/>
<path d="M12.733 21.7612C15.5039 21.6079 18.2476 21.3069 21.0111 21.0642C21.7841 21.0005 22.4708 20.2544 22.3749 19.4528C22.2789 18.6513 21.597 18.0029 20.7658 18.0864C18.0035 18.344 15.2585 18.6301 12.4877 18.7835C11.7135 18.8322 11.0292 19.6081 11.1239 20.3948C11.2187 21.1815 11.8994 21.8149 12.733 21.7612Z" fill="black"/>
<path d="M13.2495 28.0293C19.06 27.7155 24.857 27.2379 30.6381 26.5667C32.5358 26.3504 32.3053 23.3714 30.3927 23.5889C24.6117 24.2601 18.8159 24.7526 13.0041 25.0516C11.0818 25.15 11.3271 28.1278 13.2495 28.0293Z" fill="black"/>
<path d="M13.7733 34.387C19.5838 34.0732 25.3808 33.5955 31.1619 32.9244C33.0596 32.708 32.8291 29.729 30.9165 29.9466C25.1355 30.6178 19.3397 31.1103 13.5279 31.4092C11.6056 31.5077 11.8509 34.4854 13.7733 34.387Z" fill="black"/>
<path d="M14.2971 40.7444C20.1076 40.4306 25.9046 39.953 31.6857 39.2818C33.5834 39.0655 33.3529 36.0865 31.4404 36.304C25.6593 36.9752 19.8635 37.4677 14.0518 37.7667C12.1294 37.8651 12.3747 40.8429 14.2971 40.7444Z" fill="black"/>
</g>
<defs>
<clipPath id="clip0_338_15540">
<rect width="41" height="48" fill="white" transform="translate(0 3.44336) rotate(-4.71006)"/>
</clipPath>
</defs>
</svg>
