<svg width="120" height="130" viewBox="0 0 120 130" fill="none" xmlns="http://www.w3.org/2000/svg">
<g clip-path="url(#clip0_20_687)">
<path d="M29.8265 114.438C22.7563 114.438 17 108.711 17 101.677V30.7774V30.4973C17 21.6582 24.2579 14.4375 33.1739 14.4375H85.8563C95.0538 14.4375 102.593 21.7204 102.969 30.7774V38.5583V97.444C102.969 106.812 95.3041 114.438 85.8876 114.438H29.8265Z" fill="#F9D38F"/>
<path d="M95.1477 38.5583V31.4621C95.1477 26.3578 90.9869 22.2184 85.8563 22.2184H33.1739C28.5751 22.2184 24.821 25.9532 24.821 30.5284V38.5894V101.708C24.821 104.447 27.0735 106.688 29.8265 106.688H85.9189C91.0182 106.688 95.179 102.579 95.179 97.4752V38.5583H95.1477ZM88.9222 97.444C88.9222 99.0936 87.5769 100.432 85.9189 100.432H31.0779V44.783H88.9222V97.444Z" fill="black"/>
<path d="M40.4631 54.6491C46.2819 54.8048 52.0695 54.6491 57.8883 54.618C59.5151 54.618 61.0793 53.1863 61.0167 51.5057C60.9542 49.825 59.6402 48.3622 57.8883 48.3933C52.0695 48.4556 46.2819 48.5801 40.4631 48.4244C38.8363 48.3933 37.2721 49.8872 37.3347 51.5368C37.3972 53.1863 38.7112 54.618 40.4631 54.6491Z" fill="black"/>
<path d="M40.4631 67.7521C52.6639 68.0945 64.8647 68.0945 77.0655 67.6899C81.0698 67.5654 81.1011 61.3407 77.0655 61.4652C64.8647 61.8698 52.6639 61.9009 40.4631 61.5274C36.4274 61.4029 36.4274 67.6277 40.4631 67.7521Z" fill="black"/>
<path d="M40.4631 81.0419C52.6639 81.3843 64.8647 81.3843 77.0655 80.9797C81.0698 80.8552 81.1011 74.6305 77.0655 74.755C64.8647 75.1596 52.6639 75.1907 40.4631 74.8172C36.4274 74.6927 36.4274 80.9174 40.4631 81.0419Z" fill="black"/>
<path d="M40.4631 94.3317C52.6639 94.674 64.8647 94.674 77.0655 94.2694C81.0698 94.1449 81.1011 87.9202 77.0655 88.0447C64.8647 88.4493 52.6639 88.4805 40.4631 88.107C36.4274 87.9825 36.4274 94.2072 40.4631 94.3317Z" fill="black"/>
</g>
<defs>
<clipPath id="clip0_20_687">
<rect width="86" height="100" fill="white" transform="translate(17 14.4375)"/>
</clipPath>
</defs>
</svg>
