<svg width="120" height="130" viewBox="0 0 120 130" fill="none" xmlns="http://www.w3.org/2000/svg">
<path d="M58.9185 110C51.6345 110 45.4828 108.62 39.4536 105.615C38.1069 105.983 36.6685 106.167 35.2607 106.167C30.8841 106.167 26.7524 104.45 23.6613 101.383C19.4684 97.2129 17.9687 91.0801 19.4072 85.5605C16.4691 79.4889 15 72.6201 15 65.0153C15 57.4106 16.4997 50.4497 19.4378 44.3782C18.2442 39.1959 19.958 33.523 24.2734 29.23C27.64 25.8876 31.8329 24.0477 36.087 24.0477C37.2194 24.0477 38.3824 24.1704 39.4842 24.4463C45.6358 21.5945 53.3484 20 61.2445 20C69.1406 20 74.4048 21.6252 79.6076 24.3543C80.9543 24.017 82.3315 23.833 83.7393 23.833C88.1159 23.833 92.2476 25.5503 95.3387 28.6167C99.5316 32.7871 101.031 38.9199 99.5928 44.4395C102.531 50.5111 104 57.3799 104 64.9847C104 72.5894 102.531 79.4889 99.5928 85.5298C101.031 91.0494 99.5316 97.1823 95.3387 101.353C92.2476 104.45 88.1159 106.136 83.7393 106.136C82.3009 106.136 80.8624 105.952 79.4852 105.584C73.4254 108.497 66.5086 109.969 58.9185 109.969V110Z" fill="#F9D38F"/>
<path d="M95.9697 64.5154C95.9697 56.7844 94.2424 50.0082 90.8182 44.3409C92.9394 40.9528 92.5455 36.3943 89.6061 33.4066C86.6364 30.3881 82.1212 30.0801 78.8182 32.2053C73.2121 28.7556 68.8485 27 61.2121 27C53.5758 27 45.7273 28.7556 40.1212 32.2053C36.8485 30.0801 32.9091 31.0041 29.9394 34.0226C26.9697 37.0411 26.0606 41.0144 28.1515 44.3409C24.7273 50.0082 23 56.7844 23 64.5154C23 72.2464 24.7273 79.0226 28.1515 84.6899C26.0303 88.078 26.4242 92.6366 29.3636 95.5934C32.3333 98.6119 36.8485 98.9199 40.1515 96.7947C45.7576 100.244 51.2727 102 58.9091 102C66.5455 102 73.2424 100.244 78.8485 96.7947C82.1212 98.9199 86.6364 98.6119 89.6364 95.5934C92.6061 92.575 92.9394 88.0164 90.8485 84.6591C94.2727 78.9918 96 72.2156 96 64.4846L95.9697 64.5154ZM77.9697 71.4148C78.7273 69.2587 79.1515 66.9487 79.1515 64.5154C79.1515 62.0821 78.7273 59.7721 77.9697 57.616L86.6667 48.8378C89 53.2731 90.1515 58.54 90.1515 64.5154C90.1515 70.4908 88.9697 75.7577 86.6667 80.193L77.9697 71.4148ZM58.8788 79.1766C50.8788 79.1766 46.7273 72.616 46.7273 64.5154C46.7273 56.4148 50.9091 51.0246 58.8788 51.0246C66.8485 51.0246 71.0303 56.4148 71.0303 64.5154C71.0303 72.616 66.8485 79.1766 58.8788 79.1766ZM32.2727 80.193C29.9394 75.7577 28.7879 70.4908 28.7879 64.5154C28.7879 58.54 29.9697 53.2731 32.2727 48.8378L40.9697 57.616C40.2121 59.7721 39.7879 62.0821 39.7879 64.5154C39.7879 66.9487 40.2121 69.2587 40.9697 71.4148L32.2727 80.193ZM85.5151 37.5647C86.6364 38.7043 86.6364 40.5524 85.5151 41.7228L75.1212 52.2259C73.9697 50.655 72.5758 49.269 71.0303 48.0678L81.4242 37.5647C82.5455 36.4251 84.3939 36.4251 85.5151 37.5647ZM74.3939 36.3943L65.697 45.1725C63.5758 44.4025 61.2727 43.9713 58.8788 43.9713C56.4848 43.9713 55.3636 44.4025 53.2424 45.1725L44.5455 36.3943C48.9394 34.0534 55.303 32.8522 61.2121 32.8522C67.1212 32.8522 70 34.0534 74.3939 36.3943ZM34.0303 38.1807C35.1515 37.0411 36.3939 36.4251 37.5152 37.5647L47.9091 48.0678C46.3636 49.2382 44.9697 50.655 43.8182 52.2259L33.4242 41.7228C32.303 40.5832 32.8788 39.3203 34.0303 38.1807ZM33.4242 91.4661C32.303 90.3265 32.303 88.4784 33.4242 87.308L43.8182 76.8049C44.9697 78.3758 46.3636 79.7618 47.9091 80.963L37.5152 91.4661C36.3939 92.6058 34.5455 92.6058 33.4242 91.4661ZM44.5455 92.6366L53.2424 83.8583C55.3636 84.6283 56.5152 85.0596 58.8788 85.0596C61.2424 85.0596 63.5455 84.6283 65.697 83.8583L74.3939 92.6366C70 94.9774 64.8182 96.1786 58.9091 96.1786C53 96.1786 48.9697 94.9774 44.5758 92.6366H44.5455ZM85.5151 91.4661C84.3939 92.6058 82.5455 92.6058 81.4242 91.4661L71.0303 80.963C72.5758 79.7926 73.9697 78.3758 75.1212 76.8049L85.5151 87.308C86.6364 88.4476 86.6364 90.2957 85.5151 91.4661Z" fill="black"/>
</svg>
