<svg width="120" height="130" viewBox="0 0 120 130" fill="none" xmlns="http://www.w3.org/2000/svg">
<path d="M52.5764 110.946C50.8744 110.857 49.2314 110.501 47.6472 109.878C41.3554 107.388 37.3686 101.193 37.7238 94.4149L38.2084 85.1686L36.9991 85.1052C30.9974 84.7907 25.7969 81.1875 23.4367 75.6628C21.0317 70.1357 21.9432 63.8823 25.8228 59.2698L54.8912 24.7864C58.0047 21.0788 62.785 18.9889 67.7117 19.2471C69.4137 19.3363 71.1015 19.6948 72.6857 20.3179C78.935 22.7609 82.9195 29.0008 82.5643 35.7785L82.0797 45.0248L83.289 45.0882C89.2907 45.4027 94.4912 49.0059 96.8514 54.5306C99.2564 60.0577 98.3448 66.3111 94.4653 70.9237L65.3545 105.36C62.1938 109.11 57.4159 111.155 52.5339 110.899L52.5764 110.946Z" fill="#DADBEB"/>
<path d="M82.7007 56.3107L70.2944 55.6605L71.367 35.1929C71.4682 33.2628 70.3483 31.4938 68.5001 30.7668C66.6967 30.0422 64.6483 30.565 63.4039 32.03L34.3402 66.4236C33.2371 67.7611 32.9639 69.5471 33.6453 71.1131C34.3267 72.6791 35.8426 73.7487 37.5445 73.8379L49.9509 74.4881L48.8782 94.9557C48.7771 96.8858 49.897 98.6548 51.7451 99.3818C52.186 99.5399 52.6739 99.6555 53.1666 99.6813C54.555 99.7541 55.8868 99.1938 56.8438 98.0737L85.9074 63.6801C87.0105 62.3427 87.2837 60.5566 86.6023 58.9906C85.9209 57.4246 84.4498 56.3574 82.7031 56.2658L82.7007 56.3107ZM57.5401 84.7877L58.2434 71.367C58.3728 68.8983 56.4632 66.7729 53.9998 66.6438L45.2213 66.1837L62.7476 45.4082L62.0443 58.8288C61.9149 61.2975 63.8245 63.423 66.2879 63.5521L75.0664 64.0121L57.5401 84.7877Z" fill="black"/>
</svg>
