<svg width="120" height="130" viewBox="0 0 120 130" fill="none" xmlns="http://www.w3.org/2000/svg">
<path d="M80.7156 112.971C79.2843 113.08 77.7352 113.091 76.0615 113.082C74.6801 113.076 73.6252 113.066 72.5079 113.103C67.3422 113.294 62.1616 113.481 56.9789 113.619C51.7619 113.763 46.5491 113.893 41.3238 113.954L40.2797 113.963C34.4075 114.066 24.5475 114.227 18.7901 103.542C17.7897 101.668 17.1939 99.6352 17.0283 97.4659L14.1208 60.3988C14.0696 59.7363 14.0549 59.1165 14.0895 58.4947C14.159 54.4002 15.3564 50.9036 17.6467 48.1244C18.3979 47.2215 19.2411 46.3935 20.159 45.7003C20.4277 37.9047 22.8953 30.3815 27.4004 23.7973C33.8415 14.365 42.5901 12.655 48.3761 11.5071C51.554 10.8769 54.2736 10.4234 57.2093 10.1776C63.7084 9.65471 69.1793 10.5387 73.9613 12.8941C81.8333 16.7649 87.2187 24.2009 89.5468 34.4236C89.756 35.3258 89.8707 36.2171 90.4334 41.2699C90.4461 41.3383 90.4436 41.4024 90.4519 41.4857C94.9265 44.4498 96.5773 49.2306 96.9694 50.6224C97.2596 51.6934 97.432 52.666 97.5182 53.7112C98.5357 66.7016 99.5178 80.5404 99.3742 94.3328C99.3591 96.5638 98.8716 98.7408 97.9227 100.77C94.4176 108.223 88.6202 112.316 80.6899 112.948L80.7156 112.971Z" fill="#9597C9"/>
<path d="M84.1355 50.7871C83.4518 50.3489 82.6236 50.1283 81.6872 50.168L81.0616 50.1995C80.3816 50.2316 79.7754 47.7818 79.243 42.8501C78.9795 40.412 78.6436 37.3868 78.547 36.9384C77.4668 32.1791 74.9151 25.8987 68.955 22.9645C66.0605 21.5381 62.5107 21.0248 58.1108 21.3688C55.7191 21.5589 53.3756 21.9731 50.5731 22.5149C44.5477 23.7051 40.3283 24.8776 36.7661 30.0896C33.0506 35.5491 31.2146 41.8534 31.4838 48.339C31.6224 51.8742 31.4521 53.5733 30.104 53.6896L29.1695 53.7784C28.0292 53.9055 27.1145 54.3722 26.4597 55.1721C25.4709 56.3944 25.4378 58.068 25.4329 58.6978C25.4285 58.7127 25.4319 58.9241 25.4275 58.939C25.4202 59.1311 25.4173 59.3083 25.44 59.509L28.3188 96.5342C28.3632 97.1619 28.5234 97.7256 28.7891 98.2061C31.3029 102.89 35.0374 102.825 40.1925 102.729L41.253 102.709C46.3994 102.643 51.5288 102.523 56.667 102.374C61.8051 102.225 66.937 102.042 72.0539 101.854C73.3503 101.804 74.58 101.816 75.7454 101.825C81.0928 101.849 84.8306 101.996 87.6421 96.0188C87.8973 95.4768 88.0307 94.8514 88.0443 94.1918C88.1825 80.8477 87.2375 67.3234 86.2396 54.5931C86.2174 54.2793 86.1609 53.9718 86.0808 53.6899C85.9204 53.1262 85.2699 51.5161 84.1355 50.7871ZM42.848 36.0039C44.2553 33.6228 47.7244 31.5722 50.137 31.0321C53.7634 30.2241 57.5516 29.6404 61.3837 29.2959C61.433 29.2938 61.5553 29.264 61.6045 29.2619C61.9882 29.226 63.6049 29.4131 65.148 30.2427C66.5801 31.0082 67.8149 32.2838 67.9477 32.7749C70.6561 38.0159 71.7232 43.3217 71.1653 48.8587C71.1604 48.9867 71.1555 49.1148 71.1507 49.2429C71.1506 50.2462 70.232 50.6147 67.043 50.8681C66.6936 50.8977 66.3293 50.9229 65.9693 50.9333C58.3727 51.3343 51.6758 51.766 45.4992 52.2494C43.9883 52.3676 42.4673 51.8518 41.3663 50.8411C40.3677 49.9244 39.8011 48.6943 39.809 47.3857C39.8014 43.2892 40.821 39.454 42.8673 35.9932L42.848 36.0039ZM79.7225 88.0578C79.7637 90.8693 77.5764 93.254 74.7517 93.482C74.7517 93.482 74.5353 93.5011 74.5203 93.4968C61.2415 94.0209 51.1131 94.3129 41.6795 94.4476C38.8127 94.4856 36.2991 92.1971 36.0739 89.3491L34.3179 66.8539C34.0907 63.9569 36.2614 61.4056 39.1485 61.1307C41.1996 60.9404 43.2464 60.765 45.2888 60.6046C53.3986 59.9457 62.1891 59.4006 72.9699 58.8743C75.8671 58.7317 78.3832 60.9562 78.5847 63.8297C79.2477 73.3085 79.6037 81.0003 79.7075 88.0535L79.7225 88.0578Z" fill="black"/>
<path d="M57.9998 65.5673C49.8865 66.1025 49.8421 76.7642 56.1754 79.0131C56.1544 79.2018 56.1605 79.4144 56.2023 79.621C56.6024 81.9254 56.6868 84.2045 56.4381 86.5181C56.2601 88.1218 57.1826 89.6834 58.9371 90.0228C60.4988 90.3234 62.3572 89.3137 62.5396 87.6949C62.8381 84.8602 62.8792 82.0331 62.3745 79.2121C62.3484 79.0099 62.2978 78.8332 62.2359 78.6371C68.1467 75.6227 66.1603 65.0455 58.0112 65.5867L57.9998 65.5673Z" fill="black"/>
</svg>
