<svg width="120" height="130" viewBox="0 0 120 130" fill="none" xmlns="http://www.w3.org/2000/svg">
<path d="M99 59.9787C99 59.801 99 59.5937 98.9701 59.3568C98.9701 59.2384 98.9701 59.0904 98.9402 58.9719C98.7908 57.2841 98.253 54.4118 96.0719 51.8357C95.1157 50.7401 93.8907 49.9998 92.6059 49.3484C92.6059 48.3416 92.6657 46.8611 92.6955 45.114C92.8449 37.4448 93.1437 32.6479 88.3332 24.1496C88.0045 23.4981 87.646 22.9059 87.2576 22.2841C87.138 22.1064 87.0783 21.9584 86.9588 21.7511C85.0764 18.9381 82.7757 16.5988 79.8775 14.8814C75.784 12.4533 70.854 11.2689 64.8185 11.2689C61.9501 11.2689 59.2012 11.5057 55.9743 11.8907C48.5045 12.7494 41.8415 14.0523 35.9255 21.3365C30.5772 27.9398 27.5893 35.8755 27.2606 44.2257C27.2008 45.9728 27.1112 47.2756 27.0216 48.2824C25.7069 48.8746 24.5117 49.7037 23.4958 50.7697C20.5976 53.79 20.239 57.4914 20.0896 58.735V58.7942C20.0299 59.2976 20 59.7714 20 60.3044V99.0946C20 100.782 20.3287 102.381 20.986 103.862C25.0495 113.071 33.087 113.574 38.9134 113.959L40.0189 114.018C45.4569 114.374 50.865 114.699 56.3029 114.966C61.711 115.232 67.1191 115.499 72.4974 115.706C73.7523 115.765 74.9175 115.854 76.053 115.973H76.3816C77.9951 116.15 79.489 116.269 80.8635 116.269C87.7057 116.269 92.5461 113.397 96.1017 107.208C96.9383 105.727 97.4463 104.069 97.5957 102.352C98.8506 88.1978 98.9701 73.8365 98.9701 60.334C98.9701 60.2452 98.9701 60.1267 98.9701 60.0379L99 59.9787Z" fill="#80CBA2"/>
<path d="M60.1641 69.2415C52.0414 68.8768 50.8189 79.4682 56.8648 82.4033C56.8232 82.5885 56.8057 82.8005 56.8245 83.0105C56.9674 85.345 56.7994 87.6194 56.2966 89.8913C55.9424 91.4656 56.6867 93.1195 58.3929 93.6508C59.9119 94.1221 61.8705 93.324 62.2306 91.7353C62.8405 88.9509 63.1939 86.1456 63.004 83.2861C63.0004 83.0823 62.9697 82.9012 62.9298 82.6994C69.1375 80.3567 68.3322 69.6247 60.1732 69.2621L60.1641 69.2415Z" fill="black"/>
<path d="M71.7504 54.7672C71.3918 54.7672 71.0034 54.7672 70.615 54.7672C62.6074 54.5599 55.5858 54.4415 49.0722 54.4119C47.4886 54.4119 45.9349 53.7308 44.8593 52.576C43.8733 51.5396 43.3952 45.5582 43.5147 44.1961C43.8434 39.9322 45.2178 36.0235 47.638 32.5887C49.3113 30.2198 53.1059 28.3839 55.6755 28.0286C59.5299 27.4956 63.5337 27.1995 67.5972 27.1699C67.657 27.1699 67.7765 27.1699 67.8362 27.1699C68.2247 27.1699 69.8979 27.4956 71.4516 28.4728C72.8858 29.3907 74.0809 30.812 74.1706 31.345C75.2462 33.9212 75.9932 37.4152 76.3816 40.9981C76.4713 41.7088 77.0091 42.7748 77.7262 42.7748C77.7262 42.7748 84.9868 43.2486 85.1362 42.2714C85.4947 39.9618 84.9569 37.0303 84.8971 36.5861C84.1501 31.5523 81.9989 24.7714 75.9932 21.2181C73.065 19.5007 69.4198 18.642 64.7886 18.642C62.2787 18.642 59.7689 18.8789 56.8109 19.2046C50.4168 19.9448 45.9051 20.8036 41.7519 25.9262C37.4194 31.2858 34.9992 37.7113 34.7303 44.4922C34.5809 48.164 34.2821 54.5895 32.848 54.6191H31.8619C30.6668 54.6783 29.6509 55.0929 28.9039 55.8628C27.7685 57.0472 27.5893 58.7943 27.5295 59.4457V59.6826C27.5295 59.8899 27.4996 60.0675 27.4996 60.2748V99.065C27.4996 99.7164 27.6191 100.309 27.8582 100.842C30.0991 105.935 34.0132 106.172 39.4213 106.497L40.5268 106.557C45.9051 106.912 51.3132 107.238 56.6914 107.504C62.0696 107.771 67.4478 108.007 72.8559 108.244C74.2005 108.304 75.4852 108.422 76.7103 108.511C82.2976 108.985 86.2118 109.458 89.6479 103.477C89.9467 102.944 90.1558 102.293 90.2156 101.612C91.4406 87.724 91.5601 73.5701 91.5601 60.2452C91.5601 59.9195 91.5303 59.5937 91.4705 59.2976C91.351 58.7054 90.8132 56.9584 89.6778 56.0997C88.9905 55.5667 88.1539 55.3002 87.1679 55.2706H86.5106L71.7803 54.7376L71.7504 54.7672ZM81.969 94.5641C81.7897 97.4956 79.3098 99.7756 76.3219 99.7756C76.3219 99.7756 76.1127 99.7756 76.0828 99.7756C62.1293 99.1834 51.5223 98.6504 41.6324 97.999C38.6146 97.7917 36.1944 95.2156 36.1944 92.2249V68.6547C36.1944 65.6344 38.6744 63.147 41.722 63.1174C43.8733 63.1174 46.0545 63.0878 48.2057 63.0878C56.7511 63.0878 65.9837 63.2655 77.3079 63.6208C80.3555 63.7097 82.8056 66.2562 82.7757 69.2469C82.6861 79.1665 82.447 87.2206 81.969 94.5641Z" fill="black"/>
</svg>
