<svg width="84" height="99" viewBox="0 0 84 99" fill="none" xmlns="http://www.w3.org/2000/svg">
<path d="M71.5916 85.775C70.3876 86.223 69.0576 86.615 67.6156 87.021C66.4255 87.357 65.5155 87.609 64.5635 87.917C60.1675 89.359 55.7575 90.801 51.3335 92.201C46.8814 93.615 42.4293 95.015 37.9492 96.359L37.0533 96.625C32.0272 98.165 23.5851 100.741 15.9551 92.929C14.625 91.557 13.6031 89.947 12.917 88.113L1.12886 56.795C0.918861 56.235 0.75088 55.703 0.624878 55.157C-0.341132 51.601 -0.187106 48.2829 1.08691 45.3149C1.50691 44.3489 2.0249 43.4249 2.6409 42.5989C0.918885 35.7949 1.15693 28.6829 3.38295 21.8789C6.56099 12.1349 13.659 8.49492 18.349 6.07292C20.9251 4.74292 23.1511 3.67892 25.6151 2.74092C31.0752 0.682915 36.0033 0.0949133 40.7073 0.948914C48.4494 2.34891 54.9455 7.44492 59.5095 15.7049C59.9155 16.4329 60.2375 17.1749 61.9876 21.4029C62.0156 21.4589 62.0295 21.5149 62.0575 21.5849C66.6496 23.0409 69.2676 26.7649 69.9536 27.8709C70.4716 28.7249 70.8636 29.5229 71.1996 30.4049C75.3296 41.3809 79.6417 53.099 82.9738 65.055C83.5198 66.987 83.6458 68.989 83.3378 70.977C82.1898 78.285 78.2277 83.255 71.5636 85.761L71.5916 85.775Z" fill="#DADBEB"/>
<path d="M59.0389 31.1895C58.3389 30.9795 57.5688 30.9935 56.7708 31.2595L56.2389 31.4415C55.6602 31.6375 54.5215 29.6681 52.8229 25.5335C51.9828 23.4895 50.9328 20.9555 50.7368 20.5915C48.6087 16.7415 44.8287 11.9395 38.9487 10.8755C36.0926 10.3575 32.9006 10.7915 29.1906 12.1775C27.1746 12.9335 25.2566 13.8715 22.9745 15.0335C18.0745 17.5535 14.7284 19.6115 12.9644 25.0015C11.1304 30.6435 11.1304 36.5515 12.9924 42.0955C14.0004 45.1195 14.2804 46.6315 13.1464 47.0655L12.3624 47.3735C11.4104 47.7655 10.7384 48.3955 10.3744 49.2495C9.82839 50.5515 10.2204 52.0075 10.3744 52.5535C10.3744 52.5675 10.4304 52.7495 10.4304 52.7635C10.4724 52.9315 10.5143 53.0855 10.5843 53.2535L22.3725 84.5715C22.5685 85.1035 22.8485 85.5515 23.1985 85.9015C26.5445 89.3315 29.7506 88.3515 34.1746 86.9935L35.0846 86.7135C39.5087 85.3835 43.9047 84.0115 48.3008 82.6115C52.6968 81.2115 57.0789 79.7835 61.4469 78.3555C62.5529 77.9915 63.617 77.6975 64.625 77.4175C69.245 76.1155 72.507 75.3175 73.431 69.4515C73.515 68.9195 73.473 68.3455 73.319 67.7715C70.085 56.1935 65.871 44.7275 61.8109 33.9615C61.7129 33.6955 61.5869 33.4435 61.4469 33.2195C61.1669 32.7715 60.2009 31.5395 59.0389 31.1895ZM19.6985 28.6135C20.3145 26.2055 22.7925 23.5735 24.7386 22.5095C27.6646 20.9135 30.7866 19.4715 34.0067 18.2255C34.0487 18.2115 34.1467 18.1555 34.1887 18.1415C34.5107 18.0155 35.9527 17.7775 37.4927 18.1135C38.9207 18.4215 40.3067 19.2195 40.5447 19.6115C44.1987 23.4755 46.4528 27.8015 47.3628 32.7295C47.3908 32.8415 47.4188 32.9535 47.4468 33.0655C47.6988 33.9335 46.9988 34.4795 44.3107 35.4875C44.0167 35.5995 43.7087 35.7115 43.4007 35.8095C36.9466 38.0355 31.2766 40.0655 26.0685 42.0115C24.7945 42.4875 23.3525 42.4175 22.1485 41.8155C21.0565 41.2695 20.2584 40.3455 19.9364 39.2115C18.9004 35.6695 18.8165 32.0995 19.7125 28.5995L19.6985 28.6135ZM64.5969 64.5235C65.339 66.9455 64.0509 69.5495 61.6709 70.4455C61.6709 70.4455 61.4889 70.5155 61.4749 70.5155C50.1488 74.2535 41.4827 77.0115 33.3766 79.4615C30.9126 80.2035 28.1686 78.8455 27.2586 76.4375L20.0905 57.4115C19.1665 54.9615 20.3984 52.2175 22.8205 51.2655C24.5425 50.5935 26.2645 49.9355 27.9865 49.2915C34.8186 46.7155 42.2667 44.0695 51.4368 40.9475C53.9008 40.1075 56.6309 41.4095 57.5269 43.8455C60.4809 51.8815 62.7209 58.4475 64.5829 64.5235H64.5969Z" fill="#1C0000"/>
<path d="M39.9264 50.8587C33.3744 53.3227 35.8944 62.5347 41.6484 62.9127C41.6764 63.0807 41.7324 63.2627 41.8164 63.4307C42.6984 65.3207 43.3144 67.2667 43.6644 69.3247C43.9024 70.7527 45.0365 71.8727 46.5625 71.7327C47.9205 71.6067 49.2086 70.2767 48.9706 68.8347C48.5365 66.3147 47.8925 63.8647 46.8005 61.5547C46.7305 61.3867 46.6465 61.2467 46.5485 61.0927C50.6925 57.0327 46.5205 48.3947 39.9404 50.8727L39.9264 50.8587Z" fill="#1C0000"/>
</svg>
