<svg width="120" height="130" viewBox="0 0 120 130" fill="none" xmlns="http://www.w3.org/2000/svg">
<path d="M104.24 49.167C104.24 49.167 104.066 48.9966 103.992 48.8992C104.662 47.5363 104.96 46.003 104.786 44.348C104.314 39.8941 100.565 36.5354 96.0945 36.5354C95.4737 36.5354 94.8529 36.6085 94.232 36.7301C91.401 37.3143 88.5204 37.6063 85.6397 37.6063C84.0504 37.6063 82.461 37.509 80.8717 37.3386C80.2012 37.2656 79.4562 37.0709 78.6615 36.9005C76.7742 36.4868 74.6385 36 72.3787 36C67.4617 36 63.6373 38.4338 61.8741 42.693C60.7318 45.4189 60.6573 48.2421 60.5828 50.5299C60.5828 50.9923 60.558 51.4547 60.5331 51.8928C60.4586 53.2558 60.3841 54.6187 60.3593 56.006C60.0116 56.1033 59.6888 56.2737 59.366 56.3954C57.6028 55.0568 55.492 54.3266 53.257 54.3753C52.5616 54.3753 51.8911 54.424 51.2455 54.4727L51.3945 54.278L51.2206 54.0102C51.5931 52.988 51.8166 51.9172 51.8415 50.7976C51.916 48.0717 50.873 45.4189 48.9856 43.5205C46.4526 40.9893 42.8518 39.8941 39.3503 40.5999C37.5623 40.965 35.8984 41.7925 34.5326 42.9851C34.5326 42.9851 34.4829 43.0337 34.4581 43.0581C31.1553 41.3787 27.3061 40.7946 23.7052 41.5248C22.4387 41.7681 21.2219 42.1819 20.0796 42.7417C17.5962 43.9099 15.7337 46.003 14.8397 48.6072C13.9457 51.2114 14.1692 54.0833 15.4109 56.4927C16.2304 58.0747 17.4472 59.3646 18.8876 60.3138C15.4606 61.9445 13.0765 65.4005 13.002 69.1243C12.9027 74.3326 16.4291 78.4944 21.7682 79.5166L22.1656 79.5897C25.0214 80.1251 28.5726 80.8066 32.3969 80.0278C33.5641 79.7844 34.7064 79.4193 35.7494 78.9569C37.7858 78.032 39.5489 76.6204 40.9644 74.8681C41.7343 75.0384 42.5289 75.1601 43.3236 75.2331C45.6083 75.4522 47.7439 75.2575 49.5568 75.0628C49.5568 75.0628 52.3133 74.7464 52.5865 74.722C52.7355 74.722 52.8845 74.722 53.0335 74.722C53.704 74.722 54.3993 74.6247 55.0698 74.503C56.0383 74.3083 56.9075 73.9675 57.7518 73.5538C59.217 76.1093 60.8311 78.5918 62.5446 80.9769C64.2085 83.2647 66.965 84.6277 69.9202 84.6277C72.4283 84.6277 74.7627 83.6298 76.3768 81.9018C76.5258 81.7314 76.6252 81.5367 76.7742 81.3663C76.6748 82.3399 76.7245 83.3377 76.9977 84.3356C78.4877 89.4466 83.2805 93 88.6197 93C91.1775 93 93.636 92.1968 95.7221 90.6635C102.303 85.8202 100.664 77.813 99.7947 73.5051C99.7947 73.5051 99.3726 71.4607 99.1987 70.6576C98.8759 69.1243 98.5531 67.6396 98.3296 66.1793C98.6276 66.2037 98.9256 66.228 99.2484 66.228C102.924 66.228 105.978 63.7455 106.723 60.1921C107.518 56.3224 106.574 52.2092 104.24 49.2156V49.167ZM78.438 77.2289C78.438 76.9855 78.438 76.7178 78.438 76.4744C78.5622 76.6691 78.5622 76.9125 78.438 77.2289Z" fill="#F1A695"/>
<path d="M26.2542 54.0669C26.5592 53.9187 26.5592 53.9187 26.2542 54.0175C26.3715 53.9681 26.4888 53.9434 26.6061 53.9187C26.7233 53.894 26.8406 53.8692 26.9813 53.8445C26.653 53.8445 26.653 53.8445 26.9813 53.8445C27.2393 53.8692 27.4739 53.8692 27.7319 53.9187C27.2393 53.8198 27.8726 53.9928 28.0134 54.0422C28.0603 54.0422 28.7874 54.4128 28.3183 54.141C28.5528 54.2646 28.7639 54.4128 28.975 54.5858C29.1157 54.6846 29.2565 54.8082 29.3972 54.907C29.2095 54.734 29.1861 54.734 29.3268 54.8823C29.5145 55.08 29.6786 55.2776 29.8428 55.5C30.4057 56.266 30.781 57.3778 31.0156 58.465C31.1797 59.1815 31.2736 59.8981 31.3439 60.6393C31.4143 61.3806 31.4378 61.3559 31.4378 62.1218C31.4378 62.6407 31.4378 63.1596 31.3908 63.7032C31.3908 63.975 31.3439 64.222 31.3205 64.4938C31.3205 64.6668 31.2736 64.8398 31.2501 65.0127C31.297 64.7162 31.297 64.6915 31.2501 64.8892C31.1797 65.1857 31.1094 65.4575 31.0156 65.7293C30.9687 65.8775 30.6403 66.5199 30.9452 65.9516C30.8279 66.174 30.7107 66.347 30.5934 66.5693C30.2885 67.0635 30.8983 66.3717 30.4761 66.6929C30.2416 66.8658 29.9366 67.0141 30.3354 66.8164C30.1946 66.8905 30.0539 66.9647 29.9132 67.0388C30.0774 66.9647 30.0539 66.9647 29.8663 67.0388C29.3737 67.1623 28.975 67.1376 28.2244 67.0635C26.7937 66.9153 25.3864 66.6682 23.9791 66.3717C22.5718 66.0752 21.0238 67.6565 21.0004 69.1143C20.9769 70.8686 22.0558 71.9311 23.6039 72.2523C26.4888 72.8453 29.7725 73.5865 32.5401 72.2523C34.8856 71.1157 36.1991 68.5954 36.6916 66.0258C37.1842 63.4561 37.0434 60.5899 36.5743 57.9461C36.0349 54.8576 34.7449 51.9914 32.3994 49.99C30.0539 47.9887 26.5122 47.3215 23.6508 48.804C22.2904 49.4959 21.7509 51.3737 22.4311 52.7821C23.1113 54.1905 24.847 54.7587 26.2073 54.0669H26.2542Z" fill="black"/>
<path d="M39.7618 48.7138C37.729 50.5268 35.9624 52.8885 35.3333 55.5364C34.6073 58.5422 35.0429 61.6196 36.882 64.1483C38.6002 66.51 41.4315 67.655 44.2871 67.9413C45.8116 68.0844 47.3604 67.9413 48.8608 67.7743C49.5626 67.7027 50.2643 67.6073 50.9661 67.5119C51.3775 67.4642 51.7647 67.4165 52.1761 67.3926C51.7163 67.4403 52.8053 67.3926 52.9263 67.3926C54.4266 67.3688 55.9754 66.3668 55.9996 64.7447C56.0238 63.3133 54.9106 61.6912 53.3135 61.715C51.8373 61.7389 50.3853 61.9059 48.9092 62.0728C48.3042 62.1444 47.6992 62.216 47.0942 62.2875C46.1262 62.383 47.6266 62.2875 46.6586 62.3114C46.4166 62.3114 46.1504 62.3114 45.9084 62.3114C45.4002 62.3114 44.9163 62.2875 44.4081 62.216C44.2145 62.1921 43.6579 62.0967 44.1661 62.216C43.8757 62.1444 43.6095 62.0728 43.3433 62.0013C43.1013 61.9297 42.8835 61.8343 42.6657 61.7389C42.4721 61.6673 42.5205 61.6673 42.7867 61.7866C42.6415 61.715 42.4963 61.6196 42.3753 61.548C42.2543 61.4765 41.6977 61.0232 42.1575 61.4288C41.9639 61.2618 41.8187 61.0948 41.6493 60.9039C41.5525 60.7847 41.2379 60.236 41.5041 60.7369C41.3831 60.5222 41.2621 60.3314 41.1653 60.1167C41.0443 59.8781 40.9233 59.4487 41.0685 59.9497C40.9959 59.7112 40.9233 59.4726 40.8749 59.2579C40.8749 59.1863 40.7297 58.3037 40.7781 58.6854C40.8265 59.0671 40.7781 58.3037 40.7781 58.2083C40.7781 57.9697 40.8023 57.7312 40.8265 57.4926C40.8265 57.3733 40.8507 57.254 40.8749 57.1348C40.8023 57.4687 40.8023 57.4687 40.8749 57.1348C41.0201 56.6815 41.1895 56.2283 41.3589 55.775C41.1411 56.3237 41.4073 55.6796 41.4799 55.5603C41.6009 55.3456 41.7219 55.1548 41.8671 54.9401C42.0123 54.7254 42.1333 54.5345 42.2785 54.3437C42.3995 54.2005 42.7383 53.7711 42.4237 54.1528C42.7867 53.7234 43.2223 53.3179 43.6337 52.9601C44.7469 51.9581 44.9405 50.0258 43.8515 48.9285C42.7625 47.8311 40.9717 47.6403 39.7618 48.7138Z" fill="black"/>
<path d="M60.3104 65.6886C62.3211 69.964 64.6996 74.0416 67.4214 77.8968C68.6719 79.6762 72.2764 79.3302 71.9822 76.6612C71.4918 71.8669 71.1975 67.0231 71.1485 62.2041C71.0995 57.385 71.0014 52.3436 71.737 47.5987C71.7615 47.3763 71.7615 46.9561 71.9332 46.7584C71.6879 47.0303 72.2274 46.9314 72.5952 46.9809C73.6496 47.1538 74.704 47.4751 75.7829 47.6728C77.9897 48.0929 80.2456 48.3648 82.5015 48.5131C87.1113 48.7849 91.7212 48.3401 96.2329 47.3763C99.3225 46.709 98.0229 41.9394 94.9334 42.6067C89.9557 43.6693 84.8309 43.9164 79.7552 43.3233C75.8564 42.8538 69.4321 39.8141 67.3723 44.9297C66.4896 47.1538 66.6122 49.9464 66.4651 52.2942C66.318 54.9137 66.2444 57.558 66.2199 60.2023C66.2199 65.6886 66.4896 71.1749 67.0536 76.6365L71.6144 75.4008C68.8926 71.5456 66.5141 67.4679 64.5034 63.1926C63.1548 60.3259 58.9128 62.8219 60.2614 65.6886H60.3104Z" fill="black"/>
<path d="M82.1019 82.3575C83.3193 86.5033 88.3628 88.4429 92.015 85.776C95.9157 82.9151 94.6486 77.6299 93.8536 73.678C92.8598 68.7806 91.4685 63.6893 92.1144 58.6464C92.2883 57.2403 92.8846 54.5006 94.7977 54.4279C96.2884 54.3794 96.7107 56.4644 96.4871 57.5554C95.9157 60.3193 100.264 61.5073 100.835 58.7192C101.605 54.9855 99.6673 50.3064 95.2697 50.0154C90.0274 49.676 87.8659 55.0098 87.543 59.2041C87.1206 64.4651 88.4622 69.6777 89.4809 74.7932C89.8535 76.7086 90.7479 79.3997 89.9529 81.315C89.2324 83.0606 86.9715 82.8667 86.4498 81.1211C85.6547 78.4057 81.282 79.5694 82.1019 82.2848V82.3575Z" fill="black"/>
</svg>
