<svg width="120" height="130" viewBox="0 0 120 130" fill="none" xmlns="http://www.w3.org/2000/svg">
<path d="M93.724 111C96.1546 111 98.4736 110.031 100.124 108.317C101.751 106.626 102.643 104.349 102.577 101.914C102.443 95.2863 102.443 87.283 102.577 71.2988L102.688 64.7383V63.9718C102.777 62.9347 102.822 61.8976 102.844 60.8606C102.933 57.5014 102.956 54.1648 102.956 50.8507V50.242C103 47.8298 103.112 40.5253 95.8647 38.1806C94.1477 37.617 92.5199 37.5945 91.4719 37.5945H90.959C89.7549 37.5494 88.5508 37.5268 87.3467 37.5268C86.1203 37.5268 84.8938 37.5268 83.6451 37.5268H79.1854C77.3124 37.5268 75.4393 37.5268 73.1649 37.4366C72.9196 36.4447 72.5182 35.4753 71.9161 34.596C71.4702 33.9422 71.1134 33.4237 71.0911 33.3786C69.9093 31.7779 68.5937 30.3351 67.1443 29.0726C63.8664 26.0741 59.8081 24.3156 55.7943 24.0451C55.393 24.0225 55.0139 24 54.6125 24C53.899 24 53.1631 24.0451 52.4273 24.1353C49.8407 24.4509 47.3209 25.3752 45.1803 26.7505C44.0208 27.4944 42.9281 28.3962 42.0139 29.3882C39.1374 28.4864 35.8372 27.6072 32.4702 27.6072C31.712 27.6072 30.9539 27.6522 30.1957 27.7424C26.4496 28.2159 23.2163 29.8616 20.6297 32.6346C16.4822 37.121 13.6949 44.0197 12.4016 53.1503C11.1528 61.9878 12.7806 68.909 17.2626 73.7562C17.5971 74.162 17.9762 74.5452 18.3775 74.8834C18.7343 75.199 19.2249 75.5823 19.8046 75.9204C22.7926 77.8593 26.4719 78.7836 31.0431 78.7836C33.2506 78.7836 35.4359 78.5807 37.3981 78.3778C38.6022 78.2651 39.7618 78.1524 40.8544 78.1073C42.3484 78.0396 43.8647 78.0171 45.4256 77.972C44.1323 80.0236 43.4633 82.6388 43.4633 85.8176C43.4633 88.4102 43.5079 91.0029 43.5302 93.5955V94.1366C43.5748 96.4812 43.6194 96.9772 43.664 97.5408C43.7086 97.9466 43.7309 98.3975 43.7755 100.111V101.576C43.7755 106.536 47.7892 110.572 52.6949 110.572L93.7017 110.977L93.724 111Z" fill="#F9D38F"/>
<path d="M80.0549 53.5562H76.9108C75.9749 53.5562 75.2161 54.3233 75.2161 55.2696V58.4484C75.2161 59.3946 75.9749 60.1618 76.9108 60.1618H80.0549C80.9908 60.1618 81.7496 59.3946 81.7496 58.4484V55.2696C81.7496 54.3233 80.9908 53.5562 80.0549 53.5562Z" fill="black"/>
<path d="M87.5026 53.5562H84.3585C83.4225 53.5562 82.6638 54.3233 82.6638 55.2696V58.4484C82.6638 59.3946 83.4225 60.1618 84.3585 60.1618H87.5026C88.4385 60.1618 89.1972 59.3946 89.1972 58.4484V55.2696C89.1972 54.3233 88.4385 53.5562 87.5026 53.5562Z" fill="black"/>
<path d="M80.0549 62.6191H76.9108C75.9749 62.6191 75.2161 63.3863 75.2161 64.3325V67.5113C75.2161 68.4576 75.9749 69.2247 76.9108 69.2247H80.0549C80.9908 69.2247 81.7496 68.4576 81.7496 67.5113V64.3325C81.7496 63.3863 80.9908 62.6191 80.0549 62.6191Z" fill="black"/>
<path d="M87.5026 62.6191H84.3585C83.4225 62.6191 82.6638 63.3863 82.6638 64.3325V67.5113C82.6638 68.4576 83.4225 69.2247 84.3585 69.2247H87.5026C88.4385 69.2247 89.1972 68.4576 89.1972 67.5113V64.3325C89.1972 63.3863 88.4385 62.6191 87.5026 62.6191Z" fill="black"/>
<path d="M80.0549 70.6675H76.9108C75.9749 70.6675 75.2161 71.4346 75.2161 72.3809V75.5597C75.2161 76.506 75.9749 77.2731 76.9108 77.2731H80.0549C80.9908 77.2731 81.7496 76.506 81.7496 75.5597V72.3809C81.7496 71.4346 80.9908 70.6675 80.0549 70.6675Z" fill="black"/>
<path d="M87.5026 70.6675H84.3585C83.4225 70.6675 82.6638 71.4346 82.6638 72.3809V75.5597C82.6638 76.506 83.4225 77.2731 84.3585 77.2731H87.5026C88.4385 77.2731 89.1972 76.506 89.1972 75.5597V72.3809C89.1972 71.4346 88.4385 70.6675 87.5026 70.6675Z" fill="black"/>
<path d="M59.8302 86.7192H58.4031C57.4671 86.7192 56.7084 87.4864 56.7084 88.4326V89.8755C56.7084 90.8218 57.4671 91.5889 58.4031 91.5889H59.8302C60.7661 91.5889 61.5249 90.8218 61.5249 89.8755V88.4326C61.5249 87.4864 60.7661 86.7192 59.8302 86.7192Z" fill="black"/>
<path d="M65.3156 86.7192H63.8885C62.9526 86.7192 62.1938 87.4864 62.1938 88.4326V89.8755C62.1938 90.8218 62.9526 91.5889 63.8885 91.5889H65.3156C66.2515 91.5889 67.0103 90.8218 67.0103 89.8755V88.4326C67.0103 87.4864 66.2515 86.7192 65.3156 86.7192Z" fill="black"/>
<path d="M60.1647 93.1221H58.7376C57.8016 93.1221 57.0429 93.8892 57.0429 94.8355V96.2783C57.0429 97.2246 57.8016 97.9917 58.7376 97.9917H60.1647C61.1006 97.9917 61.8593 97.2246 61.8593 96.2783V94.8355C61.8593 93.8892 61.1006 93.1221 60.1647 93.1221Z" fill="black"/>
<path d="M65.6501 93.1221H64.223C63.287 93.1221 62.5283 93.8892 62.5283 94.8355V96.2783C62.5283 97.2246 63.287 97.9917 64.223 97.9917H65.6501C66.586 97.9917 67.3448 97.2246 67.3448 96.2783V94.8355C67.3448 93.8892 66.586 93.1221 65.6501 93.1221Z" fill="black"/>
<path d="M27.988 42.87C29.0137 40.9762 30.3293 39.9842 32.1132 39.7588C34.2093 39.4883 36.6621 40.3224 39.048 41.1115C40.2521 41.5173 41.5232 41.9456 42.705 42.1936C43.7307 42.4191 44.9571 42.6445 46.1389 42.5093C47.2539 42.374 48.1904 41.9005 48.8816 41.134C49.5283 40.4126 49.8628 39.6461 50.175 38.9472C50.5986 37.9778 50.9331 37.2112 51.9811 36.6702C52.6278 36.332 53.2744 36.1066 53.9211 36.0389C58.0017 35.5204 60.8559 39.3305 62.1492 41.382C63.1973 42.9601 65.4271 43.1631 66.7427 41.8104L67.0103 41.5398C68.0137 40.5028 68.1698 38.8796 67.3448 37.6847C66.9657 37.1436 66.6535 36.6927 66.6312 36.6476C65.6947 35.3851 64.6467 34.2353 63.5094 33.2434C61.0789 31.1242 58.2024 29.8617 55.3928 29.6588C54.6346 29.6137 53.8542 29.6362 53.0961 29.7264C51.3345 29.9519 49.6175 30.5606 48.1458 31.5074C47.0532 32.2063 46.1166 33.0856 45.4031 34.0324C45.2024 34.303 45.024 34.6637 44.8456 35.0019C44.6895 35.3175 44.5557 35.6106 44.3774 35.8135C44.3105 35.9037 44.2436 35.9713 44.199 36.0615C44.0875 36.0164 42.2144 35.4077 42.2144 35.4077C38.6467 34.2353 34.5883 32.8827 30.8645 33.3561C28.3894 33.6717 26.3602 34.7088 24.6655 36.5349C20.4734 41.0438 18.6672 48.5061 17.8868 53.9845C16.8834 61.1086 18.0875 66.5419 21.4099 70.0814C21.566 70.3069 21.789 70.5098 21.9674 70.645C22.1904 70.8705 22.4357 71.0508 22.6364 71.141C26.6278 73.8238 32.0463 73.3053 36.8182 72.8544C38.1338 72.7192 39.4271 72.6064 40.6312 72.5613C42.7942 72.4712 44.9794 72.4261 47.1647 72.381C50.0858 72.3133 53.0515 72.2457 56.0172 72.0654C57.7118 71.9526 59.0274 70.4647 58.9605 68.7513C58.8937 67.0379 57.3774 65.5725 55.5935 65.6852C53.2521 65.8205 50.8885 65.8656 48.5695 65.9332C46.8525 65.9783 45.1578 66.0008 43.4631 66.0685C40.4082 66.1812 37.3533 66.339 34.3876 66.5644L33.518 66.6321C30.976 66.835 27.7873 67.1055 25.9588 65.6852C23.3053 63.1377 23.7067 58.1327 24.2418 54.5707C24.8885 50.2646 26.1818 46.2517 27.9657 42.9601L27.988 42.87Z" fill="black"/>
<path d="M94.1921 43.5011C93.2556 43.208 92.2744 43.1855 91.4048 43.1855H90.825C89.6655 43.1404 88.506 43.1179 87.3242 43.1179C86.1201 43.1179 84.8937 43.1179 83.6895 43.1179H80.6792C78.0703 43.1179 75.7067 43.1179 72.5626 43.0051C72.2058 43.0051 71.3808 42.9826 70.7341 43.0051C69.1286 43.0953 67.7907 44.3353 67.7907 46.4319V77.8367C67.3448 77.8367 66.8988 77.8142 66.4528 77.8142C64.669 77.8142 62.8851 77.8592 61.1681 77.972C60.6552 77.9945 60.0978 78.0171 59.518 78.0396C57.1321 78.1298 54.4117 78.22 52.2933 79.2119C49.0377 80.745 49.0377 84.2168 49.0377 85.9077C49.0377 88.4778 49.0823 91.0254 49.1046 93.5954V94.114C49.1715 98.172 49.2607 96.0303 49.3499 100.088C49.3499 100.156 49.3499 100.81 49.3499 101.621C49.3499 103.493 50.8439 105.003 52.6947 105.003C54.5455 105.003 56.0394 103.47 56.0394 101.599C56.0394 100.832 56.0394 100.246 56.0394 100.179L55.8834 98.3975C55.8388 96.0754 55.7942 93.7307 55.7719 91.4086L55.7273 88.072C55.7273 87.8691 55.705 87.5084 55.6604 87.1026C55.6158 86.6517 55.5266 85.6372 55.5712 85.1863C55.9503 85.051 56.9091 85.0285 57.3551 85.0059C57.6895 85.0059 57.9794 85.0059 58.2024 84.9608C59.518 84.8256 60.8336 84.7354 62.1715 84.6677C63.5763 84.6001 64.9811 84.555 66.4082 84.555C66.8542 84.555 67.3225 84.555 67.7684 84.555V86.0204C67.9245 96.7743 68.1029 91.2057 67.7684 100.043C67.7238 100.968 68.036 101.779 68.6158 102.388C69.2178 103.019 70.1098 103.38 71.0463 103.38C72.6964 103.38 74.3911 102.253 74.458 100.111C74.7702 91.2057 74.5918 96.7292 74.458 85.9753V83.6081C74.458 83.6081 74.458 83.4278 74.458 83.3376V49.7911C76.6209 49.8362 78.7616 49.8587 80.6569 49.8587H84.5146C86.566 49.8587 88.6175 49.8587 90.669 49.9264C90.669 50.0165 90.669 50.1067 90.669 50.1518V51.9103C90.6467 56.0585 90.6021 59.846 90.4237 63.7237C90.4237 63.859 90.3791 63.9717 90.3791 64.107C90.3791 64.5579 90.3568 65.1215 90.3345 65.7978C90.3122 66.4291 90.2676 67.0603 90.2676 67.6916C90.2676 67.7592 90.3122 67.8269 90.3122 67.917C90.1338 81.9849 90.1338 94.8129 90.2676 102.072C90.3122 104.237 92.0069 105.341 93.6569 105.341C94.5935 105.341 95.4631 104.981 96.0875 104.349C96.6672 103.741 96.9794 102.929 96.9571 102.005C96.8233 95.2637 96.8233 87.3055 96.9571 71.186L97.0686 64.4226C97.0686 64.1521 97.0686 63.9041 97.0909 63.6335C97.1355 62.6416 97.2024 61.6496 97.2247 60.6576C97.3139 57.3436 97.3362 54.0295 97.3362 50.738V50.0842C97.3808 47.7395 97.4254 44.5382 94.1252 43.456L94.1921 43.5011Z" fill="black"/>
</svg>
