<svg width="120" height="130" viewBox="0 0 120 130" fill="none" xmlns="http://www.w3.org/2000/svg">
<path d="M106.951 21.3746C106.655 19.4868 105.361 17.8817 103.567 17.1888C96.4972 14.4737 88.6043 14.0566 82.5123 14H81.6259C76.1881 14 71.0106 14.4949 66.2481 15.4707C52.4672 18.306 43.3292 25.32 40.5223 35.2117C40.1495 36.5198 39.8822 37.9127 39.7274 39.355C39.6219 39.4258 39.5234 39.4894 39.446 39.546C36.5477 41.6388 33.8746 43.9792 31.4969 46.5034C26.6359 51.6578 22.999 57.4698 20.6846 63.7839C16.2879 75.7897 17.329 88.4248 23.5336 98.4508C30.1321 109.113 42.1685 116 54.1977 116H56.7302C74.9289 115.053 90.0113 100.664 91.8192 82.5279C92.7478 73.1594 89.9972 63.5222 84.2639 56.0769C82.7374 54.0972 81.021 52.2871 79.1357 50.6609C80.7185 50.1589 82.238 49.4872 83.6801 48.667C89.4837 45.3438 93.4794 40.0692 97.0108 35.4097C97.5032 34.7663 97.9886 34.1228 98.474 33.4865C100.774 30.5027 102.779 28.127 105.08 26.2392C106.515 25.0654 107.225 23.1988 106.937 21.3675L106.951 21.3746Z" fill="#9597C9"/>
<path d="M101.659 22.8324C95.721 20.5474 88.9052 20.0667 82.6078 20.004C77.5893 19.9553 72.5362 20.3454 67.6214 21.3555C58.5867 23.2225 48.674 27.7577 45.9297 37.455C45.591 38.6463 45.3767 39.8724 45.2661 41.1055C45.2177 41.5861 45.3422 42.4221 45.1348 42.8401C44.8859 43.3417 43.5795 43.9269 43.0956 44.2752C40.531 46.1352 38.1254 48.2322 35.948 50.545C31.7797 54.9757 28.4202 60.2005 26.3257 65.9409C22.7311 75.7776 23.139 86.9309 28.7036 95.9524C34.2129 104.87 44.3122 111 54.8331 111H57.0797C72.5846 110.192 85.5595 97.917 87.1148 82.2982C87.9167 74.231 85.5802 66.0245 80.6516 59.6154C75.8059 53.3107 68.7274 49.1099 60.9784 47.5982C59.7203 47.3544 58.4346 47.1802 57.1488 47.1454C56.6373 47.1314 56.0083 47.0548 55.5037 47.2011C55.0889 47.3265 54.681 47.7166 54.3285 47.9605C52.3792 49.3398 50.5681 50.9142 48.8814 52.6071C45.1002 56.3899 41.7891 60.7927 39.5909 65.6971C39.3904 66.1499 39.9573 66.7212 40.3305 66.2753C44.9965 60.737 52.4552 57.8389 59.5959 59.3019C65.6167 60.5349 70.8288 64.5894 73.58 70.1347C76.4073 75.8403 76.3451 82.7789 73.4141 88.4287C70.656 93.758 65.5891 97.6453 59.7618 98.9062C52.9598 100.376 45.75 98.112 40.9665 93.0335C35.8443 87.5927 33.4318 80.1386 34.4618 72.7193C36.0862 60.9669 43.8974 51.4228 53.1395 44.6026C62.3609 37.7964 73.103 33.108 84.0526 29.9382C75.64 34.341 67.1513 38.6742 59.5406 44.4076C59.2088 44.6584 59.2572 45.1251 59.6512 45.2784C66.702 47.9883 74.6238 49.2075 81.4603 45.2784C87.0388 42.0738 90.7578 36.5424 94.6012 31.5405C96.7855 28.6982 99.0736 25.9046 101.852 23.6266C102.157 23.3758 101.942 22.9439 101.645 22.8324H101.659Z" fill="black"/>
</svg>
