<svg width="120" height="130" viewBox="0 0 120 130" fill="none" xmlns="http://www.w3.org/2000/svg">
<g clip-path="url(#clip0_384_2460)">
<path d="M40.7559 104C36.8032 104 33.252 101.719 31.4882 98.0501C21.2677 76.8585 21.5276 51.7029 32.1811 30.7665C34.0157 27.1614 37.4646 25 41.4016 25C45.3386 25 48.7165 27.0418 50.7008 30.3278C52.6457 33.558 52.7717 37.514 51.0472 40.9037C43.5354 55.6589 43.3386 73.3491 50.5118 88.2319C52.1496 91.6296 51.9606 95.5616 49.9921 98.7519C48 101.99 44.4567 103.992 40.7559 103.992V104Z" fill="#80CBA2"/>
<path d="M79.2047 98.991C75.3228 98.991 71.7087 96.8775 69.7638 93.4638C67.8661 90.1459 67.8898 86.1501 69.811 82.7763C77.0709 70.047 77.7008 53.9678 71.4488 40.8317C69.8346 37.4261 70.0394 33.502 72.0079 30.3276C74.0079 27.1054 77.5433 25.1035 81.2284 25.1035C85.1969 25.1035 88.7559 27.4005 90.5118 31.1013C99.8898 50.8094 99.0394 74.7686 88.2913 93.6154C86.378 96.9732 82.9764 98.991 79.2047 98.991Z" fill="#80CBA2"/>
<path d="M40.7559 96.0244C39.811 96.0244 39.0157 95.49 38.5591 94.5568C29.4252 75.6144 29.6535 53.1307 39.1732 34.4275C39.6457 33.4943 40.4331 32.9839 41.3937 32.9839C42.4095 32.9839 43.4173 33.5741 43.9685 34.4913C44.4882 35.3527 44.5118 36.3337 44.0394 37.2669C35.3937 54.2473 35.1654 74.6174 43.4331 91.7494C43.8898 92.6905 43.8425 93.6795 43.3071 94.5488C42.748 95.4581 41.748 96.0403 40.748 96.0403L40.7559 96.0244Z" fill="black"/>
<path d="M79.2047 91.0154C78.1654 91.0154 77.1102 90.4013 76.5827 89.4761C76.0945 88.6307 76.1181 87.6656 76.6299 86.7643C85.1732 71.7779 85.9055 52.8514 78.5433 37.3704C78.0945 36.4292 78.1417 35.4323 78.6772 34.5709C79.2362 33.6696 80.2362 33.0874 81.2284 33.0874C82.2205 33.0874 82.9685 33.6218 83.4173 34.5629C91.685 51.9341 90.937 73.038 81.4803 89.6356C80.9685 90.5289 80.1654 91.0234 79.2047 91.0234V91.0154Z" fill="black"/>
</g>
<defs>
<clipPath id="clip0_384_2460">
<rect width="73" height="79" fill="white" transform="translate(24 25)"/>
</clipPath>
</defs>
</svg>
