<svg width="52" height="52" viewBox="0 0 52 52" fill="none" xmlns="http://www.w3.org/2000/svg">
<path d="M27.4268 49.5081C25.9533 49.6086 24.5131 49.0679 23.4689 48.0015C22.8062 47.3298 22.2356 46.6518 21.7482 46.0617C21.6979 46.0028 21.6476 45.9439 21.5973 45.885C19.5591 48.3307 17.3203 48.9666 15.7854 49.0714C14.9412 49.129 14.0875 49.047 13.2386 48.8088C12.9713 48.7336 12.7029 48.6428 12.4192 48.553C11.9339 48.8979 11.4486 49.2427 10.9786 49.5865C10.2143 50.1374 9.31032 50.4484 8.37403 50.5123C6.57821 50.6349 4.87235 49.8162 3.83019 48.3288C2.20581 45.9928 2.75515 42.7448 5.06434 41.1066C5.13791 41.0548 5.21148 41.003 5.28505 40.9512C4.9807 39.881 4.84413 38.7838 4.8928 37.6895C5.07429 34.2484 7.09659 31.118 10.1796 29.5205C11.2958 28.93 12.4904 28.5835 13.6876 28.5018C15.6829 28.3656 17.6688 28.9937 19.2969 30.2541C20.5846 31.2728 21.5108 32.6434 21.9708 34.1861C22.0169 34.183 22.064 34.1953 22.0957 34.2088L31.2147 7.85512C31.6651 6.54639 32.5172 5.47519 33.6249 4.76059C34.6173 2.35507 36.8355 0.738667 39.3987 0.56372C40.3043 0.501912 41.2072 0.627308 42.0758 0.926489C45.4415 2.11503 47.3104 5.77469 46.3572 9.20616C46.4345 9.43467 46.5118 9.66317 46.5583 9.89377C47.384 10.6946 48.1631 11.7168 48.5527 12.9059C49.2143 14.918 48.9513 17.1646 47.8245 18.9559C47.0661 20.2701 46.6469 21.3585 46.5173 22.3959C46.4559 22.8521 46.4437 23.3517 46.4707 23.9732C46.556 26.8039 44.449 29.1453 41.7015 29.3328C41.4099 29.3527 41.1315 29.3405 40.852 29.3128L36.5556 41.8249L36.3021 42.4033L35.8443 43.1514L35.3573 43.699L30.8374 47.9661C30.4309 48.3368 30.0181 48.6143 29.601 48.8298C28.9633 49.2006 28.2228 49.4226 27.44 49.476L27.4268 49.5081Z" fill="#F1A695"/>
<path d="M27.1337 45.4277C26.8268 45.4487 26.5256 45.329 26.2948 45.111C25.7656 44.586 25.2791 44.0114 24.8245 43.4502C24.1534 42.6544 23.5664 41.9619 22.9111 41.3988C22.0929 40.7066 21.4863 40.4051 20.9798 40.4397C20.9031 40.4449 20.811 40.4512 20.7363 40.4875C20.2526 40.6296 19.7233 41.4605 19.2909 42.1291C19.0401 42.5202 18.8299 42.8307 18.6177 43.1101C17.6809 44.2962 16.6303 44.9446 15.4791 45.0231C15.0801 45.0504 14.6604 45.0011 14.2518 44.8887C13.4981 44.6908 12.7317 44.3067 12.0171 43.7788C10.8882 44.6351 9.74183 45.4615 8.60972 46.2712C8.4483 46.3913 8.25194 46.4515 8.06775 46.4641C7.68403 46.4903 7.33259 46.3116 7.11082 45.9995C6.7689 45.5085 6.89115 44.8144 7.37649 44.4696C8.39109 43.7458 9.41999 43.0054 10.4325 42.2505C9.38767 40.9503 8.84991 39.3973 8.92028 37.9431C9.03033 35.9407 10.2164 34.1142 12.0186 33.1807C12.6585 32.841 13.3089 32.6563 13.9536 32.6123C14.982 32.5421 15.959 32.8495 16.8223 33.523C17.6199 34.1388 18.1328 35.1012 18.1984 36.063C18.2651 37.0404 17.8465 37.9105 17.458 38.5449C16.8901 39.4876 16.1692 40.2225 15.5177 40.8436C14.9673 41.3644 14.4004 41.8706 13.8161 42.3469C14.1533 42.5421 14.4862 42.6752 14.8006 42.7628C14.989 42.8123 15.1446 42.8328 15.2981 42.8224C15.82 42.7868 16.3503 42.4233 16.9044 41.7309C17.0606 41.5332 17.2278 41.2724 17.4093 40.9951C18.1058 39.9033 18.8452 38.7619 20.0837 38.3812C20.3251 38.3024 20.5696 38.2702 20.8152 38.2534C22.258 38.1549 23.4912 39.0526 24.293 39.7304C24.7186 40.091 25.1002 40.4857 25.4675 40.8971L25.1033 38.2724C25.0742 38.0718 25.0912 37.868 25.1552 37.6766L34.9961 9.24766C35.2533 8.49759 35.9276 7.98401 36.7104 7.93059C36.7411 7.92849 36.7564 7.92744 36.7871 7.92535L37.2751 6.48937C37.636 5.4517 38.5596 4.74967 39.6494 4.67529C40.0177 4.65015 40.376 4.70362 40.7233 4.82018C42.1142 5.31749 42.8679 6.87133 42.3932 8.27523L41.9063 9.72672C42.1349 9.91373 42.3043 10.1359 42.4461 10.4068C42.6785 10.8741 42.7155 11.417 42.5499 11.9271L42.552 11.9581C43.3687 12.4011 44.4569 13.4334 44.7104 14.2109C45.0021 15.0949 44.8835 16.0693 44.3807 16.8361C43.3031 18.6708 42.704 20.2858 42.5072 21.9201C42.4299 22.5956 42.4008 23.2989 42.4283 24.1542C42.4379 24.7458 42.0092 25.2426 41.4259 25.2824C40.7966 25.3254 40.3012 24.8449 40.2753 24.2388C40.2382 23.2439 40.2742 22.4154 40.3604 21.6458C40.4991 20.5142 40.9675 19.4692 41.4634 18.3756C41.8249 17.5717 42.2149 16.7346 42.5044 15.7797C42.606 15.4611 42.6621 14.9274 42.5891 14.7609C42.4801 14.519 42.1366 14.2307 41.8301 14.0334L32.7847 40.3353L32.7186 40.4957L32.5931 40.6913L32.4645 40.8403L28.0753 44.9894C27.9446 45.1075 27.7964 45.1955 27.6614 45.2515C27.5593 45.3364 27.3793 45.411 27.1644 45.4256L27.1337 45.4277ZM27.8408 42.2313L28.9703 41.1567C28.5145 41.032 28.0567 40.8762 27.6111 40.6728L27.8255 42.2323L27.8408 42.2313ZM14.0875 34.8007C13.7498 34.8237 13.3868 34.9264 13.0147 35.1233C11.8831 35.7148 11.1427 36.8407 11.0718 38.0612C11.0279 38.9993 11.4058 40.0177 12.1304 40.919C12.7872 40.3754 13.4276 39.8174 14.0209 39.247C14.5856 38.7097 15.1615 38.1094 15.5918 37.4098C15.814 37.0518 16.0596 36.5831 16.0353 36.2263C16.0109 35.8695 15.8003 35.4942 15.4906 35.2504C15.0508 34.9064 14.594 34.7661 14.0722 34.8017L14.0875 34.8007ZM27.7428 37.8585C28.5722 38.4876 29.5842 38.855 30.6343 38.8768L36.6418 21.3853L33.7974 20.3794L27.7582 37.8574L27.7428 37.8585ZM37.3494 19.3265L40.0131 11.5859L37.1984 10.5624L34.5204 18.3196L37.3647 19.3255L37.3494 19.3265ZM39.6717 9.06881L40.2612 7.31419C40.3253 7.12279 40.2337 6.91085 40.0299 6.86242L39.8743 6.84187C39.7362 6.8513 39.6187 6.93724 39.5658 7.06554L38.9608 8.8212L39.6563 9.06985L39.6717 9.06881Z" fill="black"/>
</svg>
