<svg width="52" height="53" viewBox="0 0 52 53" fill="none" xmlns="http://www.w3.org/2000/svg">
<path d="M23.9381 49.0574C22.4605 48.9282 21.1115 48.2169 20.2335 47.0839C19.6757 46.3695 19.2102 45.6632 18.8141 45.0498C18.773 44.9884 18.7318 44.9269 18.6907 44.8654C16.3038 46.798 13.987 47.0438 12.448 46.9092C11.6015 46.8351 10.7663 46.6318 9.95902 46.2863C9.70491 46.1772 9.45206 46.0538 9.18382 45.9291C8.65079 46.1718 8.11777 46.4146 7.60014 46.6587C6.75961 47.0481 5.81605 47.1971 4.87721 47.1149C3.07647 46.9574 1.50502 45.9518 0.691798 44.4338C-0.573109 42.0515 0.455221 39.1609 2.99094 38.0082C3.07166 37.9719 3.15238 37.9355 3.23311 37.8992C3.09018 36.8739 3.11781 35.849 3.32887 34.8547C4.0208 31.7321 6.49368 29.1704 9.7914 28.1712C10.9872 27.7984 12.2244 27.6606 13.4249 27.7657C15.4257 27.9407 17.3034 28.814 18.732 30.2122C19.8586 31.3381 20.5742 32.7318 20.8013 34.213C20.8475 34.217 20.8924 34.2354 20.9219 34.2525L33.8927 11.4994C34.5344 10.3691 35.5395 9.51656 36.7453 9.02884C38.0881 6.976 40.5302 5.8296 43.1005 6.05447C44.0086 6.13391 44.8861 6.38432 45.7038 6.78863C48.8677 8.38209 50.1785 12.0127 48.722 15.0105C48.7648 15.2313 48.8075 15.452 48.8194 15.6701C49.5199 16.5272 50.1412 17.5799 50.351 18.7268C50.7085 20.6679 50.1133 22.6849 48.7284 24.1553C47.7802 25.2443 47.2022 26.1776 46.9192 27.1078C46.7905 27.5161 46.7041 27.9716 46.6385 28.5446C46.3021 31.1485 43.8625 32.9751 41.1075 32.7341C40.8151 32.7085 40.5406 32.6555 40.2673 32.5882L34.1418 43.3958L33.8042 43.8872L33.2385 44.5032L32.6738 44.9313L27.5527 48.1583C27.0941 48.4365 26.6431 48.6285 26.1971 48.7631C25.5089 49.0068 24.7409 49.0987 23.956 49.0301L23.9381 49.0574Z" fill="#F9D38F"/>
<path d="M24.2531 45.2795C23.9452 45.2526 23.6641 45.0978 23.4675 44.8636C23.0202 44.3036 22.6229 43.7045 22.255 43.1225C21.7073 42.2933 21.2276 41.5713 20.661 40.9574C19.9517 40.2009 19.3945 39.8338 18.8866 39.7894C18.8097 39.7826 18.7173 39.7746 18.6378 39.7966C18.1365 39.854 17.4876 40.5351 16.959 41.0821C16.6518 41.4025 16.3971 41.6551 16.1449 41.879C15.0386 42.8239 13.8994 43.2596 12.7451 43.1586C12.3449 43.1236 11.9356 43.0155 11.5468 42.8512C10.8281 42.5569 10.1245 42.0902 9.49379 41.4996C8.24587 42.1139 6.98508 42.6981 5.74094 43.2693C5.56285 43.355 5.359 43.3806 5.17431 43.3644C4.78953 43.3307 4.46727 43.1144 4.29356 42.7954C4.0272 42.2946 4.25178 41.6777 4.7848 41.4349C5.89954 40.9248 7.03092 40.4016 8.14816 39.8627C7.30448 38.5156 7.00167 37.0133 7.2878 35.6928C7.69485 33.8764 9.14377 32.3827 11.0714 31.7989C11.7571 31.584 12.4302 31.5127 13.0766 31.5692C14.1078 31.6595 15.0319 32.0875 15.7886 32.8338C16.4887 33.5172 16.8546 34.4752 16.7767 35.3655C16.6976 36.2701 16.1527 37.0037 15.6727 37.526C14.9688 38.3036 14.144 38.8681 13.4049 39.3387C12.7811 39.7327 12.1432 40.1109 11.4924 40.4591C11.798 40.6884 12.1087 40.8603 12.4077 40.9877C12.5873 41.0613 12.7387 41.1035 12.8927 41.117C13.4159 41.1628 13.9964 40.9097 14.6494 40.3591C14.8338 40.2016 15.0386 39.9881 15.26 39.7615C16.1137 38.8668 17.0174 37.933 18.3033 37.7706C18.5546 37.7347 18.8021 37.7419 19.0483 37.7634C20.4951 37.89 21.5857 38.897 22.2808 39.6378C22.6495 40.0318 22.9696 40.4504 23.273 40.8821L23.3019 38.425C23.3028 38.2369 23.3499 38.053 23.442 37.8874L37.438 13.3431C37.8048 12.6951 38.5505 12.3263 39.3354 12.395C39.3662 12.3977 39.3816 12.399 39.4124 12.4017L40.1103 11.1606C40.6229 10.265 41.644 9.76107 42.7368 9.85668C43.1062 9.88899 43.4539 9.99176 43.7812 10.1506C45.0879 10.8147 45.6049 12.3503 44.9249 13.564L44.2257 14.8195C44.4248 15.025 44.5599 15.2539 44.6604 15.5231C44.8216 15.9857 44.7776 16.4883 44.5373 16.9303L44.5348 16.959C45.2795 17.4871 46.2061 18.5955 46.3422 19.3453C46.5002 20.1983 46.2376 21.0724 45.6245 21.6988C44.282 23.2163 43.4472 24.6046 43.0087 26.071C42.8315 26.6776 42.6981 27.3171 42.5982 28.1041C42.5197 28.647 42.0202 29.0374 41.4354 28.9862C40.8044 28.931 40.3841 28.4168 40.4485 27.8582C40.5597 26.9419 40.7186 26.1889 40.9187 25.4975C41.2246 24.4825 41.8449 23.5963 42.4998 22.6697C42.9782 21.9881 43.4898 21.2805 43.9192 20.45C44.0674 20.1736 44.2025 19.6934 44.1548 19.5301C44.0825 19.2923 43.7844 18.9768 43.5096 18.7502L30.6195 41.467L30.53 41.6038L30.3764 41.764L30.2266 41.8811L25.2528 45.0198C25.1055 45.1082 24.9453 45.1665 24.8031 45.1974C24.689 45.2598 24.4993 45.3011 24.2838 45.2822L24.2531 45.2795ZM25.4303 42.4598L26.7112 41.6459C26.2774 41.4633 25.8461 41.2519 25.434 40.9988L25.4149 42.4585L25.4303 42.4598ZM12.8841 33.5925C12.5455 33.5629 12.1698 33.6023 11.7712 33.7266C10.5601 34.0981 9.65767 35.0175 9.40578 36.124C9.22267 36.9761 9.44632 37.9651 10.0315 38.8989C10.7643 38.5 11.4829 38.0854 12.1567 37.6524C12.7971 37.2455 13.458 36.7824 13.9891 36.2067C14.263 35.9124 14.5765 35.5202 14.6054 35.19C14.6343 34.8597 14.481 34.4846 14.2099 34.2149C13.8245 33.8339 13.392 33.6369 12.8687 33.5911L12.8841 33.5925ZM25.9834 38.4425C26.713 39.143 27.6629 39.6312 28.7019 39.8089L37.2663 24.7005L34.5927 23.3525L25.9988 38.4439L25.9834 38.4425ZM38.2749 22.9222L42.07 16.2369L39.4284 14.8773L35.6166 21.5756L38.2902 22.9236L38.2749 22.9222ZM42.1055 13.8816L42.9517 12.3641C43.0437 12.1985 42.9843 11.9908 42.7893 11.9158L42.6379 11.8736C42.4994 11.8615 42.37 11.9225 42.2983 12.032L41.4368 13.5482L42.0901 13.8803L42.1055 13.8816Z" fill="black"/>
</svg>
