<svg width="120" height="130" viewBox="0 0 120 130" fill="none" xmlns="http://www.w3.org/2000/svg">
<path d="M59.8814 108C57.266 108 54.7869 106.871 53.0705 104.861C51.9808 103.594 51.0545 102.328 50.2644 101.226C50.1827 101.116 50.101 101.006 50.0192 100.896C46.1234 104.971 42.0914 105.825 39.367 105.825C37.8686 105.825 36.3702 105.577 34.8991 105.054C34.4359 104.889 33.9728 104.696 33.4824 104.503C32.5833 105.054 31.6843 105.604 30.8125 106.155C29.3958 107.036 27.7612 107.477 26.0994 107.477C22.9119 107.477 19.9968 105.825 18.335 103.071C15.7468 98.7482 17.109 93.0761 21.3862 90.4603C21.5225 90.3777 21.6587 90.2951 21.7949 90.2124C21.3862 88.285 21.2773 86.33 21.4952 84.4026C22.2308 78.3449 26.1811 73.0583 31.8205 70.6077C33.8638 69.699 36.016 69.2309 38.141 69.2309C41.6827 69.2309 45.1154 70.5801 47.8398 73.0032C49.992 74.9582 51.4632 77.4914 52.0898 80.2724C52.1715 80.2724 52.2532 80.2999 52.3077 80.3274L71.5962 34.8675C72.5497 32.6096 74.1843 30.8198 76.2276 29.6909C78.2709 25.5607 82.3846 22.9724 86.9343 22.9724C88.5417 22.9724 90.1218 23.3028 91.6202 23.9361C97.4231 26.4418 100.284 33.1328 98.1859 39.0803C98.2949 39.4933 98.4039 39.9063 98.4584 40.3194C99.8205 41.8338 101.074 43.7337 101.619 45.8814C102.545 49.516 101.809 53.4535 99.6026 56.4823C98.1042 58.7126 97.2324 60.585 96.8782 62.4023C96.7148 63.2008 96.633 64.0819 96.6058 65.1833C96.4151 70.1946 92.4103 74.077 87.5337 74.077C87.016 74.077 86.5257 74.022 86.0353 73.9394L76.9359 95.5267L76.4183 96.5179L75.5192 97.7845L74.593 98.6932L66.093 105.687C65.3301 106.293 64.5673 106.733 63.8045 107.064C62.633 107.642 61.2981 107.945 59.9087 107.945L59.8814 108Z" fill="#DADBEB"/>
<path d="M59.8542 100.758C59.3093 100.758 58.7917 100.51 58.4103 100.097C57.5385 99.1062 56.7484 98.0324 56.0128 96.986C54.9231 95.4992 53.9696 94.205 52.8798 93.1312C51.5176 91.8095 50.4824 91.2037 49.5833 91.2037C49.4471 91.2037 49.2837 91.2037 49.1475 91.2588C48.2757 91.4515 47.2404 92.8558 46.3958 93.9847C45.9055 94.6456 45.4968 95.1687 45.0882 95.6368C43.2901 97.6193 41.3558 98.6381 39.3125 98.6381C38.6042 98.6381 37.8686 98.5005 37.1603 98.2526C35.8526 97.8121 34.5449 97.0411 33.3462 96.0223C31.2484 97.3991 29.1234 98.7207 27.0257 100.015C26.726 100.208 26.3718 100.29 26.0449 100.29C25.3638 100.29 24.7644 99.9323 24.4103 99.354C23.8654 98.4454 24.1651 97.2338 25.0641 96.6832C26.9439 95.5267 28.851 94.3427 30.7308 93.1312C29.0417 90.7081 28.2789 87.8995 28.5785 85.3388C29.0144 81.8144 31.3301 78.7304 34.6266 77.2986C35.7981 76.7755 36.9696 76.5277 38.1138 76.5277C39.9391 76.5277 41.6282 77.1885 43.0721 78.4826C44.4071 79.6666 45.1971 81.4289 45.1971 83.136C45.1971 84.8707 44.3526 86.3576 43.5898 87.4315C42.4728 89.0285 41.1106 90.24 39.8846 91.2588C38.8494 92.1124 37.7869 92.9384 36.6971 93.7094C37.2692 94.0949 37.8414 94.3702 38.3862 94.563C38.7132 94.6731 38.9856 94.7282 39.258 94.7282C40.1843 94.7282 41.1651 94.15 42.2276 92.9935C42.5273 92.6631 42.8542 92.2225 43.2083 91.7544C44.5705 89.9096 46.0144 87.9822 48.2484 87.459C48.6843 87.3489 49.1202 87.3213 49.5561 87.3213C52.117 87.3213 54.1875 89.056 55.5225 90.3501C56.2308 91.0385 56.8574 91.782 57.4567 92.5529L57.1298 87.872C57.1026 87.5141 57.1571 87.1561 57.2933 86.8257L78.1074 37.7862C78.6523 36.492 79.9055 35.666 81.2949 35.666C81.3494 35.666 81.3766 35.666 81.4311 35.666L82.4664 33.1879C83.2292 31.3981 84.9455 30.2692 86.8798 30.2692C87.5337 30.2692 88.1603 30.4068 88.7596 30.6547C91.1571 31.701 92.3013 34.5371 91.2933 36.9601L90.258 39.4658C90.6394 39.8237 90.9119 40.2368 91.1298 40.7324C91.484 41.586 91.484 42.5497 91.1298 43.4308V43.4859C92.5192 44.367 94.3173 46.322 94.6715 47.7262C95.0801 49.3233 94.7532 51.0304 93.7724 52.3246C91.6474 55.436 90.3942 58.217 89.8494 61.0806C89.6314 62.2646 89.4952 63.5037 89.4407 65.0181C89.3862 66.0644 88.5689 66.8905 87.5337 66.8905C86.4167 66.8905 85.5994 65.9818 85.6266 64.908C85.6811 63.1457 85.8446 61.6864 86.0898 60.3372C86.4712 58.3547 87.4247 56.5649 88.4327 54.6926C89.1683 53.3158 89.9583 51.884 90.5849 50.2319C90.8029 49.6812 90.9664 48.745 90.8574 48.4421C90.6939 48.0016 90.1218 47.4509 89.6042 47.0654L70.4519 92.4428L70.3157 92.7181L70.0705 93.0486L69.8253 93.2964L61.5705 100.097C61.3253 100.29 61.0529 100.428 60.8077 100.51C60.617 100.648 60.2901 100.758 59.9087 100.758H59.8542ZM61.4888 95.1963L63.6138 93.434C62.8237 93.1587 62.0337 92.8283 61.2708 92.4153L61.4616 95.1963H61.4888ZM38.0866 80.4101C37.4872 80.4101 36.8334 80.5478 36.1523 80.8506C34.0817 81.7593 32.6378 83.6592 32.3654 85.8069C32.1747 87.459 32.7196 89.3038 33.891 90.9834C35.117 90.1023 36.3157 89.1937 37.4327 88.2575C38.4952 87.3764 39.585 86.3851 40.4295 85.2011C40.8654 84.5954 41.3558 83.7969 41.3558 83.1636C41.3558 82.5303 41.0289 81.8419 40.5112 81.3738C39.7757 80.713 38.9856 80.4101 38.0593 80.4101H38.0866ZM61.843 87.459C63.2324 88.6705 64.976 89.4415 66.8285 89.6067L79.5513 59.4285L74.6474 57.3084L61.8702 87.459H61.843ZM81.0497 55.8765L86.6891 42.5222L81.8398 40.3744L76.1731 53.7564L81.0769 55.8765H81.0497ZM86.3894 38.034L87.6426 35.0052C87.7789 34.6747 87.6426 34.2892 87.2885 34.1791L87.016 34.124C86.7708 34.124 86.5529 34.2617 86.4439 34.482L85.1635 37.5108L86.3622 38.034H86.3894Z" fill="black"/>
</svg>
