<svg width="120" height="130" viewBox="0 0 120 130" fill="none" xmlns="http://www.w3.org/2000/svg">
<path d="M65.9488 106C60.1185 106 54.2598 105.914 48.4295 105.799C45.5855 105.742 42.713 105.713 39.8689 105.655C37.9066 105.655 36.1148 105.052 34.4653 103.932C31.5928 102.094 29.9433 98.9637 30.0001 95.4886C30.1992 85.0633 30.3699 74.6381 30.5689 64.2128C30.7396 53.7875 30.9387 43.3623 31.1378 32.9083C31.1662 30.8405 31.8488 28.8875 33.0717 27.2218C34.9203 24.5221 37.8212 23 41.0919 23C45.5855 23 50.079 23 54.5726 23.0287C59.1515 23.0287 63.7304 23.0862 68.3093 23.0862C72.8882 23.0862 77.4102 23.0862 81.9607 23C85.2598 23 88.1038 24.4647 89.9524 27.0208C91.2891 28.7727 92.0001 30.8405 92.0001 33.0519V95.6322C92.0001 99.2221 90.18 102.41 87.1368 104.162C85.6579 105.081 84.0653 105.598 82.3589 105.655C77.4102 105.885 72.035 105.971 65.9488 105.971V106Z" fill="#DADBEB"/>
<path d="M65.1808 40.3178C62.678 40.3178 60.1753 40.3178 57.6441 40.2891C56.1652 40.2891 54.7431 41.6102 54.8 43.161C54.8569 44.7119 56.0514 46.033 57.6441 46.033C60.1468 46.033 62.6496 46.033 65.1808 46.0617C66.6597 46.0617 68.0817 44.7406 68.0248 43.1898C67.9679 41.6389 66.7734 40.3178 65.1808 40.3178Z" fill="#010101"/>
<path d="M60.8578 82.8516C57.189 82.8516 57.189 88.5955 60.8578 88.5955C64.5266 88.5955 64.5266 82.8516 60.8578 82.8516Z" fill="#010101"/>
<path d="M84.2642 31.3285C83.8092 30.6679 83.0982 30.1797 82.0459 30.1797C68.3945 30.3807 54.7431 30.1797 41.0918 30.1797C40.011 30.1797 39.3 30.6966 38.845 31.3859C38.5037 31.8167 38.2477 32.3337 38.2477 33.0517C37.8496 53.9022 37.5083 74.7527 37.1101 95.6319C37.1101 96.7807 37.6505 97.5274 38.3615 97.9582C38.7881 98.2742 39.2716 98.5039 39.9541 98.5039C53.9752 98.6762 68.0248 99.1357 82.0459 98.5039C82.6431 98.5039 83.0982 98.2742 83.4963 98.0157C84.2927 97.5849 84.8899 96.8382 84.8899 95.6319V33.0517C84.8899 32.3049 84.634 31.7593 84.2642 31.3285ZM42.8551 92.7887C43.1963 73.8337 43.5376 54.8786 43.8789 35.9236C55.6532 35.9236 67.4275 36.0385 79.2019 35.9236V92.8174C67.0863 93.2482 54.9707 92.961 42.8551 92.7887Z" fill="#010101"/>
</svg>
