<svg width="120" height="130" viewBox="0 0 120 130" fill="none" xmlns="http://www.w3.org/2000/svg">
<path d="M34.6735 105C30.1571 105 25.9279 102.037 24.4007 97.8078C22.9518 93.7875 24.1788 89.3755 27.5465 86.5821C35.3 80.147 36.3443 69.3912 36.8925 57.761C36.5792 57.7871 36.2529 57.8132 35.9396 57.8132C34.9606 57.8132 33.9817 57.6696 33.0288 57.3955C30.1571 56.5732 27.6509 54.4325 26.3195 51.6913C25.0534 49.0938 24.9359 46.1307 25.9932 43.5332C30.4182 32.673 41.8918 31.4069 49.4887 30.5584C50.3894 30.454 51.277 30.3626 52.1124 30.2452C61.7586 28.966 71.6789 28.2219 81.5731 28C87.5906 28 92.1591 32.5817 92.2244 38.4164C92.2897 44.3425 87.7472 49.0807 81.8864 49.1982C80.2417 49.2373 78.5709 49.2895 76.874 49.3548C76.4302 52.7486 76.1169 56.1686 75.9472 59.5493C75.7253 64.0265 75.5687 67.8249 75.8559 71.3884C77.6833 68.1643 81.0771 66.115 84.9408 66.115C88.3477 66.115 91.5848 67.6944 93.608 70.3572C95.566 72.9417 96.1926 76.2572 95.305 79.4552C94.2215 83.3581 89.8227 96.2414 78.4534 97.9905C77.5919 98.121 76.7304 98.1863 75.882 98.1863C66.4968 98.1863 59.9964 90.7461 57.2814 84.3631C56.5112 82.5357 55.9369 80.6822 55.5323 78.8286C53.4307 87.5872 49.4626 95.8759 41.5263 102.481C39.5684 104.112 37.1927 104.974 34.6865 104.974L34.6735 105Z" fill="#80CBA2"/>
<path d="M82.1521 75.8547C81.3689 78.6872 78.7322 85.6314 74.8162 84.3783C70.6523 83.0469 68.9946 77.891 68.5116 74.0403C67.8981 69.1585 68.12 64.0808 68.368 59.1859C68.6291 53.9125 69.2034 48.6783 70.078 43.4701C70.1563 43.0002 70.1302 42.5564 70.0388 42.1517C73.9286 41.9037 77.8184 41.7209 81.7083 41.6426C85.5981 41.5643 85.6111 35.4946 81.7083 35.586C72.1273 35.7948 62.5725 36.4998 53.0829 37.7659C46.0865 38.6927 36.1139 38.7318 32.9812 46.394C32.3547 47.9212 33.66 49.7094 35.0958 50.1271C36.8188 50.6231 38.2024 49.5136 38.829 48.0125C39.6905 45.8849 43.1495 45.3758 45.225 45.0364C45.225 45.1017 45.1728 45.1539 45.1728 45.2191C43.6717 61.1178 46.1126 81.0106 32.3808 92.432C29.3786 94.9252 33.6861 99.1936 36.6622 96.7135C51.7907 84.1303 49.5717 62.7755 51.2294 45.2191C51.2686 44.8015 51.2033 44.436 51.1119 44.1097C53.2265 43.8094 55.3542 43.5353 57.4688 43.2873C59.6747 43.0393 61.9068 42.8826 64.1128 42.6869C63.0555 49.1351 62.3767 55.6485 62.1809 62.1881C61.9982 68.5319 61.6979 75.5023 64.2302 81.4545C66.3709 86.4799 71.3442 91.4662 77.2833 90.5525C83.0266 89.6649 86.6032 82.4987 87.9868 77.4864C89.031 73.7271 83.1833 72.1215 82.139 75.8808L82.1521 75.8547Z" fill="black"/>
</svg>
