<svg width="120" height="130" viewBox="0 0 120 130" fill="none" xmlns="http://www.w3.org/2000/svg">
<path fill-rule="evenodd" clip-rule="evenodd" d="M59.5396 120.886C59.3449 120.886 59.1409 120.886 58.9369 120.886C54.0411 120.747 49.4884 118.682 46.104 115.086C42.7197 111.481 40.893 106.604 41.0785 101.708C41.1155 100.657 41.2361 99.6244 41.4308 98.6194L25.6123 98.4535C25.3341 98.4535 25.0467 98.4535 24.7592 98.4535C24.3791 98.4535 23.9896 98.4627 23.6095 98.4627H23.22C16.7109 98.3889 11.0733 94.203 9.1818 88.0348C7.72605 83.2957 7.98568 79.202 8.10622 77.229C8.11549 77.0814 8.12476 76.9431 8.13403 76.8325L8.20821 41.7042C5 37.4353 5 31.7742 5 29.4139L5.04636 25.5692C5.17617 16.0725 13.0762 8.9178 23.424 8.9178L99.9018 9.91356C108.896 10.0334 116.119 17.4002 115.999 26.3436L115.943 30.6955C115.878 35.2779 114.135 39.5836 111.251 42.7369L111.705 78.0219V78.1602C111.687 79.2666 111.696 80.1425 111.705 80.8524C111.743 84.983 111.52 87.8043 108.052 92.1562C104.519 96.6002 99.262 99.145 93.6338 99.145L78.0934 98.979C78.316 100.178 78.4272 101.413 78.4087 102.667C78.2696 113.049 70.1563 120.877 59.5396 120.877V120.886Z" fill="#80CBA2"/>
<path fill-rule="evenodd" clip-rule="evenodd" d="M100.022 18.8378L23.2066 17.8356C17.5073 17.8356 14.1026 21.2043 14.0466 25.436L14 29.1851C14 34.6789 15.11 36.5349 17.2368 37.1753L17.1528 77.0424C17.1342 78.3138 16.6398 81.6546 17.8058 85.478C18.5147 87.7887 20.6695 89.3756 23.104 89.4034C23.9809 89.4034 24.9043 89.3756 25.7625 89.3849L56.1528 89.7004L56.1062 93.3939C52.6362 94.7209 50.4535 98.2009 50.2949 102.303C50.099 107.37 54.1007 111.824 59.2031 111.963C64.7625 112.121 69.1279 108.298 69.1932 102.795C69.2492 98.5072 66.5348 94.8323 62.7103 93.4217L62.757 89.7654L93.679 90.0902C93.679 90.0902 93.7163 90.0902 93.735 90.0902C96.5707 90.1273 99.2664 88.8002 101.02 86.5823C103.156 83.8911 102.596 83.9282 102.69 78.1003L102.167 38.1125C105.068 36.9711 106.906 33.7416 106.943 30.3544L106.999 25.9742C107.055 22.0859 103.921 18.8842 100.013 18.8378H100.022ZM59.4736 105.393C57.6546 105.365 56.8711 104.521 56.8897 102.711C56.9177 100.901 57.5054 99.3609 59.3243 99.3795C61.1433 99.4073 62.6077 100.892 62.5798 102.711C62.5518 104.521 61.2832 105.421 59.4642 105.393H59.4736ZM19.5594 25.4545C19.5594 24.8513 20.0631 24.3688 20.6788 24.378L99.9567 25.4174C100.563 25.4174 101.048 25.9185 101.039 26.531L100.983 30.9112C100.983 31.5144 100.479 31.997 99.8634 31.9877L20.5855 30.9483C19.9792 30.9483 19.4941 30.4472 19.5035 29.8347L19.5594 25.4545ZM94.8916 82.4341C94.8916 82.7218 94.7704 83.0002 94.5558 83.2044C94.3413 83.4085 94.0614 83.5199 93.7723 83.5106L24.9137 82.796C24.6245 82.796 24.1394 82.462 24.1394 82.462C23.9342 82.2578 23.8223 81.9701 23.8316 81.6824L23.7663 40.414C23.785 38.8364 25.0909 37.565 26.686 37.5929L95.47 38.493C95.47 38.493 95.47 38.5301 95.47 38.5487L94.8916 82.4248V82.4341Z" fill="black"/>
</svg>
