<svg width="120" height="130" viewBox="0 0 120 130" fill="none" xmlns="http://www.w3.org/2000/svg">
<path d="M16.0429 58.4936C15.4059 69.0997 21.9843 74.6912 27.717 77.5314C25.7841 79.2953 23.5328 82.4128 23.2253 87.5273C22.9287 92.4088 24.2686 101.04 36.5358 103.947C37.8646 104.257 39.2154 104.49 40.5333 104.612C47.4301 105.256 53.9975 103.215 59.0274 98.8545C59.0713 98.8102 59.1152 98.7658 59.1701 98.7325C60.8394 102.15 64.2 105.422 70.7564 107.098C72.25 107.475 73.7545 107.741 75.2371 107.885C82.0132 108.518 88.4927 106.521 93.5006 102.272C97.6739 98.7214 102.836 91.9095 103.846 79.5505L106.943 49.6404C107.734 39.4891 100.222 30.4695 90.184 29.5265L73.4471 28.1841L72.8211 28.2062C69.6692 28.3172 66.8467 28.8386 64.3757 29.7483C61.718 27.7292 58.5002 26.3979 54.931 26.065C54.7333 26.0429 54.5356 26.0318 54.3379 26.0207L37.8426 25L37.2166 25.0333C24.8287 25.6989 17.6243 32.5552 16.9105 44.3151L16.0539 58.5047L16.0429 58.4936Z" fill="#9597C9"/>
<path d="M96.1977 48.6995C96.5297 44.5153 93.3971 40.8513 89.2129 40.5192L73.2288 39.2573C65.3696 39.5341 63.4657 42.7552 63.0561 47.9357L61.9381 62.0712C61.5396 67.0635 64.7718 70.4286 71.7344 72.1996C72.2768 72.3325 72.3543 72.41 73.3948 72.4653L82.7152 73.2069C83.8443 73.2955 84.6856 74.2807 84.597 75.4097L84.3867 78.0774C83.7557 86.0474 80.8334 89.0582 75.5201 88.2944C70.229 87.5307 68.8896 88.3276 68.6572 91.1614C68.3804 94.6814 70.6164 95.4563 73.4612 96.1869C83.5454 98.7439 91.947 92.534 93.065 78.3985L96.1755 48.7105L96.1977 48.6995Z" fill="black"/>
<path d="M60.6651 45.113C60.9197 40.9177 57.7317 37.3091 53.5364 37.0545L37.5413 36.0804C29.6821 36.5011 27.8446 39.7555 27.5346 44.9359L26.6712 59.0936C26.3613 64.0858 29.6599 67.3956 36.6447 69.0449C37.1871 69.1777 37.2645 69.2442 38.3051 69.2774L47.6365 69.8419C48.7656 69.9083 49.629 70.8824 49.5515 72.0115L49.3855 74.6903C48.8984 82.6712 46.0314 85.7374 40.7071 85.0622C35.4049 84.3981 34.0766 85.2172 33.8995 88.0509C33.6892 91.5821 35.9362 92.3126 38.8032 92.9879C48.9316 95.3567 57.2225 89.014 58.0859 74.8563L60.6651 45.113Z" fill="black"/>
</svg>
