<svg width="120" height="130" viewBox="0 0 120 130" fill="none" xmlns="http://www.w3.org/2000/svg">
<path d="M105.015 67.7879C104.336 57.1558 97.0075 52.4292 90.882 50.3273C92.6083 48.3254 94.4793 44.9445 94.1452 39.8176C93.8334 34.9241 91.4054 26.5163 78.6865 25.1707C77.3054 25.0261 75.9244 24.9705 74.5879 25.015C67.5713 25.2485 61.223 28.1067 56.7012 33.078C56.6567 33.1225 56.6233 33.1781 56.5787 33.2226C54.4737 30.0307 50.6759 27.2059 43.882 26.3606C42.3339 26.1716 40.7858 26.0937 39.2711 26.1493C32.3771 26.3718 26.0956 29.1744 21.5961 34.0455C17.8539 38.1049 13.5103 45.5451 14.0449 57.9677L14.6686 88.1067C15.1364 98.3051 23.8347 106.324 34.0477 105.99L51.0545 105.2L51.6894 105.1C54.8413 104.589 57.6145 103.71 59.9979 102.498C62.927 104.166 66.3351 105.089 69.9659 104.967C70.1664 104.967 70.3668 104.956 70.5673 104.933L87.2957 103.855L87.9194 103.743C100.293 101.508 106.697 93.7898 105.94 82.0011L105.026 67.7879H105.015Z" fill="#9597C9"/>
<path d="M26.2169 87.4546C26.4167 91.6609 29.9792 94.9127 34.1855 94.724L50.2338 93.9804C58.0249 92.7152 59.501 89.2858 59.268 84.0696L58.6131 69.8636C58.3801 64.8471 54.7509 61.906 47.6035 61.0182C47.0486 60.9516 46.9598 60.885 45.9166 60.9627L36.5606 61.3955C35.4286 61.451 34.463 60.5742 34.4186 59.4422L34.2965 56.7564C33.9303 48.7544 36.4496 45.3916 41.8323 45.4804C47.1818 45.5692 48.4248 44.6147 48.2916 41.7735C48.1251 38.2331 45.7945 37.7448 42.8756 37.3785C32.5319 36.1022 24.9406 43.3162 25.5954 57.5222L26.2169 87.4435V87.4546Z" fill="black"/>
<path d="M62.0093 86.5778C62.2756 90.7841 65.9048 93.9694 70.1111 93.703L86.1483 92.6709C93.9172 91.2725 95.3378 87.8097 94.9937 82.6046L94.0837 68.4208C93.7618 63.4154 90.0771 60.5299 82.9187 59.7752C82.3637 59.7197 82.275 59.6531 81.2317 59.753L71.8869 60.3523C70.7548 60.43 69.7782 59.5643 69.7005 58.4323L69.5229 55.7575C69.0124 47.7556 71.4762 44.3484 76.8589 44.3484C82.2195 44.3484 83.4403 43.3606 83.2516 40.5194C83.0297 36.979 80.6879 36.5351 77.7579 36.2243C67.392 35.1256 59.9339 42.4838 60.8439 56.6787L61.9982 86.5889L62.0093 86.5778Z" fill="black"/>
</svg>
