<svg width="120" height="130" viewBox="0 0 120 130" fill="none" xmlns="http://www.w3.org/2000/svg">
<path fill-rule="evenodd" clip-rule="evenodd" d="M83.5629 118.904L35.408 117.991C21.6877 117.725 10.7455 106.443 11.0045 92.8393L12.0853 37.0938C12.3622 22.6124 22.2951 12.8813 36.8015 12.8813C37.0069 12.8813 37.2213 12.8813 37.4357 12.8813L87.6629 13.8384C100.874 14.0866 110.271 24.6508 109.994 38.9461L108.922 94.6916C108.663 108.039 97.5065 118.904 84.0542 118.904C83.8934 118.904 83.7326 118.904 83.5718 118.904H83.5629Z" fill="#F9D38F"/>
<path fill-rule="evenodd" clip-rule="evenodd" d="M35.8129 109.072C26.9283 108.904 19.8315 101.682 20.003 92.9724L21.0865 37.3011C21.2581 28.5919 26.6033 21.5998 37.5103 21.8034L88.2806 22.7593C97.1652 22.9275 102.167 30.1054 101.996 38.8146L100.912 94.4859C100.741 103.195 93.373 110.143 84.4884 109.984L35.8129 109.072ZM37.3659 29.539C32.8333 29.4505 29.9801 31.9464 28.9869 37.4427L28.5897 86.1839C27.8583 95.3975 31.4338 101.248 35.9664 101.328L84.6419 102.239C89.1745 102.328 92.9396 98.7785 93.0209 94.3354L94.1044 38.6641C94.1946 34.221 92.0999 30.5657 87.5673 30.4772L37.3569 29.539H37.3659Z" fill="black"/>
<path fill-rule="evenodd" clip-rule="evenodd" d="M41.0855 45.5799C39.0672 45.5799 38.0625 44.1276 38.0018 42.3023C37.9325 40.2945 39.8382 38.6438 42.0383 38.6438H59.5872C60.4447 38.6438 61.3109 38.8819 61.9519 39.3977C62.6968 40.0009 63 40.8262 63 42.1277C63 44.0324 61.3283 45.5799 59.2581 45.5799H41.1028H41.0855Z" fill="black"/>
<path fill-rule="evenodd" clip-rule="evenodd" d="M41.139 60.8538C39.014 60.8538 38 59.1725 38 57.1467C38 55.1208 39.014 53.5068 41.139 53.5068L78.0307 54.07C78.8771 54.0869 81.8927 54.1121 82.6069 54.5408C83.7707 55.2469 84 56.0623 84 57.7603C84 59.7862 82.2718 61.4338 80.1468 61.4338L41.139 60.8453V60.8538Z" fill="black"/>
<path fill-rule="evenodd" clip-rule="evenodd" d="M42.1253 77.2876C40.0096 77.2876 39 75.7224 39 73.8172C39 71.9119 40.2115 70.1095 44.2235 70.3783H80.6121C82.7279 70.3783 83 71.9119 83 73.8172C83 75.7224 82.7279 77.2876 80.6121 77.2876H42.1253Z" fill="black"/>
<path fill-rule="evenodd" clip-rule="evenodd" d="M41.1647 93.1415C39.0223 93.1415 38 91.7334 38 89.6387C38 87.544 39.0223 85.5449 41.1647 85.5449L81.1152 85.2146C83.2576 85.2146 85 86.1968 85 88.2915C85 90.3862 83.2576 92.8112 81.1152 92.8112L41.1647 93.1415Z" fill="black"/>
</svg>
