<svg width="48" height="48" viewBox="0 0 48 48" fill="none" xmlns="http://www.w3.org/2000/svg">
<path d="M47.5406 6.75684C47.5672 5.05176 46.9278 3.45326 45.729 2.2677C44.5967 1.13542 42.9982 0.482696 41.2398 0.456055C37.6565 0.522659 28.6782 1.48176 19.8731 8.60844C18.5943 8.18217 17.0757 7.79587 15.6237 7.79587C15.2774 7.79587 14.9444 7.82251 14.6113 7.86247C11.2545 8.28874 7.56459 11.4058 2.70247 16.2946C1.39702 17.6134 0.864185 19.4783 1.30377 21.2766C1.74336 23.0883 3.06213 24.5136 4.83381 25.0864L7.04508 25.7924C6.75202 26.8048 6.72538 27.8571 6.95183 28.8695C6.37903 29.2558 5.88616 29.762 5.5265 30.3748C2.87564 34.9971 2.79571 40.099 2.79571 40.6585C2.79571 43.1495 4.82049 45.1876 7.32482 45.1876C7.89762 45.1876 12.9862 45.1077 17.6219 42.4568C18.248 42.0972 18.7408 41.591 19.1138 41.0315C19.5534 41.1381 20.0063 41.1913 20.4592 41.1913C21.0453 41.1913 21.6315 41.1114 22.1909 40.9383L22.8969 43.1362C23.4697 44.9079 24.8818 46.24 26.7067 46.6796C27.1197 46.7728 27.5326 46.8261 27.9589 46.8261C29.3709 46.8261 30.6897 46.2799 31.6887 45.2809C36.5775 40.4187 39.6813 36.7288 40.1075 33.372C40.3473 31.5603 39.8944 29.6954 39.3616 28.1102C46.4882 19.3051 47.4473 10.3402 47.514 6.74352L47.5406 6.75684Z" fill="#F9D38F"/>
<path d="M14.7706 38.0303C12.5727 39.2958 10.095 39.7487 8.62968 39.9085C8.78953 38.4432 9.24244 35.9656 10.5079 33.7676C10.841 33.1948 10.6411 32.4622 10.0683 32.1291C9.49554 31.7961 8.76289 31.9959 8.42987 32.5687C6.16531 36.5117 6.13867 41.0142 6.13867 41.2007C6.13867 41.8667 6.67151 42.3995 7.33755 42.3995C7.52405 42.3995 12.0265 42.3729 15.9695 40.1084C16.5423 39.7753 16.7421 39.0427 16.4091 38.4699C16.0761 37.8971 15.3434 37.6973 14.7706 38.0303Z" fill="black"/>
<path d="M44.2098 6.69009C44.2231 5.90415 43.9301 5.17151 43.3706 4.61203C42.8111 4.06587 42.0252 3.78613 41.2925 3.78613C37.9756 3.85274 29.024 4.79852 20.5519 12.4048C19.0467 11.8186 16.7688 10.9395 15.0371 11.1659C12.4928 11.4856 8.73629 14.949 5.05972 18.6389C4.56685 19.1318 4.38036 19.8245 4.54021 20.4905C4.70006 21.1699 5.19293 21.6894 5.85898 21.9025L11.7068 23.7808C11.2673 24.58 10.8277 25.4059 10.4147 26.2718C9.88189 27.3641 10.1083 28.6829 10.9742 29.5354L18.4472 37.0084C18.9934 37.5546 19.726 37.8477 20.472 37.8477C20.8849 37.8477 21.3112 37.7544 21.7108 37.5679C22.5767 37.1416 23.4026 36.7154 24.2018 36.2758L26.0801 42.1237C26.2932 42.7897 26.8261 43.2826 27.4921 43.4424C27.652 43.4824 27.8118 43.4957 27.9583 43.4957C28.4779 43.4957 28.9707 43.2959 29.3437 42.9229C33.0336 39.2463 36.497 35.4899 36.8167 32.9456C37.0432 31.2005 36.164 28.936 35.5779 27.4307C43.1841 18.9586 44.1299 10.007 44.1965 6.67677L44.2098 6.69009ZM7.25767 19.8378C9.21584 17.893 13.4519 13.7901 15.3435 13.537C16.196 13.4305 17.5148 13.8301 18.6337 14.2297C16.6489 16.2811 14.7307 18.7322 12.9324 21.6495L7.24435 19.8245L7.25767 19.8378ZM20.6718 35.4233C20.4986 35.5032 20.2855 35.4632 20.1523 35.33L12.6793 27.857C12.5461 27.7238 12.5061 27.5106 12.586 27.3375C21.884 8.0355 36.9499 6.26382 41.3458 6.18389C41.5057 6.18389 41.6123 6.2505 41.6655 6.3171C41.7188 6.37039 41.7987 6.47695 41.7987 6.65012C41.7188 11.046 39.9471 26.1119 20.6585 35.4233H20.6718ZM34.4456 32.6525C34.2058 34.5441 30.0897 38.7934 28.1448 40.7383L26.3199 35.0503C29.2371 33.2519 31.6882 31.3337 33.7396 29.3489C34.1526 30.4679 34.5522 31.8 34.4323 32.6525H34.4456Z" fill="black"/>
<path d="M35.1799 20.4727C37.138 18.5145 37.138 15.3175 35.1799 13.3593C33.275 11.4544 29.9581 11.4544 28.0665 13.3593C27.1207 14.3051 26.5879 15.5706 26.5879 16.916C26.5879 18.2614 27.1074 19.5269 28.0665 20.4727C29.0123 21.4185 30.2778 21.9513 31.6232 21.9513C32.9686 21.9513 34.2341 21.4318 35.1799 20.4727ZM33.4881 18.7809C32.489 19.78 30.7573 19.78 29.7583 18.7809C29.2654 18.2881 28.9857 17.622 28.9857 16.916C28.9857 16.21 29.2654 15.5573 29.7583 15.0511C30.2511 14.5582 30.9172 14.2785 31.6232 14.2785C32.3292 14.2785 32.9819 14.5582 33.4881 15.0511C34.5138 16.0768 34.5138 17.7419 33.4881 18.7809Z" fill="black"/>
</svg>
