<svg width="120" height="130" viewBox="0 0 120 130" fill="none" xmlns="http://www.w3.org/2000/svg">
<path d="M98.9999 36.2748C99.0475 33.2237 97.9034 30.3633 95.758 28.2418C93.7319 26.2157 90.8715 25.0477 87.725 25C81.3129 25.1192 65.2469 26.8354 49.4907 39.5882C47.2023 38.8254 44.4849 38.1341 41.8867 38.1341C41.267 38.1341 40.671 38.1818 40.0751 38.2533C34.0682 39.0161 27.4654 44.5939 18.765 53.342C16.4289 55.7019 15.4755 59.0391 16.2621 62.257C17.0487 65.4989 19.4085 68.0494 22.5789 69.0744L26.5358 70.3377C26.0114 72.1493 25.9637 74.0325 26.3689 75.8441C25.3439 76.5353 24.462 77.4411 23.8184 78.5376C19.0748 86.809 18.9318 95.9385 18.9318 96.9397C18.9318 101.397 22.555 105.044 27.0363 105.044C28.0613 105.044 37.167 104.901 45.4623 100.158C46.5826 99.5141 47.4645 98.6083 48.132 97.6071C48.9186 97.7978 49.7291 97.8932 50.5395 97.8932C51.5883 97.8932 52.6371 97.7501 53.6383 97.4403L54.9017 101.373C55.9266 104.544 58.4534 106.927 61.719 107.714C62.4579 107.881 63.1969 107.976 63.9597 107.976C66.4864 107.976 68.8462 106.999 70.634 105.211C79.3821 96.5106 84.9361 89.9078 85.6989 83.9009C86.128 80.6591 85.3175 77.3219 84.364 74.4854C97.1168 58.7292 98.833 42.687 98.9522 36.251L98.9999 36.2748Z" fill="#80CBA2"/>
<path d="M40.3608 91.2655C36.4277 93.53 31.994 94.3404 29.372 94.6265C29.658 92.0044 30.4685 87.5708 32.733 83.6377C33.3289 82.6127 32.9714 81.3017 31.9464 80.7057C30.9214 80.1098 29.6104 80.4674 29.0144 81.4924C24.9622 88.5481 24.9145 96.6049 24.9145 96.9386C24.9145 98.1305 25.868 99.084 27.0598 99.084C27.3935 99.084 35.4504 99.0363 42.5061 94.984C43.5311 94.3881 43.8886 93.0771 43.2927 92.0521C42.6968 91.0271 41.3858 90.6695 40.3608 91.2655Z" fill="black"/>
<path d="M93.0402 36.1549C93.0641 34.7486 92.5397 33.4375 91.5385 32.4364C90.5374 31.4591 89.131 30.9585 87.82 30.9585C81.8846 31.0777 65.8662 32.7701 50.7059 46.381C48.0124 45.3321 43.9363 43.7589 40.8375 44.1641C36.2846 44.7362 29.5626 50.9338 22.9837 57.5366C22.1017 58.4186 21.768 59.6581 22.054 60.8499C22.3401 62.0656 23.222 62.9953 24.4139 63.3767L34.8783 66.7376C34.0916 68.1679 33.305 69.6457 32.5661 71.1951C31.6126 73.1498 32.0178 75.5096 33.5672 77.0352L46.9397 90.4077C47.917 91.385 49.2281 91.9094 50.5629 91.9094C51.3019 91.9094 52.0646 91.7425 52.7798 91.4088C54.3291 90.646 55.807 89.8833 57.2372 89.0966L60.5982 99.561C60.9796 100.753 61.9331 101.635 63.125 101.921C63.411 101.992 63.697 102.016 63.9592 102.016C64.8889 102.016 65.7708 101.659 66.4383 100.991C73.0411 94.4123 79.2387 87.6903 79.8108 83.1374C80.216 80.0148 78.6428 75.9625 77.5939 73.269C91.2048 58.1087 92.8972 42.0903 93.0164 36.1311L93.0402 36.1549ZM26.9167 59.6819C30.4208 56.2017 38.0009 48.86 41.3857 48.4071C42.9113 48.2164 45.2711 48.9315 47.2734 49.6466C43.7217 53.3175 40.2892 57.7035 37.0712 62.9237L26.8929 59.6581L26.9167 59.6819ZM50.9205 87.5711C50.6106 87.7141 50.2292 87.6426 49.9908 87.4042L36.6183 74.0317C36.38 73.7934 36.3085 73.412 36.4515 73.1021C53.0896 38.5625 80.0491 35.3922 87.9153 35.2491C88.2013 35.2491 88.392 35.3683 88.4874 35.4875C88.5827 35.5829 88.7258 35.7735 88.7258 36.0834C88.5827 43.9496 85.4124 70.9091 50.8966 87.5711H50.9205ZM75.5678 82.613C75.1387 85.9978 67.7731 93.6018 64.293 97.082L61.0273 86.9036C66.2476 83.6857 70.6336 80.2532 74.3044 76.7015C75.0434 78.7038 75.7585 81.0874 75.544 82.613H75.5678Z" fill="black"/>
<path d="M76.8775 59.8489C80.3815 56.3449 80.3815 50.624 76.8775 47.12C73.4688 43.7113 67.5335 43.7113 64.1486 47.12C62.4562 48.8124 61.5027 51.0769 61.5027 53.4844C61.5027 55.892 62.4324 58.1565 64.1486 59.8489C65.841 61.5413 68.1055 62.4948 70.5131 62.4948C72.9206 62.4948 75.1851 61.5651 76.8775 59.8489ZM73.8502 56.8216C72.0625 58.6094 68.9637 58.6094 67.1759 56.8216C66.2939 55.9396 65.7934 54.7478 65.7934 53.4844C65.7934 52.2211 66.2939 51.0531 67.1759 50.1473C68.0579 49.2653 69.2497 48.7647 70.5131 48.7647C71.7764 48.7647 72.9444 49.2653 73.8502 50.1473C75.6857 51.9827 75.6857 54.9623 73.8502 56.8216Z" fill="black"/>
</svg>
