<svg width="93" height="94" viewBox="0 0 93 94" fill="none" xmlns="http://www.w3.org/2000/svg">
<g clip-path="url(#clip0_3314_7802)">
<path d="M93.0001 13.0141C93.0535 9.59539 91.7714 6.39034 89.3677 4.01325C87.0974 1.74301 83.8924 0.434277 80.3668 0.380859C73.1821 0.514403 55.1804 2.43744 37.5259 16.7266C34.9619 15.872 31.9171 15.0974 29.0058 15.0974C28.3114 15.0974 27.6437 15.1508 26.9759 15.2309C20.2453 16.0856 12.847 22.3355 3.09828 32.1376C0.480819 34.7818 -0.587533 38.521 0.293857 42.1267C1.17525 45.7591 3.81942 48.6169 7.37169 49.7654L11.8053 51.181C11.2178 53.2108 11.1643 55.3208 11.6184 57.3507C10.4699 58.1253 9.48168 59.1402 8.76054 60.3688C3.44549 69.6367 3.28524 79.8662 3.28524 80.988C3.28524 85.9825 7.34498 90.069 12.3662 90.069C13.5147 90.069 23.7175 89.9087 33.0121 84.5937C34.2674 83.8725 35.2557 82.8576 36.0035 81.7358C36.8849 81.9495 37.793 82.0563 38.7011 82.0563C39.8763 82.0563 41.0515 81.8961 42.1732 81.5489L43.5888 85.9558C44.7373 89.5081 47.5684 92.179 51.2275 93.0604C52.0555 93.2473 52.8835 93.3542 53.7381 93.3542C56.5693 93.3542 59.2134 92.2591 61.2166 90.2559C71.0187 80.5072 77.2419 73.1089 78.0965 66.3783C78.5773 62.7459 77.6692 59.0067 76.6009 55.8283C90.8901 38.1738 92.8131 20.1988 92.9466 12.9874L93.0001 13.0141Z" fill="#F9D38F"/>
<path d="M27.2961 74.6321C22.8891 77.1694 17.9213 78.0775 14.9833 78.398C15.3038 75.4601 16.2119 70.4922 18.7493 66.0853C19.417 64.9368 19.0163 63.4678 17.8679 62.8001C16.7194 62.1324 15.2504 62.533 14.5827 63.6815C10.0422 71.5873 9.98877 80.6149 9.98877 80.9888C9.98877 82.3242 11.0571 83.3926 12.3926 83.3926C12.7665 83.3926 21.7941 83.3392 29.6999 78.7987C30.8483 78.1309 31.249 76.662 30.5812 75.5135C29.9135 74.365 28.4445 73.9644 27.2961 74.6321Z" fill="#010101"/>
<path d="M86.3226 12.8811C86.3493 11.3053 85.7617 9.83631 84.6399 8.71454C83.5182 7.61948 81.9423 7.05859 80.4734 7.05859C73.8229 7.19214 55.8746 9.08846 38.8878 24.3392C35.8697 23.164 31.3025 21.4012 27.8303 21.8553C22.729 22.4963 15.1971 29.4406 7.82547 36.8389C6.83724 37.8271 6.46332 39.216 6.78382 40.5514C7.10433 41.9136 8.09255 42.9552 9.42799 43.3825L21.1532 47.1485C20.2718 48.751 19.3904 50.407 18.5624 52.143C17.494 54.3331 17.9481 56.9773 19.6842 58.6867L34.6678 73.6703C35.7629 74.7654 37.2318 75.353 38.7275 75.353C39.5555 75.353 40.4102 75.166 41.2115 74.7921C42.9475 73.9374 44.6035 73.0827 46.206 72.2013L49.9719 83.9265C50.3993 85.2619 51.4676 86.2502 52.8031 86.5707C53.1236 86.6508 53.4441 86.6775 53.7379 86.6775C54.7795 86.6775 55.7677 86.2769 56.5156 85.529C63.9139 78.1574 70.8582 70.6255 71.4992 65.5241C71.9533 62.0253 70.1905 57.4848 69.0153 54.4667C84.266 37.4799 86.1623 19.5316 86.2959 12.8544L86.3226 12.8811ZM12.2324 39.2427C16.1586 35.3432 24.652 27.1169 28.4446 26.6094C30.154 26.3958 32.7982 27.197 35.0417 27.9983C31.0621 32.1114 27.216 37.0259 23.6104 42.8751L12.2057 39.216L12.2324 39.2427ZM39.1282 70.492C38.7809 70.6522 38.3536 70.5721 38.0865 70.305L23.1029 55.3214C22.8358 55.0543 22.7557 54.6269 22.9159 54.2797C41.5587 15.5787 71.7663 12.0264 80.5802 11.8662C80.9007 11.8662 81.1144 11.9997 81.2212 12.1333C81.328 12.2401 81.4883 12.4538 81.4883 12.801C81.328 21.6149 77.7758 51.8225 39.1015 70.492H39.1282ZM66.745 64.9365C66.2643 68.7292 58.0113 77.2493 54.1118 81.1488L50.4527 69.7441C56.3019 66.1384 61.2163 62.2924 65.3295 58.3128C66.1575 60.5563 66.9587 63.2272 66.7183 64.9365H66.745Z" fill="#010101"/>
<path d="M68.214 39.4297C72.1402 35.5036 72.1402 29.0934 68.214 25.1673C64.3946 21.3479 57.7441 21.3479 53.9515 25.1673C52.0552 27.0636 50.9868 29.6009 50.9868 32.2985C50.9868 34.9961 52.0285 37.5334 53.9515 39.4297C55.8478 41.3261 58.3852 42.3944 61.0827 42.3944C63.7803 42.3944 66.3177 41.3528 68.214 39.4297ZM64.822 36.0377C62.8188 38.0409 59.3467 38.0409 57.3435 36.0377C56.3553 35.0495 55.7944 33.7141 55.7944 32.2985C55.7944 30.8829 56.3553 29.5742 57.3435 28.5593C58.3317 27.571 59.6672 27.0102 61.0827 27.0102C62.4983 27.0102 63.807 27.571 64.822 28.5593C66.8785 30.6158 66.8785 33.9544 64.822 36.0377Z" fill="#010101"/>
</g>
<defs>
<clipPath id="clip0_3314_7802">
<rect width="93" height="93" fill="white" transform="translate(0 0.380859)"/>
</clipPath>
</defs>
</svg>
