<svg width="38" height="37" viewBox="0 0 38 37" fill="none" xmlns="http://www.w3.org/2000/svg">
<path d="M37.0291 5.62639C37.0496 4.31206 36.5568 3.07987 35.6326 2.16601C34.7598 1.29321 33.5277 0.790068 32.1723 0.769531C29.4101 0.820872 22.4893 1.56018 15.7021 7.05366C14.7163 6.72508 13.5458 6.42731 12.4265 6.42731C12.1595 6.42731 11.9028 6.44784 11.6461 6.47865C9.05855 6.80723 6.21426 9.20999 2.46637 12.9784C1.46009 13.995 1.04936 15.4325 1.38821 16.8187C1.72706 18.2152 2.74361 19.3139 4.10928 19.7554L5.8138 20.2996C5.5879 21.08 5.56737 21.8912 5.74193 22.6716C5.30039 22.9694 4.92047 23.3596 4.64323 23.8319C2.59986 27.395 2.53825 31.3277 2.53825 31.7589C2.53825 33.6791 4.09901 35.2501 6.02943 35.2501C6.47097 35.2501 10.3934 35.1885 13.9667 33.1451C14.4494 32.8679 14.8293 32.4777 15.1168 32.0464C15.4556 32.1286 15.8048 32.1697 16.1539 32.1697C16.6057 32.1697 17.0575 32.1081 17.4887 31.9746L18.033 33.6688C18.4745 35.0345 19.5629 36.0613 20.9697 36.4002C21.288 36.472 21.6063 36.5131 21.9349 36.5131C23.0233 36.5131 24.0398 36.0921 24.81 35.322C28.5784 31.5741 30.9709 28.7298 31.2995 26.1422C31.4843 24.7458 31.1352 23.3082 30.7244 22.0863C36.2179 15.299 36.9572 8.38853 37.0086 5.61612L37.0291 5.62639Z" fill="#F9D38F"/>
<path d="M11.769 29.3148C10.0748 30.2903 8.16489 30.6394 7.03539 30.7626C7.1586 29.6331 7.50772 27.7232 8.4832 26.029C8.73991 25.5874 8.58588 25.0227 8.14435 24.766C7.70282 24.5093 7.13807 24.6633 6.88136 25.1048C5.13577 28.1442 5.11523 31.6149 5.11523 31.7586C5.11523 32.272 5.52596 32.6828 6.03937 32.6828C6.18313 32.6828 9.65378 32.6622 12.6932 30.9166C13.1347 30.6599 13.2887 30.0952 13.032 29.6536C12.7753 29.2121 12.2106 29.0581 11.769 29.3148Z" fill="black"/>
<path d="M34.4616 5.5744C34.4718 4.96858 34.2459 4.40383 33.8147 3.97257C33.3834 3.55157 32.7776 3.33594 32.2128 3.33594C29.656 3.38728 22.7558 4.11632 16.2253 9.97946C15.0649 9.52766 13.3091 8.84996 11.9742 9.02452C10.013 9.27095 7.11736 11.9407 4.28334 14.785C3.90342 15.1649 3.75966 15.6988 3.88288 16.2123C4.0061 16.7359 4.38602 17.1364 4.89943 17.3007L9.40717 18.7485C9.06832 19.3646 8.72947 20.0012 8.41115 20.6686C8.00043 21.5106 8.17499 22.5272 8.84242 23.1844L14.6029 28.9448C15.0239 29.3658 15.5886 29.5917 16.1636 29.5917C16.482 29.5917 16.8105 29.5198 17.1186 29.3761C17.786 29.0475 18.4226 28.7189 19.0387 28.3801L20.4865 32.8878C20.6508 33.4012 21.0616 33.7811 21.575 33.9043C21.6982 33.9352 21.8214 33.9454 21.9344 33.9454C22.3348 33.9454 22.7147 33.7914 23.0023 33.5039C25.8465 30.6699 28.5163 27.7742 28.7627 25.813C28.9373 24.4679 28.2596 22.7223 27.8078 21.562C33.6709 15.0314 34.4 8.13118 34.4513 5.56414L34.4616 5.5744ZM5.97759 15.7091C7.48702 14.21 10.7523 11.0474 12.2104 10.8523C12.8676 10.7701 13.8841 11.0782 14.7466 11.3862C13.2167 12.9675 11.738 14.8569 10.3518 17.1056L5.96733 15.6988L5.97759 15.7091ZM16.3177 27.7229C16.1842 27.7845 16.0199 27.7537 15.9172 27.651L10.1567 21.8906C10.0541 21.7879 10.0233 21.6236 10.0849 21.4901C17.2521 6.61149 28.8654 5.24582 32.2539 5.18421C32.3771 5.18421 32.4593 5.23555 32.5003 5.28689C32.5414 5.32797 32.603 5.41011 32.603 5.5436C32.5414 8.9321 31.1757 20.5454 16.3074 27.7229H16.3177ZM26.935 25.5871C26.7501 27.0452 23.5773 30.3207 22.0781 31.8199L20.6714 27.4354C22.9201 26.0492 24.8095 24.5706 26.3908 23.0406C26.7091 23.9031 27.0171 24.9299 26.9247 25.5871H26.935Z" fill="black"/>
<path d="M27.4999 15.7808C29.0094 14.2713 29.0094 11.807 27.4999 10.2976C26.0316 8.8292 23.4748 8.8292 22.0167 10.2976C21.2877 11.0266 20.877 12.0021 20.877 13.0392C20.877 14.0762 21.2774 15.0517 22.0167 15.7808C22.7458 16.5098 23.7212 16.9205 24.7583 16.9205C25.7954 16.9205 26.7709 16.5201 27.4999 15.7808ZM26.1959 14.4767C25.4258 15.2468 24.0909 15.2468 23.3208 14.4767C22.9409 14.0968 22.7252 13.5834 22.7252 13.0392C22.7252 12.4949 22.9409 11.9918 23.3208 11.6016C23.7007 11.2217 24.2141 11.0061 24.7583 11.0061C25.3025 11.0061 25.8057 11.2217 26.1959 11.6016C26.9865 12.3923 26.9865 13.6758 26.1959 14.4767Z" fill="black"/>
</svg>
