<svg width="120" height="130" viewBox="0 0 120 130" fill="none" xmlns="http://www.w3.org/2000/svg">
<g clip-path="url(#clip0_20_679)">
<path d="M107.978 83.6107C107.889 81.0895 107.778 78.5682 107.645 76.047L107.467 72.3094C107.312 68.5939 104.559 65.4313 101.073 64.9447C98.8974 64.6351 96.8771 64.0158 94.1463 63.0427C93.1472 62.6889 92.2814 62.3129 91.4599 61.9369C91.2823 61.8485 91.0825 61.7158 90.8827 61.5831C90.0834 61.0744 89.0178 60.433 87.7079 60.0128V58.7301C87.7079 58.1993 87.6413 57.6685 87.5525 57.1598C92.9696 57.0271 97.3877 52.5597 97.3877 47.1634V44.4431C97.3877 39.467 94.2351 34.9774 89.5728 33.2523L58.3798 21.7298C57.0477 21.2433 55.649 21 54.2281 21C52.4742 21 50.7203 21.3981 49.144 22.1279L21.0369 35.2207C16.8409 37.1669 14.1323 41.4132 14.1323 46.0133V47.4287C14.1323 50.2596 15.2423 52.9357 17.2849 54.9261C18.1507 55.7665 19.1498 56.43 20.2155 56.9166C20.1489 57.3589 20.0823 57.8233 20.0823 58.2878V76.246C20.0823 76.3787 20.1267 76.5114 20.1267 76.6441C15.9306 77.7942 13 81.4876 13 86.1983C13 91.86 17.2405 96.1505 22.8352 96.1505H65.906C69.7469 101.834 76.0077 106.501 82.6015 108.491C83.4452 108.801 84.3111 108.956 85.2213 108.956H85.3323C86.2204 108.956 87.1084 108.801 87.9299 108.491C94.8345 106.412 101.428 101.37 105.203 95.3101C107.911 90.9532 108.089 86.5079 107.978 83.5665V83.6107Z" fill="#9597C9"/>
<path d="M33.4475 79.7626H29.5845C27.3643 79.7626 25.6104 78.2366 25.6104 76.2904V58.3321C25.6104 56.3859 27.3421 54.8599 29.5845 54.8599H33.6251C36.1561 54.8599 38.132 56.5628 38.132 58.7302V75.7596C38.132 78.0154 36.0673 79.7847 33.4253 79.7847L33.4475 79.7626ZM30.0729 75.3394H33.4475C33.4475 75.3394 33.6251 75.3394 33.7139 75.3173V59.261C33.7139 59.261 33.6695 59.261 33.6473 59.261H30.0951V75.3394H30.0729Z" fill="black"/>
<path d="M55.4714 79.7626H51.6305C49.4104 79.7626 47.6565 78.2366 47.6565 76.2904V58.3321C47.6565 56.3859 49.3882 54.8599 51.6305 54.8599H55.6712C58.2022 54.8599 60.1781 56.5628 60.1781 58.7302V75.7596C60.1781 78.0154 58.1133 79.7847 55.4714 79.7847V79.7626ZM52.0968 75.3394H55.4714C55.4714 75.3394 55.649 75.3394 55.7378 75.3173V59.261C55.7378 59.261 55.6934 59.261 55.6712 59.261H52.119V75.3394H52.0968Z" fill="black"/>
<path d="M94.6791 77.197C94.0797 76.1796 92.6588 75.7815 91.6375 76.4008C87.7079 78.8336 84.7107 82.4385 81.9355 86.1098C81.114 84.9597 80.115 83.9424 78.9161 83.0798C77.9614 82.3721 76.4295 82.925 75.8745 83.876C75.2085 85.0039 75.6969 86.1761 76.6738 86.9059C76.4295 86.729 76.918 87.105 76.9624 87.1492C77.14 87.304 77.3176 87.4588 77.473 87.6358C77.6506 87.8127 77.806 87.9675 77.9614 88.1444C78.0724 88.255 78.1613 88.3877 78.2723 88.4983C78.1835 88.3877 78.1835 88.4098 78.2723 88.5204C78.5387 88.8964 78.7829 89.3166 79.0049 89.7147C79.2713 90.2233 79.2713 90.2233 79.4711 90.8205C79.7598 91.6609 80.4036 92.3023 81.3139 92.4128C82.2685 92.5234 82.979 92.1032 83.534 91.3513C85.1769 89.1618 86.4868 87.3483 88.2629 85.2915C89.151 84.2741 90.0612 83.301 91.0603 82.3942C92.1038 81.4433 92.7032 80.9567 93.8799 80.2269C94.9011 79.6076 95.3008 78.2585 94.6791 77.197Z" fill="black"/>
<path d="M24.7002 52.4492C23.3681 52.4492 22.1248 51.9406 21.1701 51.0117C20.2155 50.0607 19.6826 48.8001 19.6826 47.451V46.0356C19.6826 43.5585 21.1257 41.2806 23.3903 40.2411L51.4973 27.1263C53.0514 26.3964 54.8497 26.3301 56.4482 26.9272L87.6413 38.4276C90.15 39.3565 91.8373 41.7671 91.8373 44.4211V47.1414C91.8373 49.5741 89.8392 51.6088 87.397 51.6309L24.7668 52.4492C24.7668 52.4492 24.7224 52.4492 24.7002 52.4492ZM54.2281 33.1861L27.2089 45.7923L85.1769 45.0403V44.598L54.2281 33.1861Z" fill="black"/>
<path d="M101.939 72.5527C101.895 71.6902 101.273 70.5623 100.318 70.4296C97.4987 70.0315 94.9678 69.2132 92.3036 68.2622C91.1935 67.8641 90.1056 67.4218 89.04 66.891C87.9077 66.3381 86.5756 65.0996 85.2879 65.0996C84.2223 65.0996 83.1566 65.94 82.2019 66.5151V58.7302C82.2019 56.5628 80.226 54.8599 77.695 54.8599H73.6544C71.4342 54.8599 69.6803 56.3859 69.6803 58.3321V70.6729C69.0365 71.071 68.6368 71.8893 68.6146 72.5749C68.4814 75.6711 68.3482 78.7453 68.215 81.8415C68.1706 81.8415 68.1484 81.8415 68.1262 81.8415H22.8352C17.1295 81.8415 17.1073 90.688 22.8352 90.688H68.104C68.4592 90.688 68.7922 90.6437 69.1031 90.5774C69.3695 91.2187 69.6581 91.838 70.0577 92.4573C73.2103 97.544 78.8717 101.79 84.6663 103.383C84.6885 103.383 84.7107 103.383 84.7329 103.383C84.8883 103.427 85.0881 103.427 85.2657 103.427C85.4433 103.427 85.6209 103.427 85.7986 103.383C85.8208 103.383 85.843 103.383 85.8652 103.383C91.6597 101.768 97.3211 97.5218 100.474 92.4573C102.161 89.7591 102.538 86.9503 102.427 83.8099C102.294 80.0501 102.094 76.3125 101.939 72.5749V72.5527ZM74.1206 59.261H77.6728C77.6728 59.261 77.7172 59.261 77.7394 59.261V68.417C76.5183 68.8372 75.3195 69.2353 74.0984 69.5892V59.261H74.1206ZM96.9215 89.7591C94.4793 93.9169 89.928 97.4334 85.2657 98.9151C80.6034 97.4334 76.0521 93.9169 73.61 89.7591C72.1891 87.3263 72.5221 84.5839 72.6331 81.8857C72.7441 79.3866 72.8551 76.8875 72.9661 74.4105C75.0753 73.9903 77.0734 73.3489 79.1603 72.6191C80.2926 72.221 81.3805 71.7787 82.4905 71.3142C83.1566 71.0267 83.8004 70.7171 84.4221 70.3854C84.7107 70.2306 84.9993 70.0757 85.2657 69.8988C85.4877 70.0315 85.7319 70.1421 85.9318 70.2527C86.5534 70.5844 87.2195 70.894 87.8633 71.2037C88.929 71.6681 90.0168 72.1104 91.1047 72.5085C93.2804 73.2826 95.3674 73.9682 97.5653 74.4105C97.6763 76.9096 97.7873 79.4087 97.8983 81.8857C98.0094 84.5839 98.3424 87.3263 96.9215 89.7591Z" fill="black"/>
</g>
<defs>
<clipPath id="clip0_20_679">
<rect width="95" height="88" fill="white" transform="translate(13 21)"/>
</clipPath>
</defs>
</svg>
