<svg width="120" height="130" viewBox="0 0 120 130" fill="none" xmlns="http://www.w3.org/2000/svg">
<path d="M34.0954 78.7102C27.0888 78.7102 22 72.4349 22 65.4812C22 58.5274 27.7154 52.8551 34.722 52.8551M34.722 52.8551C27.8294 52.8551 22 46.8248 22 39.626C22 32.4273 27.2027 27 34.0954 27C38.6526 27 42.754 29.431 45.0136 33.1811C48.9062 33.8407 52.381 35.8759 55.4001 39.2115C58.1154 42.2266 60.0712 45.8637 61.97 49.3877C63.5081 52.2332 65.0841 55.1542 66.736 56.9821C68.2361 58.6405 69.2045 58.7912 70.002 58.7912H76.7997C76.7238 58.3955 76.6858 57.9809 76.6858 57.5663C76.6858 55.7761 77.3884 54.0989 78.6606 52.8363C79.9328 51.5737 81.6227 50.8764 83.4266 50.8764C85.2305 50.8764 86.9204 51.5737 88.1926 52.8363L95.9208 60.5061C98.6931 63.2575 98.6931 67.7237 95.9208 70.475L88.1926 78.1449C86.9204 79.4075 85.2305 80.1047 83.4266 80.1047C81.6227 80.1047 79.9328 79.4075 78.6606 78.1449C77.3884 76.8823 76.6858 75.2051 76.6858 73.4148C76.6858 73.0002 76.7238 72.5857 76.7997 72.1899H70.002C69.2045 72.1899 68.2361 72.3218 66.736 73.999C65.0841 75.827 63.5081 78.7668 61.97 81.5935C60.0712 85.1175 58.0964 88.7734 55.3811 91.7885C52.381 95.1241 48.8872 97.1593 44.9946 97.8189C42.754 101.569 38.6336 104 34.0765 104C27.2977 104 22.1899 98.5727 22.1899 91.374C22.1899 84.1752 27.2977 78.7479 34.0765 78.7479" fill="#80CBA2"/>
<path d="M92.3213 63.3294L84.6487 55.603C83.8758 54.8247 82.6315 54.8247 81.8586 55.603C81.0857 56.3813 81.0857 57.6343 81.8586 58.4316L86.4019 63.0067H69.9254C67.3805 63.0067 65.2314 61.9246 63.1765 59.6086C61.1594 57.3495 59.4627 54.1413 57.8226 51.0469C56.0694 47.7437 54.2408 44.3266 51.922 41.7069C49.0943 38.5176 45.9272 36.9799 42.2134 36.9799H41.9306C41.0446 33.5438 37.9717 31 34.2956 31C29.922 31 27 34.569 27 38.9732C27 43.3774 29.922 46.9464 34.2956 46.9464C37.9717 46.9464 41.0446 44.4026 41.9306 40.9665H42.2134C44.7584 40.9665 46.9075 42.0486 48.9623 44.3646C50.9794 46.6237 52.6761 49.8319 54.3162 52.9263C56.0694 56.2295 57.898 59.6466 60.2168 62.2663C60.4619 62.5321 60.7069 62.7599 60.9709 63.0067H41.9871C41.2331 59.5706 38.6127 57.0268 34.9366 57.0268C30.563 57.0268 27.0189 60.5958 27.0189 65C27.0189 69.4042 30.563 72.9732 34.9366 72.9732C38.6127 72.9732 41.2519 70.4294 41.9871 66.9933H60.9709C60.7258 67.2401 60.4619 67.4679 60.2168 67.7337C57.898 70.3534 56.0694 73.7705 54.3162 77.0737C52.6761 80.1681 50.9606 83.3763 48.9623 85.6354C46.9075 87.9514 44.7584 89.0335 42.2134 89.0335H41.9306C41.0446 85.5974 37.9717 83.0536 34.2956 83.0536C29.922 83.0536 27.2074 86.6226 27.2074 91.0268C27.2074 95.431 29.922 99 34.2956 99C37.9717 99 41.0446 96.4562 41.9306 93.0201H42.2134C45.9083 93.0201 49.0943 91.4634 51.922 88.2931C54.2408 85.6734 56.0694 82.2563 57.8226 78.9531C59.4627 75.8587 61.1782 72.6505 63.1765 70.3914C65.2314 68.0754 67.3805 66.9933 69.9254 66.9933H86.4019L81.8586 71.5684C81.0857 72.3467 81.0857 73.5997 81.8586 74.397C82.6315 75.1943 83.8758 75.1753 84.6487 74.397L92.3213 66.6706C93.2262 65.7593 93.2262 64.2596 92.3213 63.3294ZM34.2956 42.9408C32.1088 42.9408 30.9589 41.1563 30.9589 38.9542C30.9589 36.7521 32.1088 34.9676 34.2956 34.9676C36.4824 34.9676 38.2545 36.7521 38.2545 38.9542C38.2545 41.1563 36.4824 42.9408 34.2956 42.9408ZM34.9177 68.9866C32.7309 68.9866 30.9589 67.2021 30.9589 65C30.9589 62.7979 32.7309 61.0134 34.9177 61.0134C37.1045 61.0134 38.2545 62.7979 38.2545 65C38.2545 67.2021 37.1045 68.9866 34.9177 68.9866ZM34.2956 95.0324C32.1088 95.0324 31.1662 93.2479 31.1662 91.0458C31.1662 88.8437 32.1088 87.0592 34.2956 87.0592C36.4824 87.0592 38.2545 88.8437 38.2545 91.0458C38.2545 93.2479 36.4824 95.0324 34.2956 95.0324Z" fill="black"/>
</svg>
