<svg width="120" height="130" viewBox="0 0 120 130" fill="none" xmlns="http://www.w3.org/2000/svg">
<path d="M29.822 105.906C27.1667 105.858 24.5794 104.725 22.7207 102.796C20.8892 100.893 19.9292 98.4177 20.0041 95.8273C20.6168 76.0487 21.7879 56.0204 23.49 36.3025C23.9462 31.0677 28.1811 27.0877 33.3487 27.0405L37.0799 27C42.6628 27 46.9726 31.2903 46.9998 36.7747C47.0202 40.2353 45.3317 43.2439 42.7104 45.0248C41.6006 59.11 40.7564 73.3369 40.2049 87.4558C43.3369 89.1288 45.4134 92.4342 45.3794 96.2861C45.3317 101.737 41.0287 106 35.5888 106L29.8152 105.899L29.822 105.906Z" fill="#DADBEB"/>
<path d="M90.178 24.0932C92.8333 24.1399 95.4205 25.2588 97.2793 27.1637C99.1107 29.0419 100.071 31.4863 99.9959 34.0439C99.3832 53.5722 98.212 73.3469 96.5099 92.8153C96.0537 97.9838 91.8188 101.913 86.6512 101.96L82.9201 102C77.3372 102 73.0274 97.764 73.0002 92.3491C72.9798 88.9323 74.6682 85.9617 77.2895 84.2034C78.3993 70.2965 79.2436 56.2497 79.7951 42.3094C76.6631 40.6577 74.5866 37.3941 74.6206 33.591C74.6683 28.2094 78.9713 24 84.4112 24L90.1848 24.0999L90.178 24.0932Z" fill="#DADBEB"/>
<path d="M37.2099 34C35.9433 34.0135 34.6768 34.027 33.4102 34.0338C31.7491 34.0473 30.6555 35.317 30.5171 36.8569C28.7938 56.5647 27.6241 76.3063 27.0012 96.075C26.9528 97.6216 28.3646 98.8643 29.8942 98.8981C31.7837 98.9319 33.6732 98.9656 35.5627 98.9994C39.2863 99.0669 39.2863 93.4275 35.5627 93.3599C33.6732 93.3261 31.7837 93.2924 29.8942 93.2586L32.7873 96.0817C33.4102 76.3131 34.5798 56.5715 36.3032 36.8636C35.3412 37.8024 34.3792 38.7412 33.4102 39.6868C34.6768 39.6733 35.9433 39.6598 37.2099 39.653C40.9266 39.6192 40.9335 33.9797 37.2099 34.0135V34Z" fill="black"/>
<path d="M82.7901 95C84.0567 94.9867 85.3232 94.9734 86.5898 94.9668C88.2509 94.9535 89.3445 93.7033 89.4829 92.1871C91.2062 72.7824 92.3759 53.3445 92.9988 33.88C93.0472 32.3572 91.6353 31.1336 90.1057 31.1003C88.2162 31.0671 86.3268 31.0338 84.4373 31.0006C80.7137 30.9341 80.7137 36.4868 84.4373 36.5533C86.3268 36.5866 88.2162 36.6198 90.1057 36.6531C89.1437 35.7287 88.1817 34.8044 87.2127 33.8734C86.5898 53.3379 85.4201 72.7758 83.6967 92.1804C84.6588 91.2561 85.6208 90.3317 86.5898 89.4007C85.3232 89.414 84.0567 89.4273 82.7901 89.434C79.0734 89.4672 79.0665 95.02 82.7901 94.9867V95Z" fill="black"/>
</svg>
