<svg width="47" height="48" viewBox="0 0 47 48" fill="none" xmlns="http://www.w3.org/2000/svg">
<path d="M23.1929 48C19.3463 48 16.0977 47.2641 12.9137 45.6613C12.2025 45.8576 11.4429 45.9557 10.6994 45.9557C8.38824 45.9557 6.20633 45.0399 4.57393 43.4044C2.3597 41.1802 1.56774 37.9094 2.32737 34.9656C0.775791 31.7274 0 28.0641 0 24.0082C0 19.9523 0.791953 16.2399 2.34354 13.0017C1.71321 10.2378 2.61829 7.21227 4.89718 4.92266C6.67503 3.14003 8.88927 2.15877 11.1358 2.15877C11.7338 2.15877 12.348 2.22419 12.9298 2.37138C16.1785 0.850426 20.2514 0 24.4213 0C28.5911 0 31.371 0.86678 34.1186 2.32232C34.8298 2.14242 35.5571 2.04429 36.3005 2.04429C38.6118 2.04429 40.7937 2.96014 42.4261 4.59557C44.6403 6.81976 45.4323 10.0906 44.6726 13.0344C46.2242 16.2726 47 19.9359 47 23.9918C47 28.0477 46.2242 31.7274 44.6726 34.9492C45.4323 37.893 44.6403 41.1639 42.4261 43.3881C40.7937 45.0399 38.6118 45.9394 36.3005 45.9394C35.5409 45.9394 34.7813 45.8412 34.054 45.645C30.8539 47.1986 27.2012 47.9836 23.1929 47.9836V48Z" fill="#80CBA2"/>
<path d="M42.7592 23.7416C42.7592 19.6184 41.847 16.0044 40.0387 12.9819C41.1589 11.1749 40.9509 8.74367 39.3986 7.15024C37.8303 5.54038 35.4459 5.37611 33.7016 6.50958C30.7411 4.66974 28.4367 3.7334 24.404 3.7334C20.3714 3.7334 16.2267 4.66974 13.2661 6.50958C11.5379 5.37611 9.4575 5.86892 7.88923 7.47878C6.32097 9.08863 5.84088 11.2077 6.94507 12.9819C5.13676 16.0044 4.22461 19.6184 4.22461 23.7416C4.22461 27.8648 5.13676 31.4788 6.94507 34.5014C5.82488 36.3083 6.03292 38.7396 7.58518 40.3166C9.15345 41.9264 11.5379 42.0907 13.2822 40.9572C16.2427 42.7971 19.1551 43.7334 23.1878 43.7334C27.2205 43.7334 30.7571 42.7971 33.7176 40.9572C35.4459 42.0907 37.8303 41.9264 39.4146 40.3166C40.9829 38.7067 41.1589 36.2755 40.0547 34.4849C41.863 31.4623 42.7752 27.8484 42.7752 23.7252L42.7592 23.7416ZM33.2535 27.4213C33.6536 26.2714 33.8777 25.0394 33.8777 23.7416C33.8777 22.4439 33.6536 21.2118 33.2535 20.0619L37.8463 15.3802C39.0785 17.7457 39.6866 20.5548 39.6866 23.7416C39.6866 26.9285 39.0625 29.7375 37.8463 32.103L33.2535 27.4213ZM23.1718 31.5609C18.9471 31.5609 16.7547 28.0619 16.7547 23.7416C16.7547 19.4213 18.9631 16.5465 23.1718 16.5465C27.3805 16.5465 29.5889 19.4213 29.5889 23.7416C29.5889 28.0619 27.3805 31.5609 23.1718 31.5609ZM9.12144 32.103C7.88923 29.7375 7.28113 26.9285 7.28113 23.7416C7.28113 20.5548 7.90524 17.7457 9.12144 15.3802L13.7142 20.0619C13.3142 21.2118 13.0901 22.4439 13.0901 23.7416C13.0901 25.0394 13.3142 26.2714 13.7142 27.4213L9.12144 32.103ZM37.2382 9.36789C37.8303 9.9757 37.8303 10.9613 37.2382 11.5856L31.7493 17.1872C31.1412 16.3494 30.4051 15.6102 29.5889 14.9695L35.0779 9.36789C35.67 8.76009 36.6461 8.76009 37.2382 9.36789ZM31.3652 8.74367L26.7724 13.4254C25.6523 13.0147 24.436 12.7847 23.1718 12.7847C21.9076 12.7847 21.3155 13.0147 20.1953 13.4254L15.6025 8.74367C17.9229 7.49521 21.2835 6.85455 24.404 6.85455C27.5246 6.85455 29.0448 7.49521 31.3652 8.74367ZM10.0496 9.69644C10.6417 9.08863 11.2978 8.76009 11.8899 9.36789L17.3788 14.9695C16.5627 15.5938 15.8266 16.3494 15.2185 17.1872L9.72955 11.5856C9.13745 10.9778 9.4415 10.3042 10.0496 9.69644ZM9.72955 38.1153C9.13745 37.5075 9.13745 36.5219 9.72955 35.8977L15.2185 30.296C15.8266 31.1338 16.5627 31.873 17.3788 32.5137L11.8899 38.1153C11.2978 38.7231 10.3216 38.7231 9.72955 38.1153ZM15.6025 38.7396L20.1953 34.0578C21.3155 34.4685 21.9236 34.6985 23.1718 34.6985C24.42 34.6985 25.6363 34.4685 26.7724 34.0578L31.3652 38.7396C29.0448 39.988 26.3084 40.6287 23.1878 40.6287C20.0673 40.6287 17.9389 39.988 15.6185 38.7396H15.6025ZM37.2382 38.1153C36.6461 38.7231 35.67 38.7231 35.0779 38.1153L29.5889 32.5137C30.4051 31.8895 31.1412 31.1338 31.7493 30.296L37.2382 35.8977C37.8303 36.5055 37.8303 37.4911 37.2382 38.1153Z" fill="black"/>
</svg>
