<svg width="120" height="130" viewBox="0 0 120 130" fill="none" xmlns="http://www.w3.org/2000/svg">
<path d="M55.4062 112.984C50.9217 112.984 46.9408 110.781 44.4941 107.398H42.1968C41.709 107.398 41.2134 107.398 40.7256 107.366C40.5918 107.366 40.4345 107.359 40.2535 107.351C37.5944 107.296 31.3555 107.162 26.7373 102.174C24.2276 99.4669 22.7879 95.942 22.4339 91.6775C17.2414 89.0968 14 83.833 14 77.1687V65.9882C14 56.1767 18.7283 52.4236 23.2993 50.8893C27.3117 32.0925 42.3777 19 60.9999 19C79.622 19 96.3088 33.2098 99.1568 51.7076C101.478 53.1396 103.61 55.5158 105.081 59.3633C106.096 62.0227 106.694 64.9575 106.851 68.0732L106.961 70.2055C107.056 72.0466 106.961 73.7855 106.851 75.4063C106.843 75.5558 106.851 75.7131 106.851 75.8626C106.851 76.3819 106.851 77.0979 106.757 77.9241C106.324 81.9368 105.592 88.6404 96.891 90.8671C94.7747 91.41 92.501 91.6854 90.1329 91.6854C89.9598 91.6854 89.7867 91.6854 89.6058 91.6854L86.805 91.6381H86.687C82.9657 91.4572 79.8266 90.2062 77.309 88.2863C77.4192 88.5145 77.5214 88.7506 77.6237 88.9866C78.1272 90.2062 78.4419 91.4729 78.5757 92.7554L78.615 93.1567V99.1443C78.615 106.784 72.3998 113 64.7605 113H55.414L55.4062 112.984Z" fill="#9597C9"/>
<path d="M55.4022 106C52.1457 106 49.449 103.548 49.0627 100.402H42.1633C41.8085 100.402 41.4458 100.402 41.0909 100.379C40.8859 100.371 40.6494 100.363 40.3734 100.355C38.3075 100.308 34.4675 100.229 31.8813 97.4379C30.0204 95.4274 29.1846 92.3763 29.4054 88.3633V86.3686C24.2013 86.0532 21 82.6 21 77.1994V65.9961C21 58.4825 24.3275 57.363 29.4606 56.8663C31.2111 38.9378 44.379 26 60.9926 26C77.6063 26 92.1777 39.7656 92.5799 56.8347C96.2306 57.1343 97.642 59.5311 98.5409 61.8806C99.29 63.8516 99.7394 66.067 99.8577 68.448L99.9681 70.5846C100.047 72.0432 99.9681 73.4781 99.8577 74.9445C99.834 75.252 99.834 75.5595 99.834 75.867C99.834 76.2927 99.834 76.7342 99.7867 77.1836C99.3136 81.5199 98.8248 83.1124 95.2056 84.0428C93.6522 84.437 91.9648 84.642 90.1828 84.642H89.7728L87.084 84.5947C79.68 84.2478 76.9991 77.1678 76.9991 72.4926V65.9961C76.9991 61.2025 80.6972 57.2526 85.3888 56.8426C84.9472 44.299 73.6796 32.2206 62.2069 32.2206C61.3001 32.2206 60.3855 32.2915 59.4945 32.4334C45.4198 34.6883 36.904 43.7787 36.5807 56.8268C40.8544 57.0713 43.4643 59.3103 44.5603 63.6466C44.8442 64.7583 44.9782 65.9724 44.9782 67.3364V73.0918C44.9782 74.0536 44.9546 75.0076 44.8994 75.9379C44.8521 76.7421 44.8205 77.4911 44.789 78.1849C44.5603 83.4515 44.4184 86.6288 38.9935 86.6288C38.2996 86.6288 37.4954 86.5815 36.5728 86.479V88.7259C36.5413 90.8152 36.5255 92.1949 36.8882 92.6207C37.2194 93.0149 38.4258 93.0622 40.2551 93.1489L41.4221 93.2041H49.0232C49.3229 88.584 52.2639 87.5827 54.7556 87.5827C54.9764 87.5827 55.205 87.5827 55.4416 87.6064H64.6749C67.4977 87.6064 70.0682 89.2542 71.0775 91.714C71.3219 92.3053 71.4718 92.9124 71.5348 93.5195V93.5983V99.196C71.5348 102.941 68.4912 105.984 64.7459 105.984H55.3785L55.4022 106Z" fill="black"/>
</svg>
