<svg width="120" height="130" viewBox="0 0 120 130" fill="none" xmlns="http://www.w3.org/2000/svg">
<path fill-rule="evenodd" clip-rule="evenodd" d="M88.7084 19.37C84.1984 16.47 79.5884 15 75.0084 15C70.4284 15 63.9484 16.44 58.1484 23.31L57.7284 23.81L21.1784 80.69C19.5084 83.29 18.7584 86.42 19.0684 89.5L19.1184 89.95L21.7984 103.74C22.3784 107.67 24.5984 111.12 27.9584 113.28C30.1784 114.7 32.7384 115.45 35.3784 115.45C36.5984 115.45 37.7984 115.29 38.9784 114.97L53.2384 112.03L53.8284 111.83C56.7584 110.83 59.2884 108.86 60.9684 106.25L97.1784 49.92C103.908 39.45 100.428 26.89 88.7284 19.37H88.7084Z" fill="#80CBA2"/>
<path fill-rule="evenodd" clip-rule="evenodd" d="M83.2984 27.78C76.9584 23.71 70.7484 23.89 65.7884 29.76L57.7384 42.28L29.5784 86.09C29.1184 86.8 28.9184 87.65 29.0084 88.49L31.6584 102.12C31.7784 103.24 32.3984 104.25 33.3484 104.86C34.2984 105.47 35.4784 105.61 36.5484 105.26L50.5884 102.36C51.3884 102.09 52.0784 101.55 52.5284 100.84L88.7384 44.51C92.8084 38.17 89.6284 31.85 83.2984 27.78ZM51.5584 88.61C50.9884 89.5 46.4384 95.91 45.4284 96.24L40.7384 97.82C39.1184 98.37 37.4084 97.27 37.2284 95.57L36.7184 90.65C36.6084 89.6 36.8584 88.54 37.4384 87.64L62.4284 48.75L72.5384 55.98L51.5584 88.6V88.61ZM81.1384 42.61L76.4584 49.89L66.0184 43.18L70.5784 36.09C72.2884 33.43 75.7184 32.29 78.5684 33.65C82.0184 35.29 83.1484 39.51 81.1484 42.62L81.1384 42.61Z" fill="black"/>
</svg>
