<svg width="120" height="130" viewBox="0 0 120 130" fill="none" xmlns="http://www.w3.org/2000/svg">
<path d="M83.2208 25H36.7792C27.6812 25 20 32.6537 20 41.7191V88.2809C20 97.3463 27.6812 105 36.7792 105H83.5086C87.9801 105 92.3409 103.125 95.44 99.8828C98.5612 96.6184 100.177 92.3615 99.9779 87.8839V41.7191C99.9779 32.6537 92.2966 25 83.1987 25H83.2208Z" fill="#F1A695"/>
<path fill-rule="evenodd" clip-rule="evenodd" d="M67.5042 57.2251L55.1522 57.556C54.0897 57.556 53.2485 58.4382 53.2706 59.4969C53.2706 60.5557 54.1561 61.3938 55.2186 61.3718L67.5706 61.0409C68.6331 61.0409 68.8987 60.1587 68.8766 59.122C68.8766 58.0633 68.5667 57.2251 67.5042 57.2251Z" fill="black"/>
<path fill-rule="evenodd" clip-rule="evenodd" d="M55.3735 73.6794L62.6563 73.2162C63.7189 73.172 64.4715 72.0251 64.4272 70.9884C64.383 69.9297 63.4975 69.1136 62.435 69.1577L55.285 69.665C54.2225 69.7091 53.3149 70.7899 53.3592 71.8266C53.4034 72.8853 54.2889 73.7014 55.3514 73.6573L55.3735 73.6794Z" fill="black"/>
<path fill-rule="evenodd" clip-rule="evenodd" d="M55.3735 87.7294L62.6563 87.2662C63.7189 87.2221 64.4715 86.0751 64.4272 85.0385C64.383 83.9797 63.4975 83.1636 62.435 83.2078L55.285 83.7151C54.2225 83.7592 53.3149 84.84 53.3592 85.8766C53.4034 86.9354 54.2889 87.7515 55.3514 87.7074L55.3735 87.7294Z" fill="black"/>
<path fill-rule="evenodd" clip-rule="evenodd" d="M67.7476 75.8408L55.3957 76.1717C54.3331 76.1717 53.492 77.0539 53.5141 78.1127C53.5141 79.1714 54.3995 80.0096 55.4621 79.9875L67.814 79.6566C68.8766 79.6566 69.1422 78.7744 69.1201 77.7377C69.1201 76.679 68.8102 75.8408 67.7476 75.8408Z" fill="black"/>
<path fill-rule="evenodd" clip-rule="evenodd" d="M67.7476 51.4902L55.3957 51.8211C54.3331 51.8211 53.492 52.7034 53.5141 53.7621C53.5141 54.8208 54.3995 55.659 55.4621 55.6369L67.814 55.3061C68.8766 55.3061 69.1422 54.4238 69.1201 53.3871C69.1201 52.3284 68.8102 51.4902 67.7476 51.4902Z" fill="black"/>
<path fill-rule="evenodd" clip-rule="evenodd" d="M84.7703 57.2251L72.4184 57.556C71.3558 57.556 70.5147 58.4382 70.5368 59.4969C70.5368 60.5557 71.4222 61.3938 72.4848 61.3718L84.8368 61.0409C85.8993 61.0409 86.1649 60.1587 86.1428 59.122C86.1428 58.0633 85.8329 57.2251 84.7703 57.2251Z" fill="black"/>
<path fill-rule="evenodd" clip-rule="evenodd" d="M72.6397 73.6794L79.9225 73.2162C80.985 73.172 81.7377 72.0251 81.6934 70.9884C81.6491 69.9297 80.7637 69.1136 79.7011 69.1577L72.5512 69.665C71.4886 69.7091 70.5811 70.7899 70.6253 71.8266C70.6696 72.8853 71.5551 73.7014 72.6176 73.6573L72.6397 73.6794Z" fill="black"/>
<path fill-rule="evenodd" clip-rule="evenodd" d="M85.036 75.8408L72.684 76.1717C71.6215 76.1717 70.7803 77.0539 70.8024 78.1127C70.8024 79.1714 71.6879 80.0096 72.7504 79.9875L85.1024 79.6566C86.1649 79.6566 86.4305 78.7744 86.4084 77.7377C86.4084 76.679 86.0985 75.8408 85.036 75.8408Z" fill="black"/>
<path fill-rule="evenodd" clip-rule="evenodd" d="M85.036 51.4902L72.684 51.8211C71.6215 51.8211 70.7803 52.7034 70.8024 53.7621C70.8024 54.8208 71.6879 55.659 72.7504 55.6369L85.1024 55.3061C86.1649 55.3061 86.4305 54.4238 86.4084 53.3871C86.4084 52.3284 86.0985 51.4902 85.036 51.4902Z" fill="black"/>
<path fill-rule="evenodd" clip-rule="evenodd" d="M67.7476 40.9692L55.3957 41.3001C54.3331 41.3001 53.492 42.1824 53.5141 43.2411C53.5141 44.2998 54.3995 45.138 55.4621 45.1159L67.814 44.7851C68.8766 44.7851 69.1422 43.9028 69.1201 42.8661C69.1201 41.8074 68.8102 40.9692 67.7476 40.9692Z" fill="black"/>
<path fill-rule="evenodd" clip-rule="evenodd" d="M85.036 40.9692L72.684 41.3001C71.6215 41.3001 70.7803 42.1824 70.8024 43.2411C70.8024 44.2998 71.6879 45.138 72.7504 45.1159L85.1024 44.7851C86.1649 44.7851 86.4305 43.9028 86.4084 42.8661C86.4084 41.8074 86.0985 40.9692 85.036 40.9692Z" fill="black"/>
<path d="M83.2208 30.5142H36.7792C30.6917 30.5142 25.534 35.6313 25.534 41.719V88.2809C25.534 94.3465 30.6696 99.4858 36.7792 99.4858H83.5086C86.4748 99.4858 89.3746 98.2506 91.4333 96.067C93.5362 93.8613 94.5988 90.9939 94.4438 87.9942V41.719C94.4438 35.6534 89.3082 30.5142 83.1987 30.5142H83.2208ZM30.2712 87.9942V41.719C30.2712 38.0796 33.1267 35.2343 36.7792 35.2343H45.0581V94.4789H36.7792C33.1267 94.4789 30.2712 91.6335 30.2712 87.9942ZM89.7288 87.9942C89.7288 91.6335 86.8733 94.4789 83.2208 94.4789H49.7952V35.2343H83.2208C86.8733 35.2343 89.7288 38.0796 89.7288 41.719V87.9942Z" fill="black"/>
</svg>
