<svg width="108" height="99" viewBox="0 0 108 99" fill="none" xmlns="http://www.w3.org/2000/svg">
<g clip-path="url(#clip0_2238_2029)">
<path d="M98.8545 28.6331C96.0834 21.6569 91.632 15.3605 86.0013 10.3944C84.262 8.85725 82.0216 8 79.6927 8C76.9511 8 74.3568 9.18241 72.5291 11.2516C71.4973 12.434 70.8488 13.8234 70.4655 15.2423C70.3476 15.2127 70.2592 15.124 70.1707 15.0945C68.5493 14.4737 66.869 14.1485 65.1297 14.1485C64.4222 14.1485 63.6852 14.2077 62.9777 14.3259C60.4719 12.0202 57.1702 10.69 53.6326 10.69C52.3944 10.69 51.1563 10.8673 49.9771 11.1925C47.943 10.0397 45.5846 9.38933 43.1673 9.38933C41.2216 9.38933 39.3349 9.80318 37.5661 10.5717L37.0944 10.7787C32.4366 12.8479 29.5181 17.2228 28.9875 21.9525C27.9852 22.6915 27.1303 23.5487 26.3638 24.5242C25.6858 24.0512 24.9783 23.6078 24.1528 23.3122C23.0916 22.928 21.9713 22.721 20.8511 22.721C16.8713 22.721 13.2748 25.2337 11.8893 28.9878C9.00025 36.91 8.26325 45.5416 9.73724 53.9367C10.5332 58.5186 14.4835 61.8589 19.1413 61.8589C19.6719 61.8589 20.2025 61.7997 20.7921 61.7111C21.1164 61.6519 21.3817 61.5337 21.706 61.445C22.2956 64.9923 24.0939 68.3326 27.1008 70.727C28.28 71.7616 29.6655 73.0622 30.0193 73.5056C33.4095 77.7327 38.1557 83.0832 44.7002 87.0147C50.0066 90.2072 55.4898 91.8034 61.032 91.8034C65.3655 91.8034 69.699 90.7984 73.8852 88.8474C82.2574 84.975 87.8291 79.5064 90.4528 72.6484C93.4302 64.8445 93.2534 56.4198 89.8632 48.8819L86.2667 40.9893C87.4164 41.4918 88.684 41.7579 90.0106 41.7579C91.2193 41.7579 92.4279 41.5214 93.5482 41.078C98.4418 39.127 100.8 33.5401 98.8545 28.6331Z" fill="#9597C9"/>
<path d="M76.2999 36.8207L71.2588 25.5287C70.5218 23.9028 69.2247 22.6317 67.5444 22.011C65.864 21.3607 64.0658 21.4198 62.4444 22.1588C61.619 22.5135 60.9114 23.0456 60.3513 23.6368L59.5849 21.8927C58.1403 18.6411 54.3375 17.1927 51.0947 18.6411L50.623 18.848C49.945 19.1436 49.3554 19.5575 48.8542 20.0304C47.2328 17.1631 43.6953 15.9511 40.6294 17.3109L40.1577 17.5178C36.9149 18.9663 35.4704 22.7795 36.9149 26.0312L37.0918 26.445C36.4138 26.5041 35.7357 26.6815 35.1167 26.9771L34.645 27.184C33.0826 27.8935 31.8739 29.1646 31.2548 30.7608C30.6357 32.3571 30.6947 34.1307 31.3727 35.6974L38.4479 51.6304C35.4999 50.7732 32.1982 51.7782 30.2525 54.3795C27.7762 57.7198 28.4248 62.4495 31.7265 64.9917C32.5814 65.7307 34.7924 67.7408 35.6768 68.8345C38.6837 72.5886 42.8698 77.3183 48.412 80.629C52.5687 83.1121 56.7843 84.3832 60.9704 84.3832C64.2426 84.3832 67.4854 83.6442 70.7282 82.1366C77.3906 79.0328 81.5473 75.0717 83.5224 69.9873C85.7923 64.0457 85.6744 57.6311 83.1097 51.926L76.2409 36.8207H76.2999ZM79.5132 68.4206C77.9802 72.4113 74.5311 75.6038 68.9594 78.1755C59.0837 82.7574 49.3259 78.8259 39.0964 66.1149C37.7698 64.4891 34.4091 61.5627 34.4091 61.5627C32.9646 60.4985 32.6698 58.4293 33.7311 56.9808C34.7924 55.5324 36.856 55.2368 38.3005 56.3009L49.0311 63.8388C50.0039 64.5187 51.36 64.2822 52.038 63.3067C52.7161 62.3312 52.4802 60.9715 51.5074 60.2916L45.0219 55.7393L35.323 33.9238C35.0872 33.4213 35.0872 32.83 35.2935 32.3275C35.4999 31.7954 35.8831 31.3816 36.3843 31.1747L36.856 30.9677C37.3571 30.7313 37.9467 30.7313 38.4479 30.9382C38.9785 31.1451 39.3912 31.5294 39.5976 32.0319L47.6456 50.1524C48.1467 51.2461 49.4143 51.7486 50.5051 51.2461C51.5958 50.7436 52.097 49.4725 51.5958 48.3788L40.8063 24.2871C40.3346 23.223 40.8063 21.9814 41.8675 21.5085L42.3392 21.3015C43.4005 20.8286 44.6386 21.3015 45.1103 22.3657L56.2536 47.4328C56.6074 48.231 57.4034 48.7335 58.2288 48.7335C58.5236 48.7335 58.8184 48.6744 59.1132 48.5561C60.2039 48.0536 60.7051 46.7825 60.2039 45.6888L51.2126 25.4695C50.8294 24.4349 51.301 23.2821 52.3034 22.8387L52.775 22.6317C53.8363 22.1588 55.0745 22.6317 55.5461 23.6959L65.3334 45.6888C65.6872 46.4869 66.4831 46.9894 67.3085 46.9894C67.6033 46.9894 67.8981 46.9303 68.1929 46.8121C69.2837 46.3095 69.7848 45.0385 69.2837 43.9447C69.2837 43.9447 63.0929 29.5489 62.9455 29.2828C62.4149 28.1004 62.9455 26.7111 64.1247 26.179C64.6848 25.9129 65.3334 25.9129 65.923 26.1199C66.5126 26.3563 66.9843 26.7997 67.2201 27.3614L71.8779 37.8257L79.1299 53.7587C81.1935 58.3997 81.3114 63.6023 79.4247 68.4798L79.5132 68.4206Z" fill="#010101"/>
<path d="M81.134 15.9217C80.2497 15.1236 78.8641 15.2122 78.0682 16.1286C77.2722 17.0154 77.3606 18.4048 78.2745 19.2029C82.5491 22.957 85.9098 27.7458 88.0028 33.0075C88.3566 33.8648 89.1525 34.3673 90.0074 34.3673C90.2728 34.3673 90.5381 34.3082 90.8034 34.2195C91.9236 33.7761 92.4543 32.505 92.0121 31.3817C89.6537 25.4992 85.8803 20.1488 81.134 15.9217Z" fill="#010101"/>
<path d="M21.6443 30.2289C20.5241 29.815 19.2859 30.3767 18.8732 31.5295C16.3969 38.2693 15.7484 45.5707 16.9865 52.6651C17.1634 53.7293 18.0773 54.4683 19.109 54.4683C19.227 54.4683 19.3744 54.4683 19.4923 54.4387C20.6715 54.2318 21.4674 53.1085 21.2611 51.9261C20.1408 45.5707 20.7304 39.0378 22.9414 33.0371C23.3541 31.9138 22.794 30.6723 21.6443 30.2289Z" fill="#010101"/>
</g>
<defs>
<clipPath id="clip0_2238_2029">
<rect width="90.5618" height="83.8035" fill="white" transform="translate(9 8)"/>
</clipPath>
</defs>
</svg>
