<svg width="120" height="130" viewBox="0 0 120 130" fill="none" xmlns="http://www.w3.org/2000/svg">
<g clip-path="url(#clip0_524_1656)">
<path d="M93.4766 49.2649C91.4265 44.1037 88.1332 39.4455 83.9675 35.7714C82.6807 34.6342 81.0232 34 79.3002 34C77.2719 34 75.3526 34.8748 74.0004 36.4056C73.237 37.2804 72.7572 38.3083 72.4737 39.358C72.3864 39.3362 72.321 39.2705 72.2556 39.2487C71.056 38.7894 69.8129 38.5489 68.5261 38.5489C68.0026 38.5489 67.4574 38.5926 66.934 38.6801C65.0801 36.9743 62.6374 35.9901 60.0202 35.9901C59.1042 35.9901 58.1882 36.1213 57.3158 36.3619C55.8109 35.509 54.0661 35.0279 52.2777 35.0279C50.8383 35.0279 49.4424 35.334 48.1338 35.9026L47.7849 36.0557C44.3389 37.5866 42.1797 40.8233 41.7872 44.3224C41.0456 44.8691 40.4131 45.5034 39.8461 46.225C39.3444 45.8751 38.821 45.5471 38.2103 45.3284C37.4252 45.0441 36.5964 44.891 35.7676 44.891C32.8233 44.891 30.1625 46.7499 29.1374 49.5273C27 55.3884 26.4548 61.7743 27.5453 67.9852C28.1342 71.375 31.0567 73.8462 34.5026 73.8462C34.8952 73.8462 35.2878 73.8025 35.724 73.7369C35.9639 73.6931 36.1602 73.6056 36.4001 73.54C36.8363 76.1644 38.1667 78.6356 40.3913 80.4071C41.2637 81.1725 42.2888 82.1347 42.5505 82.4628C45.0586 85.5901 48.57 89.5485 53.4118 92.4571C57.3376 94.819 61.3942 96 65.4945 96C68.7006 96 71.9066 95.2564 75.0036 93.813C81.1976 90.9481 85.3197 86.9023 87.2608 81.8286C89.4636 76.055 89.3327 69.8222 86.8246 64.2455L84.1638 58.4063C85.0144 58.7781 85.9522 58.975 86.9336 58.975C87.8278 58.975 88.722 58.8 89.5508 58.472C93.1713 57.0286 94.9161 52.8952 93.4766 49.2649Z" fill="#F1A695"/>
<path d="M76.792 55.3229L73.0625 46.9687C72.5173 45.7659 71.5576 44.8255 70.3145 44.3662C69.0713 43.8851 67.7409 43.9289 66.5413 44.4756C65.9307 44.738 65.4072 45.1317 64.9928 45.5691L64.4258 44.2788C63.3571 41.8731 60.5436 40.8015 58.1445 41.8731L57.7956 42.0262C57.2939 42.2449 56.8577 42.5511 56.487 42.901C55.2874 40.7796 52.6702 39.883 50.402 40.889L50.0531 41.0421C47.654 42.1137 46.5853 44.9349 47.654 47.3405L47.7848 47.6467C47.2832 47.6904 46.7816 47.8216 46.3236 48.0403L45.9746 48.1934C44.8187 48.7183 43.9245 49.6587 43.4665 50.8396C43.0085 52.0206 43.0521 53.3327 43.5537 54.4918L48.7881 66.2795C46.6071 65.6453 44.1644 66.3888 42.7249 68.3133C40.8929 70.7846 41.3727 74.2837 43.8154 76.1645C44.4479 76.7112 46.0837 78.1983 46.738 79.0075C48.9626 81.7849 52.0596 85.2841 56.1598 87.7334C59.235 89.5705 62.3538 90.5109 65.4508 90.5109C67.8717 90.5109 70.2708 89.9641 72.6699 88.8488C77.599 86.5525 80.6742 83.622 82.1354 79.8604C83.8148 75.4647 83.7275 70.719 81.8301 66.4982L76.7484 55.3229H76.792ZM79.1693 78.7013C78.0352 81.6537 75.4834 84.0156 71.3613 85.9183C64.055 89.308 56.8359 86.3994 49.2679 76.9955C48.2865 75.7927 45.8001 73.6276 45.8001 73.6276C44.7314 72.8403 44.5133 71.3095 45.2985 70.2379C46.0837 69.1662 47.6104 68.9476 48.679 69.7349L56.6178 75.3116C57.3376 75.8146 58.3408 75.6396 58.8424 74.9179C59.3441 74.1962 59.1696 73.1902 58.4499 72.6872L53.6517 69.3193L46.4762 53.1797C46.3018 52.8079 46.3018 52.3705 46.4544 51.9987C46.6071 51.605 46.8906 51.2989 47.2614 51.1458L47.6104 50.9927C47.9811 50.8177 48.4173 50.8177 48.7881 50.9708C49.1807 51.1239 49.486 51.4082 49.6387 51.78L55.5928 65.186C55.9635 65.9952 56.9014 66.367 57.7083 65.9952C58.5153 65.6234 58.8861 64.683 58.5153 63.8738L50.5329 46.0502C50.1839 45.2629 50.5329 44.3444 51.318 43.9945L51.667 43.8414C52.4521 43.4915 53.3682 43.8414 53.7171 44.6287L61.9613 63.174C62.223 63.7645 62.8119 64.1363 63.4225 64.1363C63.6406 64.1363 63.8587 64.0925 64.0768 64.005C64.8838 63.6333 65.2546 62.6929 64.8838 61.8837L58.2318 46.925C57.9482 46.1595 58.2972 45.3066 59.0387 44.9786L59.3877 44.8255C60.1729 44.4756 61.0889 44.8255 61.4378 45.6128L68.6787 61.8837C68.9404 62.4742 69.5293 62.846 70.14 62.846C70.3581 62.846 70.5762 62.8022 70.7943 62.7147C71.6012 62.343 71.972 61.4026 71.6012 60.5934C71.6012 60.5934 67.0212 49.943 66.9121 49.7461C66.5195 48.8714 66.9121 47.8435 67.7845 47.4498C68.1989 47.253 68.6787 47.253 69.1149 47.4061C69.5511 47.5811 69.9001 47.9091 70.0745 48.3246L73.5205 56.0664L78.8857 67.8541C80.4124 71.2876 80.4997 75.1366 79.1038 78.7451L79.1693 78.7013Z" fill="#010101"/>
<path d="M80.3688 39.8611C79.7145 39.2707 78.6895 39.3363 78.1006 40.0142C77.5117 40.6703 77.5772 41.6982 78.2533 42.2887C81.4157 45.0661 83.902 48.6089 85.4505 52.5017C85.7122 53.1359 86.3011 53.5077 86.9336 53.5077C87.1299 53.5077 87.3262 53.464 87.5225 53.3984C88.3512 53.0703 88.7438 52.1299 88.4167 51.2989C86.6719 46.9469 83.8802 42.9885 80.3688 39.8611Z" fill="#010101"/>
<path d="M36.3564 50.446C35.5277 50.1398 34.6116 50.5554 34.3063 51.4083C32.4743 56.3945 31.9945 61.7963 32.9105 67.045C33.0413 67.8323 33.7174 68.379 34.4808 68.379C34.568 68.379 34.6771 68.379 34.7643 68.3571C35.6367 68.204 36.2256 67.373 36.0729 66.4982C35.2441 61.7963 35.6803 56.9631 37.3161 52.5236C37.6214 51.6926 37.207 50.7741 36.3564 50.446Z" fill="#010101"/>
</g>
<defs>
<clipPath id="clip0_524_1656">
<rect width="67" height="62" fill="white" transform="translate(27 34)"/>
</clipPath>
</defs>
</svg>
