<svg width="184" height="100" viewBox="0 0 184 100" fill="none" xmlns="http://www.w3.org/2000/svg">
<g clip-path="url(#clip0_175_889)">
<path d="M17.1475 98.887C13.9512 98.929 10.752 98.6627 7.11717 96.1688C6.37151 95.6581 5.59626 94.9446 5.62324 94.0312C5.64343 93.3435 6.14598 92.7425 6.75243 92.4317C6.97906 92.3184 7.21799 92.2324 7.46433 92.1755C7.46556 92.1755 7.46695 92.1755 7.46695 92.1741C7.8473 92.0915 8.23431 92.0444 8.62313 92.0334L8.73397 92.0294C10.5847 91.9606 12.4354 92.1692 14.2261 92.6483C14.3882 92.6912 14.5599 92.6772 14.7132 92.6085C14.8665 92.5398 14.9923 92.4205 15.0701 92.2701C15.148 92.1197 15.1733 91.9469 15.1419 91.78C15.1106 91.6131 15.0244 91.4619 14.8975 91.351C14.6662 91.1505 14.4155 90.9743 14.149 90.8253C13.7582 90.6116 13.3485 90.4355 12.9253 90.2993C12.3608 90.1118 11.7772 89.9711 11.2019 89.8186C9.06353 89.2566 6.97305 88.5218 4.9505 87.6212C3.50666 86.9776 2.05235 86.2146 1.06451 84.9672C0.610831 84.3934 0.25812 83.6757 0.347223 82.9458C0.49583 81.7462 1.76685 81.0067 2.95139 80.856C5.02758 80.5931 7.05366 81.5326 8.90184 82.5254C10.4351 83.3512 12.1478 84.2602 13.8213 83.7921C14.1111 83.7264 14.3755 83.5759 14.5817 83.3594C14.96 82.9156 14.8668 82.2064 14.5292 81.7297C14.1916 81.253 13.6673 80.956 13.1621 80.6711C10.227 79.0181 7.29599 77.2584 4.95373 74.8207C2.61148 72.3829 0.888313 69.162 0.886155 65.7576C0.886155 64.762 1.03877 63.7431 1.50479 62.8661C1.9708 61.9892 2.7866 61.268 3.75378 61.0886C5.07074 60.8419 6.36751 61.6103 7.36428 62.5156C10.7884 65.6219 12.1541 70.3577 14.1766 74.54C14.7427 75.7109 15.3977 76.8872 16.442 77.661C16.5396 77.7364 16.6519 77.7897 16.7715 77.8173C17.4765 77.9706 17.7845 77.0929 17.8169 76.4231C17.9425 73.7746 17.2995 71.0041 18.2505 68.5337C18.6139 67.5928 19.2663 66.6916 20.2159 66.3864C21.3762 66.0138 22.681 66.6685 23.3779 67.6805C24.0749 68.6925 24.2626 69.978 24.2566 71.2127C24.2458 73.5012 23.6354 75.7539 22.7385 77.8534C22.2657 78.9612 21.6984 80.1103 21.8334 81.3086C21.8869 81.7134 22.0416 82.0976 22.2827 82.4248C22.5238 82.7519 22.8434 83.0112 23.2111 83.1779C23.3817 83.2515 23.5651 83.2897 23.7504 83.2902C23.9358 83.2906 24.1193 83.2534 24.2902 83.1806C24.659 83.0204 24.94 82.7117 25.2102 82.411C25.3235 82.285 25.437 82.1576 25.5518 82.0316C26.003 81.5305 26.4542 81.0287 26.9053 80.5265C28.0521 79.2502 29.4853 77.8603 31.1755 78.0794C32.0388 78.1916 32.7531 78.7358 33.2421 79.4679C33.6827 80.1338 33.9311 80.9112 33.9594 81.7125C34.0107 83.3819 32.6168 88.5324 31.832 90.0005C30.9159 91.7144 28.0836 98.7424 17.1475 98.887Z" fill="#6597E0"/>
<path d="M166.853 98.8872C170.05 98.9292 173.249 98.6629 176.884 96.1691C177.629 95.6583 178.405 94.9448 178.378 94.0314C178.357 93.3437 177.855 92.7428 177.248 92.4319C177.022 92.3186 176.783 92.2326 176.536 92.1757C176.535 92.1757 176.534 92.1757 176.534 92.1743C176.153 92.0917 175.766 92.0447 175.378 92.0336L175.267 92.0296C173.416 91.9608 171.565 92.1694 169.775 92.6485C169.613 92.6914 169.441 92.6773 169.288 92.6086C169.134 92.5399 169.009 92.4206 168.931 92.2702C168.853 92.1198 168.828 91.9471 168.859 91.7802C168.89 91.6133 168.977 91.4621 169.103 91.3513C169.335 91.1507 169.585 90.9745 169.852 90.8255C170.243 90.6118 170.652 90.4357 171.075 90.2996C171.64 90.112 172.224 89.9713 172.799 89.8188C174.937 89.2571 177.028 88.5225 179.05 87.6222C180.494 86.9786 181.948 86.2156 182.936 84.9682C183.39 84.3944 183.743 83.6767 183.654 82.9468C183.505 81.7472 182.234 81.0077 181.049 80.857C178.973 80.5941 176.947 81.5336 175.099 82.5264C173.566 83.3522 171.853 84.2612 170.179 83.7931C169.89 83.7274 169.625 83.5769 169.419 83.3604C169.041 82.9166 169.134 82.2074 169.472 81.7307C169.81 81.254 170.333 80.957 170.839 80.6721C173.774 79.0191 176.705 77.2594 179.047 74.8217C181.389 72.3839 183.111 69.163 183.114 65.7586C183.114 64.763 182.962 63.7441 182.496 62.8671C182.03 61.9902 181.214 61.269 180.247 61.0896C178.93 60.843 177.633 61.6113 176.636 62.5166C173.212 65.6225 171.846 70.3582 169.824 74.5405C169.258 75.7114 168.603 76.8877 167.559 77.6615C167.461 77.7369 167.349 77.7902 167.229 77.8178C166.524 77.9712 166.216 77.0934 166.184 76.4237C166.058 73.7751 166.701 71.0046 165.75 68.5342C165.387 67.5933 164.735 66.6921 163.785 66.3869C162.625 66.0143 161.32 66.669 160.623 67.681C159.926 68.693 159.738 69.9785 159.744 71.2133C159.755 73.5018 160.366 75.7544 161.263 77.8539C161.735 78.9618 162.303 80.1108 162.167 81.3091C162.114 81.7139 161.959 82.0981 161.718 82.4253C161.477 82.7525 161.158 83.0117 160.79 83.1784C160.619 83.2521 160.436 83.2903 160.251 83.2907C160.065 83.2912 159.882 83.2539 159.711 83.1811C159.342 83.0209 159.061 82.7122 158.791 82.4115C158.677 82.2855 158.564 82.1581 158.449 82.0322C157.998 81.531 157.547 81.0293 157.096 80.5271C155.949 79.2507 154.516 77.8608 152.825 78.0799C151.962 78.1922 151.248 78.7364 150.759 79.4685C150.318 80.1343 150.07 80.9117 150.042 81.713C149.99 83.3824 151.384 88.5329 152.169 90.001C153.084 91.7146 155.916 98.7426 166.853 98.8872Z" fill="#6597E0"/>
<path d="M163.904 93.3945H20.096C18.297 93.3945 16.8386 94.8731 16.8386 96.6971V96.6972C16.8386 98.5211 18.297 99.9997 20.096 99.9997H163.904C165.703 99.9997 167.161 98.5211 167.161 96.6972V96.6971C167.161 94.8731 165.703 93.3945 163.904 93.3945Z" fill="#E7E9EE"/>
<path d="M152.259 -7.62939e-05H31.2586C28.6089 -7.62939e-05 26.4609 2.17771 26.4609 4.86414V89.6038C26.4609 92.2903 28.6089 94.468 31.2586 94.468H152.259C154.909 94.468 157.057 92.2903 157.057 89.6038V4.86414C157.057 2.17771 154.909 -7.62939e-05 152.259 -7.62939e-05Z" fill="#E7E9EE"/>
<path d="M151.961 3.31713H31.5566C30.3851 3.31713 29.4354 4.27999 29.4354 5.46775V88.8949C29.4354 90.0826 30.3851 91.0455 31.5566 91.0455H151.961C153.132 91.0455 154.082 90.0826 154.082 88.8949V5.46775C154.082 4.27999 153.132 3.31713 151.961 3.31713Z" fill="white"/>
<path d="M149.795 7.86224H33.4338V19.0544H149.795V7.86224Z" fill="#F1F4F9"/>
<path d="M149.795 22.7784H100.13V53.2356H149.795V22.7784Z" fill="#F1F4F9"/>
<path d="M96.5107 22.7784H33.4338V63.3268H96.5107V22.7784Z" fill="#F1F4F9"/>
<path d="M96.5107 67.1796H33.4338V74.7021H96.5107V67.1796Z" fill="#F1F4F9"/>
<path d="M96.5107 78.0761H33.4338V80.6448H96.5107V78.0761Z" fill="#F1F4F9"/>
<path d="M96.5107 83.7635H33.4338V86.3322H96.5107V83.7635Z" fill="#F1F4F9"/>
<path d="M149.795 56.9593H100.13V69.7483H149.795V56.9593Z" fill="#F1F4F9"/>
<path d="M149.795 73.6015H100.13V86.3328H149.795V73.6015Z" fill="#F1F4F9"/>
<path d="M130.389 44.0547L117.321 36.6862L121.395 51.2732L130.389 44.0547Z" fill="#6597E0"/>
<path d="M125.713 45.0863L123.459 46.8954L128.999 53.9908L131.253 52.1817L125.713 45.0863Z" fill="#6597E0"/>
<path d="M145.673 49.5382H132.281V55.0635H145.673V49.5382Z" fill="#6597E0"/>
<path d="M56.8958 67.8305L69.9639 60.4618L65.8897 75.0488L56.8958 67.8305Z" fill="#5BB553"/>
<path d="M56.032 75.957L58.2861 77.7661L63.8259 70.6708L61.5718 68.8617L56.032 75.957Z" fill="#5BB553"/>
<path d="M41.6123 78.8389H55.0039V73.3136H41.6123V78.8389Z" fill="#5BB553"/>
<path d="M67.2108 20.9569L80.279 13.5882L76.2048 28.1752L67.2108 20.9569Z" fill="#C3D0E3"/>
<path d="M66.3472 29.084L68.6013 30.893L74.1411 23.7977L71.887 21.9886L66.3472 29.084Z" fill="#C3D0E3"/>
<path d="M51.9274 31.9663H65.319V26.4409H51.9274V31.9663Z" fill="#C3D0E3"/>
</g>
<defs>
<clipPath id="clip0_175_889">
<rect width="183.333" height="100" fill="white" transform="translate(0.333374)"/>
</clipPath>
</defs>
</svg>
