<svg width="142" height="100" viewBox="0 0 142 100" fill="none" xmlns="http://www.w3.org/2000/svg">
<g clip-path="url(#clip0_175_924)">
<path d="M134.709 0.000713348H75.7281V42.871H134.709V0.000713348Z" fill="#E7E9EE"/>
<path d="M134.709 0.000713348H75.7281V3.53218H134.709V0.000713348Z" fill="#C3D0E3"/>
<path d="M132.733 2.65259C133.221 2.65259 133.616 2.25592 133.616 1.76661C133.616 1.27729 133.221 0.880623 132.733 0.880623C132.246 0.880623 131.851 1.27729 131.851 1.76661C131.851 2.25592 132.246 2.65259 132.733 2.65259Z" fill="white"/>
<path d="M124.395 7.2781H81.4338V37.4211H124.395V7.2781Z" fill="white"/>
<path d="M115.429 33.6413C115.021 33.6413 113.654 33.4254 113.557 33.773C113.498 33.9817 114.516 34.2284 114.516 34.2284" fill="#DE8014"/>
<path d="M115.643 35.2862C115.643 35.2862 112.886 36.4234 111.301 35.1259C111.261 35.0928 111.232 35.0483 111.217 34.9982C111.202 34.948 111.203 34.8946 111.219 34.8449C111.235 34.7952 111.266 34.7515 111.307 34.7195C111.348 34.6875 111.398 34.6686 111.45 34.6655C112.518 34.6019 114.712 34.386 114.455 33.6794H116.178" fill="#DE8014"/>
<path d="M110.602 23.4947L109.099 24.2392C109.099 24.2392 107.638 24.0629 107.868 22.2086C107.901 21.9459 108.056 21.6499 108.773 21.8926C108.635 21.5756 108.501 21.1748 108.61 21.0658C109.027 20.6492 110.326 22.7109 110.602 23.4947Z" fill="#DE8014"/>
<g opacity="0.15">
<path d="M110.602 23.4945L109.099 24.2391C109.099 24.2391 107.638 24.0627 107.868 22.2085C107.901 21.9457 108.056 21.6497 108.773 21.8925C108.635 21.5754 108.501 21.1746 108.61 21.0656C109.027 20.649 110.326 22.7108 110.602 23.4945Z" fill="#1B222C"/>
</g>
<path d="M113.385 32.1427C113.309 32.1427 113.234 32.1367 113.159 32.1249C112.943 32.09 112.738 32.0055 112.56 31.878C112.382 31.7504 112.235 31.5833 112.132 31.3896L108.341 24.2848L110.847 22.9373L113.758 28.3913L118.267 24.0866L120.227 26.1544L114.366 31.7499C114.101 32.0023 113.75 32.1429 113.385 32.1427Z" fill="#138A07"/>
<path d="M128.946 42.8704H117.688L118.342 38.3855L128.643 37.7476L128.946 42.8704Z" fill="#1B222C"/>
<path d="M125.369 23.6108C125.369 23.6108 124.28 23.1415 124.28 20.2703L122.091 20.0464C122.091 20.0464 122.542 22.5836 121.518 23.4851L125.369 23.6108Z" fill="#DE8014"/>
<g opacity="0.15">
<path d="M121.916 22.9143L123.595 21.3917L122.187 21.4927C122.186 21.9793 122.094 22.4615 121.916 22.9143Z" fill="#1B222C"/>
</g>
<path d="M117.521 38.8401C118.088 40.1488 129.236 40.6926 129.385 38.3903C129.479 36.9253 128.193 35.6472 128.193 32.791C128.193 29.9348 130.81 26.2895 128.678 24.149C128.059 23.5281 126.991 23.1271 125.688 23.1257C125.591 23.8883 120.979 23.8917 120.944 23.1435C120.768 23.1462 120.631 23.1489 120.546 23.153C116.053 23.3473 118.027 28.4788 118.07 32.2488C118.123 36.6602 116.936 37.4919 117.521 38.8401Z" fill="#138A07"/>
<path d="M125.413 19.0637C125.335 19.9413 124.931 20.7993 124.193 21.1415C123.391 21.5398 122.504 21.7352 121.61 21.7106C119.234 21.7106 119.261 16.2859 120.296 15.1473C121.331 14.0088 124.674 14.4008 125.217 16.1179C125.497 17.0059 125.488 18.2283 125.413 19.0637Z" fill="#DE8014"/>
<path d="M121.966 18.6754C122.075 18.6754 122.162 18.5873 122.162 18.4786C122.162 18.3699 122.075 18.2817 121.966 18.2817C121.858 18.2817 121.77 18.3699 121.77 18.4786C121.77 18.5873 121.858 18.6754 121.966 18.6754Z" fill="#1B222C"/>
<path d="M120.413 18.6754C120.522 18.6754 120.609 18.5873 120.609 18.4786C120.609 18.3699 120.522 18.2817 120.413 18.2817C120.305 18.2817 120.217 18.3699 120.217 18.4786C120.217 18.5873 120.305 18.6754 120.413 18.6754Z" fill="#1B222C"/>
<path d="M120.032 18.0885C120.009 18.0886 119.986 18.0795 119.969 18.063C119.951 18.0466 119.941 18.0241 119.94 18.0003C119.939 17.9765 119.947 17.9531 119.963 17.9352C119.978 17.9173 120 17.9061 120.024 17.904L120.542 17.8548C120.566 17.8525 120.59 17.8599 120.609 17.8755C120.628 17.8911 120.64 17.9136 120.642 17.938C120.645 17.9624 120.637 17.9868 120.622 18.0057C120.606 18.0247 120.584 18.0366 120.559 18.039L120.042 18.0882L120.032 18.0885Z" fill="#1B222C"/>
<path d="M122.352 18.0884C122.347 18.0884 122.342 18.0881 122.337 18.0874L121.816 18.006C121.792 18.0022 121.771 17.9889 121.756 17.9691C121.742 17.9493 121.736 17.9246 121.74 17.9003C121.743 17.8761 121.757 17.8544 121.776 17.8399C121.796 17.8254 121.821 17.8194 121.845 17.8232L122.366 17.9046C122.389 17.9081 122.409 17.9202 122.424 17.9385C122.438 17.9567 122.445 17.9798 122.444 18.003C122.442 18.0263 122.431 18.048 122.414 18.0638C122.397 18.0797 122.375 18.0884 122.352 18.0884Z" fill="#1B222C"/>
<path d="M122.002 20.0315C121.593 20.1069 121.175 20.1069 120.766 20.0315C120.766 20.0315 120.809 20.5084 121.384 20.5084C121.959 20.5084 122.002 20.0315 122.002 20.0315Z" fill="white"/>
<path d="M123.642 16.9524C123.759 20.9172 124.332 21.2808 124.332 21.2808C124.332 21.2808 126.2 19.9327 126.263 17.5402C126.322 15.2978 124.583 14.1202 123.46 13.9631C119.194 13.3677 119.044 17.2342 119.044 17.2342C121.185 17.6025 124.102 16.9939 124.102 16.9939" fill="#1B222C"/>
<path d="M123.023 18.875C123.021 18.9857 123.042 19.0956 123.083 19.1983C123.124 19.301 123.185 19.3944 123.262 19.4733C123.339 19.5521 123.432 19.6147 123.533 19.6574C123.635 19.7001 123.744 19.7221 123.855 19.7221C123.965 19.7221 124.074 19.7001 124.176 19.6574C124.277 19.6147 124.37 19.5521 124.447 19.4733C124.524 19.3944 124.585 19.301 124.626 19.1983C124.668 19.0956 124.688 18.9857 124.686 18.875C124.688 18.7649 124.668 18.6555 124.627 18.5534C124.586 18.4512 124.524 18.3585 124.447 18.2806C124.369 18.2027 124.277 18.1413 124.175 18.1C124.073 18.0587 123.964 18.0383 123.854 18.0402C123.262 18.0696 123.023 18.4141 123.023 18.875Z" fill="#DE8014"/>
<path d="M127.037 17.5402C128.085 17.5402 128.934 16.688 128.934 15.6368C128.934 14.5855 128.085 13.7333 127.037 13.7333C125.99 13.7333 125.141 14.5855 125.141 15.6368C125.141 16.688 125.99 17.5402 127.037 17.5402Z" fill="#1B222C"/>
<path d="M120.944 23.1435C120.979 23.8917 121.384 24.9903 122.633 25.0733C124.299 25.1834 125.591 23.8883 125.688 23.1257H125.684C124.044 23.1257 121.899 23.1286 120.944 23.1435Z" fill="#DE8014"/>
<path d="M123.595 36.4734C123.58 36.4734 123.565 36.4734 123.55 36.4734L115.041 36.212L115.131 33.2502L122.678 33.4818L126.659 25.1194L129.323 26.3971L124.927 35.631C124.807 35.8832 124.618 36.0962 124.382 36.2452C124.147 36.3943 123.874 36.4734 123.595 36.4734Z" fill="#138A07"/>
<g opacity="0.15">
<path d="M121.182 19.6387C121.177 19.6388 121.172 19.6383 121.167 19.6373L120.684 19.5304C120.675 19.5284 120.666 19.5243 120.659 19.5186C120.651 19.5128 120.644 19.5055 120.64 19.4971C120.635 19.4886 120.632 19.4793 120.632 19.4697C120.631 19.4601 120.632 19.4505 120.635 19.4414L120.888 18.7243C120.894 18.7073 120.907 18.6934 120.923 18.6856C120.939 18.6779 120.958 18.6769 120.975 18.6829C120.992 18.689 121.006 18.7015 121.013 18.7177C121.021 18.734 121.022 18.7527 121.016 18.7697L120.788 19.4152L121.197 19.5043C121.213 19.5077 121.228 19.5171 121.238 19.5308C121.247 19.5444 121.252 19.5613 121.25 19.578C121.248 19.5948 121.24 19.6103 121.228 19.6215C121.215 19.6327 121.199 19.6388 121.182 19.6386L121.182 19.6387Z" fill="#1B222C"/>
</g>
<path d="M103.81 15.5502L109.199 24.1731C109.224 24.2138 109.258 24.2491 109.297 24.2769C109.336 24.3048 109.38 24.3246 109.426 24.3354C109.473 24.3461 109.521 24.3475 109.569 24.3395C109.616 24.3315 109.661 24.3142 109.702 24.2887C109.742 24.2632 109.777 24.2299 109.805 24.1907C109.833 24.1515 109.853 24.1073 109.863 24.0604C109.874 24.0136 109.875 23.9651 109.867 23.9177C109.859 23.8703 109.842 23.825 109.817 23.7843L109.811 23.7745L104.15 15.3273C104.135 15.3049 104.116 15.2856 104.094 15.2705C104.072 15.2554 104.047 15.2448 104.021 15.2393C103.995 15.2338 103.968 15.2335 103.942 15.2385C103.916 15.2434 103.891 15.2535 103.869 15.2681C103.846 15.2827 103.827 15.3016 103.812 15.3237C103.797 15.3458 103.786 15.3707 103.781 15.3969C103.775 15.4231 103.775 15.4501 103.78 15.4764C103.785 15.5027 103.795 15.5278 103.81 15.5502Z" fill="#1B222C"/>
<path d="M107.696 21.6676C107.981 21.5547 108.641 21.5711 108.82 21.8921C109.125 22.4353 109.219 23.6838 108.901 23.8243C108.584 23.9649 108.028 23.9123 107.864 23.5393C107.7 23.1664 107.465 21.7594 107.696 21.6676Z" fill="#DE8014"/>
<path d="M141.833 99.8651H0.166626C1.71896 95.8919 4.58565 92.5215 8.62665 91.5215C14.5382 90.0609 20.794 94.0775 26.6932 92.5671C30.0442 91.7099 32.6824 89.2119 35.4545 87.1379C45.9131 79.3119 60.2445 76.9988 72.6213 81.1408C79.09 83.305 84.9845 87.0901 91.6107 88.6986C100.18 90.7801 109.141 89.0548 117.953 88.7698C126.534 88.4925 138.83 92.0028 141.833 99.8651Z" fill="#F4F5F6"/>
<path d="M124.005 58.6085L122.176 59.0425L124.469 68.7768L126.298 68.3428L124.005 58.6085Z" fill="#F4F5F6"/>
<path d="M126.017 57.8537L124.447 66.3979L125.462 66.5859L127.032 58.0417L126.017 57.8537Z" fill="#C3D0E3"/>
<path d="M126.017 57.8507L125.839 58.7931L126.853 58.9869L127.032 58.0444L126.017 57.8507Z" fill="#E7E9EE"/>
<path d="M122.873 60.0235L122.309 60.2465L125.6 68.6296L126.164 68.4066L122.873 60.0235Z" fill="#8CCA86"/>
<path d="M127.113 63.6926H122.153V70.0552H127.113V63.6926Z" fill="#C3D0E3"/>
<path d="M108.912 81.5478H107.057V99.8652H108.912V81.5478Z" fill="#C3D0E3"/>
<path d="M107.385 81.5478H105.53V99.8652H107.385V81.5478Z" fill="#E7E9EE"/>
<path d="M132.02 81.5478H130.165V99.8652H132.02V81.5478Z" fill="#C3D0E3"/>
<path d="M130.493 81.5478H128.638V99.8652H130.493V81.5478Z" fill="#E7E9EE"/>
<path d="M114 81.5478H112.145V99.8652H114V81.5478Z" fill="#C3D0E3"/>
<path d="M112.474 81.5478H110.619V99.8652H112.474V81.5478Z" fill="#E7E9EE"/>
<path d="M137.108 81.5478H135.253V99.8652H137.108V81.5478Z" fill="#C3D0E3"/>
<path d="M135.582 81.5478H133.726V99.8652H135.582V81.5478Z" fill="#E7E9EE"/>
<path d="M137.108 69.8229H112.157V81.9871H137.108V69.8229Z" fill="#C3D0E3"/>
<path d="M130.482 69.8229H105.53V81.9871H130.482V69.8229Z" fill="#E7E9EE"/>
<g opacity="0.53">
<path d="M129.139 71.5525H106.873V80.2044H129.139V71.5525Z" fill="#F4F5F6"/>
</g>
<path d="M118.006 76.8705C118.552 76.8705 118.995 76.4261 118.995 75.878C118.995 75.3299 118.552 74.8855 118.006 74.8855C117.46 74.8855 117.017 75.3299 117.017 75.878C117.017 76.4261 117.46 76.8705 118.006 76.8705Z" fill="white"/>
<path d="M48.2118 14.6736C51.7685 14.6736 54.6517 11.7798 54.6517 8.2101C54.6517 4.64038 51.7685 1.74655 48.2118 1.74655C44.6552 1.74655 41.772 4.64038 41.772 8.2101C41.772 11.7798 44.6552 14.6736 48.2118 14.6736Z" fill="#C3D0E3"/>
<path d="M49.5242 14.6736C53.0809 14.6736 55.9641 11.7798 55.9641 8.2101C55.9641 4.64038 53.0809 1.74655 49.5242 1.74655C45.9676 1.74655 43.0844 4.64038 43.0844 8.2101C43.0844 11.7798 45.9676 14.6736 49.5242 14.6736Z" fill="#E7E9EE"/>
<path d="M49.5242 13.7215C52.5569 13.7215 55.0153 11.254 55.0153 8.21016C55.0153 5.16635 52.5569 2.69886 49.5242 2.69886C46.4915 2.69886 44.0331 5.16635 44.0331 8.21016C44.0331 11.254 46.4915 13.7215 49.5242 13.7215Z" fill="#F4F5F6"/>
<path d="M49.5245 8.71864C49.4794 8.71866 49.4351 8.70707 49.3958 8.68498L46.7462 7.19017C46.6855 7.15592 46.6408 7.09887 46.622 7.03158C46.6033 6.96429 46.6119 6.89226 46.646 6.83134C46.6801 6.77042 46.737 6.72561 46.804 6.70675C46.8711 6.68789 46.9428 6.69654 47.0035 6.73079L49.2618 8.0049V4.38242C49.2636 4.31371 49.2921 4.24842 49.3411 4.20045C49.3901 4.15249 49.4559 4.12565 49.5244 4.12565C49.5929 4.12565 49.6586 4.15249 49.7077 4.20045C49.7567 4.24842 49.7852 4.31371 49.787 4.38242V8.4552C49.787 8.4898 49.7802 8.52407 49.767 8.55604C49.7538 8.58802 49.7345 8.61707 49.7101 8.64153C49.6858 8.666 49.6568 8.68541 49.625 8.69864C49.5931 8.71187 49.559 8.71867 49.5245 8.71864Z" fill="#E7E9EE"/>
<path d="M53.0909 55.9444C53.0455 55.9433 42.0077 55.9665 41.9859 55.9665C40.4376 55.9665 39.8394 56.8669 39.8394 56.8669V57.3523H54.9306V56.8669C54.2489 56.4029 53.6285 55.9309 53.0909 55.9444Z" fill="#E7E9EE"/>
<path d="M50.9882 56.9863C50.9882 56.9863 51.7843 55.839 53.0909 55.9443C53.4453 55.9575 53.7928 56.0467 54.1101 56.2058C54.4274 56.3649 54.7071 56.5903 54.9305 56.8668V57.3521H46.7156V56.8668C46.7156 56.8668 47.3138 55.9664 48.863 55.9664C50.4121 55.9664 50.9882 56.9863 50.9882 56.9863Z" fill="#C3D0E3"/>
<path d="M46.7156 56.8667H39.8394V57.3519H46.7156V56.8667Z" fill="#C3D0E3"/>
<path d="M22.1329 72.1653L14.9095 99.7276L15.9393 99.9995L23.1627 72.4372L22.1329 72.1653Z" fill="#C3D0E3"/>
<path d="M34.9332 72.2185L33.8812 72.384L38.187 99.9467L39.239 99.7811L34.9332 72.2185Z" fill="#C3D0E3"/>
<path d="M21.1661 45.8624C21.1661 45.8624 12.3698 45.3047 12.3698 53.0185C12.3698 60.7323 13.6653 71.5121 20.1476 72.7203C26.6299 73.9285 36.2053 73.5646 38.4294 73.1859C41.1608 72.7212 42.3515 66.3619 38.7133 65.9363C28.3883 64.7281 33.3892 46.6991 21.1661 45.8624Z" fill="#C3D0E3"/>
<path d="M37.9817 94.5302L37.647 98.8868L41.3628 99.1743L41.6975 94.8177L37.9817 94.5302Z" fill="#DE8014"/>
<path d="M46.0845 99.8316C46.1802 99.8312 46.2749 99.8119 46.3631 99.7747C46.4514 99.7376 46.5315 99.6833 46.5989 99.6151C46.6662 99.5469 46.7195 99.466 46.7558 99.3771C46.792 99.2882 46.8104 99.193 46.81 99.0969C46.81 99.0791 46.81 99.0613 46.8078 99.0435C46.797 98.9045 46.7468 98.7715 46.6633 98.6601C46.5797 98.5488 46.4662 98.4637 46.3361 98.4149L41.9982 96.9566C41.9142 96.9287 41.8251 96.9193 41.7371 96.9291C41.6492 96.939 41.5644 96.9678 41.4885 97.0136C40.8921 97.4288 40.1788 97.641 39.4533 97.6192C38.8882 97.5788 38.3458 97.3798 37.888 97.0449C37.8477 97.0118 37.7989 96.9908 37.7472 96.9845C37.6956 96.9781 37.6432 96.9866 37.5961 97.009C37.5491 97.0315 37.5094 97.0668 37.4816 97.111C37.4539 97.1552 37.4392 97.2064 37.4393 97.2587V99.3876C37.4393 99.5141 37.4894 99.6354 37.5785 99.7249C37.6677 99.8143 37.7885 99.8646 37.9146 99.8646H37.9165L46.0845 99.8316Z" fill="#C3D0E3"/>
<path d="M56.4604 94.3635L52.7852 94.984L53.5153 99.3408L57.1906 98.7203L56.4604 94.3635Z" fill="#DE8014"/>
<path d="M58.3592 95.3172L50.1778 63.721C49.9949 63.015 49.5838 62.3899 49.0089 61.9436C48.434 61.4973 47.7279 61.2551 47.0011 61.2549H29.0673V61.2665H19.0209V64.3558C19.0209 65.2467 19.1957 66.1289 19.5353 66.952C19.875 67.7751 20.3729 68.523 21.0005 69.153C21.6282 69.7829 22.3733 70.2826 23.1934 70.6236C24.0134 70.9645 24.8924 71.14 25.78 71.14H30.68V71.1596H39.2341L36.8787 96.2959L43.4163 96.913L45.6938 72.607L52.0047 96.9751L58.3592 95.3172Z" fill="#1B222C"/>
<path d="M44.6965 46.1654C44.6965 46.1654 44.7232 44.026 46.2467 44.1373C47.2079 44.2075 51.7751 43.9948 51.8431 44.4123C52.0113 45.4454 47.8337 45.698 47.4546 46.6606L44.6965 46.1654Z" fill="#DE8014"/>
<path d="M45.7073 44.2057C45.7073 44.2057 47.8279 43.511 48.3491 43.6357C48.8105 43.746 47.8486 44.4998 47.8486 44.4998L45.7073 44.2057Z" fill="#DE8014"/>
<path d="M40.3163 55.5529L47.8824 46.7119L44.6216 44.8716L38.5631 51.7129L33.8246 43.2002C33.3763 41.8549 32.3551 40.9534 30.2716 40.8633C30.1598 40.8597 29.9806 40.8544 29.7499 40.8508C29.7037 41.8305 23.6573 41.8269 23.5295 40.8276C21.8223 40.8294 20.4202 41.3567 19.611 42.1689C16.8158 44.9743 20.2463 49.7552 20.2463 53.4957C20.2463 57.2363 18.5603 58.9142 18.6846 60.8344C18.8798 63.8518 33.4909 63.1393 34.2346 61.424C34.7332 60.2747 34.25 59.4112 33.8697 57.3562H40.3161L40.3163 55.5529ZM33.5142 52.7832C33.5215 52.1539 33.5699 51.4954 33.6365 50.8253L35.1095 53.4722H33.5147C33.5124 53.2496 33.5115 53.0219 33.5147 52.7834L33.5142 52.7832Z" fill="#138A07"/>
<path d="M29.751 40.8508C29.7048 41.8305 29.1724 43.2715 27.5362 43.3784C25.3515 43.5242 23.6584 41.8269 23.5306 40.8276H23.5377C25.6842 40.8276 28.4954 40.8312 29.751 40.8508Z" fill="#DE8014"/>
<path d="M61.401 99.8316C61.4967 99.8312 61.5914 99.8118 61.6797 99.7746C61.768 99.7375 61.8481 99.6832 61.9155 99.6149C61.9828 99.5467 62.0361 99.4657 62.0723 99.3768C62.1086 99.2879 62.127 99.1926 62.1265 99.0965C62.1265 99.0787 62.1265 99.0609 62.1244 99.0431C62.1135 98.9041 62.0633 98.7711 61.9797 98.6598C61.8961 98.5484 61.7826 98.4633 61.6525 98.4145L57.3147 96.9562C57.2307 96.9283 57.1416 96.9189 57.0536 96.9288C56.9656 96.9386 56.8807 96.9674 56.8049 97.0132C56.2085 97.4284 55.4952 97.6407 54.7698 97.6188C54.2047 97.5784 53.6622 97.3794 53.2043 97.0446C53.1641 97.0116 53.1153 96.9907 53.0637 96.9844C53.012 96.9781 52.9597 96.9867 52.9127 97.0091C52.8658 97.0314 52.8261 97.0668 52.7983 97.1109C52.7706 97.155 52.7558 97.2061 52.7559 97.2583V99.3872C52.7558 99.5137 52.8057 99.635 52.8947 99.7245C52.9837 99.814 53.1044 99.8644 53.2304 99.8646H53.2324L61.401 99.8316Z" fill="#C3D0E3"/>
<path d="M10.5201 59.0825H8.85352V99.865H10.5201V59.0825Z" fill="#E7E9EE"/>
<path d="M90.9097 59.0825H89.243V99.865H90.9097V59.0825Z" fill="#C3D0E3"/>
<path d="M90.9095 58.5713H75.8787V97.0763H90.9095V58.5713Z" fill="#C3D0E3"/>
<path d="M74.5446 94.2878H72.8779V99.865H74.5446V94.2878Z" fill="#C3D0E3"/>
<path d="M93.2138 57.3981H6.54919V59.6982H93.2138V57.3981Z" fill="#E7E9EE"/>
<path d="M76.712 59.0825H75.0454V99.865H76.712V59.0825Z" fill="#E7E9EE"/>
<path d="M60.3469 59.0825H58.6803V99.865H60.3469V59.0825Z" fill="#E7E9EE"/>
<path d="M75.8787 59.7011H59.5135V97.0761H75.8787V59.7011Z" fill="#E7E9EE"/>
<path d="M59.3985 47.1038L57.2436 56.1831C57.2102 56.3243 57.209 56.4713 57.2402 56.6131C57.2715 56.7549 57.3342 56.8877 57.4239 57.0017C57.5136 57.1156 57.6278 57.2077 57.7579 57.271C57.8881 57.3344 58.0309 57.3673 58.1755 57.3674H70.8796C71.0895 57.3674 71.2935 57.2982 71.4605 57.1704C71.6274 57.0427 71.7479 56.8635 71.8035 56.6604L74.2865 47.5813C74.3255 47.4386 74.3311 47.2888 74.303 47.1435C74.2749 46.9982 74.2138 46.8614 74.1244 46.7438C74.035 46.6261 73.9197 46.5307 73.7876 46.465C73.6555 46.3993 73.51 46.3651 73.3626 46.3651H60.3306C60.1151 46.3651 59.9059 46.438 59.7368 46.5721C59.5677 46.7061 59.4485 46.8934 59.3985 47.1038Z" fill="#97B6E5"/>
<path d="M52.721 57.3675H68.0756C68.2249 57.3675 68.3681 57.308 68.4737 57.202C68.5792 57.0961 68.6385 56.9524 68.6385 56.8025C68.6385 56.6527 68.5792 56.509 68.4737 56.403C68.3681 56.297 68.2249 56.2375 68.0756 56.2375H52.721C52.6471 56.2375 52.5739 56.2521 52.5056 56.2805C52.4373 56.3089 52.3752 56.3505 52.323 56.403C52.2707 56.4555 52.2292 56.5178 52.2009 56.5863C52.1726 56.6549 52.1581 56.7283 52.1581 56.8025C52.1581 56.8767 52.1726 56.9502 52.2009 57.0187C52.2292 57.0873 52.2707 57.1496 52.323 57.202C52.3752 57.2545 52.4373 57.2961 52.5056 57.3245C52.5739 57.3529 52.6471 57.3675 52.721 57.3675Z" fill="#97B6E5"/>
<path d="M66.2853 53.2844C67.1151 53.2844 67.7878 52.6093 67.7878 51.7764C67.7878 50.9436 67.1151 50.2684 66.2853 50.2684C65.4555 50.2684 64.7828 50.9436 64.7828 51.7764C64.7828 52.6093 65.4555 53.2844 66.2853 53.2844Z" fill="white"/>
<path d="M42.937 56.4228C42.591 56.6953 41.0931 56.7808 40.3158 56.8075V53.9166C40.7116 53.7028 41.2049 53.4268 41.5723 53.1916C42.0816 52.8639 42.3123 52.7695 42.4401 52.8051H42.4419C42.4721 52.8139 42.4992 52.8312 42.52 52.855C42.5372 52.8742 42.5505 52.8965 42.559 52.9209C42.6424 53.1471 42.2609 53.4873 42.0497 53.6548L42.0479 53.6565C41.9716 53.7171 41.9166 53.7563 41.9166 53.7563L42.3674 53.9647L42.3691 53.9665L42.7631 54.1499L42.7684 54.1517L42.9814 54.2497C42.9814 54.2497 43.0187 54.4064 43.0595 54.6362V54.638C43.155 55.1884 43.2703 56.1609 42.937 56.4228Z" fill="#DE8014"/>
<path d="M45.4936 56.4268L44.5778 56.1133L41.8801 53.4919L41.514 53.1347L40.8596 52.4995L41.4722 51.8658L42.1324 52.5075L42.4996 52.8633L45.1892 55.4783L45.4936 56.4268Z" fill="#8CCA86"/>
<path d="M42.4996 52.8633L41.88 53.4919L41.5139 53.1348L42.1324 52.5076L42.4996 52.8633Z" fill="white"/>
<path d="M42.1885 53.6991C42.4207 53.7033 42.6524 53.7226 42.8821 53.7568C43.1187 53.7877 43.352 53.8404 43.579 53.9143C43.7051 53.9546 43.8272 54.0067 43.9435 54.07C44.0088 54.1059 44.071 54.1471 44.1297 54.193L44.2602 54.3063C44.4319 54.4616 44.5887 54.6328 44.7283 54.8177C44.7665 54.8686 44.7854 54.9314 44.7819 54.995C44.7783 55.0586 44.7524 55.1188 44.7088 55.1651C44.6652 55.2114 44.6067 55.2407 44.5437 55.2478C44.4806 55.2549 44.4171 55.2394 44.3643 55.2041L44.3519 55.1957L43.8372 54.8494L43.7084 54.7645C43.6785 54.7474 43.6477 54.7322 43.6159 54.7189C43.5369 54.6867 43.4552 54.6618 43.3717 54.6442C43.1795 54.6039 42.9849 54.5759 42.7891 54.5603C42.5889 54.5447 42.3756 54.5327 42.1827 54.5293H42.1736C42.1193 54.5284 42.0657 54.5167 42.0159 54.4949C41.9661 54.4732 41.9211 54.4418 41.8834 54.4026C41.8456 54.3634 41.816 54.3171 41.7961 54.2664C41.7762 54.2157 41.7664 54.1615 41.7674 54.107C41.7684 54.0525 41.78 53.9987 41.8017 53.9487C41.8233 53.8988 41.8546 53.8535 41.8937 53.8157C41.9327 53.7778 41.9789 53.7481 42.0294 53.7281C42.0799 53.7081 42.1339 53.6983 42.1882 53.6993L42.1885 53.6991Z" fill="#DE8014"/>
<path d="M31.2903 30.9975C31.2903 30.9975 32.6355 35.8352 33.3912 38.3454C33.427 38.4644 33.4345 38.5901 33.4132 38.7125C33.392 38.8349 33.3424 38.9505 33.2685 39.0503C33.1947 39.15 33.0986 39.2309 32.988 39.2867C32.8773 39.3424 32.7552 39.3714 32.6314 39.3713H27.9107C27.7068 39.3712 27.5107 39.2924 27.3632 39.1511C27.2156 39.0099 27.1278 38.8171 27.1181 38.6126L26.7999 31.8783L31.2903 30.9975Z" fill="#1B222C"/>
<path d="M24.0555 41.7584C24.0555 41.7584 25.4286 41.0293 25.1255 37.2784L27.9613 36.7533C27.9613 36.7533 27.6397 40.1157 29.0732 41.1846L24.0555 41.7584Z" fill="#DE8014"/>
<g opacity="0.15">
<path d="M28.4928 40.4813L26.139 38.6705L27.989 38.6527C28.0419 39.2885 28.2128 39.9087 28.4928 40.4813Z" fill="#1B222C"/>
</g>
<path d="M23.518 35.8229C23.7132 36.961 24.331 38.0391 25.3308 38.4075C26.4205 38.8428 27.5998 39.0038 28.7658 38.8765C31.8699 38.6239 31.2623 31.5398 29.7898 30.1625C28.3173 28.7853 23.9918 29.6527 23.4637 31.9536C23.1905 33.1436 23.3322 34.7405 23.518 35.8229Z" fill="#DE8014"/>
<path d="M27.9592 34.9508C28.1012 34.9508 28.2163 34.8352 28.2163 34.6927C28.2163 34.5501 28.1012 34.4346 27.9592 34.4346C27.8172 34.4346 27.702 34.5501 27.702 34.6927C27.702 34.8352 27.8172 34.9508 27.9592 34.9508Z" fill="#1B222C"/>
<path d="M29.9881 34.7855C30.1301 34.7855 30.2453 34.67 30.2453 34.5274C30.2453 34.3849 30.1301 34.2693 29.9881 34.2693C29.8461 34.2693 29.731 34.3849 29.731 34.5274C29.731 34.67 29.8461 34.7855 29.9881 34.7855Z" fill="#1B222C"/>
<path d="M30.434 33.9779H30.4326L29.751 33.9684C29.7189 33.968 29.6883 33.9549 29.6659 33.9318C29.6436 33.9088 29.6312 33.8778 29.6316 33.8456C29.632 33.8134 29.6451 33.7827 29.6681 33.7603C29.691 33.7378 29.7219 33.7254 29.754 33.7258L30.4353 33.7351C30.4673 33.7353 30.498 33.7483 30.5205 33.7712C30.543 33.7941 30.5555 33.825 30.5553 33.8572C30.5551 33.8894 30.5422 33.9201 30.5194 33.9427C30.4966 33.9653 30.4657 33.9779 30.4337 33.9777L30.434 33.9779Z" fill="#1B222C"/>
<path d="M27.4046 34.2242C27.3751 34.2241 27.3466 34.2131 27.3245 34.1934C27.3024 34.1737 27.2883 34.1465 27.2849 34.117C27.2814 34.0876 27.2889 34.0579 27.3057 34.0335C27.3226 34.0092 27.3478 33.9919 27.3766 33.9849L28.0481 33.8234C28.0637 33.8193 28.0799 33.8183 28.0959 33.8206C28.1118 33.8228 28.1271 33.8282 28.141 33.8365C28.1548 33.8448 28.1668 33.8558 28.1764 33.8688C28.1859 33.8818 28.1927 33.8966 28.1965 33.9123C28.2003 33.9281 28.2009 33.9444 28.1982 33.9603C28.1956 33.9763 28.1899 33.9915 28.1813 34.0052C28.1728 34.0189 28.1616 34.0307 28.1484 34.04C28.1352 34.0493 28.1203 34.0558 28.1046 34.0592L27.433 34.2208C27.4237 34.223 27.4142 34.2242 27.4046 34.2242Z" fill="#1B222C"/>
<path d="M28.0763 36.7251C28.0763 36.7251 29.0254 36.8265 29.6913 36.5939C29.6913 36.5939 29.6854 37.2212 28.9342 37.2825C28.183 37.3438 28.0763 36.7251 28.0763 36.7251Z" fill="white"/>
<g opacity="0.15">
<path d="M29.0995 36.1251C29.0782 36.1251 29.0577 36.1174 29.0416 36.1035C29.0255 36.0895 29.015 36.0703 29.0118 36.0492C29.0087 36.0281 29.0132 36.0066 29.0245 35.9885C29.0359 35.9705 29.0533 35.9571 29.0736 35.9509L29.5966 35.7906L29.2313 34.9726C29.2261 34.9619 29.2231 34.9502 29.2225 34.9383C29.2219 34.9264 29.2237 34.9145 29.2277 34.9033C29.2318 34.8921 29.238 34.8818 29.2461 34.873C29.2542 34.8643 29.264 34.8573 29.2748 34.8524C29.2857 34.8475 29.2974 34.8449 29.3093 34.8446C29.3211 34.8444 29.333 34.8465 29.344 34.8509C29.355 34.8554 29.3651 34.862 29.3735 34.8704C29.382 34.8787 29.3887 34.8887 29.3932 34.8998L29.8406 35.9019L29.1256 36.1219C29.1171 36.1242 29.1083 36.1252 29.0995 36.1251Z" fill="#1B222C"/>
</g>
<path d="M31.4522 31.5773C31.4522 31.5773 30.9977 27.8878 25.1076 28.794C23.6392 29.0198 21.5582 30.1705 21.221 33.9417C21.0669 35.6716 20.4728 37.3027 20.0195 38.3351C19.9658 38.4563 19.9432 38.5891 19.9536 38.7213C19.9641 38.8535 20.0072 38.981 20.0792 39.0922C20.1512 39.2034 20.2497 39.2949 20.3658 39.3582C20.4819 39.4215 20.612 39.4547 20.7441 39.4548L24.8845 39.4562C25.0946 39.4566 25.2962 39.3731 25.4451 39.2243C25.5939 39.0754 25.6777 38.8734 25.6781 38.6625C25.6781 38.6507 25.6781 38.639 25.6781 38.6269C25.6483 37.9196 25.6249 36.722 25.665 34.8916C25.8803 33.847 25.3069 33.1104 26.1392 33.3505C29.2297 34.2406 31.22 31.637 31.4522 31.5773Z" fill="#1B222C"/>
<path d="M26.6597 35.8027C26.6713 35.9459 26.6546 36.09 26.6107 36.2268C26.5668 36.3636 26.4965 36.4903 26.4038 36.5998C26.311 36.7093 26.1977 36.7994 26.0703 36.8649C25.9429 36.9305 25.8039 36.9702 25.6612 36.9818C25.5185 36.9934 25.3749 36.9767 25.2386 36.9326C25.1024 36.8885 24.9761 36.8179 24.867 36.7249C24.6467 36.5369 24.5098 36.2688 24.4864 35.9796C24.4588 35.6956 24.5446 35.4123 24.725 35.1919C24.9054 34.9714 25.1656 34.8319 25.4485 34.804C25.4606 34.8029 25.4728 34.8018 25.4849 34.8011C26.262 34.776 26.6109 35.201 26.6597 35.8027Z" fill="#DE8014"/>
<path d="M104.644 29.8764H88.0462C87.9756 29.8764 87.9079 29.8483 87.858 29.7982C87.8081 29.7481 87.78 29.6801 87.78 29.6092V12.9508C87.78 12.898 87.7957 12.8463 87.8249 12.8024C87.8542 12.7585 87.8958 12.7242 87.9444 12.704C87.9931 12.6838 88.0466 12.6785 88.0982 12.6889C88.1499 12.6992 88.1973 12.7246 88.2345 12.762L104.832 29.4204C104.869 29.4578 104.894 29.5054 104.905 29.5572C104.915 29.609 104.91 29.6627 104.889 29.7115C104.869 29.7603 104.835 29.802 104.791 29.8313C104.748 29.8607 104.696 29.8764 104.644 29.8764ZM88.3124 29.3421H104.001L88.3124 13.596V29.3421Z" fill="#C3D0E3"/>
<path d="M91.4286 29.8764H88.0462C87.9756 29.8764 87.9079 29.8482 87.858 29.7981C87.8081 29.748 87.78 29.68 87.78 29.6092V26.2145C87.78 26.1436 87.8081 26.0757 87.858 26.0256C87.9079 25.9755 87.9756 25.9473 88.0462 25.9473H91.4286C91.4992 25.9473 91.567 25.9755 91.6169 26.0256C91.6668 26.0757 91.6949 26.1436 91.6949 26.2145V29.6092C91.6949 29.68 91.6668 29.748 91.6169 29.7981C91.567 29.8482 91.4992 29.8764 91.4286 29.8764ZM88.3124 29.342H91.1624V26.4817H88.3124V29.342Z" fill="#C3D0E3"/>
</g>
<defs>
<clipPath id="clip0_175_924">
<rect width="141.667" height="100" fill="white" transform="translate(0.166626)"/>
</clipPath>
</defs>
</svg>
