<svg width="16" height="16" viewBox="0 0 16 16" fill="none" xmlns="http://www.w3.org/2000/svg">
<circle cx="7.90039" cy="8" r="7" fill="#366CBF"/>
<path fill-rule="evenodd" clip-rule="evenodd" d="M13.8008 5.5166C14.1341 6.28324 14.3008 7.11114 14.3008 8L14.293 8.32715C14.2565 9.08412 14.0924 9.80296 13.8008 10.4834L13.6689 10.7705C13.3493 11.4303 12.9322 12.018 12.417 12.5332L12.1953 12.7441C11.6679 13.2229 11.0643 13.6088 10.3838 13.9004C9.61715 14.2337 8.78925 14.4004 7.90039 14.4004L7.57324 14.3926C6.81627 14.3561 6.09743 14.192 5.41699 13.9004C4.63921 13.5671 3.95608 13.111 3.36719 12.5332C2.78941 11.9443 2.33333 11.2612 2 10.4834C1.7084 9.80296 1.5443 9.08412 1.50781 8.32715L1.5 8C1.5 7.11115 1.66669 6.28324 2 5.5166C2.29164 4.83611 2.67749 4.23247 3.15625 3.70508L3.36719 3.4834C3.88242 2.96817 4.47005 2.55105 5.12988 2.23145L5.41699 2.09961C6.19475 1.7663 7.02265 1.59961 7.90039 1.59961L8.23047 1.60742C8.995 1.64384 9.71286 1.80791 10.3838 2.09961L10.6709 2.23145C11.3294 2.55104 11.9115 2.96821 12.417 3.4834C13.0059 4.06118 13.4674 4.73882 13.8008 5.5166ZM14.8564 10.5342C15.1535 9.72879 15.3008 8.88186 15.3008 8C15.3008 7.10999 15.1533 6.26057 14.8545 5.45898L14.7178 5.11816C14.3825 4.33724 13.9322 3.63797 13.3672 3.02637L13.1172 2.76953C12.4496 2.09262 11.6692 1.5633 10.7822 1.18262C9.88199 0.791261 8.91754 0.599609 7.90039 0.599609C7.01853 0.599609 6.1716 0.746894 5.36621 1.04395L5.02344 1.18066C4.24213 1.51551 3.53918 1.9653 2.91992 2.52832L2.66016 2.77637C1.99035 3.44618 1.46448 4.22955 1.08301 5.11816C0.691652 6.0184 0.5 6.98285 0.5 8C0.5 9.00792 0.692469 9.97013 1.08105 10.877L1.23047 11.2061C1.59508 11.9615 2.06987 12.6387 2.65332 13.2334L2.66699 13.2471C3.34667 13.9139 4.1347 14.4384 5.02344 14.8193L5.36621 14.9561C6.1716 15.2531 7.01853 15.4004 7.90039 15.4004C8.91754 15.4004 9.88199 15.2087 10.7822 14.8174L10.7812 14.8164C11.6701 14.4349 12.4541 13.9102 13.124 13.2402L13.3721 12.9805C13.9351 12.3612 14.3849 11.6583 14.7197 10.877L14.8564 10.5342Z" fill="#366CBF"/>
<path d="M10.7559 6.56348C10.733 6.67379 10.6755 6.77461 10.584 6.86621L7.4668 9.9834L7.37207 10.0635C7.27429 10.1321 7.16726 10.1669 7.05078 10.167L6.93652 10.1553C6.86301 10.14 6.79371 10.1093 6.72852 10.0635L6.63379 9.9834L5.2168 8.56641C5.09485 8.44435 5.03428 8.30568 5.03418 8.15039C5.03418 7.98381 5.09471 7.83898 5.2168 7.7168C5.33902 7.59457 5.47823 7.5332 5.63379 7.5332C5.78932 7.53322 5.92858 7.59459 6.05078 7.7168L7.05078 8.7002L9.75 6.0166C9.8722 5.8944 10.0115 5.83302 10.167 5.83301C10.3225 5.83301 10.4618 5.89438 10.584 6.0166C10.7061 6.1388 10.7666 6.28357 10.7666 6.4502L10.7559 6.56348Z" fill="white"/>
</svg>
