<svg width="16" height="16" viewBox="0 0 16 16" fill="none" xmlns="http://www.w3.org/2000/svg">
<mask id="path-1-outside-1_4820_1409" maskUnits="userSpaceOnUse" x="0" y="0" width="16" height="16" fill="black">
<rect fill="white" width="16" height="16"/>
<path d="M7.15 8.7L6.15 7.71667C6.02778 7.59444 5.88889 7.53333 5.73333 7.53333C5.57778 7.53333 5.43889 7.59444 5.31667 7.71667C5.19444 7.83889 5.13333 7.98333 5.13333 8.15C5.13333 8.30556 5.19444 8.44444 5.31667 8.56667L6.73333 9.98333C6.85556 10.1056 6.99444 10.1667 7.15 10.1667C7.30556 10.1667 7.44444 10.1056 7.56667 9.98333L10.6833 6.86667C10.8056 6.74444 10.8667 6.60555 10.8667 6.45C10.8667 6.28333 10.8056 6.13889 10.6833 6.01667C10.5611 5.89444 10.4222 5.83333 10.2667 5.83333C10.1111 5.83333 9.97222 5.89444 9.85 6.01667L7.15 8.7ZM8 14.4C7.12222 14.4 6.29444 14.2333 5.51667 13.9C4.73889 13.5667 4.05556 13.1111 3.46667 12.5333C2.88889 11.9444 2.43333 11.2611 2.1 10.4833C1.76667 9.70556 1.6 8.87778 1.6 8C1.6 7.11111 1.76667 6.28333 2.1 5.51667C2.43333 4.73889 2.88889 4.06111 3.46667 3.48333C4.05556 2.89444 4.73889 2.43333 5.51667 2.1C6.29444 1.76667 7.12222 1.6 8 1.6C8.88889 1.6 9.71667 1.76667 10.4833 2.1C11.2611 2.43333 11.9389 2.89444 12.5167 3.48333C13.1056 4.06111 13.5667 4.73889 13.9 5.51667C14.2333 6.28333 14.4 7.11111 14.4 8C14.4 8.87778 14.2333 9.70556 13.9 10.4833C13.5667 11.2611 13.1056 11.9444 12.5167 12.5333C11.9389 13.1111 11.2611 13.5667 10.4833 13.9C9.71667 14.2333 8.88889 14.4 8 14.4Z"/>
</mask>
<path d="M7.15 8.7L6.44886 9.41302L7.15373 10.1061L7.85491 9.40929L7.15 8.7ZM6.15 7.71667L5.44287 8.4238L5.44886 8.42969L6.15 7.71667ZM5.31667 8.56667L6.02377 7.85956H6.02377L5.31667 8.56667ZM6.73333 9.98333L6.02623 10.6904H6.02623L6.73333 9.98333ZM10.6833 6.86667L11.3904 7.57377L11.3904 7.57377L10.6833 6.86667ZM10.6833 6.01667L11.3904 5.30956L11.3904 5.30956L10.6833 6.01667ZM9.85 6.01667L10.5549 6.72596L10.5571 6.72377L9.85 6.01667ZM5.51667 13.9L5.12275 14.8191H5.12275L5.51667 13.9ZM3.46667 12.5333L2.75286 13.2337L2.75953 13.2405L2.76633 13.2471L3.46667 12.5333ZM2.1 10.4833L1.18086 10.8773H1.18086L2.1 10.4833ZM2.1 5.51667L3.01708 5.9154L3.01915 5.91059L2.1 5.51667ZM3.46667 3.48333L2.75956 2.77623H2.75956L3.46667 3.48333ZM5.51667 2.1L5.12275 1.18085L5.12275 1.18085L5.51667 2.1ZM10.4833 2.1L10.0846 3.01708L10.0894 3.01914L10.4833 2.1ZM12.5167 3.48333L11.8029 4.18367L11.8095 4.19047L11.8163 4.19714L12.5167 3.48333ZM13.9 5.51667L12.9808 5.91059L12.9829 5.91539L13.9 5.51667ZM13.9 10.4833L14.8191 10.8773L13.9 10.4833ZM12.5167 12.5333L13.2238 13.2404L12.5167 12.5333ZM10.4833 13.9L10.0894 12.9808L10.0846 12.9829L10.4833 13.9ZM7.15 8.7L7.85114 7.98698L6.85114 7.00364L6.15 7.71667L5.44886 8.42969L6.44886 9.41302L7.15 8.7ZM6.15 7.71667L6.85711 7.00956C6.57019 6.72264 6.18475 6.53333 5.73333 6.53333V7.53333V8.53333C5.67603 8.53333 5.61214 8.5212 5.55143 8.49448C5.49273 8.46865 5.45737 8.43825 5.44289 8.42377L6.15 7.71667ZM5.73333 7.53333V6.53333C5.28192 6.53333 4.89648 6.72264 4.60956 7.00956L5.31667 7.71667L6.02377 8.42377C6.0093 8.43825 5.97394 8.46865 5.91524 8.49448C5.85452 8.5212 5.79064 8.53333 5.73333 8.53333V7.53333ZM5.31667 7.71667L4.60956 7.00956C4.30757 7.31155 4.13333 7.70733 4.13333 8.15H5.13333H6.13333C6.13333 8.19202 6.12495 8.24765 6.10013 8.30631C6.07562 8.36425 6.04441 8.40314 6.02377 8.42377L5.31667 7.71667ZM5.13333 8.15H4.13333C4.13333 8.60141 4.32264 8.98685 4.60956 9.27377L5.31667 8.56667L6.02377 7.85956C6.03825 7.87404 6.06866 7.9094 6.09448 7.96809C6.1212 8.02881 6.13333 8.09269 6.13333 8.15H5.13333ZM5.31667 8.56667L4.60956 9.27377L6.02623 10.6904L6.73333 9.98333L7.44044 9.27623L6.02377 7.85956L5.31667 8.56667ZM6.73333 9.98333L6.02623 10.6904C6.31315 10.9774 6.69859 11.1667 7.15 11.1667V10.1667V9.16667C7.20731 9.16667 7.27119 9.1788 7.33191 9.20552C7.3906 9.23135 7.42596 9.26175 7.44044 9.27623L6.73333 9.98333ZM7.15 10.1667V11.1667C7.60141 11.1667 7.98685 10.9774 8.27377 10.6904L7.56667 9.98333L6.85956 9.27623C6.87404 9.26175 6.9094 9.23135 6.96809 9.20552C7.02881 9.1788 7.09269 9.16667 7.15 9.16667V10.1667ZM7.56667 9.98333L8.27377 10.6904L11.3904 7.57377L10.6833 6.86667L9.97623 6.15956L6.85956 9.27623L7.56667 9.98333ZM10.6833 6.86667L11.3904 7.57377C11.6774 7.28685 11.8667 6.90141 11.8667 6.45H10.8667H9.86667C9.86667 6.39269 9.8788 6.32881 9.90552 6.2681C9.93134 6.2094 9.96175 6.17404 9.97623 6.15956L10.6833 6.86667ZM10.8667 6.45H11.8667C11.8667 6.00733 11.6924 5.61155 11.3904 5.30956L10.6833 6.01667L9.97623 6.72377C9.95559 6.70313 9.92438 6.66425 9.89987 6.6063C9.87505 6.54764 9.86667 6.49202 9.86667 6.45H10.8667ZM10.6833 6.01667L11.3904 5.30956C11.1035 5.02264 10.7181 4.83333 10.2667 4.83333V5.83333V6.83333C10.2094 6.83333 10.1455 6.8212 10.0848 6.79448C10.0261 6.76865 9.9907 6.73825 9.97623 6.72377L10.6833 6.01667ZM10.2667 5.83333V4.83333C9.81525 4.83333 9.42981 5.02264 9.14289 5.30956L9.85 6.01667L10.5571 6.72377C10.5426 6.73825 10.5073 6.76865 10.4486 6.79448C10.3879 6.8212 10.324 6.83333 10.2667 6.83333V5.83333ZM9.85 6.01667L9.14509 5.30737L6.44509 7.99071L7.15 8.7L7.85491 9.40929L10.5549 6.72596L9.85 6.01667ZM8 14.4V13.4C7.25248 13.4 6.55923 13.2588 5.91059 12.9809L5.51667 13.9L5.12275 14.8191C6.02966 15.2078 6.99196 15.4 8 15.4V14.4ZM5.51667 13.9L5.91059 12.9809C5.24381 12.6951 4.66508 12.3082 4.16701 11.8195L3.46667 12.5333L2.76633 13.2471C3.44603 13.914 4.23397 14.4382 5.12275 14.8191L5.51667 13.9ZM3.46667 12.5333L4.18048 11.833C3.6918 11.3349 3.30491 10.7562 3.01915 10.0894L2.1 10.4833L1.18086 10.8773C1.56176 11.766 2.08598 12.554 2.75286 13.2337L3.46667 12.5333ZM2.1 10.4833L3.01915 10.0894C2.74116 9.44077 2.6 8.74752 2.6 8H1.6H0.6C0.6 9.00804 0.792177 9.97034 1.18086 10.8773L2.1 10.4833ZM1.6 8H2.6C2.6 7.23948 2.74185 6.5484 3.01707 5.91539L2.1 5.51667L1.18293 5.11794C0.791485 6.01826 0.6 6.98274 0.6 8H1.6ZM2.1 5.51667L3.01915 5.91059C3.30418 5.2455 3.68916 4.67505 4.17377 4.19044L3.46667 3.48333L2.75956 2.77623C2.08862 3.44717 1.56248 4.23228 1.18086 5.12275L2.1 5.51667ZM3.46667 3.48333L4.17377 4.19044C4.67124 3.69298 5.24782 3.30319 5.91059 3.01914L5.51667 2.1L5.12275 1.18085C4.22996 1.56348 3.43987 2.09591 2.75956 2.77623L3.46667 3.48333ZM5.51667 2.1L5.91059 3.01914C6.55923 2.74116 7.25248 2.6 8 2.6V1.6V0.599999C6.99196 0.599999 6.02966 0.792176 5.12275 1.18085L5.51667 2.1ZM8 1.6V2.6C8.76052 2.6 9.4516 2.74185 10.0846 3.01707L10.4833 2.1L10.8821 1.18293C9.98174 0.791485 9.01726 0.599999 8 0.599999V1.6ZM10.4833 2.1L10.0894 3.01914C10.7505 3.30245 11.3188 3.6903 11.8029 4.18367L12.5167 3.48333L13.2305 2.78299C12.559 2.09859 11.7718 1.56421 10.8773 1.18085L10.4833 2.1ZM12.5167 3.48333L11.8163 4.19714C12.3097 4.68121 12.6975 5.24954 12.9809 5.91059L13.9 5.51667L14.8191 5.12275C14.4358 4.22824 13.9014 3.44101 13.217 2.76952L12.5167 3.48333ZM13.9 5.51667L12.9829 5.91539C13.2582 6.5484 13.4 7.23948 13.4 8H14.4H15.4C15.4 6.98274 15.2085 6.01826 14.8171 5.11794L13.9 5.51667ZM14.4 8H13.4C13.4 8.74752 13.2588 9.44077 12.9809 10.0894L13.9 10.4833L14.8191 10.8773C15.2078 9.97034 15.4 9.00804 15.4 8H14.4ZM13.9 10.4833L12.9809 10.0894C12.6968 10.7522 12.307 11.3288 11.8096 11.8262L12.5167 12.5333L13.2238 13.2404C13.9041 12.5601 14.4365 11.77 14.8191 10.8773L13.9 10.4833ZM12.5167 12.5333L11.8096 11.8262C11.3249 12.3108 10.7545 12.6958 10.0894 12.9809L10.4833 13.9L10.8773 14.8191C11.7677 14.4375 12.5528 13.9114 13.2238 13.2404L12.5167 12.5333ZM10.4833 13.9L10.0846 12.9829C9.4516 13.2582 8.76052 13.4 8 13.4V14.4V15.4C9.01726 15.4 9.98174 15.2085 10.8821 14.8171L10.4833 13.9Z" fill="#3265B2" mask="url(#path-1-outside-1_4820_1409)"/>
</svg>
