<svg width="14" height="10" viewBox="0 0 14 10" fill="none" xmlns="http://www.w3.org/2000/svg">
  <path d="M13.0547 2.42187C13.0547 2.22656 12.9766 2.03125 12.8359 1.89063L11.7734 0.828125C11.6328 0.6875 11.4375 0.609375 11.2422 0.609375C11.0469 0.609375 10.8516 0.6875 10.7109 0.828125L5.58594 5.96094L3.28906 3.65625C3.14844 3.51563 2.95313 3.4375 2.75781 3.4375C2.5625 3.4375 2.36719 3.51563 2.22656 3.65625L1.16406 4.71875C1.02344 4.85937 0.945312 5.05469 0.945312 5.25C0.945312 5.44531 1.02344 5.64063 1.16406 5.78125L5.05469 9.67188C5.19531 9.8125 5.39063 9.89062 5.58594 9.89062C5.78125 9.89062 5.97656 9.8125 6.11719 9.67188L12.8359 2.95313C12.9766 2.8125 13.0547 2.61719 13.0547 2.42187Z" fill="#0F7A06"/>
</svg>
