<svg width="225" height="172" viewBox="0 0 225 172" fill="none" xmlns="http://www.w3.org/2000/svg">
<circle cx="76.9512" cy="95.6438" r="76" fill="#D7F9E8"/>
<path d="M35.1865 64.6299H118.426V106.25C118.426 129.236 99.7923 147.869 76.8063 147.869C53.8203 147.869 35.1865 129.236 35.1865 106.25V64.6299Z" fill="#21A063"/>
<path fill-rule="evenodd" clip-rule="evenodd" d="M66.5041 150.304C63.3352 146.998 58.0284 147.069 54.9493 150.459L53.6889 151.847L51.4183 153.927C48.9523 156.185 51.6689 159.349 55.0131 159.349H66.4654C69.8 159.349 72.5452 156.227 70.1398 153.918L67.9824 151.847L66.5041 150.304Z" fill="#FEC553"/>
<path fill-rule="evenodd" clip-rule="evenodd" d="M98.6408 150.304C95.4719 146.998 90.1651 147.069 87.086 150.459L85.8256 151.847L83.555 153.927C81.089 156.185 83.8056 159.349 87.1498 159.349H98.6021C101.937 159.349 104.682 156.227 102.276 153.918L100.119 151.847L98.6408 150.304Z" fill="#FEC553"/>
<rect x="26.2305" y="8.78564" width="101.152" height="101.152" rx="50.5759" fill="#27B772"/>
<path fill-rule="evenodd" clip-rule="evenodd" d="M71.3746 100.865C74.4941 104.115 79.6949 104.103 82.8002 100.84L83.9193 99.6641L85.671 97.9924C88.089 95.6847 85.3398 92.5519 81.9973 92.5519H72.1716C68.831 92.5519 66.0772 95.6774 68.4848 97.9933L70.2217 99.6641L71.3746 100.865Z" fill="#E69D23"/>
<path fill-rule="evenodd" clip-rule="evenodd" d="M82.9602 86.3842C79.7913 83.078 74.4845 83.1491 71.4054 86.539L69.2189 88.9462C68.8345 89.3695 68.4053 89.7497 67.9388 90.0803L65.7109 91.6593C61.9631 94.3155 65.9509 98.7088 70.5445 98.7088H83.8039C88.4035 98.7088 92.4557 94.3593 88.7633 91.6164L86.5592 89.979C86.2044 89.7154 85.8723 89.4226 85.5665 89.1035L82.9602 86.3842Z" fill="#FEC553"/>
<rect x="49.7178" y="54.0929" width="24.2343" height="31.6099" rx="12.1171" fill="white"/>
<rect x="57.093" y="63.5763" width="13.6976" height="15.805" rx="6.84882" fill="black"/>
<rect x="65.5227" y="61.4689" width="7.37565" height="7.37565" rx="3.68782" fill="white" fill-opacity="0.32"/>
<rect x="79.22" y="54.0929" width="24.2343" height="31.6099" rx="12.1171" fill="white"/>
<rect x="83.4348" y="63.5762" width="13.6976" height="15.805" rx="6.84882" fill="black"/>
<rect x="91.8647" y="61.4689" width="7.37565" height="7.37565" rx="3.68782" fill="white" fill-opacity="0.32"/>
<path d="M60.1061 96.8023C59.6953 95.2693 58.1196 94.3596 56.5866 94.7704L34.4271 100.708C25.9957 102.967 20.9921 111.634 23.2513 120.065L26.1451 130.865C26.8061 133.332 29.3418 134.796 31.8088 134.135L39.7864 131.997C55.1163 127.889 64.2137 112.132 60.1061 96.8023Z" fill="#25A96A"/>
<path d="M93.5062 96.8021C93.917 95.2691 95.4927 94.3594 97.0257 94.7701L119.185 100.708C127.617 102.967 132.62 111.633 130.361 120.065L127.467 130.864C126.806 133.331 124.27 134.795 121.804 134.134L113.826 131.997C98.496 127.889 89.3986 112.132 93.5062 96.8021Z" fill="#25A96A"/>
<path d="M70.1681 1.30649C70.3665 0.962876 70.8059 0.845147 71.1495 1.04353L76.1164 3.91118C78.0063 5.00228 78.6538 7.41882 77.5627 9.30867L76.1651 11.7293C75.8458 12.2823 75.1388 12.4717 74.5858 12.1525L72.7977 11.1201C69.3616 9.13629 68.1843 4.74257 70.1681 1.30649Z" fill="#25A96A"/>
<path d="M79.3996 0.644594C79.763 0.485319 80.1867 0.650789 80.346 1.01418L82.6484 6.26707C83.5244 8.26573 82.6143 10.5961 80.6156 11.4721L78.0556 12.5942C77.4708 12.8505 76.7889 12.5842 76.5326 11.9994L75.7038 10.1083C74.111 6.4744 75.7657 2.23734 79.3996 0.644594Z" fill="#21A063"/>
<g filter="url(#filter0_dd_2156_5404)">
<rect x="112.049" y="70" width="106" height="40" rx="4" fill="white"/>
<path d="M128.005 89H126.745L122.161 81.884H122.113C122.129 82.068 122.141 82.288 122.149 82.544C122.165 82.792 122.177 83.06 122.185 83.348C122.201 83.628 122.209 83.916 122.209 84.212V89H121.213V80.432H122.461L127.033 87.524H127.081C127.073 87.396 127.061 87.204 127.045 86.948C127.037 86.692 127.025 86.412 127.009 86.108C127.001 85.804 126.997 85.524 126.997 85.268V80.432H128.005V89ZM132.67 82.448C133.222 82.448 133.694 82.568 134.086 82.808C134.486 83.048 134.79 83.388 134.998 83.828C135.214 84.26 135.322 84.768 135.322 85.352V85.988H130.918C130.934 86.716 131.118 87.272 131.47 87.656C131.83 88.032 132.33 88.22 132.97 88.22C133.378 88.22 133.738 88.184 134.05 88.112C134.37 88.032 134.698 87.92 135.034 87.776V88.7C134.706 88.844 134.382 88.948 134.062 89.012C133.742 89.084 133.362 89.12 132.922 89.12C132.314 89.12 131.774 88.996 131.302 88.748C130.838 88.5 130.474 88.132 130.21 87.644C129.954 87.148 129.826 86.544 129.826 85.832C129.826 85.128 129.942 84.524 130.174 84.02C130.414 83.516 130.746 83.128 131.17 82.856C131.602 82.584 132.102 82.448 132.67 82.448ZM132.658 83.312C132.154 83.312 131.754 83.476 131.458 83.804C131.17 84.124 130.998 84.572 130.942 85.148H134.218C134.218 84.78 134.162 84.46 134.05 84.188C133.938 83.916 133.766 83.704 133.534 83.552C133.31 83.392 133.018 83.312 132.658 83.312ZM139.443 82.448C139.995 82.448 140.467 82.568 140.859 82.808C141.259 83.048 141.563 83.388 141.771 83.828C141.987 84.26 142.095 84.768 142.095 85.352V85.988H137.691C137.707 86.716 137.891 87.272 138.243 87.656C138.603 88.032 139.103 88.22 139.743 88.22C140.151 88.22 140.511 88.184 140.823 88.112C141.143 88.032 141.471 87.92 141.807 87.776V88.7C141.479 88.844 141.155 88.948 140.835 89.012C140.515 89.084 140.135 89.12 139.695 89.12C139.087 89.12 138.547 88.996 138.075 88.748C137.611 88.5 137.247 88.132 136.983 87.644C136.727 87.148 136.599 86.544 136.599 85.832C136.599 85.128 136.715 84.524 136.947 84.02C137.187 83.516 137.519 83.128 137.943 82.856C138.375 82.584 138.875 82.448 139.443 82.448ZM139.431 83.312C138.927 83.312 138.527 83.476 138.231 83.804C137.943 84.124 137.771 84.572 137.715 85.148H140.991C140.991 84.78 140.935 84.46 140.823 84.188C140.711 83.916 140.539 83.704 140.307 83.552C140.083 83.392 139.791 83.312 139.431 83.312ZM146.013 89.12C145.213 89.12 144.573 88.844 144.093 88.292C143.613 87.732 143.373 86.9 143.373 85.796C143.373 84.692 143.613 83.86 144.093 83.3C144.581 82.732 145.225 82.448 146.025 82.448C146.361 82.448 146.653 82.492 146.901 82.58C147.149 82.66 147.365 82.772 147.549 82.916C147.733 83.06 147.889 83.22 148.017 83.396H148.089C148.081 83.292 148.065 83.14 148.041 82.94C148.025 82.732 148.017 82.568 148.017 82.448V79.88H149.073V89H148.221L148.065 88.136H148.017C147.889 88.32 147.733 88.488 147.549 88.64C147.365 88.784 147.145 88.9 146.889 88.988C146.641 89.076 146.349 89.12 146.013 89.12ZM146.181 88.244C146.861 88.244 147.337 88.06 147.609 87.692C147.889 87.316 148.029 86.752 148.029 86V85.808C148.029 85.008 147.897 84.396 147.633 83.972C147.369 83.54 146.881 83.324 146.169 83.324C145.601 83.324 145.173 83.552 144.885 84.008C144.605 84.456 144.465 85.06 144.465 85.82C144.465 86.588 144.605 87.184 144.885 87.608C145.173 88.032 145.605 88.244 146.181 88.244ZM156.381 88.256C156.541 88.256 156.705 88.244 156.873 88.22C157.041 88.188 157.177 88.156 157.281 88.124V88.928C157.169 88.984 157.009 89.028 156.801 89.06C156.593 89.1 156.393 89.12 156.201 89.12C155.865 89.12 155.553 89.064 155.265 88.952C154.985 88.832 154.757 88.628 154.581 88.34C154.405 88.052 154.317 87.648 154.317 87.128V83.384H153.405V82.88L154.329 82.46L154.749 81.092H155.373V82.568H157.233V83.384H155.373V87.104C155.373 87.496 155.465 87.788 155.649 87.98C155.841 88.164 156.085 88.256 156.381 88.256ZM164.161 85.772C164.161 86.308 164.089 86.784 163.945 87.2C163.809 87.608 163.609 87.956 163.345 88.244C163.089 88.532 162.773 88.752 162.397 88.904C162.029 89.048 161.617 89.12 161.161 89.12C160.737 89.12 160.345 89.048 159.985 88.904C159.625 88.752 159.313 88.532 159.049 88.244C158.785 87.956 158.577 87.608 158.425 87.2C158.281 86.784 158.209 86.308 158.209 85.772C158.209 85.06 158.329 84.46 158.569 83.972C158.809 83.476 159.153 83.1 159.601 82.844C160.049 82.58 160.581 82.448 161.197 82.448C161.781 82.448 162.293 82.58 162.733 82.844C163.181 83.1 163.529 83.476 163.777 83.972C164.033 84.46 164.161 85.06 164.161 85.772ZM159.301 85.772C159.301 86.276 159.365 86.716 159.493 87.092C159.629 87.46 159.837 87.744 160.117 87.944C160.397 88.144 160.753 88.244 161.185 88.244C161.617 88.244 161.973 88.144 162.253 87.944C162.533 87.744 162.737 87.46 162.865 87.092C163.001 86.716 163.069 86.276 163.069 85.772C163.069 85.26 163.001 84.824 162.865 84.464C162.729 84.104 162.521 83.828 162.241 83.636C161.969 83.436 161.613 83.336 161.173 83.336C160.517 83.336 160.041 83.552 159.745 83.984C159.449 84.416 159.301 85.012 159.301 85.772ZM171.232 89.12C170.432 89.12 169.792 88.844 169.312 88.292C168.832 87.732 168.592 86.9 168.592 85.796C168.592 84.692 168.832 83.86 169.312 83.3C169.8 82.732 170.444 82.448 171.244 82.448C171.58 82.448 171.872 82.492 172.12 82.58C172.368 82.66 172.584 82.772 172.768 82.916C172.952 83.06 173.108 83.22 173.236 83.396H173.308C173.3 83.292 173.284 83.14 173.26 82.94C173.244 82.732 173.236 82.568 173.236 82.448V79.88H174.292V89H173.44L173.284 88.136H173.236C173.108 88.32 172.952 88.488 172.768 88.64C172.584 88.784 172.364 88.9 172.108 88.988C171.86 89.076 171.568 89.12 171.232 89.12ZM171.4 88.244C172.08 88.244 172.556 88.06 172.828 87.692C173.108 87.316 173.248 86.752 173.248 86V85.808C173.248 85.008 173.116 84.396 172.852 83.972C172.588 83.54 172.1 83.324 171.388 83.324C170.82 83.324 170.392 83.552 170.104 84.008C169.824 84.456 169.684 85.06 169.684 85.82C169.684 86.588 169.824 87.184 170.104 87.608C170.392 88.032 170.824 88.244 171.4 88.244ZM181.71 82.568V89H180.846L180.69 88.148H180.642C180.506 88.372 180.33 88.556 180.114 88.7C179.898 88.844 179.662 88.948 179.406 89.012C179.15 89.084 178.882 89.12 178.602 89.12C178.09 89.12 177.658 89.04 177.306 88.88C176.962 88.712 176.702 88.456 176.526 88.112C176.35 87.768 176.262 87.324 176.262 86.78V82.568H177.33V86.708C177.33 87.22 177.446 87.604 177.678 87.86C177.91 88.116 178.27 88.244 178.758 88.244C179.238 88.244 179.614 88.156 179.886 87.98C180.166 87.796 180.362 87.532 180.474 87.188C180.594 86.836 180.654 86.412 180.654 85.916V82.568H181.71ZM186.332 89.12C185.764 89.12 185.256 89.004 184.808 88.772C184.368 88.54 184.02 88.18 183.764 87.692C183.516 87.204 183.392 86.58 183.392 85.82C183.392 85.028 183.524 84.384 183.788 83.888C184.052 83.392 184.408 83.028 184.856 82.796C185.312 82.564 185.828 82.448 186.404 82.448C186.732 82.448 187.048 82.484 187.352 82.556C187.656 82.62 187.904 82.7 188.096 82.796L187.772 83.672C187.58 83.6 187.356 83.532 187.1 83.468C186.844 83.404 186.604 83.372 186.38 83.372C185.948 83.372 185.592 83.464 185.312 83.648C185.032 83.832 184.824 84.104 184.688 84.464C184.552 84.824 184.484 85.272 184.484 85.808C184.484 86.32 184.552 86.756 184.688 87.116C184.824 87.476 185.028 87.748 185.3 87.932C185.572 88.116 185.912 88.208 186.32 88.208C186.672 88.208 186.98 88.172 187.244 88.1C187.516 88.028 187.764 87.94 187.988 87.836V88.772C187.772 88.884 187.532 88.968 187.268 89.024C187.012 89.088 186.7 89.12 186.332 89.12ZM190.562 84.644C190.562 84.772 190.554 84.94 190.538 85.148C190.53 85.356 190.522 85.536 190.514 85.688H190.562C190.61 85.624 190.682 85.532 190.778 85.412C190.874 85.292 190.97 85.172 191.066 85.052C191.17 84.924 191.258 84.82 191.33 84.74L193.382 82.568H194.618L192.014 85.316L194.798 89H193.526L191.294 86L190.562 86.636V89H189.518V79.88H190.562V84.644ZM126.661 97.772C126.661 98.308 126.589 98.784 126.445 99.2C126.309 99.608 126.109 99.956 125.845 100.244C125.589 100.532 125.273 100.752 124.897 100.904C124.529 101.048 124.117 101.12 123.661 101.12C123.237 101.12 122.845 101.048 122.485 100.904C122.125 100.752 121.813 100.532 121.549 100.244C121.285 99.956 121.077 99.608 120.925 99.2C120.781 98.784 120.709 98.308 120.709 97.772C120.709 97.06 120.829 96.46 121.069 95.972C121.309 95.476 121.653 95.1 122.101 94.844C122.549 94.58 123.081 94.448 123.697 94.448C124.281 94.448 124.793 94.58 125.233 94.844C125.681 95.1 126.029 95.476 126.277 95.972C126.533 96.46 126.661 97.06 126.661 97.772ZM121.801 97.772C121.801 98.276 121.865 98.716 121.993 99.092C122.129 99.46 122.337 99.744 122.617 99.944C122.897 100.144 123.253 100.244 123.685 100.244C124.117 100.244 124.473 100.144 124.753 99.944C125.033 99.744 125.237 99.46 125.365 99.092C125.501 98.716 125.569 98.276 125.569 97.772C125.569 97.26 125.501 96.824 125.365 96.464C125.229 96.104 125.021 95.828 124.741 95.636C124.469 95.436 124.113 95.336 123.673 95.336C123.017 95.336 122.541 95.552 122.245 95.984C121.949 96.416 121.801 97.012 121.801 97.772ZM133.71 94.568V101H132.846L132.69 100.148H132.642C132.506 100.372 132.33 100.556 132.114 100.7C131.898 100.844 131.662 100.948 131.406 101.012C131.15 101.084 130.882 101.12 130.602 101.12C130.09 101.12 129.658 101.04 129.306 100.88C128.962 100.712 128.702 100.456 128.526 100.112C128.35 99.768 128.262 99.324 128.262 98.78V94.568H129.33V98.708C129.33 99.22 129.446 99.604 129.678 99.86C129.91 100.116 130.27 100.244 130.758 100.244C131.238 100.244 131.614 100.156 131.886 99.98C132.166 99.796 132.362 99.532 132.474 99.188C132.594 98.836 132.654 98.412 132.654 97.916V94.568H133.71ZM137.9 100.256C138.06 100.256 138.224 100.244 138.392 100.22C138.56 100.188 138.696 100.156 138.8 100.124V100.928C138.688 100.984 138.528 101.028 138.32 101.06C138.112 101.1 137.912 101.12 137.72 101.12C137.384 101.12 137.072 101.064 136.784 100.952C136.504 100.832 136.276 100.628 136.1 100.34C135.924 100.052 135.836 99.648 135.836 99.128V95.384H134.924V94.88L135.848 94.46L136.268 93.092H136.892V94.568H138.752V95.384H136.892V99.104C136.892 99.496 136.984 99.788 137.168 99.98C137.36 100.164 137.604 100.256 137.9 100.256ZM146.17 95.384H144.55V101H143.494V95.384H142.366V94.892L143.494 94.532V94.16C143.494 93.608 143.574 93.16 143.734 92.816C143.902 92.472 144.142 92.22 144.454 92.06C144.766 91.9 145.142 91.82 145.582 91.82C145.838 91.82 146.07 91.844 146.278 91.892C146.494 91.932 146.678 91.98 146.83 92.036L146.554 92.864C146.426 92.824 146.278 92.784 146.11 92.744C145.942 92.704 145.77 92.684 145.594 92.684C145.242 92.684 144.978 92.804 144.802 93.044C144.634 93.276 144.55 93.644 144.55 94.148V94.568H146.17V95.384ZM152.923 97.772C152.923 98.308 152.851 98.784 152.707 99.2C152.571 99.608 152.371 99.956 152.107 100.244C151.851 100.532 151.535 100.752 151.159 100.904C150.791 101.048 150.379 101.12 149.923 101.12C149.499 101.12 149.107 101.048 148.747 100.904C148.387 100.752 148.075 100.532 147.811 100.244C147.547 99.956 147.339 99.608 147.187 99.2C147.043 98.784 146.971 98.308 146.971 97.772C146.971 97.06 147.091 96.46 147.331 95.972C147.571 95.476 147.915 95.1 148.363 94.844C148.811 94.58 149.343 94.448 149.959 94.448C150.543 94.448 151.055 94.58 151.495 94.844C151.943 95.1 152.291 95.476 152.539 95.972C152.795 96.46 152.923 97.06 152.923 97.772ZM148.063 97.772C148.063 98.276 148.127 98.716 148.255 99.092C148.391 99.46 148.599 99.744 148.879 99.944C149.159 100.144 149.515 100.244 149.947 100.244C150.379 100.244 150.735 100.144 151.015 99.944C151.295 99.744 151.499 99.46 151.627 99.092C151.763 98.716 151.831 98.276 151.831 97.772C151.831 97.26 151.763 96.824 151.627 96.464C151.491 96.104 151.283 95.828 151.003 95.636C150.731 95.436 150.375 95.336 149.935 95.336C149.279 95.336 148.803 95.552 148.507 95.984C148.211 96.416 148.063 97.012 148.063 97.772ZM157.596 94.448C157.716 94.448 157.844 94.456 157.98 94.472C158.124 94.48 158.248 94.496 158.352 94.52L158.22 95.492C158.116 95.468 158 95.448 157.872 95.432C157.752 95.416 157.636 95.408 157.524 95.408C157.276 95.408 157.04 95.46 156.816 95.564C156.592 95.668 156.392 95.816 156.216 96.008C156.04 96.192 155.9 96.416 155.796 96.68C155.7 96.944 155.652 97.24 155.652 97.568V101H154.596V94.568H155.46L155.58 95.744H155.628C155.764 95.504 155.928 95.288 156.12 95.096C156.312 94.896 156.532 94.74 156.78 94.628C157.028 94.508 157.3 94.448 157.596 94.448ZM165.106 94.46C165.89 94.46 166.47 94.632 166.846 94.976C167.222 95.32 167.41 95.868 167.41 96.62V101H166.642L166.438 100.088H166.39C166.206 100.32 166.014 100.516 165.814 100.676C165.622 100.828 165.398 100.94 165.142 101.012C164.894 101.084 164.59 101.12 164.23 101.12C163.846 101.12 163.498 101.052 163.186 100.916C162.882 100.78 162.642 100.572 162.466 100.292C162.29 100.004 162.202 99.644 162.202 99.212C162.202 98.572 162.454 98.08 162.958 97.736C163.462 97.384 164.238 97.192 165.286 97.16L166.378 97.124V96.74C166.378 96.204 166.262 95.832 166.03 95.624C165.798 95.416 165.47 95.312 165.046 95.312C164.71 95.312 164.39 95.364 164.086 95.468C163.782 95.564 163.498 95.676 163.234 95.804L162.91 95.012C163.19 94.86 163.522 94.732 163.906 94.628C164.29 94.516 164.69 94.46 165.106 94.46ZM165.418 97.892C164.618 97.924 164.062 98.052 163.75 98.276C163.446 98.5 163.294 98.816 163.294 99.224C163.294 99.584 163.402 99.848 163.618 100.016C163.842 100.184 164.126 100.268 164.47 100.268C165.014 100.268 165.466 100.12 165.826 99.824C166.186 99.52 166.366 99.056 166.366 98.432V97.856L165.418 97.892ZM176.666 97.364C176.618 97.196 176.57 97.032 176.522 96.872C176.474 96.704 176.43 96.548 176.39 96.404C176.358 96.252 176.326 96.112 176.294 95.984C176.262 95.856 176.238 95.748 176.222 95.66H176.174C176.158 95.748 176.134 95.856 176.102 95.984C176.078 96.112 176.046 96.252 176.006 96.404C175.974 96.556 175.934 96.716 175.886 96.884C175.846 97.044 175.798 97.208 175.742 97.376L174.59 100.988H173.39L171.626 94.556H172.718L173.606 97.988C173.67 98.22 173.73 98.456 173.786 98.696C173.842 98.928 173.89 99.152 173.93 99.368C173.978 99.576 174.01 99.756 174.026 99.908H174.074C174.098 99.812 174.126 99.692 174.158 99.548C174.19 99.404 174.222 99.252 174.254 99.092C174.294 98.932 174.334 98.772 174.374 98.612C174.422 98.452 174.466 98.308 174.506 98.18L175.646 94.556H176.798L177.902 98.18C177.958 98.364 178.014 98.56 178.07 98.768C178.134 98.976 178.19 99.18 178.238 99.38C178.286 99.572 178.318 99.744 178.334 99.896H178.382C178.398 99.76 178.426 99.592 178.466 99.392C178.514 99.184 178.566 98.96 178.622 98.72C178.686 98.472 178.75 98.228 178.814 97.988L179.714 94.556H180.794L179.006 100.988H177.77L176.666 97.364ZM183.004 94.556C183.004 94.708 182.996 94.864 182.98 95.024C182.972 95.184 182.96 95.328 182.944 95.456H183.016C183.152 95.232 183.324 95.048 183.532 94.904C183.74 94.76 183.972 94.652 184.228 94.58C184.484 94.5 184.748 94.46 185.02 94.46C185.54 94.46 185.972 94.544 186.316 94.712C186.668 94.872 186.932 95.124 187.108 95.468C187.284 95.812 187.372 96.26 187.372 96.812V101H186.328V96.884C186.328 96.364 186.212 95.976 185.98 95.72C185.748 95.464 185.384 95.336 184.888 95.336C184.408 95.336 184.032 95.428 183.76 95.612C183.488 95.788 183.292 96.052 183.172 96.404C183.06 96.748 183.004 97.172 183.004 97.676V101H181.948V91.88H183.004V94.556ZM190.422 94.568V101H189.366V94.568H190.422ZM189.906 92.156C190.066 92.156 190.206 92.212 190.326 92.324C190.454 92.428 190.518 92.596 190.518 92.828C190.518 93.052 190.454 93.22 190.326 93.332C190.206 93.444 190.066 93.5 189.906 93.5C189.73 93.5 189.582 93.444 189.462 93.332C189.342 93.22 189.282 93.052 189.282 92.828C189.282 92.596 189.342 92.428 189.462 92.324C189.582 92.212 189.73 92.156 189.906 92.156ZM193.515 101H192.459V91.88H193.515V101ZM198.037 94.448C198.589 94.448 199.061 94.568 199.453 94.808C199.853 95.048 200.157 95.388 200.365 95.828C200.581 96.26 200.689 96.768 200.689 97.352V97.988H196.285C196.301 98.716 196.485 99.272 196.837 99.656C197.197 100.032 197.697 100.22 198.337 100.22C198.745 100.22 199.105 100.184 199.417 100.112C199.737 100.032 200.065 99.92 200.401 99.776V100.7C200.073 100.844 199.749 100.948 199.429 101.012C199.109 101.084 198.729 101.12 198.289 101.12C197.681 101.12 197.141 100.996 196.669 100.748C196.205 100.5 195.841 100.132 195.577 99.644C195.321 99.148 195.193 98.544 195.193 97.832C195.193 97.128 195.309 96.524 195.541 96.02C195.781 95.516 196.113 95.128 196.537 94.856C196.969 94.584 197.469 94.448 198.037 94.448ZM198.025 95.312C197.521 95.312 197.121 95.476 196.825 95.804C196.537 96.124 196.365 96.572 196.309 97.148H199.585C199.585 96.78 199.529 96.46 199.417 96.188C199.305 95.916 199.133 95.704 198.901 95.552C198.677 95.392 198.385 95.312 198.025 95.312ZM202.987 98.264C202.987 97.96 203.015 97.7 203.071 97.484C203.135 97.26 203.239 97.048 203.383 96.848C203.535 96.648 203.739 96.44 203.995 96.224C204.307 95.96 204.547 95.74 204.715 95.564C204.891 95.388 205.015 95.216 205.087 95.048C205.159 94.88 205.195 94.676 205.195 94.436C205.195 94.052 205.071 93.756 204.823 93.548C204.575 93.34 204.215 93.236 203.743 93.236C203.351 93.236 203.003 93.288 202.699 93.392C202.395 93.488 202.103 93.604 201.823 93.74L201.451 92.9C201.771 92.732 202.123 92.592 202.507 92.48C202.899 92.368 203.335 92.312 203.815 92.312C204.575 92.312 205.163 92.5 205.579 92.876C205.995 93.252 206.203 93.764 206.203 94.412C206.203 94.772 206.143 95.08 206.023 95.336C205.911 95.584 205.747 95.816 205.531 96.032C205.323 96.24 205.075 96.464 204.787 96.704C204.523 96.928 204.319 97.124 204.175 97.292C204.039 97.46 203.947 97.628 203.899 97.796C203.851 97.956 203.827 98.152 203.827 98.384V98.588H202.987V98.264ZM202.711 100.352C202.711 100.056 202.779 99.848 202.915 99.728C203.059 99.608 203.239 99.548 203.455 99.548C203.655 99.548 203.827 99.608 203.971 99.728C204.115 99.848 204.187 100.056 204.187 100.352C204.187 100.64 204.115 100.848 203.971 100.976C203.827 101.104 203.655 101.168 203.455 101.168C203.239 101.168 203.059 101.104 202.915 100.976C202.779 100.848 202.711 100.64 202.711 100.352Z" fill="black"/>
<rect x="114.341" y="86.6438" width="6.60052" height="6.9142" transform="rotate(45 114.341 86.6438)" fill="white"/>
</g>
<defs>
<filter id="filter0_dd_2156_5404" x="103.452" y="66" width="120.597" height="52" filterUnits="userSpaceOnUse" color-interpolation-filters="sRGB">
<feFlood flood-opacity="0" result="BackgroundImageFix"/>
<feColorMatrix in="SourceAlpha" type="matrix" values="0 0 0 0 0 0 0 0 0 0 0 0 0 0 0 0 0 0 127 0" result="hardAlpha"/>
<feOffset dy="1"/>
<feGaussianBlur stdDeviation="1"/>
<feComposite in2="hardAlpha" operator="out"/>
<feColorMatrix type="matrix" values="0 0 0 0 0.117647 0 0 0 0 0.145098 0 0 0 0 0.188235 0 0 0 0.08 0"/>
<feBlend mode="normal" in2="BackgroundImageFix" result="effect1_dropShadow_2156_5404"/>
<feColorMatrix in="SourceAlpha" type="matrix" values="0 0 0 0 0 0 0 0 0 0 0 0 0 0 0 0 0 0 127 0" result="hardAlpha"/>
<feOffset dy="2"/>
<feGaussianBlur stdDeviation="3"/>
<feComposite in2="hardAlpha" operator="out"/>
<feColorMatrix type="matrix" values="0 0 0 0 0.117647 0 0 0 0 0.145098 0 0 0 0 0.188235 0 0 0 0.12 0"/>
<feBlend mode="normal" in2="effect1_dropShadow_2156_5404" result="effect2_dropShadow_2156_5404"/>
<feBlend mode="normal" in="SourceGraphic" in2="effect2_dropShadow_2156_5404" result="shape"/>
</filter>
</defs>
</svg>
